<svg width="508" height="505" viewBox="0 0 508 505" fill="none" xmlns="http://www.w3.org/2000/svg">
<g clip-path="url(#clip0_933_251442)">
<rect y="0.365234" width="508" height="504" rx="16" fill="#986EA8"/>
<g clip-path="url(#clip1_933_251442)">
<rect x="54" y="-582" width="481" height="1041.53" rx="38.48" fill="#F5F7F9"/>
<path d="M155.107 84.1572H148.668C152.383 79.2871 155.63 74.1103 158.408 68.6269C161.186 63.1435 163.458 57.3896 165.226 51.365H144.501V46.2785H171.232V50.2287C170.186 54.9906 168.004 60.9249 164.685 68.0317C161.402 75.1024 158.209 80.4776 155.107 84.1572Z" fill="black"/>
<path d="M311.33 74.0382C311.33 77.0685 309.977 79.6118 307.272 81.6681C304.602 83.7243 301.265 84.7525 297.261 84.7525C293.329 84.7525 290.028 83.7424 287.358 81.7222C284.689 79.702 283.354 77.1948 283.354 74.2005C283.354 72.1443 284.075 70.2864 285.518 68.6269C286.961 66.9314 289 65.5606 291.633 64.5144C289.613 63.3961 288.08 62.1154 287.034 60.6724C285.987 59.2294 285.464 57.6601 285.464 55.9646C285.464 53.0065 286.601 50.5534 288.873 48.6053C291.182 46.6573 294.05 45.6832 297.477 45.6832C300.977 45.6832 303.863 46.5671 306.135 48.3347C308.444 50.1024 309.598 52.3751 309.598 55.1529C309.598 56.9927 308.985 58.6883 307.759 60.2395C306.568 61.7907 304.855 63.0714 302.618 64.0815C304.53 65.0194 305.865 65.7409 306.622 66.246C307.416 66.715 308.083 67.202 308.624 67.707C309.562 68.5728 310.248 69.5288 310.681 70.575C311.114 71.5851 311.33 72.7395 311.33 74.0382ZM291.038 55.2611C291.038 56.4877 291.399 57.5339 292.12 58.3997C292.842 59.2294 294.176 60.1132 296.124 61.0512L299.425 62.6204C301.013 61.6825 302.239 60.6183 303.105 59.4278C304.007 58.2373 304.458 56.9927 304.458 55.694C304.458 53.9624 303.826 52.5555 302.564 51.4733C301.301 50.391 299.624 49.8499 297.531 49.8499C295.655 49.8499 294.104 50.373 292.878 51.4192C291.651 52.4293 291.038 53.7099 291.038 55.2611ZM288.927 73.6053C288.927 75.4812 289.721 77.0685 291.308 78.3672C292.896 79.6298 294.88 80.2611 297.261 80.2611C299.678 80.2611 301.644 79.702 303.159 78.5836C304.674 77.4292 305.432 75.9321 305.432 74.0923C305.432 73.0101 304.981 72.036 304.079 71.1702C303.177 70.2684 301.518 69.2402 299.101 68.0858L294.826 66.0836C292.914 66.9855 291.453 68.0678 290.443 69.3304C289.433 70.593 288.927 72.018 288.927 73.6053Z" fill="black"/>
<path d="M145.042 178.093C145.042 172.321 146.449 167.631 149.263 164.024C152.113 160.38 155.774 158.558 160.248 158.558C164.721 158.558 168.365 160.38 171.178 164.024C173.992 167.631 175.399 172.321 175.399 178.093C175.399 183.865 173.992 188.573 171.178 192.216C168.365 195.824 164.721 197.627 160.248 197.627C155.774 197.627 152.113 195.824 149.263 192.216C146.449 188.573 145.042 183.865 145.042 178.093ZM150.778 178.093C150.778 182.386 151.626 185.867 153.321 188.537C155.053 191.206 157.362 192.541 160.248 192.541C163.098 192.541 165.37 191.224 167.066 188.591C168.797 185.921 169.663 182.422 169.663 178.093C169.663 173.764 168.797 170.283 167.066 167.649C165.37 164.98 163.098 163.645 160.248 163.645C157.362 163.645 155.053 164.98 153.321 167.649C151.626 170.319 150.778 173.8 150.778 178.093Z" fill="black"/>
<path d="M261.337 178.093C261.337 172.321 262.744 167.631 265.558 164.024C268.408 160.38 272.069 158.558 276.543 158.558C281.016 158.558 284.659 160.38 287.473 164.024C290.287 167.631 291.694 172.321 291.694 178.093C291.694 183.865 290.287 188.573 287.473 192.216C284.659 195.824 281.016 197.627 276.543 197.627C272.069 197.627 268.408 195.824 265.558 192.216C262.744 188.573 261.337 183.865 261.337 178.093ZM267.073 178.093C267.073 182.386 267.921 185.867 269.616 188.537C271.348 191.206 273.657 192.541 276.543 192.541C279.392 192.541 281.665 191.224 283.361 188.591C285.092 185.921 285.958 182.422 285.958 178.093C285.958 173.764 285.092 170.283 283.361 167.649C281.665 164.98 279.392 163.645 276.543 163.645C273.657 163.645 271.348 164.98 269.616 167.649C267.921 170.319 267.073 173.8 267.073 178.093ZM295.812 178.093C295.812 172.321 297.219 167.631 300.033 164.024C302.883 160.38 306.545 158.558 311.018 158.558C315.491 158.558 319.135 160.38 321.949 164.024C324.763 167.631 326.169 172.321 326.169 178.093C326.169 183.865 324.763 188.573 321.949 192.216C319.135 195.824 315.491 197.627 311.018 197.627C306.545 197.627 302.883 195.824 300.033 192.216C297.219 188.573 295.812 183.865 295.812 178.093ZM301.548 178.093C301.548 182.386 302.396 185.867 304.092 188.537C305.823 191.206 308.132 192.541 311.018 192.541C313.868 192.541 316.141 191.224 317.836 188.591C319.568 185.921 320.434 182.422 320.434 178.093C320.434 173.764 319.568 170.283 317.836 167.649C316.141 164.98 313.868 163.645 311.018 163.645C308.132 163.645 305.823 164.98 304.092 167.649C302.396 170.319 301.548 173.8 301.548 178.093Z" fill="black"/>
<path d="M434.003 69.4386C430.576 69.4386 427.726 68.3925 425.454 66.3001C423.217 64.2077 422.099 61.5021 422.099 58.1832C422.099 54.5396 423.325 51.5454 425.778 49.2005C428.267 46.8557 431.37 45.6832 435.086 45.6832C439.27 45.6832 442.734 47.3427 445.475 50.6616C448.253 53.9444 449.642 58.1291 449.642 63.2157C449.642 69.5649 447.766 74.7417 444.014 78.746C440.262 82.7503 435.428 84.7525 429.512 84.7525C428.286 84.7525 427.113 84.6623 425.995 84.4819C424.913 84.3015 423.975 84.031 423.181 83.6702V78.9624C424.119 79.2871 425.111 79.5216 426.157 79.6659C427.239 79.8102 428.358 79.8823 429.512 79.8823C433.769 79.8823 437.196 78.4754 439.793 75.6616C442.427 72.8477 443.834 69.0057 444.014 64.1356C442.896 65.7229 441.417 67.0036 439.577 67.9776C437.773 68.9516 435.915 69.4386 434.003 69.4386ZM443.852 60.2936C443.455 57.1912 442.463 54.7561 440.876 52.9884C439.288 51.2207 437.358 50.3369 435.086 50.3369C432.813 50.3369 430.991 51.0043 429.62 52.3391C428.286 53.6738 427.618 55.4776 427.618 57.7503C427.618 59.9148 428.322 61.6645 429.729 62.9992C431.135 64.334 432.975 65.0014 435.248 65.0014C436.835 65.0014 438.387 64.5865 439.902 63.7568C441.417 62.891 442.734 61.7366 443.852 60.2936Z" fill="black"/>
<path d="M157.485 295.714C156.794 295.714 156.104 295.625 155.414 295.447C154.723 295.269 154.155 295.035 153.71 294.745V292.992C154.267 293.37 154.868 293.66 155.514 293.86C156.171 294.061 156.822 294.161 157.468 294.161C158.281 294.161 158.921 293.999 159.389 293.676C159.856 293.354 160.09 292.914 160.09 292.357C160.09 291.978 159.934 291.65 159.622 291.372C159.322 291.082 158.654 290.737 157.618 290.336C156.95 290.08 156.455 289.874 156.132 289.718C155.82 289.551 155.553 289.379 155.33 289.2C154.952 288.911 154.673 288.588 154.495 288.232C154.317 287.864 154.228 287.452 154.228 286.996C154.228 286.038 154.612 285.242 155.38 284.608C156.16 283.973 157.123 283.656 158.27 283.656C158.849 283.656 159.389 283.717 159.89 283.839C160.391 283.951 160.875 284.129 161.343 284.374V286.077C160.842 285.777 160.352 285.554 159.873 285.409C159.394 285.264 158.882 285.192 158.336 285.192C157.635 285.192 157.073 285.348 156.65 285.66C156.226 285.972 156.015 286.389 156.015 286.912C156.015 287.28 156.165 287.603 156.466 287.881C156.766 288.159 157.435 288.493 158.47 288.883C159.149 289.15 159.65 289.367 159.973 289.534C160.296 289.69 160.574 289.857 160.808 290.036C161.187 290.325 161.465 290.659 161.643 291.038C161.833 291.405 161.927 291.817 161.927 292.274C161.927 293.276 161.504 294.1 160.658 294.745C159.823 295.391 158.765 295.714 157.485 295.714ZM163.896 295.53V282.386L165.616 282.136V287.798C166.028 287.486 166.484 287.241 166.985 287.063C167.498 286.873 168.01 286.779 168.522 286.779C169.435 286.779 170.142 287.035 170.643 287.547C171.155 288.059 171.411 288.772 171.411 289.685V295.53H169.674V290.119C169.674 289.484 169.53 289.022 169.24 288.733C168.962 288.432 168.528 288.282 167.937 288.282C167.525 288.282 167.136 288.338 166.768 288.449C166.401 288.56 166.017 288.744 165.616 289V295.53H163.896ZM174.866 293.309C174.866 293.654 174.983 293.927 175.217 294.127C175.462 294.328 175.785 294.428 176.186 294.428C176.542 294.428 176.887 294.372 177.221 294.261C177.555 294.138 177.917 293.944 178.307 293.676V291.522C177.149 291.566 176.286 291.739 175.718 292.04C175.15 292.329 174.866 292.752 174.866 293.309ZM180.194 295.53H178.474L178.307 294.628C177.906 294.985 177.483 295.257 177.037 295.447C176.603 295.625 176.152 295.714 175.685 295.714C174.961 295.714 174.365 295.502 173.897 295.079C173.441 294.656 173.213 294.105 173.213 293.426C173.213 292.502 173.647 291.784 174.515 291.271C175.384 290.748 176.648 290.464 178.307 290.42V289.919C178.307 289.373 178.156 288.961 177.856 288.683C177.555 288.404 177.11 288.265 176.52 288.265C176.063 288.265 175.595 288.338 175.117 288.482C174.649 288.616 174.176 288.822 173.697 289.1V287.631C174.087 287.374 174.554 287.168 175.1 287.013C175.657 286.857 176.186 286.779 176.687 286.779C177.755 286.779 178.579 287.046 179.158 287.58C179.737 288.115 180.027 288.866 180.027 289.835V293.827C180.027 294.183 180.038 294.478 180.06 294.712C180.083 294.946 180.127 295.219 180.194 295.53ZM184.15 289.701V295.53H182.43V287.129L184.15 286.846V288.349C184.64 287.759 185.169 287.341 185.736 287.096C186.304 286.84 186.906 286.762 187.54 286.862V288.599C186.906 288.466 186.293 288.493 185.703 288.683C185.124 288.872 184.606 289.212 184.15 289.701ZM192.381 288.148C191.769 288.148 191.251 288.349 190.828 288.75C190.405 289.15 190.138 289.696 190.026 290.386H194.335V290.303C194.335 289.646 194.163 289.123 193.818 288.733C193.472 288.343 192.994 288.148 192.381 288.148ZM195.655 293.693V295.146C195.243 295.335 194.814 295.475 194.369 295.564C193.935 295.664 193.472 295.714 192.983 295.714C191.624 295.714 190.511 295.296 189.642 294.461C188.785 293.615 188.356 292.535 188.356 291.221C188.356 289.952 188.74 288.894 189.509 288.048C190.277 287.202 191.246 286.779 192.415 286.779C193.55 286.779 194.43 287.146 195.054 287.881C195.688 288.605 196.005 289.596 196.005 290.854C196.005 291.021 196.005 291.149 196.005 291.238C196.005 291.316 196 291.394 195.989 291.472H189.976C190.043 292.318 190.366 292.997 190.945 293.509C191.535 294.01 192.276 294.261 193.166 294.261C193.701 294.261 194.146 294.216 194.502 294.127C194.87 294.038 195.254 293.894 195.655 293.693ZM203.734 289V295.53H202.013V287.129L203.734 286.846V287.781C204.079 287.491 204.502 287.252 205.003 287.063C205.515 286.873 206.016 286.779 206.506 286.779C207.04 286.779 207.508 286.885 207.909 287.096C208.31 287.296 208.627 287.592 208.861 287.981C209.284 287.614 209.774 287.324 210.331 287.113C210.899 286.89 211.461 286.779 212.017 286.779C212.886 286.779 213.565 287.04 214.055 287.564C214.545 288.076 214.79 288.783 214.79 289.685V295.53H213.07V290.119C213.07 289.484 212.936 289.022 212.669 288.733C212.402 288.432 211.99 288.282 211.433 288.282C211.043 288.282 210.665 288.343 210.297 288.466C209.941 288.588 209.579 288.783 209.212 289.05C209.223 289.15 209.234 289.256 209.245 289.367C209.256 289.468 209.262 289.573 209.262 289.685V295.53H207.542V290.119C207.542 289.484 207.408 289.022 207.141 288.733C206.873 288.432 206.462 288.282 205.905 288.282C205.515 288.282 205.148 288.343 204.802 288.466C204.457 288.577 204.101 288.755 203.734 289ZM216.474 298.102C217.154 298.102 217.705 297.88 218.128 297.434C218.562 296.989 219.041 296.143 219.564 294.896L216.04 286.962H217.894L220.466 293.109L223.005 286.962H224.692L220.95 295.447C220.26 296.994 219.598 298.058 218.963 298.637C218.328 299.227 217.527 299.522 216.558 299.522C216.402 299.522 216.246 299.505 216.09 299.472C215.934 299.45 215.806 299.416 215.706 299.372V297.985C215.818 298.019 215.94 298.047 216.074 298.069C216.218 298.091 216.352 298.102 216.474 298.102ZM230.215 295.53V287.129L231.935 286.846V287.798C232.347 287.486 232.804 287.241 233.305 287.063C233.817 286.873 234.329 286.779 234.841 286.779C235.754 286.779 236.461 287.035 236.962 287.547C237.475 288.059 237.731 288.772 237.731 289.685V295.53H235.994V290.119C235.994 289.484 235.849 289.022 235.56 288.733C235.281 288.432 234.847 288.282 234.257 288.282C233.845 288.282 233.455 288.338 233.088 288.449C232.72 288.56 232.336 288.744 231.935 289V295.53H230.215ZM241.186 293.309C241.186 293.654 241.302 293.927 241.536 294.127C241.781 294.328 242.104 294.428 242.505 294.428C242.861 294.428 243.206 294.372 243.54 294.261C243.874 294.138 244.236 293.944 244.626 293.676V291.522C243.468 291.566 242.605 291.739 242.037 292.04C241.469 292.329 241.186 292.752 241.186 293.309ZM246.513 295.53H244.793L244.626 294.628C244.225 294.985 243.802 295.257 243.357 295.447C242.923 295.625 242.472 295.714 242.004 295.714C241.28 295.714 240.685 295.502 240.217 295.079C239.76 294.656 239.532 294.105 239.532 293.426C239.532 292.502 239.966 291.784 240.835 291.271C241.703 290.748 242.967 290.464 244.626 290.42V289.919C244.626 289.373 244.476 288.961 244.175 288.683C243.874 288.404 243.429 288.265 242.839 288.265C242.383 288.265 241.915 288.338 241.436 288.482C240.968 288.616 240.495 288.822 240.016 289.1V287.631C240.406 287.374 240.874 287.168 241.419 287.013C241.976 286.857 242.505 286.779 243.006 286.779C244.075 286.779 244.899 287.046 245.478 287.58C246.057 288.115 246.346 288.866 246.346 289.835V293.827C246.346 294.183 246.357 294.478 246.38 294.712C246.402 294.946 246.447 295.219 246.513 295.53ZM250.469 289V295.53H248.749V287.129L250.469 286.846V287.781C250.814 287.491 251.237 287.252 251.739 287.063C252.251 286.873 252.752 286.779 253.242 286.779C253.776 286.779 254.244 286.885 254.645 287.096C255.045 287.296 255.363 287.592 255.597 287.981C256.02 287.614 256.51 287.324 257.066 287.113C257.634 286.89 258.196 286.779 258.753 286.779C259.622 286.779 260.301 287.04 260.791 287.564C261.281 288.076 261.526 288.783 261.526 289.685V295.53H259.805V290.119C259.805 289.484 259.672 289.022 259.404 288.733C259.137 288.432 258.725 288.282 258.169 288.282C257.779 288.282 257.4 288.343 257.033 288.466C256.677 288.588 256.315 288.783 255.947 289.05C255.958 289.15 255.97 289.256 255.981 289.367C255.992 289.468 255.997 289.573 255.997 289.685V295.53H254.277V290.119C254.277 289.484 254.144 289.022 253.876 288.733C253.609 288.432 253.197 288.282 252.64 288.282C252.251 288.282 251.883 288.343 251.538 288.466C251.193 288.577 250.837 288.755 250.469 289ZM267.285 288.148C266.673 288.148 266.155 288.349 265.732 288.75C265.309 289.15 265.042 289.696 264.93 290.386H269.239V290.303C269.239 289.646 269.067 289.123 268.722 288.733C268.376 288.343 267.898 288.148 267.285 288.148ZM270.559 293.693V295.146C270.147 295.335 269.718 295.475 269.273 295.564C268.838 295.664 268.376 295.714 267.886 295.714C266.528 295.714 265.415 295.296 264.546 294.461C263.689 293.615 263.26 292.535 263.26 291.221C263.26 289.952 263.644 288.894 264.413 288.048C265.181 287.202 266.15 286.779 267.319 286.779C268.454 286.779 269.334 287.146 269.957 287.881C270.592 288.605 270.909 289.596 270.909 290.854C270.909 291.021 270.909 291.149 270.909 291.238C270.909 291.316 270.904 291.394 270.893 291.472H264.88C264.947 292.318 265.27 292.997 265.849 293.509C266.439 294.01 267.179 294.261 268.07 294.261C268.605 294.261 269.05 294.216 269.406 294.127C269.774 294.038 270.158 293.894 270.559 293.693ZM277.936 293.309C277.936 293.654 278.053 293.927 278.287 294.127C278.532 294.328 278.855 294.428 279.255 294.428C279.612 294.428 279.957 294.372 280.291 294.261C280.625 294.138 280.987 293.944 281.377 293.676V291.522C280.219 291.566 279.356 291.739 278.788 292.04C278.22 292.329 277.936 292.752 277.936 293.309ZM283.264 295.53H281.544L281.377 294.628C280.976 294.985 280.553 295.257 280.107 295.447C279.673 295.625 279.222 295.714 278.754 295.714C278.031 295.714 277.435 295.502 276.967 295.079C276.511 294.656 276.283 294.105 276.283 293.426C276.283 292.502 276.717 291.784 277.585 291.271C278.454 290.748 279.718 290.464 281.377 290.42V289.919C281.377 289.373 281.226 288.961 280.926 288.683C280.625 288.404 280.18 288.265 279.59 288.265C279.133 288.265 278.665 288.338 278.187 288.482C277.719 288.616 277.246 288.822 276.767 289.1V287.631C277.157 287.374 277.624 287.168 278.17 287.013C278.727 286.857 279.255 286.779 279.757 286.779C280.825 286.779 281.649 287.046 282.228 287.58C282.807 288.115 283.097 288.866 283.097 289.835V293.827C283.097 294.183 283.108 294.478 283.13 294.712C283.152 294.946 283.197 295.219 283.264 295.53ZM285.499 295.53V287.129L287.22 286.846V287.798C287.632 287.486 288.088 287.241 288.589 287.063C289.101 286.873 289.614 286.779 290.126 286.779C291.039 286.779 291.746 287.035 292.247 287.547C292.759 288.059 293.015 288.772 293.015 289.685V295.53H291.278V290.119C291.278 289.484 291.133 289.022 290.844 288.733C290.566 288.432 290.131 288.282 289.541 288.282C289.129 288.282 288.74 288.338 288.372 288.449C288.005 288.56 287.621 288.744 287.22 289V295.53H285.499ZM298.892 294.228C299.293 294.228 299.677 294.155 300.044 294.01C300.412 293.866 300.74 293.665 301.029 293.409V288.649C300.84 288.493 300.59 288.377 300.278 288.299C299.977 288.209 299.66 288.165 299.326 288.165C298.469 288.165 297.784 288.46 297.272 289.05C296.759 289.64 296.503 290.425 296.503 291.405C296.503 292.274 296.721 292.964 297.155 293.476C297.589 293.977 298.168 294.228 298.892 294.228ZM302.75 295.363L301.029 295.63V294.662C300.662 295.007 300.261 295.269 299.827 295.447C299.404 295.625 298.964 295.714 298.508 295.714C297.372 295.714 296.459 295.33 295.769 294.562C295.089 293.793 294.75 292.763 294.75 291.472C294.75 290.091 295.167 288.967 296.002 288.098C296.837 287.219 297.901 286.779 299.192 286.779C299.526 286.779 299.86 286.823 300.194 286.912C300.528 286.99 300.807 287.096 301.029 287.23V282.386L302.75 282.119V295.363ZM312.783 288.148C312.17 288.148 311.652 288.349 311.229 288.75C310.806 289.15 310.539 289.696 310.428 290.386H314.737V290.303C314.737 289.646 314.564 289.123 314.219 288.733C313.874 288.343 313.395 288.148 312.783 288.148ZM316.056 293.693V295.146C315.644 295.335 315.215 295.475 314.77 295.564C314.336 295.664 313.874 295.714 313.384 295.714C312.025 295.714 310.912 295.296 310.044 294.461C309.186 293.615 308.758 292.535 308.758 291.221C308.758 289.952 309.142 288.894 309.91 288.048C310.678 287.202 311.647 286.779 312.816 286.779C313.952 286.779 314.831 287.146 315.455 287.881C316.089 288.605 316.407 289.596 316.407 290.854C316.407 291.021 316.407 291.149 316.407 291.238C316.407 291.316 316.401 291.394 316.39 291.472H310.378C310.444 292.318 310.767 292.997 311.346 293.509C311.936 294.01 312.677 294.261 313.568 294.261C314.102 294.261 314.547 294.216 314.904 294.127C315.271 294.038 315.655 293.894 316.056 293.693ZM319.962 289V295.53H318.242V287.129L319.962 286.846V287.781C320.307 287.491 320.73 287.252 321.231 287.063C321.743 286.873 322.244 286.779 322.734 286.779C323.269 286.779 323.736 286.885 324.137 287.096C324.538 287.296 324.855 287.592 325.089 287.981C325.512 287.614 326.002 287.324 326.559 287.113C327.127 286.89 327.689 286.779 328.246 286.779C329.114 286.779 329.793 287.04 330.283 287.564C330.773 288.076 331.018 288.783 331.018 289.685V295.53H329.298V290.119C329.298 289.484 329.164 289.022 328.897 288.733C328.63 288.432 328.218 288.282 327.661 288.282C327.272 288.282 326.893 288.343 326.526 288.466C326.169 288.588 325.807 288.783 325.44 289.05C325.451 289.15 325.462 289.256 325.473 289.367C325.484 289.468 325.49 289.573 325.49 289.685V295.53H323.77V290.119C323.77 289.484 323.636 289.022 323.369 288.733C323.102 288.432 322.69 288.282 322.133 288.282C321.743 288.282 321.376 288.343 321.031 288.466C320.686 288.577 320.329 288.755 319.962 289ZM334.473 293.309C334.473 293.654 334.59 293.927 334.824 294.127C335.069 294.328 335.392 294.428 335.793 294.428C336.149 294.428 336.494 294.372 336.828 294.261C337.162 294.138 337.524 293.944 337.914 293.676V291.522C336.756 291.566 335.893 291.739 335.325 292.04C334.757 292.329 334.473 292.752 334.473 293.309ZM339.801 295.53H338.081L337.914 294.628C337.513 294.985 337.09 295.257 336.644 295.447C336.21 295.625 335.759 295.714 335.291 295.714C334.568 295.714 333.972 295.502 333.504 295.079C333.048 294.656 332.82 294.105 332.82 293.426C332.82 292.502 333.254 291.784 334.122 291.271C334.991 290.748 336.255 290.464 337.914 290.42V289.919C337.914 289.373 337.763 288.961 337.463 288.683C337.162 288.404 336.717 288.265 336.127 288.265C335.67 288.265 335.202 288.338 334.724 288.482C334.256 288.616 333.783 288.822 333.304 289.1V287.631C333.694 287.374 334.161 287.168 334.707 287.013C335.264 286.857 335.793 286.779 336.294 286.779C337.362 286.779 338.186 287.046 338.765 287.58C339.344 288.115 339.634 288.866 339.634 289.835V293.827C339.634 294.183 339.645 294.478 339.667 294.712C339.689 294.946 339.734 295.219 339.801 295.53ZM342.905 284.875C342.593 284.875 342.332 284.769 342.12 284.557C341.908 284.346 341.803 284.09 341.803 283.789C341.803 283.489 341.908 283.232 342.12 283.021C342.332 282.809 342.593 282.704 342.905 282.704C343.217 282.704 343.478 282.809 343.69 283.021C343.902 283.232 344.007 283.489 344.007 283.789C344.007 284.09 343.902 284.346 343.69 284.557C343.478 284.769 343.217 284.875 342.905 284.875ZM343.757 295.53H342.037V287.129L343.757 286.846V295.53ZM348.013 295.53H346.293V282.386L348.013 282.136V295.53ZM357.261 293.309L359.199 286.962H360.384L362.372 293.326L364.309 286.962H365.913L362.99 295.58H361.67L359.716 289.351L357.779 295.58H356.46L353.537 286.962H355.29L357.261 293.309ZM368.132 284.875C367.82 284.875 367.558 284.769 367.347 284.557C367.135 284.346 367.029 284.09 367.029 283.789C367.029 283.489 367.135 283.232 367.347 283.021C367.558 282.809 367.82 282.704 368.132 282.704C368.443 282.704 368.705 282.809 368.916 283.021C369.128 283.232 369.234 283.489 369.234 283.789C369.234 284.09 369.128 284.346 368.916 284.557C368.705 284.769 368.443 284.875 368.132 284.875ZM368.983 295.53H367.263V287.129L368.983 286.846V295.53ZM370.518 288.299V286.962H371.77V285.109L373.507 284.841V286.962H376.48L376.246 288.299H373.507V292.875C373.507 293.298 373.624 293.626 373.858 293.86C374.103 294.094 374.437 294.211 374.86 294.211C375.261 294.211 375.606 294.183 375.895 294.127C376.196 294.061 376.513 293.96 376.847 293.827V295.246C376.536 295.402 376.19 295.514 375.812 295.58C375.444 295.658 375.049 295.697 374.626 295.697C373.746 295.697 373.051 295.469 372.538 295.013C372.026 294.556 371.77 293.91 371.77 293.075V288.299H370.518ZM378.515 295.53V282.386L380.235 282.136V287.798C380.647 287.486 381.104 287.241 381.605 287.063C382.117 286.873 382.629 286.779 383.141 286.779C384.054 286.779 384.761 287.035 385.263 287.547C385.775 288.059 386.031 288.772 386.031 289.685V295.53H384.294V290.119C384.294 289.484 384.149 289.022 383.86 288.733C383.581 288.432 383.147 288.282 382.557 288.282C382.145 288.282 381.755 288.338 381.388 288.449C381.02 288.56 380.636 288.744 380.235 289V295.53H378.515ZM391.638 288.299V286.962H392.89V285.109L394.627 284.841V286.962H397.6L397.366 288.299H394.627V292.875C394.627 293.298 394.744 293.626 394.978 293.86C395.223 294.094 395.557 294.211 395.98 294.211C396.381 294.211 396.726 294.183 397.016 294.127C397.316 294.061 397.634 293.96 397.968 293.827V295.246C397.656 295.402 397.311 295.514 396.932 295.58C396.565 295.658 396.169 295.697 395.746 295.697C394.867 295.697 394.171 295.469 393.659 295.013C393.147 294.556 392.89 293.91 392.89 293.075V288.299H391.638ZM399.635 295.53V282.386L401.356 282.136V287.798C401.768 287.486 402.224 287.241 402.725 287.063C403.237 286.873 403.75 286.779 404.262 286.779C405.175 286.779 405.882 287.035 406.383 287.547C406.895 288.059 407.151 288.772 407.151 289.685V295.53H405.414V290.119C405.414 289.484 405.269 289.022 404.98 288.733C404.702 288.432 404.267 288.282 403.677 288.282C403.265 288.282 402.876 288.338 402.508 288.449C402.141 288.56 401.757 288.744 401.356 289V295.53H399.635ZM410.456 284.875C410.144 284.875 409.882 284.769 409.671 284.557C409.459 284.346 409.353 284.09 409.353 283.789C409.353 283.489 409.459 283.232 409.671 283.021C409.882 282.809 410.144 282.704 410.456 282.704C410.767 282.704 411.029 282.809 411.241 283.021C411.452 283.232 411.558 283.489 411.558 283.789C411.558 284.09 411.452 284.346 411.241 284.557C411.029 284.769 410.767 284.875 410.456 284.875ZM411.307 295.53H409.587V287.129L411.307 286.846V295.53ZM416.015 295.714C415.48 295.714 414.963 295.653 414.462 295.53C413.972 295.419 413.549 295.263 413.192 295.063V293.509C413.604 293.788 414.044 293.999 414.512 294.144C414.991 294.278 415.486 294.344 415.998 294.344C416.499 294.344 416.9 294.244 417.201 294.044C417.512 293.832 417.668 293.554 417.668 293.209C417.668 292.964 417.563 292.747 417.351 292.557C417.151 292.368 416.705 292.14 416.015 291.873C415.514 291.683 415.141 291.528 414.896 291.405C414.662 291.283 414.462 291.155 414.295 291.021C414.016 290.798 413.81 290.548 413.677 290.269C413.554 289.991 413.493 289.674 413.493 289.317C413.493 288.582 413.782 287.976 414.361 287.497C414.952 287.018 415.692 286.779 416.583 286.779C416.995 286.779 417.379 286.818 417.735 286.896C418.103 286.974 418.481 287.102 418.871 287.28V288.8C418.503 288.588 418.136 288.427 417.769 288.315C417.412 288.204 417.056 288.148 416.7 288.148C416.243 288.148 415.876 288.248 415.597 288.449C415.319 288.649 415.18 288.917 415.18 289.251C415.18 289.496 415.28 289.713 415.48 289.902C415.692 290.091 416.149 290.314 416.85 290.57C417.863 290.96 418.537 291.344 418.871 291.722C419.205 292.09 419.372 292.546 419.372 293.092C419.372 293.871 419.055 294.506 418.42 294.996C417.785 295.475 416.984 295.714 416.015 295.714ZM429.388 295.714C428.097 295.714 427.022 295.296 426.165 294.461C425.319 293.626 424.895 292.563 424.895 291.271C424.895 289.958 425.319 288.883 426.165 288.048C427.011 287.202 428.085 286.779 429.388 286.779C429.7 286.779 430.012 286.812 430.323 286.879C430.646 286.946 430.936 287.035 431.192 287.146V288.666C430.936 288.532 430.663 288.438 430.373 288.382C430.095 288.315 429.789 288.282 429.455 288.282C428.62 288.282 427.93 288.56 427.384 289.117C426.849 289.674 426.582 290.392 426.582 291.271C426.582 292.129 426.855 292.836 427.401 293.392C427.946 293.938 428.631 294.211 429.455 294.211C429.756 294.211 430.056 294.177 430.357 294.111C430.669 294.044 430.964 293.944 431.242 293.81V295.347C430.986 295.458 430.685 295.547 430.34 295.614C430.006 295.681 429.689 295.714 429.388 295.714ZM433.244 295.53V282.386L434.964 282.136V287.798C435.376 287.486 435.833 287.241 436.334 287.063C436.846 286.873 437.358 286.779 437.87 286.779C438.783 286.779 439.49 287.035 439.991 287.547C440.503 288.059 440.759 288.772 440.759 289.685V295.53H439.022V290.119C439.022 289.484 438.878 289.022 438.588 288.733C438.31 288.432 437.876 288.282 437.286 288.282C436.874 288.282 436.484 288.338 436.116 288.449C435.749 288.56 435.365 288.744 434.964 289V295.53H433.244ZM444.214 293.309C444.214 293.654 444.331 293.927 444.565 294.127C444.81 294.328 445.133 294.428 445.534 294.428C445.89 294.428 446.235 294.372 446.569 294.261C446.903 294.138 447.265 293.944 447.655 293.676V291.522C446.497 291.566 445.634 291.739 445.066 292.04C444.498 292.329 444.214 292.752 444.214 293.309ZM449.542 295.53H447.822L447.655 294.628C447.254 294.985 446.831 295.257 446.385 295.447C445.951 295.625 445.5 295.714 445.033 295.714C444.309 295.714 443.713 295.502 443.246 295.079C442.789 294.656 442.561 294.105 442.561 293.426C442.561 292.502 442.995 291.784 443.864 291.271C444.732 290.748 445.996 290.464 447.655 290.42V289.919C447.655 289.373 447.504 288.961 447.204 288.683C446.903 288.404 446.458 288.265 445.868 288.265C445.411 288.265 444.944 288.338 444.465 288.482C443.997 288.616 443.524 288.822 443.045 289.1V287.631C443.435 287.374 443.903 287.168 444.448 287.013C445.005 286.857 445.534 286.779 446.035 286.779C447.104 286.779 447.928 287.046 448.507 287.58C449.086 288.115 449.375 288.866 449.375 289.835V293.827C449.375 294.183 449.386 294.478 449.408 294.712C449.431 294.946 449.475 295.219 449.542 295.53ZM453.498 289.701V295.53H451.778V287.129L453.498 286.846V288.349C453.988 287.759 454.517 287.341 455.085 287.096C455.652 286.84 456.254 286.762 456.888 286.862V288.599C456.254 288.466 455.641 288.493 455.051 288.683C454.472 288.872 453.954 289.212 453.498 289.701ZM459.274 284.875C458.963 284.875 458.701 284.769 458.489 284.557C458.278 284.346 458.172 284.09 458.172 283.789C458.172 283.489 458.278 283.232 458.489 283.021C458.701 282.809 458.963 282.704 459.274 282.704C459.586 282.704 459.848 282.809 460.059 283.021C460.271 283.232 460.377 283.489 460.377 283.789C460.377 284.09 460.271 284.346 460.059 284.557C459.848 284.769 459.586 284.875 459.274 284.875ZM460.126 295.53H458.406V287.129L460.126 286.846V295.53ZM461.66 288.299V286.962H462.913V285.109L464.65 284.841V286.962H467.623L467.389 288.299H464.65V292.875C464.65 293.298 464.767 293.626 465.001 293.86C465.246 294.094 465.58 294.211 466.003 294.211C466.404 294.211 466.749 294.183 467.038 294.127C467.339 294.061 467.656 293.96 467.99 293.827V295.246C467.678 295.402 467.333 295.514 466.955 295.58C466.587 295.658 466.192 295.697 465.769 295.697C464.889 295.697 464.193 295.469 463.681 295.013C463.169 294.556 462.913 293.91 462.913 293.075V288.299H461.66ZM468.906 298.102C469.586 298.102 470.137 297.88 470.56 297.434C470.994 296.989 471.473 296.143 471.996 294.896L468.472 286.962H470.326L472.898 293.109L475.437 286.962H477.123L473.382 295.447C472.692 296.994 472.03 298.058 471.395 298.637C470.76 299.227 469.959 299.522 468.99 299.522C468.834 299.522 468.678 299.505 468.522 299.472C468.366 299.45 468.238 299.416 468.138 299.372V297.985C468.249 298.019 468.372 298.047 468.506 298.069C468.65 298.091 468.784 298.102 468.906 298.102Z" fill="#74726F"/>
<path fill-rule="evenodd" clip-rule="evenodd" d="M140.25 276.53C140.995 276.53 141.628 276.796 142.149 277.328C142.671 277.86 142.931 278.488 142.931 279.212V297.792C142.931 298.515 142.671 299.143 142.149 299.675C141.628 300.207 140.995 300.473 140.25 300.473H121.67C120.925 300.473 120.292 300.207 119.77 299.675C119.249 299.143 118.988 298.515 118.988 297.792V279.212C118.988 278.488 119.249 277.86 119.77 277.328C120.292 276.796 120.925 276.53 121.67 276.53H140.25ZM137.735 283.95L135.926 282.578C135.838 282.537 135.762 282.516 135.696 282.516C135.608 282.516 135.542 282.537 135.499 282.578L128.921 290.591L126.29 288.159C126.158 288.034 126.048 287.972 125.961 287.972C125.917 287.972 125.829 288.034 125.698 288.159C125.347 288.491 124.864 288.969 124.251 289.593L124.185 289.655C124.141 289.738 124.119 289.79 124.119 289.811C124.119 289.853 124.141 289.915 124.185 289.998L124.283 290.092L128.921 294.332C129.03 294.436 129.14 294.488 129.25 294.488C129.315 294.488 129.414 294.425 129.546 294.301L137.735 284.324C137.779 284.241 137.801 284.179 137.801 284.137C137.801 284.096 137.779 284.033 137.735 283.95Z" fill="#74726F"/>
<rect x="54" y="370.594" width="480.572" height="88.9316" fill="#841820"/>
<path d="M261.661 425.668H256.35V408.132H261.661C264.217 408.132 266.221 408.908 267.674 410.461C269.127 412.015 269.853 414.161 269.853 416.9C269.853 419.639 269.127 421.785 267.674 423.338C266.221 424.891 264.217 425.668 261.661 425.668ZM259.858 411.012V422.787H261.636C263.156 422.787 264.309 422.286 265.094 421.284C265.895 420.265 266.296 418.804 266.296 416.9C266.296 414.962 265.904 413.501 265.119 412.516C264.334 411.514 263.173 411.012 261.636 411.012H259.858ZM278.146 415.221C277.277 415.221 276.592 415.572 276.091 416.273C275.607 416.975 275.365 417.952 275.365 419.205C275.365 420.457 275.607 421.434 276.091 422.136C276.592 422.837 277.277 423.188 278.146 423.188C279.014 423.188 279.691 422.837 280.175 422.136C280.676 421.434 280.926 420.457 280.926 419.205C280.926 417.952 280.676 416.975 280.175 416.273C279.691 415.572 279.014 415.221 278.146 415.221ZM278.146 412.44C279.899 412.44 281.361 413.083 282.53 414.369C283.716 415.639 284.309 417.25 284.309 419.205C284.309 421.142 283.716 422.754 282.53 424.04C281.361 425.309 279.899 425.944 278.146 425.944C276.392 425.944 274.922 425.309 273.737 424.04C272.567 422.754 271.983 421.142 271.983 419.205C271.983 417.25 272.567 415.639 273.737 414.369C274.922 413.083 276.392 412.44 278.146 412.44ZM290.797 413.944C291.382 413.459 291.991 413.092 292.626 412.841C293.277 412.574 293.937 412.44 294.605 412.44C295.807 412.44 296.759 412.85 297.461 413.668C298.162 414.47 298.513 415.555 298.513 416.925V425.668H295.131V417.526C295.131 416.741 294.964 416.165 294.63 415.797C294.313 415.413 293.828 415.221 293.177 415.221C292.776 415.221 292.384 415.288 292 415.422C291.615 415.555 291.215 415.764 290.797 416.048V425.668H287.415V412.716H290.797V413.944ZM304.851 421.985C304.851 422.453 304.993 422.82 305.277 423.088C305.578 423.355 305.979 423.488 306.48 423.488C306.931 423.488 307.348 423.422 307.732 423.288C308.133 423.154 308.526 422.946 308.91 422.662V419.856C307.54 419.889 306.521 420.081 305.853 420.432C305.185 420.783 304.851 421.301 304.851 421.985ZM312.517 425.668H309.235L308.96 424.39C308.392 424.908 307.807 425.301 307.206 425.568C306.605 425.818 305.97 425.944 305.302 425.944C304.233 425.944 303.348 425.601 302.647 424.916C301.962 424.232 301.62 423.355 301.62 422.286C301.62 420.9 302.254 419.814 303.523 419.029C304.793 418.244 306.588 417.835 308.91 417.802V417.301C308.91 416.616 308.718 416.106 308.333 415.772C307.966 415.438 307.398 415.271 306.63 415.271C305.979 415.271 305.285 415.372 304.551 415.572C303.832 415.772 303.106 416.056 302.371 416.424V413.668C302.972 413.301 303.716 413.008 304.601 412.791C305.486 412.557 306.329 412.44 307.131 412.44C308.768 412.44 310.029 412.875 310.914 413.743C311.799 414.595 312.242 415.797 312.242 417.351V422.762C312.242 423.346 312.258 423.864 312.292 424.315C312.342 424.766 312.417 425.217 312.517 425.668ZM314.797 415.271V412.716H316.651V409.635H320.008V412.716H323.866V415.271H320.008V421.434C320.008 422.002 320.15 422.436 320.434 422.737C320.734 423.021 321.16 423.163 321.711 423.163C322.079 423.163 322.446 423.121 322.814 423.037C323.181 422.954 323.64 422.795 324.191 422.562V425.192C323.674 425.459 323.148 425.651 322.613 425.768C322.079 425.885 321.503 425.944 320.885 425.944C319.532 425.944 318.488 425.576 317.753 424.841C317.018 424.106 316.651 423.054 316.651 421.685V415.271H314.797ZM330.379 422.111C331.114 422.845 332.141 423.213 333.461 423.213C334.045 423.213 334.605 423.146 335.139 423.012C335.69 422.879 336.275 422.67 336.893 422.386V425.042C336.292 425.359 335.682 425.584 335.064 425.718C334.446 425.868 333.761 425.944 333.01 425.944C330.972 425.944 329.327 425.326 328.075 424.09C326.839 422.854 326.221 421.217 326.221 419.179C326.221 417.242 326.788 415.639 327.924 414.369C329.06 413.083 330.505 412.44 332.258 412.44C334.112 412.44 335.49 413.125 336.392 414.495C337.294 415.848 337.611 417.685 337.344 420.006H329.352C329.502 420.875 329.845 421.576 330.379 422.111ZM332.208 415.046C331.323 415.046 330.613 415.405 330.079 416.123C329.711 416.607 329.469 417.209 329.352 417.927H334.363C334.413 417.075 334.246 416.382 333.862 415.848C333.477 415.313 332.926 415.046 332.208 415.046Z" fill="white"/>
<rect x="442.767" y="172.309" width="2.56533" height="18.8124" rx="1.28267" transform="rotate(45 442.767 172.309)" fill="black"/>
<rect x="444.582" y="185.609" width="2.56533" height="18.8124" rx="1.28267" transform="rotate(135 444.582 185.609)" fill="black"/>
<path fill-rule="evenodd" clip-rule="evenodd" d="M413.9 181.718C412.898 180.716 412.898 179.092 413.9 178.09L426.122 165.868C426.443 165.547 426.878 165.367 427.331 165.367H446.29C449.596 165.367 452.276 168.047 452.276 171.353V188.455C452.276 191.761 449.596 194.441 446.29 194.441H427.331C426.878 194.441 426.443 194.261 426.122 193.94L413.9 181.718ZM416.714 181.113C416.046 180.446 416.046 179.363 416.714 178.695L427.226 168.183C427.386 168.023 427.604 167.933 427.831 167.933H446.289C448.178 167.933 449.709 169.464 449.709 171.353V188.455C449.709 190.344 448.178 191.876 446.289 191.876H427.831C427.604 191.876 427.386 191.786 427.226 191.625L416.714 181.113Z" fill="black"/>
</g>
</g>
<defs>
<clipPath id="clip0_933_251442">
<rect y="0.365234" width="508" height="504" rx="16" fill="white"/>
</clipPath>
<clipPath id="clip1_933_251442">
<rect x="54" y="-582" width="481" height="1041.53" rx="38.48" fill="white"/>
</clipPath>
</defs>
</svg>
