<svg width="1040" height="89" viewBox="0 0 1040 89" fill="none" xmlns="http://www.w3.org/2000/svg">
<path fill-rule="evenodd" clip-rule="evenodd" d="M269.056 61.2861H263.748C263.521 61.2861 263.312 61.1583 263.207 60.9548L257.124 49.133H251.131V60.6727C251.131 61.0115 250.858 61.2861 250.521 61.2861H246.136C245.799 61.2861 245.526 61.0115 245.526 60.6727V30.1881C245.526 29.8494 245.799 29.5748 246.136 29.5748H256.692C260.327 29.5748 263.136 30.3951 265.12 32.0359C267.103 33.6766 268.095 36.0433 268.095 39.1361C268.095 41.2269 267.597 42.9983 266.602 44.4503C265.607 45.9023 264.193 47.0203 262.361 47.8044L269.324 60.8341C269.404 60.9833 269.348 61.1692 269.2 61.2495C269.156 61.2735 269.106 61.2861 269.056 61.2861ZM251.131 44.6028H256.713C258.589 44.6028 260.02 44.1309 261.008 43.1871C261.997 42.2433 262.491 40.9874 262.491 39.4192C262.491 37.7494 262.015 36.4499 261.063 35.5206C260.11 34.5914 258.654 34.1267 256.692 34.1267H251.131V44.6028ZM291.98 51.202H277.334C277.435 52.4072 277.746 53.4744 278.265 54.4037C278.784 55.3329 279.487 56.0589 280.375 56.5816C281.262 57.1044 282.297 57.3657 283.48 57.3657C285.808 57.3657 287.696 56.4814 289.146 54.7128C289.237 54.6013 289.401 54.5855 289.512 54.6775C289.517 54.6819 289.523 54.6866 289.528 54.6915L291.915 57.0226C292.082 57.1852 292.103 57.4471 291.964 57.6342C291.135 58.7502 290.03 59.6916 288.651 60.4584C287.137 61.3006 285.304 61.7217 283.155 61.7217C280.876 61.7217 278.885 61.2244 277.183 60.2297C275.481 59.2351 274.175 57.8739 273.266 56.146C272.358 54.4182 271.903 52.4798 271.903 50.3309V49.4379C271.903 47.0131 272.365 44.8823 273.288 43.0455C274.211 41.2088 275.481 39.7895 277.096 38.7876C278.712 37.7857 280.53 37.2848 282.549 37.2848C284.756 37.2848 286.61 37.7712 288.11 38.744C289.61 39.7169 290.732 41.0781 291.475 42.8277C292.218 44.5774 292.589 46.6065 292.589 48.9152V50.5887C292.589 50.9274 292.317 51.202 291.98 51.202ZM287.266 46.8679C287.194 45.3433 286.783 44.091 286.033 43.1109C285.283 42.1308 284.114 41.6407 282.528 41.6407C281.114 41.6407 279.974 42.1344 279.109 43.1218C278.243 44.1091 277.688 45.4957 277.443 47.2817H287.266V46.8679ZM304.793 32.7764C304.144 33.4153 303.82 34.3227 303.82 35.4988V37.7204H307.949C308.285 37.7204 308.558 37.995 308.558 38.3337V41.1145C308.558 41.4533 308.285 41.7279 307.949 41.7279H303.82V60.6727C303.82 61.0115 303.547 61.2861 303.21 61.2861H299.041C298.704 61.2861 298.432 61.0115 298.432 60.6727V41.7279H295.471C295.134 41.7279 294.861 41.4533 294.861 41.1145V38.3337C294.861 37.995 295.134 37.7204 295.471 37.7204H298.432V35.4988C298.432 33.771 298.763 32.2972 299.427 31.0776C300.091 29.8579 301.043 28.9359 302.283 28.3115C303.524 27.6872 304.995 27.375 306.697 27.375C307.248 27.375 308.071 27.4735 309.166 27.6704L309.166 27.6705C309.463 27.7241 309.677 27.989 309.667 28.293L309.575 31.3288C309.564 31.6674 309.283 31.9334 308.947 31.923C308.928 31.9224 308.908 31.9209 308.889 31.9185C308.362 31.8515 307.913 31.8181 307.541 31.8181C306.358 31.8181 305.442 32.1375 304.793 32.7764ZM312.67 60.6727V28.4457C312.67 28.107 312.942 27.8324 313.279 27.8324H317.448C317.785 27.8324 318.057 28.107 318.057 28.4457V60.6727C318.057 61.0115 317.785 61.2861 317.448 61.2861H313.279C312.942 61.2861 312.67 61.0115 312.67 60.6727ZM342.895 51.202H328.249C328.35 52.4072 328.66 53.4744 329.179 54.4037C329.699 55.3329 330.402 56.0589 331.289 56.5816C332.176 57.1044 333.211 57.3657 334.394 57.3657C336.716 57.3657 338.601 56.486 340.049 54.7265C340.147 54.608 340.321 54.5915 340.439 54.6897C340.445 54.6943 340.45 54.6992 340.455 54.7042L342.857 57.0494C343.008 57.1962 343.027 57.4322 342.902 57.6016C342.071 58.7319 340.958 59.6841 339.566 60.4584C338.051 61.3006 336.219 61.7217 334.07 61.7217C331.79 61.7217 329.8 61.2244 328.098 60.2297C326.395 59.2351 325.09 57.8739 324.181 56.146C323.272 54.4182 322.818 52.4798 322.818 50.3309V49.4379C322.818 47.0131 323.279 44.8823 324.203 43.0455C325.126 41.2088 326.395 39.7895 328.011 38.7876C329.627 37.7857 331.444 37.2848 333.464 37.2848C335.671 37.2848 337.525 37.7712 339.025 38.744C340.525 39.7169 341.647 41.0781 342.39 42.8277C343.132 44.5774 343.504 46.6065 343.504 48.9152V50.5887C343.504 50.9274 343.231 51.202 342.895 51.202ZM338.181 46.8679C338.109 45.3433 337.698 44.091 336.948 43.1109C336.197 42.1308 335.029 41.6407 333.442 41.6407C332.028 41.6407 330.889 42.1344 330.023 43.1218C329.158 44.1091 328.602 45.4957 328.357 47.2817H338.181V46.8679ZM355.253 51.2238L352.895 53.6414V60.6727C352.895 61.0115 352.622 61.2861 352.285 61.2861H348.138C347.801 61.2861 347.529 61.0115 347.529 60.6727V28.4457C347.529 28.107 347.801 27.8324 348.138 27.8324H352.285C352.622 27.8324 352.895 28.107 352.895 28.4457V46.5711L360.72 37.9208C360.835 37.7931 360.999 37.7204 361.17 37.7204H366.713C366.881 37.7204 367.017 37.8577 367.017 38.027C367.017 38.1023 366.99 38.1749 366.94 38.2311L358.715 47.5213L367.831 60.6103C367.966 60.8045 367.919 61.0722 367.726 61.2083C367.654 61.2589 367.569 61.2861 367.481 61.2861H362.391C362.19 61.2861 362.001 61.1858 361.888 61.0182L355.253 51.2238ZM381.674 57.7355V60.7094C381.674 60.9976 381.474 61.2469 381.195 61.3086C379.946 61.584 378.938 61.7217 378.168 61.7217C376.264 61.7217 374.764 61.1917 373.667 60.1317C372.571 59.0718 372.023 57.3802 372.023 55.0571V41.7279H368.824C368.487 41.7279 368.215 41.4533 368.215 41.1145V38.3337C368.215 37.995 368.487 37.7204 368.824 37.7204H372.023V32.5839C372.023 32.2451 372.296 31.9705 372.632 31.9705H376.801C377.138 31.9705 377.411 32.2451 377.411 32.5839V37.7204H380.913C381.249 37.7204 381.522 37.995 381.522 38.3337V41.1145C381.522 41.4533 381.249 41.7279 380.913 41.7279H377.411V54.6868C377.411 55.6742 377.613 56.3457 378.017 56.7014C378.421 57.0572 379.026 57.235 379.834 57.235C380.104 57.235 380.485 57.1995 380.978 57.1283L380.978 57.1284C381.311 57.0803 381.62 57.3132 381.667 57.6484C381.672 57.6773 381.674 57.7063 381.674 57.7355ZM390.762 29.5203C391.31 30.0648 391.584 30.7581 391.584 31.6003C391.584 32.4279 391.31 33.1103 390.762 33.6476C390.213 34.1848 389.471 34.4534 388.533 34.4534C387.595 34.4534 386.852 34.1884 386.304 33.6585C385.756 33.1285 385.482 32.4424 385.482 31.6003C385.482 30.7581 385.756 30.0648 386.304 29.5203C386.852 28.9758 387.595 28.7036 388.533 28.7036C389.471 28.7036 390.213 28.9758 390.762 29.5203ZM385.828 60.6727V38.3337C385.828 37.995 386.101 37.7204 386.437 37.7204H390.607C390.943 37.7204 391.216 37.995 391.216 38.3337V60.6727C391.216 61.0115 390.943 61.2861 390.607 61.2861H386.437C386.101 61.2861 385.828 61.0115 385.828 60.6727ZM415.366 38.5341L407.695 60.8731C407.61 61.1203 407.378 61.2861 407.119 61.2861H403.247C402.988 61.2861 402.757 61.1207 402.672 60.8741L394.959 38.535C394.849 38.2151 395.017 37.8656 395.335 37.7544C395.399 37.7319 395.467 37.7204 395.535 37.7204H399.807C400.076 37.7204 400.314 37.8984 400.391 38.1582L405.216 54.4254L409.935 38.1618C410.011 37.9002 410.249 37.7204 410.52 37.7204H414.79C415.127 37.7204 415.399 37.995 415.399 38.3337C415.399 38.4019 415.388 38.4696 415.366 38.5341ZM438.059 51.202H423.414C423.515 52.4072 423.825 53.4744 424.344 54.4037C424.863 55.3329 425.567 56.0589 426.454 56.5816C427.341 57.1044 428.376 57.3657 429.559 57.3657C431.851 57.3657 433.717 56.5087 435.157 54.7946C435.286 54.641 435.515 54.6218 435.667 54.7517C435.673 54.757 435.679 54.7626 435.685 54.7683L437.9 56.9304C438.121 57.1462 438.147 57.494 437.961 57.741C437.933 57.7788 437.907 57.8125 437.883 57.8422C437.074 58.8676 436.023 59.7397 434.73 60.4584C433.216 61.3006 431.384 61.7217 429.234 61.7217C426.955 61.7217 424.964 61.2244 423.262 60.2297C421.56 59.2351 420.254 57.8739 419.346 56.146C418.437 54.4182 417.982 52.4798 417.982 50.3309V49.4379C417.982 47.0131 418.444 44.8823 419.367 43.0455C420.29 41.2088 421.56 39.7895 423.176 38.7876C424.791 37.7857 426.609 37.2848 428.628 37.2848C430.835 37.2848 432.689 37.7712 434.189 38.744C435.69 39.7169 436.811 41.0781 437.554 42.8277C438.297 44.5774 438.668 46.6065 438.668 48.9152V50.5887C438.668 50.9274 438.396 51.202 438.059 51.202ZM433.345 46.8679C433.273 45.3433 432.862 44.091 432.112 43.1109C431.362 42.1308 430.194 41.6407 428.607 41.6407C427.193 41.6407 426.053 42.1344 425.188 43.1218C424.322 44.1091 423.767 45.4957 423.522 47.2817H433.345V46.8679Z" fill="#1F2539"/>
<path fill-rule="evenodd" clip-rule="evenodd" d="M214.749 21.5839L232.438 32.1144C232.696 32.2681 232.912 32.4829 233.066 32.7397C233.584 33.6002 233.303 34.7156 232.438 35.2309L217.314 44.2409L232.438 53.2441C232.696 53.3978 232.912 53.6125 233.066 53.8693C233.584 54.7298 233.303 55.8452 232.438 56.3605L214.754 66.8962C213.984 67.3545 213.024 67.355 212.254 66.8975L194.559 56.3805C194.301 56.2269 194.085 56.0121 193.93 55.7552C193.412 54.895 193.692 53.7795 194.557 53.2638L209.686 44.2415L194.559 35.2509C194.301 35.0973 194.085 34.8825 193.93 34.6256C193.412 33.7653 193.692 32.6499 194.557 32.1342L212.247 21.5848C213.017 21.1257 213.978 21.1253 214.749 21.5839ZM213.504 46.5312L199.823 54.6589C199.797 54.6743 199.775 54.6959 199.76 54.7216C199.708 54.8077 199.736 54.9192 199.823 54.9707L213.348 63.0162C213.444 63.0734 213.564 63.0734 213.661 63.0162L227.184 54.9707C227.21 54.9553 227.231 54.9337 227.247 54.908C227.299 54.8218 227.27 54.7103 227.184 54.6589L213.504 46.5312ZM213.348 25.4942L199.823 33.5293C199.797 33.5447 199.775 33.5662 199.76 33.592C199.708 33.6781 199.736 33.7896 199.823 33.8411L213.504 41.9795L227.184 33.8411C227.21 33.8257 227.231 33.8041 227.247 33.7783C227.299 33.6922 227.27 33.5807 227.184 33.5293L213.66 25.4942C213.564 25.4372 213.444 25.4371 213.348 25.4942Z" fill="#3C5AFE"/>
<path d="M542.67 44.2402L532.67 38.4667L532.67 50.0137L542.67 44.2402ZM462.67 45.2402L533.67 45.2402L533.67 43.2402L462.67 43.2402L462.67 45.2402Z" fill="#9DACFF"/>
<path d="M655.307 51.4063C655.629 49.9861 656.21 48.6304 657.114 47.4684C657.889 46.5 659.051 45.9836 660.278 45.9836C661.052 45.9836 661.504 46.1772 661.827 46.5C662.15 46.8873 662.279 47.3392 662.279 47.7911C662.279 48.3722 662.085 48.8886 661.762 49.4051C661.375 49.857 660.988 50.3089 660.407 50.5025C659.826 50.8253 659.18 51.019 658.599 51.1481C657.954 51.2772 657.243 51.3418 656.598 51.3418H655.952C655.759 51.4709 655.5 51.4709 655.307 51.4063ZM656.146 42.6911C654.726 43.3367 653.435 44.3696 652.402 45.5962C651.369 46.8228 650.594 48.243 650.078 49.7924C649.561 51.4063 649.238 53.1494 649.238 54.8924C649.238 55.9899 649.367 57.0873 649.69 58.1848C650.013 59.1531 650.465 60.1215 651.175 60.9607C651.885 61.8 652.789 62.4456 653.822 62.8974C655.113 63.4139 656.469 63.6721 657.824 63.6076C659.18 63.6721 660.536 63.4785 661.827 63.0266C662.731 62.7038 663.505 62.3164 664.28 61.8C664.667 61.4772 665.055 61.1544 665.378 60.7025C665.7 60.2506 665.894 59.7342 665.894 59.0886C665.894 57.9911 665.119 57.0873 663.699 56.3127C663.118 57.0873 662.408 57.7329 661.569 58.2494C660.665 58.8304 659.567 59.1531 658.47 59.0886C658.083 59.0886 657.631 59.024 657.243 58.8304C656.856 58.6367 656.469 58.443 656.146 58.1202C655.823 57.7975 655.5 57.3456 655.307 56.8937C655.113 56.3772 654.984 55.7316 654.984 55.1506V54.957C655.242 55.0215 655.436 55.0215 655.694 55.0215H656.469C657.695 55.0215 658.986 54.8924 660.148 54.6987C661.375 54.5051 662.666 54.1177 663.764 53.5367C664.861 52.9557 665.829 52.181 666.54 51.1481C667.314 49.9861 667.702 48.6304 667.637 47.2101C667.637 46.4354 667.508 45.7253 667.25 45.0152C666.927 44.3696 666.54 43.7886 666.023 43.2722C665.442 42.7557 664.797 42.3684 664.022 42.1101C663.118 41.7874 662.214 41.6582 661.31 41.7228C659.503 41.5937 657.76 41.981 656.146 42.6911ZM675.255 58.1202C674.738 57.4747 674.48 56.4418 674.48 55.1506C674.48 53.8595 674.609 52.5684 674.867 51.2772C675.061 50.3089 675.448 49.3405 675.965 48.4367C676.352 47.7266 676.869 47.1456 677.579 46.7582C678.16 46.3709 678.805 46.1127 679.516 46.1127C680.29 46.1127 681.065 46.4354 681.581 47.081C682.098 47.7266 682.356 48.7595 682.356 50.0506C682.356 51.3418 682.227 52.6329 681.969 53.924C681.775 54.8924 681.388 55.8608 680.871 56.7645C680.484 57.4747 679.967 58.0557 679.257 58.443C678.676 58.8304 678.031 59.024 677.321 59.024C676.546 59.024 675.836 58.7012 675.255 58.1202ZM675.19 42.6911C673.835 43.3367 672.608 44.3696 671.64 45.5316C670.671 46.7582 669.897 48.1785 669.445 49.7278C668.928 51.4063 668.67 53.0848 668.67 54.8278C668.605 56.4418 668.993 58.0557 669.638 59.605C670.284 61.0899 671.446 62.1873 672.931 62.8329C674.157 63.3493 675.448 63.6076 676.804 63.543C678.547 63.6076 680.29 63.2202 681.84 62.4456C683.195 61.7354 684.422 60.7671 685.39 59.5405C686.359 58.3139 687.069 56.8291 687.456 55.2797C687.908 53.6658 688.102 51.9873 688.102 50.3089C688.102 49.2114 687.972 48.1139 687.714 47.081C687.391 46.1127 686.94 45.1443 686.294 44.3051C685.648 43.4658 684.745 42.8203 683.776 42.3684C682.55 41.8519 681.259 41.5937 679.967 41.6582C678.418 41.5291 676.74 41.9165 675.19 42.6911ZM696.752 59.024C696.365 58.9595 696.042 58.7658 695.784 58.5721L697.269 50.0506C697.333 49.5342 697.527 49.0823 697.721 48.6304C697.914 48.1785 698.237 47.7266 698.56 47.2747C698.883 46.8874 699.27 46.5646 699.722 46.3063C700.109 46.0481 700.626 45.919 701.078 45.919C701.852 45.919 702.562 46.2418 703.079 46.8228C703.595 47.4684 703.853 48.4367 703.853 49.7278C703.918 51.0835 703.724 52.5038 703.402 53.7949C703.143 54.8278 702.756 55.7962 702.175 56.7C701.723 57.4101 701.142 58.0557 700.367 58.443C699.722 58.8304 699.012 59.024 698.237 59.024C697.721 59.1532 697.204 59.1532 696.752 59.024ZM700.238 42.4329C699.334 42.9494 698.624 43.5304 697.914 44.2405C697.591 43.3367 697.14 42.6912 696.623 42.4329C696.042 42.1747 695.397 42.0456 694.751 42.0456C694.428 42.0456 694.105 42.0456 693.783 42.1101C693.46 42.1747 693.072 42.1747 692.685 42.2393L687.779 72.3873H693.524L695.203 62.2519C695.719 62.6392 696.3 62.8974 696.881 63.1557C697.656 63.4785 698.495 63.543 699.27 63.543C700.755 63.543 702.24 63.1557 703.595 62.4456C704.951 61.6709 706.048 60.7025 706.952 59.4759C707.921 58.1848 708.631 56.7 709.147 55.1506C709.664 53.4721 709.922 51.7291 709.922 49.9861C709.922 48.8886 709.857 47.7911 709.599 46.7582C709.405 45.7899 709.083 44.9506 708.566 44.1114C708.114 43.3367 707.469 42.7557 706.629 42.3038C705.726 41.8519 704.693 41.6582 703.66 41.6582C702.433 41.5291 701.207 41.8519 700.238 42.4329ZM727.61 51.4063C727.933 49.9861 728.514 48.6304 729.418 47.4684C730.193 46.5 731.355 45.9836 732.581 45.9836C733.356 45.9836 733.808 46.1772 734.131 46.5C734.453 46.8873 734.583 47.3392 734.518 47.7911C734.518 48.3722 734.324 48.8886 734.002 49.4051C733.614 49.857 733.227 50.3089 732.646 50.5025C732.065 50.8253 731.419 51.019 730.838 51.1481C730.193 51.2772 729.483 51.3418 728.837 51.3418H728.191C728.062 51.4709 727.804 51.4063 727.61 51.4063ZM728.45 42.6911C727.029 43.3367 725.738 44.3696 724.705 45.5962C723.672 46.8228 722.898 48.243 722.317 49.7924C721.8 51.4063 721.477 53.1494 721.477 54.8924C721.477 55.9899 721.607 57.0873 721.865 58.1848C722.188 59.1531 722.64 60.1215 723.35 60.9607C724.06 61.8 724.964 62.4456 725.996 62.8974C727.288 63.4139 728.643 63.6721 729.999 63.6076C731.355 63.6721 732.71 63.4785 734.002 63.0266C734.905 62.7038 735.68 62.3164 736.455 61.8C736.842 61.4772 737.229 61.1544 737.552 60.7025C737.875 60.2506 738.069 59.7342 738.069 59.0886C738.069 57.9911 737.294 57.0873 735.874 56.3127C735.293 57.0873 734.583 57.7329 733.743 58.2494C732.839 58.8304 731.742 59.1531 730.645 59.0886C730.257 59.0886 729.805 59.024 729.418 58.8304C729.031 58.6367 728.643 58.443 728.321 58.1202C727.998 57.7975 727.675 57.3456 727.481 56.8937C727.223 56.3772 727.158 55.7316 727.158 55.1506V54.957C727.417 55.0215 727.61 55.0215 727.869 55.0215H728.643C729.87 55.0215 731.161 54.8924 732.323 54.6987C733.55 54.5051 734.841 54.1177 735.938 53.5367C737.036 52.9557 738.004 52.181 738.714 51.1481C739.424 50.1798 739.812 48.8241 739.812 47.2101C739.812 46.4354 739.683 45.7253 739.424 45.0152C739.101 44.3696 738.714 43.7886 738.198 43.2722C737.617 42.7557 736.971 42.3684 736.196 42.1101C735.293 41.7874 734.389 41.6582 733.485 41.7228C731.807 41.5937 730.064 41.981 728.45 42.6911ZM636.585 37.9139C636.908 37.8494 637.231 37.8494 637.554 37.7848C637.941 37.7848 638.393 37.7848 638.78 37.7848C639.942 37.7203 641.104 38.1076 642.137 38.7532C643.041 39.3987 643.493 40.3671 643.493 41.6582C643.557 42.6266 643.364 43.6595 643.041 44.5633C642.783 45.338 642.331 45.919 641.75 46.5C641.169 47.0165 640.459 47.3392 639.684 47.5329C638.78 47.7266 637.941 47.8557 637.037 47.8557H634.971L636.585 37.9139ZM635.488 33.4595C634.261 33.5241 632.905 33.6532 631.485 33.8469L626.708 62.8974H632.454L634.197 52.5038H636.198C638.07 52.5038 639.878 52.3101 641.75 51.9228C643.299 51.6 644.719 50.9544 646.011 49.9861C647.237 49.0823 648.141 47.9203 648.786 46.5646C649.497 44.9506 649.819 43.2076 649.755 41.4646C649.755 40.3671 649.561 39.2696 649.109 38.2367C648.722 37.2684 648.012 36.3646 647.173 35.6545C646.204 34.8798 645.107 34.2988 643.88 33.976C642.331 33.5241 640.781 33.3304 639.103 33.3304C638.005 33.3304 636.779 33.395 635.488 33.4595ZM717.152 31.9747C716.765 32.0393 716.442 32.0393 716.055 32.1038L711.536 59.2823C711.471 59.4759 711.471 59.605 711.471 59.7987C711.471 59.9924 711.471 60.1215 711.471 60.2506C711.471 61.4772 711.794 62.381 712.31 62.8329C712.827 63.2848 713.795 63.543 714.957 63.543C715.474 63.543 715.99 63.4785 716.507 63.3493C717.023 63.2202 717.475 63.0266 717.991 62.7038C717.798 62.2519 717.733 61.7354 717.669 61.219C717.604 60.7025 717.54 60.1215 717.54 59.5405C717.54 58.8949 717.604 58.1848 717.733 57.5392L721.284 35.8481C721.348 35.6544 721.348 35.5253 721.348 35.3317C721.413 35.138 721.348 35.0089 721.348 34.8152C721.348 34.0405 721.09 33.3304 720.638 32.7494C720.122 32.1684 719.283 31.9102 718.121 31.9102C717.862 31.9102 717.54 31.9102 717.152 31.9747Z" fill="#E13F2B"/>
<path d="M740.78 62.8987L745.622 33.5898H762.601C762.536 35.3329 762.213 36.5595 761.632 37.2696C761.051 37.9797 759.954 38.3025 758.404 38.3025H750.851L749.625 45.7911H758.146L757.371 50.4392H748.785L746.72 62.8341H740.78V62.8987Z" fill="#2A2559"/>
<path d="M766.151 57.6037C766.022 58.2493 765.957 58.9594 765.957 59.6049C765.957 60.1214 766.022 60.7024 766.086 61.2834C766.151 61.7999 766.28 62.2518 766.409 62.7682C765.957 63.091 765.441 63.2847 764.924 63.4138C764.408 63.5429 763.891 63.6075 763.375 63.6075C762.148 63.6075 761.244 63.3492 760.728 62.8974C760.211 62.4455 759.889 61.5417 759.889 60.3151C759.889 60.186 759.889 59.9923 759.889 59.8632C759.889 59.7341 759.953 59.5404 759.953 59.3467L764.472 32.1683C764.795 32.1037 765.182 32.1037 765.57 32.0392C765.957 31.9746 766.28 31.9746 766.538 31.9746C767.765 31.9746 768.604 32.2974 769.056 32.8139C769.572 33.3949 769.83 34.1695 769.766 34.9442C769.766 35.1379 769.766 35.267 769.766 35.4607C769.766 35.6544 769.701 35.7835 769.701 35.9771L766.151 57.6037Z" fill="#2A2559"/>
<path d="M776.221 54.3762C776.157 54.8926 776.092 55.3445 776.092 55.9255C776.092 56.7002 776.286 57.4103 776.544 58.1204C776.867 58.766 777.577 59.1534 778.287 59.0888C778.739 59.0888 779.191 58.9597 779.643 58.7015C780.03 58.3787 780.482 58.0559 780.74 57.6685C781.45 56.7002 781.967 55.6027 782.096 54.4407L784.162 42.304C784.485 42.2395 784.872 42.2395 785.195 42.1749C785.518 42.1103 785.84 42.1104 786.163 42.1104C787.39 42.1104 788.229 42.4331 788.745 42.9496C789.262 43.5306 789.52 44.3053 789.52 45.08C789.52 45.2736 789.52 45.4027 789.455 45.5964C789.391 45.7901 789.391 45.9192 789.391 46.1129L787.454 57.6685C787.39 58.1204 787.325 58.6369 787.325 59.1534C787.325 59.7989 787.39 60.4445 787.519 61.0901C787.583 61.6711 787.777 62.2521 787.971 62.7685C787.454 63.0913 787.002 63.285 786.357 63.4141C785.84 63.5432 785.259 63.6078 784.678 63.6078C783.904 63.6723 783.064 63.4141 782.483 62.9622C781.967 62.5103 781.58 61.8002 781.515 60.7673C780.869 61.542 780.159 62.2521 779.32 62.7685C778.287 63.4141 777.061 63.7369 775.834 63.6723C774.349 63.6723 773.123 63.3496 772.283 62.704C771.444 62.123 770.799 61.3483 770.476 60.3799C770.153 59.4761 770.024 58.5724 770.088 57.604C770.088 57.0875 770.153 56.5711 770.153 56.0546C770.218 55.5382 770.282 55.0863 770.347 54.5698L772.348 42.4331C772.671 42.3686 773.058 42.3686 773.445 42.304C773.833 42.2395 774.155 42.2395 774.414 42.2395C775.64 42.2395 776.48 42.5622 776.996 43.0787C777.512 43.6597 777.771 44.4344 777.771 45.2091C777.771 45.4027 777.771 45.5319 777.706 45.7255C777.642 45.9192 777.642 46.0483 777.642 46.242L776.221 54.3762Z" fill="#2A2559"/>
<path d="M796.815 55.1505C796.815 55.7315 796.879 56.3771 797.137 56.8935C797.331 57.3454 797.589 57.7973 797.977 58.1201C798.622 58.7657 799.462 59.0885 800.365 59.0885C801.463 59.153 802.56 58.8303 803.464 58.2492C804.239 57.7328 805.013 57.0227 805.594 56.3125C807.079 57.0872 807.789 57.991 807.789 59.0885C807.789 59.6695 807.596 60.1859 807.273 60.7024C806.95 61.0897 806.563 61.4771 806.175 61.7999C805.401 62.3163 804.562 62.7037 803.722 63.0264C802.431 63.4138 801.075 63.672 799.72 63.6075C798.364 63.672 796.944 63.4138 795.717 62.8973C794.749 62.51 793.781 61.7999 793.07 60.9606C792.425 60.1859 791.908 59.2176 791.586 58.1847C791.263 57.0872 791.198 55.9897 791.198 54.8923C791.198 53.1492 791.521 51.4062 792.037 49.7923C792.554 48.2429 793.329 46.8227 794.426 45.5961C795.459 44.3695 796.75 43.4012 798.17 42.691C799.784 41.9163 801.527 41.5936 803.27 41.5936C804.174 41.529 805.078 41.7227 805.982 41.9809C806.756 42.2391 807.402 42.6265 807.983 43.1429C808.499 43.6594 808.951 44.2404 809.21 44.886C809.532 45.5961 809.597 46.3062 809.597 47.0809C809.597 48.6948 809.21 50.0505 808.499 51.0189C807.789 51.9872 806.821 52.8265 805.724 53.4075C804.626 53.9885 803.335 54.3758 802.108 54.5695C800.882 54.7632 799.655 54.8923 798.429 54.8923H797.654C797.396 54.8923 797.202 54.8923 796.944 54.8277L796.815 55.1505ZM799.01 47.5328C798.106 48.6948 797.46 50.0505 797.202 51.4708C797.396 51.5353 797.654 51.5353 797.848 51.5353H798.493C799.139 51.5353 799.849 51.4708 800.494 51.3416C801.14 51.2125 801.721 50.9543 802.302 50.6961C802.818 50.3733 803.27 50.0505 803.658 49.5986C803.98 49.1467 804.174 48.6303 804.174 47.9847C804.174 47.5328 804.045 47.0809 803.787 46.6936C803.464 46.3062 803.012 46.1771 802.237 46.1771C801.011 45.9834 799.849 46.5644 799.01 47.5328Z" fill="#2A2559"/>
<path d="M810.179 62.8969L813.6 42.2387C813.923 42.1741 814.246 42.1741 814.633 42.1096C815.02 42.045 815.408 42.045 815.795 42.045C816.505 41.9804 817.151 42.2387 817.732 42.5615C818.313 43.0134 818.7 43.6589 818.829 44.3691C819.539 43.5944 820.379 42.9488 821.282 42.4323C822.38 41.8513 823.671 41.5285 824.898 41.5931C825.995 41.5285 827.157 41.8513 828.126 42.4969C828.9 43.0134 829.481 43.8526 829.804 44.6918C830.127 45.5956 830.256 46.4994 830.191 47.4678C830.191 47.9842 830.127 48.5007 830.127 49.0171C830.062 49.5336 829.998 49.9855 829.933 50.502L827.867 62.8323H821.928L823.994 50.502C824.123 49.9209 824.188 49.3399 824.188 48.6944C824.188 48.1133 824.058 47.4678 823.736 47.0159C823.413 46.564 822.832 46.3058 821.864 46.3058C820.895 46.3058 820.056 46.7576 819.41 47.4678C818.7 48.3716 818.184 49.4045 818.055 50.4374L815.989 62.7678L810.179 62.8969Z" fill="#2A2559"/>
<path d="M838.39 55.1507C838.26 55.6671 838.196 56.119 838.196 56.7C838.196 58.1849 838.841 58.9595 840.197 58.9595C840.843 58.9595 841.424 58.7659 841.94 58.314C842.457 57.8621 842.909 57.4102 843.296 56.8292C843.941 57.0874 844.522 57.4747 844.91 57.9912C845.233 58.3785 845.362 58.895 845.426 59.4114C845.426 59.8633 845.297 60.3152 845.103 60.7671C844.781 61.2836 844.458 61.7355 844.006 62.0583C843.296 62.5747 842.521 62.9621 841.682 63.1557C840.778 63.3494 839.81 63.4785 838.841 63.4785C836.646 63.4785 835.033 62.8975 834 61.8C832.902 60.7026 832.386 59.0887 832.386 57.0874C832.386 56.7 832.45 56.3127 832.45 55.9899C832.515 55.6026 832.515 55.2152 832.644 54.8279L835.872 35.7191C836.195 35.6545 836.582 35.6545 836.905 35.59C837.228 35.5254 837.55 35.5254 837.873 35.5254C839.1 35.5254 839.939 35.8482 840.455 36.3646C840.972 36.9456 841.23 37.7203 841.23 38.495C841.23 38.6887 841.23 38.8178 841.23 39.0115C841.23 39.2051 841.165 39.3343 841.165 39.5279L840.778 42.0456H846.33L845.491 46.5646H839.874L838.39 55.1507Z" fill="#2A2559"/>
<path d="M615.023 43.1431C622.511 43.1431 628.515 37.0747 628.515 29.6507C628.515 22.2267 622.447 16.0938 615.023 16.0938C607.599 16.0938 601.466 22.1621 601.466 29.5861C601.466 37.0747 607.534 43.1431 615.023 43.1431Z" fill="#2A2559"/>
<path d="M568.865 56.1833L566.67 68.5136C581.26 68.32 590.298 58.2491 605.21 58.2491C610.698 58.2491 616.056 59.282 621.156 61.3478L623.028 50.1795C617.993 47.9846 612.957 46.0479 605.21 46.0479C591.266 46.1124 581.905 54.8921 568.865 56.1833Z" fill="#E13F2B"/>
</svg>
