<svg width="844" height="230" viewBox="0 0 844 230" fill="none" xmlns="http://www.w3.org/2000/svg">
<rect x="0.5" width="843" height="230" rx="16" fill="#3C5AFE"/>
<path d="M384 86C381.794 86 380 87.7938 380 90V110C380 112.206 381.794 114 384 114H412C414.206 114 416 112.206 416 110V90C416 87.7938 414.206 86 412 86H384ZM389 102H393C395.762 102 398 104.237 398 107C398 107.55 397.55 108 397 108H385C384.45 108 384 107.55 384 107C384 104.237 386.238 102 389 102ZM387 96C387 94.9391 387.421 93.9217 388.172 93.1716C388.922 92.4214 389.939 92 391 92C392.061 92 393.078 92.4214 393.828 93.1716C394.579 93.9217 395 94.9391 395 96C395 97.0609 394.579 98.0783 393.828 98.8284C393.078 99.5786 392.061 100 391 100C389.939 100 388.922 99.5786 388.172 98.8284C387.421 98.0783 387 97.0609 387 96ZM403 94H411C411.55 94 412 94.45 412 95C412 95.55 411.55 96 411 96H403C402.45 96 402 95.55 402 95C402 94.45 402.45 94 403 94ZM403 98H411C411.55 98 412 98.45 412 99C412 99.55 411.55 100 411 100H403C402.45 100 402 99.55 402 99C402 98.45 402.45 98 403 98ZM403 102H411C411.55 102 412 102.45 412 103C412 103.55 411.55 104 411 104H403C402.45 104 402 103.55 402 103C402 102.45 402.45 102 403 102Z" fill="white"/>
<path d="M361.12 139C360.875 139 360.752 138.909 360.752 138.728V138.68C360.752 138.573 360.853 138.408 361.056 138.184C361.269 137.949 361.376 137.709 361.376 137.464V129.176C361.376 128.92 361.269 128.68 361.056 128.456C360.853 128.232 360.752 128.067 360.752 127.96V127.896C360.752 127.725 360.869 127.64 361.104 127.64H368.352C368.64 127.64 368.805 127.795 368.848 128.104L369.232 129.976C369.285 130.253 369.173 130.392 368.896 130.392H368.816C368.656 130.392 368.48 130.301 368.288 130.12C368.107 129.928 367.941 129.725 367.792 129.512C367.653 129.288 367.472 129.085 367.248 128.904C367.024 128.712 366.795 128.616 366.56 128.616H364.448C364.032 128.616 363.824 128.84 363.824 129.288V133.192H365.968C366.117 133.192 366.256 133.133 366.384 133.016C366.523 132.888 366.629 132.749 366.704 132.6C366.779 132.451 366.864 132.317 366.96 132.2C367.056 132.072 367.152 132.008 367.248 132.008H367.376C367.557 132.008 367.648 132.125 367.648 132.36V134.936C367.648 135.16 367.557 135.272 367.376 135.272H367.248C367.152 135.272 367.056 135.213 366.96 135.096C366.864 134.979 366.779 134.851 366.704 134.712C366.629 134.573 366.523 134.445 366.384 134.328C366.256 134.211 366.117 134.152 365.968 134.152H363.824V137.464C363.824 137.709 363.936 137.949 364.16 138.184C364.395 138.408 364.512 138.573 364.512 138.68V138.728C364.512 138.909 364.384 139 364.128 139H361.12ZM375.601 136.568C375.697 136.44 375.815 136.397 375.953 136.44C376.092 136.483 376.156 136.584 376.145 136.744C376.092 137.299 375.772 137.843 375.185 138.376C374.599 138.899 373.836 139.16 372.897 139.16C371.767 139.16 370.839 138.787 370.113 138.04C369.388 137.293 369.025 136.312 369.025 135.096C369.025 133.955 369.404 133.016 370.161 132.28C370.919 131.533 371.831 131.16 372.897 131.16C373.868 131.16 374.615 131.389 375.137 131.848C375.66 132.307 375.921 132.835 375.921 133.432C375.921 133.923 375.687 134.275 375.217 134.488L371.665 136.104C372.103 137.032 372.807 137.496 373.777 137.496C374.183 137.496 374.545 137.411 374.865 137.24C375.196 137.059 375.441 136.835 375.601 136.568ZM372.609 131.864C372.193 131.864 371.863 132.067 371.617 132.472C371.372 132.867 371.249 133.373 371.249 133.992C371.249 134.515 371.303 134.973 371.409 135.368L373.473 134.328C373.751 134.189 373.889 133.939 373.889 133.576C373.889 133.213 373.772 132.84 373.537 132.456C373.303 132.061 372.993 131.864 372.609 131.864ZM383.461 136.568C383.557 136.44 383.674 136.397 383.813 136.44C383.951 136.483 384.015 136.584 384.005 136.744C383.951 137.299 383.631 137.843 383.045 138.376C382.458 138.899 381.695 139.16 380.757 139.16C379.626 139.16 378.698 138.787 377.973 138.04C377.247 137.293 376.885 136.312 376.885 135.096C376.885 133.955 377.263 133.016 378.021 132.28C378.778 131.533 379.69 131.16 380.757 131.16C381.727 131.16 382.474 131.389 382.997 131.848C383.519 132.307 383.781 132.835 383.781 133.432C383.781 133.923 383.546 134.275 383.077 134.488L379.525 136.104C379.962 137.032 380.666 137.496 381.637 137.496C382.042 137.496 382.405 137.411 382.725 137.24C383.055 137.059 383.301 136.835 383.461 136.568ZM380.469 131.864C380.053 131.864 379.722 132.067 379.477 132.472C379.231 132.867 379.109 133.373 379.109 133.992C379.109 134.515 379.162 134.973 379.269 135.368L381.333 134.328C381.61 134.189 381.749 133.939 381.749 133.576C381.749 133.213 381.631 132.84 381.397 132.456C381.162 132.061 380.853 131.864 380.469 131.864ZM392.648 137.464C392.648 137.709 392.755 137.949 392.968 138.184C393.181 138.408 393.288 138.573 393.288 138.68V138.728C393.288 138.909 393.181 139 392.968 139H390.984C390.739 139 390.616 138.883 390.616 138.648L390.584 138.296C390.093 138.872 389.4 139.16 388.504 139.16C387.469 139.16 386.584 138.803 385.848 138.088C385.112 137.363 384.744 136.381 384.744 135.144C384.744 133.981 385.112 133.027 385.848 132.28C386.584 131.533 387.475 131.16 388.52 131.16C389.267 131.16 389.891 131.368 390.392 131.784V129.224C390.392 129.011 390.323 128.835 390.184 128.696C390.056 128.557 389.923 128.44 389.784 128.344C389.656 128.248 389.592 128.147 389.592 128.04V127.992C389.592 127.811 389.704 127.688 389.928 127.624L392.024 126.984C392.44 126.845 392.648 126.952 392.648 127.304V137.464ZM389.032 138.472C389.395 138.472 389.709 138.323 389.976 138.024C390.253 137.715 390.392 137.293 390.392 136.76V133.944C390.392 133.421 390.216 132.941 389.864 132.504C389.512 132.067 389.107 131.848 388.648 131.848C388.157 131.848 387.768 132.056 387.48 132.472C387.192 132.877 387.043 133.453 387.032 134.2C387.011 134.808 387.069 135.432 387.208 136.072C387.357 136.712 387.592 137.272 387.912 137.752C388.243 138.221 388.616 138.461 389.032 138.472ZM398.92 131.16C399.923 131.16 400.792 131.507 401.528 132.2C402.275 132.893 402.648 133.837 402.648 135.032C402.648 136.237 402.28 137.229 401.544 138.008C400.819 138.776 399.944 139.16 398.92 139.16C398.056 139.16 397.358 138.877 396.824 138.312V138.664C396.824 138.899 396.702 139.016 396.456 139.016L394.392 139C394.168 139 394.056 138.909 394.056 138.728V138.68C394.056 138.573 394.158 138.408 394.36 138.184C394.574 137.949 394.68 137.704 394.68 137.448V129.608C394.68 129.341 394.558 129.101 394.312 128.888C394.067 128.664 393.944 128.499 393.944 128.392V128.344C393.944 128.195 394.067 128.067 394.312 127.96L396.376 127C396.558 126.904 396.712 126.888 396.84 126.952C396.979 127.005 397.048 127.128 397.048 127.32V131.8C397.507 131.373 398.131 131.16 398.92 131.16ZM398.68 138.472C399.203 138.472 399.603 138.259 399.88 137.832C400.168 137.405 400.312 136.792 400.312 135.992C400.312 135.299 400.238 134.643 400.088 134.024C399.95 133.405 399.726 132.888 399.416 132.472C399.107 132.056 398.75 131.848 398.344 131.848C397.971 131.848 397.662 131.997 397.416 132.296C397.171 132.595 397.048 132.984 397.048 133.464V136.36C397.048 136.904 397.214 137.395 397.544 137.832C397.886 138.259 398.264 138.472 398.68 138.472ZM410.791 137.4C410.823 137.645 410.881 137.843 410.967 137.992C411.063 138.141 411.159 138.237 411.255 138.28C411.351 138.312 411.436 138.355 411.51 138.408C411.585 138.461 411.623 138.536 411.623 138.632C411.623 138.941 411.111 139.096 410.087 139.096C409.617 139.096 409.271 139.037 409.047 138.92C408.833 138.792 408.705 138.563 408.663 138.232C408.247 138.851 407.537 139.16 406.535 139.16C405.639 139.16 404.913 138.952 404.359 138.536C403.804 138.12 403.527 137.523 403.527 136.744C403.516 135.976 403.788 135.379 404.343 134.952C404.897 134.525 405.591 134.312 406.423 134.312C407.127 134.312 407.708 134.472 408.167 134.792L408.151 134.6C408.044 133.587 407.895 132.872 407.703 132.456C407.511 132.04 407.185 131.832 406.727 131.832C406.439 131.832 406.204 131.939 406.023 132.152C405.841 132.365 405.713 132.6 405.639 132.856C405.564 133.112 405.441 133.347 405.271 133.56C405.1 133.773 404.881 133.88 404.615 133.88C404.327 133.88 404.092 133.8 403.911 133.64C403.74 133.469 403.655 133.251 403.655 132.984C403.655 132.429 403.948 131.987 404.535 131.656C405.132 131.325 405.863 131.16 406.727 131.16C407.761 131.16 408.609 131.453 409.271 132.04C409.932 132.627 410.321 133.427 410.439 134.44L410.791 137.4ZM407.239 138.456C407.591 138.456 407.873 138.312 408.087 138.024C408.3 137.725 408.396 137.389 408.375 137.016L408.327 136.456C408.284 135.997 408.145 135.645 407.911 135.4C407.687 135.155 407.404 135.032 407.062 135.032C406.721 135.032 406.439 135.155 406.215 135.4C406.001 135.645 405.895 135.971 405.895 136.376C405.895 136.952 406.017 137.443 406.263 137.848C406.519 138.253 406.844 138.456 407.239 138.456ZM415.98 139.16C414.796 139.16 413.809 138.765 413.02 137.976C412.241 137.187 411.852 136.243 411.852 135.144C411.852 133.949 412.241 132.989 413.02 132.264C413.809 131.539 414.764 131.171 415.884 131.16C416.801 131.149 417.58 131.363 418.22 131.8C418.87 132.237 419.196 132.771 419.196 133.4C419.196 133.635 419.116 133.832 418.956 133.992C418.796 134.141 418.545 134.211 418.204 134.2C417.948 134.189 417.724 134.099 417.532 133.928C417.34 133.757 417.18 133.56 417.052 133.336C416.934 133.112 416.812 132.888 416.684 132.664C416.556 132.44 416.396 132.253 416.204 132.104C416.012 131.944 415.788 131.864 415.532 131.864C415.084 131.864 414.721 132.067 414.444 132.472C414.177 132.877 414.044 133.384 414.044 133.992C414.044 135.059 414.289 135.912 414.78 136.552C415.281 137.192 415.942 137.512 416.764 137.512C417.606 137.512 418.246 137.139 418.684 136.392C418.748 136.307 418.822 136.259 418.908 136.248C419.004 136.227 419.084 136.248 419.148 136.312C419.222 136.365 419.254 136.445 419.244 136.552C419.19 137.267 418.876 137.88 418.3 138.392C417.734 138.904 416.961 139.16 415.98 139.16ZM428.105 137.8C428.169 137.885 428.329 138.019 428.585 138.2C428.841 138.371 428.969 138.531 428.969 138.68V138.728C428.969 138.909 428.863 139 428.649 139H425.673C425.46 139 425.353 138.904 425.353 138.712V138.68C425.353 138.573 425.428 138.435 425.577 138.264C425.737 138.093 425.769 137.939 425.673 137.8L423.945 135.368L423.001 136.248V137.464C423.001 137.709 423.113 137.944 423.337 138.168C423.572 138.392 423.689 138.557 423.689 138.664V138.728C423.689 138.909 423.567 139 423.321 139H420.377C420.143 139 420.025 138.909 420.025 138.728V138.664C420.025 138.557 420.127 138.392 420.329 138.168C420.532 137.944 420.633 137.709 420.633 137.464V129.592C420.633 129.315 420.511 129.064 420.265 128.84C420.031 128.616 419.913 128.461 419.913 128.376V128.312C419.913 128.184 420.02 128.077 420.233 127.992L422.361 127C422.553 126.915 422.708 126.904 422.825 126.968C422.943 127.032 423.001 127.139 423.001 127.288V135.032L425.529 132.84C425.647 132.755 425.689 132.653 425.657 132.536C425.636 132.419 425.588 132.323 425.513 132.248C425.439 132.163 425.359 132.067 425.273 131.96C425.188 131.843 425.145 131.741 425.145 131.656V131.592C425.145 131.411 425.252 131.32 425.465 131.32H427.753C427.967 131.32 428.073 131.405 428.073 131.576V131.64C428.073 131.757 428.004 131.875 427.865 131.992C427.737 132.099 427.545 132.232 427.289 132.392C427.044 132.552 426.847 132.696 426.697 132.824L425.401 134.024L428.105 137.8Z" fill="white"/>
<circle cx="397.5" cy="115.5" r="81" stroke="white" stroke-width="3"/>
<circle cx="342" cy="57" r="12" fill="white"/>
<circle cx="456" cy="57" r="12" fill="white"/>
<circle cx="459" cy="170" r="12" fill="white"/>
<circle cx="339" cy="173" r="12" fill="white"/>
<path d="M407 35L392 43.6603L392 26.3397L407 35Z" fill="white"/>
<path d="M478 126L469.34 110.25L486.66 110.25L478 126Z" fill="white"/>
<path d="M317 105L325.66 120.75L308.34 120.75L317 105Z" fill="white"/>
<path d="M388 195L403 186.34L403 203.66L388 195Z" fill="white"/>
<path d="M486.12 185C485.885 185 485.768 184.909 485.768 184.728V184.68C485.768 184.573 485.912 184.392 486.2 184.136C486.488 183.869 486.632 183.603 486.632 183.336V176.376C486.632 176.152 486.573 175.981 486.456 175.864C486.339 175.736 486.211 175.661 486.072 175.64C485.944 175.608 485.821 175.56 485.704 175.496C485.587 175.421 485.528 175.325 485.528 175.208V175.128C485.528 174.968 485.672 174.824 485.96 174.696L488.2 173.72C488.541 173.592 488.808 173.576 489 173.672C489.203 173.757 489.304 173.907 489.304 174.12C489.304 174.237 489.24 174.413 489.112 174.648C488.995 174.883 488.936 175.16 488.936 175.48V183.336C488.936 183.496 488.984 183.651 489.08 183.8C489.176 183.939 489.277 184.051 489.384 184.136C489.501 184.211 489.608 184.301 489.704 184.408C489.8 184.504 489.848 184.595 489.848 184.68V184.728C489.848 184.909 489.736 185 489.512 185H486.12ZM493.67 179.688C493.392 179.912 493.04 180.024 492.614 180.024C492.187 180.024 491.835 179.912 491.558 179.688C491.291 179.453 491.158 179.123 491.158 178.696C491.158 178.269 491.291 177.944 491.558 177.72C491.835 177.485 492.187 177.368 492.614 177.368C493.04 177.368 493.392 177.485 493.67 177.72C493.947 177.944 494.086 178.269 494.086 178.696C494.086 179.123 493.947 179.453 493.67 179.688ZM493.67 184.824C493.392 185.048 493.04 185.16 492.614 185.16C492.187 185.16 491.835 185.048 491.558 184.824C491.291 184.589 491.158 184.259 491.158 183.832C491.158 183.405 491.291 183.08 491.558 182.856C491.835 182.621 492.187 182.504 492.614 182.504C493.04 182.504 493.392 182.621 493.67 182.856C493.947 183.08 494.086 183.405 494.086 183.832C494.086 184.259 493.947 184.589 493.67 184.824ZM495.933 185C495.698 185 495.581 184.909 495.581 184.728V184.68C495.581 184.573 495.725 184.392 496.013 184.136C496.301 183.869 496.445 183.603 496.445 183.336V176.376C496.445 176.152 496.386 175.981 496.269 175.864C496.151 175.736 496.023 175.661 495.885 175.64C495.757 175.608 495.634 175.56 495.517 175.496C495.399 175.421 495.34 175.325 495.34 175.208V175.128C495.34 174.968 495.485 174.824 495.773 174.696L498.013 173.72C498.354 173.592 498.621 173.576 498.812 173.672C499.015 173.757 499.117 173.907 499.117 174.12C499.117 174.237 499.053 174.413 498.924 174.648C498.807 174.883 498.749 175.16 498.749 175.48V183.336C498.749 183.496 498.797 183.651 498.893 183.8C498.989 183.939 499.09 184.051 499.197 184.136C499.314 184.211 499.421 184.301 499.516 184.408C499.613 184.504 499.661 184.595 499.661 184.68V184.728C499.661 184.909 499.549 185 499.325 185H495.933ZM501.61 177.896C501.45 177.992 501.301 177.971 501.162 177.832C501.034 177.693 501.039 177.555 501.178 177.416C501.487 177.107 501.706 176.856 501.834 176.664C501.962 176.472 502.042 176.259 502.074 176.024C502.106 175.821 502.047 175.72 501.898 175.72C501.61 175.72 501.365 175.597 501.162 175.352C500.959 175.107 500.858 174.792 500.858 174.408C500.858 173.96 500.986 173.603 501.242 173.336C501.498 173.059 501.839 172.92 502.266 172.92C502.682 172.92 503.029 173.075 503.306 173.384C503.594 173.683 503.738 174.088 503.738 174.6C503.738 175.901 503.029 177 501.61 177.896ZM507.215 185.144C506.212 185.144 505.391 184.963 504.751 184.6C504.111 184.237 503.791 183.8 503.791 183.288C503.791 183 503.876 182.781 504.047 182.632C504.228 182.483 504.463 182.408 504.751 182.408C505.06 182.408 505.311 182.52 505.503 182.744C505.695 182.957 505.828 183.197 505.903 183.464C505.988 183.731 506.138 183.976 506.351 184.2C506.575 184.413 506.863 184.52 507.215 184.52C507.556 184.52 507.834 184.429 508.047 184.248C508.271 184.067 508.383 183.805 508.383 183.464C508.383 183.08 508.228 182.776 507.919 182.552C507.62 182.328 507.252 182.163 506.815 182.056C506.378 181.939 505.94 181.811 505.503 181.672C505.066 181.523 504.692 181.272 504.383 180.92C504.084 180.557 503.935 180.088 503.935 179.512C503.935 178.829 504.234 178.269 504.831 177.832C505.439 177.384 506.223 177.16 507.183 177.16C508.154 177.16 508.943 177.352 509.551 177.736C510.17 178.109 510.479 178.557 510.479 179.08C510.479 179.315 510.388 179.512 510.207 179.672C510.036 179.832 509.823 179.912 509.567 179.912C509.268 179.912 509.028 179.805 508.847 179.592C508.666 179.368 508.538 179.128 508.463 178.872C508.388 178.605 508.255 178.365 508.063 178.152C507.871 177.928 507.62 177.816 507.311 177.816C507.002 177.816 506.751 177.923 506.559 178.136C506.367 178.339 506.271 178.589 506.271 178.888C506.271 179.187 506.351 179.437 506.511 179.64C506.671 179.843 506.879 179.997 507.135 180.104C507.391 180.211 507.674 180.312 507.983 180.408C508.292 180.493 508.602 180.595 508.911 180.712C509.231 180.819 509.519 180.952 509.775 181.112C510.031 181.272 510.239 181.501 510.399 181.8C510.559 182.088 510.639 182.44 510.639 182.856C510.639 183.517 510.33 184.067 509.711 184.504C509.092 184.931 508.26 185.144 507.215 185.144Z" fill="white"/>
<path d="M147.12 188C146.875 188 146.752 187.909 146.752 187.728V187.664C146.752 187.568 146.853 187.408 147.056 187.184C147.269 186.949 147.376 186.709 147.376 186.464V178.176C147.376 177.941 147.269 177.707 147.056 177.472C146.853 177.237 146.752 177.067 146.752 176.96V176.896C146.752 176.725 146.875 176.64 147.12 176.64H150.768C152.293 176.64 153.52 176.949 154.448 177.568C155.387 178.176 155.856 179.115 155.856 180.384C155.856 181.589 155.44 182.544 154.608 183.248C153.776 183.952 152.651 184.304 151.232 184.304H149.808V186.464C149.808 186.709 149.92 186.949 150.144 187.184C150.379 187.408 150.496 187.568 150.496 187.664V187.728C150.496 187.909 150.373 188 150.128 188H147.12ZM150.496 183.36H151.232C151.893 183.36 152.411 183.136 152.784 182.688C153.157 182.229 153.344 181.653 153.344 180.96C153.344 179.925 153.083 179.109 152.56 178.512C152.048 177.904 151.451 177.6 150.768 177.6H150.336C149.984 177.6 149.808 177.829 149.808 178.288V182.64C149.808 183.12 150.037 183.36 150.496 183.36ZM162.742 185.568C162.838 185.44 162.955 185.397 163.094 185.44C163.233 185.483 163.297 185.584 163.286 185.744C163.233 186.299 162.913 186.843 162.326 187.376C161.739 187.899 160.977 188.16 160.038 188.16C158.907 188.16 157.979 187.787 157.254 187.04C156.529 186.293 156.166 185.312 156.166 184.096C156.166 182.955 156.545 182.016 157.302 181.28C158.059 180.533 158.971 180.16 160.038 180.16C161.009 180.16 161.755 180.389 162.278 180.848C162.801 181.307 163.062 181.835 163.062 182.432C163.062 182.923 162.827 183.275 162.358 183.488L158.806 185.104C159.243 186.032 159.947 186.496 160.918 186.496C161.323 186.496 161.686 186.411 162.006 186.24C162.337 186.059 162.582 185.835 162.742 185.568ZM159.75 180.864C159.334 180.864 159.003 181.067 158.758 181.472C158.513 181.867 158.39 182.373 158.39 182.992C158.39 183.515 158.443 183.973 158.55 184.368L160.614 183.328C160.891 183.189 161.03 182.939 161.03 182.576C161.03 182.213 160.913 181.84 160.678 181.456C160.443 181.061 160.134 180.864 159.75 180.864ZM168.985 180.16C169.444 180.16 169.801 180.299 170.057 180.576C170.324 180.843 170.457 181.189 170.457 181.616C170.457 182.459 170.116 182.88 169.433 182.88C169.156 182.88 168.937 182.811 168.777 182.672C168.628 182.523 168.537 182.363 168.505 182.192C168.473 182.021 168.409 181.867 168.313 181.728C168.217 181.579 168.073 181.504 167.881 181.504C167.593 181.504 167.38 181.675 167.241 182.016C167.103 182.357 167.033 182.773 167.033 183.264V186.464C167.033 186.656 167.097 186.827 167.225 186.976C167.364 187.115 167.497 187.237 167.625 187.344C167.764 187.451 167.833 187.557 167.833 187.664V187.728C167.833 187.909 167.716 188 167.481 188H164.521C164.276 188 164.153 187.909 164.153 187.728V187.664C164.153 187.557 164.255 187.392 164.457 187.168C164.671 186.944 164.777 186.709 164.777 186.464V182.72C164.777 182.464 164.655 182.235 164.409 182.032C164.164 181.829 164.041 181.675 164.041 181.568V181.504C164.041 181.355 164.153 181.227 164.377 181.12L166.297 180.224C166.639 180.064 166.809 180.171 166.809 180.544V181.744C167.172 180.688 167.897 180.16 168.985 180.16ZM175.139 176.272C175.8 176.272 176.366 176.459 176.835 176.832C177.315 177.205 177.555 177.643 177.555 178.144C177.555 178.357 177.475 178.549 177.315 178.72C177.166 178.891 176.947 178.976 176.659 178.976C176.339 178.976 176.088 178.907 175.907 178.768C175.726 178.629 175.608 178.464 175.555 178.272C175.502 178.069 175.454 177.872 175.411 177.68C175.379 177.477 175.304 177.307 175.187 177.168C175.07 177.019 174.899 176.944 174.675 176.944C174.408 176.944 174.211 177.061 174.083 177.296C173.955 177.52 173.896 177.813 173.907 178.176C173.928 178.539 173.971 178.901 174.035 179.264C174.11 179.627 174.206 179.979 174.323 180.32H176.275C176.36 180.32 176.435 180.352 176.499 180.416C176.563 180.48 176.595 180.555 176.595 180.64V180.944C176.595 181.029 176.563 181.104 176.499 181.168C176.435 181.221 176.36 181.248 176.275 181.248H174.387V186.448C174.387 186.64 174.451 186.811 174.579 186.96C174.718 187.109 174.851 187.237 174.979 187.344C175.118 187.451 175.187 187.557 175.187 187.664V187.728C175.187 187.909 175.086 188 174.883 188H171.763C171.539 188 171.427 187.909 171.427 187.728V187.664C171.427 187.557 171.534 187.392 171.747 187.168C171.96 186.944 172.067 186.704 172.067 186.448V181.248H170.931C170.707 181.248 170.595 181.147 170.595 180.944V180.64C170.595 180.555 170.627 180.48 170.691 180.416C170.755 180.352 170.835 180.32 170.931 180.32H172.067V179.312C172.067 178.416 172.328 177.685 172.851 177.12C173.374 176.555 174.136 176.272 175.139 176.272ZM180.94 188.16C179.671 188.16 178.62 187.771 177.788 186.992C176.967 186.203 176.556 185.243 176.556 184.112C176.556 182.971 176.962 182.027 177.772 181.28C178.583 180.533 179.559 180.16 180.7 180.16C181.927 180.16 182.951 180.549 183.772 181.328C184.594 182.096 185.004 183.051 185.004 184.192C185.004 185.333 184.615 186.283 183.836 187.04C183.068 187.787 182.103 188.16 180.94 188.16ZM181.228 187.456C181.666 187.456 182.002 187.253 182.236 186.848C182.482 186.443 182.604 185.872 182.604 185.136C182.604 184.528 182.514 183.904 182.332 183.264C182.162 182.613 181.9 182.053 181.548 181.584C181.196 181.104 180.807 180.864 180.38 180.864C179.399 180.864 178.908 181.643 178.908 183.2C178.908 183.776 178.994 184.384 179.164 185.024C179.346 185.664 179.618 186.229 179.98 186.72C180.354 187.211 180.77 187.456 181.228 187.456ZM190.814 180.16C191.272 180.16 191.63 180.299 191.886 180.576C192.152 180.843 192.286 181.189 192.286 181.616C192.286 182.459 191.944 182.88 191.262 182.88C190.984 182.88 190.766 182.811 190.606 182.672C190.456 182.523 190.366 182.363 190.334 182.192C190.302 182.021 190.238 181.867 190.141 181.728C190.046 181.579 189.902 181.504 189.71 181.504C189.422 181.504 189.208 181.675 189.07 182.016C188.931 182.357 188.862 182.773 188.862 183.264V186.464C188.862 186.656 188.926 186.827 189.054 186.976C189.192 187.115 189.326 187.237 189.454 187.344C189.592 187.451 189.661 187.557 189.661 187.664V187.728C189.661 187.909 189.544 188 189.31 188H186.35C186.104 188 185.982 187.909 185.982 187.728V187.664C185.982 187.557 186.083 187.392 186.286 187.168C186.499 186.944 186.606 186.709 186.606 186.464V182.72C186.606 182.464 186.483 182.235 186.238 182.032C185.992 181.829 185.87 181.675 185.87 181.568V181.504C185.87 181.355 185.982 181.227 186.206 181.12L188.126 180.224C188.467 180.064 188.638 180.171 188.638 180.544V181.744C189 180.688 189.726 180.16 190.814 180.16ZM206.073 186.448C206.094 186.704 206.196 186.944 206.377 187.168C206.558 187.392 206.649 187.563 206.649 187.68V187.744C206.649 187.925 206.532 188.016 206.297 188.016H203.529C203.284 188.016 203.161 187.925 203.161 187.744V187.68C203.161 187.573 203.257 187.408 203.449 187.184C203.652 186.96 203.742 186.72 203.721 186.464L203.561 183.536C203.518 182.651 203.385 182.021 203.161 181.648C202.937 181.264 202.606 181.072 202.169 181.072C201.796 181.072 201.492 181.227 201.257 181.536C201.022 181.845 200.894 182.245 200.873 182.736C200.916 182.949 200.937 183.205 200.937 183.504V186.464C200.937 186.72 201.028 186.96 201.209 187.184C201.401 187.408 201.497 187.573 201.497 187.68V187.744C201.497 187.925 201.38 188.016 201.145 188.016H198.377C198.132 188.016 198.009 187.925 198.009 187.744V187.68C198.009 187.573 198.105 187.408 198.297 187.184C198.489 186.96 198.585 186.72 198.585 186.464V183.344C198.585 182.619 198.457 182.059 198.201 181.664C197.945 181.269 197.609 181.072 197.193 181.072C196.766 181.072 196.43 181.237 196.185 181.568C195.94 181.899 195.817 182.325 195.817 182.848V186.464C195.817 186.72 195.929 186.96 196.153 187.184C196.388 187.408 196.505 187.573 196.505 187.68V187.744C196.505 187.925 196.382 188.016 196.137 188.016H193.161C192.916 188.016 192.793 187.925 192.793 187.744V187.68C192.793 187.573 192.905 187.408 193.129 187.184C193.364 186.96 193.481 186.72 193.481 186.464V182.736C193.481 182.533 193.417 182.363 193.289 182.224C193.161 182.085 193.028 181.968 192.889 181.872C192.761 181.765 192.697 181.659 192.697 181.552V181.488C192.697 181.371 192.809 181.259 193.033 181.152L195.049 180.224C195.23 180.139 195.369 180.133 195.465 180.208C195.561 180.272 195.609 180.389 195.609 180.56V181.312C196.11 180.544 196.846 180.16 197.817 180.16C199.033 180.16 199.918 180.64 200.473 181.6C200.686 181.152 201.006 180.8 201.433 180.544C201.87 180.288 202.361 180.16 202.905 180.16C203.716 180.16 204.393 180.432 204.937 180.976C205.481 181.509 205.796 182.384 205.881 183.6L206.073 186.448ZM214.634 186.4C214.666 186.645 214.725 186.843 214.81 186.992C214.906 187.141 215.002 187.237 215.098 187.28C215.194 187.312 215.28 187.355 215.354 187.408C215.429 187.461 215.466 187.536 215.466 187.632C215.466 187.941 214.954 188.096 213.93 188.096C213.461 188.096 213.114 188.037 212.89 187.92C212.677 187.792 212.549 187.563 212.506 187.232C212.09 187.851 211.381 188.16 210.378 188.16C209.482 188.16 208.757 187.952 208.202 187.536C207.648 187.12 207.37 186.523 207.37 185.744C207.36 184.976 207.632 184.379 208.186 183.952C208.741 183.525 209.434 183.312 210.266 183.312C210.97 183.312 211.552 183.472 212.01 183.792L211.994 183.6C211.888 182.587 211.738 181.872 211.546 181.456C211.354 181.04 211.029 180.832 210.57 180.832C210.282 180.832 210.048 180.939 209.866 181.152C209.685 181.365 209.557 181.6 209.482 181.856C209.408 182.112 209.285 182.347 209.114 182.56C208.944 182.773 208.725 182.88 208.458 182.88C208.17 182.88 207.936 182.8 207.754 182.64C207.584 182.469 207.498 182.251 207.498 181.984C207.498 181.429 207.792 180.987 208.378 180.656C208.976 180.325 209.706 180.16 210.57 180.16C211.605 180.16 212.453 180.453 213.114 181.04C213.776 181.627 214.165 182.427 214.282 183.44L214.634 186.4ZM211.082 187.456C211.434 187.456 211.717 187.312 211.93 187.024C212.144 186.725 212.24 186.389 212.218 186.016L212.17 185.456C212.128 184.997 211.989 184.645 211.754 184.4C211.53 184.155 211.248 184.032 210.906 184.032C210.565 184.032 210.282 184.155 210.058 184.4C209.845 184.645 209.738 184.971 209.738 185.376C209.738 185.952 209.861 186.443 210.106 186.848C210.362 187.253 210.688 187.456 211.082 187.456ZM224.284 186.448C224.306 186.704 224.407 186.944 224.588 187.168C224.77 187.392 224.86 187.563 224.86 187.68V187.744C224.86 187.925 224.738 188.016 224.492 188.016H221.724C221.479 188.016 221.356 187.925 221.356 187.744V187.68C221.356 187.573 221.452 187.408 221.644 187.184C221.847 186.96 221.943 186.715 221.932 186.448L221.772 183.488C221.698 181.877 221.234 181.072 220.38 181.072C219.954 181.072 219.618 181.232 219.372 181.552C219.138 181.872 219.02 182.299 219.02 182.832V186.464C219.02 186.72 219.132 186.96 219.356 187.184C219.591 187.408 219.708 187.573 219.708 187.68V187.744C219.708 187.925 219.586 188.016 219.34 188.016H216.364C216.119 188.016 215.996 187.925 215.996 187.744V187.68C215.996 187.573 216.108 187.408 216.332 187.184C216.567 186.96 216.684 186.72 216.684 186.464V182.736C216.684 182.576 216.642 182.432 216.556 182.304C216.482 182.176 216.391 182.085 216.284 182.032C216.188 181.968 216.098 181.893 216.012 181.808C215.938 181.723 215.9 181.637 215.9 181.552V181.488C215.9 181.371 216.007 181.259 216.22 181.152L218.124 180.224C218.306 180.139 218.439 180.133 218.524 180.208C218.62 180.272 218.668 180.389 218.668 180.56V181.456C219.127 180.592 219.916 180.16 221.036 180.16C221.847 180.16 222.535 180.432 223.1 180.976C223.676 181.52 224.007 182.384 224.092 183.568L224.284 186.448ZM229.573 188.16C228.389 188.16 227.403 187.765 226.613 186.976C225.835 186.187 225.445 185.243 225.445 184.144C225.445 182.949 225.835 181.989 226.613 181.264C227.403 180.539 228.357 180.171 229.477 180.16C230.395 180.149 231.173 180.363 231.813 180.8C232.464 181.237 232.789 181.771 232.789 182.4C232.789 182.635 232.709 182.832 232.549 182.992C232.389 183.141 232.139 183.211 231.797 183.2C231.541 183.189 231.317 183.099 231.125 182.928C230.933 182.757 230.773 182.56 230.645 182.336C230.528 182.112 230.405 181.888 230.277 181.664C230.149 181.44 229.989 181.253 229.797 181.104C229.605 180.944 229.381 180.864 229.125 180.864C228.677 180.864 228.315 181.067 228.037 181.472C227.771 181.877 227.637 182.384 227.637 182.992C227.637 184.059 227.883 184.912 228.373 185.552C228.875 186.192 229.536 186.512 230.357 186.512C231.2 186.512 231.84 186.139 232.277 185.392C232.341 185.307 232.416 185.259 232.501 185.248C232.597 185.227 232.677 185.248 232.741 185.312C232.816 185.365 232.848 185.445 232.837 185.552C232.784 186.267 232.469 186.88 231.893 187.392C231.328 187.904 230.555 188.16 229.573 188.16ZM240.195 185.568C240.291 185.44 240.408 185.397 240.547 185.44C240.686 185.483 240.75 185.584 240.739 185.744C240.686 186.299 240.366 186.843 239.779 187.376C239.192 187.899 238.43 188.16 237.491 188.16C236.36 188.16 235.432 187.787 234.707 187.04C233.982 186.293 233.619 185.312 233.619 184.096C233.619 182.955 233.998 182.016 234.755 181.28C235.512 180.533 236.424 180.16 237.491 180.16C238.462 180.16 239.208 180.389 239.731 180.848C240.254 181.307 240.515 181.835 240.515 182.432C240.515 182.923 240.28 183.275 239.811 183.488L236.259 185.104C236.696 186.032 237.4 186.496 238.371 186.496C238.776 186.496 239.139 186.411 239.459 186.24C239.79 186.059 240.035 185.835 240.195 185.568ZM237.203 180.864C236.787 180.864 236.456 181.067 236.211 181.472C235.966 181.867 235.843 182.373 235.843 182.992C235.843 183.515 235.896 183.973 236.003 184.368L238.067 183.328C238.344 183.189 238.483 182.939 238.483 182.576C238.483 182.213 238.366 181.84 238.131 181.456C237.896 181.061 237.587 180.864 237.203 180.864ZM254.168 186.464C254.306 186.677 254.472 186.864 254.664 187.024C254.866 187.173 255.026 187.296 255.144 187.392C255.261 187.477 255.32 187.573 255.32 187.68V187.728C255.32 187.909 255.197 188 254.952 188H251.608C251.373 188 251.256 187.909 251.256 187.728V187.68C251.256 187.584 251.314 187.477 251.432 187.36C251.56 187.232 251.645 187.12 251.688 187.024C251.741 186.917 251.714 186.731 251.608 186.464L249.928 183.68L248.168 183.712V186.464C248.168 186.709 248.28 186.949 248.504 187.184C248.738 187.408 248.856 187.573 248.856 187.68V187.728C248.856 187.909 248.728 188 248.472 188H245.464C245.229 188 245.112 187.909 245.112 187.728V187.68C245.112 187.573 245.213 187.408 245.416 187.184C245.618 186.949 245.72 186.709 245.72 186.464V178.176C245.72 177.931 245.618 177.696 245.416 177.472C245.213 177.237 245.112 177.067 245.112 176.96V176.896C245.112 176.725 245.229 176.64 245.464 176.64H249.416C250.898 176.64 252.072 176.944 252.936 177.552C253.81 178.16 254.253 179.051 254.264 180.224C254.264 180.875 254.072 181.477 253.688 182.032C253.314 182.576 252.776 182.997 252.072 183.296L254.168 186.464ZM249.064 182.736H249.752C250.36 182.736 250.845 182.549 251.208 182.176C251.581 181.792 251.768 181.232 251.768 180.496C251.768 179.621 251.512 178.923 251 178.4C250.498 177.877 249.917 177.616 249.256 177.616H248.712C248.349 177.616 248.168 177.856 248.168 178.336V181.664C248.168 182.048 248.237 182.325 248.376 182.496C248.525 182.656 248.754 182.736 249.064 182.736ZM261.851 185.568C261.947 185.44 262.065 185.397 262.203 185.44C262.342 185.483 262.406 185.584 262.395 185.744C262.342 186.299 262.022 186.843 261.435 187.376C260.849 187.899 260.086 188.16 259.147 188.16C258.017 188.16 257.089 187.787 256.363 187.04C255.638 186.293 255.275 185.312 255.275 184.096C255.275 182.955 255.654 182.016 256.411 181.28C257.169 180.533 258.081 180.16 259.147 180.16C260.118 180.16 260.865 180.389 261.387 180.848C261.91 181.307 262.171 181.835 262.171 182.432C262.171 182.923 261.937 183.275 261.467 183.488L257.915 185.104C258.353 186.032 259.057 186.496 260.027 186.496C260.433 186.496 260.795 186.411 261.115 186.24C261.446 186.059 261.691 185.835 261.851 185.568ZM258.859 180.864C258.443 180.864 258.113 181.067 257.867 181.472C257.622 181.867 257.499 182.373 257.499 182.992C257.499 183.515 257.553 183.973 257.659 184.368L259.723 183.328C260.001 183.189 260.139 182.939 260.139 182.576C260.139 182.213 260.022 181.84 259.787 181.456C259.553 181.061 259.243 180.864 258.859 180.864ZM270.93 180.32C271.154 180.32 271.266 180.405 271.266 180.576V180.64C271.266 180.768 271.122 180.949 270.834 181.184C270.546 181.408 270.359 181.632 270.274 181.856L268.066 187.616C267.981 187.872 267.805 188 267.538 188H266.498C266.263 188 266.093 187.872 265.986 187.616L263.33 181.856C263.245 181.664 263.09 181.451 262.866 181.216C262.653 180.971 262.546 180.779 262.546 180.64V180.576C262.546 180.405 262.653 180.32 262.866 180.32H266.05C266.263 180.32 266.37 180.411 266.37 180.592V180.656C266.37 180.741 266.322 180.848 266.226 180.976C266.13 181.104 266.055 181.227 266.002 181.344C265.949 181.451 265.959 181.637 266.034 181.904L267.714 186.208L269.218 182.208C269.325 181.824 269.335 181.557 269.25 181.408C269.165 181.259 269.042 181.12 268.882 180.992C268.733 180.853 268.658 180.741 268.658 180.656V180.592C268.658 180.411 268.77 180.32 268.994 180.32H270.93ZM274.565 178.8C274.288 179.056 273.915 179.184 273.445 179.184C272.976 179.184 272.592 179.056 272.293 178.8C272.005 178.533 271.861 178.192 271.861 177.776C271.861 177.371 272.005 177.04 272.293 176.784C272.592 176.517 272.976 176.384 273.445 176.384C273.915 176.384 274.288 176.517 274.565 176.784C274.853 177.04 274.997 177.371 274.997 177.776C274.997 178.192 274.853 178.533 274.565 178.8ZM271.989 188C271.755 188 271.637 187.909 271.637 187.728V187.664C271.637 187.557 271.739 187.392 271.941 187.168C272.144 186.944 272.245 186.704 272.245 186.448V182.832C272.245 182.565 272.144 182.315 271.941 182.08C271.739 181.845 271.637 181.685 271.637 181.6V181.552C271.637 181.445 271.749 181.333 271.973 181.216L273.973 180.224C274.176 180.139 274.336 180.133 274.453 180.208C274.571 180.272 274.629 180.384 274.629 180.544V186.448C274.629 186.704 274.741 186.944 274.965 187.168C275.189 187.392 275.301 187.557 275.301 187.664V187.728C275.301 187.909 275.179 188 274.933 188H271.989ZM282.711 185.568C282.807 185.44 282.924 185.397 283.063 185.44C283.201 185.483 283.265 185.584 283.255 185.744C283.201 186.299 282.881 186.843 282.295 187.376C281.708 187.899 280.945 188.16 280.007 188.16C278.876 188.16 277.948 187.787 277.223 187.04C276.497 186.293 276.135 185.312 276.135 184.096C276.135 182.955 276.513 182.016 277.271 181.28C278.028 180.533 278.94 180.16 280.007 180.16C280.977 180.16 281.724 180.389 282.247 180.848C282.769 181.307 283.031 181.835 283.031 182.432C283.031 182.923 282.796 183.275 282.327 183.488L278.775 185.104C279.212 186.032 279.916 186.496 280.887 186.496C281.292 186.496 281.655 186.411 281.975 186.24C282.305 186.059 282.551 185.835 282.711 185.568ZM279.719 180.864C279.303 180.864 278.972 181.067 278.727 181.472C278.481 181.867 278.359 182.373 278.359 182.992C278.359 183.515 278.412 183.973 278.519 184.368L280.583 183.328C280.86 183.189 280.999 182.939 280.999 182.576C280.999 182.213 280.881 181.84 280.647 181.456C280.412 181.061 280.103 180.864 279.719 180.864ZM295.085 180.32C295.298 180.32 295.405 180.405 295.405 180.576V180.656C295.405 180.784 295.277 180.955 295.021 181.168C294.775 181.381 294.61 181.616 294.525 181.872L292.461 187.616C292.375 187.872 292.205 188 291.949 188H291.421C291.143 188 290.967 187.872 290.893 187.616L289.421 182.88L287.933 187.616C287.847 187.872 287.671 188 287.405 188H287.037C286.781 188 286.61 187.872 286.525 187.616L284.189 181.872C284.103 181.648 283.954 181.424 283.741 181.2C283.527 180.965 283.421 180.784 283.421 180.656V180.576C283.421 180.405 283.527 180.32 283.741 180.32H286.589C286.791 180.32 286.893 180.411 286.893 180.592V180.656C286.893 180.741 286.855 180.827 286.781 180.912C286.706 180.987 286.626 181.056 286.541 181.12C286.466 181.184 286.407 181.285 286.365 181.424C286.333 181.563 286.349 181.723 286.413 181.904L287.693 185.664L289.181 180.688C289.245 180.485 289.367 180.384 289.549 180.384L290.429 180.368C290.61 180.368 290.733 180.464 290.797 180.656L292.253 185.664L293.485 182.112C293.57 181.888 293.581 181.696 293.517 181.536C293.463 181.365 293.383 181.243 293.277 181.168C293.181 181.093 293.085 181.013 292.989 180.928C292.893 180.832 292.845 180.741 292.845 180.656V180.592C292.845 180.411 292.951 180.32 293.165 180.32H295.085ZM299.043 188.144C298.04 188.144 297.219 187.963 296.579 187.6C295.939 187.237 295.619 186.8 295.619 186.288C295.619 186 295.704 185.781 295.875 185.632C296.056 185.483 296.291 185.408 296.579 185.408C296.888 185.408 297.139 185.52 297.331 185.744C297.523 185.957 297.656 186.197 297.731 186.464C297.816 186.731 297.966 186.976 298.179 187.2C298.403 187.413 298.691 187.52 299.043 187.52C299.384 187.52 299.662 187.429 299.875 187.248C300.099 187.067 300.211 186.805 300.211 186.464C300.211 186.08 300.056 185.776 299.747 185.552C299.448 185.328 299.08 185.163 298.643 185.056C298.206 184.939 297.768 184.811 297.331 184.672C296.894 184.523 296.52 184.272 296.211 183.92C295.912 183.557 295.763 183.088 295.763 182.512C295.763 181.829 296.062 181.269 296.659 180.832C297.267 180.384 298.051 180.16 299.011 180.16C299.982 180.16 300.771 180.352 301.379 180.736C301.998 181.109 302.307 181.557 302.307 182.08C302.307 182.315 302.216 182.512 302.035 182.672C301.864 182.832 301.651 182.912 301.395 182.912C301.096 182.912 300.856 182.805 300.675 182.592C300.494 182.368 300.366 182.128 300.291 181.872C300.216 181.605 300.083 181.365 299.891 181.152C299.699 180.928 299.448 180.816 299.139 180.816C298.83 180.816 298.579 180.923 298.387 181.136C298.195 181.339 298.099 181.589 298.099 181.888C298.099 182.187 298.179 182.437 298.339 182.64C298.499 182.843 298.707 182.997 298.963 183.104C299.219 183.211 299.502 183.312 299.811 183.408C300.12 183.493 300.43 183.595 300.739 183.712C301.059 183.819 301.347 183.952 301.603 184.112C301.859 184.272 302.067 184.501 302.227 184.8C302.387 185.088 302.467 185.44 302.467 185.856C302.467 186.517 302.158 187.067 301.539 187.504C300.92 187.931 300.088 188.144 299.043 188.144Z" fill="white"/>
<path d="M179.52 56C179.285 56 179.168 55.9093 179.168 55.728V55.68C179.168 55.5733 179.275 55.408 179.488 55.184C179.701 54.9493 179.808 54.7093 179.808 54.464V45.68H178.528C178.304 45.68 178.101 45.776 177.92 45.968C177.739 46.16 177.595 46.3733 177.488 46.608C177.392 46.8427 177.275 47.056 177.136 47.248C176.997 47.44 176.859 47.536 176.72 47.536H176.496C176.219 47.536 176.107 47.3973 176.16 47.12L176.448 45.088C176.491 44.7893 176.661 44.64 176.96 44.64H185.072C185.371 44.64 185.541 44.7893 185.584 45.088L185.92 47.136C185.941 47.264 185.92 47.3653 185.856 47.44C185.803 47.504 185.717 47.536 185.6 47.536H185.36C185.221 47.536 185.077 47.44 184.928 47.248C184.789 47.056 184.667 46.8427 184.56 46.608C184.453 46.3733 184.304 46.16 184.112 45.968C183.931 45.776 183.728 45.68 183.504 45.68H182.208V54.464C182.208 54.7093 182.32 54.9493 182.544 55.184C182.768 55.408 182.88 55.5733 182.88 55.68V55.728C182.88 55.9093 182.757 56 182.512 56H179.52ZM192.416 54.4C192.448 54.6453 192.506 54.8427 192.592 54.992C192.688 55.1413 192.784 55.2373 192.88 55.28C192.976 55.312 193.061 55.3547 193.135 55.408C193.21 55.4613 193.248 55.536 193.248 55.632C193.248 55.9413 192.736 56.096 191.712 56.096C191.242 56.096 190.896 56.0373 190.672 55.92C190.458 55.792 190.33 55.5627 190.288 55.232C189.872 55.8507 189.162 56.16 188.16 56.16C187.264 56.16 186.538 55.952 185.984 55.536C185.429 55.12 185.152 54.5227 185.152 53.744C185.141 52.976 185.413 52.3787 185.968 51.952C186.522 51.5253 187.216 51.312 188.048 51.312C188.752 51.312 189.333 51.472 189.792 51.792L189.776 51.6C189.669 50.5867 189.52 49.872 189.328 49.456C189.136 49.04 188.81 48.832 188.352 48.832C188.064 48.832 187.829 48.9387 187.648 49.152C187.466 49.3653 187.338 49.6 187.264 49.856C187.189 50.112 187.066 50.3467 186.896 50.56C186.725 50.7733 186.506 50.88 186.24 50.88C185.952 50.88 185.717 50.8 185.536 50.64C185.365 50.4693 185.28 50.2507 185.28 49.984C185.28 49.4293 185.573 48.9867 186.16 48.656C186.757 48.3253 187.488 48.16 188.352 48.16C189.386 48.16 190.234 48.4533 190.896 49.04C191.557 49.6267 191.946 50.4267 192.064 51.44L192.416 54.4ZM188.864 55.456C189.216 55.456 189.498 55.312 189.712 55.024C189.925 54.7253 190.021 54.3893 190 54.016L189.952 53.456C189.909 52.9973 189.77 52.6453 189.536 52.4C189.312 52.1547 189.029 52.032 188.688 52.032C188.346 52.032 188.064 52.1547 187.84 52.4C187.626 52.6453 187.52 52.9707 187.52 53.376C187.52 53.952 187.642 54.4427 187.888 54.848C188.144 55.2533 188.469 55.456 188.864 55.456ZM194.05 56C193.804 56 193.682 55.9093 193.682 55.728V55.664C193.682 55.5573 193.783 55.392 193.986 55.168C194.199 54.944 194.306 54.7093 194.306 54.464V46.592C194.306 46.3147 194.199 46.064 193.986 45.84C193.783 45.616 193.682 45.4613 193.682 45.376V45.312C193.682 45.184 193.788 45.0773 194.002 44.992L196.018 44C196.231 43.9147 196.391 43.904 196.498 43.968C196.615 44.032 196.674 44.1387 196.674 44.288V54.464C196.674 54.7093 196.786 54.944 197.01 55.168C197.244 55.392 197.362 55.5573 197.362 55.664V55.728C197.362 55.9093 197.239 56 196.994 56H194.05ZM204.742 53.568C204.838 53.44 204.955 53.3973 205.094 53.44C205.233 53.4827 205.297 53.584 205.286 53.744C205.233 54.2987 204.913 54.8427 204.326 55.376C203.739 55.8987 202.977 56.16 202.038 56.16C200.907 56.16 199.979 55.7867 199.254 55.04C198.529 54.2933 198.166 53.312 198.166 52.096C198.166 50.9547 198.545 50.016 199.302 49.28C200.059 48.5333 200.971 48.16 202.038 48.16C203.009 48.16 203.755 48.3893 204.278 48.848C204.801 49.3067 205.062 49.8347 205.062 50.432C205.062 50.9227 204.827 51.2747 204.358 51.488L200.806 53.104C201.243 54.032 201.947 54.496 202.918 54.496C203.323 54.496 203.686 54.4107 204.006 54.24C204.337 54.0587 204.582 53.8347 204.742 53.568ZM201.75 48.864C201.334 48.864 201.003 49.0667 200.758 49.472C200.513 49.8667 200.39 50.3733 200.39 50.992C200.39 51.5147 200.443 51.9733 200.55 52.368L202.614 51.328C202.891 51.1893 203.03 50.9387 203.03 50.576C203.03 50.2133 202.913 49.84 202.678 49.456C202.443 49.0613 202.134 48.864 201.75 48.864ZM214.409 54.448C214.431 54.704 214.532 54.944 214.713 55.168C214.895 55.392 214.985 55.5627 214.985 55.68V55.744C214.985 55.9253 214.863 56.016 214.617 56.016H211.849C211.604 56.016 211.481 55.9253 211.481 55.744V55.68C211.481 55.5733 211.577 55.408 211.769 55.184C211.972 54.96 212.068 54.7147 212.057 54.448L211.897 51.488C211.823 49.8773 211.359 49.072 210.505 49.072C210.079 49.072 209.743 49.232 209.497 49.552C209.263 49.872 209.145 50.2987 209.145 50.832V54.464C209.145 54.72 209.257 54.96 209.481 55.184C209.716 55.408 209.833 55.5733 209.833 55.68V55.744C209.833 55.9253 209.711 56.016 209.465 56.016H206.489C206.244 56.016 206.121 55.9253 206.121 55.744V55.68C206.121 55.5733 206.233 55.408 206.457 55.184C206.692 54.96 206.809 54.72 206.809 54.464V50.736C206.809 50.576 206.767 50.432 206.681 50.304C206.607 50.176 206.516 50.0853 206.409 50.032C206.313 49.968 206.223 49.8933 206.137 49.808C206.063 49.7227 206.025 49.6373 206.025 49.552V49.488C206.025 49.3707 206.132 49.2587 206.345 49.152L208.249 48.224C208.431 48.1387 208.564 48.1333 208.649 48.208C208.745 48.272 208.793 48.3893 208.793 48.56V49.456C209.252 48.592 210.041 48.16 211.161 48.16C211.972 48.16 212.66 48.432 213.225 48.976C213.801 49.52 214.132 50.384 214.217 51.568L214.409 54.448ZM218.804 56.16C218.057 56.16 217.465 55.9253 217.028 55.456C216.601 54.976 216.388 54.288 216.388 53.392V49.248H215.636C215.423 49.248 215.316 49.1413 215.316 48.928V48.656C215.316 48.432 215.423 48.32 215.636 48.32H216.036C216.473 48.32 216.841 48.176 217.14 47.888C217.449 47.6 217.647 47.216 217.732 46.736C217.785 46.48 217.908 46.352 218.1 46.352H218.42C218.655 46.352 218.772 46.48 218.772 46.736L218.788 48.32H220.628C220.713 48.32 220.788 48.352 220.852 48.416C220.916 48.48 220.948 48.56 220.948 48.656V48.928C220.948 49.024 220.916 49.104 220.852 49.168C220.788 49.2213 220.713 49.248 220.628 49.248H218.788V53.424C218.788 53.7333 218.863 53.984 219.012 54.176C219.172 54.3573 219.369 54.448 219.604 54.448C220.159 54.448 220.521 54.208 220.692 53.728C220.788 53.5893 220.905 53.536 221.044 53.568C221.193 53.5893 221.268 53.6747 221.268 53.824C221.268 54.4427 221.044 54.9867 220.596 55.456C220.159 55.9253 219.561 56.16 218.804 56.16ZM230.512 56.16C229.03 56.16 227.75 55.5573 226.672 54.352C225.606 53.136 225.072 51.744 225.072 50.176C225.072 48.5227 225.563 47.1627 226.544 46.096C227.536 45.0293 228.816 44.496 230.384 44.496C231.611 44.496 232.678 44.8107 233.584 45.44C234.491 46.0587 234.944 46.752 234.944 47.52C234.944 47.84 234.843 48.1013 234.64 48.304C234.438 48.496 234.16 48.592 233.808 48.592C233.488 48.592 233.206 48.4853 232.96 48.272C232.715 48.0587 232.502 47.8027 232.32 47.504C232.139 47.1947 231.947 46.8853 231.744 46.576C231.552 46.2667 231.296 46.0053 230.976 45.792C230.656 45.5787 230.288 45.472 229.872 45.472C229.2 45.472 228.624 45.776 228.144 46.384C227.664 46.9813 227.424 47.7653 227.424 48.736C227.424 50.2613 227.803 51.52 228.56 52.512C229.328 53.504 230.219 54 231.232 54C232.491 54 233.499 53.328 234.256 51.984C234.384 51.8027 234.55 51.744 234.752 51.808C234.955 51.8613 235.046 52.0053 235.024 52.24C234.928 53.3387 234.491 54.2667 233.712 55.024C232.934 55.7813 231.867 56.16 230.512 56.16ZM243.134 54.4C243.166 54.6453 243.225 54.8427 243.31 54.992C243.406 55.1413 243.502 55.2373 243.598 55.28C243.694 55.312 243.78 55.3547 243.854 55.408C243.929 55.4613 243.966 55.536 243.966 55.632C243.966 55.9413 243.454 56.096 242.43 56.096C241.961 56.096 241.614 56.0373 241.39 55.92C241.177 55.792 241.049 55.5627 241.006 55.232C240.59 55.8507 239.881 56.16 238.878 56.16C237.982 56.16 237.257 55.952 236.702 55.536C236.148 55.12 235.87 54.5227 235.87 53.744C235.86 52.976 236.132 52.3787 236.686 51.952C237.241 51.5253 237.934 51.312 238.766 51.312C239.47 51.312 240.052 51.472 240.51 51.792L240.494 51.6C240.388 50.5867 240.238 49.872 240.046 49.456C239.854 49.04 239.529 48.832 239.07 48.832C238.782 48.832 238.548 48.9387 238.366 49.152C238.185 49.3653 238.057 49.6 237.982 49.856C237.908 50.112 237.785 50.3467 237.614 50.56C237.444 50.7733 237.225 50.88 236.958 50.88C236.67 50.88 236.436 50.8 236.254 50.64C236.084 50.4693 235.998 50.2507 235.998 49.984C235.998 49.4293 236.292 48.9867 236.878 48.656C237.476 48.3253 238.206 48.16 239.07 48.16C240.105 48.16 240.953 48.4533 241.614 49.04C242.276 49.6267 242.665 50.4267 242.782 51.44L243.134 54.4ZM239.582 55.456C239.934 55.456 240.217 55.312 240.43 55.024C240.644 54.7253 240.74 54.3893 240.718 54.016L240.67 53.456C240.628 52.9973 240.489 52.6453 240.254 52.4C240.03 52.1547 239.748 52.032 239.406 52.032C239.065 52.032 238.782 52.1547 238.558 52.4C238.345 52.6453 238.238 52.9707 238.238 53.376C238.238 53.952 238.361 54.4427 238.606 54.848C238.862 55.2533 239.188 55.456 239.582 55.456ZM244.768 56C244.523 56 244.4 55.9093 244.4 55.728V55.664C244.4 55.5573 244.502 55.392 244.704 55.168C244.918 54.944 245.024 54.7093 245.024 54.464V46.592C245.024 46.3147 244.918 46.064 244.704 45.84C244.502 45.616 244.4 45.4613 244.4 45.376V45.312C244.4 45.184 244.507 45.0773 244.72 44.992L246.736 44C246.95 43.9147 247.11 43.904 247.216 43.968C247.334 44.032 247.392 44.1387 247.392 44.288V54.464C247.392 54.7093 247.504 54.944 247.728 55.168C247.963 55.392 248.08 55.5573 248.08 55.664V55.728C248.08 55.9093 247.958 56 247.712 56H244.768ZM251.925 46.8C251.647 47.056 251.274 47.184 250.805 47.184C250.335 47.184 249.951 47.056 249.653 46.8C249.365 46.5333 249.221 46.192 249.221 45.776C249.221 45.3707 249.365 45.04 249.653 44.784C249.951 44.5173 250.335 44.384 250.805 44.384C251.274 44.384 251.647 44.5173 251.925 44.784C252.213 45.04 252.357 45.3707 252.357 45.776C252.357 46.192 252.213 46.5333 251.925 46.8ZM249.349 56C249.114 56 248.997 55.9093 248.997 55.728V55.664C248.997 55.5573 249.098 55.392 249.301 55.168C249.503 54.944 249.605 54.704 249.605 54.448V50.832C249.605 50.5653 249.503 50.3147 249.301 50.08C249.098 49.8453 248.997 49.6853 248.997 49.6V49.552C248.997 49.4453 249.109 49.3333 249.333 49.216L251.333 48.224C251.535 48.1387 251.695 48.1333 251.813 48.208C251.93 48.272 251.989 48.384 251.989 48.544V54.448C251.989 54.704 252.101 54.944 252.325 55.168C252.549 55.392 252.661 55.5573 252.661 55.664V55.728C252.661 55.9093 252.538 56 252.293 56H249.349ZM258.342 48.16C259.345 48.16 260.214 48.5067 260.95 49.2C261.697 49.8933 262.07 50.8373 262.07 52.032C262.07 53.2373 261.702 54.2293 260.966 55.008C260.241 55.776 259.366 56.16 258.342 56.16C257.478 56.16 256.779 55.8773 256.246 55.312V55.664C256.246 55.8987 256.123 56.016 255.878 56.016L253.814 56C253.59 56 253.478 55.9093 253.478 55.728V55.68C253.478 55.5733 253.579 55.408 253.782 55.184C253.995 54.9493 254.102 54.704 254.102 54.448V46.608C254.102 46.3413 253.979 46.1013 253.734 45.888C253.489 45.664 253.366 45.4987 253.366 45.392V45.344C253.366 45.1947 253.489 45.0667 253.734 44.96L255.798 44C255.979 43.904 256.134 43.888 256.262 43.952C256.401 44.0053 256.47 44.128 256.47 44.32V48.8C256.929 48.3733 257.553 48.16 258.342 48.16ZM258.102 55.472C258.625 55.472 259.025 55.2587 259.302 54.832C259.59 54.4053 259.734 53.792 259.734 52.992C259.734 52.2987 259.659 51.6427 259.51 51.024C259.371 50.4053 259.147 49.888 258.838 49.472C258.529 49.056 258.171 48.848 257.766 48.848C257.393 48.848 257.083 48.9973 256.838 49.296C256.593 49.5947 256.47 49.984 256.47 50.464V53.36C256.47 53.904 256.635 54.3947 256.966 54.832C257.307 55.2587 257.686 55.472 258.102 55.472ZM267.86 48.16C268.319 48.16 268.676 48.2987 268.932 48.576C269.199 48.8427 269.332 49.1893 269.332 49.616C269.332 50.4587 268.991 50.88 268.308 50.88C268.031 50.88 267.812 50.8107 267.652 50.672C267.503 50.5227 267.412 50.3627 267.38 50.192C267.348 50.0213 267.284 49.8667 267.188 49.728C267.092 49.5787 266.948 49.504 266.756 49.504C266.468 49.504 266.255 49.6747 266.116 50.016C265.978 50.3573 265.908 50.7733 265.908 51.264V54.464C265.908 54.656 265.972 54.8267 266.1 54.976C266.239 55.1147 266.372 55.2373 266.5 55.344C266.639 55.4507 266.708 55.5573 266.708 55.664V55.728C266.708 55.9093 266.591 56 266.356 56H263.396C263.151 56 263.028 55.9093 263.028 55.728V55.664C263.028 55.5573 263.13 55.392 263.332 55.168C263.546 54.944 263.652 54.7093 263.652 54.464V50.72C263.652 50.464 263.53 50.2347 263.284 50.032C263.039 49.8293 262.916 49.6747 262.916 49.568V49.504C262.916 49.3547 263.028 49.2267 263.252 49.12L265.172 48.224C265.514 48.064 265.684 48.1707 265.684 48.544V49.744C266.047 48.688 266.772 48.16 267.86 48.16ZM276.978 54.4C277.01 54.6453 277.069 54.8427 277.154 54.992C277.25 55.1413 277.346 55.2373 277.442 55.28C277.538 55.312 277.623 55.3547 277.698 55.408C277.773 55.4613 277.81 55.536 277.81 55.632C277.81 55.9413 277.298 56.096 276.274 56.096C275.805 56.096 275.458 56.0373 275.234 55.92C275.021 55.792 274.893 55.5627 274.85 55.232C274.434 55.8507 273.725 56.16 272.722 56.16C271.826 56.16 271.101 55.952 270.546 55.536C269.991 55.12 269.714 54.5227 269.714 53.744C269.703 52.976 269.975 52.3787 270.53 51.952C271.085 51.5253 271.778 51.312 272.61 51.312C273.314 51.312 273.895 51.472 274.354 51.792L274.338 51.6C274.231 50.5867 274.082 49.872 273.89 49.456C273.698 49.04 273.373 48.832 272.914 48.832C272.626 48.832 272.391 48.9387 272.21 49.152C272.029 49.3653 271.901 49.6 271.826 49.856C271.751 50.112 271.629 50.3467 271.458 50.56C271.287 50.7733 271.069 50.88 270.802 50.88C270.514 50.88 270.279 50.8 270.098 50.64C269.927 50.4693 269.842 50.2507 269.842 49.984C269.842 49.4293 270.135 48.9867 270.722 48.656C271.319 48.3253 272.05 48.16 272.914 48.16C273.949 48.16 274.797 48.4533 275.458 49.04C276.119 49.6267 276.509 50.4267 276.626 51.44L276.978 54.4ZM273.426 55.456C273.778 55.456 274.061 55.312 274.274 55.024C274.487 54.7253 274.583 54.3893 274.562 54.016L274.514 53.456C274.471 52.9973 274.333 52.6453 274.098 52.4C273.874 52.1547 273.591 52.032 273.25 52.032C272.909 52.032 272.626 52.1547 272.402 52.4C272.189 52.6453 272.082 52.9707 272.082 53.376C272.082 53.952 272.205 54.4427 272.45 54.848C272.706 55.2533 273.031 55.456 273.426 55.456ZM281.382 56.16C280.635 56.16 280.043 55.9253 279.606 55.456C279.179 54.976 278.966 54.288 278.966 53.392V49.248H278.214C278.001 49.248 277.894 49.1413 277.894 48.928V48.656C277.894 48.432 278.001 48.32 278.214 48.32H278.614C279.051 48.32 279.419 48.176 279.718 47.888C280.027 47.6 280.225 47.216 280.31 46.736C280.363 46.48 280.486 46.352 280.678 46.352H280.998C281.233 46.352 281.35 46.48 281.35 46.736L281.366 48.32H283.206C283.291 48.32 283.366 48.352 283.43 48.416C283.494 48.48 283.526 48.56 283.526 48.656V48.928C283.526 49.024 283.494 49.104 283.43 49.168C283.366 49.2213 283.291 49.248 283.206 49.248H281.366V53.424C281.366 53.7333 281.441 53.984 281.59 54.176C281.75 54.3573 281.947 54.448 282.182 54.448C282.737 54.448 283.099 54.208 283.27 53.728C283.366 53.5893 283.483 53.536 283.622 53.568C283.771 53.5893 283.846 53.6747 283.846 53.824C283.846 54.4427 283.622 54.9867 283.174 55.456C282.737 55.9253 282.139 56.16 281.382 56.16ZM287.409 46.8C287.132 47.056 286.758 47.184 286.289 47.184C285.82 47.184 285.436 47.056 285.137 46.8C284.849 46.5333 284.705 46.192 284.705 45.776C284.705 45.3707 284.849 45.04 285.137 44.784C285.436 44.5173 285.82 44.384 286.289 44.384C286.758 44.384 287.132 44.5173 287.409 44.784C287.697 45.04 287.841 45.3707 287.841 45.776C287.841 46.192 287.697 46.5333 287.409 46.8ZM284.833 56C284.598 56 284.481 55.9093 284.481 55.728V55.664C284.481 55.5573 284.582 55.392 284.785 55.168C284.988 54.944 285.089 54.704 285.089 54.448V50.832C285.089 50.5653 284.988 50.3147 284.785 50.08C284.582 49.8453 284.481 49.6853 284.481 49.6V49.552C284.481 49.4453 284.593 49.3333 284.817 49.216L286.817 48.224C287.02 48.1387 287.18 48.1333 287.297 48.208C287.414 48.272 287.473 48.384 287.473 48.544V54.448C287.473 54.704 287.585 54.944 287.809 55.168C288.033 55.392 288.145 55.5573 288.145 55.664V55.728C288.145 55.9093 288.022 56 287.777 56H284.833ZM293.347 56.16C292.077 56.16 291.027 55.7707 290.195 54.992C289.373 54.2027 288.963 53.2427 288.963 52.112C288.963 50.9707 289.368 50.0267 290.179 49.28C290.989 48.5333 291.965 48.16 293.107 48.16C294.333 48.16 295.357 48.5493 296.179 49.328C297 50.096 297.411 51.0507 297.411 52.192C297.411 53.3333 297.021 54.2827 296.243 55.04C295.475 55.7867 294.509 56.16 293.347 56.16ZM293.635 55.456C294.072 55.456 294.408 55.2533 294.643 54.848C294.888 54.4427 295.011 53.872 295.011 53.136C295.011 52.528 294.92 51.904 294.739 51.264C294.568 50.6133 294.307 50.0533 293.955 49.584C293.603 49.104 293.213 48.864 292.786 48.864C291.805 48.864 291.315 49.6427 291.315 51.2C291.315 51.776 291.4 52.384 291.571 53.024C291.752 53.664 292.024 54.2293 292.387 54.72C292.76 55.2107 293.176 55.456 293.635 55.456ZM306.644 54.448C306.665 54.704 306.766 54.944 306.948 55.168C307.129 55.392 307.22 55.5627 307.22 55.68V55.744C307.22 55.9253 307.097 56.016 306.852 56.016H304.084C303.838 56.016 303.716 55.9253 303.716 55.744V55.68C303.716 55.5733 303.812 55.408 304.004 55.184C304.206 54.96 304.302 54.7147 304.292 54.448L304.132 51.488C304.057 49.8773 303.593 49.072 302.74 49.072C302.313 49.072 301.977 49.232 301.732 49.552C301.497 49.872 301.38 50.2987 301.38 50.832V54.464C301.38 54.72 301.492 54.96 301.716 55.184C301.95 55.408 302.068 55.5733 302.068 55.68V55.744C302.068 55.9253 301.945 56.016 301.7 56.016H298.724C298.478 56.016 298.356 55.9253 298.356 55.744V55.68C298.356 55.5733 298.468 55.408 298.692 55.184C298.926 54.96 299.044 54.72 299.044 54.464V50.736C299.044 50.576 299.001 50.432 298.916 50.304C298.841 50.176 298.75 50.0853 298.644 50.032C298.548 49.968 298.457 49.8933 298.372 49.808C298.297 49.7227 298.26 49.6373 298.26 49.552V49.488C298.26 49.3707 298.366 49.2587 298.58 49.152L300.484 48.224C300.665 48.1387 300.798 48.1333 300.884 48.208C300.98 48.272 301.028 48.3893 301.028 48.56V49.456C301.486 48.592 302.276 48.16 303.396 48.16C304.206 48.16 304.894 48.432 305.46 48.976C306.036 49.52 306.366 50.384 306.452 51.568L306.644 54.448Z" fill="white"/>
<path d="M486.856 50.16C485.373 50.16 484.093 49.5573 483.016 48.352C481.949 47.136 481.416 45.744 481.416 44.176C481.416 42.5227 481.907 41.1627 482.888 40.096C483.88 39.0293 485.16 38.496 486.728 38.496C487.955 38.496 489.021 38.8107 489.928 39.44C490.835 40.0587 491.288 40.752 491.288 41.52C491.288 41.84 491.187 42.1013 490.984 42.304C490.781 42.496 490.504 42.592 490.152 42.592C489.832 42.592 489.549 42.4853 489.304 42.272C489.059 42.0587 488.845 41.8027 488.664 41.504C488.483 41.1947 488.291 40.8853 488.088 40.576C487.896 40.2667 487.64 40.0053 487.32 39.792C487 39.5787 486.632 39.472 486.216 39.472C485.544 39.472 484.968 39.776 484.488 40.384C484.008 40.9813 483.768 41.7653 483.768 42.736C483.768 44.2613 484.147 45.52 484.904 46.512C485.672 47.504 486.563 48 487.576 48C488.835 48 489.843 47.328 490.6 45.984C490.728 45.8027 490.893 45.744 491.096 45.808C491.299 45.8613 491.389 46.0053 491.368 46.24C491.272 47.3387 490.835 48.2667 490.056 49.024C489.277 49.7813 488.211 50.16 486.856 50.16ZM496.534 50.16C495.265 50.16 494.214 49.7707 493.382 48.992C492.561 48.2027 492.15 47.2427 492.15 46.112C492.15 44.9707 492.555 44.0267 493.366 43.28C494.177 42.5333 495.153 42.16 496.294 42.16C497.521 42.16 498.545 42.5493 499.366 43.328C500.187 44.096 500.598 45.0507 500.598 46.192C500.598 47.3333 500.209 48.2827 499.43 49.04C498.662 49.7867 497.697 50.16 496.534 50.16ZM496.822 49.456C497.259 49.456 497.595 49.2533 497.83 48.848C498.075 48.4427 498.198 47.872 498.198 47.136C498.198 46.528 498.107 45.904 497.926 45.264C497.755 44.6133 497.494 44.0533 497.142 43.584C496.79 43.104 496.401 42.864 495.974 42.864C494.993 42.864 494.502 43.6427 494.502 45.2C494.502 45.776 494.587 46.384 494.758 47.024C494.939 47.664 495.211 48.2293 495.574 48.72C495.947 49.2107 496.363 49.456 496.822 49.456ZM514.807 48.448C514.829 48.704 514.93 48.944 515.111 49.168C515.293 49.392 515.383 49.5627 515.383 49.68V49.744C515.383 49.9253 515.266 50.016 515.031 50.016H512.263C512.018 50.016 511.895 49.9253 511.895 49.744V49.68C511.895 49.5733 511.991 49.408 512.183 49.184C512.386 48.96 512.477 48.72 512.455 48.464L512.295 45.536C512.253 44.6507 512.119 44.0213 511.895 43.648C511.671 43.264 511.341 43.072 510.903 43.072C510.53 43.072 510.226 43.2267 509.991 43.536C509.757 43.8453 509.629 44.2453 509.607 44.736C509.65 44.9493 509.671 45.2053 509.671 45.504V48.464C509.671 48.72 509.762 48.96 509.943 49.184C510.135 49.408 510.231 49.5733 510.231 49.68V49.744C510.231 49.9253 510.114 50.016 509.879 50.016H507.111C506.866 50.016 506.743 49.9253 506.743 49.744V49.68C506.743 49.5733 506.839 49.408 507.031 49.184C507.223 48.96 507.319 48.72 507.319 48.464V45.344C507.319 44.6187 507.191 44.0587 506.935 43.664C506.679 43.2693 506.343 43.072 505.927 43.072C505.501 43.072 505.165 43.2373 504.919 43.568C504.674 43.8987 504.551 44.3253 504.551 44.848V48.464C504.551 48.72 504.663 48.96 504.887 49.184C505.122 49.408 505.239 49.5733 505.239 49.68V49.744C505.239 49.9253 505.117 50.016 504.871 50.016H501.895C501.65 50.016 501.527 49.9253 501.527 49.744V49.68C501.527 49.5733 501.639 49.408 501.863 49.184C502.098 48.96 502.215 48.72 502.215 48.464V44.736C502.215 44.5333 502.151 44.3627 502.023 44.224C501.895 44.0853 501.762 43.968 501.623 43.872C501.495 43.7653 501.431 43.6587 501.431 43.552V43.488C501.431 43.3707 501.543 43.2587 501.767 43.152L503.783 42.224C503.965 42.1387 504.103 42.1333 504.199 42.208C504.295 42.272 504.343 42.3893 504.343 42.56V43.312C504.845 42.544 505.581 42.16 506.551 42.16C507.767 42.16 508.653 42.64 509.207 43.6C509.421 43.152 509.741 42.8 510.167 42.544C510.605 42.288 511.095 42.16 511.639 42.16C512.45 42.16 513.127 42.432 513.671 42.976C514.215 43.5093 514.53 44.384 514.615 45.6L514.807 48.448ZM520.857 42.16C521.859 42.16 522.734 42.5067 523.481 43.2C524.227 43.8933 524.601 44.8373 524.601 46.032C524.601 47.2373 524.233 48.2293 523.497 49.008C522.771 49.776 521.897 50.16 520.873 50.16C520.126 50.16 519.502 49.952 519.001 49.536V51.92C519.001 52.176 519.113 52.416 519.337 52.64C519.561 52.864 519.673 53.0293 519.673 53.136V53.2C519.673 53.3813 519.55 53.472 519.305 53.472H516.409C516.163 53.472 516.041 53.3813 516.041 53.2V53.136C516.041 53.0293 516.142 52.864 516.345 52.64C516.558 52.416 516.665 52.176 516.665 51.92V44.72C516.665 44.4853 516.542 44.272 516.297 44.08C516.051 43.8773 515.929 43.7173 515.929 43.6V43.52C515.929 43.3707 516.035 43.2427 516.249 43.136L518.041 42.256C518.446 42.0533 518.649 42.1493 518.649 42.544L518.633 43.216C519.081 42.512 519.822 42.16 520.857 42.16ZM520.633 49.472C521.145 49.472 521.539 49.2587 521.817 48.832C522.105 48.4053 522.249 47.792 522.249 46.992C522.249 45.904 522.073 44.944 521.721 44.112C521.369 43.2693 520.894 42.848 520.297 42.848C519.966 42.848 519.678 42.9707 519.433 43.216C519.187 43.4507 519.043 43.76 519.001 44.144V47.2C519.001 47.8187 519.166 48.352 519.497 48.8C519.827 49.248 520.206 49.472 520.633 49.472ZM532.775 48.4C532.807 48.6453 532.866 48.8427 532.951 48.992C533.047 49.1413 533.143 49.2373 533.239 49.28C533.335 49.312 533.42 49.3547 533.495 49.408C533.57 49.4613 533.607 49.536 533.607 49.632C533.607 49.9413 533.095 50.096 532.071 50.096C531.602 50.096 531.255 50.0373 531.031 49.92C530.818 49.792 530.69 49.5627 530.647 49.232C530.231 49.8507 529.522 50.16 528.519 50.16C527.623 50.16 526.898 49.952 526.343 49.536C525.788 49.12 525.511 48.5227 525.511 47.744C525.5 46.976 525.772 46.3787 526.327 45.952C526.882 45.5253 527.575 45.312 528.407 45.312C529.111 45.312 529.692 45.472 530.151 45.792L530.135 45.6C530.028 44.5867 529.879 43.872 529.687 43.456C529.495 43.04 529.17 42.832 528.711 42.832C528.423 42.832 528.188 42.9387 528.007 43.152C527.826 43.3653 527.698 43.6 527.623 43.856C527.548 44.112 527.426 44.3467 527.255 44.56C527.084 44.7733 526.866 44.88 526.599 44.88C526.311 44.88 526.076 44.8 525.895 44.64C525.724 44.4693 525.639 44.2507 525.639 43.984C525.639 43.4293 525.932 42.9867 526.519 42.656C527.116 42.3253 527.847 42.16 528.711 42.16C529.746 42.16 530.594 42.4533 531.255 43.04C531.916 43.6267 532.306 44.4267 532.423 45.44L532.775 48.4ZM529.223 49.456C529.575 49.456 529.858 49.312 530.071 49.024C530.284 48.7253 530.38 48.3893 530.359 48.016L530.311 47.456C530.268 46.9973 530.13 46.6453 529.895 46.4C529.671 46.1547 529.388 46.032 529.047 46.032C528.706 46.032 528.423 46.1547 528.199 46.4C527.986 46.6453 527.879 46.9707 527.879 47.376C527.879 47.952 528.002 48.4427 528.247 48.848C528.503 49.2533 528.828 49.456 529.223 49.456ZM542.425 48.448C542.446 48.704 542.548 48.944 542.729 49.168C542.91 49.392 543.001 49.5627 543.001 49.68V49.744C543.001 49.9253 542.878 50.016 542.633 50.016H539.865C539.62 50.016 539.497 49.9253 539.497 49.744V49.68C539.497 49.5733 539.593 49.408 539.785 49.184C539.988 48.96 540.084 48.7147 540.073 48.448L539.913 45.488C539.838 43.8773 539.374 43.072 538.521 43.072C538.094 43.072 537.758 43.232 537.513 43.552C537.278 43.872 537.161 44.2987 537.161 44.832V48.464C537.161 48.72 537.273 48.96 537.497 49.184C537.732 49.408 537.849 49.5733 537.849 49.68V49.744C537.849 49.9253 537.726 50.016 537.481 50.016H534.505C534.26 50.016 534.137 49.9253 534.137 49.744V49.68C534.137 49.5733 534.249 49.408 534.473 49.184C534.708 48.96 534.825 48.72 534.825 48.464V44.736C534.825 44.576 534.782 44.432 534.697 44.304C534.622 44.176 534.532 44.0853 534.425 44.032C534.329 43.968 534.238 43.8933 534.153 43.808C534.078 43.7227 534.041 43.6373 534.041 43.552V43.488C534.041 43.3707 534.148 43.2587 534.361 43.152L536.265 42.224C536.446 42.1387 536.58 42.1333 536.665 42.208C536.761 42.272 536.809 42.3893 536.809 42.56V43.456C537.268 42.592 538.057 42.16 539.177 42.16C539.988 42.16 540.676 42.432 541.241 42.976C541.817 43.52 542.148 44.384 542.233 45.568L542.425 48.448ZM551.371 42.32C551.584 42.32 551.691 42.4053 551.691 42.576V42.656C551.691 42.7947 551.579 42.9813 551.355 43.216C551.142 43.4507 550.982 43.68 550.875 43.904L547.851 50.48C547.712 50.7893 547.595 51.04 547.499 51.232C547.403 51.424 547.254 51.6747 547.051 51.984C546.859 52.304 546.667 52.5547 546.475 52.736C546.283 52.9173 546.043 53.0773 545.755 53.216C545.467 53.3547 545.168 53.424 544.859 53.424C544.176 53.424 543.611 53.248 543.163 52.896C542.726 52.544 542.507 52.1493 542.507 51.712C542.507 51.424 542.592 51.1893 542.763 51.008C542.934 50.8373 543.168 50.752 543.467 50.752C543.766 50.752 544 50.848 544.171 51.04C544.342 51.2427 544.454 51.4667 544.507 51.712C544.56 51.9573 544.64 52.176 544.747 52.368C544.864 52.5707 545.014 52.672 545.195 52.672C545.686 52.672 546.235 51.9253 546.843 50.432L543.659 43.904C543.542 43.6693 543.366 43.44 543.131 43.216C542.907 42.9813 542.795 42.7947 542.795 42.656V42.576C542.795 42.4053 542.907 42.32 543.131 42.32H546.123C546.326 42.32 546.427 42.4107 546.427 42.592V42.656C546.427 42.752 546.379 42.864 546.283 42.992C546.187 43.1093 546.123 43.2213 546.091 43.328C546.059 43.4347 546.091 43.6373 546.187 43.936L548.059 48.272L549.787 44.16C549.894 43.7973 549.894 43.5467 549.787 43.408C549.68 43.2693 549.536 43.136 549.355 43.008C549.174 42.8693 549.083 42.752 549.083 42.656V42.592C549.083 42.4107 549.195 42.32 549.419 42.32H551.371ZM564.371 48.464C564.51 48.6773 564.675 48.864 564.867 49.024C565.07 49.1733 565.23 49.296 565.347 49.392C565.464 49.4773 565.523 49.5733 565.523 49.68V49.728C565.523 49.9093 565.4 50 565.155 50H561.811C561.576 50 561.459 49.9093 561.459 49.728V49.68C561.459 49.584 561.518 49.4773 561.635 49.36C561.763 49.232 561.848 49.12 561.891 49.024C561.944 48.9173 561.918 48.7307 561.811 48.464L560.131 45.68L558.371 45.712V48.464C558.371 48.7093 558.483 48.9493 558.707 49.184C558.942 49.408 559.059 49.5733 559.059 49.68V49.728C559.059 49.9093 558.931 50 558.675 50H555.667C555.432 50 555.315 49.9093 555.315 49.728V49.68C555.315 49.5733 555.416 49.408 555.619 49.184C555.822 48.9493 555.923 48.7093 555.923 48.464V40.176C555.923 39.9307 555.822 39.696 555.619 39.472C555.416 39.2373 555.315 39.0667 555.315 38.96V38.896C555.315 38.7253 555.432 38.64 555.667 38.64H559.619C561.102 38.64 562.275 38.944 563.139 39.552C564.014 40.16 564.456 41.0507 564.467 42.224C564.467 42.8747 564.275 43.4773 563.891 44.032C563.518 44.576 562.979 44.9973 562.275 45.296L564.371 48.464ZM559.267 44.736H559.955C560.563 44.736 561.048 44.5493 561.411 44.176C561.784 43.792 561.971 43.232 561.971 42.496C561.971 41.6213 561.715 40.9227 561.203 40.4C560.702 39.8773 560.12 39.616 559.459 39.616H558.915C558.552 39.616 558.371 39.856 558.371 40.336V43.664C558.371 44.048 558.44 44.3253 558.579 44.496C558.728 44.656 558.958 44.736 559.267 44.736ZM572.055 47.568C572.151 47.44 572.268 47.3973 572.407 47.44C572.545 47.4827 572.609 47.584 572.599 47.744C572.545 48.2987 572.225 48.8427 571.639 49.376C571.052 49.8987 570.289 50.16 569.351 50.16C568.22 50.16 567.292 49.7867 566.567 49.04C565.841 48.2933 565.479 47.312 565.479 46.096C565.479 44.9547 565.857 44.016 566.615 43.28C567.372 42.5333 568.284 42.16 569.351 42.16C570.321 42.16 571.068 42.3893 571.591 42.848C572.113 43.3067 572.375 43.8347 572.375 44.432C572.375 44.9227 572.14 45.2747 571.671 45.488L568.119 47.104C568.556 48.032 569.26 48.496 570.231 48.496C570.636 48.496 570.999 48.4107 571.319 48.24C571.649 48.0587 571.895 47.8347 572.055 47.568ZM569.062 42.864C568.647 42.864 568.316 43.0667 568.071 43.472C567.825 43.8667 567.703 44.3733 567.703 44.992C567.703 45.5147 567.756 45.9733 567.863 46.368L569.927 45.328C570.204 45.1893 570.343 44.9387 570.343 44.576C570.343 44.2133 570.225 43.84 569.991 43.456C569.756 43.0613 569.447 42.864 569.062 42.864ZM577.386 50.16C576.202 50.16 575.215 49.7653 574.426 48.976C573.647 48.1867 573.258 47.2427 573.258 46.144C573.258 44.9493 573.647 43.9893 574.426 43.264C575.215 42.5387 576.17 42.1707 577.29 42.16C578.207 42.1493 578.986 42.3627 579.626 42.8C580.277 43.2373 580.602 43.7707 580.602 44.4C580.602 44.6347 580.522 44.832 580.362 44.992C580.202 45.1413 579.951 45.2107 579.61 45.2C579.354 45.1893 579.13 45.0987 578.938 44.928C578.746 44.7573 578.586 44.56 578.458 44.336C578.341 44.112 578.218 43.888 578.09 43.664C577.962 43.44 577.802 43.2533 577.61 43.104C577.418 42.944 577.194 42.864 576.938 42.864C576.49 42.864 576.127 43.0667 575.85 43.472C575.583 43.8773 575.45 44.384 575.45 44.992C575.45 46.0587 575.695 46.912 576.186 47.552C576.687 48.192 577.349 48.512 578.17 48.512C579.013 48.512 579.653 48.1387 580.09 47.392C580.154 47.3067 580.229 47.2587 580.314 47.248C580.41 47.2267 580.49 47.248 580.554 47.312C580.629 47.3653 580.661 47.4453 580.65 47.552C580.597 48.2667 580.282 48.88 579.706 49.392C579.141 49.904 578.367 50.16 577.386 50.16ZM585.8 50.16C584.53 50.16 583.48 49.7707 582.648 48.992C581.826 48.2027 581.416 47.2427 581.416 46.112C581.416 44.9707 581.821 44.0267 582.632 43.28C583.442 42.5333 584.418 42.16 585.56 42.16C586.786 42.16 587.81 42.5493 588.632 43.328C589.453 44.096 589.864 45.0507 589.864 46.192C589.864 47.3333 589.474 48.2827 588.696 49.04C587.928 49.7867 586.962 50.16 585.8 50.16ZM586.088 49.456C586.525 49.456 586.861 49.2533 587.096 48.848C587.341 48.4427 587.464 47.872 587.464 47.136C587.464 46.528 587.373 45.904 587.192 45.264C587.021 44.6133 586.76 44.0533 586.408 43.584C586.056 43.104 585.666 42.864 585.24 42.864C584.258 42.864 583.768 43.6427 583.768 45.2C583.768 45.776 583.853 46.384 584.024 47.024C584.205 47.664 584.477 48.2293 584.84 48.72C585.213 49.2107 585.629 49.456 586.088 49.456ZM597.721 42.32C598.126 42.32 598.393 42.3627 598.521 42.448C598.66 42.5227 598.702 42.64 598.649 42.8C598.617 42.96 598.548 43.0773 598.441 43.152C598.334 43.216 598.153 43.2693 597.897 43.312C597.641 43.3547 597.486 43.3867 597.433 43.408C598.03 44.0267 598.329 44.7093 598.329 45.456C598.329 46.0747 598.169 46.6293 597.849 47.12C597.54 47.6 597.102 47.9733 596.537 48.24C597.817 48.528 598.457 49.136 598.457 50.064C598.457 50.736 598.073 51.2747 597.305 51.68C596.548 52.096 595.593 52.304 594.441 52.304C593.289 52.304 592.377 52.096 591.705 51.68C591.044 51.264 590.713 50.736 590.713 50.096C590.713 49.8507 590.793 49.6427 590.953 49.472C591.113 49.2907 591.348 49.2 591.657 49.2C591.945 49.2 592.19 49.328 592.393 49.584C592.596 49.8293 592.75 50.1013 592.857 50.4C592.974 50.7093 593.172 50.9867 593.449 51.232C593.726 51.488 594.073 51.6213 594.489 51.632C594.98 51.632 595.369 51.4933 595.657 51.216C595.956 50.9387 596.105 50.576 596.105 50.128C596.105 49.2853 595.774 48.7947 595.113 48.656C594.836 48.6773 594.628 48.688 594.489 48.688C593.412 48.688 592.516 48.3893 591.801 47.792C591.097 47.184 590.745 46.4267 590.745 45.52C590.745 44.5173 591.097 43.7067 591.801 43.088C592.505 42.4693 593.417 42.16 594.537 42.16C594.825 42.16 595.278 42.1867 595.897 42.24C596.516 42.2933 597.124 42.32 597.721 42.32ZM593.001 44.464C593.001 45.3387 593.182 46.144 593.545 46.88C593.918 47.6053 594.35 47.968 594.841 47.968C595.214 47.968 595.508 47.824 595.721 47.536C595.945 47.2373 596.057 46.848 596.057 46.368C596.057 45.8453 595.982 45.3173 595.833 44.784C595.684 44.2507 595.46 43.7973 595.161 43.424C594.862 43.0507 594.537 42.864 594.185 42.864C593.822 42.864 593.534 43.008 593.321 43.296C593.108 43.584 593.001 43.9733 593.001 44.464ZM607.847 48.448C607.868 48.704 607.97 48.944 608.151 49.168C608.332 49.392 608.423 49.5627 608.423 49.68V49.744C608.423 49.9253 608.3 50.016 608.055 50.016H605.287C605.042 50.016 604.919 49.9253 604.919 49.744V49.68C604.919 49.5733 605.015 49.408 605.207 49.184C605.41 48.96 605.506 48.7147 605.495 48.448L605.335 45.488C605.26 43.8773 604.796 43.072 603.943 43.072C603.516 43.072 603.18 43.232 602.935 43.552C602.7 43.872 602.583 44.2987 602.583 44.832V48.464C602.583 48.72 602.695 48.96 602.919 49.184C603.154 49.408 603.271 49.5733 603.271 49.68V49.744C603.271 49.9253 603.148 50.016 602.903 50.016H599.927C599.682 50.016 599.559 49.9253 599.559 49.744V49.68C599.559 49.5733 599.671 49.408 599.895 49.184C600.13 48.96 600.247 48.72 600.247 48.464V44.736C600.247 44.576 600.204 44.432 600.119 44.304C600.044 44.176 599.954 44.0853 599.847 44.032C599.751 43.968 599.66 43.8933 599.575 43.808C599.5 43.7227 599.463 43.6373 599.463 43.552V43.488C599.463 43.3707 599.57 43.2587 599.783 43.152L601.687 42.224C601.868 42.1387 602.002 42.1333 602.087 42.208C602.183 42.272 602.231 42.3893 602.231 42.56V43.456C602.69 42.592 603.479 42.16 604.599 42.16C605.41 42.16 606.098 42.432 606.663 42.976C607.239 43.52 607.57 44.384 607.655 45.568L607.847 48.448ZM612.128 40.8C611.851 41.056 611.477 41.184 611.008 41.184C610.539 41.184 610.155 41.056 609.856 40.8C609.568 40.5333 609.424 40.192 609.424 39.776C609.424 39.3707 609.568 39.04 609.856 38.784C610.155 38.5173 610.539 38.384 611.008 38.384C611.477 38.384 611.851 38.5173 612.128 38.784C612.416 39.04 612.56 39.3707 612.56 39.776C612.56 40.192 612.416 40.5333 612.128 40.8ZM609.552 50C609.317 50 609.2 49.9093 609.2 49.728V49.664C609.2 49.5573 609.301 49.392 609.504 49.168C609.707 48.944 609.808 48.704 609.808 48.448V44.832C609.808 44.5653 609.707 44.3147 609.504 44.08C609.301 43.8453 609.2 43.6853 609.2 43.6V43.552C609.2 43.4453 609.312 43.3333 609.536 43.216L611.536 42.224C611.739 42.1387 611.899 42.1333 612.016 42.208C612.133 42.272 612.192 42.384 612.192 42.544V48.448C612.192 48.704 612.304 48.944 612.528 49.168C612.752 49.392 612.864 49.5573 612.864 49.664V49.728C612.864 49.9093 612.741 50 612.496 50H609.552ZM616.913 50.16C616.167 50.16 615.575 49.9253 615.137 49.456C614.711 48.976 614.497 48.288 614.497 47.392V43.248H613.745C613.532 43.248 613.425 43.1413 613.425 42.928V42.656C613.425 42.432 613.532 42.32 613.745 42.32H614.145C614.583 42.32 614.951 42.176 615.249 41.888C615.559 41.6 615.756 41.216 615.841 40.736C615.895 40.48 616.017 40.352 616.209 40.352H616.529C616.764 40.352 616.881 40.48 616.881 40.736L616.897 42.32H618.737C618.823 42.32 618.897 42.352 618.961 42.416C619.025 42.48 619.057 42.56 619.057 42.656V42.928C619.057 43.024 619.025 43.104 618.961 43.168C618.897 43.2213 618.823 43.248 618.737 43.248H616.897V47.424C616.897 47.7333 616.972 47.984 617.121 48.176C617.281 48.3573 617.479 48.448 617.713 48.448C618.268 48.448 618.631 48.208 618.801 47.728C618.897 47.5893 619.015 47.536 619.153 47.568C619.303 47.5893 619.377 47.6747 619.377 47.824C619.377 48.4427 619.153 48.9867 618.705 49.456C618.268 49.9253 617.671 50.16 616.913 50.16ZM622.94 40.8C622.663 41.056 622.29 41.184 621.82 41.184C621.351 41.184 620.967 41.056 620.668 40.8C620.38 40.5333 620.236 40.192 620.236 39.776C620.236 39.3707 620.38 39.04 620.668 38.784C620.967 38.5173 621.351 38.384 621.82 38.384C622.29 38.384 622.663 38.5173 622.94 38.784C623.228 39.04 623.372 39.3707 623.372 39.776C623.372 40.192 623.228 40.5333 622.94 40.8ZM620.364 50C620.13 50 620.012 49.9093 620.012 49.728V49.664C620.012 49.5573 620.114 49.392 620.316 49.168C620.519 48.944 620.62 48.704 620.62 48.448V44.832C620.62 44.5653 620.519 44.3147 620.316 44.08C620.114 43.8453 620.012 43.6853 620.012 43.6V43.552C620.012 43.4453 620.124 43.3333 620.348 43.216L622.348 42.224C622.551 42.1387 622.711 42.1333 622.828 42.208C622.946 42.272 623.004 42.384 623.004 42.544V48.448C623.004 48.704 623.116 48.944 623.34 49.168C623.564 49.392 623.676 49.5573 623.676 49.664V49.728C623.676 49.9093 623.554 50 623.308 50H620.364ZM628.878 50.16C627.608 50.16 626.558 49.7707 625.726 48.992C624.904 48.2027 624.494 47.2427 624.494 46.112C624.494 44.9707 624.899 44.0267 625.71 43.28C626.52 42.5333 627.496 42.16 628.638 42.16C629.864 42.16 630.888 42.5493 631.71 43.328C632.531 44.096 632.942 45.0507 632.942 46.192C632.942 47.3333 632.552 48.2827 631.774 49.04C631.006 49.7867 630.04 50.16 628.878 50.16ZM629.166 49.456C629.603 49.456 629.939 49.2533 630.174 48.848C630.419 48.4427 630.542 47.872 630.542 47.136C630.542 46.528 630.451 45.904 630.27 45.264C630.099 44.6133 629.838 44.0533 629.486 43.584C629.134 43.104 628.744 42.864 628.318 42.864C627.336 42.864 626.846 43.6427 626.846 45.2C626.846 45.776 626.931 46.384 627.102 47.024C627.283 47.664 627.555 48.2293 627.918 48.72C628.291 49.2107 628.707 49.456 629.166 49.456ZM642.175 48.448C642.196 48.704 642.298 48.944 642.479 49.168C642.66 49.392 642.751 49.5627 642.751 49.68V49.744C642.751 49.9253 642.628 50.016 642.383 50.016H639.615C639.37 50.016 639.247 49.9253 639.247 49.744V49.68C639.247 49.5733 639.343 49.408 639.535 49.184C639.738 48.96 639.834 48.7147 639.823 48.448L639.663 45.488C639.588 43.8773 639.124 43.072 638.271 43.072C637.844 43.072 637.508 43.232 637.263 43.552C637.028 43.872 636.911 44.2987 636.911 44.832V48.464C636.911 48.72 637.023 48.96 637.247 49.184C637.482 49.408 637.599 49.5733 637.599 49.68V49.744C637.599 49.9253 637.476 50.016 637.231 50.016H634.255C634.01 50.016 633.887 49.9253 633.887 49.744V49.68C633.887 49.5733 633.999 49.408 634.223 49.184C634.458 48.96 634.575 48.72 634.575 48.464V44.736C634.575 44.576 634.532 44.432 634.447 44.304C634.372 44.176 634.282 44.0853 634.175 44.032C634.079 43.968 633.988 43.8933 633.903 43.808C633.828 43.7227 633.791 43.6373 633.791 43.552V43.488C633.791 43.3707 633.898 43.2587 634.111 43.152L636.015 42.224C636.196 42.1387 636.33 42.1333 636.415 42.208C636.511 42.272 636.559 42.3893 636.559 42.56V43.456C637.018 42.592 637.807 42.16 638.927 42.16C639.738 42.16 640.426 42.432 640.991 42.976C641.567 43.52 641.898 44.384 641.983 45.568L642.175 48.448ZM482.12 70C481.875 70 481.752 69.9093 481.752 69.728V69.68C481.752 69.5733 481.853 69.408 482.056 69.184C482.269 68.9493 482.376 68.7093 482.376 68.464V60.176C482.376 59.92 482.269 59.68 482.056 59.456C481.853 59.232 481.752 59.0667 481.752 58.96V58.896C481.752 58.7253 481.869 58.64 482.104 58.64H489.352C489.64 58.64 489.805 58.7947 489.848 59.104L490.232 60.976C490.285 61.2533 490.173 61.392 489.896 61.392H489.816C489.656 61.392 489.48 61.3013 489.288 61.12C489.107 60.928 488.941 60.7253 488.792 60.512C488.653 60.288 488.472 60.0853 488.248 59.904C488.024 59.712 487.795 59.616 487.56 59.616H485.448C485.032 59.616 484.824 59.84 484.824 60.288V64.192H486.968C487.117 64.192 487.256 64.1333 487.384 64.016C487.523 63.888 487.629 63.7493 487.704 63.6C487.779 63.4507 487.864 63.3173 487.96 63.2C488.056 63.072 488.152 63.008 488.248 63.008H488.376C488.557 63.008 488.648 63.1253 488.648 63.36V65.936C488.648 66.16 488.557 66.272 488.376 66.272H488.248C488.152 66.272 488.056 66.2133 487.96 66.096C487.864 65.9787 487.779 65.8507 487.704 65.712C487.629 65.5733 487.523 65.4453 487.384 65.328C487.256 65.2107 487.117 65.152 486.968 65.152H484.824V68.464C484.824 68.7093 484.936 68.9493 485.16 69.184C485.395 69.408 485.512 69.5733 485.512 69.68V69.728C485.512 69.9093 485.384 70 485.128 70H482.12ZM496.601 67.568C496.697 67.44 496.815 67.3973 496.953 67.44C497.092 67.4827 497.156 67.584 497.145 67.744C497.092 68.2987 496.772 68.8427 496.185 69.376C495.599 69.8987 494.836 70.16 493.897 70.16C492.767 70.16 491.839 69.7867 491.113 69.04C490.388 68.2933 490.025 67.312 490.025 66.096C490.025 64.9547 490.404 64.016 491.161 63.28C491.919 62.5333 492.831 62.16 493.897 62.16C494.868 62.16 495.615 62.3893 496.137 62.848C496.66 63.3067 496.921 63.8347 496.921 64.432C496.921 64.9227 496.687 65.2747 496.217 65.488L492.665 67.104C493.103 68.032 493.807 68.496 494.777 68.496C495.183 68.496 495.545 68.4107 495.865 68.24C496.196 68.0587 496.441 67.8347 496.601 67.568ZM493.609 62.864C493.193 62.864 492.863 63.0667 492.617 63.472C492.372 63.8667 492.249 64.3733 492.249 64.992C492.249 65.5147 492.303 65.9733 492.409 66.368L494.473 65.328C494.751 65.1893 494.889 64.9387 494.889 64.576C494.889 64.2133 494.772 63.84 494.537 63.456C494.303 63.0613 493.993 62.864 493.609 62.864ZM504.461 67.568C504.557 67.44 504.674 67.3973 504.813 67.44C504.951 67.4827 505.015 67.584 505.005 67.744C504.951 68.2987 504.631 68.8427 504.045 69.376C503.458 69.8987 502.695 70.16 501.757 70.16C500.626 70.16 499.698 69.7867 498.973 69.04C498.247 68.2933 497.885 67.312 497.885 66.096C497.885 64.9547 498.263 64.016 499.021 63.28C499.778 62.5333 500.69 62.16 501.757 62.16C502.727 62.16 503.474 62.3893 503.997 62.848C504.519 63.3067 504.781 63.8347 504.781 64.432C504.781 64.9227 504.546 65.2747 504.077 65.488L500.525 67.104C500.962 68.032 501.666 68.496 502.637 68.496C503.042 68.496 503.405 68.4107 503.725 68.24C504.055 68.0587 504.301 67.8347 504.461 67.568ZM501.469 62.864C501.053 62.864 500.722 63.0667 500.477 63.472C500.231 63.8667 500.109 64.3733 500.109 64.992C500.109 65.5147 500.162 65.9733 500.269 66.368L502.333 65.328C502.61 65.1893 502.749 64.9387 502.749 64.576C502.749 64.2133 502.631 63.84 502.397 63.456C502.162 63.0613 501.853 62.864 501.469 62.864ZM513.648 68.464C513.648 68.7093 513.755 68.9493 513.968 69.184C514.181 69.408 514.288 69.5733 514.288 69.68V69.728C514.288 69.9093 514.181 70 513.968 70H511.984C511.739 70 511.616 69.8827 511.616 69.648L511.584 69.296C511.093 69.872 510.4 70.16 509.504 70.16C508.469 70.16 507.584 69.8027 506.848 69.088C506.112 68.3627 505.744 67.3813 505.744 66.144C505.744 64.9813 506.112 64.0267 506.848 63.28C507.584 62.5333 508.475 62.16 509.52 62.16C510.267 62.16 510.891 62.368 511.392 62.784V60.224C511.392 60.0107 511.323 59.8347 511.184 59.696C511.056 59.5573 510.923 59.44 510.784 59.344C510.656 59.248 510.592 59.1467 510.592 59.04V58.992C510.592 58.8107 510.704 58.688 510.928 58.624L513.024 57.984C513.44 57.8453 513.648 57.952 513.648 58.304V68.464ZM510.032 69.472C510.395 69.472 510.709 69.3227 510.976 69.024C511.253 68.7147 511.392 68.2933 511.392 67.76V64.944C511.392 64.4213 511.216 63.9413 510.864 63.504C510.512 63.0667 510.107 62.848 509.648 62.848C509.157 62.848 508.768 63.056 508.48 63.472C508.192 63.8773 508.043 64.4533 508.032 65.2C508.011 65.808 508.069 66.432 508.208 67.072C508.357 67.712 508.592 68.272 508.912 68.752C509.243 69.2213 509.616 69.4613 510.032 69.472Z" fill="white"/>
</svg>
