<svg xmlns="http://www.w3.org/2000/svg" width="508" height="505" fill="none" xmlns:v="https://vecta.io/nano"><style><![CDATA[.B{fill-rule:evenodd}.C{fill:#3048cb}.D{fill:#fff}.E{fill:#d8e6ff}.F{fill:#fff1c6}.G{fill:#8796a6}.H{fill:#ffdd71}.I{fill:#aff5df}]]></style><g class="B"><path d="M393.385 224.534c.356-.285.876-.228 1.161.129s.227.876-.129 1.161l-.097.081-.064.054-.416.371-.079.073-1.801 1.828c-1.877 2.057-3.757 4.563-5.513 7.529-3.43 5.792-5.958 12.599-7.203 20.461-1.541 9.723-1.033 20.575 1.91 32.595.109.443-.162.89-.605.999s-.891-.163-.999-.606c-2.995-12.231-3.514-23.304-1.938-33.247 1.279-8.073 3.88-15.077 7.413-21.044 1.816-3.066 3.763-5.662 5.714-7.801.637-.698 1.232-1.301 1.774-1.81l.124-.116a14.84 14.84 0 0 1 .748-.657z" class="E"/><path d="M384.896 277.968c-.633-.551-.936-1.349-.853-2.175 1.735-15.972 8.95-32.413 20.185-38.444 11.539-6.196 19.415 11.016 3.415 26.988-12.034 12.034-18.478 13.989-20.929 14.237a2.44 2.44 0 0 1-1.818-.606h0z" fill="#fee0e0"/><g class="E"><path d="M359.577 274.282c4.737.408 8.477 3.005 11.316 7.041 1.075 1.528 1.944 3.161 2.628 4.793.213.509.395.986.546 1.422l.056.162c.098.291.163.503.196.623.122.44-.136.895-.576 1.017-.424.117-.862-.118-1.002-.529l-.053-.178-.046-.148-.085-.257c-.15-.443-.336-.938-.56-1.473-.64-1.529-1.455-3.059-2.456-4.481-2.58-3.67-5.914-5.985-10.106-6.346-.455-.039-.791-.439-.752-.894.038-.438.411-.767.845-.755l.049.003zm54.597-36.112c.31.309.323.804.038 1.128l-.061.065-.324.329-.302.31-.449.465-.244.255-3.558 3.837c-3.682 4.079-7.365 8.47-10.8 13.006-4.09 5.399-7.55 10.639-10.178 15.578-.834 1.567-1.579 3.094-2.231 4.579-.183.418-.67.608-1.088.425s-.608-.671-.425-1.088c.669-1.525 1.432-3.09 2.285-4.693 2.674-5.024 6.181-10.335 10.32-15.799 3.466-4.576 7.178-9.004 10.891-13.115l.454-.502 2.943-3.168.558-.583.544-.561.459-.467c.322-.323.845-.324 1.168-.001z"/><path d="M407.976 259.949l.283-.014 1.404-.035.375.005c.456.015.813.397.798.853-.014.44-.37.788-.804.798l-.129-.002a27.22 27.22 0 0 0-1.838.045l-3.814.384c-3.743.542-7.526 1.552-11.148 3.139-.418.183-.905-.007-1.088-.425s.007-.905.425-1.088c3.768-1.651 7.692-2.699 11.574-3.261 1.415-.205 2.744-.333 3.962-.399zm-7.256-19.907c.398.223.541.726.319 1.124l-.193.35-.205.38-.269.502-.789 1.506-3.213 6.65-2.166 5.207-.158.422c-1.666 4.48-2.492 8.078-2.269 10.416.043.454-.29.857-.744.901s-.858-.29-.901-.744c-.261-2.735.672-6.682 2.527-11.581a97.04 97.04 0 0 1 2.204-5.297 138.09 138.09 0 0 1 3.251-6.731l.311-.6.672-1.269.299-.553.2-.364c.222-.398.725-.541 1.124-.319zm-4.011 29.859l2.936-.116.262.005c.456.017.813.4.796.856-.016.44-.373.786-.807.796l-.162-.003c-.735-.014-1.729.011-2.886.108-1.745.147-3.467.43-5.069.88-1.509.423-2.847.977-3.969 1.672-.387.241-.897.121-1.137-.266s-.121-.897.267-1.138c1.264-.784 2.743-1.397 4.393-1.859 1.712-.48 3.534-.78 5.376-.935z"/></g><path d="M370.632 263.374c-.854.606-1.845.689-2.616.275-15.064-8.289-27.786-23.765-27.979-40.453-.22-17.157 21.094-20.764 28.777 5.838 5.783 20.02 4.406 29.025 3.36 32.247-.303.826-.854 1.597-1.542 2.093h0z" fill="#fee0e0"/><g class="E"><path d="M345.176 212.118c.217-.401.718-.551 1.119-.334 7.068 3.821 12.773 12.72 17.323 25.165 2.145 5.865 3.891 12.143 5.27 18.419l.158.726c.362 1.681.675 3.264.942 4.724l.112.618.29 1.704.095.61c.067.451-.246.871-.697.937s-.871-.246-.937-.697l-.076-.488-.065-.398-.204-1.191-.033-.188c-.322-1.81-.721-3.828-1.198-6.002-1.365-6.21-3.092-12.418-5.209-18.207-4.423-12.096-9.938-20.7-16.556-24.278-.402-.217-.551-.719-.334-1.12z"/><path d="M340.137 225.418c.188-.416.677-.601 1.093-.414 3.373 1.518 7.229 3.407 10.974 5.491l.483.27c5.273 2.966 9.33 5.795 11.672 8.371.307.338.282.86-.056 1.167s-.86.282-1.167-.055c-2.26-2.486-6.374-5.326-11.735-8.309-3.699-2.058-7.515-3.928-10.849-5.428-.416-.187-.602-.676-.415-1.093zm27.691 2.572a.83.83 0 0 1 .9.746c.358 3.839.541 7.549.454 10.794l-.012.401c-.143 4.166-.737 7.166-1.957 8.769-.276.363-.794.434-1.157.157s-.434-.794-.158-1.157c1.833-2.41 2.031-9.754 1.184-18.81a.83.83 0 0 1 .746-.9zm-20.75 16.496c.287-.354.807-.409 1.162-.122 1.911 1.548 4.735 3.188 8.221 4.854l7.696 3.298.454.175 1.693.636.717.259.629.222c.432.148.661.618.514 1.05a.83.83 0 0 1-1.004.528l-.146-.049-.346-.122-.311-.111-.621-.226-2.177-.821-7.81-3.349-.475-.228c-3.376-1.639-6.133-3.259-8.074-4.832-.355-.287-.409-.807-.122-1.162z"/></g><g class="F"><path d="M361.186 270.813c.315-2.321-.04-4.285-.794-4.387s-1.62 1.696-1.934 4.017.041 4.285.794 4.388 1.62-1.697 1.934-4.018z"/><path d="M359.269 274.823c.445-.539-.526-2.075-2.168-3.43s-3.335-2.016-3.78-1.477.525 2.076 2.168 3.431 3.335 2.016 3.78 1.476z"/><path d="M363.643 274.015c2.048-1.073 3.416-2.5 3.056-3.187s-2.312-.374-4.36.699-3.415 2.5-3.055 3.187 2.312.374 4.359-.699z"/><path d="M356.502 277.767c1.867-1.024 3.107-2.351 2.771-2.965s-2.122-.28-3.989.743-3.108 2.351-2.772 2.965 2.123.28 3.99-.743z"/><path d="M362.509 281.875c.636-.29.431-2.108-.459-4.059s-2.128-3.297-2.765-3.006-.431 2.107.46 4.058 2.127 3.297 2.764 3.007zm34.652-58.85c1.542-2.693 1.732-5.482.426-6.23s-3.616.827-5.158 3.52-1.733 5.482-.426 6.23 3.615-.828 5.158-3.52z"/><path d="M397.263 229.143c3.072-.063 5.537-1.346 5.506-2.867s-2.546-2.702-5.618-2.64-5.536 1.346-5.505 2.866 2.546 2.703 5.617 2.641z"/><path d="M391.618 226.608c1.087-.807.629-3.263-1.022-5.484s-3.871-3.368-4.957-2.561-.629 3.263 1.023 5.484 3.87 3.369 4.956 2.561z"/><path d="M393.621 230.983c1.127-2.528 1.051-5.02-.172-5.565s-3.127 1.062-4.255 3.59-1.051 5.019.172 5.565 3.127-1.062 4.255-3.59z"/><path d="M389.722 228.707c2.465-.266 4.356-1.474 4.224-2.699s-2.237-2.002-4.702-1.736-4.356 1.474-4.224 2.699 2.238 2.002 4.702 1.736z"/></g><path d="M402.907 291.271l-10.19 46.154H360.36l-10.189-46.154c-.578-2.644 1.074-5.232 3.332-5.232h46.099c2.258.027 3.91 2.616 3.305 5.232z" class="D"/><path d="M399.612 285.212h-46.109c-2.836 0-4.822 3.116-4.14 6.235l10.19 46.155c.083.379.419.649.807.649h32.357c.388 0 .723-.27.807-.649l10.189-46.154c.713-3.079-1.266-6.201-4.101-6.236zm-.011 1.652l.055.002c1.639.071 2.899 2.061 2.464 4.135l-10.067 45.597h-31.03l-10.046-45.506c-.473-2.163.842-4.228 2.526-4.228h46.098z" class="E"/><path d="M344.883 206.01c-.964-6.389-5.81-11.593-12.254-12.943l-12.2-2.616-.193.826-33.899-2.616-.358-4.791-14.292.137c-16.138 1.487-28.2 27.263-34.175 42.932l-3.305 8.702 25.17-9.555c-.083 4.709.358 9.445 1.542 13.879 6.086 22.747-5.921 29.631-5.921 29.631l-6.554 29.824-7.986-.551v39.903l85.148-.165-1.321-68.791 20.598-63.806zm-20.599 38.306v-.33l.028.33h-.028z" class="F"/><path d="M325.22 304.763l-83.964.799-.771 33.211h85.121l-.386-34.01zm-57.442-98.07c.201-.41.696-.578 1.106-.377.394.194.565.66.397 1.06l-.021.046-5.039 10.244c-.201.41-.697.578-1.106.377-.394-.194-.565-.66-.398-1.06l.021-.046 5.04-10.244z" class="E"/><path d="M325.761 168.902c.434-.142.901.094 1.043.527.708 2.156.693 4.869-.073 7.536-1.484 5.164-5.342 8.695-8.876 7.787-.442-.113-.708-.564-.594-1.006s.563-.708 1.005-.594c2.476.636 5.609-2.232 6.877-6.643.678-2.361.691-4.738.091-6.564a.83.83 0 0 1 .527-1.043zm-41.858-6.91c.433-.143.9.093 1.043.527.708 2.155.692 4.869-.074 7.536-1.483 5.163-5.342 8.694-8.875 7.787-.442-.114-.708-.564-.595-1.006s.564-.708 1.006-.595c2.475.636 5.609-2.232 6.876-6.643.678-2.361.692-4.738.092-6.564-.142-.433.094-.9.527-1.042z" class="F"/><path d="M327.919 134.136c-5.865-5.618-6.912-31.228 12.806-45.768 19.965-14.705 32.522 4.571 35.221 9.583s3.552 17.9-13.356 27.814-27.979 14.76-34.671 8.371z" class="E"/><path d="M317.097 143.995l.358.302c2.203 1.873 5.618 1.625 7.601-.523l5.59-6.003c2.01-2.148 1.845-5.398-.358-7.27l-.358-.303c-2.203-1.873-5.618-1.625-7.601.523l-5.59 6.003c-2.01 2.176-1.845 5.426.358 7.271z" class="F"/><g class="E"><path d="M306.154 151.943c7.307-7.036 9.767-16.337 5.495-20.774s-13.659-2.329-20.966 4.707-9.767 16.336-5.495 20.773 13.659 2.33 20.966-4.706z"/><path d="M302.667 151.705c5.838 8.152 13.686 12.062 20.323 11.897 7.05-.166 12.172-15.422 6.334-23.573s-21.756-13.494-27.263-9.804c-5.508 3.718-5.233 13.329.606 21.48z"/></g><path d="M325.1 168.923c3.165-1.037 4.933-4.315 3.948-7.321s-4.349-4.603-7.514-3.566-4.933 4.315-3.948 7.321 4.349 4.603 7.514 3.566z" class="D"/><path d="M321.277 157.252c-3.59 1.176-5.606 4.913-4.476 8.363s4.967 5.269 8.557 4.093 5.605-4.913 4.475-8.363-4.966-5.269-8.556-4.093zm.514 1.568c2.74-.898 5.632.475 6.472 3.038s-.68 5.381-3.42 6.278-5.633-.474-6.472-3.038.679-5.38 3.42-6.278z" class="E"/><path d="M284.256 161.679c3.166-1.037 4.933-4.315 3.948-7.321s-4.349-4.603-7.514-3.566-4.933 4.314-3.948 7.321 4.349 4.602 7.514 3.566z" class="D"/><path d="M280.433 150.008c-3.59 1.176-5.606 4.913-4.476 8.362s4.967 5.27 8.557 4.094 5.606-4.914 4.476-8.363-4.967-5.27-8.557-4.093zm.514 1.568c2.741-.898 5.633.475 6.472 3.038s-.679 5.381-3.42 6.278-5.632-.474-6.472-3.038.68-5.38 3.42-6.278z" class="E"/><path d="M295.204 176.931l-2.699 8.151-7.325-.468c-.716 1.019-6.747 20.323 11.703 23.022 12.117 1.79 20.571-7.077 26.437-15.697l-10.079-2.175 6.664-23.187-24.701 10.354z" class="D"/><path d="M294.884 176.169l-.049.023c-.196.098-.346.27-.415.479l-2.499 7.546-6.688-.427c-.288-.019-.564.114-.729.349-.334.475-.862 2.161-1.204 3.969-.468 2.475-.603 5.049-.275 7.497.922 6.879 5.249 11.607 13.739 12.848 5.865.867 11.222-.612 16.158-4.086 3.996-2.814 7.563-6.793 11.081-11.963l.027-.042c.288-.48.021-1.11-.535-1.23l-9.216-1.99 6.421-22.337a.83.83 0 0 0-1.114-.99l-24.702 10.354zm23.752-8.166l-6.188 21.532-.013.047c-.1.444.181.891.632.988l8.87 1.915-.019.028c-3.181 4.514-6.407 8.009-9.947 10.502-4.605 3.242-9.542 4.604-14.966 3.803-7.735-1.132-11.514-5.262-12.342-11.434-.302-2.256-.177-4.658.261-6.97l.019-.099a22.64 22.64 0 0 1 .695-2.699l.05-.143 6.765.433.051.001c.354.001.673-.226.786-.566l2.58-7.795 22.766-9.543z" class="E"/><path d="M320.956 164.45c4.13-12.89-.647-25.943-10.67-29.154s-21.495 4.635-25.625 17.526.647 25.943 10.67 29.154 21.495-4.636 25.625-17.526z" class="D"/><g class="E"><path d="M283.874 152.568c-4.257 13.288.698 26.827 11.205 30.193s22.407-4.773 26.664-18.06-.698-26.827-11.205-30.193-22.407 4.773-26.664 18.06zm1.574.504c4.002-12.493 15.048-20.047 24.586-16.991s14.138 15.622 10.135 28.115-15.047 20.047-24.586 16.991-14.138-15.622-10.135-28.115zm13.976-.053c.172-.422.654-.625 1.076-.453.408.165.611.62.471 1.031l-.017.045-3.742 9.194 3.274.529c.434.07.734.467.69.899l-.006.049a.83.83 0 0 1-.9.69l-.048-.007-3.574-.577c-.869-.134-1.387-1.031-1.1-1.872l.02-.055 3.856-9.473zm6.659-4.914c1.891-1.296 3.868-.973 5.649.294.329.233.625.483.885.733l.343.356c.297.346.257.868-.089 1.165a.83.83 0 0 1-1.13-.051l-.085-.093-.184-.186c-.204-.196-.439-.394-.697-.577-1.276-.907-2.539-1.114-3.758-.278-.377.258-.891.162-1.149-.215s-.161-.89.215-1.148zm-11.884-2.326c1.024-.171 2.084-.02 3.114.329.438.149.775.3.978.408.403.214.556.714.342 1.117a.83.83 0 0 1-1.073.364l-.097-.049-.091-.042-.038-.017-.552-.216c-.794-.269-1.597-.383-2.311-.264-.736.123-1.338.486-1.811 1.163-.261.374-.776.465-1.15.204s-.466-.776-.205-1.15c.735-1.052 1.732-1.653 2.894-1.847zm14.097 11.834c.115-1.196-.442-2.228-1.244-2.305s-1.546.83-1.661 2.026.442 2.228 1.244 2.305 1.546-.83 1.661-2.026zm-13.514-1.077c.24-1.177-.206-2.262-.996-2.423s-1.625.664-1.864 1.841.207 2.262.996 2.423 1.625-.664 1.864-1.841z"/><path d="M317.62 136.946s-7.6 3.139-7.132 7.958l-32.413-2.12s-3.359-24.592 35.387-12.833l4.158 6.995z"/><path d="M315.362 138.02s-2.562 16.109 7.848 20.516l.193-14.265-8.041-6.251z"/></g><path d="M272.38 166.457c1.515-5.23 5.471-8.79 9.012-7.75.438.128.688.587.56 1.025s-.588.689-1.026.56c-2.462-.723-5.666 2.161-6.959 6.625-1.278 4.41-.138 8.518 2.278 9.28l.036.011.067.017.034.01.01.002c.35.082.614.386.635.756l.001.048c0 .456-.369.826-.826.826-.095 0-.167-.013-.242-.033l-.051-.015-.043-.011c-3.512-.999-4.97-6.027-3.531-11.195l.045-.156zm41.858 6.911c1.516-5.23 5.471-8.79 9.012-7.75.438.128.689.587.56 1.025s-.587.689-1.025.56c-2.462-.723-5.667 2.161-6.96 6.625-1.278 4.41-.138 8.518 2.278 9.28l.036.011.068.017.033.01.01.002c.35.082.614.386.635.756l.002.048c0 .457-.37.826-.826.826-.096 0-.167-.012-.243-.033l-.051-.015-.042-.011c-3.513-.998-4.971-6.027-3.531-11.194l.044-.157z" class="F"/><path d="M307.357 166.086c.134-.436.597-.68 1.033-.546s.68.596.546 1.032c-.802 2.609-2.6 4.23-5.039 5.009-1.615.516-3.3.612-4.812.469l-.206-.021-.284-.038c-.451-.074-.756-.499-.682-.949.072-.434.469-.733.901-.688l.169.024.257.027c1.309.124 2.784.04 4.155-.398 1.953-.623 3.33-1.866 3.962-3.921z" class="E"/></g><path stroke="#d8e6ff" stroke-width="1.996" stroke-linecap="round" stroke-linejoin="round" d="M411.242 339.382H213.671"/><g filter="url(#C)"><rect x="90.938" y="237.713" width="211.286" height="106.445" rx="2.14" transform="rotate(353.033 90.938 237.713)" class="D"/><g clip-path="url(#D)"><path d="M135.529 248.407l.966-4.742 1.109-.135 2.06 4.371-.879.108-.501-1.084-1.739.213-.219 1.171-.797.098zm1.554-4.109l-.416 2.198 1.344-.164-.928-2.034zm3.232 3.524l-.596-4.874.771-.094.596 4.874-.771.094zm1.844-.226l-.336-2.752-.452.055-.071-.579.452-.056-.054-.446c-.09-.732.263-1.177.97-1.263.192-.023.302-.017.428.006l.073.599c-.094-.027-.191-.029-.331-.011-.306.037-.408.256-.373.543l.058.478.758-.093.071.58-.758.093.336 2.752-.771.094zm2.009-4.183c-.255.031-.482-.135-.513-.384a.45.45 0 0 1 .404-.502.45.45 0 0 1 .514.39c.03.249-.15.465-.405.496zm.098 3.926l-.407-3.332.771-.094.407 3.332-.771.094zm3.184-.324c-.981.12-1.767-.438-1.896-1.489l-.006-.051c-.126-1.032.497-1.807 1.446-1.923.829-.101 1.634.299 1.78 1.49l.027.223-2.44.298c.102.628.464.946 1.038.876.465-.057.684-.271.702-.603l.746-.091c-.023.714-.543 1.165-1.397 1.27zm-1.14-1.969l1.663-.203c-.108-.569-.432-.788-.91-.73-.465.057-.739.407-.753.933zm5.722 1.344l-1.691-4.417.866-.106 1.199 3.249.477-3.454.701-.085 1.316 3.253.404-3.464.79-.096-.584 4.695-.847.103-1.304-3.209-.518 3.432-.809.099zm6.462-.725c-.981.12-1.79-.473-1.914-1.486l-.007-.051c-.126-1.032.523-1.81 1.504-1.93.975-.119 1.791.473 1.916 1.493l.006.05c.127 1.039-.523 1.804-1.505 1.924zm-.066-.6c.573-.07.865-.539.782-1.221l-.006-.044c-.084-.688-.479-1.067-1.053-.997s-.873.527-.789 1.215l.006.051c.084.682.473 1.068 1.06.996zm3.961.124c-.981.12-1.79-.473-1.914-1.486l-.006-.051c-.127-1.032.522-1.81 1.503-1.93.975-.119 1.791.473 1.916 1.493l.006.05c.127 1.039-.523 1.804-1.505 1.924zm-.066-.6c.573-.07.865-.539.782-1.221l-.006-.044c-.084-.688-.479-1.067-1.053-.997s-.873.527-.789 1.215l.006.051c.084.682.473 1.068 1.06.996zm3.726.153c-.835.102-1.538-.414-1.671-1.497l-.006-.051c-.13-1.064.418-1.816 1.285-1.922.542-.066.91.141 1.135.449l-.251-2.051.771-.094.596 4.874-.771.094-.069-.561c-.138.353-.529.699-1.019.759zm.116-.635c.535-.066.887-.471.796-1.216l-.007-.051c-.089-.733-.471-1.055-1.032-.986-.567.069-.85.504-.762 1.224l.006.051c.09.733.502 1.038.999.978z" fill="#1f2539"/></g><g clip-path="url(#E)" class="G"><path d="M178.812 243.117l-.501-4.103-1.325.162-.055-.452 3.204-.392.056.452-1.326.162.502 4.103-.555.068zm3.508-.37c-.95.116-1.719-.521-1.839-1.496l-.006-.051c-.122-1 .487-1.786 1.43-1.901s1.722.494 1.844 1.495l.007.051c.123 1.006-.487 1.786-1.436 1.902zm-.048-.441c.669-.081 1.028-.636.936-1.388l-.005-.044c-.094-.771-.582-1.216-1.245-1.135s-1.028.63-.935 1.394l.006.051c.093.759.568 1.205 1.243 1.122zm3.765-.014c-.872.107-1.579-.434-1.706-1.472l-.006-.051c-.124-1.02.425-1.818 1.342-1.93.554-.067.931.158 1.162.46l-.26-2.128.529-.065.602 4.925-.529.065-.07-.574c-.152.349-.579.711-1.064.77zm.004-.446c.618-.076 1.052-.543.948-1.396l-.006-.051c-.104-.854-.561-1.206-1.211-1.126-.663.081-1.001.594-.902 1.403l.006.051c.103.841.604 1.187 1.165 1.119zm3.571.01c-.619.075-1.146-.164-1.229-.846-.094-.771.689-1.132 1.543-1.236l.478-.059-.03-.242c-.064-.529-.295-.727-.805-.664-.459.056-.69.278-.691.692l-.529.065c-.023-.767.548-1.121 1.192-1.2.637-.078 1.249.112 1.362 1.043l.269 2.198-.529.064-.051-.42a1.21 1.21 0 0 1-.98.605zm-.001-.427c.561-.069.953-.407.89-.924l-.051-.414-.459.056c-.669.082-1.139.308-1.079.798.042.344.234.541.699.484zm2.947 1.185l.448-1.58-1.672-2.829.567-.069 1.312 2.264.632-2.502.541-.066-1.292 4.717-.536.065z"/></g><path d="M268.21 231.038c-1.564.191-3.081-.462-4.551-1.959 1.066-1.806 2.381-2.805 3.945-2.997s3.081.462 4.55 1.959c-1.065 1.807-2.38 2.806-3.944 2.997zm-.13-1.062c.782-.095 1.338-.807 1.243-1.589a1.43 1.43 0 0 0-1.589-1.243c-.782.096-1.339.807-1.243 1.589s.807 1.339 1.589 1.243z" class="B G"/><circle cx="124.352" cy="246.564" r="6.419" transform="rotate(353.033 124.352 246.564)" fill="#ffc2c2"/><mask id="A" maskUnits="userSpaceOnUse" x="117" y="240" width="14" height="13" mask-type="alpha"><circle cx="124.352" cy="246.564" r="6.419" transform="rotate(353.033 124.352 246.564)" fill="#ffc2c2"/></mask><g mask="url(#A)" class="B"><path d="M122.233 249.328l-.072 2.032-.893.924s1.631 1.897 3.561 2.137c.655.082 1.633-.214 1.89-.819.247-.582.256-1.366.204-2.29-.028-.465-4.69-1.984-4.69-1.984z" class="D"/><path d="M122.126 249.325l-.072 1.991-.864.894c-.039.04-.041.103-.004.145l.02.024.023.025.053.057.27.274a8.45 8.45 0 0 0 .971.81c.75.534 1.522.887 2.292.983.78.097 1.744-.278 2.003-.884.227-.538.274-1.216.212-2.338-.016-.254-.686-.588-1.983-1.092l-.11-.043-.343-.13-1.506-.538-.096-.033-.494-.167-.232-.077c-.068-.022-.138.027-.14.099zm.142 2.04l.067-1.89.127.043.461.155.191.066 1.314.47.09.033.397.151.121.047 1.234.53.02.01c.177.088.314.167.407.233.046.033.079.061.1.085.008.008.013.015.016.021l.002.004h0l.005.093c.053 1.031.005 1.661-.2 2.144-.214.504-1.084.842-1.778.755-.73-.091-1.471-.43-2.195-.945-.345-.246-.663-.516-.946-.789l-.244-.247-.043-.046.824-.853c.018-.019.029-.044.03-.07z" class="C"/><path d="M127.278 244.485c-.518-1.675-2.612-1.192-2.917-1.115-2.81.704-2.652 3.119-2.548 3.788l-.123.029.076.298c-.359.134-.987.506-.658 1.4.248.677.779.677 1.202.542l.26.708c.296.598.48.857 1.401 1.311s2.725.435 3.396-.686c.62-1.039.468-2.751.445-3.001-.048-.957-.193-2.173-.534-3.274z" class="D"/><path d="M124.86 243.17c-.193.023-.359.055-.502.09l-.022.006c-1.288.323-2.074 1.019-2.441 1.973l-.012.031a3.78 3.78 0 0 0-.192 1.789l.002.017-.027.007c-.056.014-.091.069-.081.124l.003.011.045.178.006.024-.01.005c-.216.096-.404.23-.536.412-.206.284-.247.647-.085 1.085l.007.02c.223.584.663.755 1.204.622l.021-.005.02.063.214.56.02.041c.335.665.583.902 1.43 1.319.497.244 1.204.346 1.855.258.745-.101 1.351-.433 1.681-.984.284-.477.433-1.113.478-1.845a7.69 7.69 0 0 0 .009-.787l-.001-.029-.023-.362-.003-.041v.002c-.059-1.158-.233-2.312-.538-3.301-.243-.785-.828-1.188-1.628-1.289a3.62 3.62 0 0 0-.894.006zm.027.213c.286-.035.571-.04.84-.006.723.091 1.234.444 1.45 1.14.299.969.471 2.106.529 3.248v.004l.004.043.023.38-.008.765c-.044.701-.186 1.307-.449 1.748-.293.489-.84.789-1.525.882-.61.083-1.274-.013-1.732-.237l-.049-.025c-.782-.389-.986-.598-1.303-1.238l-.01-.02a6.12 6.12 0 0 1-.243-.672c-.018-.057-.079-.088-.135-.07-.506.161-.878.044-1.069-.477-.138-.373-.106-.661.057-.885.123-.17.315-.294.538-.378.051-.019.08-.074.066-.127l-.049-.191.017-.004c.054-.013.09-.066.081-.121a3.59 3.59 0 0 1 .176-1.826c.339-.88 1.058-1.523 2.256-1.833l.037-.009c.14-.035.304-.068.498-.091z" class="C"/><path d="M128.882 247.066c-.094-.566-.509-.977-1.017-1.152-.035.069-.078.132-.119.18.107.784.221 2.216.204 2.64l.099-.044c.003.256-.04.557-.203.789-.141.201-.353.328-.644.393a.37.37 0 0 0-.253-.063c-.203.025-.343.208-.318.407s.207.342.406.318c.1-.012.184-.062.24-.134.444-.087.779-.294 1.004-.613.346-.497.322-1.14.271-1.501a1.51 1.51 0 0 0 .33-1.22z" class="I"/><path d="M126.263 247.055c.055-.015.113.015.131.068l.002.006.465 1.62c.02.071-.034.139-.106.137h-.006l-.609-.052c-.059-.005-.103-.057-.098-.116s.054-.1.11-.098h.006l.454.039-.422-1.471c-.016-.055.014-.112.067-.131l.006-.002z" class="C"/><path d="M127.071 247.395c.094-.016.15-.146.126-.29s-.119-.249-.213-.233-.15.145-.126.29.12.248.213.233z" class="C"/><path d="M125.403 247.591c.094-.016.15-.145.126-.29s-.119-.248-.213-.233-.15.146-.126.29.12.249.213.233z" class="C"/><path d="M124.215 246.289c.185-.149.417-.226.693-.187.059.008.099.063.091.121s-.063.1-.121.092c-.213-.031-.387.028-.529.141-.033.027-.061.055-.085.082l-.008.009-.015.02-.002.001c-.033.049-.1.062-.149.029s-.062-.1-.028-.149l.006-.009c.008-.011.019-.026.035-.043.031-.036.068-.072.112-.107z" class="C"/><path d="M126.344 245.745a.75.75 0 0 1 .306-.036.48.48 0 0 1 .398.275c.026.053.005.118-.048.144s-.118.005-.144-.048a.27.27 0 0 0-.228-.158c-.07-.007-.147.005-.219.028l-.013.004-.021.008-.009.004c-.055.024-.118-.001-.142-.055s0-.118.054-.142l.011-.004a.53.53 0 0 1 .055-.02z" class="C"/><path d="M126.244 249.505c-.446.628-.796.159-1.086-.181-.075-.085-.005-.219.108-.204.477.064 1.129.172.978.385z" class="C"/><path d="M127.777 243.847c-.207-.336-.421-.41-.603-.388a1.61 1.61 0 0 0-.055-.188 2.11 2.11 0 0 0-1.137-1.221h0s-.683-.569-2.564-.202-1.801 1.464-1.801 1.464h0c-.792.688-1.328 1.497-1.299 2.124.083 1.768.874 2.101 1.188 2.163l.091-.05.037.064c1.187-.229 1.045-1.924 1.326-2.781.029-.09.131-.139.219-.099.57.237 1.307.244 2.149.023.912-.242 1.274-.726 1.417-1.09.008.006.013.013.02.016.009.01.02.015.029.025l.036.035c.005.007.012.01.017.016s.012.013.021.023.012.013.02.019.012.013.02.019.013.017.021.023.013.013.017.02l.021.026.014.02c.008.01.016.02.021.03s.009.01.013.016.017.023.022.034l.036.057a1.87 1.87 0 0 1 .198.437c.167.546.288 1.119.373 1.671.022.001.046-.009.065-.029.351-.346.562-1.483.068-2.277z" class="C"/><path d="M123.185 246.633c-.063.005-.107.063-.097.125.086.516.219.908.429 1.188.256.342.617.5 1.093.45.852-.113 1.308-.489 1.437-1.036.046-.192.047-.392.016-.589-.011-.071-.026-.136-.043-.196l-.006-.023-.02-.062-.004-.009c-.017-.045-.061-.073-.109-.069l-2.696.221zm.135.205l2.493-.205v-.001c.015.053.028.111.037.172.027.172.027.344-.012.507-.108.456-.489.771-1.254.871-.71.076-1.08-.378-1.263-1.337l-.001-.007z" class="H"/><path d="M123.137 246.652c.051-.031.117-.015.148.035s.016.112-.03.145l-.005.003-.681.419c-.051.031-.117.015-.148-.035s-.016-.112.03-.145l.005-.003.681-.419z" class="H"/><path d="M126.352 246.992c.059-.008.113.033.122.092s-.03.109-.085.12l-.007.001-.375.053c-.059.009-.113-.032-.122-.091s.03-.109.085-.12l.007-.001.375-.054z" class="H"/><path d="M128.591 246.016l-2.378.374c-.061.009-.102.068-.089.128l.005.02.012.047.052.166c.061.171.139.34.24.496.301.467.729.717 1.292.631.474-.071.751-.212.891-.449.108-.183.126-.361.11-.767l-.009-.222-.002-.315c.001-.067-.058-.119-.124-.109zm-2.227.567l2.134-.335v.037l.009.276.005.108c.014.364-.002.516-.081.651-.101.171-.322.283-.738.346-.47.072-.821-.134-1.08-.536a2.17 2.17 0 0 1-.217-.45l-.007-.021-.02-.059-.005-.017z" class="H"/><path d="M123.193 248.23c-.085-.512-.42-.922-.857-1.132l-.671-4.019-.127.023a.63.63 0 0 0-.515.719l.525 3.139-.118.014a1.53 1.53 0 0 0-1.256 1.759 1.53 1.53 0 1 0 3.019-.503z" class="I"/><path d="M121.261 247.623c.394-.049.764.267.838.72.074.463-.194.896-.6.967a.31.31 0 0 1-.032.004c-.394.048-.765-.267-.838-.72-.075-.463.193-.896.6-.967a.31.31 0 0 1 .032-.004m-.027-.214h0l-.042.005c-.52.089-.867.636-.775 1.213.09.566.564.959 1.076.896l.042-.005c.52-.089.868-.636.776-1.213-.091-.566-.565-.959-1.077-.896h0z" class="D"/></g><path d="M104.472 244.94c1.165-.142 2.205.068 3.12.63s1.429 1.314 1.544 2.258c.114.929-.2 1.765-.94 2.506s-1.7 1.185-2.88 1.329c-.634.078-1.197.064-1.689-.041l-.271-.011c-.088.01-1.593.732-1.593.732-.176.084-.293-.001-.259-.206l.198-1.2c-.01-.088-.17-.293-.17-.293-.511-.507-.808-1.099-.891-1.778-.115-.944.203-1.798.955-2.564s1.711-1.219 2.876-1.362zm-1.202 5.963c.08-.01.147-.009.253-.003l.036.002.132.01.085.013c.409.087.894.099 1.454.03 1.026-.125 1.838-.5 2.461-1.124.591-.592.823-1.212.737-1.916-.088-.721-.474-1.286-1.21-1.738-.773-.475-1.651-.652-2.659-.529s-1.818.507-2.454 1.154c-.605.616-.844 1.258-.756 1.978.063.517.286.962.685 1.357l.06.068c.031.039.071.094.113.158l.047.073a.98.98 0 0 1 .156.415l-.011.252-.023.141-.003.021c.668-.313.742-.343.897-.362zm-.222-2.915c-.024-.196.115-.373.31-.397l2.835-.346c.191-.023.371.115.395.311s-.114.373-.309.397l-2.835.346c-.191.024-.372-.115-.396-.311zm.173 1.416c-.024-.197.118-.373.315-.397l1.054-.129a.36.36 0 0 1 .401.31c.024.197-.117.374-.315.398l-1.053.128a.36.36 0 0 1-.402-.31z" class="B G"/><path d="M282.174 228.356a1.07 1.07 0 0 1-1.192-.932 1.07 1.07 0 0 1 .932-1.191 1.07 1.07 0 0 1 1.192.932 1.07 1.07 0 0 1-.932 1.191zm6.371-.778a1.07 1.07 0 0 1-1.191-.932 1.07 1.07 0 0 1 .932-1.192 1.07 1.07 0 0 1 1.192.932 1.07 1.07 0 0 1-.933 1.192zm-3.185.389a1.07 1.07 0 0 1-1.192-.932 1.07 1.07 0 0 1 .932-1.192 1.07 1.07 0 0 1 1.192.932 1.07 1.07 0 0 1-.932 1.192z" class="B G"/><path d="M127.156 271.454l-.282-2.304-2.13-2.795 1.093-.134 1.466 2.054.898-2.343.966-.118-1.296 3.222.281 2.297-.996.121zm4.475-.471c-1.145.14-2.09-.552-2.234-1.734l-.007-.059c-.148-1.205.609-2.112 1.754-2.252 1.137-.139 2.089.552 2.235 1.741l.007.06c.148 1.212-.611 2.104-1.755 2.244zm-.078-.7c.669-.082 1.009-.629.912-1.424l-.006-.052c-.098-.803-.56-1.244-1.229-1.163s-1.019.615-.92 1.418l.007.06c.097.795.552 1.245 1.236 1.161zm4.191.197c-.766.094-1.392-.275-1.518-1.308l-.304-2.49.899-.11.292 2.386c.071.587.349.825.87.761a.87.87 0 0 0 .793-1.04l-.283-2.312.9-.109.475 3.887-.899.11-.075-.609c-.147.402-.518.757-1.15.834z" fill="#000"/><circle cx="112.081" cy="269.618" r="8.558" transform="rotate(353.033 112.081 269.618)" class="I"/><mask id="B" maskUnits="userSpaceOnUse" x="103" y="261" width="18" height="18" mask-type="alpha"><circle cx="112.081" cy="269.618" r="8.558" transform="rotate(353.033 112.081 269.618)" class="I"/></mask><g mask="url(#B)"><path transform="rotate(353.033 110.503 276.547)" stroke="#3048cb" stroke-width=".535" d="M110.503 276.547h3.744v2.14h-3.744z" class="D"/><path d="M106.152 273.13c.756.319 1.615-.006 1.918-.726s-.063-1.562-.82-1.881-1.615.006-1.919.726.064 1.562.821 1.881z" class="B D"/><path d="M107.344 270.304c-.875-.369-1.875.009-2.231.853s.072 1.824.947 2.193 1.876-.01 2.231-.853-.072-1.825-.947-2.193zm-.185.439c.637.269.944.972.693 1.568s-.969.868-1.607.6-.944-.973-.693-1.569.97-.868 1.607-.599z" class="B C"/><path d="M116.34 272.181c.756.319 1.615-.007 1.919-.727s-.064-1.561-.82-1.88-1.616.006-1.919.726.064 1.562.82 1.881z" class="B D"/><path d="M117.531 269.354c-.875-.369-1.875.01-2.231.853s.072 1.824.948 2.193 1.875-.009 2.231-.853-.072-1.824-.948-2.193zm-.185.439c.638.269.945.973.693 1.569s-.969.867-1.606.599-.944-.972-.693-1.569.969-.867 1.606-.599z" class="B C"/><path d="M113.207 276.915c2.531-.586 3.973-3.696 3.22-6.946s-3.416-5.409-5.947-4.822-3.973 3.696-3.22 6.946 3.415 5.409 5.947 4.822z" class="B D"/><path d="M110.425 264.914c-2.674.62-4.179 3.866-3.398 7.233s3.558 5.62 6.233 5 4.178-3.865 3.398-7.232-3.559-5.62-6.233-5.001zm.108.465c2.388-.553 4.935 1.511 5.66 4.644s-.653 6.106-3.041 6.66-4.935-1.511-5.661-4.644.653-6.106 3.042-6.66z" class="B C"/><path d="M113.665 272.977l-.006.003c-.583.333-1.333.433-2.263.136-.404-.121-.782.254-.642.652.138.411.344.784.628 1.073a1.81 1.81 0 0 0 1.443.549c.602-.034 1.036-.306 1.301-.76.198-.337.289-.747.304-1.191a.52.52 0 0 0-.765-.462zm.289.453c-.03.87-.364 1.44-1.156 1.484-.804.044-1.314-.473-1.594-1.301-.009-.026.017-.051.05-.042l.049.016c1.021.314 1.881.202 2.56-.174l.027-.015c.029-.016.064.005.064.032z" class="B C"/><path d="M112.524 269.564c.12-.038.249.026.293.142l.005.015.809 2.583c.044.141-.05.287-.194.307l-.015.001-1.07.084c-.131.01-.246-.088-.256-.219a.24.24 0 0 1 .204-.255l.015-.001.772-.061-.72-2.297a.24.24 0 0 1 .142-.294l.015-.005z" class="B C"/><path d="M109.939 268.258c.451-.228.92-.233 1.331.107.102.083.116.234.032.335s-.234.116-.335.033c-.245-.203-.516-.2-.813-.05a1.54 1.54 0 0 0-.235.149l-.064.054-.018.016c-.094.092-.245.09-.337-.004s-.091-.245.003-.337l.019-.018.105-.087c.094-.073.198-.141.312-.198z" class="B C"/><path d="M113.57 268.015c.48-.084.92.005 1.227.366.044.053.085.111.122.174.066.113.028.259-.086.326s-.259.028-.326-.086a.7.7 0 0 0-.074-.105c-.176-.208-.45-.263-.78-.205-.075.013-.147.031-.211.052l-.026.009-.044.016-.005.002c-.121.051-.261-.005-.312-.126s.005-.261.126-.313l.021-.008c.023-.01.055-.021.094-.034.084-.027.176-.05.274-.068z" class="B C"/><path d="M110.607 270.943c.198-.002.355-.243.351-.537s-.168-.53-.365-.527-.354.243-.351.537.168.53.365.527z" class="B C"/><path d="M114.266 270.985c.196-.023.326-.282.291-.579s-.223-.517-.419-.494-.326.282-.291.579.223.517.419.494z" class="B C"/><path d="M106.866 263.66c1.707-1.04 3.333-7.15-.648-11.7-4.024-4.611-8.072-.634-8.994.427-.914 1.063-1.809 4.127 1.731 7.413s5.955 5.045 7.911 3.86z" class="B C"/><path d="M107.177 266.136l-1.131-1.675c-.402-.601-.243-1.388.36-1.754l.103-.06c.606-.374 1.423-.185 1.836.411l1.131 1.675-2.299 1.403z" class="B H"/><path d="M118.248 267.655s1.25-5.544-7.565-3.965c-1.411.156-3.103.978-4.135 2.199-1.598 1.888-1.491 5.788.234 5.971a4.02 4.02 0 0 0 .429.026l-.055-.299a8.24 8.24 0 0 1-.097-1.059c2.291-.975 2.271-4.303 2.254-4.612.516.373 1.053.858.92 1.604l5.18.087c.539.831.927 1.814 1.1 2.896.004.01.005.028.01.038.456-.713.428-1.794-.029-2.918l1.754.032z" class="B C"/></g><path d="M106.94 292.247l-.649-5.315.647-.079.649 5.315-.647.079zm3.169-.334c-.707.086-1.099-.288-1.174-.898l-.292-2.393-.558.068-.063-.521.557-.068-.108-.884.617-.076.108.885.907-.111.063.52-.906.111.285 2.334c.046.379.24.544.552.506a1.28 1.28 0 0 0 .466-.14l.063.521c-.121.06-.265.115-.517.146zm1.114-3.871l-.402-.147.469-1.657.62.196-.687 1.608zm2.779 3.41c-.929.114-1.544-.287-1.678-1.077l.602-.074c.101.455.381.715 1.006.639.587-.072.823-.304.772-.72-.05-.409-.371-.506-.987-.544-1.034-.062-1.41-.303-1.493-.979-.088-.721.573-1.179 1.182-1.254.699-.085 1.336.124 1.542.951l-.594.073c-.141-.413-.402-.57-.893-.51-.446.055-.708.313-.667.648.042.349.253.467.982.506.821.05 1.408.16 1.509.985.086.706-.339 1.241-1.283 1.356zm5.947-.727c-1.085.133-1.996-.533-2.143-1.737l-.008-.059c-.145-1.19.604-2.096 1.645-2.223.81-.099 1.614.18 1.854 1.154l-.61.074c-.172-.605-.646-.781-1.181-.715-.707.086-1.18.717-1.068 1.631l.007.06c.116.951.698 1.393 1.449 1.301.55-.067 1.009-.447.999-1.087l.572-.07c.021.85-.579 1.557-1.516 1.671zm2.633-.389l-.702-5.746.624-.077.703 5.746-.625.077zm3.486-.359c-1.1.135-1.975-.543-2.121-1.74l-.007-.059c-.144-1.174.507-2.084 1.577-2.215.9-.11 1.813.329 1.983 1.72l.025.2-2.929.358c.138.881.622 1.32 1.417 1.223.602-.074.924-.34.95-.803l.617-.075c-.038.796-.635 1.284-1.512 1.391zm-1.511-2.237l2.275-.278c-.157-.795-.613-1.064-1.252-.986-.632.077-1.003.56-1.023 1.264zm5.155 1.792c-.721.088-1.336-.191-1.433-.987-.11-.899.804-1.32 1.8-1.442l.558-.068-.035-.282c-.075-.617-.345-.848-.939-.776-.536.066-.806.325-.807.808l-.617.075c-.026-.894.64-1.307 1.391-1.399.743-.091 1.457.131 1.589 1.216l.314 2.565-.617.075-.06-.49c-.246.399-.571.635-1.144.705zm0-.498c.654-.08 1.111-.475 1.037-1.077l-.059-.483-.535.065c-.78.096-1.329.359-1.259.931.049.401.273.631.816.564zm3.033.06l-.475-3.888.616-.075.086.698c.192-.468.489-.814 1.185-.921l.071.579c-.776.133-1.244.439-1.127 1.398l.261 2.133-.617.076zm5.276.728l.522-1.844-1.95-3.3.661-.081 1.53 2.642.738-2.919.631-.077-1.507 5.503-.625.076zm4.932-1.908c-1.107.135-2.005-.607-2.144-1.745l-.008-.059c-.142-1.167.568-2.084 1.668-2.218s2.01.576 2.152 1.743l.008.06c.143 1.174-.568 2.084-1.676 2.219zm-.055-.514c.781-.095 1.199-.742 1.092-1.62l-.006-.052c-.11-.899-.679-1.418-1.452-1.323-.781.095-1.2.735-1.091 1.627l.007.059c.108.885.662 1.405 1.45 1.309zm4.244.002c-.773.095-1.405-.258-1.535-1.329l-.301-2.46.617-.075.297 2.43c.084.684.411.953 1.02.879.55-.067 1.026-.495.941-1.194l-.288-2.356.617-.076.475 3.888-.617.075-.076-.617c-.133.386-.526.759-1.15.835zm2.751-4.086l-.403-.146.469-1.657.62.196-.686 1.607zm1.827 3.459l-.475-3.888.617-.075.085.698c.192-.468.489-.814 1.185-.921l.071.579c-.776.133-1.244.439-1.127 1.398l.261 2.133-.617.076zm4.285-.456c-1.101.134-1.975-.543-2.122-1.74l-.007-.059c-.144-1.175.507-2.084 1.578-2.215.899-.11 1.813.329 1.983 1.719l.024.201-2.928.358c.137.881.621 1.319 1.416 1.222.602-.073.925-.339.951-.802l.617-.076c-.039.797-.635 1.285-1.512 1.392zm-1.511-2.237l2.275-.278c-.158-.796-.613-1.064-1.253-.986-.631.077-1.002.56-1.022 1.264zm7.703 1.48c-1.101.135-1.975-.543-2.122-1.74l-.007-.059c-.144-1.175.507-2.084 1.578-2.215.899-.11 1.813.329 1.983 1.719l.024.201-2.928.358c.137.881.621 1.32 1.416 1.223.602-.074.925-.34.951-.803l.617-.076c-.039.797-.635 1.285-1.512 1.392zm-1.511-2.237l2.275-.278c-.158-.795-.613-1.064-1.253-.986-.631.077-1.002.56-1.022 1.264zm3.611 1.913l1.146-2.17-1.532-1.729.721-.088 1.125 1.296.771-1.528.669-.081-1.061 2 1.67 1.871-.729.089-1.239-1.44-.879 1.699-.662.081zm5.776-.638c-1.085.132-1.996-.533-2.143-1.738l-.008-.059c-.145-1.189.604-2.096 1.645-2.223.81-.099 1.614.18 1.854 1.154l-.61.075c-.172-.605-.646-.781-1.181-.716-.707.086-1.18.718-1.068 1.632l.007.059c.116.952.698 1.394 1.449 1.302.55-.067 1.009-.448.999-1.088l.572-.07c.021.85-.579 1.557-1.516 1.672zm2.356-5.124c-.223.027-.431-.136-.458-.359s.136-.432.358-.459.432.136.459.359-.136.432-.359.459zm.277 4.734l-.475-3.888.617-.075.475 3.888-.617.075zm3.068-.322c-.706.086-1.099-.288-1.173-.898l-.293-2.393-.557.068-.064-.52.558-.069-.108-.884.617-.076.108.885.906-.111.064.52-.907.111.285 2.334c.047.379.24.544.553.506a1.25 1.25 0 0 0 .465-.14l.064.521c-.121.06-.265.115-.518.146zm3.053-.358c-1.1.134-1.975-.543-2.121-1.74l-.007-.06c-.144-1.174.507-2.083 1.577-2.214.9-.11 1.813.329 1.983 1.719l.025.201-2.929.358c.138.881.622 1.319 1.417 1.222.602-.073.924-.339.95-.803l.617-.075c-.038.797-.635 1.285-1.512 1.392zm-1.51-2.237l2.274-.278c-.157-.796-.613-1.064-1.252-.986-.632.077-1.003.56-1.022 1.264zm5.609 1.736c-1.019.125-1.843-.507-1.991-1.718l-.007-.06c-.145-1.189.495-2.12 1.566-2.251.646-.079 1.086.185 1.355.536l-.303-2.482.617-.076.702 5.746-.617.076-.082-.669c-.176.406-.675.829-1.24.898zm.004-.521c.721-.088 1.228-.633 1.106-1.629l-.007-.059c-.122-.996-.655-1.407-1.413-1.314-.773.094-1.168.693-1.052 1.637l.007.06c.12.981.705 1.385 1.359 1.305zm6.133-.229c-.721.088-1.337-.191-1.434-.987-.11-.899.805-1.32 1.801-1.442l.557-.068-.034-.282c-.076-.617-.345-.848-.94-.776-.535.066-.805.325-.807.808l-.617.075c-.026-.894.64-1.308 1.391-1.399.743-.091 1.457.131 1.59 1.216l.313 2.565-.617.075-.06-.49c-.245.399-.571.635-1.143.705zm-.001-.498c.654-.08 1.111-.475 1.038-1.077l-.059-.483-.535.065c-.781.095-1.33.359-1.26.931.049.401.273.631.816.564zm4.974-.11c-.632.078-1.132-.186-1.402-.545l.078.639-.617.076-.702-5.746.617-.076.307 2.513c.176-.407.662-.813 1.227-.882 1.019-.125 1.86.527 2.008 1.739l.008.059c.145 1.189-.454 2.093-1.524 2.223zm-.122-.505c.773-.095 1.125-.666 1.01-1.61l-.007-.059c-.12-.982-.723-1.406-1.377-1.326-.721.088-1.213.631-1.091 1.627l.007.06c.122.996.699 1.4 1.458 1.308zm4.462-.025c-1.107.135-2.005-.608-2.144-1.745l-.007-.059c-.143-1.167.567-2.084 1.667-2.218s2.01.576 2.152 1.743l.008.06c.143 1.174-.568 2.084-1.676 2.219zm-.055-.514c.781-.095 1.199-.743 1.092-1.62l-.006-.052c-.11-.899-.679-1.418-1.452-1.324-.78.096-1.2.736-1.091 1.628l.007.059c.108.885.662 1.405 1.45 1.309zm4.244.002c-.773.094-1.404-.258-1.535-1.329l-.301-2.46.617-.076.297 2.431c.084.684.411.953 1.02.879.55-.067 1.026-.495.941-1.194l-.288-2.356.617-.076.475 3.888-.617.075-.075-.617c-.134.386-.526.759-1.151.835zm4.278-.538c-.706.086-1.099-.288-1.173-.898l-.293-2.393-.557.068-.064-.52.558-.068-.109-.885.617-.075.109.884.906-.111.064.521-.907.11.285 2.335c.047.379.24.544.553.505a1.25 1.25 0 0 0 .465-.14l.064.521c-.121.06-.265.115-.518.146zm4.61-.563c-.707.086-1.099-.288-1.174-.898l-.292-2.393-.558.068-.063-.521.557-.068-.108-.884.617-.076.108.885.907-.111.063.52-.906.111.285 2.334c.046.379.24.544.552.506a1.28 1.28 0 0 0 .466-.14l.063.52a1.46 1.46 0 0 1-.517.147zm1.454-.231l-.703-5.746.617-.075.303 2.475c.134-.386.526-.758 1.165-.836.803-.098 1.421.271 1.56 1.401l.291 2.386-.617.075-.297-2.43c-.083-.684-.411-.953-1.035-.877-.572.07-1.041.497-.955 1.195l.288 2.357-.617.075zm6.041-.67c-1.1.134-1.975-.543-2.121-1.74l-.007-.06c-.144-1.174.507-2.083 1.577-2.214.9-.11 1.813.329 1.983 1.719l.025.201-2.929.357c.138.881.622 1.32 1.417 1.223.602-.074.924-.339.95-.803l.617-.075c-.038.797-.635 1.285-1.512 1.392zm-1.511-2.237l2.275-.278c-.158-.796-.613-1.065-1.252-.986-.632.077-1.003.56-1.023 1.264zm6.27 2.96l-.641-5.24.617-.075.08.654c.177-.407.663-.813 1.228-.882 1.018-.125 1.86.527 2.008 1.739l.007.059c.145 1.189-.454 2.093-1.524 2.223-.639.078-1.132-.186-1.402-.545l.244 1.992-.617.075zm1.653-2.027c.773-.095 1.126-.666 1.01-1.61l-.007-.059c-.12-.982-.722-1.406-1.377-1.326-.721.088-1.213.631-1.091 1.627l.007.06c.122.996.7 1.4 1.458 1.308zm2.842.105l-.476-3.888.617-.075.086.699c.192-.469.489-.814 1.185-.922l.071.58c-.776.132-1.244.438-1.127 1.397l.261 2.134-.617.075zm4.307-.458c-1.108.135-2.006-.608-2.145-1.745l-.007-.06c-.143-1.167.567-2.083 1.668-2.218s2.009.577 2.152 1.744l.007.06c.143 1.174-.568 2.083-1.675 2.219zm-.056-.514c.781-.096 1.2-.743 1.093-1.62l-.007-.052c-.11-.899-.679-1.418-1.452-1.324-.78.096-1.2.735-1.091 1.627l.007.06c.108.884.662 1.405 1.45 1.309zm2.659-4.64c-.223.027-.432-.136-.459-.359s.136-.432.359-.459.431.136.458.359-.135.431-.358.459zm-.122 6.224l-.064-.521c.434-.091.541-.33.499-.672l-.512-4.185.617-.075.505 4.133c.091.743-.187 1.184-1.045 1.32zm3.877-1.847c-1.1.134-1.975-.544-2.121-1.74l-.008-.06c-.143-1.174.508-2.084 1.578-2.215.9-.109 1.813.33 1.983 1.72l.025.2-2.929.358c.138.881.621 1.32 1.417 1.223.602-.074.924-.339.95-.803l.617-.075c-.038.797-.635 1.284-1.512 1.392zm-1.511-2.238l2.275-.277c-.158-.796-.613-1.065-1.252-.987-.632.078-1.003.56-1.023 1.264zm5.758 1.719c-1.085.132-1.996-.534-2.144-1.738l-.007-.059c-.145-1.19.604-2.096 1.645-2.223.81-.099 1.614.18 1.853 1.154l-.609.075c-.172-.606-.646-.782-1.182-.716-.706.086-1.179.717-1.068 1.632l.008.059c.116.952.698 1.394 1.449 1.302.55-.067 1.009-.448.999-1.088l.572-.07c.021.85-.579 1.557-1.516 1.672zm3.806-.481c-.706.087-1.098-.288-1.173-.897l-.292-2.394-.558.068-.064-.52.558-.068-.108-.885.617-.075.108.884.907-.11.063.52-.907.111.286 2.334c.046.379.24.544.552.506a1.3 1.3 0 0 0 .466-.14l.063.52c-.121.06-.265.115-.518.146zm1.883-.245a.48.48 0 0 1-.534-.417c-.033-.268.157-.502.418-.534s.501.15.533.417-.157.502-.417.534zm3.681-.487l-.649-5.315 1.598-.196c.988-.12 1.749.119 1.878 1.167l.003.029c.059.484-.081.938-.665 1.221.795.091 1.133.45 1.218 1.141l.004.03c.122 1.003-.503 1.57-1.566 1.7l-1.821.223zm.266-3.073l.966-.118c.781-.096 1.044-.415.964-1.069l-.004-.029c-.074-.603-.453-.805-1.196-.714l-.952.116.222 1.814zm.304 2.49l1.175-.144c.773-.094 1.088-.48 1.009-1.126l-.004-.03c-.08-.654-.482-.922-1.337-.817l-1.085.132.242 1.985zm5.334-.071c-.774.095-1.405-.258-1.536-1.329l-.301-2.46.617-.076.297 2.431c.084.684.411.953 1.021.879.55-.067 1.026-.495.94-1.194l-.288-2.356.617-.076.475 3.888-.617.075-.075-.617c-.134.386-.526.759-1.15.835zm4.277-.538c-.706.086-1.099-.288-1.173-.898l-.293-2.393-.557.068-.064-.52.558-.068-.108-.885.617-.075.108.884.907-.111.063.521-.907.111.286 2.334c.046.379.24.544.552.505a1.28 1.28 0 0 0 .466-.139l.063.52c-.121.06-.265.115-.518.146zm-153.26 29.827c-.929.113-1.543-.287-1.678-1.078l.602-.073c.101.455.382.715 1.006.639.588-.072.823-.305.772-.721-.05-.409-.371-.505-.986-.543-1.034-.062-1.411-.303-1.493-.98-.088-.721.572-1.179 1.182-1.253.699-.085 1.335.123 1.542.951l-.595.072c-.141-.412-.401-.569-.892-.509-.446.054-.708.313-.668.647.043.35.254.467.983.506.821.051 1.407.16 1.508.985.087.706-.339 1.241-1.283 1.357zm3.981-.487c-1.108.136-2.006-.607-2.145-1.744l-.007-.06c-.143-1.167.568-2.084 1.668-2.218s2.009.577 2.152 1.744l.007.059c.144 1.175-.568 2.084-1.675 2.219zm-.055-.514c.78-.095 1.199-.742 1.092-1.619l-.007-.052c-.11-.9-.679-1.419-1.452-1.324-.78.095-1.2.735-1.091 1.627l.007.059c.109.885.663 1.406 1.451 1.309zm2.92.096l-.475-3.887.617-.076.072.595c.134-.386.521-.735 1.079-.803.498-.061.962.093 1.226.589.206-.538.759-.832 1.242-.891.699-.085 1.359.256 1.497 1.386l.294 2.409-.617.075-.299-2.453c-.084-.684-.408-.931-.944-.865-.505.061-.984.467-.898 1.166l.29 2.378-.616.076-.3-2.453c-.084-.684-.408-.931-.943-.866-.506.062-.984.467-.899 1.166l.291 2.379-.617.075zm8.364-.954c-1.1.134-1.975-.543-2.121-1.74l-.008-.06c-.143-1.174.508-2.083 1.578-2.214.9-.11 1.813.329 1.983 1.719l.025.201-2.929.358c.138.88.621 1.319 1.417 1.222.602-.073.924-.339.95-.803l.617-.075c-.038.797-.635 1.285-1.512 1.392zM123.104 299l2.275-.278c-.158-.796-.613-1.064-1.252-.986-.632.077-1.003.56-1.023 1.264zm5.325 1.756c-.706.086-1.099-.288-1.173-.898l-.293-2.394-.557.069-.064-.521.558-.068-.108-.884.616-.076.109.885.906-.111.064.52-.907.111.285 2.334c.047.379.24.544.553.506a1.29 1.29 0 0 0 .465-.14l.064.52c-.121.06-.265.116-.518.147zm1.192-4.967c-.223.027-.431-.136-.458-.359s.135-.431.358-.458.432.135.459.358-.136.432-.359.459zm.277 4.734l-.475-3.887.617-.076.475 3.888-.617.075zm1.88-.229l-.475-3.888.617-.075.072.594c.134-.386.522-.735 1.079-.803.498-.061.962.094 1.226.59.206-.539.759-.833 1.242-.892.699-.085 1.359.257 1.497 1.387l.295 2.408-.617.075-.3-2.453c-.084-.683-.408-.93-.943-.865-.506.062-.984.467-.899 1.166l.291 2.379-.617.075-.3-2.453c-.084-.684-.408-.931-.943-.865-.506.061-.984.467-.899 1.166l.291 2.378-.617.076zm8.364-.955c-1.1.135-1.975-.543-2.121-1.74l-.007-.059c-.144-1.175.507-2.084 1.577-2.215.9-.11 1.813.329 1.983 1.719l.025.201-2.929.358c.138.881.622 1.32 1.417 1.223.602-.074.924-.34.951-.803l.616-.076c-.038.797-.635 1.285-1.512 1.392zm-1.51-2.237l2.274-.278c-.157-.795-.613-1.064-1.252-.986-.632.077-1.003.56-1.022 1.264zm5.385 1.764c-.929.113-1.544-.287-1.678-1.078l.602-.073c.101.455.381.715 1.006.639.587-.072.823-.304.772-.721-.05-.408-.371-.505-.987-.543-1.034-.062-1.41-.303-1.493-.979-.088-.721.573-1.179 1.182-1.254.699-.085 1.336.124 1.542.951l-.594.073c-.141-.413-.402-.57-.893-.51-.446.054-.708.313-.667.647.042.35.253.467.982.507.821.05 1.408.159 1.509.985.086.706-.339 1.241-1.283 1.356zm2.515.553l-.427-.16.515-1.715.637.209-.725 1.666zm4.689-1.501l-1.671-3.742.669-.082 1.289 3.019.561-3.245.536-.065 1.267 3.021.532-3.241.631-.077-.736 4.035-.684.084-1.166-2.815-.551 3.025-.677.083zm5.122-.626l-.703-5.746.617-.076.303 2.476c.134-.386.526-.759 1.165-.837.803-.098 1.421.272 1.559 1.401l.292 2.387-.617.075-.297-2.431c-.084-.684-.411-.953-1.035-.877-.572.07-1.041.497-.955 1.196l.288 2.356-.617.076zm6.041-.671c-1.1.135-1.975-.543-2.121-1.74l-.008-.059c-.143-1.175.508-2.084 1.578-2.215.9-.11 1.813.329 1.983 1.719l.025.201-2.929.358c.138.881.621 1.32 1.417 1.222.602-.073.924-.339.95-.802l.617-.076c-.038.797-.635 1.285-1.512 1.392zm-1.511-2.237l2.275-.278c-.158-.795-.613-1.064-1.252-.986-.632.077-1.003.56-1.023 1.264zm4.137 1.848l-.475-3.887.617-.076.075.617c.134-.386.526-.758 1.165-.836.803-.098 1.422.271 1.56 1.401l.291 2.386-.617.076-.297-2.431c-.083-.684-.41-.953-1.035-.877-.572.07-1.04.497-.955 1.196l.288 2.356-.617.075zm6.924.527l.522-1.844-1.95-3.3.662-.081 1.53 2.642.737-2.919.632-.077-1.508 5.503-.625.076zm4.932-1.908c-1.107.136-2.005-.607-2.144-1.744l-.007-.06c-.143-1.167.567-2.083 1.667-2.218s2.01.577 2.152 1.744l.008.059c.143 1.175-.568 2.084-1.676 2.219zm-.055-.513c.781-.096 1.2-.743 1.092-1.62l-.006-.052c-.11-.9-.679-1.419-1.452-1.324-.78.095-1.2.735-1.091 1.627l.007.06c.108.884.662 1.405 1.45 1.309zm4.244.001c-.773.095-1.404-.258-1.535-1.328l-.301-2.461.617-.075.297 2.431c.084.683.411.953 1.02.878.55-.067 1.026-.495.941-1.193l-.288-2.357.617-.075.475 3.887-.617.076-.075-.617c-.134.386-.526.758-1.151.834zm6.784.545c-1.152.14-1.724-.341-1.908-.982l.632-.077c.144.435.544.62 1.205.539.766-.093 1.204-.517 1.103-1.349l-.069-.565c-.177.406-.661.827-1.226.896-1.019.125-1.864-.556-1.995-1.627l-.006-.052c-.129-1.055.507-2.023 1.578-2.154.646-.079 1.086.184 1.355.536l-.076-.625.617-.075.443 3.627c.131 1.131-.568 1.775-1.653 1.908zm-.259-2.059c.721-.088 1.209-.66 1.103-1.53l-.006-.052c-.107-.87-.644-1.317-1.402-1.225-.773.095-1.164.724-1.064 1.541l.007.06c.104.847.708 1.286 1.362 1.206zm4.791.132c-1.1.134-1.975-.544-2.121-1.74l-.007-.06c-.144-1.174.507-2.084 1.577-2.215.9-.109 1.814.33 1.983 1.72l.025.2-2.929.358c.138.881.622 1.32 1.417 1.223.602-.074.924-.34.951-.803l.617-.075c-.039.797-.636 1.284-1.513 1.392zm-1.51-2.238l2.274-.278c-.157-.795-.613-1.064-1.252-.986-.632.078-1.003.56-1.022 1.264zm5.324 1.756c-.706.087-1.099-.288-1.173-.897l-.293-2.394-.557.068-.064-.52.558-.068-.108-.885.617-.075.108.884.907-.11.063.52-.907.111.286 2.334c.046.379.24.544.552.506a1.3 1.3 0 0 0 .466-.14l.063.52c-.121.06-.265.115-.518.146zm5.021-.598c-1.101.134-1.975-.543-2.122-1.74l-.007-.06c-.144-1.174.507-2.083 1.578-2.214.899-.11 1.813.329 1.983 1.719l.024.201-2.928.358c.137.881.621 1.319 1.416 1.222.602-.073.925-.339.951-.803l.617-.075c-.039.797-.635 1.285-1.512 1.392zm-1.511-2.237l2.275-.278c-.158-.796-.613-1.064-1.253-.986-.631.077-1.002.56-1.022 1.264zm3.611 1.912l1.146-2.169-1.532-1.729.721-.088 1.125 1.296.771-1.528.669-.082-1.061 2.001 1.67 1.871-.729.089-1.239-1.441-.879 1.699-.662.081zm5.776-.638c-1.085.133-1.996-.533-2.143-1.737l-.008-.059c-.145-1.19.604-2.096 1.645-2.223.81-.099 1.614.18 1.854 1.154l-.61.074c-.172-.605-.646-.781-1.181-.715-.707.086-1.18.717-1.068 1.632l.007.059c.116.951.698 1.393 1.449 1.302.55-.068 1.009-.448.999-1.088l.572-.07c.021.85-.579 1.557-1.516 1.671zm2.356-5.123c-.223.027-.431-.136-.458-.359s.135-.432.358-.459.432.136.459.359-.136.431-.359.459zm.277 4.734l-.475-3.888.617-.075.475 3.887-.617.076zm3.068-.322c-.706.086-1.099-.289-1.173-.898l-.293-2.394-.557.068-.064-.52.558-.068-.108-.885.617-.075.108.885.906-.111.064.52-.907.111.285 2.334c.047.379.24.544.553.506a1.29 1.29 0 0 0 .465-.14l.064.52c-.121.06-.265.116-.518.147zm3.053-.358c-1.1.134-1.975-.544-2.121-1.74l-.007-.06c-.144-1.174.507-2.084 1.577-2.215.9-.11 1.813.33 1.983 1.72l.025.2-2.929.358c.138.881.622 1.32 1.417 1.223.602-.074.924-.34.95-.803l.617-.075c-.038.797-.635 1.284-1.512 1.392zm-1.51-2.238l2.274-.278c-.157-.795-.613-1.064-1.252-.986-.632.078-1.003.56-1.022 1.264zm5.609 1.737c-1.019.124-1.843-.507-1.991-1.719l-.007-.059c-.145-1.189.495-2.12 1.566-2.251.646-.079 1.086.184 1.355.536l-.303-2.483.617-.075.702 5.746-.617.075-.082-.669a1.65 1.65 0 0 1-1.24.899zm.004-.521c.721-.088 1.228-.633 1.106-1.629l-.007-.06c-.122-.996-.655-1.406-1.413-1.313-.773.094-1.168.693-1.052 1.637l.007.06c.12.981.705 1.385 1.359 1.305zm3.34.972l-.427-.159.515-1.715.636.209-.724 1.665zm4.423-.095l.522-1.845-1.95-3.3.661-.08 1.53 2.642.738-2.919.631-.078-1.507 5.503-.625.077zm4.932-1.908c-1.107.135-2.005-.608-2.144-1.745l-.008-.059c-.142-1.167.568-2.084 1.668-2.219s2.01.577 2.152 1.744l.007.06c.144 1.174-.567 2.083-1.675 2.219zm-.055-.514c.78-.095 1.199-.743 1.092-1.62l-.006-.052c-.11-.899-.679-1.418-1.452-1.324-.781.096-1.2.735-1.091 1.627l.007.06c.108.884.662 1.405 1.45 1.309zm4.244.002c-.773.094-1.405-.259-1.535-1.329l-.301-2.46.617-.076.297 2.431c.083.684.411.953 1.02.879.55-.068 1.026-.495.941-1.194l-.288-2.356.617-.076.475 3.888-.617.075-.076-.617c-.134.386-.526.759-1.15.835zm6.529-.798c-1.018.124-1.842-.507-1.99-1.718l-.007-.06c-.146-1.189.495-2.12 1.565-2.251.647-.079 1.087.184 1.356.536l-.303-2.483.617-.075.702 5.746-.617.075-.082-.669c-.177.407-.676.83-1.241.899zm.005-.521c.721-.088 1.227-.633 1.106-1.629l-.008-.06c-.121-.996-.654-1.406-1.412-1.313-.774.094-1.168.693-1.053 1.637l.008.06c.119.981.704 1.385 1.359 1.305zm4.804-.067c-1.107.136-2.005-.607-2.144-1.745l-.007-.059c-.143-1.167.567-2.084 1.667-2.218s2.01.577 2.152 1.744l.008.059c.143 1.175-.568 2.084-1.676 2.219zm-.055-.514c.781-.095 1.199-.742 1.092-1.619l-.006-.052c-.11-.9-.679-1.419-1.452-1.324-.78.095-1.2.735-1.091 1.627l.007.059c.108.885.662 1.406 1.45 1.309zm2.92.096l-.475-3.887.617-.076.076.617c.133-.386.526-.758 1.165-.836.803-.098 1.421.271 1.559 1.401l.292 2.386-.617.075-.297-2.43c-.084-.684-.411-.953-1.035-.877-.573.07-1.041.497-.956 1.195l.288 2.357-.617.075zm3.958-4.165l-.402-.147.469-1.657.62.196-.687 1.608zm3.314 3.329c-.707.087-1.099-.288-1.174-.897l-.292-2.394-.558.068-.063-.52.557-.068-.108-.885.617-.075.108.884.907-.11.064.52-.907.111.285 2.334c.046.379.24.544.552.506a1.3 1.3 0 0 0 .466-.14l.063.52a1.48 1.48 0 0 1-.517.146zm3.436-.472l-.702-5.746.624-.077.702 5.746-.624.077zm3.486-.358c-1.1.134-1.975-.544-2.122-1.74l-.007-.06c-.143-1.174.507-2.084 1.578-2.215.899-.11 1.813.33 1.983 1.72l.024.2-2.928.358c.137.881.621 1.32 1.416 1.223.603-.074.925-.34.951-.803l.617-.075c-.038.796-.635 1.284-1.512 1.392zm-1.511-2.238l2.275-.278c-.158-.795-.613-1.064-1.253-.986-.631.077-1.002.56-1.022 1.264zm5.155 1.792c-.721.088-1.336-.191-1.433-.986-.11-.9.804-1.321 1.8-1.443l.557-.068-.034-.282c-.076-.617-.345-.848-.94-.776-.535.066-.805.325-.806.808l-.617.075c-.027-.894.639-1.307 1.39-1.399.744-.091 1.457.131 1.59 1.216l.313 2.565-.617.075-.06-.49c-.245.399-.571.635-1.143.705zm-.001-.498c.654-.08 1.112-.475 1.038-1.077l-.059-.483-.535.065c-.781.096-1.329.359-1.26.931.05.402.274.631.816.564zm3.898-.046l-1.887-3.715.669-.082 1.551 3.123.738-3.403.639-.078-.922 4.059-.788.096zm4.487-.48c-1.1.134-1.975-.544-2.121-1.74l-.008-.06c-.143-1.174.508-2.084 1.578-2.215.9-.11 1.813.33 1.983 1.72l.025.2-2.929.358c.138.881.621 1.32 1.417 1.223.602-.074.924-.34.95-.803l.617-.075c-.038.797-.635 1.284-1.512 1.392zm-1.511-2.238l2.275-.278c-.158-.795-.613-1.064-1.252-.986-.632.078-1.003.56-1.023 1.264zm-168.21 33.993l-.475-3.888.617-.075.086.698c.191-.468.489-.814 1.185-.921l.071.579c-.776.133-1.244.439-1.127 1.398l.26 2.133-.617.076zm4.308-.459c-1.108.136-2.006-.607-2.145-1.744l-.007-.06c-.143-1.167.567-2.084 1.667-2.218s2.01.577 2.152 1.744l.008.059c.143 1.175-.568 2.084-1.675 2.219zm-.056-.514c.781-.095 1.2-.742 1.092-1.619l-.006-.052c-.11-.9-.679-1.419-1.452-1.324-.78.095-1.2.735-1.091 1.627l.007.059c.108.885.662 1.406 1.45 1.309zm4.542-.034c-1.108.135-2.006-.607-2.145-1.745l-.007-.059c-.143-1.167.567-2.084 1.668-2.218s2.009.576 2.152 1.743l.007.06c.143 1.174-.568 2.084-1.675 2.219zm-.056-.514c.781-.095 1.2-.742 1.093-1.62l-.007-.052c-.11-.899-.679-1.418-1.452-1.323-.78.095-1.2.735-1.091 1.627l.007.059c.108.885.662 1.405 1.45 1.309zm2.921.096l-.476-3.888.617-.075.073.595c.134-.386.521-.736 1.079-.804.498-.061.962.094 1.226.59.206-.538.759-.832 1.242-.891.698-.086 1.359.256 1.497 1.386l.294 2.408-.617.076-.3-2.453c-.083-.684-.408-.931-.943-.866-.505.062-.984.468-.898 1.166l.29 2.379-.617.075-.299-2.453c-.084-.683-.408-.931-.944-.865-.505.062-.984.467-.898 1.166l.29 2.379-.616.075zm8.866-1.084l-.412-3.367-.557.068-.064-.52.558-.068-.077-.632c-.097-.788.234-1.296 1.007-1.391a1.29 1.29 0 0 1 .47.018l.063.521c-.117-.031-.277-.049-.448-.028-.402.049-.532.344-.484.738l.086.698.951-.116.064.52-.952.117.412 3.367-.617.075zm3.868-.404c-1.107.135-2.005-.608-2.144-1.745l-.007-.06c-.143-1.167.567-2.083 1.667-2.218s2.01.577 2.152 1.744l.008.06c.143 1.174-.568 2.083-1.676 2.219zm-.055-.514c.781-.096 1.199-.743 1.092-1.62l-.006-.052c-.11-.899-.679-1.418-1.452-1.324-.78.096-1.2.735-1.091 1.627l.007.06c.108.884.662 1.405 1.45 1.309zm2.92.096l-.475-3.888.617-.075.086.698c.191-.468.489-.814 1.185-.922l.07.58c-.776.133-1.244.439-1.126 1.398l.26 2.133-.617.076zm6.383-.713c-1.107.136-2.005-.607-2.144-1.744l-.007-.06c-.143-1.167.567-2.084 1.667-2.218s2.01.577 2.152 1.744l.008.059c.143 1.175-.568 2.084-1.676 2.219zm-.055-.513c.781-.096 1.2-.743 1.092-1.62l-.006-.052c-.11-.9-.679-1.419-1.452-1.324-.78.095-1.2.735-1.091 1.627l.007.06c.108.884.662 1.405 1.45 1.309zm4.109.003c-.707.086-1.099-.288-1.174-.898l-.292-2.393-.558.068-.063-.52.557-.069-.108-.884.617-.076.108.885.907-.111.063.521-.906.11.285 2.334c.046.379.24.544.552.506.193-.023.338-.071.466-.14l.063.521c-.121.06-.265.115-.517.146zm1.454-.231l-.703-5.745.617-.076.303 2.475c.134-.386.526-.758 1.165-.836.803-.098 1.421.271 1.56 1.401l.291 2.386-.617.076-.297-2.431c-.083-.684-.411-.953-1.035-.877-.572.07-1.041.497-.955 1.196l.288 2.356-.617.075zm6.041-.67c-1.1.134-1.975-.543-2.121-1.74l-.007-.059c-.144-1.175.507-2.084 1.577-2.215.9-.11 1.813.329 1.983 1.719l.025.201-2.929.358c.138.881.622 1.319 1.417 1.222.602-.073.924-.339.95-.802l.617-.076c-.038.797-.635 1.285-1.512 1.392zm-1.511-2.237l2.275-.278c-.158-.796-.613-1.064-1.252-.986-.632.077-1.003.56-1.023 1.264zm4.137 1.848l-.475-3.887.617-.076.085.699c.192-.469.489-.814 1.185-.922l.071.58c-.776.132-1.244.439-1.127 1.397l.261 2.134-.617.075zm3.971-.417c-.929.113-1.544-.287-1.678-1.078l.602-.073c.101.455.381.715 1.006.639.587-.072.823-.304.772-.721-.05-.408-.371-.505-.987-.543-1.034-.062-1.41-.303-1.493-.979-.088-.721.573-1.179 1.182-1.254.699-.085 1.336.124 1.542.951l-.594.073c-.141-.413-.402-.57-.892-.51-.446.054-.709.313-.668.647.043.35.253.467.982.507.821.05 1.408.159 1.509.985.086.706-.339 1.241-1.283 1.356zm5.514-.689c-.706.086-1.099-.288-1.173-.898l-.293-2.393-.557.068-.064-.521.558-.068-.108-.884.617-.076.108.885.907-.111.063.52-.907.111.286 2.334c.046.379.24.544.552.506.193-.023.338-.071.466-.14l.063.521c-.121.06-.265.115-.518.146zm3.076-.361c-1.108.135-2.006-.607-2.145-1.745l-.007-.059c-.143-1.167.568-2.084 1.668-2.218s2.009.577 2.152 1.744l.007.059c.143 1.175-.568 2.084-1.675 2.219zm-.056-.514c.781-.095 1.2-.742 1.093-1.619l-.007-.052c-.11-.9-.679-1.419-1.452-1.324-.78.095-1.2.735-1.091 1.627l.007.059c.108.885.662 1.406 1.45 1.309zm6.829-.314c-.632.078-1.132-.186-1.402-.545l.078.639-.617.076-.702-5.746.617-.076.307 2.513c.176-.407.662-.813 1.227-.882 1.019-.124 1.86.527 2.008 1.739l.007.059c.146 1.19-.453 2.093-1.523 2.223zm-.123-.505c.774-.095 1.126-.666 1.011-1.61l-.007-.059c-.12-.982-.723-1.406-1.377-1.326-.721.088-1.213.631-1.091 1.627l.007.06c.122.996.699 1.4 1.457 1.308zm2.842.105l-.475-3.887.617-.076.085.699c.192-.469.489-.814 1.185-.922l.071.58c-.776.132-1.244.439-1.127 1.397l.261 2.134-.617.075zm2.533-5.077c-.223.027-.432-.136-.459-.359s.136-.432.359-.459.432.136.459.359-.136.431-.359.459zm.277 4.734l-.475-3.888.617-.075.475 3.887-.617.076zm1.879-.23l-.475-3.888.617-.075.076.617c.134-.386.526-.758 1.165-.836.803-.099 1.421.271 1.559 1.401l.292 2.386-.617.075-.297-2.43c-.084-.684-.411-.954-1.035-.877-.573.07-1.041.497-.956 1.195l.288 2.357-.617.075zm6.17.687c-1.152.141-1.724-.34-1.908-.981l.632-.078c.144.436.544.621 1.205.54.766-.094 1.204-.517 1.103-1.35l-.069-.565c-.177.407-.661.828-1.226.897-1.019.124-1.864-.557-1.995-1.627l-.006-.052c-.129-1.056.507-2.024 1.578-2.155.646-.079 1.086.185 1.355.536l-.076-.624.617-.075.443 3.627c.131 1.131-.568 1.774-1.653 1.907zm-.259-2.058c.721-.088 1.209-.661 1.103-1.531l-.006-.052c-.107-.869-.644-1.317-1.402-1.224-.773.095-1.164.723-1.064 1.541l.007.059c.104.848.708 1.287 1.362 1.207zm6.348-.074c-.706.086-1.099-.288-1.174-.898l-.292-2.393-.558.068-.063-.521.557-.068-.108-.884.617-.076.108.885.907-.111.064.52-.907.111.285 2.334c.046.379.24.544.552.506a1.25 1.25 0 0 0 .466-.14l.064.521c-.121.06-.265.115-.518.146zm1.454-.231l-.702-5.746.617-.075.302 2.475c.134-.386.526-.758 1.165-.836.803-.098 1.422.271 1.56 1.401l.291 2.386-.617.076-.297-2.431c-.083-.684-.41-.953-1.035-.877-.572.07-1.041.497-.955 1.196l.288 2.356-.617.075zm6.041-.67c-1.1.134-1.975-.543-2.121-1.74l-.007-.06c-.144-1.174.507-2.083 1.577-2.214.9-.11 1.814.329 1.983 1.719l.025.201-2.929.358c.138.88.622 1.319 1.417 1.222.602-.073.924-.339.951-.803l.617-.075c-.039.797-.636 1.285-1.513 1.392zm-1.51-2.237l2.274-.278c-.157-.796-.613-1.064-1.252-.986-.632.077-1.003.56-1.022 1.264zm3.874-2.888c-.223.027-.431-.136-.458-.359s.135-.431.358-.459.432.136.459.359-.136.432-.359.459zm.277 4.734l-.475-3.887.617-.076.475 3.888-.617.075zm1.88-.229l-.475-3.888.617-.075.085.698c.192-.468.489-.814 1.185-.922l.071.58c-.776.133-1.244.439-1.127 1.398l.261 2.133-.617.076zm4.5-5.318c-.223.027-.432-.136-.459-.359s.136-.432.359-.459.432.136.459.359-.136.431-.359.459zm.277 4.734l-.475-3.888.617-.075.475 3.887-.617.076zm3.352-.342c-1.018.124-1.842-.507-1.99-1.718l-.008-.06c-.145-1.189.496-2.12 1.566-2.251.647-.079 1.086.184 1.356.536l-.304-2.482.617-.076.702 5.746-.617.076-.081-.669c-.177.406-.676.829-1.241.898zm.004-.521c.721-.088 1.228-.633 1.106-1.629l-.007-.059c-.122-.997-.655-1.407-1.413-1.314-.773.094-1.167.693-1.052 1.637l.007.06c.12.981.705 1.385 1.359 1.305zm4.783-.064c-1.1.135-1.975-.543-2.122-1.74l-.007-.059c-.143-1.175.507-2.084 1.578-2.215.899-.11 1.813.329 1.983 1.719l.024.201-2.928.358c.137.881.621 1.319 1.416 1.222.603-.073.925-.339.951-.802l.617-.076c-.038.797-.635 1.285-1.512 1.392zm-1.511-2.237l2.275-.278c-.158-.796-.613-1.064-1.253-.986-.631.077-1.002.56-1.022 1.264zm5.155 1.792c-.721.088-1.336-.192-1.434-.987-.109-.899.805-1.32 1.801-1.442l.557-.068-.034-.283c-.076-.617-.345-.848-.94-.775-.535.065-.805.325-.806.808l-.617.075c-.027-.895.639-1.308 1.39-1.4.743-.09 1.457.132 1.59 1.217l.313 2.564-.617.076-.06-.491c-.245.4-.571.636-1.143.706zm-.001-.498c.654-.08 1.112-.475 1.038-1.078l-.059-.483-.535.066c-.781.095-1.329.358-1.26.931.05.401.274.63.816.564zm4.245-.021c-.929.114-1.543-.287-1.678-1.077l.602-.074c.101.455.382.715 1.006.639.588-.072.823-.304.772-.721-.05-.408-.371-.505-.986-.543-1.034-.062-1.411-.303-1.493-.979-.088-.721.572-1.179 1.182-1.254.699-.085 1.335.124 1.542.951l-.595.073c-.141-.413-.401-.57-.892-.51-.446.055-.708.313-.668.648.043.349.254.467.983.506.821.05 1.407.16 1.508.985.087.706-.338 1.241-1.283 1.356zm5.515-.689c-.706.086-1.099-.288-1.173-.898l-.293-2.393-.557.068-.064-.52.557-.069-.108-.884.617-.076.108.885.907-.111.064.521-.907.11.285 2.334c.047.38.24.544.552.506a1.25 1.25 0 0 0 .466-.14l.064.521c-.121.06-.265.115-.518.146zm3.075-.361c-1.107.136-2.005-.607-2.144-1.744l-.008-.06c-.142-1.167.568-2.084 1.668-2.218s2.01.577 2.152 1.744l.008.059c.143 1.175-.568 2.084-1.676 2.219zm-.055-.514c.781-.095 1.199-.742 1.092-1.619l-.006-.052c-.11-.9-.679-1.419-1.452-1.324-.781.095-1.2.735-1.091 1.627l.007.059c.108.885.662 1.406 1.45 1.309zm6.076-.237c-.706.087-1.099-.288-1.174-.897l-.292-2.394-.558.068-.063-.52.557-.068-.108-.885.617-.075.108.884.907-.11.064.52-.907.111.285 2.334c.046.379.24.544.552.506a1.3 1.3 0 0 0 .466-.14l.063.52c-.12.06-.265.116-.517.146zm1.454-.23l-.702-5.746.616-.075.303 2.475c.134-.386.526-.758 1.165-.837.803-.098 1.422.272 1.56 1.402l.291 2.386-.617.075-.297-2.431c-.083-.683-.411-.953-1.035-.876-.572.07-1.041.496-.955 1.195l.288 2.357-.617.075zm6.041-.67c-1.1.134-1.975-.544-2.121-1.74l-.007-.06c-.144-1.174.507-2.084 1.577-2.215.9-.11 1.813.33 1.983 1.72l.025.2-2.929.358c.138.881.622 1.32 1.417 1.223.602-.074.924-.34.951-.803l.616-.075c-.038.796-.635 1.284-1.512 1.392zm-1.51-2.238l2.274-.278c-.157-.795-.613-1.064-1.252-.986-.632.077-1.003.56-1.022 1.264zm7.292 1.516c-.707.086-1.099-.288-1.174-.898l-.292-2.393-.558.068-.064-.521.558-.068-.108-.884.617-.076.108.885.907-.111.063.52-.906.111.285 2.334c.046.379.24.544.552.506.193-.023.338-.071.466-.14l.063.521c-.121.06-.265.115-.517.146zm2.472-.287c-.721.088-1.336-.191-1.433-.987-.11-.899.804-1.32 1.8-1.442l.557-.068-.034-.283c-.076-.617-.345-.848-.94-.775-.535.065-.805.325-.806.808l-.617.075c-.027-.894.639-1.308 1.39-1.4.744-.09 1.457.132 1.59 1.217l.313 2.564-.617.076-.06-.491c-.245.4-.571.636-1.143.706zm-.001-.498c.654-.08 1.112-.475 1.038-1.077l-.059-.484-.535.066c-.781.095-1.329.358-1.26.931.05.401.274.63.816.564zm4.974-.11c-.632.077-1.132-.186-1.402-.545l.078.639-.617.075-.702-5.746.617-.075.307 2.512c.177-.406.663-.812 1.228-.881 1.018-.125 1.86.527 2.008 1.738l.007.06c.145 1.189-.454 2.092-1.524 2.223zm-.122-.506c.773-.094 1.126-.665 1.01-1.609l-.007-.06c-.12-.981-.723-1.405-1.377-1.325-.721.088-1.213.631-1.091 1.627l.007.059c.122.996.7 1.401 1.458 1.308zm2.856.104l-.702-5.746.625-.076.702 5.746-.625.076zm3.486-.358c-1.1.134-1.975-.543-2.121-1.74l-.007-.06c-.144-1.174.507-2.083 1.577-2.214.9-.11 1.813.329 1.983 1.719l.025.201-2.929.358c.138.88.622 1.319 1.417 1.222.602-.073.924-.339.951-.803l.617-.075c-.039.797-.636 1.285-1.513 1.392zm-1.51-2.237l2.274-.278c-.157-.796-.613-1.064-1.252-.986-.632.077-1.003.56-1.022 1.264zm4.528 1.838a.48.48 0 0 1-.534-.418.48.48 0 0 1 .418-.534.48.48 0 0 1 .534.418.48.48 0 0 1-.418.534z" fill="#000"/><path d="M110.869 328.151l-.121-.991 7.079-.865.122.991-7.08.865zm.212 1.735l-.112-.921 7.079-.865.112.921-7.079.865zm.216 1.77l-.112-.921 3.54-.432.112.92-3.54.433z" class="B G"/></g><g class="B"><path d="M271.354 261.06l-4.324-10.602c-1.322-2.203.661-4.13 2.837-2.478.826.633 1.872 1.542 2.864 3.194l8.839 14.265c-.358-.386-10.216-4.379-10.216-4.379z" class="D"/><path d="M266.27 250.793l.019.032 4.3 10.547a.83.83 0 0 0 .405.431l.068.03 1.578.643 1.193.49 1.941.803 1.605.672 2.148.923.41.182.777.359.15.074.081.041.099.055.023.02.042.031c.024.017.05.031.127.073l.068.031c.122.051.178.044.565-.005l.193-.14c.268-.198.278-.243.34-.512l.008-.141c.002-.064-.002-.084-.013-.143l-.021-.083c-.01-.037-.015-.048-.028-.08a1.62 1.62 0 0 0-.098-.197l-.09-.156-.205-.341-.491-.799-5.535-8.845-2.37-3.843-.121-.199a11.44 11.44 0 0 0-2.941-3.324l-.13-.101c-2.842-2.158-5.794.493-4.097 3.472zm3.098-2.156l-.003-.002c1.044.801 1.82 1.604 2.571 2.822l.613 1.006 2.053 3.32 4.849 7.743-.628-.269-1.09-.46-.947-.396-2.721-1.127-2.077-.849-4.192-10.279c-.016-.039-.035-.077-.057-.113-.879-1.466.217-2.468 1.629-1.396z" class="E"/><path d="M304.923 257.289l-22.829 5.039-11.18-5.7-14.926-4.544c-1.818-.523-3.167 1.762-1.762 3.057.743.66 11.979 4.433 11.979 4.433l-14.293-1.597c-1.459-.165-2.423 1.542-1.487 2.699s2.616 1.239 4.875 1.762c1.376.303 10.216 1.35 10.216 1.35l-12.612.881c-3.112.358-3.03 4.819 2.919 4.075 3.084-.385 6.829-.358 9.445-1.074l-8.536 2.451c-2.809 1.708.082 4.875 12.116 1.24 7.325 5.893 11.153 6.994 17.762 3.111.028-.027 22.114-3.635 22.114-3.635l-3.801-13.548z" class="D"/><path d="M253.677 255.757l.02.018c.419.348 1.977.975 4.793 1.991l.459.165-6.945-.776c-2.196-.248-3.62 2.312-2.221 4.04.722.892 1.602 1.262 3.405 1.643l.998.204.927.2.176.036 1.24.199.517.073-4.2.294-.037.003c-1.983.229-3.206 1.888-2.623 3.546.586 1.666 2.669 2.522 5.611 2.186l.309-.038c-1.867 1.279-1.523 3.289.885 3.995l.087.025c2.305.639 6.225.275 11.413-1.233l.179-.053.128.101c7.481 5.92 11.563 6.661 18.03 2.925l.074-.043 2.591-.432 10.007-1.644 9.357-1.53c.486-.079.795-.564.662-1.038l-3.8-13.549-.015-.046c-.135-.395-.547-.629-.959-.538l-22.54 4.976-10.916-5.566a.79.79 0 0 0-.135-.054l-14.925-4.544c-2.64-.76-4.571 2.502-2.624 4.397l.072.067zm16.926 1.638l11.116 5.668.058.027a.83.83 0 0 0 .495.044l22.067-4.872 3.34 11.908-20.343 3.339-.806.136-.756.136c-.16.033.253-.021.275.057l.001.004-.218.125c-5.825 3.316-9.24 2.562-16.466-3.251-.212-.171-.495-.226-.756-.147l-.379.113c-5.016 1.478-8.724 1.835-10.701 1.29l-.135-.04-.12-.037c-.897-.292-.92-.556-.205-1.012l8.426-2.419c1.053-.303.61-1.88-.446-1.591l-.14.037c-1.244.326-2.58.478-5.389.682l-1.098.079c-1.24.092-1.921.155-2.703.253-2.322.29-3.686-.257-3.975-1.079l-.014-.044c-.168-.569.282-1.171 1.196-1.303l.058-.008 12.589-.879c.982-.069 1.034-1.474.093-1.637l-.17-.022-1.506-.181-1.213-.148-1.196-.148-2.033-.257-4.072-.588-.335-.075-.361-.077-1.134-.232c-1.528-.316-2.16-.573-2.58-1.091-.465-.574.018-1.441.753-1.358l14.293 1.597c.967.108 1.283-1.241.402-1.587l-.064-.022-1.674-.569-1.119-.383-2.745-.957-1.358-.483c-2.602-.935-4.498-1.68-4.76-1.856l-.015-.01.006.005c-.751-.692-.023-1.942.974-1.655l14.843 4.518zm16.583 17.671c-.113.137.51.047.308.086l-.591.106.126-.074a.79.79 0 0 0 .166-.128l-.009.01z" class="E"/><path d="M320.594 211.683l23.628-8.757 12.061 57.032c.799 5.976-3.111 11.538-8.977 12.833l-60.86 8.592a3.54 3.54 0 0 1-3.745-2.837l-.027-18.698c-.413-2.011 1.019-3.966 3.056-4.214l39.821-3.938-4.957-40.013z" class="F"/><g class="E"><path d="M305.893 253.226c-.449.079-.878-.221-.957-.67-.076-.434.201-.847.624-.947l.047-.01 18.203-3.194.087-.011.06-.002h.094l.175.003.214.007 1.026.075c1.021.107 2.039.303 2.998.613 2.707.874 4.504 2.5 4.792 5.048.051.453-.275.862-.729.913s-.862-.275-.913-.728c-.202-1.787-1.504-2.965-3.657-3.661-.84-.271-1.748-.446-2.663-.541l-.778-.061-.144-.007-.236-.007-.111-.002-18.132 3.182z"/><path d="M319.622 218.052a.83.83 0 0 1 .927.653l.008.048 4.168 28.989.028-.016.313-.167.163-.082c2.214-1.094 4.546-1.406 6.763-.416 1.136.507 2.177 1.344 3.104 2.529.281.359.217.878-.143 1.159s-.878.218-1.159-.142c-.765-.978-1.593-1.643-2.476-2.037-1.692-.756-3.542-.508-5.357.388-.374.185-.713.383-1.011.579l-.117.079-.103.073-.09.065-.035.027a.83.83 0 0 1-1.324-.481l-.008-.048-4.351-30.264c-.065-.452.248-.871.7-.936z"/></g><path d="M339.513 304.764c-.661-.082-1.322-.11-2.01-.055-5.921.441-10.245 6.086-8.785 12.145.358 1.487 1.074 2.864 2.065 4.02 1.9 2.176 4.517 3.36 7.298 3.387v5.536c0 4.819 3.91 8.757 8.757 8.757h14.761c4.819 0 8.757-3.911 8.757-8.757v-21.618c0-1.872-1.515-3.387-3.387-3.387h-27.456v-.028zm-4.819 13.797c-1.102-.936-1.762-2.258-1.873-3.69a5.45 5.45 0 0 1 5.012-5.811h.248v10.823c-1.239-.028-2.423-.496-3.387-1.322z" fill="#d7faef"/></g><path d="M86.028 388.321v-6.186l-4.73-8.083h2.934l3.213 5.907 3.133-5.907h2.594l-4.47 8.103v6.166h-2.674zm11.99.2c-3.073 0-5.348-2.136-5.348-5.309v-.159c0-3.233 2.295-5.389 5.368-5.389 3.053 0 5.348 2.136 5.348 5.329v.16c0 3.252-2.295 5.368-5.368 5.368zm.02-1.876c1.796 0 2.874-1.337 2.874-3.473v-.139c0-2.156-1.078-3.473-2.874-3.473s-2.894 1.297-2.894 3.453v.159c0 2.136 1.058 3.473 2.894 3.473zm11.023 1.876c-2.056 0-3.593-1.178-3.593-3.952v-6.685h2.415v6.406c0 1.577.659 2.295 2.056 2.295 1.297 0 2.434-.838 2.434-2.495v-6.206h2.415v10.437h-2.415v-1.636c-.518 1.018-1.616 1.836-3.312 1.836zm17.257 0c-2.614 0-4.59-1.856-4.59-5.249v-.159c0-3.333 1.976-5.449 4.69-5.449 1.696 0 2.754.779 3.333 1.816v-6.426h2.415v15.267h-2.415v-1.756c-.559 1.038-1.896 1.956-3.433 1.956zm.599-1.916c1.676 0 2.914-1.118 2.914-3.452v-.16c0-2.295-1.058-3.433-2.814-3.433-1.776 0-2.814 1.238-2.814 3.493v.159c0 2.295 1.157 3.393 2.714 3.393zm12.768 1.916c-3.073 0-5.348-2.136-5.348-5.309v-.159c0-3.233 2.295-5.389 5.368-5.389 3.054 0 5.349 2.136 5.349 5.329v.16c0 3.252-2.295 5.368-5.369 5.368zm.02-1.876c1.797 0 2.874-1.337 2.874-3.473v-.139c0-2.156-1.077-3.473-2.874-3.473s-2.893 1.297-2.893 3.453v.159c0 2.136 1.057 3.473 2.893 3.473zm7.531 1.676v-10.437h2.414v1.656c.499-1.017 1.657-1.876 3.373-1.876 2.096 0 3.572 1.218 3.572 4.092v6.565h-2.414v-6.346c0-1.577-.639-2.295-2.076-2.295-1.357 0-2.455.838-2.455 2.495v6.146h-2.414zm12.63-9.26l-1.417-.638 1.716-4.61 2.175.858-2.474 4.39zm7.858 9.44c-2.076 0-3.153-1.118-3.153-3.093V379.7h-1.397v-1.816h1.397v-2.295h2.414v2.295h2.295v1.816h-2.295v5.488c0 .918.44 1.337 1.198 1.337.479 0 .838-.06 1.177-.199v1.915c-.379.14-.898.26-1.636.26zm8.57-.18v-15.267h2.414v6.486c.499-1.017 1.657-1.876 3.373-1.876 2.096 0 3.572 1.218 3.572 4.092v6.565h-2.414v-6.346c0-1.577-.639-2.295-2.076-2.295-1.357 0-2.455.838-2.455 2.495v6.146h-2.414zm14.875.2c-1.915 0-3.492-.918-3.492-3.093 0-2.435 2.355-3.313 5.348-3.313h1.298v-.539c0-1.397-.479-2.096-1.896-2.096-1.258 0-1.876.599-1.996 1.637h-2.335c.2-2.435 2.135-3.453 4.47-3.453s4.171.958 4.171 3.812v6.845h-2.375v-1.277c-.678.898-1.596 1.477-3.193 1.477zm.579-1.736c1.477 0 2.575-.779 2.575-2.116v-1.038h-1.238c-1.836 0-3.013.42-3.013 1.697 0 .878.479 1.457 1.676 1.457zm10.199 1.536l-3.812-10.437h2.594l2.735 7.963 2.694-7.963h2.375l-3.772 10.437h-2.814zm12.575.2c-3.074 0-5.289-2.016-5.289-5.309v-.159c0-3.233 2.215-5.389 5.189-5.389 2.594 0 4.929 1.537 4.929 5.269v.698h-7.643c.08 1.976 1.077 3.094 2.874 3.094 1.456 0 2.215-.579 2.394-1.597h2.335c-.339 2.195-2.115 3.393-4.789 3.393zm-2.774-6.506h5.208c-.119-1.796-1.037-2.594-2.534-2.594-1.457 0-2.435.977-2.674 2.594zm17.249 6.506c-1.915 0-3.492-.918-3.492-3.093 0-2.435 2.355-3.313 5.348-3.313h1.298v-.539c0-1.397-.479-2.096-1.896-2.096-1.258 0-1.876.599-1.996 1.637h-2.335c.2-2.435 2.136-3.453 4.47-3.453s4.171.958 4.171 3.812v6.845h-2.374v-1.277c-.679.898-1.597 1.477-3.194 1.477zm.579-1.736c1.477 0 2.575-.779 2.575-2.116v-1.038h-1.238c-1.836 0-3.013.42-3.013 1.697 0 .878.479 1.457 1.676 1.457zm7.757 1.536v-10.437h2.415v1.656c.499-1.017 1.656-1.876 3.373-1.876 2.095 0 3.572 1.218 3.572 4.092v6.565h-2.415v-6.346c0-1.577-.639-2.295-2.075-2.295-1.357 0-2.455.838-2.455 2.495v6.146h-2.415zm12.987 3.573l1.896-4.63-4.131-9.38h2.615l2.774 6.725 2.554-6.725h2.355l-5.688 14.01h-2.375zm15.048-3.573V379.7h-1.417v-1.816h1.417v-1.397c0-2.295 1.277-3.532 3.512-3.532.579 0 .938.059 1.378.199v1.876c-.28-.1-.659-.179-1.098-.179-.978 0-1.377.638-1.377 1.536v1.497h2.375v1.816h-2.375v8.621h-2.415zm10.953.2c-3.073 0-5.288-2.016-5.288-5.309v-.159c0-3.233 2.215-5.389 5.188-5.389 2.595 0 4.93 1.537 4.93 5.269v.698h-7.644c.08 1.976 1.078 3.094 2.874 3.094 1.457 0 2.215-.579 2.395-1.597h2.335c-.339 2.195-2.116 3.393-4.79 3.393zm-2.774-6.506h5.209c-.12-1.796-1.038-2.594-2.535-2.594-1.456 0-2.434.977-2.674 2.594zm14.351 6.506c-3.074 0-5.289-2.016-5.289-5.309v-.159c0-3.233 2.215-5.389 5.189-5.389 2.594 0 4.929 1.537 4.929 5.269v.698h-7.643c.08 1.976 1.077 3.094 2.874 3.094 1.456 0 2.215-.579 2.394-1.597h2.335c-.339 2.195-2.115 3.393-4.789 3.393zm-2.774-6.506h5.208c-.119-1.796-1.037-2.594-2.534-2.594-1.457 0-2.435.977-2.674 2.594zm13.672 6.506c-2.615 0-4.59-1.856-4.59-5.249v-.159c0-3.333 1.975-5.449 4.689-5.449 1.697 0 2.754.779 3.333 1.816v-6.426h2.415v15.267h-2.415v-1.756c-.559 1.038-1.896 1.956-3.432 1.956zm.598-1.916c1.677 0 2.914-1.118 2.914-3.452v-.16c0-2.295-1.058-3.433-2.814-3.433-1.776 0-2.814 1.238-2.814 3.493v.159c0 2.295 1.158 3.393 2.714 3.393zm13.946 1.916c-1.656 0-2.854-.818-3.412-1.876v1.676h-2.415v-15.267h2.415v6.506c.578-.998 1.876-1.896 3.412-1.896 2.615 0 4.63 1.936 4.63 5.309v.16c0 3.352-1.936 5.388-4.63 5.388zm-.598-1.916c1.776 0 2.754-1.197 2.754-3.433v-.159c0-2.315-1.198-3.453-2.774-3.453-1.677 0-2.874 1.138-2.874 3.453v.159c0 2.335 1.137 3.433 2.894 3.433zm10.134 1.916c-1.916 0-3.493-.918-3.493-3.093 0-2.435 2.355-3.313 5.349-3.313h1.297v-.539c0-1.397-.479-2.096-1.896-2.096-1.257 0-1.876.599-1.996 1.637h-2.334c.199-2.435 2.135-3.453 4.47-3.453s4.171.958 4.171 3.812v6.845h-2.375v-1.277c-.679.898-1.597 1.477-3.193 1.477zm.579-1.736c1.476 0 2.574-.779 2.574-2.116v-1.038h-1.237c-1.836 0-3.014.42-3.014 1.697 0 .878.479 1.457 1.677 1.457zm12.327 1.736c-2.994 0-5.269-1.956-5.269-5.289v-.159c0-3.313 2.355-5.409 5.269-5.409 2.315 0 4.49 1.038 4.769 3.912h-2.335c-.199-1.397-1.117-1.976-2.394-1.976-1.657 0-2.834 1.277-2.834 3.433v.159c0 2.275 1.117 3.473 2.893 3.473 1.278 0 2.375-.758 2.515-2.235h2.215c-.179 2.395-1.996 4.091-4.829 4.091zm6.909-.2v-15.267h2.414v9.42l3.732-4.59h2.634l-4.051 4.79 4.391 5.647h-2.794l-3.912-5.129v5.129h-2.414zm16.77-12.153c-.799 0-1.437-.599-1.437-1.377 0-.799.638-1.397 1.437-1.397s1.436.598 1.436 1.397c0 .778-.638 1.377-1.436 1.377zm-2.615 15.905v-1.856c1.058-.08 1.437-.599 1.437-1.477v-10.856h2.415v10.797c0 2.115-.958 3.352-3.852 3.392zm10.288-3.552c-2.056 0-3.593-1.178-3.593-3.952v-6.685h2.415v6.406c0 1.577.659 2.295 2.056 2.295 1.297 0 2.434-.838 2.434-2.495v-6.206h2.415v10.437h-2.415v-1.636c-.518 1.018-1.616 1.836-3.312 1.836zm12.163 0c-2.695 0-4.271-1.237-4.371-3.453h2.275c.12 1.058.659 1.677 2.076 1.677 1.297 0 1.876-.459 1.876-1.337 0-.859-.699-1.178-2.236-1.437-2.754-.439-3.771-1.218-3.771-3.173 0-2.096 1.955-3.134 3.911-3.134 2.135 0 3.832.799 4.091 3.154h-2.235c-.199-.958-.738-1.397-1.856-1.397-1.038 0-1.656.499-1.656 1.237 0 .758.499 1.058 2.155 1.337 2.455.379 3.912.978 3.912 3.193 0 2.115-1.497 3.333-4.171 3.333zm9.841-.02c-2.075 0-3.153-1.118-3.153-3.093V379.7h-1.397v-1.816h1.397v-2.295h2.415v2.295h2.295v1.816H388.4v5.488c0 .918.439 1.337 1.197 1.337.479 0 .838-.06 1.177-.199v1.915c-.379.14-.898.26-1.636.26zm9.727 3.393l1.896-4.63-4.131-9.38h2.615l2.774 6.725 2.554-6.725h2.355l-5.688 14.01h-2.375zm14.074-3.373c-3.073 0-5.289-2.016-5.289-5.309v-.159c0-3.233 2.216-5.389 5.189-5.389 2.594 0 4.929 1.537 4.929 5.269v.698h-7.643c.08 1.976 1.078 3.094 2.874 3.094 1.457 0 2.215-.579 2.395-1.597h2.334c-.339 2.195-2.115 3.393-4.789 3.393zm-2.774-6.506h5.209c-.12-1.796-1.038-2.594-2.535-2.594-1.457 0-2.435.977-2.674 2.594zm13.313 6.486c-2.076 0-3.154-1.118-3.154-3.093V379.7h-1.397v-1.816h1.397v-2.295h2.415v2.295h2.295v1.816h-2.295v5.488c0 .918.439 1.337 1.198 1.337.479 0 .838-.06 1.177-.199v1.915c-.379.14-.898.26-1.636.26z" fill="#000"/><path d="M63.928 417.375c-.754 0-1.131-.125-1.397-.265v-1.006a3.07 3.07 0 0 0 1.327.279c.992 0 1.62-.558 1.62-1.899v-7.223h1.215v7.278c0 1.998-1.243 2.836-2.766 2.836zm7.584 0c-1.453 0-2.542-.796-2.542-2.808v-4.624h1.159v4.568c0 1.286.545 1.858 1.69 1.858 1.034 0 2.012-.684 2.012-1.997v-4.429h1.16v7.307h-1.16v-1.16c-.335.685-1.145 1.285-2.319 1.285zm5.822-.125v-7.307h1.159v1.118c.335-.685 1.132-1.243 2.179-1.243.936 0 1.76.391 2.137 1.369.503-.95 1.593-1.369 2.501-1.369 1.313 0 2.459.782 2.459 2.905v4.527H86.61v-4.61c0-1.286-.545-1.817-1.551-1.817-.95 0-1.928.643-1.928 1.956v4.471h-1.16v-4.61c0-1.286-.545-1.817-1.551-1.817-.95 0-1.928.643-1.928 1.956v4.471h-1.159zm12.715 2.542v-9.849h1.16v1.23c.419-.713 1.411-1.355 2.473-1.355 1.914 0 3.325 1.397 3.325 3.674v.111c0 2.236-1.313 3.772-3.325 3.772-1.201 0-2.054-.6-2.473-1.327v3.744h-1.16zm3.52-3.381c1.453 0 2.235-.978 2.235-2.752v-.111c0-1.844-1.02-2.766-2.249-2.766-1.355 0-2.389.894-2.389 2.766v.111c0 1.872.978 2.752 2.403 2.752zm7.501.964c-1.746 0-2.794-.88-2.864-2.375h1.132c.084.867.545 1.411 1.718 1.411 1.104 0 1.593-.377 1.593-1.159 0-.768-.573-1.02-1.705-1.229-1.899-.35-2.542-.881-2.542-2.152 0-1.355 1.327-2.053 2.473-2.053 1.313 0 2.444.53 2.64 2.109h-1.118c-.167-.796-.614-1.145-1.536-1.145-.839 0-1.383.419-1.383 1.047 0 .657.363.922 1.704 1.16 1.509.279 2.57.614 2.57 2.165 0 1.327-.908 2.221-2.682 2.221zm6.67-.028c-1.327 0-1.969-.782-1.969-1.928v-4.498h-1.048v-.978h1.048v-1.662h1.159v1.662h1.704v.978h-1.704v4.387c0 .712.321 1.061.908 1.061.363 0 .643-.055.894-.153v.978c-.237.083-.517.153-.992.153zm4.643.028c-1.355 0-2.431-.656-2.431-2.151 0-1.69 1.789-2.263 3.66-2.263h1.048v-.531c0-1.16-.447-1.648-1.564-1.648-1.006 0-1.565.419-1.677 1.313h-1.159c.153-1.663 1.481-2.277 2.891-2.277 1.397 0 2.669.572 2.669 2.612v4.82h-1.16v-.922c-.545.684-1.201 1.047-2.277 1.047zm.112-.922c1.229 0 2.165-.628 2.165-1.76v-.908h-1.006c-1.466 0-2.542.363-2.542 1.439 0 .754.363 1.229 1.383 1.229zm5.602.797v-7.307h1.16v1.314c.461-.825 1.089-1.397 2.403-1.439v1.089c-1.467.07-2.403.531-2.403 2.333v4.01h-1.16zm7.542.097c-1.327 0-1.97-.782-1.97-1.928v-4.498h-1.048v-.978h1.048v-1.662h1.16v1.662h1.704v.978h-1.704v4.387c0 .712.321 1.061.908 1.061.363 0 .642-.055.894-.153v.978c-.238.083-.517.153-.992.153zm8.663 0c-1.327 0-1.97-.782-1.97-1.928v-4.498h-1.048v-.978h1.048v-1.662h1.16v1.662h1.704v.978h-1.704v4.387c0 .712.321 1.061.908 1.061.363 0 .642-.055.894-.153v.978c-.238.083-.517.153-.992.153zm2.744-.097v-10.799h1.16v4.652c.335-.685 1.145-1.285 2.347-1.285 1.508 0 2.57.824 2.57 2.947v4.485h-1.159v-4.569c0-1.285-.545-1.858-1.719-1.858-1.075 0-2.039.685-2.039 1.998v4.429h-1.16zm11.339.125c-2.068 0-3.534-1.453-3.534-3.702v-.111c0-2.208 1.411-3.744 3.422-3.744 1.691 0 3.283 1.019 3.283 3.632v.377h-5.504c.056 1.662.852 2.584 2.347 2.584 1.131 0 1.788-.419 1.942-1.271h1.159c-.251 1.467-1.467 2.235-3.115 2.235zm-2.291-4.484h4.275c-.112-1.509-.894-2.109-2.096-2.109-1.187 0-1.983.81-2.179 2.109zm13.97 4.484c-2.04 0-3.577-1.439-3.577-3.702v-.111c0-2.236 1.593-3.744 3.549-3.744 1.522 0 2.947.698 3.171 2.556h-1.146c-.181-1.159-1.019-1.592-2.025-1.592-1.327 0-2.347 1.061-2.347 2.78v.111c0 1.788.978 2.738 2.389 2.738 1.033 0 1.969-.6 2.095-1.788h1.076c-.154 1.579-1.425 2.752-3.185 2.752zm7.967 0c-2.082 0-3.576-1.578-3.576-3.716v-.111c0-2.194 1.522-3.73 3.59-3.73s3.59 1.522 3.59 3.716v.111c0 2.208-1.523 3.73-3.604 3.73zm.014-.964c1.467 0 2.389-1.103 2.389-2.752v-.097c0-1.691-.936-2.78-2.389-2.78-1.467 0-2.389 1.089-2.389 2.766v.111c0 1.663.908 2.752 2.389 2.752zm5.385.839v-7.307h1.16v1.16c.335-.685 1.145-1.285 2.347-1.285 1.508 0 2.57.824 2.57 2.947v4.485h-1.159v-4.569c0-1.285-.545-1.858-1.719-1.858-1.075 0-2.039.685-2.039 1.998v4.429h-1.16zm10.043 0l-2.654-7.307h1.257l2.165 6.133 2.138-6.133h1.201l-2.626 7.307h-1.481zm8.417.125c-2.067 0-3.534-1.453-3.534-3.702v-.111c0-2.208 1.411-3.744 3.422-3.744 1.691 0 3.283 1.019 3.283 3.632v.377h-5.504c.056 1.662.852 2.584 2.347 2.584 1.132 0 1.788-.419 1.942-1.271h1.159c-.251 1.467-1.466 2.235-3.115 2.235zm-2.291-4.484h4.275c-.112-1.509-.894-2.109-2.096-2.109-1.187 0-1.983.81-2.179 2.109zm7.241 4.359v-7.307H198v1.314c.461-.825 1.09-1.397 2.403-1.439v1.089c-1.467.07-2.403.531-2.403 2.333v4.01h-1.16zm7.448.125c-1.747 0-2.794-.88-2.864-2.375h1.131c.084.867.545 1.411 1.719 1.411 1.103 0 1.592-.377 1.592-1.159 0-.768-.573-1.02-1.704-1.229-1.9-.35-2.543-.881-2.543-2.152 0-1.355 1.328-2.053 2.473-2.053 1.313 0 2.445.53 2.64 2.109h-1.117c-.168-.796-.615-1.145-1.537-1.145-.838 0-1.383.419-1.383 1.047 0 .657.363.922 1.704 1.16 1.509.279 2.571.614 2.571 2.165 0 1.327-.908 2.221-2.682 2.221zm6.279 0c-1.355 0-2.431-.656-2.431-2.151 0-1.69 1.788-2.263 3.66-2.263h1.048v-.531c0-1.16-.447-1.648-1.565-1.648-1.006 0-1.565.419-1.676 1.313h-1.16c.154-1.663 1.481-2.277 2.892-2.277 1.397 0 2.668.572 2.668 2.612v4.82h-1.159v-.922c-.545.684-1.202 1.047-2.277 1.047zm.111-.922c1.23 0 2.166-.628 2.166-1.76v-.908h-1.006c-1.467 0-2.543.363-2.543 1.439 0 .754.364 1.229 1.383 1.229zm7.824.894c-1.327 0-1.97-.782-1.97-1.928v-4.498h-1.048v-.978h1.048v-1.662h1.16v1.662h1.704v.978h-1.704v4.387c0 .712.321 1.061.908 1.061.363 0 .642-.055.894-.153v.978c-.238.083-.517.153-.992.153zm3.331-8.926c-.419 0-.768-.35-.768-.769s.349-.768.768-.768.769.349.769.768-.35.769-.769.769zm-.559 8.829v-7.307h1.16v7.307h-1.16zm6.565.125c-2.082 0-3.577-1.578-3.577-3.716v-.111c0-2.194 1.523-3.73 3.591-3.73s3.59 1.522 3.59 3.716v.111c0 2.208-1.523 3.73-3.604 3.73zm.014-.964c1.466 0 2.388-1.103 2.388-2.752v-.097c0-1.691-.936-2.78-2.388-2.78-1.467 0-2.389 1.089-2.389 2.766v.111c0 1.663.908 2.752 2.389 2.752zm5.385.839v-7.307h1.16v1.16c.335-.685 1.145-1.285 2.346-1.285 1.509 0 2.571.824 2.571 2.947v4.485h-1.16v-4.569c0-1.285-.544-1.858-1.718-1.858-1.076 0-2.039.685-2.039 1.998v4.429h-1.16zm15.678.125c-1.187 0-2.053-.6-2.472-1.327v1.202h-1.16v-10.799h1.16v4.722c.419-.713 1.411-1.355 2.472-1.355 1.914 0 3.325 1.397 3.325 3.674v.111c0 2.236-1.313 3.772-3.325 3.772zm-.111-.964c1.452 0 2.235-.978 2.235-2.752v-.111c0-1.844-1.02-2.766-2.249-2.766-1.355 0-2.389.894-2.389 2.766v.111c0 1.872.978 2.752 2.403 2.752zm5.758 3.381l1.383-3.297-2.864-6.552h1.243l2.235 5.239 2.026-5.239h1.187l-4.037 9.849h-1.173zm12.697-2.417c-1.746 0-2.794-.88-2.863-2.375h1.131c.084.867.545 1.411 1.718 1.411 1.104 0 1.593-.377 1.593-1.159 0-.768-.573-1.02-1.704-1.229-1.9-.35-2.543-.881-2.543-2.152 0-1.355 1.327-2.053 2.473-2.053 1.313 0 2.445.53 2.64 2.109h-1.117c-.168-.796-.615-1.145-1.537-1.145-.838 0-1.383.419-1.383 1.047 0 .657.363.922 1.704 1.16 1.509.279 2.571.614 2.571 2.165 0 1.327-.908 2.221-2.683 2.221zm7.439 0c-2.068 0-3.535-1.453-3.535-3.702v-.111c0-2.208 1.411-3.744 3.423-3.744 1.69 0 3.283 1.019 3.283 3.632v.377h-5.504c.056 1.662.852 2.584 2.347 2.584 1.131 0 1.788-.419 1.942-1.271h1.159c-.251 1.467-1.467 2.235-3.115 2.235zm-2.291-4.484h4.275c-.112-1.509-.895-2.109-2.096-2.109-1.187 0-1.984.81-2.179 2.109zm7.241 4.359v-7.307h1.16v1.16c.335-.685 1.145-1.285 2.346-1.285 1.509 0 2.571.824 2.571 2.947v4.485h-1.16v-4.569c0-1.285-.544-1.858-1.718-1.858-1.076 0-2.039.685-2.039 1.998v4.429h-1.16zm11.101.125c-1.914 0-3.297-1.355-3.297-3.632v-.112c0-2.235 1.397-3.813 3.409-3.813 1.215 0 1.97.586 2.389 1.299v-4.666h1.159v10.799h-1.159v-1.258c-.419.713-1.439 1.383-2.501 1.383zm.126-.964c1.355 0 2.417-.894 2.417-2.766v-.111c0-1.872-.894-2.752-2.319-2.752-1.453 0-2.319 1.019-2.319 2.793v.112c0 1.844.992 2.724 2.221 2.724zm6.467-7.99c-.419 0-.768-.35-.768-.769s.349-.768.768-.768.769.349.769.768-.35.769-.769.769zm-.559 8.829v-7.307h1.16v7.307h-1.16zm3.533 0v-7.307h1.16v1.16c.335-.685 1.145-1.285 2.347-1.285 1.508 0 2.57.824 2.57 2.947v4.485h-1.16v-4.569c0-1.285-.544-1.858-1.718-1.858-1.075 0-2.039.685-2.039 1.998v4.429h-1.16zm11.269 2.668c-2.165 0-3.115-1.02-3.311-2.249h1.187c.168.838.867 1.271 2.11 1.271 1.439 0 2.347-.685 2.347-2.249v-1.062c-.419.712-1.411 1.383-2.473 1.383-1.914 0-3.325-1.453-3.325-3.464v-.098c0-1.984 1.397-3.632 3.409-3.632 1.215 0 1.97.586 2.389 1.299v-1.174h1.159v6.818c-.014 2.123-1.453 3.157-3.492 3.157zm-.014-3.87c1.355 0 2.389-.95 2.389-2.584v-.098c0-1.635-.894-2.584-2.319-2.584-1.453 0-2.319 1.075-2.319 2.612v.112c0 1.592 1.02 2.542 2.249 2.542zm11.38 1.327c-1.355 0-2.431-.656-2.431-2.151 0-1.69 1.788-2.263 3.66-2.263h1.048v-.531c0-1.16-.447-1.648-1.565-1.648-1.006 0-1.564.419-1.676 1.313h-1.16c.154-1.663 1.481-2.277 2.892-2.277 1.397 0 2.668.572 2.668 2.612v4.82h-1.159v-.922c-.545.684-1.202 1.047-2.277 1.047zm.111-.922c1.23 0 2.166-.628 2.166-1.76v-.908h-1.006c-1.467 0-2.543.363-2.543 1.439 0 .754.364 1.229 1.383 1.229zm9.551.797v-6.329h-1.047v-.978h1.047v-1.187c0-1.481.727-2.347 2.18-2.347.377 0 .572.042.866.14v.978a2.28 2.28 0 0 0-.825-.154c-.754 0-1.061.517-1.061 1.257v1.313h1.788v.978h-1.788v6.329h-1.16zm7.213.125c-2.067 0-3.534-1.453-3.534-3.702v-.111c0-2.208 1.411-3.744 3.422-3.744 1.691 0 3.283 1.019 3.283 3.632v.377h-5.504c.056 1.662.852 2.584 2.347 2.584 1.132 0 1.788-.419 1.942-1.271h1.159c-.251 1.467-1.467 2.235-3.115 2.235zm-2.291-4.484h4.275c-.112-1.509-.894-2.109-2.096-2.109-1.187 0-1.983.81-2.179 2.109zm10.231 4.484c-2.068 0-3.534-1.453-3.534-3.702v-.111c0-2.208 1.41-3.744 3.422-3.744 1.69 0 3.283 1.019 3.283 3.632v.377h-5.504c.056 1.662.852 2.584 2.347 2.584 1.131 0 1.788-.419 1.942-1.271h1.159c-.251 1.467-1.467 2.235-3.115 2.235zm-2.291-4.484h4.275c-.112-1.509-.895-2.109-2.096-2.109-1.187 0-1.984.81-2.179 2.109zm9.993 4.484c-1.914 0-3.297-1.355-3.297-3.632v-.112c0-2.235 1.397-3.813 3.409-3.813 1.215 0 1.97.586 2.389 1.299v-4.666h1.159v10.799h-1.159v-1.258c-.419.713-1.439 1.383-2.501 1.383zm.126-.964c1.355 0 2.417-.894 2.417-2.766v-.111c0-1.872-.894-2.752-2.319-2.752-1.453 0-2.319 1.019-2.319 2.793v.112c0 1.844.992 2.724 2.221 2.724zm9.513.964c-1.188 0-2.054-.6-2.473-1.327v1.202h-1.16v-10.799h1.16v4.722c.419-.713 1.411-1.355 2.473-1.355 1.913 0 3.324 1.397 3.324 3.674v.111c0 2.236-1.313 3.772-3.324 3.772zm-.112-.964c1.453 0 2.235-.978 2.235-2.752v-.111c0-1.844-1.02-2.766-2.249-2.766-1.355 0-2.389.894-2.389 2.766v.111c0 1.872.978 2.752 2.403 2.752zm7.068.964c-1.355 0-2.431-.656-2.431-2.151 0-1.69 1.788-2.263 3.66-2.263h1.048v-.531c0-1.16-.447-1.648-1.565-1.648-1.006 0-1.564.419-1.676 1.313h-1.16c.154-1.663 1.481-2.277 2.892-2.277 1.397 0 2.668.572 2.668 2.612v4.82h-1.159v-.922c-.545.684-1.201 1.047-2.277 1.047zm.112-.922c1.229 0 2.165-.628 2.165-1.76v-.908h-1.006c-1.467 0-2.542.363-2.542 1.439 0 .754.363 1.229 1.383 1.229zm8.633.922c-2.039 0-3.576-1.439-3.576-3.702v-.111c0-2.236 1.593-3.744 3.548-3.744 1.523 0 2.948.698 3.172 2.556h-1.146c-.182-1.159-1.02-1.592-2.026-1.592-1.327 0-2.346 1.061-2.346 2.78v.111c0 1.788.977 2.738 2.388 2.738 1.034 0 1.97-.6 2.096-1.788h1.076c-.154 1.579-1.425 2.752-3.186 2.752zm4.936-.125v-10.799h1.16v6.859l3.031-3.367h1.355l-3.129 3.395 3.394 3.912h-1.41l-3.241-3.786v3.786h-1.16zm10.9 0v-7.307h1.16v1.314c.461-.825 1.089-1.397 2.403-1.439v1.089c-1.467.07-2.403.531-2.403 2.333v4.01h-1.16zm8.037.125c-2.067 0-3.534-1.453-3.534-3.702v-.111c0-2.208 1.411-3.744 3.423-3.744 1.69 0 3.283 1.019 3.283 3.632v.377h-5.505c.056 1.662.853 2.584 2.347 2.584 1.132 0 1.788-.419 1.942-1.271h1.16c-.252 1.467-1.467 2.235-3.116 2.235zm-2.291-4.484h4.275c-.112-1.509-.894-2.109-2.095-2.109-1.188 0-1.984.81-2.18 2.109zm12.494 6.901v-3.8c-.419.713-1.439 1.383-2.5 1.383-1.914 0-3.297-1.355-3.297-3.632v-.112c0-2.235 1.397-3.813 3.408-3.813 1.216 0 1.97.586 2.389 1.299v-1.174h1.16v9.849h-1.16zm-2.375-3.381c1.356 0 2.417-.894 2.417-2.766v-.111c0-1.872-.894-2.752-2.319-2.752-1.453 0-2.319 1.019-2.319 2.793v.112c0 1.844.992 2.724 2.221 2.724zm8.354.964c-1.453 0-2.543-.796-2.543-2.808v-4.624h1.16v4.568c0 1.286.544 1.858 1.69 1.858 1.034 0 2.012-.684 2.012-1.997v-4.429h1.159v7.307h-1.159v-1.16c-.336.685-1.146 1.285-2.319 1.285zm8.811 0c-2.067 0-3.534-1.453-3.534-3.702v-.111c0-2.208 1.411-3.744 3.422-3.744 1.691 0 3.283 1.019 3.283 3.632v.377h-5.504c.056 1.662.852 2.584 2.347 2.584 1.132 0 1.788-.419 1.942-1.271h1.159c-.251 1.467-1.466 2.235-3.115 2.235zm-2.291-4.484h4.275c-.112-1.509-.894-2.109-2.096-2.109-1.187 0-1.983.81-2.179 2.109zm9.573 4.484c-1.747 0-2.794-.88-2.864-2.375h1.131c.084.867.545 1.411 1.719 1.411 1.103 0 1.592-.377 1.592-1.159 0-.768-.573-1.02-1.704-1.229-1.9-.35-2.543-.881-2.543-2.152 0-1.355 1.328-2.053 2.473-2.053 1.313 0 2.445.53 2.64 2.109h-1.117c-.168-.796-.615-1.145-1.537-1.145-.838 0-1.383.419-1.383 1.047 0 .657.363.922 1.704 1.16 1.509.279 2.571.614 2.571 2.165 0 1.327-.908 2.221-2.682 2.221zm6.67-.028c-1.327 0-1.97-.782-1.97-1.928v-4.498h-1.048v-.978h1.048v-1.662h1.16v1.662h1.704v.978h-1.704v4.387c0 .712.321 1.061.908 1.061.363 0 .642-.055.894-.153v.978c-.238.083-.517.153-.992.153z" fill="#68737d"/><defs><filter id="C" x="87.193" y="209.409" width="230.126" height="140.917" filterUnits="userSpaceOnUse" color-interpolation-filters="sRGB"><feFlood flood-opacity="0" result="A"/><feColorMatrix in="SourceAlpha" values="0 0 0 0 0 0 0 0 0 0 0 0 0 0 0 0 0 0 127 0"/><feOffset dy="3.2094"/><feGaussianBlur stdDeviation="1.872"/><feColorMatrix values="0 0 0 0 0.529412 0 0 0 0 0.588235 0 0 0 0 0.65098 0 0 0 0.16 0"/><feBlend in2="A" result="C"/><feColorMatrix in="SourceAlpha" values="0 0 0 0 0 0 0 0 0 0 0 0 0 0 0 0 0 0 127 0"/><feOffset dy="-0.5349"/><feGaussianBlur stdDeviation="1.07"/><feColorMatrix values="0 0 0 0 0.529412 0 0 0 0 0.588235 0 0 0 0 0.65098 0 0 0 0.05 0"/><feBlend in2="C"/><feBlend in="SourceGraphic"/></filter><clipPath id="D"><path transform="matrix(.992615 -.121305 .121305 .992615 134.387 240.487)" d="M0 0h33.699v9.628H0z" class="D"/></clipPath><clipPath id="E"><path transform="matrix(.992615 -.121305 .121305 .992615 176.332 235.361)" d="M0 0h18.187v9.628H0z" class="D"/></clipPath></defs></svg>