<svg width="1040" height="291" viewBox="0 0 1040 291" fill="none" xmlns="http://www.w3.org/2000/svg">
<g clip-path="url(#clip0_588_8172)">
<rect x="183.75" y="24" width="203" height="40" rx="4" fill="#3C5AFE"/>
<path d="M201.386 50.5V40.49H204.606C206.846 40.49 208.316 41.484 208.316 43.584V43.64C208.316 45.754 206.79 46.692 204.648 46.692H203.248V50.5H201.386ZM203.248 45.348H204.606C205.838 45.348 206.496 44.746 206.496 43.64V43.584C206.496 42.394 205.796 41.932 204.606 41.932H203.248V45.348ZM209.778 50.5V43.178H211.472V44.55C211.934 43.626 212.62 43.08 213.852 43.066V44.648C212.368 44.662 211.472 45.138 211.472 46.692V50.5H209.778ZM218.454 50.64C216.298 50.64 214.702 49.142 214.702 46.916V46.804C214.702 44.536 216.312 43.024 218.468 43.024C220.61 43.024 222.22 44.522 222.22 46.762V46.874C222.22 49.156 220.61 50.64 218.454 50.64ZM218.468 49.324C219.728 49.324 220.484 48.386 220.484 46.888V46.79C220.484 45.278 219.728 44.354 218.468 44.354C217.208 44.354 216.438 45.264 216.438 46.776V46.888C216.438 48.386 217.18 49.324 218.468 49.324ZM225.408 50.5L222.734 43.178H224.554L226.472 48.764L228.362 43.178H230.028L227.382 50.5H225.408ZM232.151 41.974C231.591 41.974 231.143 41.554 231.143 41.008C231.143 40.448 231.591 40.028 232.151 40.028C232.711 40.028 233.159 40.448 233.159 41.008C233.159 41.554 232.711 41.974 232.151 41.974ZM231.325 50.5V43.178H233.019V50.5H231.325ZM237.828 50.64C235.994 50.64 234.608 49.338 234.608 46.958V46.846C234.608 44.508 235.994 43.024 237.898 43.024C239.088 43.024 239.83 43.57 240.236 44.298V39.79H241.93V50.5H240.236V49.268C239.844 49.996 238.906 50.64 237.828 50.64ZM238.248 49.296C239.424 49.296 240.292 48.512 240.292 46.874V46.762C240.292 45.152 239.55 44.354 238.318 44.354C237.072 44.354 236.344 45.222 236.344 46.804V46.916C236.344 48.526 237.156 49.296 238.248 49.296ZM247.164 50.64C245.008 50.64 243.454 49.226 243.454 46.916V46.804C243.454 44.536 245.008 43.024 247.094 43.024C248.914 43.024 250.552 44.102 250.552 46.72V47.21H245.19C245.246 48.596 245.946 49.38 247.206 49.38C248.228 49.38 248.76 48.974 248.886 48.26H250.524C250.286 49.8 249.04 50.64 247.164 50.64ZM245.218 46.076H248.872C248.788 44.816 248.144 44.256 247.094 44.256C246.072 44.256 245.386 44.942 245.218 46.076ZM258.663 50.64C256.507 50.64 254.911 49.142 254.911 46.916V46.804C254.911 44.536 256.521 43.024 258.677 43.024C260.819 43.024 262.429 44.522 262.429 46.762V46.874C262.429 49.156 260.819 50.64 258.663 50.64ZM258.677 49.324C259.937 49.324 260.693 48.386 260.693 46.888V46.79C260.693 45.278 259.937 44.354 258.677 44.354C257.417 44.354 256.647 45.264 256.647 46.776V46.888C256.647 48.386 257.389 49.324 258.677 49.324ZM263.959 50.5V43.178H265.653V44.55C266.115 43.626 266.801 43.08 268.033 43.066V44.648C266.549 44.662 265.653 45.138 265.653 46.692V50.5H263.959ZM277.494 50.64C274.288 50.64 272.496 48.512 272.496 45.558V45.446C272.496 42.464 274.568 40.336 277.494 40.336C279.636 40.336 281.54 41.316 281.806 43.71H279.944C279.72 42.38 278.824 41.806 277.522 41.806C275.562 41.806 274.428 43.262 274.428 45.46V45.572C274.428 47.714 275.422 49.184 277.522 49.184C279.398 49.184 280.168 48.05 280.224 46.664H277.704V45.264H282.058V46.188C282.058 48.96 280.322 50.64 277.494 50.64ZM284.583 41.974C284.023 41.974 283.575 41.554 283.575 41.008C283.575 40.448 284.023 40.028 284.583 40.028C285.143 40.028 285.591 40.448 285.591 41.008C285.591 41.554 285.143 41.974 284.583 41.974ZM283.757 50.5V43.178H285.451V50.5H283.757ZM289.434 50.5L286.76 43.178H288.58L290.498 48.764L292.388 43.178H294.054L291.408 50.5H289.434ZM298.255 50.64C296.099 50.64 294.545 49.226 294.545 46.916V46.804C294.545 44.536 296.099 43.024 298.185 43.024C300.005 43.024 301.643 44.102 301.643 46.72V47.21H296.281C296.337 48.596 297.037 49.38 298.297 49.38C299.319 49.38 299.851 48.974 299.977 48.26H301.615C301.377 49.8 300.131 50.64 298.255 50.64ZM296.309 46.076H299.963C299.879 44.816 299.235 44.256 298.185 44.256C297.163 44.256 296.477 44.942 296.309 46.076ZM306.632 50.5V40.49H312.834V41.974H308.494V44.956H311.91V46.398H308.494V50.5H306.632ZM317.15 50.64C314.994 50.64 313.44 49.226 313.44 46.916V46.804C313.44 44.536 314.994 43.024 317.08 43.024C318.9 43.024 320.538 44.102 320.538 46.72V47.21H315.176C315.232 48.596 315.932 49.38 317.192 49.38C318.214 49.38 318.746 48.974 318.872 48.26H320.51C320.272 49.8 319.026 50.64 317.15 50.64ZM315.204 46.076H318.858C318.774 44.816 318.13 44.256 317.08 44.256C316.058 44.256 315.372 44.942 315.204 46.076ZM325.271 50.64C323.115 50.64 321.561 49.226 321.561 46.916V46.804C321.561 44.536 323.115 43.024 325.201 43.024C327.021 43.024 328.659 44.102 328.659 46.72V47.21H323.297C323.353 48.596 324.053 49.38 325.313 49.38C326.335 49.38 326.867 48.974 326.993 48.26H328.631C328.393 49.8 327.147 50.64 325.271 50.64ZM323.325 46.076H326.979C326.895 44.816 326.251 44.256 325.201 44.256C324.179 44.256 323.493 44.942 323.325 46.076ZM332.916 50.64C331.082 50.64 329.696 49.338 329.696 46.958V46.846C329.696 44.508 331.082 43.024 332.986 43.024C334.176 43.024 334.918 43.57 335.324 44.298V39.79H337.018V50.5H335.324V49.268C334.932 49.996 333.994 50.64 332.916 50.64ZM333.336 49.296C334.512 49.296 335.38 48.512 335.38 46.874V46.762C335.38 45.152 334.638 44.354 333.406 44.354C332.16 44.354 331.432 45.222 331.432 46.804V46.916C331.432 48.526 332.244 49.296 333.336 49.296ZM343.119 50.64C341.957 50.64 341.117 50.066 340.725 49.324V50.5H339.031V39.79H340.725V44.354C341.131 43.654 342.041 43.024 343.119 43.024C344.953 43.024 346.367 44.382 346.367 46.748V46.86C346.367 49.212 345.009 50.64 343.119 50.64ZM342.699 49.296C343.945 49.296 344.631 48.456 344.631 46.888V46.776C344.631 45.152 343.791 44.354 342.685 44.354C341.509 44.354 340.669 45.152 340.669 46.776V46.888C340.669 48.526 341.467 49.296 342.699 49.296ZM349.809 50.64C348.465 50.64 347.359 49.996 347.359 48.47C347.359 46.762 349.011 46.146 351.111 46.146H352.021V45.768C352.021 44.788 351.685 44.298 350.691 44.298C349.809 44.298 349.375 44.718 349.291 45.446H347.653C347.793 43.738 349.151 43.024 350.789 43.024C352.427 43.024 353.715 43.696 353.715 45.698V50.5H352.049V49.604C351.573 50.234 350.929 50.64 349.809 50.64ZM350.215 49.422C351.251 49.422 352.021 48.876 352.021 47.938V47.21H351.153C349.865 47.21 349.039 47.504 349.039 48.4C349.039 49.016 349.375 49.422 350.215 49.422ZM358.862 50.64C356.762 50.64 355.166 49.268 355.166 46.93V46.818C355.166 44.494 356.818 43.024 358.862 43.024C360.486 43.024 362.012 43.752 362.208 45.768H360.57C360.43 44.788 359.786 44.382 358.89 44.382C357.728 44.382 356.902 45.278 356.902 46.79V46.902C356.902 48.498 357.686 49.338 358.932 49.338C359.828 49.338 360.598 48.806 360.696 47.77H362.25C362.124 49.45 360.85 50.64 358.862 50.64ZM363.709 50.5V39.79H365.403V46.398L368.021 43.178H369.869L367.027 46.538L370.107 50.5H368.147L365.403 46.902V50.5H363.709Z" fill="white"/>
<rect x="394.75" y="24" width="137" height="40" rx="4" fill="#ECF3FF"/>
<path d="M414.733 50.3144C414.735 50.308 414.736 50.3015 414.737 50.2948L414.733 50.3144ZM422.759 50.2709L422.758 50.2651C422.758 50.2673 422.758 50.2692 422.759 50.2709ZM416.783 41.5773L416.084 41.6785L412.345 42.2192L415.558 45.4004L415.444 46.0821L414.812 49.8439L418.751 47.7516L419.378 48.0857L422.688 49.852L421.942 45.4004L425.155 42.2192L420.717 41.5773L420.408 40.9418L418.75 37.5317L416.783 41.5773ZM418.75 36C418.979 36 419.187 36.0567 419.374 36.17C419.562 36.2834 419.702 36.4379 419.796 36.6337L421.607 40.3589L425.775 40.9617C425.984 40.9926 426.171 41.075 426.337 41.209C426.504 41.343 426.624 41.513 426.696 41.7191C426.759 41.9149 426.767 42.1132 426.72 42.3142C426.673 42.5151 426.572 42.6929 426.415 42.8474L423.371 45.8616L424.074 50.0504C424.115 50.2565 424.092 50.4574 424.003 50.6532C423.915 50.849 423.782 51.0087 423.605 51.1324C423.501 51.2045 423.392 51.256 423.277 51.287C423.163 51.3179 423.048 51.3333 422.934 51.3333C422.84 51.3333 422.747 51.323 422.653 51.3024C422.559 51.2818 422.466 51.2457 422.372 51.1942L418.75 49.2621L415.112 51.1942C415.029 51.2457 414.941 51.2818 414.847 51.3024C414.753 51.323 414.66 51.3333 414.566 51.3333C414.441 51.3333 414.324 51.3179 414.215 51.287C414.105 51.256 413.999 51.2045 413.895 51.1324C413.718 51.0087 413.585 50.849 413.497 50.6532C413.408 50.4574 413.385 50.2565 413.426 50.0504L414.129 45.8616L411.085 42.8474C410.928 42.6929 410.827 42.5151 410.78 42.3142C410.733 42.1132 410.741 41.9149 410.804 41.7191C410.876 41.5233 410.996 41.3558 411.163 41.2167C411.329 41.0776 411.516 40.9926 411.725 40.9617L415.893 40.3589L417.704 36.6337C417.798 36.4379 417.938 36.2834 418.126 36.17C418.313 36.0567 418.521 36 418.75 36Z" fill="#3C5AFE"/>
<path d="M440.43 50.64C437.224 50.64 435.432 48.512 435.432 45.558V45.446C435.432 42.464 437.504 40.336 440.43 40.336C442.572 40.336 444.476 41.316 444.742 43.71H442.88C442.656 42.38 441.76 41.806 440.458 41.806C438.498 41.806 437.364 43.262 437.364 45.46V45.572C437.364 47.714 438.358 49.184 440.458 49.184C442.334 49.184 443.104 48.05 443.16 46.664H440.64V45.264H444.994V46.188C444.994 48.96 443.258 50.64 440.43 50.64ZM447.52 41.974C446.96 41.974 446.512 41.554 446.512 41.008C446.512 40.448 446.96 40.028 447.52 40.028C448.08 40.028 448.528 40.448 448.528 41.008C448.528 41.554 448.08 41.974 447.52 41.974ZM446.694 50.5V43.178H448.388V50.5H446.694ZM452.37 50.5L449.696 43.178H451.516L453.434 48.764L455.324 43.178H456.99L454.344 50.5H452.37ZM461.192 50.64C459.036 50.64 457.482 49.226 457.482 46.916V46.804C457.482 44.536 459.036 43.024 461.122 43.024C462.942 43.024 464.58 44.102 464.58 46.72V47.21H459.218C459.274 48.596 459.974 49.38 461.234 49.38C462.256 49.38 462.788 48.974 462.914 48.26H464.552C464.314 49.8 463.068 50.64 461.192 50.64ZM459.246 46.076H462.9C462.816 44.816 462.172 44.256 461.122 44.256C460.1 44.256 459.414 44.942 459.246 46.076ZM471.571 50.5V41.96H468.785V40.49H476.233V41.96H473.447V50.5H471.571ZM477.591 50.5V39.79H479.285V44.34C479.635 43.626 480.447 43.024 481.651 43.024C483.121 43.024 484.157 43.878 484.157 45.894V50.5H482.463V46.048C482.463 44.942 482.015 44.438 481.007 44.438C480.055 44.438 479.285 45.026 479.285 46.188V50.5H477.591ZM488.027 50.64C486.683 50.64 485.577 49.996 485.577 48.47C485.577 46.762 487.229 46.146 489.329 46.146H490.239V45.768C490.239 44.788 489.903 44.298 488.909 44.298C488.027 44.298 487.593 44.718 487.509 45.446H485.871C486.011 43.738 487.369 43.024 489.007 43.024C490.645 43.024 491.933 43.696 491.933 45.698V50.5H490.267V49.604C489.791 50.234 489.147 50.64 488.027 50.64ZM488.433 49.422C489.469 49.422 490.239 48.876 490.239 47.938V47.21H489.371C488.083 47.21 487.257 47.504 487.257 48.4C487.257 49.016 487.593 49.422 488.433 49.422ZM493.874 50.5V43.178H495.568V44.34C495.918 43.626 496.73 43.024 497.934 43.024C499.404 43.024 500.44 43.878 500.44 45.894V50.5H498.746V46.048C498.746 44.942 498.298 44.438 497.29 44.438C496.338 44.438 495.568 45.026 495.568 46.188V50.5H493.874ZM502.392 50.5V39.79H504.086V46.398L506.704 43.178H508.552L505.71 46.538L508.79 50.5H506.83L504.086 46.902V50.5H502.392ZM512.308 50.64C510.418 50.64 509.312 49.772 509.242 48.218H510.838C510.922 48.96 511.3 49.394 512.294 49.394C513.204 49.394 513.61 49.072 513.61 48.456C513.61 47.854 513.12 47.63 512.042 47.448C510.11 47.14 509.396 46.594 509.396 45.222C509.396 43.752 510.768 43.024 512.14 43.024C513.638 43.024 514.828 43.584 515.01 45.236H513.442C513.302 44.564 512.924 44.256 512.14 44.256C511.412 44.256 510.978 44.606 510.978 45.124C510.978 45.656 511.328 45.866 512.49 46.062C514.212 46.328 515.234 46.748 515.234 48.302C515.234 49.786 514.184 50.64 512.308 50.64Z" fill="#3C5AFE"/>
</g>
<g clip-path="url(#clip1_588_8172)">
<rect x="183.75" y="161" width="97" height="40" rx="4" fill="#3C5AFE"/>
<path d="M201.009 187.5V177.49H207.211V178.974H202.871V181.956H206.287V183.398H202.871V187.5H201.009ZM211.527 187.64C209.371 187.64 207.817 186.226 207.817 183.916V183.804C207.817 181.536 209.371 180.024 211.457 180.024C213.277 180.024 214.915 181.102 214.915 183.72V184.21H209.553C209.609 185.596 210.309 186.38 211.569 186.38C212.591 186.38 213.123 185.974 213.249 185.26H214.887C214.649 186.8 213.403 187.64 211.527 187.64ZM209.581 183.076H213.235C213.151 181.816 212.507 181.256 211.457 181.256C210.435 181.256 209.749 181.942 209.581 183.076ZM219.648 187.64C217.492 187.64 215.938 186.226 215.938 183.916V183.804C215.938 181.536 217.492 180.024 219.578 180.024C221.398 180.024 223.036 181.102 223.036 183.72V184.21H217.674C217.73 185.596 218.43 186.38 219.69 186.38C220.712 186.38 221.244 185.974 221.37 185.26H223.008C222.77 186.8 221.524 187.64 219.648 187.64ZM217.702 183.076H221.356C221.272 181.816 220.628 181.256 219.578 181.256C218.556 181.256 217.87 181.942 217.702 183.076ZM227.293 187.64C225.459 187.64 224.073 186.338 224.073 183.958V183.846C224.073 181.508 225.459 180.024 227.363 180.024C228.553 180.024 229.295 180.57 229.701 181.298V176.79H231.395V187.5H229.701V186.268C229.309 186.996 228.371 187.64 227.293 187.64ZM227.713 186.296C228.889 186.296 229.757 185.512 229.757 183.874V183.762C229.757 182.152 229.015 181.354 227.783 181.354C226.537 181.354 225.809 182.222 225.809 183.804V183.916C225.809 185.526 226.621 186.296 227.713 186.296ZM237.496 187.64C236.334 187.64 235.494 187.066 235.102 186.324V187.5H233.408V176.79H235.102V181.354C235.508 180.654 236.418 180.024 237.496 180.024C239.33 180.024 240.744 181.382 240.744 183.748V183.86C240.744 186.212 239.386 187.64 237.496 187.64ZM237.076 186.296C238.322 186.296 239.008 185.456 239.008 183.888V183.776C239.008 182.152 238.168 181.354 237.062 181.354C235.886 181.354 235.046 182.152 235.046 183.776V183.888C235.046 185.526 235.844 186.296 237.076 186.296ZM244.186 187.64C242.842 187.64 241.736 186.996 241.736 185.47C241.736 183.762 243.388 183.146 245.488 183.146H246.398V182.768C246.398 181.788 246.062 181.298 245.068 181.298C244.186 181.298 243.752 181.718 243.668 182.446H242.03C242.17 180.738 243.528 180.024 245.166 180.024C246.804 180.024 248.092 180.696 248.092 182.698V187.5H246.426V186.604C245.95 187.234 245.306 187.64 244.186 187.64ZM244.592 186.422C245.628 186.422 246.398 185.876 246.398 184.938V184.21H245.53C244.242 184.21 243.416 184.504 243.416 185.4C243.416 186.016 243.752 186.422 244.592 186.422ZM253.239 187.64C251.139 187.64 249.543 186.268 249.543 183.93V183.818C249.543 181.494 251.195 180.024 253.239 180.024C254.863 180.024 256.389 180.752 256.585 182.768H254.947C254.807 181.788 254.163 181.382 253.267 181.382C252.105 181.382 251.279 182.278 251.279 183.79V183.902C251.279 185.498 252.063 186.338 253.309 186.338C254.205 186.338 254.975 185.806 255.073 184.77H256.627C256.501 186.45 255.227 187.64 253.239 187.64ZM258.086 187.5V176.79H259.78V183.398L262.398 180.178H264.246L261.404 183.538L264.484 187.5H262.524L259.78 183.902V187.5H258.086Z" fill="white"/>
</g>
<g clip-path="url(#clip2_588_8172)">
<rect x="183.75" y="95" width="104" height="40" rx="4" fill="#3C5AFE"/>
<path d="M207.75 107C207.979 107 208.187 107.057 208.374 107.17C208.562 107.283 208.702 107.438 208.796 107.634L210.607 111.359L214.775 111.962C214.984 111.993 215.171 112.075 215.337 112.209C215.504 112.343 215.624 112.513 215.696 112.719C215.759 112.915 215.767 113.113 215.72 113.314C215.673 113.515 215.572 113.693 215.415 113.847L212.371 116.862L213.074 121.05C213.115 121.256 213.092 121.457 213.003 121.653C212.915 121.849 212.782 122.009 212.605 122.132C212.501 122.205 212.392 122.256 212.277 122.287C212.163 122.318 212.048 122.333 211.934 122.333C211.84 122.333 211.747 122.323 211.653 122.302C211.559 122.282 211.466 122.246 211.372 122.194L207.75 120.262L204.112 122.194C204.029 122.246 203.941 122.282 203.847 122.302C203.753 122.323 203.66 122.333 203.566 122.333C203.441 122.333 203.324 122.318 203.215 122.287C203.105 122.256 202.999 122.205 202.895 122.132C202.718 122.009 202.585 121.849 202.497 121.653C202.408 121.457 202.385 121.256 202.426 121.05L203.129 116.862L200.085 113.847C199.928 113.693 199.827 113.515 199.78 113.314C199.733 113.113 199.741 112.915 199.804 112.719C199.876 112.523 199.996 112.356 200.163 112.217C200.329 112.078 200.516 111.993 200.725 111.962L204.893 111.359L206.704 107.634C206.798 107.438 206.938 107.283 207.126 107.17C207.313 107.057 207.521 107 207.75 107Z" fill="white"/>
<path d="M227.254 121.5V112.96H224.468V111.49H231.916V112.96H229.13V121.5H227.254ZM233.275 121.5V110.79H234.969V115.34C235.319 114.626 236.131 114.024 237.335 114.024C238.805 114.024 239.841 114.878 239.841 116.894V121.5H238.147V117.048C238.147 115.942 237.699 115.438 236.691 115.438C235.739 115.438 234.969 116.026 234.969 117.188V121.5H233.275ZM243.71 121.64C242.366 121.64 241.26 120.996 241.26 119.47C241.26 117.762 242.912 117.146 245.012 117.146H245.922V116.768C245.922 115.788 245.586 115.298 244.592 115.298C243.71 115.298 243.276 115.718 243.192 116.446H241.554C241.694 114.738 243.052 114.024 244.69 114.024C246.328 114.024 247.616 114.696 247.616 116.698V121.5H245.95V120.604C245.474 121.234 244.83 121.64 243.71 121.64ZM244.116 120.422C245.152 120.422 245.922 119.876 245.922 118.938V118.21H245.054C243.766 118.21 242.94 118.504 242.94 119.4C242.94 120.016 243.276 120.422 244.116 120.422ZM249.558 121.5V114.178H251.252V115.34C251.602 114.626 252.414 114.024 253.618 114.024C255.088 114.024 256.124 114.878 256.124 116.894V121.5H254.43V117.048C254.43 115.942 253.982 115.438 252.974 115.438C252.022 115.438 251.252 116.026 251.252 117.188V121.5H249.558ZM258.075 121.5V110.79H259.769V117.398L262.387 114.178H264.235L261.393 117.538L264.473 121.5H262.513L259.769 117.902V121.5H258.075ZM267.992 121.64C266.102 121.64 264.996 120.772 264.926 119.218H266.522C266.606 119.96 266.984 120.394 267.978 120.394C268.888 120.394 269.294 120.072 269.294 119.456C269.294 118.854 268.804 118.63 267.726 118.448C265.794 118.14 265.08 117.594 265.08 116.222C265.08 114.752 266.452 114.024 267.824 114.024C269.322 114.024 270.512 114.584 270.694 116.236H269.126C268.986 115.564 268.608 115.256 267.824 115.256C267.096 115.256 266.662 115.606 266.662 116.124C266.662 116.656 267.012 116.866 268.174 117.062C269.896 117.328 270.918 117.748 270.918 119.302C270.918 120.786 269.868 121.64 267.992 121.64Z" fill="white"/>
</g>
<rect x="772.75" y="142" width="121" height="40" rx="4" fill="#3C5AFE"/>
<path fill-rule="evenodd" clip-rule="evenodd" d="M796.75 155C798.944 155 800.826 155.625 802.396 156.875C803.965 158.125 804.75 159.639 804.75 161.417C804.75 163.167 803.979 164.646 802.438 165.854C800.896 167.063 799.014 167.667 796.792 167.667C795.597 167.667 794.556 167.514 793.667 167.208C793.667 167.208 793.278 167.125 793.167 167.125C793 167.125 790.044 168.123 790.044 168.123C789.698 168.239 789.5 168.054 789.61 167.682C789.61 167.682 790.25 165.528 790.25 165.5C790.25 165.333 790 164.917 790 164.917C789.167 163.861 788.75 162.694 788.75 161.417C788.75 159.639 789.535 158.125 791.104 156.875C792.674 155.625 794.556 155 796.75 155ZM793.167 165.792C793.317 165.792 793.442 165.809 793.636 165.844C793.671 165.85 793.671 165.85 793.704 165.856C793.801 165.874 793.887 165.892 793.946 165.905L794.1 165.947C794.84 166.202 795.737 166.333 796.792 166.333C798.725 166.333 800.317 165.822 801.615 164.805C802.844 163.841 803.417 162.743 803.417 161.417C803.417 160.06 802.827 158.923 801.565 157.918C800.238 156.861 798.65 156.333 796.75 156.333C794.85 156.333 793.262 156.861 791.935 157.918C790.673 158.923 790.083 160.06 790.083 161.417C790.083 162.39 790.396 163.267 791.047 164.09L791.143 164.231C791.191 164.31 791.253 164.42 791.318 164.55C791.351 164.618 791.351 164.618 791.387 164.695C791.512 164.974 791.583 165.195 791.583 165.5C791.525 165.925 791.525 165.925 791.505 165.965C791.474 166.075 791.474 166.075 791.431 166.222C791.427 166.235 791.424 166.248 791.42 166.261C792.731 165.832 792.876 165.792 793.167 165.792ZM793.417 160.333C793.417 159.963 793.714 159.667 794.08 159.667H799.42C799.78 159.667 800.083 159.965 800.083 160.333C800.083 160.704 799.786 161 799.42 161H794.08C793.72 161 793.417 160.702 793.417 160.333ZM793.417 163C793.417 162.629 793.719 162.333 794.091 162.333H796.075C796.442 162.333 796.75 162.632 796.75 163C796.75 163.371 796.448 163.667 796.075 163.667H794.091C793.724 163.667 793.417 163.368 793.417 163Z" fill="white"/>
<path d="M814.009 168.5V158.49H820.211V159.974H815.871V162.956H819.287V164.398H815.871V168.5H814.009ZM824.527 168.64C822.371 168.64 820.817 167.226 820.817 164.916V164.804C820.817 162.536 822.371 161.024 824.457 161.024C826.277 161.024 827.915 162.102 827.915 164.72V165.21H822.553C822.609 166.596 823.309 167.38 824.569 167.38C825.591 167.38 826.123 166.974 826.249 166.26H827.887C827.649 167.8 826.403 168.64 824.527 168.64ZM822.581 164.076H826.235C826.151 162.816 825.507 162.256 824.457 162.256C823.435 162.256 822.749 162.942 822.581 164.076ZM832.648 168.64C830.492 168.64 828.938 167.226 828.938 164.916V164.804C828.938 162.536 830.492 161.024 832.578 161.024C834.398 161.024 836.036 162.102 836.036 164.72V165.21H830.674C830.73 166.596 831.43 167.38 832.69 167.38C833.712 167.38 834.244 166.974 834.37 166.26H836.008C835.77 167.8 834.524 168.64 832.648 168.64ZM830.702 164.076H834.356C834.272 162.816 833.628 162.256 832.578 162.256C831.556 162.256 830.87 162.942 830.702 164.076ZM840.293 168.64C838.459 168.64 837.073 167.338 837.073 164.958V164.846C837.073 162.508 838.459 161.024 840.363 161.024C841.553 161.024 842.295 161.57 842.701 162.298V157.79H844.395V168.5H842.701V167.268C842.309 167.996 841.371 168.64 840.293 168.64ZM840.713 167.296C841.889 167.296 842.757 166.512 842.757 164.874V164.762C842.757 163.152 842.015 162.354 840.783 162.354C839.537 162.354 838.809 163.222 838.809 164.804V164.916C838.809 166.526 839.621 167.296 840.713 167.296ZM850.496 168.64C849.334 168.64 848.494 168.066 848.102 167.324V168.5H846.408V157.79H848.102V162.354C848.508 161.654 849.418 161.024 850.496 161.024C852.33 161.024 853.744 162.382 853.744 164.748V164.86C853.744 167.212 852.386 168.64 850.496 168.64ZM850.076 167.296C851.322 167.296 852.008 166.456 852.008 164.888V164.776C852.008 163.152 851.168 162.354 850.062 162.354C848.886 162.354 848.046 163.152 848.046 164.776V164.888C848.046 166.526 848.844 167.296 850.076 167.296ZM857.186 168.64C855.842 168.64 854.736 167.996 854.736 166.47C854.736 164.762 856.388 164.146 858.488 164.146H859.398V163.768C859.398 162.788 859.062 162.298 858.068 162.298C857.186 162.298 856.752 162.718 856.668 163.446H855.03C855.17 161.738 856.528 161.024 858.166 161.024C859.804 161.024 861.092 161.696 861.092 163.698V168.5H859.426V167.604C858.95 168.234 858.306 168.64 857.186 168.64ZM857.592 167.422C858.628 167.422 859.398 166.876 859.398 165.938V165.21H858.53C857.242 165.21 856.416 165.504 856.416 166.4C856.416 167.016 856.752 167.422 857.592 167.422ZM866.239 168.64C864.139 168.64 862.543 167.268 862.543 164.93V164.818C862.543 162.494 864.195 161.024 866.239 161.024C867.863 161.024 869.389 161.752 869.585 163.768H867.947C867.807 162.788 867.163 162.382 866.267 162.382C865.105 162.382 864.279 163.278 864.279 164.79V164.902C864.279 166.498 865.063 167.338 866.309 167.338C867.205 167.338 867.975 166.806 868.073 165.77H869.627C869.501 167.45 868.227 168.64 866.239 168.64ZM871.086 168.5V157.79H872.78V164.398L875.398 161.178H877.246L874.404 164.538L877.484 168.5H875.524L872.78 164.902V168.5H871.086Z" fill="white"/>
<g clip-path="url(#clip3_588_8172)">
<rect x="183.75" y="227" width="97" height="40" rx="4" fill="#ECF3FF"/>
<path d="M201.009 253.5V243.49H207.211V244.974H202.871V247.956H206.287V249.398H202.871V253.5H201.009ZM211.527 253.64C209.371 253.64 207.817 252.226 207.817 249.916V249.804C207.817 247.536 209.371 246.024 211.457 246.024C213.277 246.024 214.915 247.102 214.915 249.72V250.21H209.553C209.609 251.596 210.309 252.38 211.569 252.38C212.591 252.38 213.123 251.974 213.249 251.26H214.887C214.649 252.8 213.403 253.64 211.527 253.64ZM209.581 249.076H213.235C213.151 247.816 212.507 247.256 211.457 247.256C210.435 247.256 209.749 247.942 209.581 249.076ZM219.648 253.64C217.492 253.64 215.938 252.226 215.938 249.916V249.804C215.938 247.536 217.492 246.024 219.578 246.024C221.398 246.024 223.036 247.102 223.036 249.72V250.21H217.674C217.73 251.596 218.43 252.38 219.69 252.38C220.712 252.38 221.244 251.974 221.37 251.26H223.008C222.77 252.8 221.524 253.64 219.648 253.64ZM217.702 249.076H221.356C221.272 247.816 220.628 247.256 219.578 247.256C218.556 247.256 217.87 247.942 217.702 249.076ZM227.293 253.64C225.459 253.64 224.073 252.338 224.073 249.958V249.846C224.073 247.508 225.459 246.024 227.363 246.024C228.553 246.024 229.295 246.57 229.701 247.298V242.79H231.395V253.5H229.701V252.268C229.309 252.996 228.371 253.64 227.293 253.64ZM227.713 252.296C228.889 252.296 229.757 251.512 229.757 249.874V249.762C229.757 248.152 229.015 247.354 227.783 247.354C226.537 247.354 225.809 248.222 225.809 249.804V249.916C225.809 251.526 226.621 252.296 227.713 252.296ZM237.496 253.64C236.334 253.64 235.494 253.066 235.102 252.324V253.5H233.408V242.79H235.102V247.354C235.508 246.654 236.418 246.024 237.496 246.024C239.33 246.024 240.744 247.382 240.744 249.748V249.86C240.744 252.212 239.386 253.64 237.496 253.64ZM237.076 252.296C238.322 252.296 239.008 251.456 239.008 249.888V249.776C239.008 248.152 238.168 247.354 237.062 247.354C235.886 247.354 235.046 248.152 235.046 249.776V249.888C235.046 251.526 235.844 252.296 237.076 252.296ZM244.186 253.64C242.842 253.64 241.736 252.996 241.736 251.47C241.736 249.762 243.388 249.146 245.488 249.146H246.398V248.768C246.398 247.788 246.062 247.298 245.068 247.298C244.186 247.298 243.752 247.718 243.668 248.446H242.03C242.17 246.738 243.528 246.024 245.166 246.024C246.804 246.024 248.092 246.696 248.092 248.698V253.5H246.426V252.604C245.95 253.234 245.306 253.64 244.186 253.64ZM244.592 252.422C245.628 252.422 246.398 251.876 246.398 250.938V250.21H245.53C244.242 250.21 243.416 250.504 243.416 251.4C243.416 252.016 243.752 252.422 244.592 252.422ZM253.239 253.64C251.139 253.64 249.543 252.268 249.543 249.93V249.818C249.543 247.494 251.195 246.024 253.239 246.024C254.863 246.024 256.389 246.752 256.585 248.768H254.947C254.807 247.788 254.163 247.382 253.267 247.382C252.105 247.382 251.279 248.278 251.279 249.79V249.902C251.279 251.498 252.063 252.338 253.309 252.338C254.205 252.338 254.975 251.806 255.073 250.77H256.627C256.501 252.45 255.227 253.64 253.239 253.64ZM258.086 253.5V242.79H259.78V249.398L262.398 246.178H264.246L261.404 249.538L264.484 253.5H262.524L259.78 249.902V253.5H258.086Z" fill="#3C5AFE"/>
<rect x="289.25" y="227.5" width="110" height="39" rx="3.5" fill="white"/>
<path d="M306.132 253.5V243.49H308.358L312.572 250.728V243.49H314.266V253.5H312.334L307.826 245.828V253.5H306.132ZM319.645 253.64C317.489 253.64 315.893 252.142 315.893 249.916V249.804C315.893 247.536 317.503 246.024 319.659 246.024C321.801 246.024 323.411 247.522 323.411 249.762V249.874C323.411 252.156 321.801 253.64 319.645 253.64ZM319.659 252.324C320.919 252.324 321.675 251.386 321.675 249.888V249.79C321.675 248.278 320.919 247.354 319.659 247.354C318.399 247.354 317.629 248.264 317.629 249.776V249.888C317.629 251.386 318.371 252.324 319.659 252.324ZM327.434 253.626C325.978 253.626 325.222 252.842 325.222 251.456V247.452H324.242V246.178H325.222V244.568H326.916V246.178H328.526V247.452H326.916V251.302C326.916 251.946 327.224 252.24 327.756 252.24C328.092 252.24 328.344 252.198 328.582 252.1V253.444C328.316 253.542 327.952 253.626 327.434 253.626ZM333.33 253.64C331.174 253.64 329.62 252.226 329.62 249.916V249.804C329.62 247.536 331.174 246.024 333.26 246.024C335.08 246.024 336.718 247.102 336.718 249.72V250.21H331.356C331.412 251.596 332.112 252.38 333.372 252.38C334.394 252.38 334.926 251.974 335.052 251.26H336.69C336.452 252.8 335.206 253.64 333.33 253.64ZM331.384 249.076H335.038C334.954 247.816 334.31 247.256 333.26 247.256C332.238 247.256 331.552 247.942 331.384 249.076ZM344.059 253.626C342.603 253.626 341.847 252.842 341.847 251.456V247.452H340.867V246.178H341.847V244.568H343.541V246.178H345.151V247.452H343.541V251.302C343.541 251.946 343.849 252.24 344.381 252.24C344.717 252.24 344.969 252.198 345.207 252.1V253.444C344.941 253.542 344.577 253.626 344.059 253.626ZM349.997 253.64C347.841 253.64 346.245 252.142 346.245 249.916V249.804C346.245 247.536 347.855 246.024 350.011 246.024C352.153 246.024 353.763 247.522 353.763 249.762V249.874C353.763 252.156 352.153 253.64 349.997 253.64ZM350.011 252.324C351.271 252.324 352.027 251.386 352.027 249.888V249.79C352.027 248.278 351.271 247.354 350.011 247.354C348.751 247.354 347.981 248.264 347.981 249.776V249.888C347.981 251.386 348.723 252.324 350.011 252.324ZM362.171 253.64C359.441 253.64 358.293 252.282 358.153 250.392H359.945C360.071 251.4 360.477 252.24 362.171 252.24C363.277 252.24 364.061 251.624 364.061 250.7C364.061 249.776 363.599 249.426 361.975 249.16C359.581 248.838 358.447 248.11 358.447 246.234C358.447 244.596 359.847 243.364 361.933 243.364C364.089 243.364 365.377 244.344 365.573 246.262H363.865C363.683 245.212 363.081 244.764 361.933 244.764C360.799 244.764 360.211 245.31 360.211 246.08C360.211 246.892 360.547 247.298 362.283 247.55C364.635 247.872 365.853 248.544 365.853 250.546C365.853 252.282 364.383 253.64 362.171 253.64ZM370.749 253.64C368.593 253.64 367.039 252.226 367.039 249.916V249.804C367.039 247.536 368.593 246.024 370.679 246.024C372.499 246.024 374.137 247.102 374.137 249.72V250.21H368.775C368.831 251.596 369.531 252.38 370.791 252.38C371.813 252.38 372.345 251.974 372.471 251.26H374.109C373.871 252.8 372.625 253.64 370.749 253.64ZM368.803 249.076H372.457C372.373 247.816 371.729 247.256 370.679 247.256C369.657 247.256 368.971 247.942 368.803 249.076ZM375.693 253.5V242.79H377.387V253.5H375.693ZM379.745 253.5V247.452H378.751V246.178H379.745V245.198C379.745 243.588 380.641 242.72 382.209 242.72C382.615 242.72 382.867 242.762 383.175 242.86V244.176C382.979 244.106 382.713 244.05 382.405 244.05C381.719 244.05 381.439 244.498 381.439 245.128V246.178H383.105V247.452H381.439V253.5H379.745Z" fill="#68737D"/>
<rect x="289.25" y="227.5" width="110" height="39" rx="3.5" stroke="#EBEDF0"/>
</g>
<path d="M168.25 37L146.25 37L146.25 251L168.25 251" stroke="#9DACFF"/>
<path d="M544 37L566 37L566 251L544 251" stroke="#9DACFF"/>
<path d="M752.354 162.354C752.549 162.158 752.549 161.842 752.354 161.646L749.172 158.464C748.976 158.269 748.66 158.269 748.464 158.464C748.269 158.66 748.269 158.976 748.464 159.172L751.293 162L748.464 164.828C748.269 165.024 748.269 165.34 748.464 165.536C748.66 165.731 748.976 165.731 749.172 165.536L752.354 162.354ZM586.5 162.5L752 162.5L752 161.5L586.5 161.5L586.5 162.5Z" fill="#9DACFF"/>
<defs>
<clipPath id="clip0_588_8172">
<rect width="348" height="40" fill="white" transform="translate(183.75 24)"/>
</clipPath>
<clipPath id="clip1_588_8172">
<rect width="97" height="40" fill="white" transform="translate(183.75 161)"/>
</clipPath>
<clipPath id="clip2_588_8172">
<rect width="104" height="40" fill="white" transform="translate(183.75 95)"/>
</clipPath>
<clipPath id="clip3_588_8172">
<rect width="216" height="40" fill="white" transform="translate(183.75 227)"/>
</clipPath>
</defs>
</svg>
