<svg xmlns="http://www.w3.org/2000/svg" xmlns:xlink="http://www.w3.org/1999/xlink" width="1040" height="315" fill="none" xmlns:v="https://vecta.io/nano"><style><![CDATA[.B{fill:#060125}.C{fill-opacity:.7}]]></style><rect width="1040" height="315" rx="16" fill="#fff"/><path d="M588.806 35a3.58 3.58 0 0 0-.432-.9c-.176-.268-.386-.497-.631-.686s-.518-.333-.826-.433-.646-.149-1.014-.149c-.603 0-1.152.156-1.646.467s-.886.771-1.178 1.377-.437 1.351-.437 2.232.147 1.626.442 2.232.695 1.066 1.198 1.377a3.17 3.17 0 0 0 1.701.467c.583 0 1.097-.124 1.541-.373a2.65 2.65 0 0 0 1.044-1.064c.252-.461.378-1.003.378-1.626l.378.08h-3.063v-1.094h3.878v1.094c0 .839-.179 1.568-.537 2.188a3.71 3.71 0 0 1-1.472 1.442c-.623.338-1.339.507-2.147.507-.902 0-1.694-.212-2.377-.636s-1.21-1.027-1.591-1.81-.566-1.71-.566-2.784c0-.805.107-1.53.323-2.173s.527-1.197.924-1.651.869-.802 1.412-1.044 1.142-.363 1.795-.363a4.51 4.51 0 0 1 1.501.244c.468.159.884.386 1.248.681a3.87 3.87 0 0 1 .92 1.049c.245.404.414.853.507 1.347h-1.273zm6.388 7.159c-.69 0-1.295-.164-1.815-.492s-.921-.787-1.213-1.377-.433-1.279-.433-2.068c0-.796.145-1.49.433-2.083s.696-1.054 1.213-1.382 1.125-.492 1.815-.492 1.292.164 1.809.492.925.789 1.213 1.382.438 1.288.438 2.083c0 .789-.146 1.478-.438 2.068a3.29 3.29 0 0 1-1.213 1.377c-.517.328-1.12.492-1.809.492zm0-1.054c.523 0 .954-.134 1.292-.403s.589-.621.751-1.059.244-.912.244-1.422-.082-.986-.244-1.427-.413-.797-.751-1.069-.769-.408-1.292-.408-.955.136-1.293.408a2.41 2.41 0 0 0-.751 1.069c-.162.441-.243.916-.243 1.427s.081.984.243 1.422a2.38 2.38 0 0 0 .751 1.059c.338.269.769.403 1.293.403zm7.498 1.074c-.484 0-.923-.091-1.317-.273s-.708-.452-.94-.8-.348-.776-.348-1.273c0-.437.086-.792.259-1.064s.402-.491.691-.646.606-.272.954-.348l1.059-.189 1.129-.134c.291-.033.503-.088.636-.164s.204-.209.204-.398v-.04c0-.491-.134-.872-.403-1.143s-.668-.408-1.208-.408c-.56 0-.999.123-1.317.368s-.542.507-.672.785l-1.113-.398c.199-.464.464-.825.795-1.084s.7-.444 1.094-.547a4.54 4.54 0 0 1 1.173-.159c.246 0 .527.03.845.09a2.7 2.7 0 0 1 .93.353c.302.179.552.449.751.81s.298.845.298 1.452V42h-1.173v-1.034h-.06c-.079.166-.212.343-.398.532s-.432.35-.74.482-.685.199-1.129.199zm.179-1.054c.464 0 .855-.091 1.173-.273s.564-.418.726-.706.249-.592.249-.91v-1.074c-.05.06-.159.114-.328.164s-.358.088-.577.124l-.631.09-.493.06a4.48 4.48 0 0 0-.855.194 1.47 1.47 0 0 0-.636.393c-.159.172-.239.408-.239.706 0 .408.151.716.453.925s.691.308 1.158.308zm6.636-9.307V42h-1.173V31.818h1.173zm7.558 4.256l-1.054.298c-.066-.176-.164-.346-.293-.512a1.43 1.43 0 0 0-.517-.418c-.219-.109-.499-.164-.841-.164-.467 0-.856.108-1.168.323s-.462.482-.462.81c0 .292.106.522.318.691s.544.31.994.423l1.134.278c.683.166 1.191.419 1.526.761s.502.774.502 1.308c0 .438-.126.829-.378 1.173s-.596.616-1.044.815-.967.298-1.561.298c-.779 0-1.423-.169-1.934-.507s-.833-.832-.969-1.482l1.113-.278c.107.411.307.719.602.925s.688.308 1.168.308c.547 0 .981-.116 1.303-.348s.487-.517.487-.845a.89.89 0 0 0-.278-.666c-.186-.182-.471-.318-.855-.408l-1.273-.298c-.699-.166-1.213-.423-1.541-.771s-.488-.79-.488-1.317c0-.431.121-.812.363-1.144s.579-.592 1-.78.905-.283 1.441-.283c.756 0 1.349.166 1.78.497a2.68 2.68 0 0 1 .925 1.313zm9.243-1.71v.994h-4.116v-.994h4.116zM623.425 42v-8.69c0-.437.103-.802.308-1.094a1.91 1.91 0 0 1 .801-.656c.328-.146.674-.219 1.039-.219.288 0 .523.023.706.07s.318.09.407.129l-.338 1.014-.248-.075c-.103-.03-.239-.045-.408-.045-.388 0-.668.098-.84.293s-.254.482-.254.86V42h-1.173zm7.415.159c-.736 0-1.37-.162-1.904-.487a3.27 3.27 0 0 1-1.228-1.372c-.285-.59-.428-1.276-.428-2.058s.143-1.472.428-2.068.689-1.067 1.203-1.402 1.12-.507 1.81-.507a3.62 3.62 0 0 1 1.178.199c.388.133.741.348 1.059.646s.572.686.761 1.173.283 1.087.283 1.8v.497h-5.886v-1.014h4.693c0-.431-.086-.815-.259-1.153s-.411-.605-.726-.8-.679-.293-1.103-.293c-.468 0-.872.116-1.213.348a2.29 2.29 0 0 0-.781.895c-.182.368-.273.762-.273 1.183v.676c0 .577.099 1.066.298 1.467a2.15 2.15 0 0 0 .84.91c.358.206.774.308 1.248.308.308 0 .587-.043.835-.129s.469-.222.652-.398.323-.401.422-.666l1.134.318a2.52 2.52 0 0 1-.602 1.014c-.282.288-.63.514-1.044.676s-.88.239-1.397.239zm8.148 0c-.735 0-1.37-.162-1.904-.487s-.939-.785-1.228-1.372-.427-1.276-.427-2.058.142-1.472.427-2.068.69-1.067 1.203-1.402c.518-.338 1.121-.507 1.81-.507.398 0 .791.066 1.178.199s.741.348 1.059.646.572.686.761 1.173.283 1.087.283 1.8v.497h-5.886v-1.014h4.693c0-.431-.086-.815-.258-1.153s-.411-.605-.726-.8-.68-.293-1.104-.293c-.467 0-.872.116-1.213.348s-.598.527-.78.895a2.62 2.62 0 0 0-.274 1.183v.676c0 .577.1 1.066.298 1.467s.483.701.841.91.774.308 1.247.308c.309 0 .587-.043.836-.129s.469-.222.651-.398a1.82 1.82 0 0 0 .423-.666l1.133.318c-.119.385-.32.723-.601 1.014s-.63.514-1.045.676-.879.239-1.397.239zm6.12-10.341V42h-1.173V31.818h1.173zm9.408 2.545v.994h-3.957v-.994h3.957zm-2.804-1.829h1.173v7.278c0 .331.048.58.144.746s.226.272.378.328a1.52 1.52 0 0 0 .493.079c.129 0 .235-.007.318-.02l.199-.04.238 1.054c-.079.03-.19.06-.333.09s-.323.05-.542.05a2.36 2.36 0 0 1-.974-.214 1.94 1.94 0 0 1-.786-.651c-.205-.292-.308-.66-.308-1.104v-7.597zm7.589 9.625c-.689 0-1.294-.164-1.814-.492s-.922-.787-1.214-1.377-.432-1.279-.432-2.068c0-.796.144-1.49.432-2.083s.696-1.054 1.214-1.382 1.125-.492 1.814-.492 1.293.164 1.81.492.925.789 1.213 1.382.437 1.288.437 2.083c0 .789-.145 1.478-.437 2.068s-.693 1.049-1.213 1.377-1.12.492-1.81.492zm0-1.054c.524 0 .955-.134 1.293-.403a2.37 2.37 0 0 0 .75-1.059 4.04 4.04 0 0 0 .244-1.422c0-.51-.081-.986-.244-1.427a2.4 2.4 0 0 0-.75-1.069c-.338-.272-.769-.408-1.293-.408s-.954.136-1.292.408-.589.628-.751 1.069-.244.916-.244 1.427a4.04 4.04 0 0 0 .244 1.422c.162.438.412.79.751 1.059s.768.403 1.292.403zm8.354 1.054c-.69 0-1.295-.164-1.815-.492s-.921-.787-1.213-1.377-.433-1.279-.433-2.068c0-.796.145-1.49.433-2.083s.696-1.054 1.213-1.382 1.125-.492 1.815-.492 1.292.164 1.809.492.925.789 1.213 1.382.438 1.288.438 2.083c0 .789-.146 1.478-.438 2.068a3.29 3.29 0 0 1-1.213 1.377c-.517.328-1.12.492-1.809.492zm0-1.054c.523 0 .954-.134 1.292-.403s.589-.621.751-1.059.244-.912.244-1.422-.082-.986-.244-1.427-.413-.797-.751-1.069-.769-.408-1.292-.408-.955.136-1.293.408a2.41 2.41 0 0 0-.751 1.069c-.162.441-.243.916-.243 1.427s.081.984.243 1.422a2.38 2.38 0 0 0 .751 1.059c.338.269.769.403 1.293.403zm14.001-2.227v-4.514h1.173V42h-1.173v-1.293h-.08c-.179.388-.457.718-.835.989s-.855.403-1.432.403c-.477 0-.901-.104-1.272-.313s-.663-.53-.875-.955-.319-.966-.319-1.616v-4.852h1.174v4.773c0 .557.155 1.001.467 1.332s.716.497 1.203.497c.292 0 .588-.075.89-.224s.56-.378.766-.686.313-.701.313-1.178zm4.495-1.472V42h-1.173v-7.636h1.134v1.193h.099c.179-.388.451-.699.815-.935s.836-.358 1.412-.358c.517 0 .97.106 1.358.318s.689.527.904.955.324.961.324 1.611V42h-1.174v-4.773c0-.6-.155-1.067-.467-1.402s-.739-.507-1.283-.507c-.374 0-.709.081-1.004.244a1.74 1.74 0 0 0-.691.711c-.169.312-.254.689-.254 1.133zm9.264 4.773c-.484 0-.923-.091-1.318-.273a2.26 2.26 0 0 1-.939-.8c-.232-.351-.348-.776-.348-1.273 0-.437.086-.792.258-1.064a1.83 1.83 0 0 1 .691-.646c.289-.156.607-.272.955-.348l1.059-.189 1.128-.134c.292-.033.504-.088.637-.164s.203-.209.203-.398v-.04c0-.491-.134-.872-.402-1.143s-.668-.408-1.208-.408c-.56 0-1 .123-1.318.368s-.542.507-.671.785l-1.114-.398c.199-.464.464-.825.796-1.084s.699-.444 1.094-.547a4.53 4.53 0 0 1 1.173-.159c.245 0 .527.03.845.09s.631.174.93.353.552.449.75.81.299.845.299 1.452V42h-1.174v-1.034h-.059a2.07 2.07 0 0 1-.398.532c-.186.189-.432.35-.741.482s-.684.199-1.128.199zm.179-1.054c.464 0 .855-.091 1.173-.273s.563-.418.726-.706.248-.592.248-.91v-1.074c-.049.06-.159.114-.328.164a5.53 5.53 0 0 1-.576.124l-.632.09-.492.06a4.48 4.48 0 0 0-.855.194 1.47 1.47 0 0 0-.636.393c-.159.172-.239.408-.239.706 0 .408.151.716.452.925s.691.308 1.159.308zm8.565 1.034c-.716 0-1.333-.169-1.85-.507s-.915-.804-1.193-1.397-.418-1.271-.418-2.033c0-.776.143-1.46.428-2.053s.689-1.062 1.203-1.397 1.12-.507 1.81-.507c.537 0 1.021.099 1.451.298a2.78 2.78 0 0 1 1.059.835c.275.358.446.776.512 1.253h-1.173c-.089-.348-.288-.656-.596-.925s-.716-.408-1.233-.408c-.458 0-.859.119-1.204.358s-.608.569-.8.999-.283.93-.283 1.506c0 .59.092 1.104.278 1.541s.454.777.795 1.019.75.363 1.214.363c.304 0 .581-.053.83-.159a1.71 1.71 0 0 0 .631-.457c.173-.199.295-.437.368-.716h1.173c-.066.451-.23.857-.492 1.218s-.601.643-1.029.855-.918.313-1.481.313zm5.891-4.753V42h-1.173V31.818h1.173v3.739h.099a2.16 2.16 0 0 1 .806-.94c.361-.235.842-.353 1.441-.353.521 0 .977.104 1.368.313s.694.522.909.95.329.965.329 1.621V42h-1.174v-4.773c0-.607-.157-1.075-.472-1.407s-.744-.502-1.298-.502c-.384 0-.729.081-1.034.244s-.54.399-.716.711-.258.689-.258 1.133zM717.148 42v-7.636h1.173V42h-1.173zm.597-8.909c-.229 0-.426-.078-.592-.234a.75.75 0 0 1-.244-.562.75.75 0 0 1 .244-.562c.166-.156.363-.234.592-.234s.424.078.586.234.249.343.249.562-.083.406-.249.562-.358.234-.586.234zm5.927 9.068c-.736 0-1.37-.162-1.904-.487a3.27 3.27 0 0 1-1.228-1.372c-.285-.59-.428-1.276-.428-2.058s.143-1.472.428-2.068.689-1.067 1.203-1.402 1.12-.507 1.81-.507a3.62 3.62 0 0 1 1.178.199c.388.133.741.348 1.059.646s.572.686.761 1.173.283 1.087.283 1.8v.497h-5.886v-1.014h4.693c0-.431-.086-.815-.259-1.153s-.411-.605-.726-.8-.679-.293-1.103-.293c-.468 0-.872.116-1.213.348a2.29 2.29 0 0 0-.781.895c-.182.368-.273.762-.273 1.183v.676c0 .577.099 1.066.298 1.467a2.15 2.15 0 0 0 .84.91c.358.206.774.308 1.248.308.308 0 .587-.043.835-.129s.469-.222.652-.398.323-.401.422-.666l1.134.318a2.52 2.52 0 0 1-.602 1.014c-.282.288-.63.514-1.044.676s-.88.239-1.397.239zm10.959-7.796L731.807 42h-1.193l-2.824-7.636h1.272l2.108 6.085h.08l2.108-6.085h1.273zm3.563 7.815c-.484 0-.923-.091-1.317-.273s-.708-.452-.94-.8-.348-.776-.348-1.273c0-.437.086-.792.258-1.064s.403-.491.692-.646.606-.272.954-.348l1.059-.189 1.129-.134c.291-.033.503-.088.636-.164s.204-.209.204-.398v-.04c0-.491-.134-.872-.403-1.143s-.668-.408-1.208-.408c-.56 0-.999.123-1.317.368s-.542.507-.672.785l-1.113-.398c.199-.464.464-.825.795-1.084s.699-.444 1.094-.547a4.54 4.54 0 0 1 1.173-.159c.245 0 .527.03.845.09a2.7 2.7 0 0 1 .93.353c.302.179.552.449.751.81s.298.845.298 1.452V42h-1.173v-1.034h-.06c-.079.166-.212.343-.398.532s-.432.35-.74.482-.685.199-1.129.199zm.179-1.054c.464 0 .855-.091 1.173-.273s.564-.418.726-.706.249-.592.249-.91v-1.074c-.05.06-.159.114-.328.164s-.358.088-.577.124l-.631.09-.493.06a4.48 4.48 0 0 0-.855.194 1.47 1.47 0 0 0-.636.393c-.159.172-.239.408-.239.706 0 .408.151.716.453.925s.691.308 1.158.308zm5.622.875V31.818h1.173v3.759h.099l.358-.507c.156-.209.378-.394.667-.557s.686-.249 1.183-.249c.643 0 1.21.161 1.7.482s.873.777 1.149 1.367.412 1.286.412 2.088c0 .809-.137 1.51-.412 2.103s-.657 1.047-1.144 1.372-1.049.482-1.685.482c-.491 0-.884-.081-1.179-.244s-.522-.353-.681-.562l-.368-.527h-.139V42h-1.133zm1.153-3.818c0 .577.085 1.085.254 1.526s.416.78.74 1.029.723.368 1.194.368c.49 0 .899-.129 1.228-.388s.58-.613.745-1.054.254-.938.254-1.482c0-.537-.083-1.021-.249-1.452s-.409-.777-.74-1.029-.741-.383-1.238-.383c-.478 0-.879.121-1.204.363s-.57.573-.735 1.004-.249.926-.249 1.496zm8.556-6.364V42h-1.173V31.818h1.173zm5.351 10.341c-.736 0-1.371-.162-1.904-.487s-.94-.785-1.228-1.372-.428-1.276-.428-2.058.143-1.472.428-2.068.689-1.067 1.203-1.402 1.12-.507 1.81-.507a3.62 3.62 0 0 1 1.178.199c.388.133.741.348 1.059.646s.571.686.76 1.173.284 1.087.284 1.8v.497h-5.887v-1.014h4.694c0-.431-.087-.815-.259-1.153s-.411-.605-.726-.8-.679-.293-1.103-.293c-.468 0-.872.116-1.214.348s-.598.527-.78.895-.273.762-.273 1.183v.676c0 .577.099 1.066.298 1.467a2.15 2.15 0 0 0 .84.91c.358.206.774.308 1.248.308.308 0 .587-.043.835-.129s.469-.222.651-.398.324-.401.423-.666l1.133.318c-.119.385-.319.723-.601 1.014s-.63.514-1.044.676-.88.239-1.397.239z" class="B C"/><use xlink:href="#B" fill="#8028ea" stroke="#fff"/><path d="M581.846 84V73.818h1.233v9.088h4.733V84h-5.966zm7.716 0v-7.636h1.173V84h-1.173zm.597-8.909c-.229 0-.426-.078-.592-.234a.75.75 0 0 1-.243-.562.75.75 0 0 1 .243-.562c.166-.156.363-.234.592-.234s.424.078.586.234.249.343.249.562-.083.406-.249.562-.358.234-.586.234zM592.884 84v-7.636h1.134v1.193h.099c.159-.408.416-.724.771-.95s.781-.343 1.278-.343c.503 0 .923.114 1.257.343s.602.542.791.95h.08a2.22 2.22 0 0 1 .879-.94c.392-.235.861-.353 1.407-.353.683 0 1.242.214 1.676.641s.651 1.085.651 1.984V84h-1.173v-5.111c0-.563-.154-.966-.463-1.208a1.71 1.71 0 0 0-1.088-.363c-.537 0-.953.162-1.248.487s-.443.729-.443 1.223V84h-1.193v-5.23c0-.434-.141-.784-.422-1.049s-.645-.403-1.089-.403c-.305 0-.59.081-.855.244s-.474.388-.637.676-.238.615-.238.989V84h-1.174zm12.168 0v-7.636h1.174V84h-1.174zm.597-8.909c-.229 0-.426-.078-.592-.234a.75.75 0 0 1-.243-.562.75.75 0 0 1 .243-.562c.166-.156.363-.234.592-.234a.82.82 0 0 1 .587.234c.165.156.248.343.248.562s-.083.406-.248.562a.82.82 0 0 1-.587.234zm6.047 1.273v.994h-3.958v-.994h3.958zm-2.804-1.83h1.173v7.278c0 .331.048.58.144.746s.226.272.378.328a1.52 1.52 0 0 0 .492.08c.129 0 .236-.007.318-.02l.199-.04.239 1.054a2.41 2.41 0 0 1-.333.09c-.143.033-.323.05-.542.05-.332 0-.656-.071-.975-.214s-.576-.36-.785-.651-.308-.66-.308-1.104v-7.597zm7.688 9.625c-.736 0-1.37-.162-1.904-.487s-.939-.785-1.228-1.372-.427-1.276-.427-2.058.142-1.472.427-2.068.69-1.067 1.203-1.402 1.121-.507 1.81-.507c.398 0 .79.066 1.178.199s.741.348 1.059.646.572.686.761 1.173.283 1.087.283 1.8v.497h-5.886v-1.014h4.693c0-.431-.086-.815-.259-1.153a1.95 1.95 0 0 0-.725-.8c-.312-.196-.68-.293-1.104-.293-.467 0-.872.116-1.213.348s-.598.527-.781.895-.273.762-.273 1.183v.676c0 .577.099 1.066.298 1.467a2.15 2.15 0 0 0 .84.91c.358.206.774.308 1.248.308.308 0 .587-.043.835-.129s.469-.222.652-.398.323-.401.422-.666l1.134.318c-.119.385-.32.723-.602 1.014a2.92 2.92 0 0 1-1.044.676c-.414.159-.88.239-1.397.239zm7.831 0c-.637 0-1.199-.161-1.686-.482s-.868-.782-1.143-1.372-.413-1.294-.413-2.103c0-.802.138-1.498.413-2.088s.658-1.046 1.148-1.367 1.057-.482 1.7-.482c.498 0 .89.083 1.179.249s.513.348.666.557l.363.507h.099v-3.758h1.174V84h-1.134v-1.173h-.139a7.5 7.5 0 0 1-.368.527c-.159.209-.386.396-.681.562s-.688.244-1.178.244zm.159-1.054c.47 0 .868-.123 1.193-.368s.572-.592.741-1.029.253-.95.253-1.526c0-.57-.083-1.069-.248-1.496s-.411-.766-.736-1.004-.726-.363-1.203-.363c-.498 0-.912.128-1.243.383s-.575.595-.741 1.029a4.1 4.1 0 0 0-.244 1.452c0 .544.083 1.037.249 1.482s.418.792.746 1.054.742.388 1.233.388zm11.837 1.074c-.484 0-.923-.091-1.318-.273a2.26 2.26 0 0 1-.939-.8c-.232-.351-.348-.776-.348-1.273 0-.437.086-.792.258-1.064a1.83 1.83 0 0 1 .691-.646c.289-.156.607-.272.955-.348l1.059-.189 1.128-.134c.292-.033.504-.088.637-.164s.204-.209.204-.398v-.04c0-.49-.135-.872-.403-1.143s-.668-.408-1.208-.408c-.56 0-.999.123-1.318.368s-.542.507-.671.785l-1.113-.398c.198-.464.464-.825.795-1.084s.699-.444 1.094-.547a4.54 4.54 0 0 1 1.173-.159c.245 0 .527.03.845.09a2.7 2.7 0 0 1 .93.353c.302.179.552.449.751.81s.298.845.298 1.452V84h-1.173v-1.034h-.06a2.07 2.07 0 0 1-.398.532c-.185.189-.432.35-.74.482s-.685.199-1.129.199zm.179-1.054c.464 0 .855-.091 1.173-.273s.564-.418.726-.706.249-.592.249-.91v-1.074c-.05.06-.159.114-.328.164s-.358.088-.577.124l-.632.09-.492.06a4.48 4.48 0 0 0-.855.194 1.47 1.47 0 0 0-.636.393c-.159.172-.239.408-.239.706 0 .408.151.716.453.925s.691.308 1.158.308zm8.565 1.034c-.716 0-1.333-.169-1.85-.507s-.914-.804-1.193-1.397-.417-1.271-.417-2.033c0-.776.142-1.46.427-2.053s.689-1.062 1.203-1.397 1.12-.507 1.81-.507c.537 0 1.021.099 1.452.298s.783.477 1.059.835.445.776.512 1.253h-1.174c-.089-.348-.288-.656-.596-.925s-.716-.408-1.233-.408c-.458 0-.859.119-1.203.358s-.609.569-.801.999-.283.93-.283 1.506c0 .59.093 1.104.278 1.541s.454.777.796 1.019.749.363 1.213.363c.305 0 .581-.053.83-.159s.459-.258.631-.457.295-.437.368-.716h1.174c-.067.451-.231.857-.493 1.218s-.601.643-1.029.855-.918.313-1.481.313zm7.82 0c-.716 0-1.332-.169-1.849-.507s-.915-.804-1.194-1.397-.417-1.271-.417-2.033c0-.776.142-1.46.427-2.053s.69-1.062 1.204-1.397 1.12-.507 1.809-.507c.537 0 1.021.099 1.452.298a2.78 2.78 0 0 1 1.059.835c.275.358.446.776.512 1.253h-1.173c-.09-.348-.289-.656-.597-.925s-.716-.408-1.233-.408c-.457 0-.858.119-1.203.358s-.608.569-.8.999-.284.93-.284 1.506c0 .59.093 1.104.279 1.541s.454.777.795 1.019.749.363 1.213.363a2.09 2.09 0 0 0 .83-.159c.249-.106.459-.258.632-.457s.295-.437.368-.716h1.173c-.066.451-.23.857-.492 1.218s-.602.643-1.029.855-.918.313-1.482.313zm7.82 0c-.689 0-1.294-.164-1.814-.492s-.922-.787-1.213-1.377-.433-1.279-.433-2.068c0-.795.144-1.49.433-2.083s.696-1.054 1.213-1.382 1.125-.492 1.814-.492 1.293.164 1.81.492.925.789 1.213 1.382.438 1.288.438 2.083c0 .789-.146 1.478-.438 2.068s-.693 1.049-1.213 1.377-1.12.492-1.81.492zm0-1.054c.524 0 .955-.134 1.293-.403a2.38 2.38 0 0 0 .751-1.059c.162-.437.243-.912.243-1.422s-.081-.986-.243-1.427a2.41 2.41 0 0 0-.751-1.069c-.338-.272-.769-.408-1.293-.408s-.954.136-1.292.408-.589.628-.751 1.069-.244.916-.244 1.427.082.984.244 1.422.413.79.751 1.059.769.403 1.292.403zm10.064-2.227v-4.514h1.173V84h-1.173v-1.293h-.079c-.179.388-.458.718-.836.989s-.855.403-1.431.403c-.478 0-.902-.104-1.273-.313s-.663-.53-.875-.954-.318-.966-.318-1.616v-4.852h1.173v4.773c0 .557.156 1.001.467 1.332s.716.497 1.203.497c.292 0 .589-.075.89-.224s.56-.378.766-.686.313-.701.313-1.178zm4.496-1.472V84h-1.174v-7.636h1.134v1.193h.099a2.18 2.18 0 0 1 .816-.935c.364-.239.835-.358 1.412-.358.517 0 .969.106 1.357.318s.689.527.905.954.323.961.323 1.611V84h-1.173v-4.773c0-.6-.156-1.067-.468-1.402s-.739-.507-1.282-.507c-.375 0-.71.081-1.005.244s-.522.399-.691.711-.253.689-.253 1.133zm10.337-3.043v.994h-3.958v-.994h3.958zm-2.804-1.83h1.173v7.278c0 .331.048.58.144.746s.226.272.378.328a1.52 1.52 0 0 0 .492.08 2.08 2.08 0 0 0 .319-.02l.198-.04.239 1.054a2.37 2.37 0 0 1-.333.09c-.143.033-.323.05-.542.05a2.36 2.36 0 0 1-.974-.214 1.94 1.94 0 0 1-.786-.651c-.205-.292-.308-.66-.308-1.104v-7.597zm6.816 9.645c-.484 0-.923-.091-1.318-.273a2.26 2.26 0 0 1-.939-.8c-.232-.351-.348-.776-.348-1.273 0-.437.086-.792.258-1.064a1.83 1.83 0 0 1 .691-.646c.289-.156.607-.272.955-.348l1.059-.189 1.128-.134c.292-.033.504-.088.637-.164s.204-.209.204-.398v-.04c0-.49-.135-.872-.403-1.143s-.668-.408-1.208-.408c-.56 0-.999.123-1.318.368s-.542.507-.671.785l-1.113-.398c.198-.464.464-.825.795-1.084s.699-.444 1.094-.547.789-.159 1.173-.159c.245 0 .527.03.845.09a2.7 2.7 0 0 1 .93.353c.302.179.552.449.751.81s.298.845.298 1.452V84h-1.173v-1.034h-.06a2.07 2.07 0 0 1-.398.532c-.185.189-.432.35-.741.482s-.684.199-1.128.199zm.179-1.054c.464 0 .855-.091 1.173-.273s.564-.418.726-.706.249-.592.249-.91v-1.074c-.05.06-.159.114-.328.164s-.358.088-.577.124l-.632.09-.492.06a4.48 4.48 0 0 0-.855.194 1.47 1.47 0 0 0-.636.393c-.159.172-.239.408-.239.706 0 .408.151.716.453.925s.691.308 1.158.308zm5.622.875V73.818h1.173v3.758h.099l.358-.507c.156-.209.378-.394.666-.557s.686-.249 1.184-.249c.643 0 1.209.161 1.7.482s.873.777 1.148 1.367.413 1.286.413 2.088c0 .809-.138 1.51-.413 2.103s-.656 1.047-1.143 1.372-1.049.482-1.685.482c-.491 0-.884-.081-1.179-.244s-.522-.353-.681-.562l-.368-.527h-.139V84h-1.133zm1.153-3.818c0 .577.084 1.086.253 1.526s.416.781.741 1.029.723.368 1.193.368c.491 0 .9-.129 1.228-.388s.58-.613.746-1.054.254-.938.254-1.482c0-.537-.083-1.021-.249-1.452s-.409-.777-.741-1.029-.74-.383-1.238-.383c-.477 0-.878.121-1.203.363s-.57.573-.735 1.004-.249.926-.249 1.496zM704.037 84v-7.636h1.173V84h-1.173zm.596-8.909a.83.83 0 0 1-.591-.234.75.75 0 0 1-.244-.562.75.75 0 0 1 .244-.562.83.83 0 0 1 .591-.234c.229 0 .425.078.587.234s.249.343.249.562-.083.406-.249.562-.358.234-.587.234zm3.899-1.273V84h-1.173V73.818h1.173zM710.681 84v-7.636h1.174V84h-1.174zm.597-8.909c-.229 0-.426-.078-.592-.234a.75.75 0 0 1-.243-.562.75.75 0 0 1 .243-.562c.166-.156.363-.234.592-.234a.82.82 0 0 1 .587.234c.165.156.248.343.248.562s-.083.406-.248.562a.82.82 0 0 1-.587.234zm6.047 1.273v.994h-3.958v-.994h3.958zm-2.804-1.83h1.173v7.278c0 .331.048.58.144.746s.225.272.378.328a1.52 1.52 0 0 0 .492.08c.129 0 .235-.007.318-.02l.199-.04.239 1.054a2.41 2.41 0 0 1-.333.09c-.143.033-.323.05-.542.05-.332 0-.656-.071-.975-.214s-.576-.36-.785-.651-.308-.66-.308-1.104v-7.597zm5.324 12.33c-.199 0-.376-.017-.532-.05s-.263-.06-.323-.09l.298-1.034c.285.073.537.1.756.08s.413-.118.582-.293.329-.453.472-.84l.219-.597-2.824-7.676h1.273l2.108 6.085h.079l2.108-6.085h1.273l-3.242 8.75c-.146.394-.326.721-.542.979s-.465.456-.75.582-.6.189-.955.189zM730.82 84v-7.636h1.133v1.193h.1c.159-.408.416-.724.771-.95s.78-.343 1.277-.343c.504 0 .923.114 1.258.343s.602.542.791.95h.079c.196-.394.489-.708.88-.94s.86-.353 1.407-.353c.683 0 1.241.214 1.675.641s.652 1.085.652 1.984V84h-1.174v-5.111c0-.563-.154-.966-.462-1.208a1.71 1.71 0 0 0-1.089-.363c-.537 0-.953.162-1.248.487s-.442.729-.442 1.223V84h-1.193v-5.23c0-.434-.141-.784-.423-1.049s-.645-.403-1.089-.403c-.305 0-.59.081-.855.244s-.474.388-.636.676-.239.615-.239.989V84h-1.173zm15.37.159c-.736 0-1.371-.162-1.904-.487s-.94-.785-1.228-1.372-.428-1.276-.428-2.058.142-1.472.428-2.068.689-1.067 1.203-1.402 1.12-.507 1.809-.507c.398 0 .791.066 1.179.199s.74.348 1.059.646.571.686.76 1.173.284 1.087.284 1.8v.497h-5.887v-1.014h4.693c0-.431-.086-.815-.258-1.153s-.411-.605-.726-.8-.679-.293-1.104-.293c-.467 0-.871.116-1.213.348s-.598.527-.78.895a2.62 2.62 0 0 0-.274 1.183v.676c0 .577.1 1.066.299 1.467a2.15 2.15 0 0 0 .84.91c.358.206.774.308 1.248.308.308 0 .586-.043.835-.129s.469-.222.651-.398a1.82 1.82 0 0 0 .423-.666l1.133.318c-.119.385-.32.723-.601 1.014s-.63.514-1.044.676-.88.239-1.397.239zm8.049 0c-.716 0-1.333-.169-1.85-.507s-.915-.804-1.193-1.397-.418-1.271-.418-2.033c0-.776.143-1.46.428-2.053s.689-1.062 1.203-1.397 1.12-.507 1.81-.507c.537 0 1.021.099 1.451.298a2.78 2.78 0 0 1 1.059.835c.275.358.446.776.512 1.253h-1.173c-.089-.348-.288-.656-.596-.925s-.716-.408-1.233-.408c-.458 0-.859.119-1.203.358s-.609.569-.801.999-.283.93-.283 1.506c0 .59.093 1.104.278 1.541s.454.777.796 1.019.749.363 1.213.363c.305 0 .581-.053.83-.159a1.71 1.71 0 0 0 .631-.457c.173-.199.295-.437.368-.716h1.173c-.066.451-.23.857-.492 1.218s-.601.643-1.029.855-.918.313-1.481.313zm5.891-4.753V84h-1.173V73.818h1.173v3.739h.099a2.16 2.16 0 0 1 .806-.94c.361-.235.842-.353 1.442-.353.52 0 .976.104 1.367.313a2.11 2.11 0 0 1 .91.95c.218.424.328.965.328 1.621V84h-1.174v-4.773c0-.607-.157-1.076-.472-1.407s-.744-.502-1.298-.502c-.384 0-.729.081-1.034.244s-.54.399-.716.711-.258.689-.258 1.133zm9.345 4.773c-.484 0-.923-.091-1.317-.273s-.708-.452-.94-.8-.348-.776-.348-1.273c0-.437.086-.792.259-1.064s.402-.491.691-.646.606-.272.954-.348l1.059-.189 1.129-.134c.291-.033.504-.088.636-.164s.204-.209.204-.398v-.04c0-.49-.134-.872-.403-1.143s-.668-.408-1.208-.408c-.56 0-.999.123-1.317.368s-.542.507-.671.785l-1.114-.398c.199-.464.464-.825.795-1.084s.7-.444 1.094-.547a4.54 4.54 0 0 1 1.173-.159c.246 0 .527.03.846.09a2.7 2.7 0 0 1 .929.353c.302.179.552.449.751.81s.298.845.298 1.452V84h-1.173v-1.034h-.06c-.079.166-.212.343-.397.532s-.433.35-.741.482-.685.199-1.129.199zm.179-1.054c.464 0 .855-.091 1.174-.273a1.86 1.86 0 0 0 .725-.706c.166-.288.249-.592.249-.91v-1.074c-.05.06-.159.114-.328.164s-.358.088-.577.124l-.631.09-.492.06a4.48 4.48 0 0 0-.855.194c-.262.086-.474.217-.637.393s-.238.408-.238.706c0 .408.15.716.452.925s.691.308 1.158.308zm6.636-3.719V84h-1.173v-7.636h1.133v1.193h.1c.179-.388.451-.699.815-.935s.835-.358 1.412-.358c.517 0 .97.106 1.357.318a2.14 2.14 0 0 1 .905.954c.216.424.323.961.323 1.611V84h-1.173v-4.773c0-.6-.156-1.067-.467-1.402s-.739-.507-1.283-.507c-.375 0-.709.081-1.004.244a1.74 1.74 0 0 0-.691.711c-.169.312-.254.689-.254 1.133zM783.306 84v-7.636h1.174V84h-1.174zm.597-8.909c-.229 0-.426-.078-.592-.234a.75.75 0 0 1-.243-.562.75.75 0 0 1 .243-.562c.166-.156.363-.234.592-.234a.82.82 0 0 1 .587.234c.165.156.248.343.248.562s-.083.406-.248.562a.82.82 0 0 1-.587.234zm8.135 2.983l-1.054.298a1.96 1.96 0 0 0-.294-.512 1.42 1.42 0 0 0-.517-.418c-.218-.109-.499-.164-.84-.164-.467 0-.857.108-1.168.323s-.463.482-.463.81c0 .292.106.522.319.691s.543.31.994.423l1.133.278c.683.166 1.192.419 1.527.761s.502.774.502 1.308c0 .438-.126.829-.378 1.173s-.597.616-1.044.815-.968.298-1.561.298c-.779 0-1.424-.169-1.934-.507s-.834-.832-.97-1.481l1.114-.279c.106.411.307.719.602.925s.687.308 1.168.308c.547 0 .981-.116 1.303-.348s.487-.517.487-.845c0-.265-.093-.487-.279-.666s-.47-.318-.855-.408l-1.272-.298c-.7-.166-1.214-.423-1.542-.771s-.487-.791-.487-1.318c0-.431.121-.812.363-1.143s.578-.592.999-.781.905-.283 1.442-.283c.756 0 1.349.166 1.78.497s.742.769.925 1.313zM793.943 84v-7.636h1.134v1.193h.099c.159-.408.416-.724.771-.95s.78-.343 1.277-.343c.504 0 .923.114 1.258.343s.602.542.791.95h.079c.196-.394.489-.708.88-.94s.86-.353 1.407-.353c.683 0 1.241.214 1.675.641s.652 1.085.652 1.984V84h-1.174v-5.111c0-.563-.154-.966-.462-1.208a1.71 1.71 0 0 0-1.089-.363c-.537 0-.953.162-1.248.487s-.442.729-.442 1.223V84h-1.193v-5.23c0-.434-.141-.784-.423-1.049s-.644-.403-1.089-.403c-.305 0-.59.081-.855.244s-.474.388-.636.676-.239.615-.239.989V84h-1.173zm17.577-5.926l-1.054.298c-.066-.176-.164-.346-.293-.512a1.43 1.43 0 0 0-.517-.418c-.219-.109-.499-.164-.84-.164-.468 0-.857.108-1.169.323s-.462.482-.462.81c0 .292.106.522.318.691s.544.31.994.423l1.134.278c.683.166 1.191.419 1.526.761s.502.774.502 1.308c0 .438-.126.829-.378 1.173s-.596.616-1.044.815-.967.298-1.561.298c-.779 0-1.423-.169-1.934-.507s-.833-.832-.969-1.481l1.114-.279c.106.411.306.719.601.925s.688.308 1.168.308c.547 0 .981-.116 1.303-.348s.487-.517.487-.845a.89.89 0 0 0-.278-.666c-.186-.182-.471-.318-.855-.408l-1.273-.298c-.699-.166-1.213-.423-1.541-.771s-.487-.791-.487-1.318c0-.431.121-.812.362-1.143s.579-.592 1-.781.905-.283 1.442-.283c.755 0 1.348.166 1.779.497s.743.769.925 1.313z" class="B C"/><use xlink:href="#B" y="44" opacity=".97" fill="#eb4d97"/><path d="M590.039 121h-1.233c-.072-.355-.2-.666-.382-.935s-.398-.494-.657-.676a2.77 2.77 0 0 0-.85-.417c-.311-.093-.636-.14-.974-.14-.617 0-1.175.156-1.676.468s-.893.77-1.188 1.377-.437 1.35-.437 2.232.146 1.626.437 2.232.691 1.066 1.188 1.377 1.059.468 1.676.468a3.42 3.42 0 0 0 .974-.139c.312-.093.595-.231.85-.413a2.63 2.63 0 0 0 .657-.681c.182-.272.31-.583.382-.935h1.233a4.07 4.07 0 0 1-.507 1.397c-.245.411-.55.761-.914 1.049a4.01 4.01 0 0 1-1.228.651c-.451.15-.933.224-1.447.224-.869 0-1.641-.212-2.317-.636s-1.208-1.028-1.596-1.81-.581-1.71-.581-2.784.193-2.002.581-2.784.92-1.385 1.596-1.81 1.448-.636 2.317-.636c.514 0 .996.075 1.447.224s.863.368 1.228.656a3.75 3.75 0 0 1 .914 1.044c.246.408.415.873.507 1.397zm4.936 7.159c-.689 0-1.294-.164-1.815-.492s-.921-.787-1.213-1.377-.432-1.28-.432-2.068c0-.796.144-1.49.432-2.084s.696-1.053 1.213-1.382 1.126-.492 1.815-.492 1.293.164 1.81.492.924.789 1.213 1.382.437 1.288.437 2.084c0 .788-.146 1.478-.437 2.068s-.693 1.049-1.213 1.377-1.121.492-1.81.492zm0-1.054c.524 0 .955-.134 1.293-.403s.588-.621.75-1.059.244-.911.244-1.421a4.08 4.08 0 0 0-.244-1.427 2.4 2.4 0 0 0-.75-1.069c-.338-.272-.769-.408-1.293-.408s-.955.136-1.293.408a2.4 2.4 0 0 0-.75 1.069 4.08 4.08 0 0 0-.244 1.427c0 .51.081.984.244 1.421s.412.791.75 1.059.769.403 1.293.403zm10.064-2.227v-4.514h1.173V128h-1.173v-1.293h-.08c-.179.388-.457.718-.835.99s-.855.402-1.432.402c-.477 0-.901-.104-1.273-.313s-.662-.53-.875-.954-.318-.966-.318-1.616v-4.852h1.174v4.772c0 .557.155 1.001.467 1.333s.716.497 1.203.497a2 2 0 0 0 .89-.224c.305-.149.56-.378.765-.686s.314-.701.314-1.178zm4.495-7.06V128h-1.173v-10.182h1.173zm5.033 10.341c-.637 0-1.198-.161-1.686-.482s-.868-.782-1.143-1.372-.413-1.295-.413-2.103c0-.802.138-1.498.413-2.088s.658-1.046 1.148-1.368 1.058-.482 1.701-.482c.497 0 .89.083 1.178.249s.514.348.666.557l.363.507h.099v-3.759h1.174V128h-1.134v-1.173h-.139c-.086.139-.209.315-.368.527s-.386.396-.681.561-.688.244-1.178.244zm.159-1.054c.47 0 .868-.123 1.193-.368s.572-.591.741-1.029.253-.949.253-1.526c0-.57-.083-1.069-.248-1.497s-.411-.765-.736-1.004-.726-.363-1.203-.363c-.497 0-.912.128-1.243.383s-.575.595-.741 1.029-.243.915-.243 1.452c0 .543.082 1.037.248 1.481s.418.792.746 1.054.742.388 1.233.388zm6.826-3.699V128h-1.173v-7.636h1.133v1.193h.1a2.17 2.17 0 0 1 .815-.935c.364-.238.835-.358 1.412-.358.517 0 .969.106 1.357.318s.689.527.905.955.323.961.323 1.611V128h-1.173v-4.773c0-.6-.156-1.067-.468-1.402s-.739-.507-1.282-.507c-.375 0-.71.081-1.005.244a1.74 1.74 0 0 0-.691.711c-.169.311-.253.689-.253 1.133zm8.05-5.588v.895a2.85 2.85 0 0 1-.149.87 3.58 3.58 0 0 1-.428.89 3.14 3.14 0 0 1-.676.746l-.636-.517a6.45 6.45 0 0 0 .542-.93 2.37 2.37 0 0 0 .233-1.039v-.915h1.114zm5.076 2.546v.994h-3.957v-.994h3.957zm-2.804-1.83h1.173v7.278c0 .332.048.581.145.746a.74.74 0 0 0 .377.328 1.52 1.52 0 0 0 .493.08c.129 0 .235-.007.318-.02l.199-.04.238 1.054c-.079.03-.19.06-.333.09s-.323.049-.542.049c-.331 0-.656-.071-.974-.213a1.94 1.94 0 0 1-.786-.652c-.205-.291-.308-.659-.308-1.103v-7.597zm11.907 1.83v.994h-4.116v-.994h4.116zM640.898 128v-8.69c0-.438.102-.802.308-1.094s.472-.511.8-.656a2.53 2.53 0 0 1 1.039-.219c.289 0 .524.023.706.07a2.67 2.67 0 0 1 .408.129l-.338 1.014-.249-.075c-.102-.029-.238-.044-.407-.044-.388 0-.668.097-.841.293s-.253.482-.253.86V128h-1.173zm4.527 0v-7.636h1.174V128h-1.174zm.597-8.909c-.229 0-.426-.078-.592-.234a.75.75 0 0 1-.243-.562.75.75 0 0 1 .243-.561c.166-.156.363-.234.592-.234s.424.078.587.234.248.343.248.561-.083.406-.248.562-.358.234-.587.234zm3.899 4.315V128h-1.173v-7.636h1.133v1.193h.1c.179-.388.45-.7.815-.935s.835-.358 1.412-.358c.517 0 .969.106 1.357.318a2.14 2.14 0 0 1 .905.955c.215.424.323.961.323 1.611V128h-1.173v-4.773c0-.6-.156-1.067-.467-1.402s-.74-.507-1.283-.507c-.375 0-.709.081-1.004.244s-.522.399-.691.711-.254.689-.254 1.133zm9.9 4.753c-.637 0-1.198-.161-1.686-.482s-.868-.782-1.143-1.372-.413-1.295-.413-2.103c0-.802.138-1.498.413-2.088s.658-1.046 1.148-1.368 1.058-.482 1.701-.482c.497 0 .889.083 1.178.249s.514.348.666.557l.363.507h.099v-3.759h1.174V128h-1.134v-1.173h-.139c-.086.139-.209.315-.368.527s-.386.396-.681.561-.688.244-1.178.244zm.159-1.054c.47 0 .868-.123 1.193-.368s.572-.591.741-1.029.253-.949.253-1.526c0-.57-.083-1.069-.248-1.497s-.411-.765-.736-1.004-.726-.363-1.203-.363c-.497 0-.912.128-1.243.383s-.575.595-.741 1.029-.244.915-.244 1.452c0 .543.083 1.037.249 1.481s.418.792.746 1.054.742.388 1.233.388zm12.911-6.741v.994h-3.957v-.994h3.957zm-2.804-1.83h1.173v7.278c0 .332.048.581.144.746s.226.272.378.328a1.52 1.52 0 0 0 .493.08c.129 0 .235-.007.318-.02l.199-.04.238 1.054c-.079.03-.19.06-.333.09s-.323.049-.542.049c-.331 0-.656-.071-.974-.213a1.94 1.94 0 0 1-.786-.652c-.205-.291-.308-.659-.308-1.103v-7.597zm5.906 4.872V128h-1.173v-10.182h1.173v3.739h.1c.179-.395.447-.708.805-.94s.842-.353 1.442-.353c.52 0 .976.105 1.367.313s.694.522.91.95.328.964.328 1.621V128h-1.173v-4.773c0-.606-.158-1.075-.473-1.407s-.744-.502-1.297-.502c-.385 0-.729.081-1.034.244a1.77 1.77 0 0 0-.716.711c-.173.311-.259.689-.259 1.133zm10.3 4.753c-.736 0-1.37-.162-1.904-.487s-.94-.786-1.228-1.372-.428-1.276-.428-2.059.143-1.471.428-2.068.689-1.067 1.203-1.402 1.12-.507 1.81-.507c.398 0 .79.066 1.178.199s.741.348 1.059.646.572.686.761 1.174.283 1.087.283 1.799v.498h-5.886v-1.015h4.693c0-.431-.086-.815-.259-1.153s-.411-.605-.725-.8-.68-.294-1.104-.294c-.468 0-.872.116-1.213.348a2.3 2.3 0 0 0-.781.895 2.63 2.63 0 0 0-.273 1.183v.676c0 .577.099 1.066.298 1.467a2.15 2.15 0 0 0 .84.91c.358.205.774.308 1.248.308a2.54 2.54 0 0 0 .835-.129 1.8 1.8 0 0 0 .652-.398c.182-.179.323-.401.422-.666l1.134.318a2.51 2.51 0 0 1-.602 1.014c-.282.289-.63.514-1.044.676s-.88.239-1.397.239zm8.884-.159v-7.636h1.134v1.153h.079c.14-.378.392-.684.756-.92a2.23 2.23 0 0 1 1.233-.353l.323.005.294.015v1.193c-.04-.01-.131-.024-.274-.044s-.287-.035-.442-.035c-.372 0-.703.078-.995.234a1.76 1.76 0 0 0-.686.636 1.72 1.72 0 0 0-.248.92V128h-1.174zm5.209 0v-7.636h1.174V128h-1.174zm.597-8.909c-.229 0-.426-.078-.592-.234a.75.75 0 0 1-.243-.562.75.75 0 0 1 .243-.561c.166-.156.363-.234.592-.234s.424.078.587.234.248.343.248.561-.083.406-.248.562-.358.234-.587.234zm5.808 11.932c-.567 0-1.054-.073-1.462-.219s-.747-.331-1.019-.567-.482-.48-.641-.746l.935-.656.402.477c.163.183.385.34.666.473s.658.204 1.119.204c.616 0 1.125-.15 1.526-.448s.602-.765.602-1.402v-1.551h-.1c-.086.139-.208.312-.367.517s-.382.383-.677.542-.686.234-1.183.234c-.616 0-1.17-.146-1.66-.438s-.874-.716-1.159-1.273-.422-1.233-.422-2.028c0-.782.137-1.463.412-2.043s.658-1.034 1.149-1.353 1.057-.482 1.7-.482c.497 0 .892.083 1.183.249s.521.348.676.557l.368.507h.12v-1.213h1.133v7.855c0 .656-.149 1.19-.447 1.601s-.693.717-1.193.909-1.051.294-1.661.294zm-.04-4.196c.471 0 .869-.108 1.193-.323s.572-.526.741-.93.254-.888.254-1.452c0-.55-.083-1.036-.249-1.457s-.411-.75-.736-.989-.725-.358-1.203-.358c-.497 0-.911.126-1.243.378s-.575.59-.74 1.014-.244.895-.244 1.412c0 .53.083.999.249 1.407s.417.723.745.955.743.343 1.233.343zm6.662-3.421V128h-1.173v-10.182h1.173v3.739h.1c.179-.395.447-.708.805-.94s.842-.353 1.442-.353c.52 0 .976.105 1.367.313s.694.522.91.95.328.964.328 1.621V128h-1.173v-4.773c0-.606-.158-1.075-.473-1.407s-.744-.502-1.297-.502c-.385 0-.729.081-1.034.244a1.77 1.77 0 0 0-.716.711c-.173.311-.259.689-.259 1.133zm10.419-3.042v.994h-3.957v-.994h3.957zm-2.804-1.83h1.174v7.278c0 .332.048.581.144.746s.225.272.378.328.32.08.492.08c.129 0 .235-.007.318-.02l.199-.04.239 1.054c-.08.03-.191.06-.334.09a2.46 2.46 0 0 1-.541.049 2.37 2.37 0 0 1-.975-.213 1.93 1.93 0 0 1-.785-.652c-.206-.291-.309-.659-.309-1.103v-7.597zm8.507 9.466v-7.636h1.133v1.193h.1c.159-.408.416-.724.77-.95s.781-.343 1.278-.343c.504 0 .923.115 1.258.343s.601.542.79.95h.08a2.22 2.22 0 0 1 .88-.94c.391-.235.86-.353 1.407-.353.683 0 1.241.214 1.675.642s.652 1.085.652 1.983V128h-1.174v-5.111c0-.563-.154-.966-.462-1.208a1.71 1.71 0 0 0-1.089-.363c-.537 0-.953.163-1.248.487s-.442.73-.442 1.223V128h-1.193v-5.23c0-.434-.141-.784-.423-1.049s-.645-.403-1.089-.403c-.305 0-.59.081-.855.244s-.474.388-.636.676-.239.615-.239.989V128h-1.173zm12.168 0v-7.636h1.173V128h-1.173zm.596-8.909a.83.83 0 0 1-.591-.234.75.75 0 0 1-.244-.562c0-.218.081-.406.244-.561a.83.83 0 0 1 .591-.234c.229 0 .425.078.587.234a.74.74 0 0 1 .249.561c0 .219-.083.406-.249.562s-.358.234-.587.234zm5.828 9.068c-.716 0-1.332-.169-1.849-.507s-.915-.804-1.193-1.397-.418-1.271-.418-2.033c0-.776.143-1.46.428-2.054s.689-1.062 1.203-1.397 1.12-.507 1.809-.507c.537 0 1.021.1 1.452.298a2.78 2.78 0 0 1 1.059.836 2.6 2.6 0 0 1 .512 1.253h-1.173c-.09-.348-.288-.657-.597-.925s-.716-.408-1.233-.408a2.06 2.06 0 0 0-1.203.358c-.341.235-.608.569-.8.999s-.284.93-.284 1.507c0 .59.093 1.104.279 1.541s.454.777.795 1.019.749.363 1.213.363a2.1 2.1 0 0 0 .831-.159 1.71 1.71 0 0 0 .631-.457c.172-.199.295-.438.368-.716h1.173a2.72 2.72 0 0 1-.492 1.218c-.259.358-.602.643-1.029.855s-.918.313-1.482.313zm4.718-.159v-7.636h1.134v1.153h.079c.14-.378.392-.684.756-.92a2.23 2.23 0 0 1 1.233-.353l.323.005.294.015v1.193c-.04-.01-.131-.024-.274-.044s-.287-.035-.442-.035c-.372 0-.703.078-.995.234a1.76 1.76 0 0 0-.686.636 1.72 1.72 0 0 0-.248.92V128h-1.174zm8.079.159c-.689 0-1.294-.164-1.814-.492s-.922-.787-1.214-1.377-.432-1.28-.432-2.068c0-.796.144-1.49.432-2.084s.697-1.053 1.214-1.382 1.125-.492 1.814-.492 1.293.164 1.81.492.925.789 1.213 1.382.437 1.288.437 2.084c0 .788-.145 1.478-.437 2.068s-.693 1.049-1.213 1.377-1.12.492-1.81.492zm0-1.054c.524 0 .955-.134 1.293-.403s.588-.621.751-1.059.243-.911.243-1.421-.081-.986-.243-1.427a2.41 2.41 0 0 0-.751-1.069c-.338-.272-.769-.408-1.293-.408s-.954.136-1.292.408-.589.628-.751 1.069a4.08 4.08 0 0 0-.244 1.427c0 .51.081.984.244 1.421s.413.791.751 1.059.769.403 1.292.403zm10.661-5.031l-1.054.298c-.067-.176-.165-.346-.294-.512a1.43 1.43 0 0 0-.517-.418c-.219-.109-.499-.164-.84-.164-.467 0-.857.108-1.168.324s-.463.482-.463.81c0 .292.106.522.318.691s.544.31.995.423l1.133.278c.683.166 1.192.419 1.527.761s.502.774.502 1.307c0 .438-.126.829-.378 1.173s-.597.617-1.044.816-.968.298-1.561.298c-.779 0-1.424-.169-1.934-.507s-.834-.832-.97-1.482l1.114-.278c.106.411.307.719.602.925s.687.308 1.168.308c.547 0 .981-.116 1.302-.348s.488-.517.488-.845c0-.265-.093-.487-.279-.666s-.47-.319-.855-.408l-1.273-.298c-.699-.166-1.213-.423-1.541-.771s-.487-.79-.487-1.317a1.89 1.89 0 0 1 .363-1.144 2.47 2.47 0 0 1 .999-.78c.424-.189.905-.284 1.442-.284.756 0 1.349.166 1.78.497s.742.769.925 1.313zm5.226-1.71v.994h-3.957v-.994h3.957zm-2.804-1.83h1.173v7.278c0 .332.048.581.144.746s.226.272.378.328a1.52 1.52 0 0 0 .492.08c.13 0 .236-.007.319-.02l.198-.04.239 1.054c-.079.03-.19.06-.333.09a2.47 2.47 0 0 1-.542.049c-.331 0-.656-.071-.974-.213a1.94 1.94 0 0 1-.786-.652c-.205-.291-.308-.659-.308-1.103v-7.597zm7.688 9.625c-.735 0-1.37-.162-1.904-.487s-.939-.786-1.228-1.372-.427-1.276-.427-2.059.142-1.471.427-2.068.69-1.067 1.204-1.402 1.12-.507 1.809-.507c.398 0 .791.066 1.178.199s.741.348 1.059.646.572.686.761 1.174.283 1.087.283 1.799v.498h-5.886v-1.015h4.693c0-.431-.086-.815-.258-1.153s-.411-.605-.726-.8-.68-.294-1.104-.294c-.467 0-.872.116-1.213.348a2.29 2.29 0 0 0-.78.895 2.62 2.62 0 0 0-.274 1.183v.676c0 .577.1 1.066.298 1.467s.483.701.841.91.774.308 1.247.308c.309 0 .587-.043.836-.129s.469-.222.651-.398a1.82 1.82 0 0 0 .423-.666l1.133.318a2.51 2.51 0 0 1-.601 1.014c-.282.289-.63.514-1.044.676s-.88.239-1.398.239zm4.947 2.705v-10.5h1.134v1.213h.139l.358-.507c.156-.209.378-.395.666-.557s.686-.249 1.183-.249c.643 0 1.21.161 1.701.482s.873.778 1.148 1.368.413 1.286.413 2.088c0 .808-.138 1.509-.413 2.103s-.656 1.047-1.143 1.372-1.049.482-1.686.482c-.49 0-.883-.081-1.178-.244s-.522-.353-.681-.561l-.368-.527h-.099v4.037h-1.174zm1.154-6.682c0 .577.084 1.085.253 1.526s.416.781.741 1.029.722.368 1.193.368c.491 0 .9-.129 1.228-.388s.58-.613.746-1.054.253-.938.253-1.481c0-.537-.082-1.021-.248-1.452s-.41-.777-.741-1.029-.741-.383-1.238-.383c-.477 0-.878.121-1.203.363s-.57.573-.736 1.004-.248.927-.248 1.497zm12.787-2.108l-1.054.298a1.96 1.96 0 0 0-.294-.512 1.43 1.43 0 0 0-.517-.418c-.219-.109-.499-.164-.84-.164-.467 0-.857.108-1.168.324s-.463.482-.463.81c0 .292.106.522.319.691s.543.31.994.423l1.133.278c.683.166 1.192.419 1.527.761s.502.774.502 1.307c0 .438-.126.829-.378 1.173s-.597.617-1.044.816-.968.298-1.561.298c-.779 0-1.424-.169-1.934-.507s-.834-.832-.97-1.482l1.114-.278c.106.411.307.719.602.925s.687.308 1.168.308c.547 0 .981-.116 1.302-.348s.488-.517.488-.845c0-.265-.093-.487-.279-.666s-.47-.319-.855-.408l-1.273-.298c-.699-.166-1.213-.423-1.541-.771s-.487-.79-.487-1.317a1.89 1.89 0 0 1 .363-1.144 2.47 2.47 0 0 1 .999-.78c.424-.189.905-.284 1.442-.284.756 0 1.349.166 1.78.497s.742.769.925 1.313z" class="B C"/><use xlink:href="#B" y="88" fill="#a3e78c"/><path d="M590.437 100.909c0 1.074-.194 2.002-.582 2.784s-.919 1.386-1.595 1.81-1.449.636-2.317.636-1.641-.212-2.317-.636-1.208-1.028-1.596-1.81-.581-1.71-.581-2.784.193-2.002.581-2.784.92-1.385 1.596-1.81 1.448-.636 2.317-.636 1.64.212 2.317.636 1.208 1.028 1.595 1.81.582 1.71.582 2.784zm-1.193 0c0-.882-.148-1.626-.443-2.232s-.687-1.065-1.188-1.377a3.08 3.08 0 0 0-1.67-.467c-.617 0-1.175.156-1.676.467s-.893.771-1.188 1.377-.437 1.35-.437 2.232.146 1.626.437 2.232.691 1.066 1.188 1.377 1.059.468 1.676.468 1.173-.156 1.67-.468.897-.77 1.188-1.377.443-1.35.443-2.232zm6.428-2.545v.994h-3.957v-.994h3.957zm-2.804-1.83h1.174v7.278c0 .332.048.581.144.746s.225.272.378.328a1.51 1.51 0 0 0 .492.08c.129 0 .235-.007.318-.02l.199-.04.238 1.054c-.079.03-.19.06-.333.09s-.323.049-.542.049c-.331 0-.656-.071-.974-.213a1.94 1.94 0 0 1-.786-.652c-.205-.291-.308-.659-.308-1.103v-7.597zm5.907 4.872V106h-1.174V95.818h1.174v3.739h.099c.179-.394.447-.708.805-.94s.842-.353 1.442-.353c.52 0 .976.104 1.367.313s.695.522.91.95.328.964.328 1.621V106h-1.173v-4.773c0-.606-.158-1.075-.472-1.407s-.744-.502-1.298-.502c-.384 0-.729.081-1.034.244a1.78 1.78 0 0 0-.716.711c-.172.311-.258.689-.258 1.133zm10.299 4.753c-.735 0-1.37-.162-1.904-.487s-.939-.786-1.228-1.372-.427-1.276-.427-2.059.142-1.471.427-2.068.69-1.067 1.203-1.402 1.121-.507 1.81-.507c.398 0 .791.066 1.178.199s.741.348 1.059.646.572.686.761 1.174.283 1.087.283 1.799v.498h-5.886v-1.015h4.693c0-.431-.086-.815-.258-1.153a1.95 1.95 0 0 0-.726-.8c-.312-.196-.68-.293-1.104-.293-.467 0-.872.116-1.213.348s-.598.527-.781.895a2.63 2.63 0 0 0-.273 1.183v.676c0 .577.099 1.066.298 1.467s.483.701.841.91.773.308 1.247.308c.309 0 .587-.043.836-.129s.469-.222.651-.398.323-.401.422-.666l1.134.318a2.5 2.5 0 0 1-.602 1.014c-.281.289-.629.514-1.044.676s-.88.239-1.397.239zm4.947-.159v-7.636h1.134v1.153h.079a1.83 1.83 0 0 1 .756-.92c.364-.235.775-.353 1.233-.353l.323.005.293.015v1.193c-.039-.01-.131-.025-.273-.045s-.287-.035-.443-.035c-.371 0-.702.078-.994.234s-.517.365-.686.636-.249.575-.249.92V106h-1.173z" class="B C"/><use xlink:href="#B" y="66" fill="#f7cf4e"/><path d="M581.846 53.818h1.472l3.46 8.452h.119l3.461-8.452h1.471V64h-1.153v-7.736h-.1L587.395 64h-1.114l-3.182-7.736H583V64h-1.154V53.818zM594.142 64v-7.636h1.174V64h-1.174zm.597-8.909c-.229 0-.426-.078-.592-.234a.75.75 0 0 1-.243-.562.75.75 0 0 1 .243-.562c.166-.156.363-.234.592-.234s.424.078.586.234.249.343.249.562-.083.406-.249.562-.357.234-.586.234zm8.135 2.983l-1.054.298a1.96 1.96 0 0 0-.294-.512 1.42 1.42 0 0 0-.517-.418c-.219-.109-.499-.164-.84-.164-.467 0-.857.108-1.168.323s-.463.482-.463.81c0 .292.106.522.319.691s.543.31.994.423l1.133.278c.683.166 1.192.419 1.527.761s.502.774.502 1.308c0 .438-.126.829-.378 1.173s-.597.616-1.044.815-.968.298-1.561.298c-.779 0-1.424-.169-1.934-.507s-.834-.832-.97-1.482l1.114-.278c.106.411.307.719.602.925s.687.308 1.168.308c.547 0 .981-.116 1.302-.348s.488-.517.488-.845c0-.265-.093-.487-.279-.666s-.47-.318-.855-.408l-1.273-.298c-.699-.166-1.213-.423-1.541-.771s-.487-.79-.487-1.317c0-.431.121-.812.363-1.144s.578-.592.999-.78.905-.283 1.442-.283c.756 0 1.349.166 1.78.497s.742.769.925 1.313zm7.314 0l-1.054.298c-.066-.176-.164-.346-.293-.512a1.43 1.43 0 0 0-.517-.418c-.219-.109-.499-.164-.841-.164-.467 0-.856.108-1.168.323s-.462.482-.462.81c0 .292.106.522.318.691s.544.31.994.423l1.134.278c.683.166 1.191.419 1.526.761s.502.774.502 1.308c0 .438-.126.829-.378 1.173s-.596.616-1.044.815-.967.298-1.561.298c-.779 0-1.423-.169-1.934-.507s-.833-.832-.969-1.482l1.114-.278c.106.411.306.719.601.925s.688.308 1.168.308c.547 0 .981-.116 1.303-.348s.487-.517.487-.845a.89.89 0 0 0-.278-.666c-.186-.182-.471-.318-.855-.408l-1.273-.298c-.699-.166-1.213-.423-1.541-.771s-.487-.79-.487-1.317c0-.431.12-.812.362-1.144s.579-.592 1-.78.905-.283 1.441-.283c.756 0 1.349.166 1.78.497s.743.769.925 1.313zM612.093 64v-7.636h1.174V64h-1.174zm.597-8.909c-.229 0-.426-.078-.592-.234a.75.75 0 0 1-.243-.562.75.75 0 0 1 .243-.562c.166-.156.363-.234.592-.234a.82.82 0 0 1 .587.234c.165.156.248.343.248.562s-.083.406-.248.562a.82.82 0 0 1-.587.234zm3.899 4.315V64h-1.173v-7.636h1.133v1.193h.1c.179-.388.45-.699.815-.935s.835-.358 1.412-.358c.517 0 .969.106 1.357.318a2.14 2.14 0 0 1 .905.955c.215.424.323.961.323 1.611V64h-1.173v-4.773c0-.6-.156-1.067-.468-1.402s-.739-.507-1.282-.507c-.375 0-.709.081-1.004.244a1.74 1.74 0 0 0-.691.711c-.17.312-.254.689-.254 1.133zm10.099 7.617c-.567 0-1.054-.073-1.462-.219s-.748-.332-1.019-.567a3.09 3.09 0 0 1-.642-.746l.935-.656c.106.139.24.298.403.477s.384.34.666.472.658.204 1.119.204c.616 0 1.125-.149 1.526-.447s.601-.766.601-1.402v-1.551h-.099c-.086.139-.209.312-.368.517s-.381.383-.676.542-.686.234-1.183.234c-.617 0-1.17-.146-1.661-.437s-.873-.716-1.158-1.273-.423-1.233-.423-2.028c0-.782.138-1.463.413-2.043s.658-1.034 1.148-1.352 1.058-.482 1.701-.482c.497 0 .891.083 1.183.249s.52.348.676.557l.368.507h.119v-1.213h1.134v7.855c0 .656-.15 1.19-.448 1.601a2.55 2.55 0 0 1-1.193.91 4.5 4.5 0 0 1-1.66.293zm-.04-4.196c.47 0 .868-.108 1.193-.323s.572-.525.741-.93.253-.888.253-1.452c0-.55-.083-1.036-.248-1.457s-.411-.751-.736-.989-.726-.358-1.203-.358c-.497 0-.912.126-1.243.378s-.575.59-.741 1.014a3.93 3.93 0 0 0-.244 1.412c0 .53.083.999.249 1.407s.418.723.746.955.742.343 1.233.343zm14.835-4.753l-1.054.298c-.066-.176-.164-.346-.293-.512a1.43 1.43 0 0 0-.517-.418c-.219-.109-.499-.164-.841-.164-.467 0-.856.108-1.168.323s-.462.482-.462.81c0 .292.106.522.318.691s.543.31.994.423l1.134.278c.683.166 1.191.419 1.526.761s.502.774.502 1.308c0 .438-.126.829-.378 1.173s-.596.616-1.044.815-.968.298-1.561.298c-.779 0-1.423-.169-1.934-.507s-.833-.832-.969-1.482l1.113-.278c.106.411.307.719.602.925s.688.308 1.168.308c.547 0 .981-.116 1.303-.348s.487-.517.487-.845a.89.89 0 0 0-.278-.666c-.186-.182-.471-.318-.855-.408l-1.273-.298c-.699-.166-1.213-.423-1.541-.771s-.488-.79-.488-1.317c0-.431.121-.812.363-1.144s.579-.592 1-.78.904-.283 1.441-.283c.756 0 1.349.166 1.78.497a2.68 2.68 0 0 1 .925 1.313zm5.107 6.085c-.736 0-1.37-.162-1.904-.487a3.27 3.27 0 0 1-1.228-1.372c-.285-.59-.428-1.276-.428-2.058s.143-1.472.428-2.068.689-1.067 1.203-1.402 1.12-.507 1.81-.507a3.62 3.62 0 0 1 1.178.199c.388.133.741.348 1.059.646s.572.686.761 1.173.283 1.087.283 1.8v.497h-5.886v-1.014h4.693c0-.431-.086-.815-.259-1.153s-.411-.605-.726-.8-.679-.293-1.103-.293c-.468 0-.872.116-1.213.348a2.29 2.29 0 0 0-.781.895c-.182.368-.273.762-.273 1.183v.676c0 .577.099 1.066.298 1.467a2.15 2.15 0 0 0 .84.91c.358.206.774.308 1.248.308.308 0 .587-.043.835-.129s.469-.222.652-.398.323-.401.422-.666l1.134.318a2.52 2.52 0 0 1-.602 1.014c-.282.288-.63.514-1.044.676s-.88.239-1.397.239zm6.12-4.753V64h-1.173v-7.636h1.133v1.193h.1c.179-.388.45-.699.815-.935s.835-.358 1.412-.358c.517 0 .969.106 1.357.318a2.14 2.14 0 0 1 .905.955c.215.424.323.961.323 1.611V64h-1.173v-4.773c0-.6-.156-1.067-.467-1.402s-.74-.507-1.283-.507c-.375 0-.709.081-1.004.244a1.74 1.74 0 0 0-.691.711c-.169.312-.254.689-.254 1.133zm12.425-1.332l-1.054.298c-.066-.176-.164-.346-.293-.512a1.42 1.42 0 0 0-.517-.418c-.219-.109-.499-.164-.84-.164-.468 0-.857.108-1.169.323s-.462.482-.462.81c0 .292.106.522.318.691s.544.31.995.423l1.133.278c.683.166 1.192.419 1.526.761s.503.774.503 1.308c0 .438-.126.829-.378 1.173s-.597.616-1.044.815-.968.298-1.561.298c-.779 0-1.424-.169-1.934-.507s-.834-.832-.97-1.482l1.114-.278c.106.411.306.719.601.925s.688.308 1.169.308c.547 0 .981-.116 1.302-.348s.487-.517.487-.845c0-.265-.092-.487-.278-.666s-.471-.318-.855-.408l-1.273-.298c-.699-.166-1.213-.423-1.541-.771s-.487-.79-.487-1.317c0-.431.121-.812.363-1.144s.578-.592.999-.78.905-.283 1.442-.283c.755 0 1.349.166 1.78.497s.742.769.924 1.313zm5.107 6.085c-.735 0-1.37-.162-1.904-.487s-.939-.785-1.228-1.372-.427-1.276-.427-2.058.142-1.472.427-2.068.69-1.067 1.203-1.402 1.121-.507 1.81-.507c.398 0 .791.066 1.178.199s.741.348 1.059.646.572.686.761 1.173.283 1.087.283 1.8v.497h-5.886v-1.014h4.693c0-.431-.086-.815-.258-1.153s-.411-.605-.726-.8-.68-.293-1.104-.293c-.467 0-.872.116-1.213.348s-.598.527-.781.895-.273.762-.273 1.183v.676c0 .577.099 1.066.298 1.467s.483.701.84.91.774.308 1.248.308c.309 0 .587-.043.836-.129a1.79 1.79 0 0 0 .651-.398c.182-.179.323-.401.422-.666l1.134.318c-.119.385-.32.723-.602 1.014a2.92 2.92 0 0 1-1.044.676c-.414.159-.88.239-1.397.239zm11.987 0c-.69 0-1.294-.164-1.815-.492s-.921-.787-1.213-1.377-.432-1.279-.432-2.068c0-.796.144-1.49.432-2.083s.696-1.054 1.213-1.382 1.125-.492 1.815-.492 1.292.164 1.81.492.924.789 1.213 1.382.437 1.288.437 2.083c0 .789-.146 1.478-.437 2.068s-.693 1.049-1.213 1.377-1.121.492-1.81.492zm0-1.054c.524 0 .954-.134 1.292-.403s.589-.621.751-1.059a4.04 4.04 0 0 0 .244-1.422c0-.51-.081-.986-.244-1.427s-.412-.797-.751-1.069-.768-.408-1.292-.408-.955.136-1.293.408a2.4 2.4 0 0 0-.75 1.069c-.163.441-.244.916-.244 1.427a4.04 4.04 0 0 0 .244 1.422 2.37 2.37 0 0 0 .75 1.059c.338.269.769.403 1.293.403zm8.652-6.742v.994h-4.117v-.994h4.117zM687.997 64v-8.69c0-.437.103-.802.308-1.094s.473-.51.801-.656.674-.219 1.039-.219c.288 0 .524.023.706.07s.318.09.408.129l-.339 1.014-.248-.075c-.103-.03-.239-.045-.408-.045-.388 0-.668.098-.84.293s-.254.482-.254.86V64h-1.173zm11.568.159c-.716 0-1.333-.169-1.85-.507s-.914-.804-1.193-1.397-.417-1.271-.417-2.033c0-.776.142-1.46.427-2.053s.69-1.062 1.203-1.397 1.121-.507 1.81-.507c.537 0 1.021.099 1.452.298s.783.477 1.059.835.445.776.512 1.253h-1.174c-.089-.348-.288-.656-.596-.925s-.716-.408-1.233-.408c-.458 0-.859.119-1.203.358s-.609.569-.801.999-.283.93-.283 1.506c0 .59.093 1.104.278 1.541s.454.777.796 1.019.749.363 1.213.363c.305 0 .581-.053.83-.159s.459-.258.631-.457.295-.437.368-.716h1.174c-.067.451-.231.857-.493 1.218s-.601.643-1.029.855-.918.313-1.481.313zm7.82 0c-.689 0-1.294-.164-1.815-.492s-.921-.787-1.213-1.377-.432-1.279-.432-2.068c0-.796.144-1.49.432-2.083s.696-1.054 1.213-1.382 1.126-.492 1.815-.492 1.293.164 1.81.492.924.789 1.213 1.382.437 1.288.437 2.083c0 .789-.145 1.478-.437 2.068s-.693 1.049-1.213 1.377-1.12.492-1.81.492zm0-1.054c.524 0 .955-.134 1.293-.403a2.37 2.37 0 0 0 .75-1.059 4.04 4.04 0 0 0 .244-1.422c0-.51-.081-.986-.244-1.427a2.4 2.4 0 0 0-.75-1.069c-.338-.272-.769-.408-1.293-.408s-.954.136-1.292.408-.589.628-.751 1.069-.244.916-.244 1.427a4.04 4.04 0 0 0 .244 1.422c.162.438.412.79.751 1.059s.768.403 1.292.403zm5.251.895v-7.636h1.134v1.193h.099c.159-.408.416-.724.771-.95s.78-.343 1.278-.343.923.114 1.257.343.602.542.791.95h.079c.196-.394.489-.708.88-.94s.861-.353 1.407-.353c.683 0 1.242.214 1.676.641s.651 1.085.651 1.984V64h-1.173v-5.111c0-.563-.154-.966-.463-1.208a1.71 1.71 0 0 0-1.088-.363c-.537 0-.953.162-1.248.487s-.443.729-.443 1.223V64h-1.193v-5.23c0-.434-.141-.784-.422-1.049s-.645-.403-1.089-.403c-.305 0-.59.081-.855.244s-.474.388-.637.676-.238.615-.238.989V64h-1.174zm12.168 0v-7.636h1.134v1.193h.099c.159-.408.416-.724.771-.95s.78-.343 1.278-.343.923.114 1.257.343.602.542.791.95h.079c.196-.394.489-.708.88-.94s.86-.353 1.407-.353c.683 0 1.242.214 1.676.641s.651 1.085.651 1.984V64h-1.173v-5.111c0-.563-.154-.966-.463-1.208a1.71 1.71 0 0 0-1.088-.363c-.537 0-.953.162-1.248.487s-.443.729-.443 1.223V64h-1.193v-5.23c0-.434-.141-.784-.422-1.049s-.645-.403-1.089-.403c-.305 0-.59.081-.855.244s-.474.388-.637.676-.238.615-.238.989V64h-1.174zm16.981-3.122v-4.514h1.173V64h-1.173v-1.293h-.08c-.179.388-.457.718-.835.989s-.855.403-1.432.403c-.477 0-.901-.104-1.273-.313s-.662-.53-.875-.955-.318-.966-.318-1.616v-4.852h1.174v4.773c0 .557.155 1.001.467 1.332s.716.497 1.203.497c.292 0 .588-.075.89-.224s.56-.378.766-.686.313-.701.313-1.178zm4.495-1.472V64h-1.173v-7.636h1.134v1.193h.099c.179-.388.451-.699.815-.935s.836-.358 1.412-.358c.517 0 .97.106 1.358.318s.689.527.904.955.324.961.324 1.611V64h-1.174v-4.773c0-.6-.156-1.067-.467-1.402s-.739-.507-1.283-.507c-.374 0-.709.081-1.004.244a1.74 1.74 0 0 0-.691.711c-.169.312-.254.689-.254 1.133zM753.297 64v-7.636h1.173V64h-1.173zm.596-8.909c-.229 0-.426-.078-.592-.234a.75.75 0 0 1-.243-.562.75.75 0 0 1 .243-.562c.166-.156.363-.234.592-.234a.82.82 0 0 1 .587.234c.165.156.248.343.248.562s-.083.406-.248.562a.82.82 0 0 1-.587.234zm6.047 1.273v.994h-3.958v-.994h3.958zm-2.804-1.829h1.173v7.278c0 .331.048.58.144.746s.226.272.378.328a1.52 1.52 0 0 0 .492.079 2.08 2.08 0 0 0 .319-.02l.198-.04.239 1.054a2.41 2.41 0 0 1-.333.09c-.143.033-.323.05-.542.05a2.36 2.36 0 0 1-.974-.214 1.94 1.94 0 0 1-.786-.651c-.205-.292-.308-.66-.308-1.104v-7.597zm5.324 12.33c-.198 0-.376-.017-.532-.05s-.263-.06-.323-.09l.299-1.034c.285.073.537.1.755.08s.413-.118.582-.293.33-.453.472-.84l.219-.597-2.824-7.676h1.273l2.108 6.085h.079l2.108-6.085h1.273l-3.241 8.75c-.146.394-.327.721-.542.979s-.466.456-.751.582-.6.189-.955.189z" class="B C"/><use xlink:href="#B" y="22" fill="#63bac3"/><path d="M349.622 38.139c-.583 0-1.109-.116-1.576-.348s-.842-.55-1.124-.955a2.61 2.61 0 0 1-.462-1.382h1.193c.047.461.255.842.627 1.143s.822.447 1.342.447c.418 0 .789-.098 1.114-.293s.585-.464.77-.805a2.39 2.39 0 0 0 .284-1.168c0-.444-.098-.84-.294-1.188a2.15 2.15 0 0 0-.795-.83c-.338-.202-.724-.305-1.159-.308a3.18 3.18 0 0 0-.959.144c-.328.096-.598.22-.81.373l-1.154-.139.617-5.011h5.289v1.094h-4.255l-.358 3.003h.059a2.66 2.66 0 0 1 .786-.413 2.98 2.98 0 0 1 .984-.164c.623 0 1.179.149 1.666.447s.875.699 1.153 1.213.423 1.1.423 1.76c0 .65-.146 1.23-.438 1.74s-.686.908-1.193 1.203-1.084.438-1.73.438zm10.526-2.048v-.537a2.26 2.26 0 0 1 .229-1.019c.156-.312.381-.56.676-.746s.66-.283 1.084-.283c.431 0 .792.094 1.084.283a1.78 1.78 0 0 1 .661.746 2.31 2.31 0 0 1 .224 1.019v.537c0 .371-.077.713-.229 1.024a1.81 1.81 0 0 1-.666.746c-.295.189-.65.278-1.074.278-.431 0-.794-.093-1.089-.278a1.81 1.81 0 0 1-.671-.746 2.29 2.29 0 0 1-.229-1.024zm1.014-.537v.537a1.59 1.59 0 0 0 .219.83c.146.245.398.363.756.363.348 0 .593-.121.736-.363a1.6 1.6 0 0 0 .218-.83v-.537c0-.308-.069-.583-.208-.825s-.388-.368-.746-.368c-.348 0-.598.123-.751.368s-.224.517-.224.825zm-6.085-5.29v-.537a2.26 2.26 0 0 1 .229-1.019c.156-.312.381-.56.676-.746s.659-.283 1.084-.283c.431 0 .792.094 1.084.283a1.78 1.78 0 0 1 .661.746 2.31 2.31 0 0 1 .223 1.019v.537c0 .371-.076.713-.228 1.024a1.81 1.81 0 0 1-.666.746c-.295.189-.65.278-1.074.278-.431 0-.794-.093-1.089-.278s-.519-.438-.671-.746a2.29 2.29 0 0 1-.229-1.024zm1.014-.537v.537a1.59 1.59 0 0 0 .219.83c.146.245.398.363.756.363.348 0 .593-.121.736-.363a1.6 1.6 0 0 0 .218-.83v-.537c0-.308-.069-.583-.209-.825s-.387-.368-.745-.368c-.348 0-.599.123-.751.368s-.224.517-.224.825zM355.455 38l7-10.182h1.133l-7 10.182h-1.133zm136.426 90.139c-.657 0-1.242-.112-1.755-.338s-.917-.538-1.218-.939-.461-.874-.488-1.407h1.253c.027.328.139.611.338.85s.459.417.781.547a2.83 2.83 0 0 0 1.069.193 2.81 2.81 0 0 0 1.163-.228c.338-.153.603-.365.795-.637s.289-.586.289-.944a1.77 1.77 0 0 0-.279-.99c-.185-.288-.457-.513-.815-.676s-.795-.243-1.312-.243h-.816v-1.094h.816c.404 0 .759-.073 1.063-.219.309-.146.549-.351.721-.616s.264-.577.264-.935c0-.345-.076-.645-.229-.9a1.56 1.56 0 0 0-.646-.596c-.275-.143-.6-.214-.975-.214-.351 0-.682.064-.994.194s-.56.31-.756.552-.301.527-.318.865h-1.193c.02-.534.181-1.001.482-1.402s.696-.72 1.184-.945a3.82 3.82 0 0 1 1.615-.338c.63 0 1.17.128 1.621.383s.797.585 1.039.999.363.862.363 1.342c0 .574-.151 1.063-.452 1.467a2.3 2.3 0 0 1-1.218.84v.08c.643.106 1.145.379 1.506.82s.542.979.542 1.626c0 .553-.151 1.05-.453 1.491s-.705.782-1.223 1.034-1.105.378-1.764.378zm8.655 0c-.583 0-1.109-.116-1.576-.348s-.842-.55-1.123-.954a2.61 2.61 0 0 1-.463-1.382h1.193a1.64 1.64 0 0 0 .627 1.143c.374.298.822.447 1.342.447.418 0 .789-.097 1.114-.293a2.09 2.09 0 0 0 .77-.805 2.39 2.39 0 0 0 .284-1.169c0-.444-.098-.84-.294-1.188a2.15 2.15 0 0 0-.795-.83c-.338-.202-.724-.305-1.158-.308-.312-.004-.632.044-.96.144s-.598.22-.81.373l-1.154-.139.617-5.012h5.289v1.094h-4.255l-.358 3.003h.06c.208-.166.47-.303.785-.413a2.99 2.99 0 0 1 .984-.164c.624 0 1.179.149 1.666.448s.875.699 1.153 1.213.423 1.1.423 1.76c0 .649-.146 1.229-.438 1.74s-.686.908-1.193 1.203-1.084.437-1.73.437zm10.526-2.048v-.537a2.26 2.26 0 0 1 .229-1.019c.156-.312.381-.56.676-.746s.66-.283 1.084-.283c.431 0 .792.094 1.084.283a1.78 1.78 0 0 1 .661.746 2.31 2.31 0 0 1 .224 1.019v.537c0 .371-.077.713-.229 1.024a1.81 1.81 0 0 1-.666.746c-.295.189-.65.278-1.074.278-.431 0-.794-.093-1.089-.278a1.84 1.84 0 0 1-.671-.746 2.29 2.29 0 0 1-.229-1.024zm1.014-.537v.537a1.59 1.59 0 0 0 .219.83c.146.242.398.363.756.363.348 0 .593-.121.736-.363a1.6 1.6 0 0 0 .218-.83v-.537c0-.308-.069-.583-.208-.825s-.388-.368-.746-.368c-.348 0-.598.122-.751.368a1.54 1.54 0 0 0-.224.825zm-6.085-5.29v-.537a2.26 2.26 0 0 1 .229-1.019 1.84 1.84 0 0 1 .676-.746c.298-.189.66-.283 1.084-.283.431 0 .792.094 1.084.283s.512.435.661.746a2.31 2.31 0 0 1 .224 1.019v.537c0 .371-.077.713-.229 1.024a1.8 1.8 0 0 1-.666.746c-.292.186-.65.278-1.074.278-.431 0-.794-.092-1.089-.278s-.519-.437-.671-.746a2.29 2.29 0 0 1-.229-1.024zm1.014-.537v.537a1.59 1.59 0 0 0 .219.83c.146.242.398.363.756.363.348 0 .593-.121.736-.363a1.6 1.6 0 0 0 .218-.83v-.537c0-.308-.069-.583-.208-.825s-.388-.368-.746-.368c-.348 0-.598.123-.751.368a1.54 1.54 0 0 0-.224.825zm-.636 8.273l7-10.182h1.134l-7 10.182h-1.134zM288.02 49.818V60h-1.233v-8.889h-.06l-2.486 1.651v-1.253l2.546-1.69h1.233zm6.249 10.321c-.749 0-1.387-.204-1.914-.611s-.93-1.006-1.208-1.785-.418-1.727-.418-2.834c0-1.1.139-2.04.418-2.819s.686-1.379 1.213-1.79 1.167-.621 1.909-.621 1.377.207 1.904.621.935 1.008 1.213 1.79.423 1.718.423 2.819c0 1.107-.139 2.052-.418 2.834s-.681 1.374-1.208 1.785-1.165.611-1.914.611zm0-1.094c.742 0 1.319-.358 1.73-1.074s.617-1.737.617-3.062c0-.882-.095-1.632-.284-2.252s-.454-1.092-.805-1.417a1.78 1.78 0 0 0-1.258-.487c-.736 0-1.311.363-1.725 1.089s-.622 1.745-.622 3.068c0 .882.093 1.631.279 2.247s.452 1.086.8 1.407.774.482 1.268.482zm10.619-.955v-.537c0-.371.077-.711.229-1.019s.381-.56.676-.746.66-.283 1.084-.283c.431 0 .792.094 1.084.283a1.78 1.78 0 0 1 .661.746 2.31 2.31 0 0 1 .224 1.019v.537a2.29 2.29 0 0 1-.229 1.024c-.149.308-.371.557-.666.746s-.65.278-1.074.278c-.431 0-.794-.093-1.089-.278s-.518-.437-.671-.746-.229-.653-.229-1.024zm1.015-.537v.537a1.59 1.59 0 0 0 .218.83c.146.242.398.363.756.363.348 0 .593-.121.736-.363a1.61 1.61 0 0 0 .219-.83v-.537c0-.308-.07-.583-.209-.825s-.388-.368-.746-.368c-.348 0-.598.123-.751.368a1.54 1.54 0 0 0-.223.825zm-6.086-5.29v-.537c0-.371.077-.711.229-1.019s.381-.56.676-.746.66-.283 1.084-.283c.431 0 .792.094 1.084.283a1.78 1.78 0 0 1 .661.746 2.31 2.31 0 0 1 .224 1.019v.537c0 .371-.077.713-.229 1.024a1.81 1.81 0 0 1-.666.746c-.295.189-.65.278-1.074.278-.431 0-.794-.093-1.089-.278a1.81 1.81 0 0 1-.671-.746c-.152-.309-.229-.653-.229-1.024zm1.015-.537v.537a1.59 1.59 0 0 0 .218.83c.146.242.398.363.756.363.348 0 .593-.121.736-.363a1.61 1.61 0 0 0 .219-.83v-.537c0-.308-.07-.583-.209-.825s-.388-.368-.746-.368c-.348 0-.598.123-.751.368a1.54 1.54 0 0 0-.223.825zM300.195 60l7-10.182h1.134l-7 10.182h-1.134zM228.44 162v-.895l3.361-3.679.974-1.123c.256-.322.445-.624.567-.905a2.19 2.19 0 0 0 .189-.895c0-.358-.086-.668-.258-.93a1.67 1.67 0 0 0-.696-.606c-.295-.143-.627-.214-.995-.214-.391 0-.732.081-1.024.243a1.68 1.68 0 0 0-.671.672c-.156.288-.234.626-.234 1.014h-1.173c0-.597.138-1.12.413-1.571s.649-.802 1.123-1.054 1.013-.378 1.606-.378 1.125.126 1.586.378.822.591 1.084 1.019.393.903.393 1.427c0 .374-.068.741-.204 1.099s-.365.75-.696 1.188-.784.964-1.368 1.591l-2.286 2.446v.079h4.733V162h-6.424zm11.798.139c-.749 0-1.387-.204-1.914-.611s-.93-1.006-1.208-1.785-.418-1.727-.418-2.834c0-1.1.139-2.04.418-2.819s.686-1.379 1.213-1.79 1.166-.621 1.909-.621 1.377.207 1.904.621.935 1.008 1.213 1.79.423 1.719.423 2.819c0 1.107-.14 2.052-.418 2.834s-.681 1.374-1.208 1.785-1.165.611-1.914.611zm0-1.094c.742 0 1.319-.358 1.73-1.073s.616-1.737.616-3.063c0-.882-.094-1.632-.283-2.252s-.454-1.092-.805-1.417-.768-.487-1.258-.487c-.736 0-1.311.363-1.725 1.089s-.622 1.745-.622 3.067c0 .882.093 1.631.279 2.247s.452 1.086.8 1.407.774.482 1.268.482zm10.619-.954v-.537a2.26 2.26 0 0 1 .229-1.019c.156-.312.381-.56.676-.746s.66-.283 1.084-.283c.431 0 .792.094 1.084.283a1.78 1.78 0 0 1 .661.746 2.31 2.31 0 0 1 .223 1.019v.537c0 .371-.076.713-.228 1.024a1.81 1.81 0 0 1-.666.746c-.295.189-.65.278-1.074.278-.431 0-.794-.093-1.089-.278a1.84 1.84 0 0 1-.671-.746 2.29 2.29 0 0 1-.229-1.024zm1.014-.537v.537a1.59 1.59 0 0 0 .219.83c.146.242.398.363.756.363.348 0 .593-.121.736-.363a1.6 1.6 0 0 0 .218-.83v-.537c0-.308-.069-.583-.209-.825s-.387-.368-.745-.368c-.348 0-.599.122-.751.368a1.54 1.54 0 0 0-.224.825zm-6.085-5.29v-.537a2.26 2.26 0 0 1 .229-1.019 1.84 1.84 0 0 1 .676-.746c.298-.189.659-.283 1.084-.283.431 0 .792.094 1.084.283s.512.435.661.746a2.31 2.31 0 0 1 .223 1.019v.537c0 .371-.076.713-.228 1.024a1.8 1.8 0 0 1-.666.746c-.292.186-.65.278-1.074.278-.431 0-.794-.092-1.089-.278s-.519-.437-.671-.746a2.29 2.29 0 0 1-.229-1.024zm1.014-.537v.537a1.59 1.59 0 0 0 .219.83c.146.242.398.363.756.363.348 0 .593-.121.736-.363a1.6 1.6 0 0 0 .218-.83v-.537c0-.308-.069-.583-.209-.825s-.387-.368-.745-.368c-.348 0-.599.123-.751.368a1.54 1.54 0 0 0-.224.825zm-.636 8.273l7-10.182h1.133l-7 10.182h-1.133zm103.717 125.139c-.657 0-1.242-.112-1.755-.338s-.917-.538-1.218-.939-.461-.874-.488-1.407h1.253c.027.328.139.611.338.85s.459.417.781.547a2.83 2.83 0 0 0 1.069.193 2.81 2.81 0 0 0 1.163-.228c.338-.153.603-.365.795-.637s.289-.586.289-.944a1.77 1.77 0 0 0-.279-.99c-.185-.288-.457-.513-.815-.676s-.795-.243-1.312-.243h-.816v-1.094h.816c.404 0 .759-.073 1.063-.219.309-.146.549-.351.721-.616s.264-.577.264-.935c0-.345-.076-.645-.229-.9a1.56 1.56 0 0 0-.646-.596c-.275-.143-.6-.214-.975-.214-.351 0-.682.064-.994.194s-.56.31-.756.552-.301.527-.318.865h-1.193c.02-.534.181-1.001.482-1.402s.696-.72 1.184-.945a3.82 3.82 0 0 1 1.615-.338c.63 0 1.17.128 1.621.383s.797.585 1.039.999.363.862.363 1.342c0 .574-.151 1.063-.452 1.467a2.3 2.3 0 0 1-1.218.84v.08c.643.106 1.145.379 1.506.82s.542.979.542 1.626c0 .553-.151 1.05-.453 1.491s-.705.782-1.223 1.034-1.105.378-1.764.378zm8.794 0c-.749 0-1.387-.204-1.914-.611s-.929-1.006-1.208-1.785-.417-1.727-.417-2.834c0-1.1.139-2.04.417-2.819s.686-1.379 1.213-1.79 1.167-.621 1.909-.621 1.377.207 1.904.621.935 1.008 1.213 1.79.423 1.719.423 2.819c0 1.107-.139 2.052-.418 2.834s-.681 1.374-1.208 1.785-1.165.611-1.914.611zm0-1.094c.743 0 1.319-.358 1.73-1.073s.617-1.737.617-3.063c0-.882-.095-1.632-.283-2.252s-.455-1.092-.806-1.417a1.78 1.78 0 0 0-1.258-.487c-.736 0-1.311.363-1.725 1.089s-.621 1.745-.621 3.067c0 .882.093 1.631.278 2.247s.453 1.086.801 1.407.773.482 1.267.482zm10.62-.954v-.537c0-.371.076-.711.228-1.019s.381-.56.676-.746.66-.283 1.084-.283c.431 0 .792.094 1.084.283a1.79 1.79 0 0 1 .661.746 2.31 2.31 0 0 1 .224 1.019v.537a2.29 2.29 0 0 1-.229 1.024c-.149.308-.371.557-.666.746s-.65.278-1.074.278c-.431 0-.794-.093-1.089-.278a1.82 1.82 0 0 1-.671-.746 2.28 2.28 0 0 1-.228-1.024zm1.014-.537v.537a1.59 1.59 0 0 0 .219.83c.145.242.397.363.755.363.348 0 .594-.121.736-.363a1.59 1.59 0 0 0 .219-.83v-.537c0-.308-.07-.583-.209-.825s-.388-.368-.746-.368c-.348 0-.598.122-.75.368s-.224.517-.224.825zm-6.085-5.29v-.537c0-.371.076-.711.228-1.019a1.84 1.84 0 0 1 .676-.746c.299-.189.66-.283 1.084-.283.431 0 .792.094 1.084.283a1.78 1.78 0 0 1 .661.746 2.31 2.31 0 0 1 .224 1.019v.537a2.29 2.29 0 0 1-.229 1.024 1.8 1.8 0 0 1-.666.746c-.292.186-.65.278-1.074.278-.431 0-.794-.092-1.089-.278a1.84 1.84 0 0 1-.671-.746c-.152-.311-.228-.653-.228-1.024zm1.014-.537v.537a1.59 1.59 0 0 0 .219.83c.145.242.397.363.755.363.348 0 .594-.121.736-.363a1.59 1.59 0 0 0 .219-.83v-.537c0-.308-.07-.583-.209-.825s-.388-.368-.746-.368c-.348 0-.598.123-.75.368s-.224.517-.224.825zm-.637 8.273l7-10.182h1.134l-7 10.182h-1.134z" class="B C"/><path d="M370.386 46c-11.143 0-22.221 1.709-32.846 5.067l6.569 20.787c8.5-2.686 17.362-4.053 26.277-4.053V46z" fill="#a3e78c"/><path d="M337.564 51.059a109 109 0 0 0-54.842 39.164l17.533 12.956a87.2 87.2 0 0 1 43.873-31.332l-6.564-20.788z" fill="#f7cf4e"/><path d="M282.701 90.252c-13.734 18.6-21.198 41.085-21.313 64.207a109.01 109.01 0 0 0 20.673 64.415l17.665-12.775a87.2 87.2 0 0 1-16.539-51.532c.092-18.497 6.064-36.485 17.051-51.365l-17.537-12.949z" fill="#ec529a"/><path d="M282.06 218.871c8.438 11.669 19.105 21.55 31.383 29.072s25.926 12.538 40.154 14.756 28.754 1.595 42.74-1.833a109.01 109.01 0 0 0 38.743-18.141l-12.939-17.545c-9.271 6.838-19.806 11.77-30.994 14.513a87.2 87.2 0 0 1-34.192 1.466c-11.382-1.774-22.3-5.786-32.123-11.804a87.19 87.19 0 0 1-25.106-23.258l-17.666 12.774z" fill="#63bac4"/><path d="M435.069 242.734a109.01 109.01 0 0 0 38.864-121.78 109 109 0 0 0-39.634-54.25C415.705 53.245 393.336 45.999 370.382 46l.001 21.8a87.2 87.2 0 0 1 82.84 59.963c5.736 17.444 5.818 36.254.235 53.748a87.19 87.19 0 0 1-31.326 43.676l12.937 17.547z" fill="#8028ea"/><defs ><path id="B" d="M566.454 42c3.352 0 6.069-2.686 6.069-6s-2.717-6-6.069-6-6.068 2.686-6.068 6 2.717 6 6.068 6z"/></defs></svg>