<svg xmlns="http://www.w3.org/2000/svg" width="1040" height="150" fill="none" xmlns:v="https://vecta.io/nano"><rect width="1040" height="150" rx="16" fill="#fff"/><g fill="#5d9da3"><path d="M230.707 69.707a1 1 0 0 0 0-1.414l-6.364-6.364a1 1 0 0 0-1.414 1.414L228.586 69l-5.657 5.657a1 1 0 0 0 1.414 1.414l6.364-6.364zM214 70h16v-2h-16v2zm199.707-.293a1 1 0 0 0 0-1.414l-6.364-6.364a1 1 0 0 0-1.414 1.414L411.586 69l-5.657 5.657a1 1 0 0 0 1.414 1.414l6.364-6.364zM397 70h16v-2h-16v2zm227.707-.293a1 1 0 0 0 0-1.414l-6.364-6.364a1 1 0 0 0-1.414 1.414L622.586 69l-5.657 5.657a1 1 0 0 0 1.414 1.414l6.364-6.364zM608 70h16v-2h-16v2zm254.707-.293a1 1 0 0 0 0-1.414l-6.364-6.364a1 1 0 0 0-1.414 1.414L860.586 69l-5.657 5.657a1 1 0 0 0 1.414 1.414l6.364-6.364zM846 70h16v-2h-16v2z"/><rect y="26" width="203" height="86" rx="8"/></g><path d="M24.398 62V48.909h8.821v2.282h-6.053v3.119h5.599v2.282h-5.599v3.126h6.079V62h-8.847zm20.124-9.818L41.089 62h-3.068l-3.433-9.818h2.876l2.039 7.025h.102l2.033-7.025h2.883zm3.93 10.004c-.626 0-1.185-.109-1.675-.326s-.878-.548-1.163-.978-.422-.976-.422-1.624c0-.545.1-1.004.3-1.374s.473-.669.818-.895a3.97 3.97 0 0 1 1.176-.511 8.95 8.95 0 0 1 1.394-.243l1.381-.166c.349-.055.603-.136.761-.243s.236-.264.236-.473v-.038c0-.405-.128-.718-.384-.94s-.609-.332-1.074-.332c-.49 0-.88.109-1.17.326a1.5 1.5 0 0 0-.575.805l-2.518-.204c.128-.597.379-1.112.754-1.547a3.62 3.62 0 0 1 1.451-1.01c.597-.239 1.287-.358 2.071-.358.545 0 1.068.064 1.566.192s.948.326 1.336.595a2.89 2.89 0 0 1 .927 1.035c.226.418.339.918.339 1.502V62h-2.582v-1.361h-.077a2.77 2.77 0 0 1-.633.812c-.264.23-.582.411-.952.543s-.799.192-1.285.192zm.78-1.879c.401 0 .754-.079 1.061-.236a1.88 1.88 0 0 0 .722-.652 1.68 1.68 0 0 0 .262-.927v-1.042a1.46 1.46 0 0 1-.352.153l-.492.121-.55.096-.498.07c-.32.047-.599.122-.837.224a1.34 1.34 0 0 0-.556.416c-.132.17-.198.383-.198.639 0 .371.134.654.403.85s.618.288 1.036.288zm9.585-11.397V62h-2.723V48.909h2.723zm8.478 8.91v-5.638h2.723V62h-2.614v-1.783h-.102a2.9 2.9 0 0 1-1.106 1.387c-.511.349-1.136.524-1.873.524-.656 0-1.234-.149-1.732-.447s-.889-.722-1.17-1.272-.418-1.208-.422-1.975v-6.251h2.723v5.766c.004.58.16 1.038.467 1.374s.718.505 1.234.505a1.96 1.96 0 0 0 .92-.224c.285-.153.516-.379.69-.678s.266-.667.262-1.106zm7.701 4.366c-.626 0-1.185-.109-1.675-.326s-.878-.548-1.163-.978-.422-.976-.422-1.624c0-.545.1-1.004.3-1.374s.473-.669.818-.895.737-.396 1.176-.511a8.95 8.95 0 0 1 1.394-.243l1.381-.166c.349-.055.603-.136.761-.243s.236-.264.236-.473v-.038c0-.405-.128-.718-.383-.94s-.609-.332-1.074-.332c-.49 0-.88.109-1.17.326a1.5 1.5 0 0 0-.575.805l-2.519-.204c.128-.597.379-1.112.754-1.547s.859-.776 1.451-1.01 1.287-.358 2.071-.358c.545 0 1.067.064 1.566.192s.948.326 1.336.595a2.89 2.89 0 0 1 .927 1.035c.226.418.339.918.339 1.502V62h-2.582v-1.361h-.077a2.77 2.77 0 0 1-.633.812 2.93 2.93 0 0 1-.952.543c-.371.128-.799.192-1.285.192zm.78-1.879c.401 0 .754-.079 1.061-.236a1.88 1.88 0 0 0 .722-.652 1.68 1.68 0 0 0 .262-.927v-1.042a1.46 1.46 0 0 1-.352.153l-.492.121-.55.096-.499.07c-.32.047-.599.122-.837.224s-.424.241-.556.416-.198.383-.198.639c0 .371.134.654.403.85s.618.288 1.035.288zm12.084-8.124v2.045h-5.913v-2.045h5.913zm-4.57-2.352h2.723v9.153c0 .251.038.447.115.588s.183.232.32.288a1.32 1.32 0 0 0 .486.083 2.33 2.33 0 0 0 .384-.032l.294-.057.428 2.026c-.136.043-.328.092-.575.147a4.62 4.62 0 0 1-.901.109c-.656.026-1.231-.062-1.726-.262s-.871-.511-1.144-.933-.407-.954-.403-1.598V49.83zm10.713 12.362c-1.01 0-1.879-.205-2.608-.614a4.2 4.2 0 0 1-1.675-1.751c-.392-.759-.588-1.656-.588-2.691 0-1.01.196-1.896.588-2.659s.944-1.357 1.656-1.783 1.555-.639 2.519-.639c.648 0 1.251.104 1.809.313s1.053.514 1.47.927.75.933.984 1.56.352 1.351.352 2.186v.748h-8.291V56.1h5.727c0-.392-.085-.739-.256-1.042a1.83 1.83 0 0 0-.71-.709c-.298-.175-.646-.262-1.042-.262-.413 0-.78.096-1.099.288s-.562.441-.742.761-.271.667-.275 1.055v1.604c0 .486.09.906.268 1.259s.441.626.773.818.727.288 1.183.288c.303 0 .579-.043.831-.128s.467-.213.646-.383.315-.379.409-.626l2.519.166c-.128.605-.39 1.133-.786 1.585s-.899.797-1.521 1.048-1.332.371-2.141.371zM104.36 62v-1.643l6.533-9.166h-6.545v-2.282h10.022v1.643l-6.539 9.166h6.552V62H104.36zm12.147 0V48.909h5.165c.993 0 1.838.19 2.537.569s1.232.897 1.598 1.566.556 1.432.556 2.301-.187 1.636-.562 2.301-.918 1.183-1.63 1.553-1.564.556-2.57.556h-3.292v-2.218h2.845c.533 0 .972-.092 1.317-.275s.609-.445.78-.773a2.43 2.43 0 0 0 .262-1.144c0-.435-.088-.814-.262-1.138s-.431-.582-.78-.761-.793-.275-1.33-.275h-1.866V62h-2.768zm15.82 0V48.909h8.668v2.282h-5.9v3.119h5.325v2.282h-5.325V62h-2.768zm13.201-13.091V62h-2.723V48.909h2.723zm6.618 13.283c-.993 0-1.852-.211-2.576-.633a4.34 4.34 0 0 1-1.669-1.777c-.392-.763-.588-1.647-.588-2.653 0-1.014.196-1.901.588-2.659s.949-1.355 1.669-1.777 1.583-.639 2.576-.639 1.849.213 2.569.639 1.283 1.014 1.675 1.777.588 1.645.588 2.659c0 1.006-.196 1.89-.588 2.653s-.95 1.351-1.675 1.777-1.576.633-2.569.633zm.013-2.109c.451 0 .828-.128 1.131-.383s.53-.614.684-1.061.236-.957.236-1.528-.078-1.08-.236-1.528-.381-.801-.684-1.061-.68-.39-1.131-.39-.84.13-1.151.39-.539.614-.697 1.061-.23.957-.23 1.528.077 1.08.23 1.528.39.801.697 1.061.695.383 1.151.383zm8.28 1.918l-2.671-9.818h2.755l1.521 6.597h.089l1.586-6.597h2.703l1.611 6.558h.083l1.496-6.558h2.749L169.695 62h-2.883l-1.687-6.175h-.122L163.316 62h-2.877zm19.076-13.705l-4.219 15.673h-2.346l4.219-15.673h2.346zM9.386 89V75.909h2.768v10.809h5.612V89h-8.38zm14.636.192c-1.01 0-1.879-.205-2.608-.614a4.2 4.2 0 0 1-1.675-1.751c-.392-.758-.588-1.656-.588-2.691 0-1.01.196-1.896.588-2.659s.944-1.357 1.656-1.783 1.555-.639 2.518-.639c.648 0 1.251.104 1.809.313s1.053.514 1.47.927.75.933.984 1.56.352 1.351.352 2.186v.748h-8.291V83.1h5.727c0-.392-.085-.739-.256-1.042a1.83 1.83 0 0 0-.709-.71c-.298-.175-.646-.262-1.042-.262-.413 0-.78.096-1.099.288s-.562.441-.741.761-.271.667-.275 1.055v1.604c0 .486.089.906.268 1.259s.441.626.773.818.727.288 1.183.288c.302 0 .579-.043.831-.128s.467-.213.646-.383.315-.379.409-.626l2.518.166a3.44 3.44 0 0 1-.786 1.585c-.392.448-.899.797-1.521 1.048s-1.332.371-2.141.371zm15.173-10.01L35.763 89h-3.068l-3.433-9.818h2.876l2.039 7.025h.102l2.033-7.025h2.883zm5.552 10.01c-1.01 0-1.879-.205-2.608-.614a4.2 4.2 0 0 1-1.675-1.751c-.392-.758-.588-1.656-.588-2.691 0-1.01.196-1.896.588-2.659s.944-1.357 1.656-1.783 1.555-.639 2.518-.639c.648 0 1.251.104 1.809.313s1.053.514 1.47.927.75.933.984 1.56.352 1.351.352 2.186v.748h-8.291V83.1h5.727c0-.392-.085-.739-.256-1.042a1.83 1.83 0 0 0-.709-.71c-.298-.175-.646-.262-1.042-.262-.413 0-.78.096-1.099.288s-.562.441-.742.761-.271.667-.275 1.055v1.604c0 .486.09.906.269 1.259s.441.626.773.818.727.288 1.183.288c.302 0 .579-.043.831-.128s.467-.213.646-.383.315-.379.409-.626l2.519.166a3.44 3.44 0 0 1-.786 1.585c-.392.448-.899.797-1.521 1.048s-1.332.371-2.141.371zM51.03 89v-9.818h2.64v1.713h.102c.179-.609.479-1.07.901-1.381s.908-.473 1.457-.473c.136 0 .283.008.441.026s.296.04.416.07v2.416c-.128-.038-.305-.072-.531-.102s-.433-.045-.62-.045c-.4 0-.758.087-1.074.262a1.93 1.93 0 0 0-.741.716c-.179.307-.269.66-.269 1.061V89H51.03zm9.884.185c-.626 0-1.185-.109-1.675-.326s-.878-.548-1.163-.978-.422-.976-.422-1.624c0-.545.1-1.004.3-1.374s.473-.669.818-.895.737-.396 1.176-.511a8.95 8.95 0 0 1 1.393-.243l1.381-.166c.349-.055.603-.136.761-.243s.236-.264.236-.473v-.038c0-.405-.128-.718-.383-.94s-.609-.332-1.074-.332c-.49 0-.88.109-1.17.326a1.5 1.5 0 0 0-.575.805l-2.519-.204c.128-.597.379-1.112.754-1.547a3.62 3.62 0 0 1 1.451-1.01c.597-.239 1.287-.358 2.071-.358.546 0 1.068.064 1.566.192s.948.326 1.336.594a2.89 2.89 0 0 1 .927 1.035c.226.418.339.918.339 1.502V89H63.86v-1.362h-.077a2.77 2.77 0 0 1-.633.812 2.93 2.93 0 0 1-.952.543c-.371.128-.799.192-1.285.192zm.78-1.879c.401 0 .754-.079 1.061-.237a1.88 1.88 0 0 0 .722-.652 1.68 1.68 0 0 0 .262-.927v-1.042a1.46 1.46 0 0 1-.352.153l-.492.121-.55.096-.499.07c-.32.047-.599.121-.837.224a1.34 1.34 0 0 0-.556.415c-.132.171-.198.383-.198.639 0 .371.134.654.403.85s.618.288 1.035.288zm11.285 5.58c-.882 0-1.639-.121-2.269-.364s-1.125-.565-1.496-.978-.612-.878-.722-1.393l2.518-.339a1.65 1.65 0 0 0 .364.55 1.77 1.77 0 0 0 .658.409c.277.106.614.16 1.01.16.592 0 1.08-.145 1.464-.435s.582-.765.582-1.438v-1.796h-.115c-.119.273-.298.531-.537.773s-.545.441-.92.594-.822.23-1.342.23a4.03 4.03 0 0 1-2.013-.511c-.601-.345-1.08-.871-1.438-1.579s-.53-1.611-.53-2.697c0-1.112.181-2.041.543-2.787s.844-1.304 1.445-1.675a3.73 3.73 0 0 1 1.988-.556c.55 0 1.01.094 1.381.281s.669.413.895.69.407.541.531.805h.102v-1.649h2.704v9.914c0 .835-.204 1.534-.614 2.097s-.976.984-1.7 1.266-1.549.428-2.486.428zm.057-6.072c.439 0 .81-.109 1.112-.326s.541-.537.703-.946.249-.908.249-1.483-.081-1.074-.243-1.496-.396-.756-.703-.991-.68-.352-1.119-.352c-.447 0-.825.121-1.131.364s-.539.571-.697.997-.237.918-.237 1.476c0 .567.079 1.057.237 1.47s.394.727.697.952.684.332 1.131.332zm11.384 2.378c-1.01 0-1.879-.205-2.608-.614a4.2 4.2 0 0 1-1.675-1.751c-.392-.758-.588-1.656-.588-2.691 0-1.01.196-1.896.588-2.659s.944-1.357 1.656-1.783 1.555-.639 2.519-.639c.648 0 1.251.104 1.809.313s1.053.514 1.47.927.75.933.984 1.56.352 1.351.352 2.186v.748h-8.29V83.1h5.727c0-.392-.085-.739-.256-1.042a1.83 1.83 0 0 0-.71-.71c-.298-.175-.646-.262-1.042-.262-.413 0-.78.096-1.099.288s-.562.441-.741.761-.271.667-.275 1.055v1.604c0 .486.09.906.268 1.259s.441.626.773.818.727.288 1.182.288c.303 0 .58-.043.831-.128s.467-.213.646-.383a1.67 1.67 0 0 0 .409-.626l2.518.166c-.128.605-.39 1.133-.786 1.585s-.899.797-1.521 1.048-1.332.371-2.141.371zm18.587-13.283h2.768v8.501c0 .955-.228 1.79-.684 2.506s-1.085 1.274-1.899 1.675-1.762.594-2.844.594-2.037-.198-2.851-.594-1.447-.959-1.898-1.675-.677-1.551-.677-2.506v-8.501h2.768v8.265c0 .499.109.942.326 1.33s.533.692.933.914.867.332 1.4.332 1.003-.111 1.4-.332a2.34 2.34 0 0 0 .927-.914c.221-.388.332-.831.332-1.33v-8.265zm13.163 6.072l-2.493.153a1.29 1.29 0 0 0-.275-.575 1.46 1.46 0 0 0-.556-.416c-.226-.107-.497-.16-.812-.16-.422 0-.778.09-1.067.268s-.435.409-.435.703c0 .234.094.432.281.594s.509.292.965.39l1.777.358c.955.196 1.667.511 2.135.946s.703 1.006.703 1.713c0 .643-.189 1.208-.568 1.694s-.891.865-1.547 1.138-1.404.403-2.257.403c-1.299 0-2.335-.271-3.106-.812a3.16 3.16 0 0 1-1.349-2.224l2.678-.141c.081.396.277.699.588.908s.71.307 1.196.307c.477 0 .86-.092 1.15-.275s.443-.428.448-.722c-.005-.247-.109-.45-.314-.607s-.519-.285-.946-.371l-1.7-.339c-.959-.192-1.672-.524-2.141-.997s-.697-1.076-.697-1.809c0-.631.171-1.174.511-1.63.346-.456.829-.808 1.451-1.055s1.36-.371 2.199-.371c1.24 0 2.216.262 2.928.786s1.133 1.238 1.253 2.141zm4.738 7.204c-.627 0-1.185-.109-1.675-.326s-.878-.548-1.163-.978-.422-.976-.422-1.624c0-.545.1-1.004.3-1.374s.473-.669.819-.895.737-.396 1.176-.511.907-.196 1.393-.243l1.381-.166c.349-.055.603-.136.76-.243s.237-.264.237-.473v-.038c0-.405-.128-.718-.384-.94s-.609-.332-1.073-.332c-.49 0-.88.109-1.17.326s-.482.481-.575.805l-2.519-.204c.128-.597.379-1.112.754-1.547s.859-.776 1.451-1.01c.597-.239 1.287-.358 2.071-.358.546 0 1.068.064 1.566.192a4.09 4.09 0 0 1 1.336.594 2.89 2.89 0 0 1 .927 1.035c.226.418.339.918.339 1.502V89h-2.582v-1.362h-.077a2.78 2.78 0 0 1-.633.812c-.264.23-.582.411-.952.543s-.799.192-1.285.192zm.78-1.879c.4 0 .754-.079 1.061-.237a1.88 1.88 0 0 0 .722-.652c.175-.273.262-.582.262-.927v-1.042c-.085.055-.202.107-.351.153l-.493.121-.549.096-.499.07c-.32.047-.599.121-.837.224s-.424.241-.556.415-.199.383-.199.639c0 .371.135.654.403.85s.618.288 1.036.288zm11.285 5.58c-.882 0-1.639-.121-2.269-.364s-1.125-.565-1.496-.978-.612-.878-.722-1.393l2.518-.339c.077.196.198.379.364.55s.386.307.659.409.613.16 1.01.16c.592 0 1.08-.145 1.464-.435s.581-.765.581-1.438v-1.796h-.115c-.119.273-.298.531-.537.773s-.545.441-.92.594-.823.23-1.343.23c-.737 0-1.408-.17-2.013-.511s-1.08-.871-1.438-1.579-.531-1.611-.531-2.697c0-1.112.181-2.041.544-2.787s.843-1.304 1.444-1.675 1.268-.556 1.988-.556c.55 0 1.01.094 1.381.281s.669.413.895.69.407.541.53.805h.102v-1.649h2.704v9.914c0 .835-.204 1.534-.613 2.097s-.976.984-1.701 1.266-1.549.428-2.486.428zm.057-6.072c.439 0 .81-.109 1.113-.326s.541-.537.703-.946.249-.908.249-1.483-.081-1.074-.243-1.496-.396-.756-.703-.991-.68-.352-1.119-.352c-.447 0-.824.121-1.131.364s-.539.571-.697.997-.236.918-.236 1.476c0 .567.079 1.057.236 1.47s.394.727.697.952.684.332 1.131.332zm11.385 2.378c-1.01 0-1.88-.205-2.608-.614a4.2 4.2 0 0 1-1.675-1.751c-.392-.758-.588-1.656-.588-2.691 0-1.01.196-1.896.588-2.659a4.35 4.35 0 0 1 1.655-1.783c.716-.426 1.556-.639 2.519-.639a5.12 5.12 0 0 1 1.809.313 4.02 4.02 0 0 1 1.47.927c.422.413.75.933.984 1.56s.352 1.351.352 2.186v.748h-8.29V83.1h5.727a2.08 2.08 0 0 0-.256-1.042 1.83 1.83 0 0 0-.709-.71c-.299-.175-.646-.262-1.042-.262-.414 0-.78.096-1.1.288a2.02 2.02 0 0 0-.741.761c-.179.315-.271.667-.275 1.055v1.604c0 .486.089.906.268 1.259.184.354.441.626.774.818s.726.288 1.182.288a2.57 2.57 0 0 0 .831-.128 1.72 1.72 0 0 0 .646-.383 1.67 1.67 0 0 0 .409-.626l2.518.166c-.127.605-.389 1.133-.786 1.585s-.899.797-1.521 1.048-1.332.371-2.141.371zM159.556 89h-4.641V75.909h4.679c1.317 0 2.45.262 3.401.786a5.3 5.3 0 0 1 2.192 2.244c.516.976.774 2.144.774 3.503s-.258 2.535-.774 3.516a5.31 5.31 0 0 1-2.205 2.256c-.955.524-2.097.786-3.426.786zm-1.873-2.371h1.758c.818 0 1.506-.145 2.064-.435.563-.294.985-.748 1.266-1.361s.428-1.415.428-2.391c0-.967-.143-1.758-.428-2.371s-.701-1.065-1.259-1.355-1.247-.435-2.065-.435h-1.764v8.348zm13.076 2.557c-.626 0-1.184-.109-1.674-.326a2.7 2.7 0 0 1-1.164-.978c-.281-.435-.422-.976-.422-1.624 0-.545.101-1.004.301-1.374a2.43 2.43 0 0 1 .818-.895c.345-.226.737-.396 1.176-.511a8.95 8.95 0 0 1 1.394-.243l1.38-.166c.35-.055.603-.136.761-.243s.237-.264.237-.473v-.038c0-.405-.128-.718-.384-.94-.251-.222-.609-.332-1.074-.332-.49 0-.88.109-1.17.326s-.481.481-.575.805l-2.518-.204c.127-.597.379-1.112.754-1.547s.859-.776 1.451-1.01 1.287-.358 2.071-.358a6.29 6.29 0 0 1 1.566.192c.503.128.948.326 1.336.594a2.89 2.89 0 0 1 .927 1.035c.226.418.339.918.339 1.502V89h-2.583v-1.362h-.077a2.76 2.76 0 0 1-.632.812c-.265.23-.582.411-.953.543s-.799.192-1.285.192zm.78-1.879c.401 0 .755-.079 1.061-.237s.548-.379.723-.652.262-.582.262-.927v-1.042a1.48 1.48 0 0 1-.352.153l-.492.121-.55.096-.498.07c-.32.047-.599.121-.838.224s-.424.241-.556.415-.198.383-.198.639c0 .371.134.654.403.85s.618.288 1.035.288zm12.084-8.124v2.046h-5.912v-2.046h5.912zm-4.57-2.352h2.723v9.154c0 .251.038.447.115.588s.183.232.32.288.302.083.486.083c.127 0 .255-.011.383-.032l.294-.058.428 2.026a7.63 7.63 0 0 1-.575.147c-.247.06-.547.096-.901.109-.656.026-1.232-.062-1.726-.262a2.41 2.41 0 0 1-1.144-.933c-.273-.422-.407-.955-.403-1.598V76.83zm9.144 12.356c-.627 0-1.185-.109-1.675-.326s-.878-.548-1.163-.978-.422-.976-.422-1.624c0-.545.1-1.004.3-1.374s.473-.669.819-.895.737-.396 1.176-.511.907-.196 1.393-.243l1.381-.166c.349-.055.603-.136.761-.243s.236-.264.236-.473v-.038c0-.405-.128-.718-.384-.94s-.609-.332-1.073-.332c-.49 0-.88.109-1.17.326s-.482.481-.575.805l-2.519-.204c.128-.597.379-1.112.754-1.547s.859-.776 1.451-1.01c.597-.239 1.287-.358 2.071-.358.546 0 1.068.064 1.566.192a4.09 4.09 0 0 1 1.336.594 2.89 2.89 0 0 1 .927 1.035c.226.418.339.918.339 1.502V89h-2.582v-1.362h-.077a2.78 2.78 0 0 1-.633.812c-.264.23-.582.411-.952.543s-.799.192-1.285.192zm.78-1.879c.4 0 .754-.079 1.061-.237a1.88 1.88 0 0 0 .722-.652c.175-.273.262-.582.262-.927v-1.042c-.085.055-.202.107-.351.153l-.493.121-.549.096-.499.07a3.37 3.37 0 0 0-.837.224c-.239.102-.424.241-.556.415s-.198.383-.198.639c0 .371.134.654.402.85s.618.288 1.036.288z" fill="#fff"/><rect x="241" y="26" width="145" height="86" rx="8" fill="#5d9da3"/><path d="M254.96 62h-4.641V48.909h4.679c1.317 0 2.451.262 3.401.786a5.3 5.3 0 0 1 2.192 2.244c.516.976.774 2.144.774 3.503s-.258 2.535-.774 3.516a5.31 5.31 0 0 1-2.205 2.256c-.954.524-2.096.786-3.426.786zm-1.873-2.371h1.758c.818 0 1.506-.145 2.065-.435s.984-.748 1.265-1.361.429-1.415.429-2.391c0-.967-.143-1.758-.429-2.371s-.701-1.065-1.259-1.355-1.246-.435-2.065-.435h-1.764v8.348zm14.713 2.563c-.993 0-1.851-.211-2.576-.633a4.33 4.33 0 0 1-1.668-1.777c-.392-.763-.588-1.647-.588-2.653 0-1.014.196-1.901.588-2.659a4.28 4.28 0 0 1 1.668-1.777c.725-.426 1.583-.639 2.576-.639s1.85.213 2.57.639 1.282 1.014 1.674 1.777.588 1.645.588 2.659c0 1.006-.196 1.89-.588 2.653s-.95 1.351-1.674 1.777-1.577.633-2.57.633zm.013-2.109c.452 0 .829-.128 1.131-.383s.531-.614.684-1.061c.158-.447.237-.957.237-1.528s-.079-1.08-.237-1.528c-.153-.447-.381-.801-.684-1.061s-.679-.39-1.131-.39-.84.13-1.151.39-.539.614-.696 1.061-.231.957-.231 1.528.077 1.08.231 1.528.389.801.696 1.061.695.383 1.151.383zm22.358-6.59h-2.8c-.051-.362-.156-.684-.313-.965a2.45 2.45 0 0 0-.608-.729c-.247-.2-.532-.354-.856-.46s-.667-.16-1.042-.16c-.678 0-1.268.168-1.771.505s-.892.818-1.169 1.457-.416 1.406-.416 2.314c0 .933.139 1.717.416 2.352s.673 1.114 1.176 1.438 1.084.486 1.745.486a3.45 3.45 0 0 0 1.029-.147c.32-.098.603-.241.85-.428a2.47 2.47 0 0 0 .614-.697 2.72 2.72 0 0 0 .345-.933l2.8.013c-.073.601-.254 1.18-.544 1.739a5.21 5.21 0 0 1-1.157 1.489c-.481.435-1.056.78-1.726 1.035-.664.252-1.416.377-2.256.377-1.168 0-2.212-.264-3.132-.793s-1.641-1.293-2.173-2.295-.793-2.214-.793-3.637.269-2.642.805-3.643 1.266-1.764 2.187-2.288 1.956-.793 3.106-.793c.759 0 1.462.106 2.109.32.652.213 1.23.524 1.733.933s.912.901 1.227 1.489.524 1.261.614 2.02zm6.369 8.7c-.993 0-1.851-.211-2.576-.633a4.33 4.33 0 0 1-1.668-1.777c-.392-.763-.588-1.647-.588-2.653 0-1.014.196-1.901.588-2.659a4.28 4.28 0 0 1 1.668-1.777c.725-.426 1.583-.639 2.576-.639s1.85.213 2.57.639a4.27 4.27 0 0 1 1.675 1.777c.392.759.588 1.645.588 2.659 0 1.006-.196 1.89-.588 2.653a4.32 4.32 0 0 1-1.675 1.777c-.72.422-1.577.633-2.57.633zm.013-2.109c.452 0 .829-.128 1.131-.383s.531-.614.684-1.061.237-.957.237-1.528-.079-1.08-.237-1.528-.381-.801-.684-1.061-.679-.39-1.131-.39-.839.13-1.15.39-.54.614-.697 1.061-.23.957-.23 1.528.076 1.08.23 1.528.39.801.697 1.061.694.383 1.15.383zm6.59 1.918v-9.818h2.595v1.732h.116a2.72 2.72 0 0 1 1.022-1.361c.478-.332 1.049-.499 1.713-.499.674 0 1.247.168 1.72.505a2.38 2.38 0 0 1 .946 1.355h.102c.2-.562.563-1.012 1.087-1.349s1.152-.511 1.873-.511c.916 0 1.659.292 2.23.876s.863 1.402.863 2.467V62h-2.716v-6.066c0-.545-.145-.955-.435-1.227s-.652-.409-1.087-.409c-.494 0-.88.158-1.157.473s-.415.722-.415 1.234V62h-2.64v-6.124c0-.481-.138-.865-.415-1.15s-.633-.428-1.081-.428a1.5 1.5 0 0 0-.818.23 1.58 1.58 0 0 0-.569.633c-.14.269-.211.584-.211.946V62h-2.723zm16.418 3.682v-13.5h2.685v1.649h.121c.12-.264.292-.533.518-.805s.529-.507.895-.69c.371-.187.831-.281 1.381-.281.716 0 1.376.188 1.981.563s1.089.931 1.451 1.681.544 1.681.544 2.806c0 1.095-.177 2.02-.531 2.774s-.827 1.319-1.432 1.707-1.274.575-2.02.575c-.528 0-.978-.087-1.348-.262s-.667-.394-.902-.658-.413-.539-.537-.812h-.083v5.254h-2.723zm2.666-8.591c0 .584.081 1.093.243 1.528s.396.773.703 1.016.679.358 1.118.358.819-.121 1.125-.364.539-.588.697-1.023.243-.944.243-1.515-.079-1.065-.237-1.496-.389-.767-.696-1.01-.684-.364-1.132-.364-.818.117-1.125.352-.534.567-.696.997-.243.938-.243 1.521zm13.199 5.101c-1.01 0-1.879-.205-2.608-.614-.724-.413-1.282-.997-1.674-1.751s-.588-1.656-.588-2.691c0-1.01.196-1.896.588-2.659a4.35 4.35 0 0 1 1.655-1.783c.716-.426 1.556-.639 2.519-.639.647 0 1.25.104 1.809.313a4.02 4.02 0 0 1 1.47.927c.422.413.75.933.984 1.56s.352 1.351.352 2.186v.748h-8.291V56.1h5.727a2.09 2.09 0 0 0-.255-1.042c-.171-.303-.407-.539-.71-.709s-.645-.262-1.042-.262c-.413 0-.779.096-1.099.288a2.02 2.02 0 0 0-.742.761c-.178.315-.27.667-.274 1.055v1.604c0 .486.089.906.268 1.259a1.96 1.96 0 0 0 .774.818c.332.192.726.288 1.182.288a2.57 2.57 0 0 0 .831-.128 1.73 1.73 0 0 0 .646-.383 1.67 1.67 0 0 0 .409-.626l2.518.166c-.128.605-.39 1.133-.786 1.585s-.899.797-1.521 1.048-1.332.371-2.142.371zm11.506-10.01v2.045h-5.913v-2.045h5.913zm-4.57-2.352h2.723v9.153c0 .251.038.447.115.588a.63.63 0 0 0 .319.288c.141.055.303.083.486.083.128 0 .256-.011.384-.032l.294-.057.428 2.026a7.63 7.63 0 0 1-.575.147c-.247.06-.548.096-.902.109-.656.026-1.231-.062-1.725-.262s-.872-.511-1.145-.933-.407-.954-.402-1.598V49.83zM348.706 62v-9.818h2.723V62h-2.723zm1.368-11.084a1.48 1.48 0 0 1-1.042-.403c-.286-.273-.428-.599-.428-.978s.142-.697.428-.965.637-.409 1.042-.409a1.44 1.44 0 0 1 1.035.409 1.27 1.27 0 0 1 .435.965c0 .379-.145.705-.435.978-.285.268-.63.403-1.035.403zm8.758 1.266v2.045h-5.912v-2.045h5.912zm-4.57-2.352h2.723v9.153c0 .251.038.447.115.588s.183.232.32.288.302.083.486.083c.127 0 .255-.011.383-.032l.294-.057.428 2.026a7.63 7.63 0 0 1-.575.147c-.247.06-.548.096-.901.109-.656.026-1.232-.062-1.726-.262a2.41 2.41 0 0 1-1.144-.933c-.273-.422-.407-.954-.403-1.598V49.83zm10.675 12.362c-.993 0-1.852-.211-2.576-.633a4.34 4.34 0 0 1-1.669-1.777c-.392-.763-.588-1.647-.588-2.653 0-1.014.196-1.901.588-2.659s.949-1.355 1.669-1.777 1.583-.639 2.576-.639 1.849.213 2.569.639c.725.422 1.283 1.014 1.675 1.777s.588 1.645.588 2.659c0 1.006-.196 1.89-.588 2.653s-.95 1.351-1.675 1.777c-.72.422-1.576.633-2.569.633zm.013-2.109c.451 0 .828-.128 1.131-.383s.531-.614.684-1.061c.158-.447.236-.957.236-1.528s-.078-1.08-.236-1.528c-.153-.447-.381-.801-.684-1.061s-.68-.39-1.131-.39-.84.13-1.151.39-.539.614-.697 1.061c-.153.447-.23.957-.23 1.528s.077 1.08.23 1.528c.158.447.39.801.697 1.061s.695.383 1.151.383zM371.54 62v-9.818h2.64v1.713h.102c.179-.609.479-1.07.901-1.381a2.37 2.37 0 0 1 1.458-.473c.136 0 .283.008.441.026a3.09 3.09 0 0 1 .415.07v2.416c-.128-.038-.305-.072-.53-.102a4.78 4.78 0 0 0-.62-.045c-.401 0-.759.087-1.074.262a1.93 1.93 0 0 0-.742.716c-.179.307-.268.66-.268 1.061V62h-2.723zm-92.483 27h-2.966l4.52-13.091h3.566L288.69 89h-2.966l-3.279-10.099h-.102L279.057 89zm-.185-5.146h7.006v2.16h-7.006v-2.16zm14.066-.531V89h-2.723v-9.818h2.595v1.732h.115c.217-.571.581-1.023 1.093-1.355s1.131-.505 1.86-.505c.682 0 1.276.149 1.783.447s.902.724 1.183 1.278.422 1.206.422 1.969V89h-2.723v-5.766c.004-.601-.149-1.07-.461-1.406s-.739-.511-1.284-.511c-.367 0-.691.079-.972.236a1.65 1.65 0 0 0-.652.69c-.153.298-.232.658-.236 1.08zm11.274 5.862c-.627 0-1.185-.109-1.675-.326a2.7 2.7 0 0 1-1.164-.978c-.281-.435-.421-.976-.421-1.624 0-.545.1-1.004.3-1.374a2.43 2.43 0 0 1 .818-.895c.345-.226.737-.396 1.176-.511a8.97 8.97 0 0 1 1.394-.243l1.381-.166c.349-.055.602-.136.76-.243s.237-.264.237-.473v-.038c0-.405-.128-.718-.384-.94s-.609-.332-1.074-.332c-.49 0-.88.109-1.169.326a1.5 1.5 0 0 0-.576.805l-2.518-.204c.128-.597.379-1.112.754-1.547s.859-.776 1.451-1.01 1.287-.358 2.071-.358c.546 0 1.068.064 1.566.192s.948.326 1.336.594a2.89 2.89 0 0 1 .927 1.035c.226.418.339.918.339 1.502V89h-2.583v-1.362h-.076a2.78 2.78 0 0 1-.633.812c-.264.23-.582.411-.953.543s-.799.192-1.284.192zm.779-1.879c.401 0 .755-.079 1.061-.237s.548-.379.723-.652.262-.582.262-.927v-1.042c-.085.055-.203.107-.352.153l-.492.121-.55.096-.498.07c-.32.047-.599.121-.838.224s-.424.241-.556.415-.198.383-.198.639c0 .371.134.654.403.85s.618.288 1.035.288zm9.585-11.397V89h-2.723V75.909h2.723zm3.863 16.773c-.346 0-.669-.028-.972-.083a3.54 3.54 0 0 1-.741-.198l.613-2.033c.32.098.607.151.863.16s.484-.051.671-.179.348-.345.467-.652l.16-.416-3.522-10.099h2.863l2.033 7.21h.102l2.052-7.21h2.883l-3.816 10.879c-.183.528-.433.989-.748 1.381s-.705.701-1.182.914-1.053.326-1.726.326zm17.034-10.7l-2.492.153a1.3 1.3 0 0 0-.275-.575 1.46 1.46 0 0 0-.556-.416c-.226-.107-.497-.16-.812-.16-.422 0-.778.09-1.068.268s-.434.409-.434.703c0 .234.093.432.281.594s.509.292.965.39l1.777.358c.955.196 1.666.511 2.135.946s.703 1.006.703 1.713a2.67 2.67 0 0 1-.569 1.694c-.375.486-.89.865-1.547 1.138s-1.404.403-2.256.403c-1.3 0-2.335-.271-3.107-.812a3.16 3.16 0 0 1-1.348-2.224l2.678-.141c.081.396.277.699.588.908s.71.307 1.195.307c.478 0 .861-.092 1.151-.275s.443-.428.447-.722a.75.75 0 0 0-.313-.607c-.204-.162-.52-.285-.946-.371l-1.7-.339c-.959-.192-1.673-.524-2.141-.997s-.697-1.076-.697-1.809c0-.631.17-1.174.511-1.63s.829-.808 1.451-1.055 1.36-.371 2.199-.371c1.24 0 2.216.262 2.928.786s1.133 1.238 1.252 2.141zM337.412 89v-9.818h2.723V89h-2.723zm1.368-11.084a1.48 1.48 0 0 1-1.042-.403c-.286-.273-.428-.599-.428-.978s.142-.697.428-.965.637-.409 1.042-.409a1.44 1.44 0 0 1 1.035.409 1.27 1.27 0 0 1 .435.965c0 .379-.145.705-.435.978s-.63.403-1.035.403zm11.705 4.065l-2.493.153a1.28 1.28 0 0 0-.275-.575c-.14-.175-.326-.313-.556-.416s-.496-.16-.811-.16c-.422 0-.778.09-1.068.268s-.435.409-.435.703c0 .234.094.432.282.594s.509.292.965.39l1.777.358c.954.196 1.666.511 2.135.946s.703 1.006.703 1.713c0 .643-.19 1.208-.569 1.694s-.891.865-1.547 1.138-1.404.403-2.256.403c-1.3 0-2.335-.271-3.107-.812s-1.216-1.287-1.349-2.224l2.679-.141c.081.396.277.699.588.908s.709.307 1.195.307c.477 0 .861-.092 1.151-.275s.443-.428.447-.722a.75.75 0 0 0-.313-.607c-.205-.162-.52-.285-.946-.371l-1.7-.339c-.959-.192-1.673-.524-2.142-.997-.464-.473-.696-1.076-.696-1.809 0-.631.17-1.174.511-1.63s.829-.808 1.451-1.055 1.359-.371 2.199-.371c1.24 0 2.216.262 2.927.786s1.134 1.238 1.253 2.141z" fill="#fff"/><rect x="424" y="26" width="173" height="86" rx="8" fill="#5d9da3"/><path d="M449.721 51.191v-2.282h10.752v2.282h-4.008V62h-2.736V51.191h-4.008zm13.935 10.994c-.627 0-1.185-.109-1.675-.326s-.878-.548-1.163-.978-.422-.976-.422-1.624c0-.545.1-1.004.3-1.374s.473-.669.819-.895.737-.396 1.176-.511.907-.196 1.393-.243l1.381-.166c.349-.055.603-.136.76-.243s.237-.264.237-.473v-.038c0-.405-.128-.718-.384-.94-.251-.222-.609-.332-1.073-.332-.49 0-.88.109-1.17.326s-.482.482-.575.805l-2.519-.204c.128-.597.379-1.112.754-1.547s.859-.776 1.451-1.01 1.287-.358 2.071-.358c.546 0 1.068.064 1.566.192a4.09 4.09 0 0 1 1.336.595 2.89 2.89 0 0 1 .927 1.035c.226.418.339.918.339 1.502V62h-2.582v-1.361h-.077a2.78 2.78 0 0 1-.633.812c-.264.23-.582.411-.952.543s-.799.192-1.285.192zm.78-1.879c.4 0 .754-.079 1.061-.236a1.88 1.88 0 0 0 .722-.652c.175-.273.262-.582.262-.927v-1.042c-.085.055-.202.106-.351.153l-.493.121-.549.096-.499.07a3.37 3.37 0 0 0-.837.224c-.239.102-.424.241-.556.416s-.198.383-.198.639c0 .371.134.654.402.85.273.192.618.288 1.036.288zm9.585-11.397V62h-2.723V48.909h2.723zm4.648 10.266l.007-3.266h.396l3.145-3.727h3.126l-4.226 4.935h-.645l-1.803 2.058zM476.202 62V48.909h2.723V62h-2.723zm6.136 0l-2.889-4.276 1.815-1.924 4.264 6.2h-3.19zm13.729-9.818v2.045h-5.913v-2.045h5.913zm-4.571-2.352h2.723v9.153c0 .251.039.447.116.588a.63.63 0 0 0 .319.288c.141.055.303.083.486.083.128 0 .256-.011.383-.032l.294-.057.429 2.026a7.68 7.68 0 0 1-.576.147c-.247.06-.547.096-.901.109-.656.026-1.231-.062-1.726-.262a2.41 2.41 0 0 1-1.144-.933c-.273-.422-.407-.954-.403-1.598V49.83zm10.675 12.362c-.993 0-1.851-.211-2.576-.633a4.33 4.33 0 0 1-1.668-1.777c-.392-.763-.588-1.647-.588-2.653 0-1.014.196-1.901.588-2.659a4.28 4.28 0 0 1 1.668-1.777c.725-.426 1.583-.639 2.576-.639s1.85.213 2.57.639 1.282 1.014 1.674 1.777.589 1.645.589 2.659c0 1.006-.196 1.89-.589 2.653s-.95 1.351-1.674 1.777-1.577.633-2.57.633zm.013-2.109c.452 0 .829-.128 1.131-.383s.531-.614.684-1.061.237-.957.237-1.528-.079-1.08-.237-1.528-.381-.801-.684-1.061-.679-.39-1.131-.39-.84.13-1.151.39-.539.614-.696 1.061-.23.957-.23 1.528.076 1.08.23 1.528.39.801.696 1.061.695.383 1.151.383zM512.991 62V48.909h5.165c.989 0 1.832.177 2.531.53s1.238.846 1.605 1.489.556 1.391.556 2.256-.188 1.617-.563 2.244-.918 1.099-1.63 1.432-1.564.499-2.569.499h-3.458v-2.224h3.01c.529 0 .968-.072 1.317-.217s.609-.362.78-.652.262-.65.262-1.08-.087-.801-.262-1.099-.433-.524-.786-.678-.791-.236-1.323-.236h-1.867V62h-2.768zm7.07-5.957L523.314 62h-3.055l-3.183-5.957h2.985zm9.008 6.149c-1.01 0-1.879-.205-2.608-.614s-1.283-.997-1.675-1.751-.588-1.656-.588-2.691c0-1.01.196-1.896.588-2.659s.944-1.357 1.656-1.783 1.555-.639 2.518-.639a5.12 5.12 0 0 1 1.809.313c.563.205 1.053.514 1.47.927s.75.933.985 1.56.351 1.351.351 2.186v.748h-8.29V56.1h5.727a2.08 2.08 0 0 0-.256-1.042 1.83 1.83 0 0 0-.709-.709c-.298-.175-.646-.262-1.042-.262-.413 0-.78.096-1.099.288s-.563.441-.742.761-.271.667-.275 1.055v1.604c0 .486.09.906.269 1.259s.441.626.773.818.727.288 1.183.288c.302 0 .579-.043.831-.128s.466-.213.645-.383.316-.379.409-.626l2.519.166c-.128.605-.39 1.133-.786 1.585s-.9.797-1.522 1.048-1.331.371-2.141.371zm6.283 3.49v-13.5h2.685v1.649h.121c.12-.264.292-.533.518-.805s.529-.507.895-.69.831-.281 1.381-.281c.716 0 1.376.188 1.981.563s1.089.931 1.451 1.681.544 1.681.544 2.806c0 1.095-.177 2.02-.531 2.774s-.827 1.319-1.432 1.707-1.274.575-2.02.575c-.528 0-.978-.087-1.348-.262s-.667-.394-.902-.658-.413-.539-.537-.812h-.083v5.254h-2.723zm2.666-8.591c0 .584.081 1.093.243 1.528s.396.773.703 1.016.679.358 1.118.358.819-.121 1.125-.364.539-.588.697-1.023.243-.944.243-1.515-.079-1.065-.236-1.496-.39-.767-.697-1.01-.684-.364-1.132-.364-.818.117-1.125.352-.534.567-.696.997-.243.938-.243 1.521zm18.113-4.909v2.045h-5.912v-2.045h5.912zm-4.57-2.352h2.723v9.153c0 .251.038.447.115.588s.183.232.32.288.302.083.485.083c.128 0 .256-.011.384-.032l.294-.057.428 2.026a7.63 7.63 0 0 1-.575.147c-.247.06-.548.096-.901.109-.657.026-1.232-.062-1.726-.262s-.872-.511-1.144-.933-.407-.954-.403-1.598V49.83zm10.675 12.362c-.993 0-1.852-.211-2.576-.633s-1.277-1.018-1.669-1.777-.588-1.647-.588-2.653c0-1.014.196-1.901.588-2.659s.948-1.355 1.669-1.777 1.583-.639 2.576-.639 1.849.213 2.569.639c.725.422 1.283 1.014 1.675 1.777s.588 1.645.588 2.659c0 1.006-.196 1.89-.588 2.653s-.95 1.351-1.675 1.777c-.72.422-1.576.633-2.569.633zm.012-2.109c.452 0 .829-.128 1.132-.383s.53-.614.684-1.061.236-.957.236-1.528-.079-1.08-.236-1.528-.382-.801-.684-1.061-.68-.39-1.132-.39-.839.13-1.15.39-.539.614-.697 1.061c-.153.447-.23.957-.23 1.528s.077 1.08.23 1.528c.158.447.39.801.697 1.061s.694.383 1.15.383zm-117.344 20.41h-2.8c-.051-.362-.155-.684-.313-.965a2.46 2.46 0 0 0-.607-.729 2.67 2.67 0 0 0-.857-.46c-.319-.107-.667-.16-1.042-.16-.677 0-1.267.168-1.77.505s-.893.818-1.17 1.457-.415 1.406-.415 2.314c0 .933.138 1.717.415 2.352s.673 1.114 1.176 1.438 1.085.486 1.745.486a3.45 3.45 0 0 0 1.029-.147c.32-.098.603-.241.851-.428a2.47 2.47 0 0 0 .613-.697 2.72 2.72 0 0 0 .345-.933l2.8.013a5.07 5.07 0 0 1-.543 1.739 5.23 5.23 0 0 1-1.157 1.489 5.45 5.45 0 0 1-1.726 1.035c-.665.251-1.417.377-2.256.377-1.168 0-2.212-.264-3.133-.793s-1.64-1.293-2.173-2.295-.793-2.214-.793-3.637.269-2.642.806-3.643 1.266-1.764 2.186-2.288 1.956-.793 3.107-.793c.758 0 1.461.107 2.109.32a5.35 5.35 0 0 1 1.732.933c.503.405.912.901 1.227 1.489s.525 1.261.614 2.02zM446.838 89v-9.818h2.64v1.713h.102c.179-.609.479-1.07.901-1.381a2.37 2.37 0 0 1 1.457-.473 4.12 4.12 0 0 1 .442.026 3.09 3.09 0 0 1 .415.07v2.416c-.128-.038-.305-.072-.531-.102s-.432-.045-.62-.045c-.4 0-.758.087-1.073.262s-.559.409-.742.716-.268.66-.268 1.061V89h-2.723zm11.382.192c-1.01 0-1.879-.205-2.608-.614s-1.282-.997-1.674-1.751-.588-1.656-.588-2.691c0-1.01.196-1.896.588-2.659s.943-1.357 1.655-1.783 1.556-.639 2.519-.639c.647 0 1.25.104 1.809.313a4.02 4.02 0 0 1 1.47.927c.422.413.75.933.984 1.56s.352 1.351.352 2.186v.748h-8.291V83.1h5.727a2.09 2.09 0 0 0-.255-1.042c-.171-.302-.407-.539-.71-.71s-.645-.262-1.042-.262c-.413 0-.779.096-1.099.288a2.02 2.02 0 0 0-.742.761c-.179.315-.27.667-.274 1.055v1.604c0 .486.089.906.268 1.259s.441.626.773.818.727.288 1.183.288a2.57 2.57 0 0 0 .831-.128 1.73 1.73 0 0 0 .646-.383 1.67 1.67 0 0 0 .409-.626l2.518.166c-.128.605-.39 1.133-.786 1.585s-.899.797-1.521 1.048-1.332.371-2.142.371zm9.083-.006c-.626 0-1.184-.109-1.674-.326a2.7 2.7 0 0 1-1.164-.978c-.281-.435-.422-.976-.422-1.624 0-.545.101-1.004.301-1.374a2.43 2.43 0 0 1 .818-.895c.345-.226.737-.396 1.176-.511a8.95 8.95 0 0 1 1.394-.243l1.38-.166c.35-.055.603-.136.761-.243s.236-.264.236-.473v-.038c0-.405-.127-.718-.383-.94-.251-.222-.609-.332-1.074-.332-.49 0-.88.109-1.17.326s-.481.481-.575.805l-2.518-.204c.127-.597.379-1.112.754-1.547s.859-.776 1.451-1.01 1.287-.358 2.071-.358a6.29 6.29 0 0 1 1.566.192c.503.128.948.326 1.336.594a2.89 2.89 0 0 1 .927 1.035c.226.418.338.918.338 1.502V89h-2.582v-1.362h-.077a2.76 2.76 0 0 1-.632.812c-.265.23-.582.411-.953.543s-.799.192-1.285.192zm.78-1.879c.401 0 .754-.079 1.061-.237s.548-.379.723-.652.262-.582.262-.927v-1.042a1.48 1.48 0 0 1-.352.153l-.492.121-.55.096-.498.07c-.32.047-.599.121-.838.224s-.424.241-.556.415-.198.383-.198.639c0 .371.134.654.403.85s.618.288 1.035.288zm12.084-8.124v2.046h-5.912v-2.046h5.912zm-4.57-2.352h2.723v9.154c0 .251.038.447.115.588s.183.232.32.288.302.083.486.083c.127 0 .255-.011.383-.032l.294-.058.428 2.026a7.63 7.63 0 0 1-.575.147c-.247.06-.548.096-.901.109-.656.026-1.232-.062-1.726-.262s-.872-.511-1.144-.933-.407-.955-.403-1.598V76.83zm10.713 12.362c-1.01 0-1.879-.205-2.608-.614s-1.283-.997-1.675-1.751-.588-1.656-.588-2.691c0-1.01.196-1.896.588-2.659s.944-1.357 1.656-1.783 1.555-.639 2.518-.639a5.12 5.12 0 0 1 1.809.313c.563.205 1.053.514 1.471.927s.75.933.984 1.56.351 1.351.351 2.186v.748h-8.29V83.1h5.727a2.09 2.09 0 0 0-.255-1.042c-.171-.302-.407-.539-.71-.71s-.646-.262-1.042-.262c-.413 0-.78.096-1.099.288s-.563.441-.742.761-.27.667-.275 1.055v1.604c0 .486.09.906.269 1.259s.441.626.773.818.727.288 1.183.288c.302 0 .579-.043.831-.128s.466-.213.645-.383a1.67 1.67 0 0 0 .41-.626l2.518.166c-.128.605-.39 1.133-.786 1.585s-.899.797-1.522 1.048c-.617.247-1.331.371-2.141.371zm18.587-13.283h2.767v8.501c0 .955-.228 1.79-.684 2.506s-1.084 1.274-1.898 1.675-1.762.594-2.845.594-2.036-.198-2.85-.594-1.447-.959-1.899-1.675-.677-1.551-.677-2.506v-8.501h2.767v8.265c0 .499.109.942.326 1.33a2.38 2.38 0 0 0 .934.914c.4.222.867.332 1.399.332s1.004-.111 1.4-.332a2.33 2.33 0 0 0 .927-.914c.222-.388.333-.831.333-1.33v-8.265zm13.162 6.072l-2.493.153c-.042-.213-.134-.405-.274-.575a1.46 1.46 0 0 0-.556-.416c-.226-.107-.497-.16-.812-.16-.422 0-.778.09-1.068.268s-.434.409-.434.703c0 .234.093.432.281.594s.509.292.965.39l1.777.358c.955.196 1.666.511 2.135.946s.703 1.006.703 1.713c0 .643-.19 1.208-.569 1.694s-.89.865-1.547 1.138-1.404.403-2.256.403c-1.3 0-2.335-.271-3.107-.812a3.16 3.16 0 0 1-1.348-2.224l2.678-.141c.081.396.277.699.588.908s.71.307 1.195.307c.478 0 .861-.092 1.151-.275s.443-.428.447-.722a.75.75 0 0 0-.313-.607c-.204-.162-.52-.285-.946-.371l-1.7-.339c-.959-.192-1.673-.524-2.141-.997s-.697-1.076-.697-1.809c0-.631.17-1.174.511-1.63s.829-.808 1.451-1.055 1.36-.371 2.199-.371c1.24 0 2.216.262 2.928.786s1.133 1.238 1.252 2.141zm6.413 7.21c-1.01 0-1.879-.205-2.608-.614s-1.282-.997-1.674-1.751-.589-1.656-.589-2.691c0-1.01.196-1.896.589-2.659s.943-1.357 1.655-1.783 1.555-.639 2.519-.639a5.12 5.12 0 0 1 1.808.313c.563.205 1.053.514 1.471.927s.75.933.984 1.56.352 1.351.352 2.186v.748h-8.291V83.1h5.727a2.09 2.09 0 0 0-.255-1.042c-.171-.302-.407-.539-.71-.71s-.645-.262-1.042-.262c-.413 0-.78.096-1.099.288a2.02 2.02 0 0 0-.742.761c-.179.315-.27.667-.274 1.055v1.604c0 .486.089.906.268 1.259s.441.626.773.818.727.288 1.183.288a2.57 2.57 0 0 0 .831-.128 1.73 1.73 0 0 0 .646-.383 1.68 1.68 0 0 0 .409-.626l2.518.166c-.128.605-.39 1.133-.786 1.585s-.899.797-1.521 1.048-1.332.371-2.142.371zm22.051-8.7h-2.8c-.051-.362-.155-.684-.313-.965s-.36-.528-.607-.729a2.67 2.67 0 0 0-.857-.46c-.319-.107-.666-.16-1.041-.16-.678 0-1.268.168-1.771.505s-.893.818-1.17 1.457-.415 1.406-.415 2.314c0 .933.138 1.717.415 2.352s.674 1.114 1.176 1.438 1.085.486 1.745.486a3.46 3.46 0 0 0 1.03-.147 2.72 2.72 0 0 0 .85-.428 2.47 2.47 0 0 0 .613-.697 2.7 2.7 0 0 0 .345-.933l2.8.013a5.05 5.05 0 0 1-.543 1.739 5.23 5.23 0 0 1-1.157 1.489 5.45 5.45 0 0 1-1.726 1.035c-.665.251-1.417.377-2.256.377-1.168 0-2.212-.264-3.132-.793s-1.641-1.293-2.174-2.295-.792-2.214-.792-3.637.268-2.642.805-3.643 1.266-1.764 2.186-2.288 1.956-.793 3.107-.793c.758 0 1.461.107 2.109.32a5.35 5.35 0 0 1 1.732.933 4.81 4.81 0 0 1 1.228 1.489c.319.588.524 1.261.613 2.02zm4.733 8.693c-.626 0-1.184-.109-1.674-.326a2.7 2.7 0 0 1-1.164-.978c-.281-.435-.421-.976-.421-1.624 0-.545.1-1.004.3-1.374a2.43 2.43 0 0 1 .818-.895c.345-.226.737-.396 1.176-.511a8.95 8.95 0 0 1 1.394-.243l1.38-.166c.35-.055.603-.136.761-.243s.237-.264.237-.473v-.038c0-.405-.128-.718-.384-.94s-.609-.332-1.074-.332c-.49 0-.88.109-1.17.326s-.481.481-.575.805l-2.518-.204c.128-.597.379-1.112.754-1.547s.859-.776 1.451-1.01 1.287-.358 2.071-.358a6.29 6.29 0 0 1 1.566.192c.503.128.948.326 1.336.594a2.89 2.89 0 0 1 .927 1.035c.226.418.339.918.339 1.502V89h-2.583v-1.362h-.076a2.78 2.78 0 0 1-.633.812c-.265.23-.582.411-.953.543s-.799.192-1.285.192zm.78-1.879c.401 0 .755-.079 1.061-.237s.548-.379.723-.652.262-.582.262-.927v-1.042c-.085.055-.203.107-.352.153l-.492.121-.55.096-.498.07c-.32.047-.599.121-.838.224s-.424.241-.556.415-.198.383-.198.639c0 .371.134.654.403.85s.618.288 1.035.288zm15.031-5.325l-2.493.153a1.28 1.28 0 0 0-.275-.575c-.14-.175-.326-.313-.556-.416s-.496-.16-.811-.16c-.422 0-.778.09-1.068.268s-.435.409-.435.703c0 .234.094.432.282.594s.509.292.965.39l1.777.358c.954.196 1.666.511 2.135.946s.703 1.006.703 1.713c0 .643-.19 1.208-.569 1.694s-.891.865-1.547 1.138-1.404.403-2.256.403c-1.3 0-2.335-.271-3.107-.812a3.16 3.16 0 0 1-1.348-2.224l2.678-.141c.081.396.277.699.588.908s.709.307 1.195.307c.477 0 .861-.092 1.151-.275s.443-.428.447-.722a.75.75 0 0 0-.313-.607c-.205-.162-.52-.285-.946-.371l-1.7-.339c-.959-.192-1.673-.524-2.142-.997s-.696-1.076-.696-1.809c0-.631.17-1.174.511-1.63s.829-.808 1.451-1.055 1.359-.371 2.199-.371c1.24 0 2.216.262 2.927.786s1.134 1.238 1.253 2.141zm6.413 7.21c-1.01 0-1.879-.205-2.608-.614-.724-.413-1.283-.997-1.675-1.751s-.588-1.656-.588-2.691c0-1.01.196-1.896.588-2.659s.944-1.357 1.656-1.783 1.555-.639 2.518-.639a5.12 5.12 0 0 1 1.809.313c.563.205 1.053.514 1.47.927s.75.933.985 1.56.351 1.351.351 2.186v.748h-8.29V83.1h5.727a2.09 2.09 0 0 0-.255-1.042c-.171-.302-.407-.539-.71-.71s-.646-.262-1.042-.262c-.413 0-.78.096-1.099.288s-.563.441-.742.761-.27.667-.275 1.055v1.604c0 .486.09.906.269 1.259s.441.626.773.818.727.288 1.183.288c.302 0 .579-.043.831-.128s.466-.213.645-.383.316-.379.409-.626l2.519.166c-.128.605-.39 1.133-.786 1.585s-.899.797-1.522 1.048c-.618.247-1.331.371-2.141.371zm14.452-7.21l-2.492.153a1.3 1.3 0 0 0-.275-.575 1.46 1.46 0 0 0-.556-.416c-.226-.107-.497-.16-.812-.16-.422 0-.778.09-1.068.268s-.434.409-.434.703c0 .234.093.432.281.594s.509.292.965.39l1.777.358c.955.196 1.666.511 2.135.946s.703 1.006.703 1.713a2.67 2.67 0 0 1-.569 1.694c-.375.486-.89.865-1.547 1.138-.652.268-1.404.403-2.256.403-1.3 0-2.335-.271-3.107-.812a3.16 3.16 0 0 1-1.348-2.224l2.678-.141c.081.396.277.699.588.908s.71.307 1.195.307c.478 0 .861-.092 1.151-.275s.443-.428.447-.722a.75.75 0 0 0-.313-.607c-.204-.162-.52-.285-.946-.371l-1.7-.339c-.959-.192-1.673-.524-2.141-.997s-.697-1.076-.697-1.809c0-.631.17-1.174.511-1.63s.829-.808 1.451-1.055 1.36-.371 2.199-.371c1.24 0 2.216.262 2.928.786s1.133 1.238 1.252 2.141z" fill="#fff"/><rect x="635" y="26" width="200" height="86" rx="8" fill="#5d9da3"/><path d="M648.941 62h-4.64V48.909h4.679c1.317 0 2.45.262 3.4.786s1.682 1.268 2.193 2.244c.516.976.773 2.144.773 3.503s-.257 2.535-.773 3.516c-.511.98-1.247 1.732-2.205 2.256s-2.097.786-3.427.786zm-1.872-2.371h1.757c.819 0 1.507-.145 2.065-.435s.984-.748 1.266-1.361.428-1.415.428-2.391c0-.967-.143-1.758-.428-2.371s-.701-1.065-1.26-1.355-1.246-.435-2.064-.435h-1.764v8.348zm14.751 2.563c-1.01 0-1.879-.205-2.608-.614a4.2 4.2 0 0 1-1.675-1.751c-.392-.759-.588-1.656-.588-2.691 0-1.01.196-1.896.588-2.659s.944-1.357 1.656-1.783 1.555-.639 2.518-.639a5.12 5.12 0 0 1 1.809.313c.563.205 1.053.514 1.47.927s.75.933.985 1.56.351 1.351.351 2.186v.748h-8.29V56.1h5.727a2.08 2.08 0 0 0-.256-1.042 1.83 1.83 0 0 0-.709-.709c-.298-.175-.646-.262-1.042-.262-.413 0-.78.096-1.099.288s-.563.441-.742.761-.271.667-.275 1.055v1.604c0 .486.09.906.269 1.259s.441.626.773.818.727.288 1.183.288c.302 0 .579-.043.831-.128s.466-.213.645-.383.316-.379.409-.626l2.519.166c-.128.605-.39 1.133-.786 1.585s-.9.797-1.522 1.048-1.331.371-2.141.371zm15.173-10.01L673.56 62h-3.068l-3.432-9.818h2.876l2.039 7.025h.103l2.032-7.025h2.883zm5.551 10.01c-1.009 0-1.879-.205-2.607-.614a4.2 4.2 0 0 1-1.675-1.751c-.392-.759-.588-1.656-.588-2.691 0-1.01.196-1.896.588-2.659a4.35 4.35 0 0 1 1.655-1.783c.716-.426 1.556-.639 2.519-.639a5.12 5.12 0 0 1 1.809.313 4.02 4.02 0 0 1 1.47.927c.422.413.75.933.984 1.56s.352 1.351.352 2.186v.748h-8.291V56.1h5.728a2.09 2.09 0 0 0-.256-1.042c-.17-.303-.407-.539-.71-.709a2.02 2.02 0 0 0-1.041-.262c-.414 0-.78.096-1.1.288a2.02 2.02 0 0 0-.741.761c-.179.315-.271.667-.275 1.055v1.604c0 .486.089.906.268 1.259a1.96 1.96 0 0 0 .774.818c.332.192.726.288 1.182.288a2.57 2.57 0 0 0 .831-.128 1.72 1.72 0 0 0 .646-.383 1.67 1.67 0 0 0 .409-.626l2.518.166c-.127.605-.39 1.133-.786 1.585s-.899.797-1.521 1.048-1.332.371-2.142.371zm9.007-13.283V62h-2.723V48.909h2.723zm6.617 13.283c-.993 0-1.851-.211-2.576-.633a4.33 4.33 0 0 1-1.668-1.777c-.392-.763-.588-1.647-.588-2.653 0-1.014.196-1.901.588-2.659a4.28 4.28 0 0 1 1.668-1.777c.725-.426 1.583-.639 2.576-.639s1.85.213 2.57.639a4.27 4.27 0 0 1 1.675 1.777c.392.759.588 1.645.588 2.659 0 1.006-.196 1.89-.588 2.653a4.32 4.32 0 0 1-1.675 1.777c-.72.422-1.577.633-2.57.633zm.013-2.109c.452 0 .829-.128 1.131-.383s.531-.614.684-1.061.237-.957.237-1.528-.079-1.08-.237-1.528-.381-.801-.684-1.061-.679-.39-1.131-.39-.839.13-1.151.39c-.306.26-.539.614-.696 1.061s-.23.957-.23 1.528.076 1.08.23 1.528.39.801.696 1.061c.312.256.695.383 1.151.383zm6.59 5.599v-13.5h2.685v1.649h.121c.12-.264.292-.533.518-.805s.528-.507.895-.69.831-.281 1.381-.281c.716 0 1.376.188 1.981.563s1.089.931 1.451 1.681.544 1.681.544 2.806c0 1.095-.177 2.02-.531 2.774s-.827 1.319-1.432 1.707-1.274.575-2.02.575c-.528 0-.978-.087-1.348-.262s-.667-.394-.902-.658-.413-.539-.537-.812h-.083v5.254h-2.723zm2.666-8.591c0 .584.081 1.093.243 1.528s.396.773.703 1.016.679.358 1.118.358c.444 0 .819-.121 1.125-.364s.539-.588.697-1.023.243-.944.243-1.515-.079-1.065-.237-1.496-.389-.767-.696-1.01-.684-.364-1.132-.364-.818.117-1.125.352-.534.567-.696.997-.243.938-.243 1.521zM720.379 62V48.909h8.668v2.282h-5.9v3.119h5.324v2.282h-5.324V62h-2.768zm14.232.192c-1.01 0-1.879-.205-2.608-.614a4.2 4.2 0 0 1-1.675-1.751c-.392-.759-.588-1.656-.588-2.691 0-1.01.196-1.896.588-2.659s.944-1.357 1.656-1.783 1.555-.639 2.518-.639a5.12 5.12 0 0 1 1.809.313c.563.205 1.053.514 1.47.927.422.413.75.933.985 1.56s.351 1.351.351 2.186v.748h-8.29V56.1h5.727a2.08 2.08 0 0 0-.256-1.042 1.83 1.83 0 0 0-.709-.709c-.298-.175-.646-.262-1.042-.262-.413 0-.78.096-1.099.288s-.563.441-.742.761-.271.667-.275 1.055v1.604c0 .486.09.906.269 1.259s.441.626.773.818.727.288 1.183.288c.302 0 .579-.043.831-.128s.466-.213.645-.383.316-.379.409-.626l2.519.166c-.128.605-.39 1.133-.786 1.585s-.9.797-1.522 1.048-1.331.371-2.141.371zm9.083-.006c-.626 0-1.185-.109-1.675-.326s-.878-.548-1.163-.978-.422-.976-.422-1.624c0-.545.1-1.004.3-1.374s.473-.669.819-.895.737-.396 1.176-.511.907-.196 1.393-.243l1.381-.166c.349-.055.603-.136.761-.243s.236-.264.236-.473v-.038c0-.405-.128-.718-.383-.94s-.61-.332-1.074-.332c-.49 0-.88.109-1.17.326s-.482.482-.575.805l-2.519-.204c.128-.597.379-1.112.754-1.547s.859-.776 1.451-1.01 1.287-.358 2.071-.358a6.29 6.29 0 0 1 1.567.192c.502.128.948.326 1.335.595a2.88 2.88 0 0 1 .927 1.035c.226.418.339.918.339 1.502V62h-2.582v-1.361h-.077a2.78 2.78 0 0 1-.633.812c-.264.23-.581.411-.952.543s-.799.192-1.285.192zm.78-1.879c.4 0 .754-.079 1.061-.236a1.88 1.88 0 0 0 .722-.652c.175-.273.262-.582.262-.927v-1.042c-.085.055-.202.106-.351.153l-.492.121-.55.096-.499.07a3.37 3.37 0 0 0-.837.224c-.239.102-.424.241-.556.416s-.198.383-.198.639c0 .371.134.654.402.85s.618.288 1.036.288zm12.084-8.124v2.045h-5.913v-2.045h5.913zm-4.57-2.352h2.723v9.153c0 .251.038.447.115.588a.63.63 0 0 0 .319.288c.141.055.303.083.486.083.128 0 .256-.011.384-.032l.294-.057.428 2.026a7.63 7.63 0 0 1-.575.147c-.247.06-.548.096-.902.109-.656.026-1.231-.062-1.725-.262s-.872-.511-1.145-.933-.407-.954-.402-1.598V49.83zm12.64 7.99v-5.638h2.723V62h-2.614v-1.783h-.103c-.221.575-.59 1.038-1.106 1.387s-1.135.524-1.872.524c-.657 0-1.234-.149-1.733-.447s-.888-.722-1.169-1.272-.418-1.208-.422-1.975v-6.251h2.723v5.766c.004.58.16 1.038.466 1.374s.718.505 1.234.505c.328 0 .635-.075.921-.224a1.76 1.76 0 0 0 .69-.678c.179-.298.266-.667.262-1.106zm4.901 4.18v-9.818h2.64v1.713h.102c.179-.609.48-1.07.901-1.381a2.37 2.37 0 0 1 1.458-.473c.136 0 .283.008.441.026a3.06 3.06 0 0 1 .415.07v2.416c-.127-.038-.304-.072-.53-.102a4.78 4.78 0 0 0-.62-.045c-.401 0-.759.087-1.074.262s-.558.409-.741.716-.269.66-.269 1.061V62h-2.723zm11.383.192c-1.01 0-1.88-.205-2.608-.614a4.2 4.2 0 0 1-1.675-1.751c-.392-.759-.588-1.656-.588-2.691 0-1.01.196-1.896.588-2.659s.944-1.357 1.656-1.783 1.555-.639 2.518-.639a5.12 5.12 0 0 1 1.809.313 4.01 4.01 0 0 1 1.47.927c.422.413.75.933.984 1.56s.352 1.351.352 2.186v.748h-8.29V56.1h5.727a2.08 2.08 0 0 0-.256-1.042 1.83 1.83 0 0 0-.709-.709c-.299-.175-.646-.262-1.042-.262-.414 0-.78.096-1.1.288a2.02 2.02 0 0 0-.741.761c-.179.315-.271.667-.275 1.055v1.604c0 .486.089.906.268 1.259s.441.626.774.818.726.288 1.182.288a2.57 2.57 0 0 0 .831-.128 1.72 1.72 0 0 0 .646-.383 1.67 1.67 0 0 0 .409-.626l2.519.166c-.128.605-.39 1.133-.787 1.585-.392.447-.899.797-1.521 1.048s-1.332.371-2.141.371zm17.602-9.518c-.051-.516-.271-.916-.659-1.202s-.914-.428-1.578-.428c-.452 0-.834.064-1.145.192s-.549.296-.716.518a1.25 1.25 0 0 0-.242.754 1.07 1.07 0 0 0 .147.614 1.53 1.53 0 0 0 .453.454 3.47 3.47 0 0 0 .665.326 6.9 6.9 0 0 0 .806.23l1.176.281c.571.128 1.095.298 1.572.511s.891.475 1.24.786.62.678.812 1.099.296.906.3 1.451c-.004.801-.208 1.496-.613 2.084s-.98 1.038-1.739 1.362-1.664.479-2.729.479c-1.057 0-1.978-.162-2.762-.486s-1.389-.803-1.828-1.438c-.434-.639-.662-1.43-.684-2.372h2.679c.029.439.155.805.377 1.099s.526.509.901.658a3.58 3.58 0 0 0 1.285.217c.469 0 .876-.068 1.221-.205s.62-.326.811-.569a1.31 1.31 0 0 0 .288-.837c0-.294-.087-.541-.262-.742-.17-.2-.422-.371-.754-.511a7.68 7.68 0 0 0-1.208-.383l-1.426-.358c-1.103-.268-1.975-.688-2.614-1.259s-.957-1.34-.953-2.308c-.004-.793.207-1.485.633-2.077.431-.592 1.021-1.055 1.771-1.387s1.602-.499 2.557-.499c.971 0 1.819.166 2.544.499s1.295.795 1.7 1.387.614 1.278.626 2.058h-2.652zm9.116 9.518c-1.01 0-1.879-.205-2.608-.614s-1.282-.997-1.674-1.751-.588-1.656-.588-2.691c0-1.01.196-1.896.588-2.659a4.35 4.35 0 0 1 1.655-1.783c.716-.426 1.556-.639 2.519-.639.647 0 1.25.104 1.809.313a4.02 4.02 0 0 1 1.47.927c.422.413.75.933.984 1.56s.352 1.351.352 2.186v.748h-8.291V56.1h5.728a2.09 2.09 0 0 0-.256-1.042c-.171-.303-.407-.539-.71-.709s-.645-.262-1.042-.262c-.413 0-.779.096-1.099.288a2.02 2.02 0 0 0-.741.761c-.179.315-.271.667-.275 1.055v1.604c0 .486.089.906.268 1.259a1.96 1.96 0 0 0 .774.818c.332.192.726.288 1.182.288a2.57 2.57 0 0 0 .831-.128 1.72 1.72 0 0 0 .646-.383 1.67 1.67 0 0 0 .409-.626l2.518.166c-.128.605-.39 1.133-.786 1.585s-.899.797-1.521 1.048-1.332.371-2.142.371zm11.506-10.01v2.045h-5.913v-2.045h5.913zm-4.57-2.352h2.723v9.153c0 .251.038.447.115.588s.183.232.319.288c.141.055.303.083.486.083.128 0 .256-.011.384-.032l.294-.057.428 2.026a7.63 7.63 0 0 1-.575.147c-.247.06-.548.096-.901.109-.657.026-1.232-.062-1.726-.262s-.872-.511-1.145-.933-.406-.954-.402-1.598V49.83zm12.046-1.534l-4.219 15.673h-2.346l4.219-15.673h2.346zM654.61 89V75.909h2.768v5.401h5.619v-5.401h2.761V89h-2.761v-5.408h-5.619V89h-2.768zm13.379 0v-9.818h2.723V89h-2.723zm1.368-11.084a1.48 1.48 0 0 1-1.042-.403c-.286-.273-.428-.599-.428-.978s.142-.697.428-.965.637-.409 1.042-.409a1.44 1.44 0 0 1 1.035.409 1.27 1.27 0 0 1 .435.965c0 .379-.145.705-.435.978s-.63.403-1.035.403zm7.96 14.97c-.883 0-1.639-.121-2.27-.364s-1.125-.565-1.495-.978-.612-.878-.723-1.393l2.519-.339c.077.196.198.379.364.55a1.77 1.77 0 0 0 .659.409c.277.106.613.16 1.01.16.592 0 1.08-.145 1.463-.435s.582-.765.582-1.438v-1.796h-.115c-.119.273-.298.531-.537.773s-.545.441-.92.594-.823.23-1.343.23c-.737 0-1.408-.17-2.013-.511s-1.081-.871-1.439-1.579c-.353-.712-.53-1.611-.53-2.697 0-1.112.181-2.041.543-2.787s.844-1.304 1.445-1.675 1.268-.556 1.988-.556c.55 0 1.01.094 1.38.281s.67.413.895.69.407.541.531.805h.102v-1.649h2.704v9.914c0 .835-.205 1.534-.614 2.097s-.975.984-1.7 1.266-1.549.428-2.486.428zm.057-6.072c.439 0 .81-.109 1.112-.326s.542-.537.703-.946c.167-.413.25-.908.25-1.483s-.081-1.074-.243-1.496-.396-.756-.703-.991-.68-.352-1.119-.352c-.447 0-.824.121-1.131.364s-.539.571-.697.997-.237.918-.237 1.476c0 .567.079 1.057.237 1.47s.394.727.697.952.684.332 1.131.332zm9.633-3.49V89h-2.723V75.909h2.646v5.005h.115c.222-.58.58-1.033 1.074-1.362s1.114-.499 1.86-.499c.682 0 1.277.149 1.784.447s.907.718 1.189 1.272.426 1.208.421 1.975V89h-2.723v-5.766c.005-.605-.149-1.076-.46-1.413s-.737-.505-1.291-.505c-.371 0-.699.079-.984.236s-.503.388-.665.69-.239.658-.243 1.08zM699.733 89V75.909h5.165c.989 0 1.833.177 2.532.531s1.237.846 1.604 1.489.556 1.391.556 2.256-.187 1.617-.562 2.244-.919 1.099-1.63 1.432-1.564.499-2.57.499h-3.458v-2.224h3.011c.528 0 .967-.072 1.316-.217s.61-.362.78-.652c.175-.29.262-.65.262-1.08s-.087-.801-.262-1.1c-.17-.298-.432-.524-.786-.677s-.791-.237-1.323-.237h-1.867V89h-2.768zm7.07-5.957L710.057 89h-3.056l-3.183-5.957h2.985zm9.008 6.149c-1.01 0-1.879-.205-2.608-.614-.724-.413-1.283-.997-1.675-1.751s-.588-1.656-.588-2.691c0-1.01.196-1.896.588-2.659s.944-1.357 1.656-1.783 1.555-.639 2.518-.639a5.12 5.12 0 0 1 1.809.313c.563.205 1.053.514 1.471.927s.75.933.984 1.56.351 1.351.351 2.186v.748h-8.29V83.1h5.727a2.09 2.09 0 0 0-.255-1.042c-.171-.302-.407-.539-.71-.71s-.646-.262-1.042-.262c-.413 0-.78.096-1.099.288s-.563.441-.742.761-.27.667-.275 1.055v1.604c0 .486.09.906.269 1.259s.441.626.773.818.727.288 1.183.288c.302 0 .579-.043.831-.128s.466-.213.645-.383.316-.379.409-.626l2.519.166c-.128.605-.39 1.133-.786 1.585s-.899.797-1.522 1.048c-.617.247-1.331.371-2.141.371zm14.452-7.21l-2.492.153a1.3 1.3 0 0 0-.275-.575 1.46 1.46 0 0 0-.556-.416c-.226-.107-.497-.16-.812-.16-.422 0-.778.09-1.068.268s-.434.409-.434.703c0 .234.093.432.281.594s.509.292.965.39l1.777.358c.955.196 1.666.511 2.135.946s.703 1.006.703 1.713a2.67 2.67 0 0 1-.569 1.694c-.375.486-.89.865-1.547 1.138-.652.268-1.404.403-2.256.403-1.3 0-2.335-.271-3.106-.812s-1.217-1.287-1.349-2.224l2.678-.141c.081.396.277.699.588.908s.71.307 1.195.307c.478 0 .861-.092 1.151-.275s.443-.428.447-.722a.75.75 0 0 0-.313-.607c-.204-.162-.52-.285-.946-.371l-1.7-.339c-.959-.192-1.673-.524-2.141-.997s-.697-1.076-.697-1.809c0-.631.17-1.174.511-1.63s.829-.808 1.451-1.055 1.36-.371 2.199-.371c1.24 0 2.216.262 2.928.786s1.133 1.238 1.252 2.141zm6.156-6.072h3.413l3.606 8.795h.153l3.605-8.795h3.413V89h-2.684v-8.521h-.109l-3.388 8.457H742.6l-3.388-8.489h-.108V89h-2.685V75.909zm20.856 13.283c-.993 0-1.852-.211-2.576-.633a4.33 4.33 0 0 1-1.669-1.777c-.392-.763-.588-1.647-.588-2.653 0-1.014.196-1.901.588-2.659a4.28 4.28 0 0 1 1.669-1.777c.724-.426 1.583-.639 2.576-.639s1.849.213 2.569.639 1.283 1.014 1.675 1.777.588 1.645.588 2.659c0 1.006-.196 1.89-.588 2.653s-.95 1.351-1.675 1.777-1.576.633-2.569.633zm.012-2.109c.452 0 .829-.128 1.132-.384s.53-.614.684-1.061.236-.957.236-1.528-.079-1.08-.236-1.528-.382-.801-.684-1.061-.68-.39-1.132-.39-.839.13-1.15.39-.539.614-.697 1.061-.23.957-.23 1.528.077 1.08.23 1.528.39.801.697 1.061.694.384 1.15.384zm11.027 2.109c-1.006 0-1.871-.213-2.595-.639a4.31 4.31 0 0 1-1.662-1.79c-.384-.763-.576-1.641-.576-2.633 0-1.006.194-1.888.582-2.646a4.32 4.32 0 0 1 1.668-1.783c.721-.43 1.577-.646 2.57-.646.856 0 1.606.156 2.25.467s1.153.748 1.528 1.31.581 1.223.62 1.981h-2.57c-.072-.49-.264-.884-.575-1.183s-.71-.454-1.208-.454c-.422 0-.791.115-1.106.345s-.554.556-.729.991-.262.961-.262 1.579c0 .626.085 1.159.256 1.598s.42.773.735 1.004.684.345 1.106.345c.311 0 .59-.064.837-.192a1.62 1.62 0 0 0 .62-.556 2.13 2.13 0 0 0 .326-.888h2.57c-.043.75-.247 1.41-.614 1.981s-.863 1.01-1.502 1.33-1.396.479-2.269.479zm8.595-3.017l.007-3.266h.396l3.145-3.727h3.126l-4.225 4.935h-.646l-1.803 2.058zM774.442 89V75.909h2.723V89h-2.723zm6.136 0l-2.889-4.276 1.816-1.924 4.263 6.2h-3.19zm10.637-4.18v-5.638h2.723V89h-2.614v-1.783h-.103c-.221.575-.59 1.038-1.106 1.387s-1.135.524-1.872.524c-.657 0-1.234-.149-1.733-.447s-.888-.722-1.169-1.272-.418-1.208-.422-1.975v-6.251h2.723v5.766c.004.58.159 1.038.466 1.374s.718.505 1.234.505c.328 0 .635-.075.92-.224s.516-.379.691-.678.266-.667.262-1.106zm4.901 7.862v-13.5h2.685v1.649h.121c.119-.264.292-.533.518-.805s.528-.507.895-.69.831-.281 1.38-.281a3.69 3.69 0 0 1 1.982.563c.605.371 1.089.931 1.451 1.681s.543 1.681.543 2.806c0 1.095-.177 2.02-.53 2.774s-.827 1.319-1.432 1.707-1.274.575-2.02.575c-.528 0-.978-.087-1.349-.262s-.667-.394-.901-.658-.413-.539-.537-.812h-.083v5.254h-2.723zm2.665-8.591c0 .584.081 1.093.243 1.528s.397.773.703 1.016.68.358 1.119.358.818-.122 1.125-.364.539-.588.697-1.023.243-.944.243-1.515-.079-1.065-.237-1.496-.39-.767-.697-1.01-.683-.364-1.131-.364-.818.117-1.125.352-.535.567-.697.997-.243.938-.243 1.521zm16.895-2.109l-2.493.153a1.3 1.3 0 0 0-.275-.575 1.46 1.46 0 0 0-.556-.416c-.226-.107-.497-.16-.812-.16-.422 0-.778.09-1.068.268s-.434.409-.434.703c0 .234.094.432.281.594s.509.292.965.39l1.777.358c.955.196 1.666.511 2.135.946s.703 1.006.703 1.713a2.67 2.67 0 0 1-.569 1.694c-.375.486-.89.865-1.546 1.138s-1.405.403-2.257.403c-1.3 0-2.335-.271-3.106-.812a3.16 3.16 0 0 1-1.349-2.224l2.678-.141c.081.396.277.699.588.908s.71.307 1.196.307c.477 0 .86-.092 1.15-.275s.443-.428.448-.722c-.005-.247-.109-.45-.314-.607s-.52-.285-.946-.371l-1.7-.339c-.959-.192-1.673-.524-2.141-.997s-.697-1.076-.697-1.809c0-.631.17-1.174.511-1.63s.829-.808 1.451-1.055 1.36-.371 2.199-.371c1.24 0 2.216.262 2.928.786s1.133 1.238 1.253 2.141z" fill="#fff"/><rect x="873" y="26" width="163" height="86" rx="8" fill="#5d9da3"/><path d="M882.17 62V48.909h5.165c.993 0 1.839.19 2.537.569s1.232.897 1.598 1.566.557 1.432.557 2.301-.188 1.636-.563 2.301-.918 1.183-1.63 1.553c-.707.371-1.564.556-2.57.556h-3.291v-2.218h2.844c.533 0 .972-.092 1.317-.275s.609-.445.78-.773a2.43 2.43 0 0 0 .262-1.144c0-.435-.088-.814-.262-1.138s-.431-.582-.78-.761-.793-.275-1.33-.275h-1.866V62h-2.768zm11.603 0v-9.818h2.64v1.713h.102c.179-.609.48-1.07.902-1.381s.907-.473 1.457-.473c.136 0 .283.008.441.026s.296.04.416.07v2.416c-.128-.038-.305-.072-.531-.102a4.78 4.78 0 0 0-.62-.045c-.401 0-.759.087-1.074.262s-.558.409-.741.716-.269.66-.269 1.061V62h-2.723zm11.383.192c-1.01 0-1.879-.205-2.608-.614a4.2 4.2 0 0 1-1.675-1.751c-.392-.759-.588-1.656-.588-2.691 0-1.01.196-1.896.588-2.659s.944-1.357 1.656-1.783 1.555-.639 2.518-.639a5.12 5.12 0 0 1 1.809.313c.563.205 1.053.514 1.47.927s.75.933.985 1.56.351 1.351.351 2.186v.748h-8.29V56.1h5.727a2.08 2.08 0 0 0-.256-1.042 1.83 1.83 0 0 0-.709-.709c-.299-.175-.646-.262-1.042-.262-.413 0-.78.096-1.1.288a2.02 2.02 0 0 0-.741.761c-.179.315-.271.667-.275 1.055v1.604c0 .486.09.906.269 1.259s.441.626.773.818.727.288 1.183.288c.302 0 .579-.043.831-.128s.466-.213.645-.383a1.67 1.67 0 0 0 .409-.626l2.519.166c-.128.605-.39 1.133-.787 1.585-.392.447-.899.797-1.521 1.048s-1.332.371-2.141.371zm14.452-7.21l-2.493.153a1.28 1.28 0 0 0-.275-.575c-.14-.175-.326-.313-.556-.416s-.496-.16-.811-.16c-.422 0-.778.09-1.068.268s-.435.409-.435.703c0 .234.094.432.282.594s.509.292.965.39l1.777.358c.954.196 1.666.511 2.135.946s.703 1.006.703 1.713c0 .644-.19 1.208-.569 1.694s-.891.865-1.547 1.138-1.404.403-2.256.403c-1.3 0-2.335-.271-3.107-.812a3.16 3.16 0 0 1-1.348-2.224l2.678-.141c.081.396.277.699.588.908s.709.307 1.195.307c.477 0 .861-.092 1.151-.275s.443-.428.447-.722a.75.75 0 0 0-.313-.607c-.205-.162-.52-.285-.946-.371l-1.7-.339c-.959-.192-1.673-.524-2.142-.997-.464-.473-.696-1.076-.696-1.809 0-.631.17-1.174.511-1.63s.829-.807 1.451-1.055 1.359-.371 2.199-.371c1.24 0 2.216.262 2.927.786s1.134 1.238 1.253 2.141zm6.413 7.21c-1.01 0-1.879-.205-2.608-.614s-1.283-.997-1.675-1.751-.588-1.656-.588-2.691c0-1.01.196-1.896.588-2.659s.944-1.357 1.656-1.783 1.555-.639 2.518-.639a5.12 5.12 0 0 1 1.809.313c.563.205 1.053.514 1.47.927s.75.933.985 1.56.351 1.351.351 2.186v.748h-8.29V56.1h5.727a2.09 2.09 0 0 0-.255-1.042c-.171-.303-.407-.539-.71-.709s-.646-.262-1.042-.262c-.413 0-.78.096-1.099.288s-.563.441-.742.761-.27.667-.275 1.055v1.604c0 .486.09.906.269 1.259s.441.626.773.818.727.288 1.183.288c.302 0 .579-.043.831-.128s.466-.213.645-.383.316-.379.409-.626l2.519.166c-.128.605-.39 1.133-.786 1.585s-.899.797-1.522 1.048-1.331.371-2.141.371zm9.006-5.868V62h-2.723v-9.818h2.596v1.732h.115c.217-.571.581-1.023 1.093-1.355s1.131-.505 1.86-.505c.682 0 1.276.149 1.783.447s.901.725 1.183 1.278.422 1.206.422 1.969V62h-2.723v-5.766c.004-.601-.15-1.07-.461-1.406s-.739-.511-1.284-.511c-.367 0-.691.079-.972.236a1.65 1.65 0 0 0-.652.69c-.153.298-.232.658-.237 1.08zm13.697-4.142v2.045h-5.913v-2.045h5.913zm-4.57-2.352h2.723v9.153c0 .251.038.447.115.588a.63.63 0 0 0 .319.288c.141.055.303.083.486.083.128 0 .256-.011.384-.032l.294-.057.428 2.026a7.63 7.63 0 0 1-.575.147c-.247.06-.548.096-.902.109-.656.026-1.231-.062-1.725-.262s-.872-.511-1.145-.933-.407-.954-.402-1.598V49.83zm15.732 2.352v2.045h-5.913v-2.045h5.913zm-4.57-2.352h2.723v9.153c0 .251.038.447.115.588s.183.232.319.288c.141.055.303.083.486.083.128 0 .256-.011.384-.032l.294-.057.428 2.026a7.63 7.63 0 0 1-.575.147c-.247.06-.548.096-.901.109-.657.026-1.232-.062-1.726-.262s-.872-.511-1.145-.933-.406-.954-.402-1.598V49.83zm10.675 12.362c-.993 0-1.852-.211-2.576-.633s-1.277-1.018-1.669-1.777-.588-1.647-.588-2.653c0-1.014.196-1.901.588-2.659s.948-1.355 1.669-1.777 1.583-.639 2.576-.639 1.849.213 2.569.639c.725.422 1.283 1.014 1.675 1.777s.588 1.645.588 2.659c0 1.006-.196 1.89-.588 2.653s-.95 1.351-1.675 1.777c-.72.422-1.577.633-2.569.633zm.012-2.109c.452 0 .829-.128 1.132-.383s.53-.614.684-1.061.236-.957.236-1.528-.079-1.08-.236-1.528-.382-.801-.684-1.061-.68-.39-1.132-.39-.839.13-1.15.39-.539.614-.697 1.061c-.153.447-.23.957-.23 1.528s.077 1.08.23 1.528c.158.447.39.801.697 1.061s.694.383 1.15.383zm22.358-6.59h-2.8c-.051-.362-.155-.684-.313-.965a2.46 2.46 0 0 0-.607-.729 2.67 2.67 0 0 0-.857-.46c-.319-.107-.667-.16-1.042-.16-.677 0-1.267.168-1.77.505s-.893.818-1.17 1.457-.415 1.406-.415 2.314c0 .933.138 1.717.415 2.352s.673 1.114 1.176 1.438 1.085.486 1.745.486a3.45 3.45 0 0 0 1.029-.147c.32-.098.603-.241.851-.428a2.47 2.47 0 0 0 .613-.697 2.72 2.72 0 0 0 .345-.933l2.8.013a5.05 5.05 0 0 1-.543 1.739 5.23 5.23 0 0 1-1.157 1.489 5.45 5.45 0 0 1-1.726 1.035c-.665.252-1.417.377-2.256.377-1.168 0-2.212-.264-3.133-.793s-1.64-1.293-2.173-2.295-.792-2.214-.792-3.637.268-2.642.805-3.643 1.266-1.764 2.186-2.288 1.956-.793 3.107-.793c.758 0 1.461.106 2.109.32a5.35 5.35 0 0 1 1.732.933c.503.405.912.901 1.227 1.489.32.588.525 1.261.614 2.02zm4.657-4.583V62h-2.723V48.909h2.723zM995.199 62v-9.818h2.723V62h-2.723zm1.368-11.084a1.48 1.48 0 0 1-1.042-.403c-.286-.273-.428-.599-.428-.978s.142-.697.428-.965.637-.409 1.042-.409a1.44 1.44 0 0 1 1.035.409 1.27 1.27 0 0 1 .435.965c0 .379-.145.705-.435.978-.285.268-.63.403-1.035.403zm8.013 11.276c-1.01 0-1.88-.205-2.61-.614-.72-.413-1.28-.997-1.67-1.751-.397-.759-.593-1.656-.593-2.691 0-1.01.196-1.896.593-2.659a4.33 4.33 0 0 1 1.65-1.783c.72-.426 1.56-.639 2.52-.639.65 0 1.25.104 1.81.313s1.05.514 1.47.927.75.933.98 1.56c.24.622.35 1.351.35 2.186v.748h-8.29V56.1h5.73c0-.392-.08-.739-.25-1.042-.18-.303-.41-.539-.71-.709s-.65-.262-1.05-.262c-.41 0-.78.096-1.1.288a2.06 2.06 0 0 0-.74.761 2.09 2.09 0 0 0-.27 1.055v1.604c0 .486.09.906.27 1.259a1.95 1.95 0 0 0 .77.818c.33.192.73.288 1.18.288.3 0 .58-.043.83-.128a1.76 1.76 0 0 0 .65-.383c.18-.17.31-.379.41-.626l2.52.166a3.43 3.43 0 0 1-.79 1.585c-.39.447-.9.797-1.52 1.048s-1.33.371-2.14.371zm9-5.868V62h-2.72v-9.818h2.6v1.732h.11c.22-.571.58-1.023 1.09-1.355.52-.337 1.14-.505 1.86-.505.69 0 1.28.149 1.79.447.5.298.9.725 1.18 1.278s.42 1.206.42 1.969V62h-2.72v-5.766c0-.601-.15-1.07-.46-1.406s-.74-.511-1.29-.511a1.96 1.96 0 0 0-.97.236c-.27.158-.49.388-.65.69-.15.298-.23.658-.24 1.08zm13.7-4.142v2.045h-5.91v-2.045h5.91zm-4.57-2.352h2.72v9.153c0 .251.04.447.12.588s.18.232.32.288.3.083.48.083a2.41 2.41 0 0 0 .39-.032l.29-.057.43 2.026-.58.147c-.24.06-.54.096-.9.109-.65.026-1.23-.062-1.72-.262a2.46 2.46 0 0 1-1.15-.933c-.27-.422-.4-.954-.4-1.598V49.83zM888.709 89V75.909h5.165c.988 0 1.832.177 2.531.531s1.238.846 1.604 1.489.557 1.391.557 2.256-.188 1.617-.563 2.244-.918 1.099-1.63 1.432-1.564.499-2.569.499h-3.459v-2.224h3.011c.528 0 .967-.072 1.317-.217s.609-.362.78-.652.262-.65.262-1.08-.088-.801-.262-1.1-.433-.524-.787-.677-.79-.237-1.323-.237h-1.866V89h-2.768zm7.07-5.957L899.032 89h-3.055l-3.183-5.957h2.985zm9.008 6.149c-1.01 0-1.88-.205-2.608-.614a4.2 4.2 0 0 1-1.675-1.751c-.392-.758-.588-1.656-.588-2.691 0-1.01.196-1.896.588-2.659s.944-1.357 1.656-1.783 1.555-.639 2.518-.639a5.12 5.12 0 0 1 1.809.313 4.01 4.01 0 0 1 1.47.927c.422.413.75.933.984 1.56s.352 1.351.352 2.186v.748h-8.29V83.1h5.727a2.08 2.08 0 0 0-.256-1.042 1.83 1.83 0 0 0-.709-.71c-.299-.175-.646-.262-1.042-.262-.414 0-.78.096-1.1.288a2.02 2.02 0 0 0-.741.761c-.179.315-.271.667-.275 1.055v1.604c0 .486.089.906.268 1.259s.441.626.774.818.726.288 1.182.288a2.57 2.57 0 0 0 .831-.128 1.72 1.72 0 0 0 .646-.383 1.67 1.67 0 0 0 .409-.626l2.519.166c-.128.605-.39 1.133-.787 1.585-.392.448-.899.797-1.521 1.048s-1.332.371-2.141.371zm6.283 3.49v-13.5h2.685v1.649h.121c.119-.264.292-.533.518-.805s.528-.507.895-.69.831-.281 1.38-.281a3.69 3.69 0 0 1 1.982.563c.605.371 1.089.931 1.451 1.681s.543 1.681.543 2.806c0 1.095-.177 2.02-.53 2.774s-.827 1.319-1.432 1.707-1.274.575-2.02.575c-.528 0-.978-.087-1.349-.262s-.667-.394-.901-.658-.413-.539-.537-.812h-.083v5.254h-2.723zm2.666-8.591c0 .584.08 1.093.242 1.528s.397.773.704 1.016.679.358 1.118.358.818-.122 1.125-.364.539-.588.697-1.023.243-.944.243-1.515-.079-1.065-.237-1.496-.39-.767-.696-1.01-.684-.364-1.132-.364c-.443 0-.818.117-1.125.352-.302.234-.535.567-.697.997s-.242.938-.242 1.521zM922.461 89v-9.818h2.64v1.713h.102c.179-.609.479-1.07.901-1.381a2.37 2.37 0 0 1 1.458-.473c.136 0 .283.008.441.026a3.09 3.09 0 0 1 .415.07v2.416c-.128-.038-.305-.072-.53-.102a4.78 4.78 0 0 0-.621-.045c-.4 0-.758.087-1.073.262a1.93 1.93 0 0 0-.742.716c-.179.307-.268.66-.268 1.061V89h-2.723zm11.382.192c-1.01 0-1.879-.205-2.608-.614s-1.282-.997-1.674-1.751-.588-1.656-.588-2.691c0-1.01.196-1.896.588-2.659a4.35 4.35 0 0 1 1.655-1.783c.716-.426 1.556-.639 2.519-.639.647 0 1.25.104 1.809.313a4.02 4.02 0 0 1 1.47.927c.422.413.75.933.984 1.56s.352 1.351.352 2.186v.748h-8.291V83.1h5.727a2.09 2.09 0 0 0-.255-1.042c-.171-.302-.407-.539-.71-.71s-.645-.262-1.042-.262c-.413 0-.779.096-1.099.288a2.02 2.02 0 0 0-.742.761c-.179.315-.27.667-.274 1.055v1.604c0 .486.089.906.268 1.259a1.96 1.96 0 0 0 .774.818c.332.192.726.288 1.182.288a2.57 2.57 0 0 0 .831-.128 1.73 1.73 0 0 0 .646-.383 1.67 1.67 0 0 0 .409-.626l2.518.166c-.128.605-.39 1.133-.786 1.585s-.899.797-1.521 1.048-1.332.371-2.142.371zm14.453-7.21l-2.493.153a1.29 1.29 0 0 0-.275-.575 1.46 1.46 0 0 0-.556-.416c-.226-.107-.497-.16-.812-.16-.422 0-.778.09-1.067.268s-.435.409-.435.703c0 .234.094.432.281.594s.509.292.965.39l1.777.358c.955.196 1.667.511 2.135.946s.703 1.006.703 1.713c0 .643-.189 1.208-.568 1.694s-.891.865-1.547 1.138-1.404.403-2.257.403c-1.299 0-2.335-.271-3.106-.812a3.16 3.16 0 0 1-1.349-2.224l2.678-.141c.081.396.277.699.588.908s.71.307 1.196.307c.477 0 .86-.092 1.15-.275s.443-.428.448-.722c-.005-.247-.109-.45-.314-.607s-.519-.285-.946-.371l-1.7-.339c-.959-.192-1.672-.524-2.141-.997s-.697-1.076-.697-1.809c0-.631.171-1.174.511-1.63.346-.456.829-.808 1.451-1.055s1.36-.371 2.199-.371c1.24 0 2.216.262 2.928.786s1.133 1.238 1.253 2.141zm6.413 7.21c-1.01 0-1.88-.205-2.608-.614a4.2 4.2 0 0 1-1.675-1.751c-.392-.758-.588-1.656-.588-2.691 0-1.01.196-1.896.588-2.659a4.35 4.35 0 0 1 1.655-1.783c.716-.426 1.556-.639 2.519-.639a5.12 5.12 0 0 1 1.809.313 4.02 4.02 0 0 1 1.47.927c.422.413.75.933.984 1.56s.352 1.351.352 2.186v.748h-8.291V83.1h5.728a2.09 2.09 0 0 0-.256-1.042 1.83 1.83 0 0 0-.709-.71c-.299-.175-.646-.262-1.042-.262-.414 0-.78.096-1.1.288a2.02 2.02 0 0 0-.741.761c-.179.315-.271.667-.275 1.055v1.604c0 .486.089.906.268 1.259s.441.626.774.818.726.288 1.182.288a2.57 2.57 0 0 0 .831-.128 1.72 1.72 0 0 0 .646-.383 1.67 1.67 0 0 0 .409-.626l2.518.166c-.127.605-.39 1.133-.786 1.585s-.899.797-1.521 1.048-1.332.371-2.141.371zm9.006-5.868V89h-2.723v-9.818h2.595v1.732h.115a2.74 2.74 0 0 1 1.093-1.355c.512-.337 1.132-.505 1.86-.505.682 0 1.277.149 1.784.447a3.04 3.04 0 0 1 1.182 1.278c.281.55.422 1.206.422 1.969V89h-2.723v-5.766c.004-.601-.149-1.07-.46-1.406s-.74-.511-1.285-.511c-.366 0-.69.079-.972.236a1.65 1.65 0 0 0-.652.69c-.153.298-.232.658-.236 1.08zm13.696-4.142v2.046h-5.912v-2.046h5.912zm-4.57-2.352h2.723v9.154c0 .251.039.447.115.588s.183.232.32.288.302.083.486.083c.127 0 .255-.011.383-.032l.294-.058.428 2.026a7.63 7.63 0 0 1-.575.147c-.247.06-.547.096-.901.109-.656.026-1.232-.062-1.726-.262a2.41 2.41 0 0 1-1.144-.933c-.273-.422-.407-.955-.403-1.598V76.83zm9.144 12.356c-.626 0-1.185-.109-1.675-.326s-.878-.548-1.163-.978-.422-.976-.422-1.624c0-.545.1-1.004.3-1.374s.473-.669.819-.895.737-.396 1.176-.511.907-.196 1.393-.243l1.381-.166c.349-.055.603-.136.761-.243s.236-.264.236-.473v-.038c0-.405-.128-.718-.383-.94s-.61-.332-1.074-.332c-.49 0-.88.109-1.17.326s-.482.481-.575.805l-2.519-.204c.128-.597.379-1.112.754-1.547s.859-.776 1.451-1.01 1.287-.358 2.072-.358a6.29 6.29 0 0 1 1.566.192c.502.128.948.326 1.335.594a2.88 2.88 0 0 1 .927 1.035c.226.418.339.918.339 1.502V89h-2.582v-1.362h-.077a2.78 2.78 0 0 1-.633.812c-.264.23-.581.411-.952.543s-.799.192-1.285.192zm.78-1.879c.4 0 .754-.079 1.061-.237a1.88 1.88 0 0 0 .722-.652c.175-.273.262-.582.262-.927v-1.042c-.085.055-.202.107-.351.153l-.492.121-.55.096-.499.07a3.38 3.38 0 0 0-.837.224c-.239.102-.424.241-.556.415s-.198.383-.198.639c0 .371.134.654.402.85s.618.288 1.036.288zm12.084-8.124v2.046h-5.913v-2.046h5.913zm-4.57-2.352h2.723v9.154c0 .251.038.447.115.588a.63.63 0 0 0 .319.288c.141.055.303.083.486.083.128 0 .256-.011.384-.032l.294-.058.428 2.026a7.63 7.63 0 0 1-.575.147c-.247.06-.548.096-.902.109-.656.026-1.231-.062-1.725-.262s-.872-.511-1.145-.933-.407-.955-.402-1.598V76.83zM996.623 89v-9.818h2.723V89h-2.723zm1.368-11.084a1.48 1.48 0 0 1-1.042-.403c-.286-.273-.428-.599-.428-.978s.142-.697.428-.965.637-.409 1.042-.409a1.44 1.44 0 0 1 1.035.409 1.27 1.27 0 0 1 .435.965c0 .379-.145.705-.435.978-.285.269-.63.403-1.035.403zm12.689 1.266L1007.25 89h-3.07l-3.43-9.818h2.87l2.04 7.025h.11l2.03-7.025h2.88zm5.55 10.01c-1.01 0-1.88-.205-2.61-.614-.72-.413-1.28-.997-1.67-1.751s-.59-1.656-.59-2.691c0-1.01.2-1.896.59-2.659a4.33 4.33 0 0 1 1.65-1.783c.72-.426 1.56-.639 2.52-.639.65 0 1.25.104 1.81.313s1.05.514 1.47.927.75.933.99 1.56c.23.622.35 1.351.35 2.186v.748h-8.29V83.1h5.73c0-.392-.09-.739-.26-1.042s-.41-.539-.71-.71-.65-.262-1.04-.262a2.08 2.08 0 0 0-1.1.288c-.32.188-.56.441-.74.761s-.27.667-.28 1.055v1.604c0 .486.09.906.27 1.259a1.95 1.95 0 0 0 .77.818c.34.192.73.288 1.19.288.3 0 .58-.043.83-.128a1.72 1.72 0 0 0 .64-.383c.18-.17.32-.379.41-.626l2.52.166a3.43 3.43 0 0 1-.79 1.585c-.39.448-.89.797-1.52 1.048-.61.247-1.33.371-2.14.371z" fill="#fff"/></svg>