<svg xmlns="http://www.w3.org/2000/svg" width="508" height="504" fill="none" xmlns:v="https://vecta.io/nano"><style><![CDATA[.B{fill:#fff}.C{fill:#263746}.D{fill:#535f68}.E{stroke:#e6e8e9}.F{stroke-width:.787}.G{color-interpolation-filters:sRGB}]]></style><g clip-path="url(#C)"><rect width="508" height="504" rx="16" fill="#72c8b9"/><g clip-path="url(#D)"><rect x="91" y="24" width="326" height="853.585" rx="23.623" fill="#f3f4f4"/><g clip-path="url(#E)"><g clip-path="url(#F)"><rect x="106.749" y="125.578" width="295" height="25" rx="6.3" fill="#e6e8e9"/><path d="M132.211 141.877l3.224-7.165h1.311l3.234 7.165h-1.392l-2.774-6.459h.532l-2.764 6.459h-1.371zm1.484-1.658l.358-1.044h3.87l.358 1.044h-4.586zm9.47 1.73c-.573 0-1.085-.119-1.535-.358a2.73 2.73 0 0 1-1.044-1.003c-.253-.424-.379-.905-.379-1.444 0-.546.126-1.027.379-1.443.252-.423.6-.754 1.044-.993.45-.239.962-.358 1.535-.358.533 0 1 .109 1.403.327a2.11 2.11 0 0 1 .931.942l-.982.573c-.164-.259-.365-.45-.604-.573-.232-.123-.485-.184-.758-.184-.314 0-.597.068-.849.204s-.451.335-.594.594c-.143.253-.215.556-.215.911s.072.662.215.922c.143.252.341.447.594.583s.535.205.849.205c.273 0 .526-.062.758-.184a1.56 1.56 0 0 0 .604-.574l.982.574c-.211.409-.522.726-.931.952-.403.218-.87.327-1.403.327zm5.507 0c-.601 0-1.065-.153-1.393-.461s-.491-.774-.491-1.382v-4.903h1.28v4.873c0 .259.065.46.194.604.137.143.324.215.563.215.287 0 .526-.075.717-.225l.358.911c-.15.122-.334.215-.553.276s-.443.092-.675.092zm-2.785-4.473v-1.024h3.645v1.024h-3.645zm5.004 4.401v-5.466h1.28v5.466h-1.28zm.645-6.367c-.239 0-.437-.075-.594-.225a.74.74 0 0 1-.225-.543c0-.218.075-.399.225-.542.157-.15.355-.225.594-.225s.434.071.584.215a.66.66 0 0 1 .235.522.8.8 0 0 1-.225.573c-.15.15-.348.225-.594.225zm3.707 6.367l-2.345-5.466h1.331l2.017 4.822h-.655l2.088-4.822h1.228l-2.344 5.466h-1.32zm4.403 0v-5.466h1.279v5.466h-1.279zm.645-6.367c-.239 0-.437-.075-.594-.225a.74.74 0 0 1-.225-.543c0-.218.075-.399.225-.542.157-.15.355-.225.594-.225s.433.071.583.215a.66.66 0 0 1 .235.522.8.8 0 0 1-.225.573c-.15.15-.348.225-.593.225zm4.31 6.439c-.601 0-1.065-.153-1.392-.461s-.492-.774-.492-1.382v-4.903h1.28v4.873c0 .259.065.46.194.604.137.143.325.215.563.215.287 0 .526-.075.717-.225l.358.911c-.15.122-.334.215-.553.276s-.443.092-.675.092zm-2.785-4.473v-1.024h3.645v1.024h-3.645zm5.004 4.401v-5.466h1.28v5.466h-1.28zm.645-6.367c-.239 0-.436-.075-.593-.225-.151-.15-.226-.331-.226-.543 0-.218.075-.399.226-.542.157-.15.354-.225.593-.225s.434.071.584.215a.66.66 0 0 1 .235.522.8.8 0 0 1-.225.573c-.15.15-.348.225-.594.225zm4.822 6.439c-.607 0-1.139-.119-1.596-.358-.451-.246-.802-.58-1.055-1.003-.246-.424-.368-.905-.368-1.444 0-.546.119-1.027.358-1.443a2.65 2.65 0 0 1 1.003-.993c.43-.239.918-.358 1.464-.358.532 0 1.007.116 1.423.348a2.52 2.52 0 0 1 .983.982c.238.424.358.922.358 1.495 0 .055-.004.116-.01.184 0 .068-.004.133-.011.195h-4.555v-.85h3.88l-.502.266c.007-.314-.058-.59-.194-.829a1.49 1.49 0 0 0-.563-.563c-.232-.136-.502-.205-.809-.205-.314 0-.59.069-.829.205-.232.137-.417.328-.553.573-.13.239-.194.522-.194.85v.205c0 .327.075.617.225.87s.361.447.634.583.587.205.942.205a2.28 2.28 0 0 0 .829-.143c.246-.096.464-.246.655-.451l.686.789a2.45 2.45 0 0 1-.931.665 3.35 3.35 0 0 1-1.27.225zm5.427 0a4.97 4.97 0 0 1-1.321-.174c-.416-.123-.747-.269-.993-.44l.492-.973a3.47 3.47 0 0 0 .88.389c.341.103.682.154 1.024.154.402 0 .692-.055.87-.164.184-.109.276-.256.276-.44a.37.37 0 0 0-.184-.338c-.123-.082-.283-.143-.481-.184l-.666-.113-.727-.133a2.75 2.75 0 0 1-.655-.256 1.41 1.41 0 0 1-.481-.46c-.123-.191-.184-.444-.184-.758 0-.348.099-.648.297-.901.198-.259.474-.457.829-.593.362-.144.788-.215 1.28-.215.368 0 .74.041 1.115.122s.686.198.932.349l-.491.972a2.48 2.48 0 0 0-.789-.317 3.33 3.33 0 0 0-.778-.092c-.389 0-.679.058-.87.174-.184.116-.276.262-.276.44 0 .164.061.286.184.368s.283.147.481.195a7.27 7.27 0 0 0 .655.123 5.11 5.11 0 0 1 .727.133 2.73 2.73 0 0 1 .655.256c.205.102.369.249.492.44s.184.44.184.747a1.37 1.37 0 0 1-.307.891c-.198.252-.481.45-.85.593-.368.137-.809.205-1.32.205z" class="C"/><rect x="203.604" y="130.303" width=".787" height="15.749" rx=".394" fill="#ced1d4"/><path d="M237.735 141.877l-2.375-7.165h1.382l2.119 6.48h-.686l2.201-6.48h1.229l2.139 6.48h-.665l2.17-6.48h1.269l-2.375 7.165h-1.412l-1.956-5.845h.369l-1.986 5.845h-1.423zm11.843.072c-.608 0-1.14-.119-1.597-.358-.451-.246-.802-.58-1.055-1.003-.245-.424-.368-.905-.368-1.444 0-.546.119-1.027.358-1.443a2.65 2.65 0 0 1 1.003-.993c.43-.239.918-.358 1.464-.358.532 0 1.007.116 1.423.348a2.52 2.52 0 0 1 .983.982c.239.424.358.922.358 1.495 0 .055-.003.116-.01.184a2.02 2.02 0 0 1-.01.195h-4.556v-.85h3.88l-.502.266c.007-.314-.058-.59-.194-.829a1.49 1.49 0 0 0-.563-.563c-.232-.136-.502-.205-.809-.205-.314 0-.59.069-.829.205a1.5 1.5 0 0 0-.553.573c-.13.239-.194.522-.194.85v.205c0 .327.075.617.225.87a1.5 1.5 0 0 0 .635.583c.273.137.586.205.941.205a2.28 2.28 0 0 0 .829-.143 1.77 1.77 0 0 0 .656-.451l.686.789a2.46 2.46 0 0 1-.932.665c-.369.15-.792.225-1.269.225zm3.737-.072v-5.466h1.279v5.466h-1.279zm.645-6.367c-.239 0-.437-.075-.594-.225a.74.74 0 0 1-.225-.543c0-.218.075-.399.225-.542.157-.15.355-.225.594-.225s.433.071.583.215a.66.66 0 0 1 .236.522c0 .225-.075.416-.226.573-.15.15-.348.225-.593.225zm4.73 8.425c-.505 0-1-.068-1.485-.205-.477-.129-.87-.32-1.177-.573l.573-.962c.239.198.539.355.901.471a3.51 3.51 0 0 0 1.116.184c.601 0 1.041-.14 1.321-.42.279-.273.419-.686.419-1.238v-.973l.103-1.239-.041-1.238v-1.331h1.218v4.637c0 .99-.253 1.717-.758 2.181-.505.471-1.235.706-2.19.706zm-.164-2.303c-.519 0-.99-.109-1.413-.328-.416-.225-.747-.536-.993-.931-.239-.396-.358-.86-.358-1.393 0-.525.119-.986.358-1.382.246-.395.577-.702.993-.921.423-.218.894-.327 1.413-.327a2.76 2.76 0 0 1 1.249.276c.368.184.662.471.88.86.225.389.338.887.338 1.494s-.113 1.109-.338 1.505c-.218.389-.512.679-.88.87-.369.185-.785.277-1.249.277zm.194-1.085a1.85 1.85 0 0 0 .86-.195 1.47 1.47 0 0 0 .584-.553 1.56 1.56 0 0 0 .215-.819c0-.307-.072-.576-.215-.808-.137-.239-.331-.42-.584-.543-.252-.129-.539-.194-.86-.194a1.93 1.93 0 0 0-.87.194c-.252.123-.45.304-.593.543-.137.232-.205.501-.205.808s.068.581.205.819c.143.232.341.417.593.553.26.13.55.195.87.195zm7.64-4.197c.437 0 .826.085 1.167.256.348.17.621.433.819.788.198.348.297.798.297 1.351v3.132h-1.279v-2.968c0-.485-.116-.846-.348-1.085-.226-.239-.543-.359-.952-.359a1.68 1.68 0 0 0-.799.185c-.232.123-.413.307-.542.552-.123.239-.185.543-.185.912v2.763h-1.279v-7.595h1.279v3.603l-.276-.45c.191-.348.467-.614.829-.799.369-.191.792-.286 1.269-.286zm5.903 5.599c-.601 0-1.065-.153-1.393-.461s-.491-.774-.491-1.382v-4.903h1.28v4.873c0 .259.064.46.194.604.137.143.324.215.563.215.287 0 .526-.075.717-.225l.358.911c-.15.122-.334.215-.553.276s-.443.092-.675.092zm-2.785-4.473v-1.024h3.644v1.024h-3.644z" class="C"/><g filter="url(#A)"><rect x="304.396" y="127.153" width="96.068" height="22.048" rx="5.512" class="B"/><path d="M342.423 141.877v-7.165h3.132c.778 0 1.461.15 2.048.45s1.044.717 1.371 1.249.492 1.16.492 1.884c0 .716-.164 1.344-.492 1.883-.327.532-.784.949-1.371 1.249s-1.27.45-2.048.45h-3.132zm1.331-1.126h1.74c.539 0 1.003-.102 1.392-.307.396-.204.7-.491.911-.86.219-.368.328-.798.328-1.289 0-.499-.109-.929-.328-1.29a2.17 2.17 0 0 0-.911-.86c-.389-.205-.853-.307-1.392-.307h-1.74v4.913zm6.942 1.126v-5.466h1.28v5.466h-1.28zm.645-6.367c-.239 0-.437-.075-.594-.225a.74.74 0 0 1-.225-.543c0-.218.075-.399.225-.542.157-.15.355-.225.594-.225s.433.071.583.215a.66.66 0 0 1 .236.522.8.8 0 0 1-.225.573c-.151.15-.348.225-.594.225zm4.822 6.439c-.607 0-1.14-.119-1.597-.358-.45-.246-.802-.58-1.054-1.003-.246-.424-.369-.905-.369-1.444 0-.546.12-1.027.358-1.443.246-.423.58-.754 1.004-.993a2.96 2.96 0 0 1 1.463-.358c.533 0 1.007.116 1.423.348s.744.559.983.982.358.922.358 1.495c0 .055-.003.116-.01.184a1.74 1.74 0 0 1-.01.195h-4.555v-.85h3.879l-.501.266c.007-.314-.058-.59-.195-.829s-.324-.426-.563-.563c-.232-.136-.501-.205-.809-.205a1.65 1.65 0 0 0-.829.205 1.49 1.49 0 0 0-.552.573c-.13.239-.195.522-.195.85v.205c0 .327.075.617.225.87a1.5 1.5 0 0 0 .635.583c.273.137.587.205.942.205.307 0 .583-.048.829-.143s.464-.246.655-.451l.686.789c-.246.286-.556.508-.932.665-.368.15-.791.225-1.269.225zm5.795 0c-.601 0-1.065-.153-1.393-.461s-.491-.774-.491-1.382v-4.903h1.28v4.873c0 .259.065.46.194.604.137.143.324.215.563.215.287 0 .526-.075.717-.225l.358.911c-.15.122-.334.215-.553.276s-.443.092-.675.092zm-2.785-4.473v-1.024h3.645v1.024h-3.645z" fill="#06597a"/></g></g></g><rect x="106.749" y="163.375" width="294.502" height="373.367" rx="6.3" class="B"/><path d="M120.425 188.923v-6.614h2.693c.706 0 1.323.142 1.852.425.536.277.952.665 1.248 1.162s.444 1.071.444 1.72-.148 1.222-.444 1.72a3.11 3.11 0 0 1-1.248 1.172c-.529.277-1.146.415-1.852.415h-2.693zm.7-.604h1.956c.585 0 1.093-.114 1.521-.341.435-.233.772-.551 1.011-.954.239-.409.359-.879.359-1.408 0-.535-.12-1.005-.359-1.408a2.48 2.48 0 0 0-1.011-.945c-.428-.233-.936-.349-1.521-.349h-1.956v5.405zm10.074.604v-1.096l-.028-.179v-1.833c0-.423-.12-.747-.359-.974-.233-.227-.583-.34-1.049-.34a2.63 2.63 0 0 0-.917.161c-.289.107-.535.249-.737.425l-.302-.501c.252-.214.554-.378.907-.491.353-.12.724-.18 1.115-.18.643 0 1.137.161 1.484.482.352.315.529.797.529 1.446v3.08h-.643zm-1.71.048c-.372 0-.696-.06-.973-.18a1.49 1.49 0 0 1-.624-.51c-.145-.221-.217-.473-.217-.756a1.37 1.37 0 0 1 .179-.699c.126-.215.328-.385.605-.511.283-.132.661-.198 1.134-.198h1.71v.501h-1.691c-.479 0-.813.085-1.002.255a.83.83 0 0 0-.274.633c0 .283.11.51.331.68s.529.255.926.255c.378 0 .702-.085.973-.255.277-.176.479-.428.605-.756l.151.463a1.57 1.57 0 0 1-.661.785c-.309.195-.7.293-1.172.293zm4.175-.048v-7.011h.671v7.011h-.671zm2.538 0v-4.961h.67v4.961h-.67zm.34-6.057c-.139 0-.255-.047-.35-.141s-.142-.208-.142-.341.048-.242.142-.33c.095-.095.211-.142.35-.142s.255.044.349.132.142.199.142.331c0 .139-.047.255-.142.35-.088.094-.204.141-.349.141zm2.235 7.938a1.99 1.99 0 0 1-.671-.114c-.208-.075-.387-.189-.538-.34l.311-.501c.126.12.262.211.407.274.151.07.318.104.5.104.221 0 .41-.063.567-.189.164-.119.319-.334.463-.642l.322-.728.075-.104 2.041-4.602h.662l-2.485 5.557c-.139.321-.293.576-.463.765-.164.189-.344.321-.539.397a1.67 1.67 0 0 1-.652.123zm1.323-1.739l-2.287-5.103h.699l2.023 4.555-.435.548zm9.248-.085c-.498 0-.957-.082-1.38-.246-.422-.17-.787-.406-1.096-.708a3.33 3.33 0 0 1-.727-1.068c-.17-.41-.255-.857-.255-1.342s.085-.932.255-1.342c.176-.409.419-.765.727-1.067a3.3 3.3 0 0 1 1.106-.7c.422-.17.882-.255 1.379-.255a3.7 3.7 0 0 1 1.352.246 2.67 2.67 0 0 1 1.068.718l-.445.444c-.27-.277-.57-.476-.897-.595-.328-.126-.681-.189-1.059-.189-.396 0-.765.069-1.105.208a2.54 2.54 0 0 0-.888.576 2.72 2.72 0 0 0-.596.869c-.138.328-.208.69-.208 1.087a2.84 2.84 0 0 0 .208 1.096 2.85 2.85 0 0 0 .596.87c.252.245.548.437.888.576a3.03 3.03 0 0 0 1.105.198c.378 0 .731-.063 1.059-.189a2.51 2.51 0 0 0 .897-.604l.445.444c-.29.321-.646.564-1.068.727s-.876.246-1.361.246zm6.812-.057v-1.096l-.028-.179v-1.833c0-.423-.12-.747-.359-.974-.233-.227-.583-.34-1.049-.34a2.62 2.62 0 0 0-.916.161c-.29.107-.536.249-.738.425l-.302-.501c.252-.214.554-.378.907-.491a3.44 3.44 0 0 1 1.115-.18c.643 0 1.137.161 1.484.482.353.315.529.797.529 1.446v3.08h-.643zm-1.71.048c-.372 0-.696-.06-.973-.18a1.49 1.49 0 0 1-.624-.51c-.145-.221-.217-.473-.217-.756a1.38 1.38 0 0 1 .179-.699c.126-.215.328-.385.605-.511.284-.132.662-.198 1.134-.198h1.71v.501h-1.691c-.479 0-.813.085-1.002.255a.83.83 0 0 0-.274.633c0 .283.11.51.331.68s.529.255.926.255c.378 0 .702-.085.973-.255.277-.176.479-.428.605-.756l.151.463a1.57 1.57 0 0 1-.661.785c-.309.195-.699.293-1.172.293zm4.175-.048v-7.011h.671v7.011h-.671zm4.56.048c-.479 0-.91-.108-1.295-.322a2.44 2.44 0 0 1-.897-.897c-.221-.385-.331-.822-.331-1.314s.11-.935.331-1.313.519-.674.897-.889.81-.321 1.295-.321c.491 0 .926.107 1.304.321a2.31 2.31 0 0 1 .898.889c.22.378.33.816.33 1.313s-.11.929-.33 1.314c-.215.378-.514.677-.898.897-.384.214-.819.322-1.304.322zm0-.596a1.89 1.89 0 0 0 .954-.236c.278-.164.495-.391.652-.68.164-.296.246-.637.246-1.021 0-.39-.082-.731-.246-1.02a1.66 1.66 0 0 0-.652-.671 1.82 1.82 0 0 0-.945-.246c-.352 0-.667.082-.945.246-.277.157-.497.381-.661.671s-.246.63-.246 1.02c0 .384.082.725.246 1.021.164.289.384.516.661.68.278.158.589.236.936.236zm3.902.548v-4.961h.643v1.352l-.067-.237c.139-.377.372-.664.7-.859.327-.202.734-.303 1.219-.303v.652h-.076c-.025-.006-.05-.009-.076-.009-.522 0-.932.16-1.228.482-.296.315-.444.765-.444 1.351v2.532h-.671zm3.719 0v-4.961h.671v4.961h-.671zm.34-6.057c-.139 0-.255-.047-.35-.141s-.141-.208-.141-.341.047-.242.141-.33c.095-.095.211-.142.35-.142s.255.044.35.132.141.199.141.331c0 .139-.047.255-.141.35s-.205.141-.35.141zm4.305 6.105c-.517 0-.97-.108-1.361-.322a2.41 2.41 0 0 1-.917-.897c-.22-.385-.33-.822-.33-1.314s.104-.926.312-1.304c.214-.378.503-.674.869-.888.372-.221.787-.331 1.247-.331.466 0 .879.107 1.238.321.365.208.652.504.86.889.208.378.312.816.312 1.313a.57.57 0 0 1-.01.104v.104h-4.318v-.501h3.959l-.264.199c0-.359-.079-.678-.237-.955a1.66 1.66 0 0 0-.623-.661c-.265-.158-.57-.236-.917-.236a1.78 1.78 0 0 0-.916.236c-.271.157-.482.378-.634.661a2.04 2.04 0 0 0-.226.974v.104c0 .377.082.711.245 1.001.17.284.404.507.7.671.302.158.645.236 1.03.236a2.18 2.18 0 0 0 .841-.16 1.75 1.75 0 0 0 .68-.492l.378.435c-.221.265-.498.466-.832.605-.327.138-.689.208-1.086.208zm4.928 0c-.41 0-.797-.057-1.163-.171-.365-.119-.652-.267-.859-.444l.302-.529c.201.151.46.284.775.397a3.06 3.06 0 0 0 .992.161c.472 0 .813-.073 1.02-.218a.7.7 0 0 0 .312-.595c0-.183-.06-.324-.179-.425-.114-.107-.265-.186-.454-.236-.189-.057-.4-.104-.633-.142l-.699-.132a2.7 2.7 0 0 1-.624-.218c-.189-.101-.343-.236-.463-.406-.113-.17-.17-.397-.17-.68 0-.271.076-.514.227-.728s.372-.381.661-.501c.296-.126.655-.189 1.077-.189a3.59 3.59 0 0 1 .964.133c.322.081.586.192.794.33l-.293.539a2.18 2.18 0 0 0-.709-.321 2.81 2.81 0 0 0-.756-.104c-.447 0-.777.078-.992.236-.208.151-.312.346-.312.586 0 .189.057.337.171.444s.274.192.463.255a5.49 5.49 0 0 0 .633.142l.689.141a2.67 2.67 0 0 1 .634.218 1.08 1.08 0 0 1 .463.387c.119.164.179.381.179.652 0 .29-.082.542-.246.756-.157.208-.39.372-.699.491-.302.114-.671.171-1.105.171z" class="D"/><g fill="#b5babe"><path d="M379.203 186.998c.87 0 1.575-.705 1.575-1.574s-.705-1.575-1.575-1.575-1.575.705-1.575 1.575.706 1.574 1.575 1.574zm-4.724 0c.869 0 1.575-.705 1.575-1.574s-.706-1.575-1.575-1.575-1.575.705-1.575 1.575.705 1.574 1.575 1.574zm9.449 0c.87 0 1.575-.705 1.575-1.574s-.705-1.575-1.575-1.575-1.575.705-1.575 1.575.705 1.574 1.575 1.574z"/></g><path d="M140.214 321.256c0-16.749 3.698-33.292 10.83-48.447s17.521-28.549 30.426-39.226L254 321.256H140.214z" fill="#fbb03f"/><path d="M180.915 234.046c19.413-16.269 43.699-25.595 69.011-26.502L254 321.256l-73.085-87.21z" fill="#14a38b"/><path d="M250.03 207.541c18.65-.651 37.174 3.295 53.94 11.49s31.258 20.388 42.201 35.505l-92.17 66.721-3.971-113.716z" fill="#8308ae"/><path d="M346.272 254.676c13.54 18.764 21.059 42.658 21.514 65.793l-113.785.787 92.271-66.58z" fill="#0880ae"/><g class="B"><path opacity=".5" d="M200.06 321.649a54.34 54.34 0 0 1 4.136-20.792c2.731-6.592 6.733-12.582 11.778-17.627a54.34 54.34 0 0 1 17.627-11.778c6.592-2.731 13.658-4.136 20.793-4.136a54.32 54.32 0 0 1 20.792 4.136c6.592 2.73 12.582 6.733 17.627 11.778a54.31 54.31 0 0 1 11.778 17.627 54.32 54.32 0 0 1 4.136 20.792h-54.333-54.334z"/><path d="M203.998 321.65a50.41 50.41 0 0 1 3.836-19.286c2.533-6.114 6.245-11.67 10.925-16.35a50.41 50.41 0 0 1 16.35-10.924c6.114-2.533 12.667-3.836 19.285-3.836a50.39 50.39 0 0 1 19.286 3.836 50.42 50.42 0 0 1 16.35 10.924 50.39 50.39 0 0 1 14.761 35.636h-50.397-50.396z"/></g><g class="C"><path d="M233.638 300.066v-11.087l1.213 1.212h-3.638v-2.252h5.232v12.127h-2.807zm5.293 2.668l1.143-4.158.381 1.559c-.496 0-.906-.144-1.23-.433-.312-.289-.468-.687-.468-1.195s.162-.913.485-1.213.722-.45 1.196-.45c.485 0 .883.156 1.195.467.312.301.468.699.468 1.196 0 .15-.012.3-.035.45-.023.139-.069.312-.138.52-.058.196-.156.45-.295.762l-.987 2.495h-1.715zm9.898-2.46c-1.016 0-1.905-.15-2.668-.451-.762-.311-1.357-.745-1.784-1.299-.427-.566-.641-1.224-.641-1.975s.208-1.386.624-1.905c.427-.532 1.022-.93 1.784-1.196.762-.277 1.657-.415 2.685-.415 1.04 0 1.941.138 2.703.415.774.266 1.368.664 1.784 1.196.427.519.641 1.155.641 1.905a3.19 3.19 0 0 1-.641 1.975c-.427.554-1.028.988-1.802 1.299-.762.301-1.657.451-2.685.451zm0-2.062c.705 0 1.259-.156 1.663-.467.416-.312.624-.74.624-1.282s-.208-.965-.624-1.265c-.404-.312-.958-.468-1.663-.468-.693 0-1.241.156-1.645.468-.405.3-.607.722-.607 1.265s.202.97.607 1.282.952.467 1.645.467zm0-3.759c-.935 0-1.755-.127-2.46-.381-.693-.254-1.235-.624-1.628-1.109-.381-.496-.572-1.085-.572-1.767 0-.716.197-1.328.589-1.836.393-.52.941-.918 1.646-1.195.704-.289 1.513-.434 2.425-.434.936 0 1.75.145 2.443.434.704.277 1.253.675 1.646 1.195.404.508.606 1.12.606 1.836 0 .682-.196 1.271-.589 1.767-.381.485-.924.855-1.628 1.109s-1.531.381-2.478.381zm0-1.646c.589 0 1.051-.133 1.386-.398.347-.266.52-.63.52-1.092 0-.485-.179-.86-.537-1.126-.347-.265-.803-.398-1.369-.398-.554 0-1.004.133-1.351.398s-.52.641-.52 1.126c0 .462.168.826.503 1.092s.791.398 1.368.398zm12.111 7.467c-1.109 0-2.073-.231-2.893-.693-.809-.462-1.432-1.138-1.871-2.027s-.659-1.986-.659-3.292c0-1.397.26-2.581.78-3.551.531-.97 1.259-1.709 2.183-2.217.935-.508 2.009-.763 3.222-.763.647 0 1.265.07 1.854.208s1.097.347 1.524.624l-1.039 2.062c-.335-.231-.693-.387-1.074-.468-.382-.093-.78-.139-1.196-.139-1.051 0-1.882.318-2.494.953s-.919 1.576-.919 2.824v.693a4.43 4.43 0 0 0 .104.762l-.779-.728c.219-.45.502-.825.849-1.126.346-.312.756-.543 1.23-.693a5.03 5.03 0 0 1 1.593-.242c.786 0 1.49.156 2.114.468a3.74 3.74 0 0 1 1.49 1.316c.381.566.571 1.23.571 1.992 0 .82-.207 1.536-.623 2.149-.404.6-.953 1.068-1.646 1.403-.681.323-1.455.485-2.321.485zm-.156-2.096c.392 0 .739-.07 1.039-.208a1.71 1.71 0 0 0 .728-.641c.173-.277.26-.595.26-.953 0-.554-.191-.993-.572-1.317-.37-.335-.866-.502-1.49-.502-.416 0-.779.081-1.091.243a1.83 1.83 0 0 0-.745.64c-.173.266-.26.578-.26.936a1.73 1.73 0 0 0 .26.935c.173.266.416.48.727.641.312.151.693.226 1.144.226zm10.162 2.096a9.83 9.83 0 0 1-2.512-.329c-.82-.231-1.524-.555-2.113-.97l1.109-2.149c.462.335.993.601 1.593.797.612.197 1.23.295 1.854.295.704 0 1.259-.139 1.663-.416s.606-.664.606-1.161a1.46 1.46 0 0 0-.242-.831c-.162-.243-.451-.428-.866-.555-.405-.127-.976-.19-1.715-.19h-3.101l.623-6.826h7.398v2.252h-6.393l1.455-1.282-.433 4.868-1.455-1.282h2.564c1.201 0 2.165.168 2.893.503.739.323 1.276.768 1.611 1.334s.502 1.207.502 1.923-.179 1.38-.537 1.992c-.358.6-.912 1.091-1.663 1.472-.739.37-1.686.555-2.841.555zm-34.543 16.911c-.638 0-1.209-.138-1.713-.414a3.04 3.04 0 0 1-1.169-1.134c-.284-.48-.425-1.031-.425-1.653s.141-1.174.425-1.654a2.97 2.97 0 0 1 1.169-1.122c.504-.276 1.075-.413 1.713-.413.567 0 1.071.114 1.512.342.449.221.795.551 1.039.992l-.862.555c-.205-.307-.457-.531-.756-.673-.291-.149-.606-.224-.945-.224-.409 0-.775.09-1.098.271a2 2 0 0 0-.768.768c-.189.323-.284.709-.284 1.158s.095.838.284 1.169.445.587.768.768.689.271 1.098.271c.339 0 .654-.07.945-.212.299-.15.551-.378.756-.685l.862.543a2.5 2.5 0 0 1-1.039 1.004c-.441.228-.945.343-1.512.343zm7.716-.071v-1.323l-.059-.248v-2.256c0-.481-.141-.851-.425-1.11-.276-.268-.693-.402-1.252-.402-.37 0-.732.063-1.087.189-.354.118-.653.279-.897.484l-.473-.85c.323-.26.709-.457 1.158-.591a4.78 4.78 0 0 1 1.429-.212c.858 0 1.52.208 1.984.626s.697 1.055.697 1.913v3.78h-1.075zm-2.055.071c-.464 0-.874-.079-1.228-.237-.347-.157-.614-.374-.803-.649a1.69 1.69 0 0 1-.284-.957c0-.339.079-.646.236-.921.166-.276.429-.496.792-.662.37-.165.866-.248 1.488-.248h1.984v.815h-1.937c-.567 0-.949.095-1.146.284s-.295.417-.295.685c0 .307.122.555.366.744.244.181.583.272 1.016.272.425 0 .795-.095 1.11-.284.323-.189.556-.464.697-.827l.225.78c-.15.37-.414.665-.792.886-.378.212-.854.319-1.429.319zm5.04-.071v-8.764h1.134v8.764h-1.134zm5.791.071c-.63 0-1.189-.138-1.677-.414a3.06 3.06 0 0 1-1.158-1.134c-.283-.488-.425-1.039-.425-1.653 0-.622.142-1.174.425-1.654s.669-.854 1.158-1.122c.488-.276 1.047-.413 1.677-.413.622 0 1.177.137 1.665.413.496.268.882.642 1.158 1.122.283.473.425 1.024.425 1.654 0 .622-.142 1.173-.425 1.653-.276.481-.662.859-1.158 1.134-.488.276-1.043.414-1.665.414zm0-.993a2.12 2.12 0 0 0 1.075-.271c.322-.181.574-.437.756-.768.181-.339.271-.728.271-1.169 0-.449-.09-.835-.271-1.158-.182-.331-.434-.586-.756-.768a2.12 2.12 0 0 0-1.075-.271c-.402 0-.76.09-1.075.271a2.02 2.02 0 0 0-.756.768c-.189.323-.283.709-.283 1.158 0 .441.094.83.283 1.169a2.02 2.02 0 0 0 .756.768c.315.181.673.271 1.075.271zm4.627.922v-6.26h1.087v1.7l-.106-.425c.173-.433.464-.764.874-.992s.913-.342 1.511-.342v1.098a.84.84 0 0 0-.141-.012h-.118c-.607 0-1.087.181-1.441.544s-.532.885-.532 1.571v3.118h-1.134zm4.575 0v-6.26h1.134v6.26h-1.134zm.567-7.465c-.22 0-.406-.071-.555-.213-.142-.142-.213-.315-.213-.519a.72.72 0 0 1 .213-.532c.149-.142.335-.213.555-.213s.402.071.543.213a.65.65 0 0 1 .225.508c0 .213-.071.394-.213.543a.75.75 0 0 1-.555.213zm5.331 7.536c-.67 0-1.26-.138-1.772-.414a3.02 3.02 0 0 1-1.181-1.134c-.276-.48-.414-1.031-.414-1.653s.134-1.174.402-1.654a2.95 2.95 0 0 1 1.122-1.122c.48-.276 1.02-.413 1.618-.413.606 0 1.142.133 1.606.401a2.8 2.8 0 0 1 1.087 1.134c.268.48.402 1.043.402 1.689a1.33 1.33 0 0 1-.012.165c0 .063-.004.123-.012.178h-5.327v-.815h4.737l-.461.283c.008-.401-.075-.76-.248-1.075a1.84 1.84 0 0 0-.721-.732c-.299-.181-.649-.272-1.051-.272a2.03 2.03 0 0 0-1.051.272c-.307.173-.547.421-.721.744a2.22 2.22 0 0 0-.259 1.087v.189c0 .417.094.791.283 1.122.197.323.469.575.815.756s.744.271 1.193.271c.37 0 .705-.063 1.004-.189.307-.126.575-.314.803-.566l.626.732c-.283.331-.638.583-1.063.756-.417.173-.886.26-1.405.26zm6.051 0a5.15 5.15 0 0 1-1.489-.213c-.464-.142-.83-.315-1.098-.52l.472-.897c.268.181.599.334.993.46a3.93 3.93 0 0 0 1.204.189c.528 0 .906-.075 1.134-.224.236-.15.355-.358.355-.626a.55.55 0 0 0-.213-.461c-.142-.11-.331-.193-.567-.248a8.14 8.14 0 0 0-.768-.142l-.85-.165a3.82 3.82 0 0 1-.78-.283c-.236-.126-.425-.296-.567-.508-.141-.221-.212-.512-.212-.874 0-.378.106-.709.319-.993s.511-.5.897-.649c.394-.158.859-.236 1.394-.236a5.2 5.2 0 0 1 1.24.153c.426.095.772.232 1.04.414l-.485.897a2.67 2.67 0 0 0-.885-.39 4.15 4.15 0 0 0-.922-.106c-.496 0-.866.083-1.11.248-.244.158-.366.362-.366.614a.61.61 0 0 0 .212.496c.15.111.339.197.567.26a8.66 8.66 0 0 0 .78.166 7.96 7.96 0 0 1 .85.165c.284.063.54.154.768.272.236.118.425.283.567.496.15.212.225.496.225.85 0 .378-.111.705-.331.981s-.532.492-.933.649c-.402.15-.882.225-1.441.225z"/></g><g stroke="#fff" stroke-width="1.575"><path d="M226.231 288.297l-45.671-54.333m71.473 39.671l-1.575-66.144m43.633 84.387l51.971-37.797"/></g><g class="B"><path d="M159.303 287.917v-6.064h2.841c.728 0 1.282.145 1.663.433a1.35 1.35 0 0 1 .572 1.144c0 .323-.075.6-.225.831-.151.225-.353.402-.607.529a1.83 1.83 0 0 1-.814.181l.156-.311c.341 0 .647.063.918.19.272.121.485.3.641.537.162.237.243.532.243.884a1.41 1.41 0 0 1-.598 1.212c-.398.289-.99.434-1.776.434h-3.014zm1.126-.884h1.819c.422 0 .745-.069.97-.208s.338-.361.338-.667c0-.3-.113-.52-.338-.658-.225-.145-.548-.217-.97-.217h-1.906v-.875h1.681c.392 0 .693-.069.901-.207s.32-.347.32-.624c0-.283-.107-.494-.32-.632s-.509-.208-.901-.208h-1.594v4.296zm5.359.884v-4.626h1.031v1.273l-.121-.372c.139-.312.355-.549.65-.71s.672-.243 1.117-.243v1.031c-.046-.012-.09-.017-.13-.017a.82.82 0 0 0-.121-.009c-.41 0-.736.121-.979.364-.243.236-.364.592-.364 1.065v2.244h-1.083zm5.727.06c-.514 0-.964-.101-1.351-.303a2.3 2.3 0 0 1-.892-.849c-.208-.358-.312-.765-.312-1.221 0-.462.101-.869.303-1.222.208-.358.491-.638.849-.84a2.51 2.51 0 0 1 1.239-.303c.45 0 .851.098 1.204.295s.629.473.831.831.303.78.303 1.265a1.51 1.51 0 0 1-.008.156c0 .057-.003.112-.009.164h-3.854v-.719h3.282l-.424.226c.006-.266-.049-.5-.165-.702a1.25 1.25 0 0 0-.476-.476c-.196-.116-.424-.174-.684-.174-.266 0-.5.058-.702.174-.196.115-.352.277-.468.485-.109.202-.164.441-.164.719v.173c0 .277.063.522.19.736a1.27 1.27 0 0 0 .537.494c.231.115.497.173.797.173.26 0 .494-.04.702-.121a1.49 1.49 0 0 0 .554-.381l.581.667a2.08 2.08 0 0 1-.789.563c-.311.127-.669.19-1.074.19zm5.937-.06v-.936l-.06-.199v-1.637c0-.318-.096-.563-.286-.737s-.479-.268-.866-.268c-.26 0-.517.04-.771.121s-.459.194-.633.338l-.424-.788c.248-.191.543-.332.884-.425a3.92 3.92 0 0 1 1.074-.147c.669 0 1.186.162 1.55.485.37.318.554.812.554 1.481v2.712h-1.022zm-1.455.06c-.346 0-.65-.058-.909-.173-.26-.121-.462-.286-.607-.494-.138-.213-.208-.453-.208-.719 0-.26.061-.493.182-.701.127-.208.332-.373.615-.494s.659-.182 1.126-.182h1.343v.719h-1.265c-.369 0-.618.061-.745.182a.56.56 0 0 0-.19.433c0 .196.078.352.234.468s.372.173.649.173c.266 0 .503-.061.711-.182a1.03 1.03 0 0 0 .459-.537l.182.65c-.104.271-.292.482-.563.632s-.604.225-1.014.225zm4.75-1.091l.026-1.36 2.417-2.235h1.299l-2.052 2.062-.572.476-1.118 1.057zm-.883 1.031v-6.428h1.083v6.428h-1.083zm3.491 0l-1.689-2.088.684-.866 2.321 2.954h-1.316zm2.163 0v-4.886c0-.485.141-.872.424-1.16.289-.295.699-.442 1.23-.442a2.3 2.3 0 0 1 .537.06c.174.041.318.104.433.191l-.294.814c-.081-.063-.173-.11-.277-.138a1 1 0 0 0-.321-.052c-.225 0-.395.063-.511.19-.115.121-.173.306-.173.555v.519l.035.485v3.864h-1.083zm-.762-3.725v-.866h3.083v.866h-3.083zm6.577 3.725v-.936l-.06-.199v-1.637c0-.318-.096-.563-.286-.737s-.48-.268-.866-.268c-.26 0-.517.04-.771.121s-.459.194-.633.338l-.424-.788c.248-.191.543-.332.883-.425.347-.098.705-.147 1.075-.147.669 0 1.186.162 1.55.485.37.318.554.812.554 1.481v2.712h-1.022zm-1.455.06c-.346 0-.65-.058-.909-.173-.26-.121-.462-.286-.607-.494-.138-.213-.208-.453-.208-.719 0-.26.061-.493.182-.701.127-.208.332-.373.615-.494s.659-.182 1.126-.182h1.343v.719h-1.265c-.369 0-.618.061-.745.182a.56.56 0 0 0-.19.433c0 .196.078.352.234.468s.372.173.649.173c.266 0 .503-.061.711-.182a1.03 1.03 0 0 0 .459-.537l.182.65a1.2 1.2 0 0 1-.564.632c-.265.15-.603.225-1.013.225zm5.296 0a4.21 4.21 0 0 1-1.117-.147c-.353-.104-.633-.228-.84-.373l.415-.822c.208.132.456.242.745.329a2.99 2.99 0 0 0 .866.13c.341 0 .587-.047.737-.139.156-.092.234-.217.234-.372 0-.127-.052-.223-.156-.286a1.13 1.13 0 0 0-.407-.156l-.564-.095-.615-.113a2.34 2.34 0 0 1-.554-.217c-.167-.098-.303-.228-.407-.389s-.156-.376-.156-.641c0-.295.084-.549.251-.763s.402-.386.702-.502c.306-.121.667-.182 1.083-.182.311 0 .626.035.944.104s.58.168.788.295l-.416.822c-.219-.132-.442-.222-.667-.268-.219-.052-.439-.078-.658-.078-.329 0-.575.049-.736.147s-.234.223-.234.373c0 .138.052.242.156.311s.239.125.407.165l.554.104a4.41 4.41 0 0 1 .615.113 2.39 2.39 0 0 1 .555.216c.173.087.311.211.415.373s.156.372.156.632c0 .289-.086.54-.26.754-.167.213-.407.381-.719.502-.311.115-.684.173-1.117.173zm4.77 0c-.508 0-.901-.13-1.178-.39s-.416-.655-.416-1.169v-4.149h1.083v4.123c0 .219.055.39.164.511.116.121.275.182.477.182.242 0 .444-.064.606-.191l.303.771a1.27 1.27 0 0 1-.468.234c-.184.052-.375.078-.571.078zm-2.356-3.785v-.866h3.083v.866h-3.083zm-26.345 13.725v-.754l2.408-2.287c.202-.19.353-.358.451-.502s.161-.277.19-.399c.035-.127.052-.245.052-.355 0-.277-.095-.491-.286-.641-.19-.156-.47-.234-.84-.234a2.02 2.02 0 0 0-.805.156c-.237.104-.442.263-.615.477l-.789-.607c.237-.317.555-.563.953-.736.404-.179.855-.268 1.352-.268.438 0 .82.072 1.143.216.329.139.58.338.753.598.179.26.269.569.269.927a2.3 2.3 0 0 1-.078.589c-.052.19-.15.392-.294.606s-.356.453-.633.719l-2.07 1.966-.234-.424h3.543v.953h-4.47zm6.133 0l2.503-5.613.295.502h-3.439l.537-.546v1.577h-1.048v-1.984h4.712v.754l-2.356 5.31h-1.204zm5.114 0l4.14-6.064h.849l-4.14 6.064h-.849zm.502-2.798c-.283 0-.534-.07-.753-.208a1.39 1.39 0 0 1-.511-.58c-.121-.248-.182-.54-.182-.875s.06-.627.182-.875a1.39 1.39 0 0 1 .511-.581c.219-.138.47-.207.753-.207.295 0 .549.069.763.207s.389.333.511.581.181.54.181.875-.06.626-.181.875a1.4 1.4 0 0 1-.511.58c-.214.138-.468.208-.763.208zm.009-.607a.62.62 0 0 0 .537-.268c.133-.185.199-.448.199-.788s-.066-.601-.199-.78c-.127-.185-.306-.277-.537-.277s-.416.092-.554.277-.2.445-.2.78.067.594.2.779a.65.65 0 0 0 .554.277zm3.967 3.465c-.283 0-.534-.069-.753-.208a1.39 1.39 0 0 1-.512-.58c-.121-.248-.181-.54-.181-.875s.06-.626.181-.875a1.39 1.39 0 0 1 .512-.58c.219-.139.47-.208.753-.208.295 0 .549.069.762.208.22.138.39.332.511.58s.182.54.182.875-.06.627-.182.875a1.39 1.39 0 0 1-.511.58c-.213.139-.467.208-.762.208zm0-.606c.231 0 .413-.093.546-.277s.199-.445.199-.78-.066-.595-.199-.78-.315-.277-.546-.277c-.225 0-.407.093-.546.277-.132.18-.199.439-.199.78s.067.604.199.788a.66.66 0 0 0 .546.269zm24.983-58.276v-6.064h1.126v5.111h3.17v.953h-4.296zm6.996.06c-.392 0-.739-.072-1.039-.216-.301-.15-.534-.376-.702-.676-.167-.306-.251-.69-.251-1.152v-2.642h1.083v2.495c0 .416.092.728.277.935s.459.304.805.304c.254 0 .474-.052.659-.156a1.05 1.05 0 0 0 .441-.468c.11-.208.165-.465.165-.771v-2.339h1.083v4.626h-1.031v-1.248l.182.382c-.156.3-.384.531-.684.692s-.63.234-.988.234zm6.563-4.738c.37 0 .699.073.987.217a1.57 1.57 0 0 1 .693.667c.168.294.252.675.252 1.143v2.651h-1.083v-2.512c0-.41-.098-.716-.295-.918-.19-.202-.459-.304-.805-.304-.254 0-.48.052-.676.156a1.09 1.09 0 0 0-.459.468c-.104.202-.156.459-.156.771v2.339h-1.083v-4.626h1.031v1.248l-.182-.382c.162-.294.396-.519.702-.675.312-.162.67-.243 1.074-.243zm5.436 4.738c-.485 0-.919-.101-1.3-.303-.375-.208-.669-.491-.883-.849s-.321-.765-.321-1.221c0-.462.107-.869.321-1.221a2.26 2.26 0 0 1 .883-.841c.381-.202.815-.303 1.3-.303.45 0 .846.093 1.186.278a1.78 1.78 0 0 1 .789.796l-.832.485c-.139-.219-.309-.381-.511-.485-.196-.104-.41-.156-.641-.156-.266 0-.505.058-.719.174a1.23 1.23 0 0 0-.502.502c-.122.214-.182.471-.182.771s.06.56.182.78c.121.213.288.378.502.493s.453.174.719.174c.231 0 .445-.052.641-.156.202-.104.372-.266.511-.485l.832.485a1.89 1.89 0 0 1-.789.805c-.34.185-.736.277-1.186.277zm5.493-4.738c.369 0 .698.073.987.217a1.57 1.57 0 0 1 .693.667c.168.294.251.675.251 1.143v2.651h-1.082v-2.512c0-.41-.099-.716-.295-.918-.19-.202-.459-.304-.805-.304a1.42 1.42 0 0 0-.676.156 1.09 1.09 0 0 0-.459.468c-.104.202-.156.459-.156.771v2.339h-1.083v-6.427h1.083v3.049l-.234-.382c.162-.294.396-.519.702-.675.311-.162.67-.243 1.074-.243zm-18.018 14.678v-5.63l.494.511h-1.775v-.945h2.408v6.064h-1.127zm3.343 0l2.503-5.613.294.502h-3.438l.537-.545v1.576h-1.048v-1.984h4.712v.754l-2.356 5.31h-1.204zm5.113 0l4.141-6.064h.849l-4.141 6.064h-.849zm.503-2.798a1.38 1.38 0 0 1-.754-.208c-.219-.139-.39-.332-.511-.58s-.182-.54-.182-.875.061-.627.182-.875a1.39 1.39 0 0 1 .511-.58 1.38 1.38 0 0 1 .754-.208c.294 0 .548.069.762.208.22.138.39.332.511.58s.182.54.182.875-.061.626-.182.875a1.38 1.38 0 0 1-.511.58c-.214.139-.468.208-.762.208zm.009-.606c.23 0 .409-.09.537-.269.132-.185.199-.447.199-.788s-.067-.601-.199-.78-.307-.277-.537-.277a.66.66 0 0 0-.555.277c-.133.185-.199.445-.199.78s.066.595.199.779a.66.66 0 0 0 .555.278zm3.967 3.464c-.283 0-.535-.069-.754-.208a1.39 1.39 0 0 1-.511-.58c-.121-.248-.182-.54-.182-.875s.061-.626.182-.875a1.39 1.39 0 0 1 .511-.58c.219-.139.471-.208.754-.208.294 0 .548.07.762.208s.39.332.511.58.182.54.182.875-.061.627-.182.875a1.39 1.39 0 0 1-.511.58c-.214.139-.468.208-.762.208zm0-.606c.231 0 .413-.092.545-.277s.2-.445.2-.78-.067-.594-.2-.779-.314-.277-.545-.277a.65.65 0 0 0-.546.277c-.133.179-.199.439-.199.779s.066.604.199.789c.139.179.32.268.546.268zm46.124-6.304v-6.064h2.65c.659 0 1.236.127 1.733.381s.883.607 1.161 1.057.415.982.415 1.594c0 .606-.138 1.138-.415 1.594-.278.45-.665.802-1.161 1.057s-1.074.381-1.733.381h-2.65zm1.126-.953h1.473c.456 0 .848-.087 1.178-.26s.591-.416.77-.728c.185-.311.278-.675.278-1.091 0-.422-.093-.785-.278-1.091-.179-.312-.436-.555-.77-.728s-.722-.26-1.178-.26h-1.473v4.158zm5.926.953v-4.626h1.083v4.626h-1.083zm.546-5.388a.7.7 0 0 1-.503-.191c-.127-.127-.19-.28-.19-.459a.61.61 0 0 1 .19-.459.7.7 0 0 1 .503-.19c.202 0 .367.06.494.182a.56.56 0 0 1 .199.441c0 .191-.064.353-.191.485s-.294.191-.502.191zm4.583.71a2.17 2.17 0 0 1 .987.217c.294.144.525.366.693.667.167.294.251.675.251 1.143v2.651h-1.083v-2.512c0-.41-.098-.716-.294-.918s-.459-.304-.806-.304c-.254 0-.479.052-.675.156a1.08 1.08 0 0 0-.459.468c-.104.202-.156.459-.156.771v2.339h-1.083v-4.626h1.031v1.248l-.182-.382a1.62 1.62 0 0 1 .701-.675c.312-.162.67-.243 1.075-.243zm5.929 0c.37 0 .699.072.988.217s.525.366.693.667c.167.294.251.675.251 1.143v2.651h-1.083v-2.512c0-.41-.098-.716-.294-.918s-.46-.304-.806-.304c-.254 0-.479.052-.676.156a1.09 1.09 0 0 0-.459.468c-.104.202-.156.459-.156.771v2.339h-1.082v-4.626h1.03v1.248l-.182-.382c.162-.294.396-.519.702-.675.312-.162.67-.243 1.074-.243zm5.488 4.738c-.514 0-.965-.101-1.351-.303-.382-.208-.679-.491-.893-.849-.207-.358-.311-.765-.311-1.221 0-.462.101-.869.303-1.221.208-.358.491-.638.849-.841s.776-.303 1.238-.303c.451 0 .852.098 1.204.295s.63.473.832.831.303.78.303 1.265a1.53 1.53 0 0 1-.009.156l-.008.164h-3.855v-.719h3.283l-.424.226c.005-.266-.05-.5-.165-.702a1.25 1.25 0 0 0-.476-.476c-.202-.115-.425-.174-.685-.174s-.499.058-.701.174a1.25 1.25 0 0 0-.468.485 1.48 1.48 0 0 0-.165.719v.173c0 .277.064.522.191.736a1.27 1.27 0 0 0 .537.494c.231.115.497.173.797.173.26 0 .494-.04.701-.121a1.5 1.5 0 0 0 .555-.381l.58.667c-.208.242-.47.43-.788.563-.312.127-.67.19-1.074.19zm3.214-.06v-4.626h1.031v1.273l-.122-.372a1.47 1.47 0 0 1 .65-.71c.3-.162.673-.243 1.118-.243v1.031a.52.52 0 0 0-.13-.017c-.041-.006-.081-.009-.122-.009-.41 0-.736.121-.978.364-.243.237-.364.592-.364 1.065v2.244h-1.083zm-21.038 10v-.754l2.408-2.287c.202-.19.352-.358.45-.502s.162-.277.191-.399a1.38 1.38 0 0 0 .052-.355c0-.277-.096-.49-.286-.641s-.471-.233-.84-.233c-.295 0-.563.051-.806.155-.237.104-.442.263-.615.477l-.788-.607c.237-.317.554-.563.953-.736.404-.179.854-.268 1.351-.268.439 0 .82.072 1.143.216.33.139.581.338.754.598.179.26.268.569.268.927a2.3 2.3 0 0 1-.078.589 2.07 2.07 0 0 1-.294.606c-.144.214-.355.453-.632.719l-2.07 1.966-.234-.424h3.542v.953h-4.469zm4.906-1.378v-.779l2.988-3.907h1.204l-2.945 3.907-.563-.173h4.807v.952h-5.491zm3.326 1.378v-1.378l.035-.952v-1.222h1.056v3.552h-1.091zm3.226 0l4.14-6.064h.849l-4.14 6.064h-.849zm.502-2.798c-.283 0-.534-.069-.753-.208s-.39-.332-.511-.58-.182-.54-.182-.875.06-.627.182-.875a1.39 1.39 0 0 1 .511-.58c.22-.138.47-.208.753-.208.295 0 .549.069.762.208a1.39 1.39 0 0 1 .512.58c.121.248.181.54.181.875s-.06.626-.181.875-.292.441-.512.58c-.213.139-.467.208-.762.208zm.009-.606a.62.62 0 0 0 .537-.269c.133-.185.199-.448.199-.788s-.066-.601-.199-.78c-.127-.185-.306-.277-.537-.277s-.416.092-.554.277-.2.445-.2.78.067.595.2.779.323.278.554.278zm3.967 3.464a1.38 1.38 0 0 1-.754-.208c-.219-.138-.389-.332-.511-.58s-.181-.54-.181-.875.06-.626.181-.875a1.4 1.4 0 0 1 .511-.58 1.38 1.38 0 0 1 .754-.208c.295 0 .549.069.762.208.22.139.39.332.511.58s.182.54.182.875-.06.627-.182.875a1.39 1.39 0 0 1-.511.58c-.213.139-.467.208-.762.208zm0-.606c.231 0 .413-.092.546-.277s.199-.445.199-.78-.066-.595-.199-.779a.64.64 0 0 0-.546-.278.65.65 0 0 0-.546.278c-.132.179-.199.438-.199.779s.067.604.199.788a.66.66 0 0 0 .546.269z"/><path d="M323.661 293.515c-.474 0-.927-.066-1.36-.199s-.777-.315-1.031-.528l.39-.875c.242.19.543.349.901.476s.724.191 1.1.191c.317 0 .574-.035.771-.104s.34-.162.433-.277a.66.66 0 0 0 .138-.407c0-.185-.066-.332-.199-.442a1.38 1.38 0 0 0-.52-.269c-.208-.069-.441-.132-.701-.19l-.771-.199c-.254-.081-.488-.182-.702-.304a1.57 1.57 0 0 1-.511-.502c-.133-.208-.199-.473-.199-.797s.087-.629.26-.901c.179-.277.447-.496.805-.658.364-.167.823-.251 1.378-.251.363 0 .724.046 1.082.138s.67.226.936.399l-.355.875c-.272-.162-.552-.28-.841-.355-.288-.081-.565-.122-.831-.122-.312 0-.566.038-.762.113s-.332.173-.425.294c-.086.122-.13.26-.13.416 0 .185.064.335.191.451.133.109.303.196.511.259l.71.191.771.199c.26.075.494.173.702.295.213.121.384.286.511.493.133.208.199.471.199.789a1.62 1.62 0 0 1-.269.9c-.173.272-.441.491-.805.659-.364.161-.823.242-1.377.242zm6.088-4.764c.37 0 .699.073.988.217a1.58 1.58 0 0 1 .693.667c.167.294.251.675.251 1.143v2.651h-1.083v-2.512c0-.41-.098-.716-.294-.918-.191-.202-.46-.304-.806-.304-.254 0-.479.052-.676.156a1.09 1.09 0 0 0-.459.468c-.104.202-.156.459-.156.771v2.339h-1.082v-4.626h1.03v1.248l-.182-.382c.162-.294.396-.519.702-.675.312-.162.67-.243 1.074-.243zm6.155 4.678v-.936l-.061-.199v-1.637c0-.318-.095-.563-.285-.736-.191-.179-.48-.269-.867-.269-.259 0-.516.041-.771.121-.248.081-.459.194-.632.338l-.424-.788a2.5 2.5 0 0 1 .883-.424c.347-.099.705-.148 1.074-.148.67 0 1.187.162 1.551.485s.554.812.554 1.482v2.711h-1.022zm-1.455.06c-.347 0-.65-.057-.91-.173s-.462-.286-.606-.494c-.139-.213-.208-.453-.208-.719a1.37 1.37 0 0 1 .182-.701c.127-.208.332-.373.615-.494s.658-.182 1.126-.182h1.343v.719h-1.265c-.37 0-.618.061-.745.182a.56.56 0 0 0-.19.433.55.55 0 0 0 .233.468c.156.115.373.173.65.173.266 0 .502-.061.71-.182a1.02 1.02 0 0 0 .459-.537l.182.65c-.104.271-.291.482-.563.632-.265.15-.603.225-1.013.225zm5.997 0a2.73 2.73 0 0 1-1.299-.303 2.32 2.32 0 0 1-.884-.849c-.213-.358-.32-.765-.32-1.221 0-.462.107-.869.32-1.221.214-.358.509-.638.884-.841a2.73 2.73 0 0 1 1.299-.303c.451 0 .846.093 1.187.277a1.79 1.79 0 0 1 .788.797l-.831.485c-.139-.219-.309-.381-.511-.485a1.35 1.35 0 0 0-.641-.156 1.48 1.48 0 0 0-.719.174 1.24 1.24 0 0 0-.503.502c-.121.214-.182.471-.182.771s.061.56.182.78c.122.213.289.378.503.493a1.48 1.48 0 0 0 .719.174 1.35 1.35 0 0 0 .641-.156c.202-.104.372-.266.511-.485l.831.485c-.179.346-.442.615-.788.805s-.736.277-1.187.277zm3.752-1.091l.026-1.36 2.417-2.235h1.299l-2.053 2.062-.571.476-1.118 1.057zm-.883 1.031v-6.427h1.083v6.427h-1.083zm3.491 0l-1.69-2.088.685-.866 2.321 2.954h-1.316zm-20.774 10v-.754l2.408-2.287c.202-.19.353-.358.451-.502a1.24 1.24 0 0 0 .19-.398c.035-.127.052-.246.052-.356 0-.277-.095-.49-.286-.641s-.47-.233-.84-.233a2.02 2.02 0 0 0-.805.156 1.61 1.61 0 0 0-.615.476l-.789-.606c.237-.318.555-.563.953-.737.405-.179.855-.268 1.352-.268.438 0 .82.072 1.143.216.329.139.58.338.753.598.179.26.269.569.269.927a2.29 2.29 0 0 1-.078.589c-.052.19-.15.393-.294.606s-.356.453-.633.719l-2.07 1.966-.234-.424h3.543v.953h-4.47zm5.042 0v-.754l2.408-2.287c.202-.19.352-.358.45-.502s.162-.277.191-.398c.034-.127.052-.246.052-.356 0-.277-.096-.49-.286-.641s-.471-.233-.84-.233c-.295 0-.563.052-.806.156a1.61 1.61 0 0 0-.615.476l-.788-.606a2.31 2.31 0 0 1 .953-.737c.404-.179.854-.268 1.351-.268.439 0 .82.072 1.143.216.33.139.581.338.754.598.179.26.268.569.268.927 0 .196-.026.393-.077.589-.052.19-.151.393-.295.606s-.355.453-.632.719l-2.07 1.966-.234-.424h3.542v.953h-4.469zm6.053 0l4.14-6.064h.849l-4.14 6.064h-.849zm.502-2.798a1.38 1.38 0 0 1-.754-.208 1.4 1.4 0 0 1-.511-.58c-.121-.249-.181-.54-.181-.875s.06-.627.181-.875.292-.442.511-.58a1.38 1.38 0 0 1 .754-.208c.295 0 .549.069.762.208.22.138.39.332.511.58s.182.54.182.875-.06.626-.182.875-.291.441-.511.58c-.213.139-.467.208-.762.208zm.009-.606a.62.62 0 0 0 .537-.269c.133-.185.199-.447.199-.788s-.066-.601-.199-.78c-.127-.184-.306-.277-.537-.277a.66.66 0 0 0-.555.277c-.132.185-.199.445-.199.78s.067.595.199.779a.66.66 0 0 0 .555.278zm3.967 3.464a1.38 1.38 0 0 1-.754-.208 1.39 1.39 0 0 1-.511-.58c-.121-.248-.182-.54-.182-.875s.061-.626.182-.875.292-.441.511-.58a1.38 1.38 0 0 1 .754-.208c.294 0 .548.069.762.208.22.139.39.332.511.58s.182.54.182.875-.061.627-.182.875-.291.442-.511.58c-.214.139-.468.208-.762.208zm0-.606c.231 0 .413-.092.546-.277s.199-.445.199-.78-.067-.595-.199-.779-.315-.277-.546-.277a.65.65 0 0 0-.546.277c-.133.179-.199.439-.199.779s.066.604.199.788c.139.18.321.269.546.269z"/></g><g clip-path="url(#G)"><circle cx="122.498" cy="349.549" fill="#fbb03f" r="3.15"/><path d="M133.473 353.548v-9.37h4.043c1.044 0 1.852.21 2.423.629.58.419.87 1.013.87 1.78 0 .509-.12.937-.361 1.285-.232.349-.554.612-.964.79-.402.179-.843.268-1.325.268l.227-.321c.598 0 1.111.093 1.54.281a2.16 2.16 0 0 1 1.017.816c.241.357.361.804.361 1.339 0 .794-.294 1.41-.883 1.847-.58.438-1.459.656-2.637.656h-4.311zm.991-.816h3.306c.821 0 1.451-.139 1.888-.415.437-.286.656-.736.656-1.352 0-.607-.219-1.049-.656-1.326-.437-.285-1.067-.428-1.888-.428h-3.413v-.816h3.092c.75 0 1.33-.143 1.74-.429.42-.285.63-.709.63-1.272 0-.571-.21-.995-.63-1.271-.41-.286-.99-.429-1.74-.429h-2.985v7.738zm8.579.816v-7.028h.911v1.915l-.094-.335c.196-.535.527-.941.991-1.218.464-.286 1.039-.428 1.726-.428v.923h-.107a.43.43 0 0 0-.107-.013c-.74 0-1.321.227-1.74.682-.419.447-.629 1.085-.629 1.915v3.587h-.951zm7.867.067c-.732 0-1.374-.151-1.927-.455-.554-.312-.987-.736-1.299-1.272-.312-.544-.468-1.164-.468-1.86s.147-1.312.441-1.848c.304-.535.714-.955 1.232-1.258.526-.312 1.115-.468 1.767-.468.66 0 1.245.151 1.754.455.517.294.923.714 1.218 1.258.294.535.441 1.156.441 1.861 0 .044-.004.093-.013.147v.147h-6.118v-.709h5.609l-.374.281c0-.509-.112-.96-.335-1.352a2.35 2.35 0 0 0-.884-.937c-.374-.223-.807-.335-1.298-.335-.482 0-.915.112-1.299.335s-.682.535-.896.937-.322.861-.322 1.379v.147c0 .535.116 1.008.348 1.419a2.6 2.6 0 0 0 .991.95c.428.223.915.335 1.459.335a3.07 3.07 0 0 0 1.191-.228 2.46 2.46 0 0 0 .964-.696l.536.616c-.313.375-.705.66-1.178.857-.464.196-.978.294-1.54.294zm8.981-.067v-1.552l-.04-.255v-2.597c0-.598-.17-1.057-.509-1.379-.33-.321-.826-.482-1.486-.482-.455 0-.888.076-1.298.228s-.759.353-1.045.602l-.428-.709c.357-.303.785-.536 1.285-.696a4.87 4.87 0 0 1 1.58-.254c.91 0 1.611.227 2.101.682.5.446.75 1.129.75 2.048v4.364h-.91zm-2.423.067c-.527 0-.986-.085-1.379-.254-.384-.179-.678-.42-.883-.723-.206-.312-.308-.669-.308-1.071a1.94 1.94 0 0 1 .254-.99c.178-.304.464-.545.857-.723.401-.188.937-.281 1.606-.281h2.423v.709h-2.396c-.678 0-1.151.121-1.419.361-.259.241-.388.54-.388.897 0 .402.156.723.468.964s.75.362 1.312.362c.536 0 .995-.121 1.379-.362a2.14 2.14 0 0 0 .857-1.071l.214.656c-.179.464-.491.835-.937 1.111-.438.277-.991.415-1.66.415zm6.343-1.887l.027-1.218 4.377-3.99h1.165l-3.093 2.959-.535.455-1.941 1.794zm-.75 1.82v-9.932h.951v9.932h-.951zm5.449 0l-2.932-3.654.616-.736 3.48 4.39h-1.164zm2.43 0v-7.911c0-.625.183-1.129.549-1.513s.893-.575 1.58-.575c.268 0 .526.035.776.107s.46.183.629.334l-.321.71a1.25 1.25 0 0 0-.468-.254c-.179-.063-.371-.094-.576-.094-.402 0-.709.111-.924.334s-.321.554-.321.991v1.071l.027.442v6.358h-.951zm-1.258-6.238v-.79h4.351v.79h-4.351zm9.586 6.238v-1.552l-.04-.255v-2.597c0-.598-.17-1.057-.509-1.379-.33-.321-.825-.482-1.486-.482-.455 0-.888.076-1.298.228s-.759.353-1.044.602l-.429-.709c.357-.303.786-.536 1.285-.696.5-.17 1.027-.254 1.58-.254.91 0 1.611.227 2.102.682.5.446.749 1.129.749 2.048v4.364h-.91zm-2.423.067c-.526 0-.986-.085-1.379-.254-.383-.179-.678-.42-.883-.723-.205-.312-.308-.669-.308-1.071a1.95 1.95 0 0 1 .254-.99c.179-.304.464-.545.857-.723.402-.188.937-.281 1.606-.281h2.423v.709h-2.396c-.678 0-1.151.121-1.419.361-.259.241-.388.54-.388.897 0 .402.156.723.469.964s.749.362 1.311.362c.536 0 .995-.121 1.379-.362a2.14 2.14 0 0 0 .857-1.071l.214.656a2.22 2.22 0 0 1-.937 1.111c-.437.277-.99.415-1.66.415zm7.481 0c-.58 0-1.129-.08-1.646-.241-.518-.169-.924-.379-1.219-.629l.429-.749c.285.214.651.401 1.097.562a4.36 4.36 0 0 0 1.406.227c.669 0 1.151-.102 1.446-.308.294-.214.442-.495.442-.843 0-.259-.085-.46-.255-.602-.16-.152-.375-.264-.642-.335a7.23 7.23 0 0 0-.897-.201l-.991-.187a3.83 3.83 0 0 1-.883-.308c-.268-.143-.487-.335-.656-.576-.161-.241-.241-.562-.241-.964 0-.383.107-.727.321-1.03s.527-.54.937-.71c.42-.178.928-.267 1.526-.267.455 0 .91.062 1.366.187.455.116.83.272 1.124.468l-.415.763c-.312-.214-.647-.365-1.004-.455a4.03 4.03 0 0 0-1.071-.147c-.633 0-1.102.112-1.405.335-.295.214-.442.491-.442.83 0 .267.08.477.241.629a1.83 1.83 0 0 0 .656.361c.276.081.575.148.897.201l.977.201c.33.071.629.174.897.308a1.53 1.53 0 0 1 .656.549c.169.232.254.54.254.923a1.71 1.71 0 0 1-.348 1.071c-.223.295-.553.527-.991.696-.428.161-.95.241-1.566.241zm6.55 0c-.661 0-1.169-.178-1.526-.535s-.536-.861-.536-1.513v-6.599h.951v6.546c0 .41.102.727.308.95.214.223.517.335.91.335.419 0 .767-.121 1.044-.362l.335.683c-.188.17-.415.294-.683.375a2.7 2.7 0 0 1-.803.12zm-3.32-6.305v-.79h4.351v.79h-4.351z" class="D"/><g clip-path="url(#H)" class="C"><path d="M346.368 351.085v-.696l4.966-6.211h1.071l-4.926 6.211-.522-.161h7.536v.857h-8.125zm5.287 2.463v-2.463l.027-.857v-2.168h.937v5.488h-.964zm4.696 0v-8.969l.428.456h-2.637v-.857h3.172v9.37h-.963zm6.617.081c-.723 0-1.366-.188-1.928-.563-.562-.383-1.004-.928-1.325-1.633-.321-.714-.482-1.57-.482-2.57s.161-1.852.482-2.557c.321-.714.763-1.258 1.325-1.633.562-.384 1.205-.576 1.928-.576s1.365.192 1.928.576c.562.375 1.004.919 1.325 1.633.33.705.495 1.558.495 2.557s-.165 1.856-.495 2.57c-.321.705-.763 1.25-1.325 1.633-.563.375-1.205.563-1.928.563zm0-.884c.553 0 1.035-.147 1.446-.442.41-.303.731-.74.963-1.311.232-.581.348-1.29.348-2.129s-.116-1.544-.348-2.115c-.232-.58-.553-1.017-.963-1.312a2.37 2.37 0 0 0-1.446-.455 2.38 2.38 0 0 0-1.432.455c-.42.295-.746.732-.978 1.312-.232.571-.348 1.276-.348 2.115s.116 1.548.348 2.129c.232.571.558 1.008.978 1.311.419.295.896.442 1.432.442zm11.537.87c-.696 0-1.321-.151-1.874-.455-.545-.312-.973-.736-1.285-1.272-.313-.544-.469-1.164-.469-1.86 0-.705.156-1.326.469-1.861a3.34 3.34 0 0 1 1.285-1.258c.553-.304 1.178-.455 1.874-.455a3.68 3.68 0 0 1 1.619.348 2.62 2.62 0 0 1 1.138 1.044l-.709.482c-.241-.357-.54-.621-.897-.79s-.745-.255-1.165-.255c-.499 0-.95.116-1.352.349a2.43 2.43 0 0 0-.95.95c-.232.41-.348.892-.348 1.446s.116 1.035.348 1.445.549.732.95.964a2.74 2.74 0 0 0 1.352.335c.42 0 .808-.085 1.165-.254a2.27 2.27 0 0 0 .897-.777l.709.482c-.276.455-.656.803-1.138 1.044a3.68 3.68 0 0 1-1.619.348zm8.707-.067v-1.552l-.04-.255v-2.597c0-.598-.169-1.057-.509-1.379-.33-.321-.825-.482-1.485-.482a3.71 3.71 0 0 0-1.299.228 3.34 3.34 0 0 0-1.044.602l-.428-.709c.357-.303.785-.536 1.285-.696.499-.17 1.026-.254 1.579-.254.911 0 1.611.227 2.102.682.5.446.75 1.129.75 2.048v4.364h-.911zm-2.423.067c-.526 0-.986-.085-1.378-.254-.384-.179-.679-.42-.884-.723-.205-.312-.308-.669-.308-1.071a1.95 1.95 0 0 1 .254-.99c.179-.304.465-.545.857-.723.402-.188.937-.281 1.607-.281h2.423v.709h-2.397c-.678 0-1.151.121-1.419.361a1.18 1.18 0 0 0-.388.897c0 .402.156.723.469.964s.749.362 1.312.362c.535 0 .995-.121 1.378-.362.393-.25.679-.607.857-1.071l.214.656a2.22 2.22 0 0 1-.937 1.111c-.437.277-.99.415-1.66.415zm5.594-.067v-9.932h.95v9.932h-.95z"/></g></g><path d="M119.348 364.454h269.304" class="E F"/><g clip-path="url(#I)"><circle cx="122.498" cy="380.148" fill="#14a38b" r="3.15"/><path d="M133.473 384.147v-9.37h.991v8.514h5.247v.856h-6.238zm10.161.067c-.598 0-1.12-.111-1.566-.334s-.794-.558-1.044-1.004c-.241-.446-.361-1.004-.361-1.674v-4.082h.95v3.975c0 .75.183 1.317.549 1.7.375.375.897.563 1.566.563.491 0 .915-.099 1.272-.295.366-.205.642-.5.83-.883.196-.384.294-.844.294-1.379v-3.681h.951v7.027h-.911v-1.927l.148.348c-.223.517-.571.924-1.044 1.218-.465.286-1.009.428-1.634.428zm9.356-7.161c.571 0 1.071.111 1.499.334.437.214.777.545 1.018.991.249.446.374 1.008.374 1.687v4.082h-.95v-3.989c0-.74-.188-1.298-.562-1.673-.366-.384-.884-.576-1.553-.576-.5 0-.937.103-1.312.308-.366.197-.652.487-.857.87-.196.375-.294.83-.294 1.366v3.694h-.951v-7.027h.911v1.927l-.148-.361a2.52 2.52 0 0 1 1.071-1.192c.491-.294 1.076-.441 1.754-.441zm8.056 7.161c-.697 0-1.321-.151-1.875-.455a3.45 3.45 0 0 1-1.285-1.271c-.312-.545-.468-1.165-.468-1.861 0-.705.156-1.325.468-1.861s.741-.955 1.285-1.258c.554-.304 1.178-.455 1.875-.455.598 0 1.137.116 1.619.348a2.62 2.62 0 0 1 1.138 1.044l-.709.482c-.241-.357-.54-.621-.897-.79s-.745-.254-1.165-.254c-.5 0-.95.116-1.352.348-.401.223-.718.54-.95.95s-.348.893-.348 1.446.116 1.035.348 1.446a2.53 2.53 0 0 0 .95.963c.402.223.852.335 1.352.335.42 0 .808-.085 1.165-.254a2.27 2.27 0 0 0 .897-.777l.709.482c-.276.455-.656.803-1.138 1.044-.482.232-1.021.348-1.619.348zm7.786-7.161c.571 0 1.071.111 1.499.334.438.214.777.545 1.018.991.25.446.374 1.008.374 1.687v4.082h-.95v-3.989c0-.74-.187-1.298-.562-1.673-.366-.384-.884-.576-1.553-.576-.5 0-.937.103-1.312.308-.366.197-.651.487-.857.87-.196.375-.294.83-.294 1.366v3.694h-.951v-9.932h.951v4.832l-.188-.361a2.53 2.53 0 0 1 1.071-1.192c.491-.294 1.076-.441 1.754-.441z" class="D"/><g clip-path="url(#J)" class="C"><path d="M345.217 384.147v-.682l3.895-3.815c.357-.348.625-.652.804-.911.178-.267.299-.517.361-.749s.094-.451.094-.656c0-.545-.188-.973-.562-1.285-.366-.313-.911-.469-1.634-.469-.553 0-1.044.085-1.472.254-.42.17-.781.433-1.084.79l-.683-.589c.366-.428.834-.758 1.405-.99s1.21-.348 1.915-.348c.633 0 1.182.102 1.646.307.464.197.821.487 1.071.871.259.383.388.834.388 1.352a3.09 3.09 0 0 1-.133.897c-.081.294-.233.606-.456.937-.214.321-.531.687-.95 1.097l-3.574 3.508-.268-.375h5.81v.856h-6.573zm10.419.081c-.669 0-1.307-.107-1.914-.321-.607-.224-1.089-.518-1.446-.884l.469-.763c.295.312.696.571 1.205.776a4.48 4.48 0 0 0 1.673.308c.794 0 1.397-.174 1.807-.522.42-.357.629-.821.629-1.392 0-.402-.098-.745-.294-1.031-.187-.294-.509-.522-.964-.682s-1.08-.241-1.874-.241h-1.995l.482-4.699h5.127v.857h-4.738l.495-.469-.415 3.936-.495-.482h1.753c.946 0 1.705.116 2.276.348s.982.558 1.231.977c.259.411.389.893.389 1.446 0 .526-.125 1.008-.375 1.446-.25.428-.625.767-1.125 1.017s-1.133.375-1.901.375zm8.145 0c-.83 0-1.531-.183-2.102-.549-.571-.375-1.004-.91-1.298-1.606-.295-.705-.442-1.549-.442-2.53 0-1.062.178-1.95.535-2.664.366-.723.871-1.268 1.513-1.634s1.388-.548 2.236-.548a5.88 5.88 0 0 1 1.204.12 3.23 3.23 0 0 1 1.018.388l-.388.777c-.241-.161-.518-.272-.83-.335-.313-.071-.643-.107-.991-.107-1.008 0-1.816.321-2.423.964-.598.642-.897 1.602-.897 2.878l.027.736c.027.286.08.571.161.857l-.335-.254a2.51 2.51 0 0 1 .576-1.178 2.69 2.69 0 0 1 1.07-.75 3.78 3.78 0 0 1 1.406-.254c.625 0 1.174.116 1.647.348a2.69 2.69 0 0 1 1.111.977c.267.419.401.915.401 1.486 0 .58-.138 1.088-.415 1.526-.276.428-.66.763-1.151 1.004-.482.232-1.026.348-1.633.348zm-.04-.817c.446 0 .839-.08 1.178-.241.348-.169.62-.406.816-.709.197-.313.295-.674.295-1.085 0-.615-.214-1.106-.643-1.472-.419-.366-.99-.549-1.713-.549-.482 0-.902.089-1.259.268s-.638.424-.843.736c-.205.304-.308.652-.308 1.044 0 .339.094.665.281.977.188.304.464.554.83.75.375.187.83.281 1.366.281zm10.764.803c-.696 0-1.321-.151-1.874-.455-.545-.312-.973-.736-1.285-1.271-.313-.545-.469-1.165-.469-1.861 0-.705.156-1.325.469-1.861a3.34 3.34 0 0 1 1.285-1.258c.553-.304 1.178-.455 1.874-.455a3.68 3.68 0 0 1 1.619.348 2.62 2.62 0 0 1 1.138 1.044l-.709.482c-.241-.357-.54-.621-.897-.79s-.745-.254-1.165-.254c-.499 0-.95.116-1.352.348-.401.223-.718.54-.95.95s-.348.893-.348 1.446.116 1.035.348 1.446a2.53 2.53 0 0 0 .95.963 2.74 2.74 0 0 0 1.352.335c.42 0 .808-.085 1.165-.254a2.27 2.27 0 0 0 .897-.777l.709.482c-.276.455-.656.803-1.138 1.044a3.68 3.68 0 0 1-1.619.348zm8.707-.067v-1.552l-.04-.255v-2.597c0-.598-.169-1.057-.509-1.378-.33-.322-.825-.482-1.485-.482a3.71 3.71 0 0 0-1.299.227 3.31 3.31 0 0 0-1.044.603l-.428-.71c.357-.303.785-.535 1.285-.696.499-.17 1.026-.254 1.579-.254.911 0 1.611.227 2.102.682.5.447.75 1.129.75 2.048v4.364h-.911zm-2.423.067c-.526 0-.986-.084-1.378-.254-.384-.178-.679-.419-.884-.723-.205-.312-.308-.669-.308-1.071a1.95 1.95 0 0 1 .254-.99c.179-.304.465-.545.857-.723.402-.188.937-.281 1.607-.281h2.423v.709h-2.397c-.678 0-1.151.121-1.419.362-.258.241-.388.54-.388.896 0 .402.156.723.469.964s.749.362 1.312.362c.535 0 .995-.121 1.378-.362.393-.25.679-.607.857-1.071l.214.656a2.22 2.22 0 0 1-.937 1.111c-.437.277-.99.415-1.66.415zm5.594-.067v-9.932h.95v9.932h-.95z"/></g></g><path d="M119.348 395.054h269.304" class="E F"/><g clip-path="url(#K)"><circle cx="122.498" cy="410.747" fill="#8308ae" r="3.15"/><path d="M133.473 414.747v-9.371h3.815c1 0 1.875.201 2.624.602.759.393 1.348.942 1.767 1.647s.629 1.517.629 2.436-.209 1.732-.629 2.437-1.008 1.258-1.767 1.66c-.749.392-1.624.589-2.624.589h-3.815zm.991-.857h2.771c.83 0 1.548-.161 2.155-.482.616-.33 1.093-.781 1.432-1.352.34-.58.509-1.245.509-1.995 0-.758-.169-1.423-.509-1.994s-.816-1.018-1.432-1.339c-.607-.33-1.325-.495-2.155-.495h-2.771v7.657zm9.547.857v-7.028h.95v7.028h-.95zm.482-8.581c-.197 0-.362-.067-.496-.201a.66.66 0 0 1-.2-.482c0-.187.067-.343.2-.468.134-.134.299-.201.496-.201s.361.062.495.187.201.281.201.469c0 .196-.067.361-.201.495-.125.134-.29.201-.495.201zm6.379 1.486c.571 0 1.071.111 1.499.334.438.215.777.545 1.018.991.25.446.375 1.008.375 1.687v4.083h-.951v-3.99c0-.74-.187-1.298-.562-1.673-.366-.384-.884-.576-1.553-.576-.5 0-.937.103-1.312.308-.366.197-.651.487-.857.87-.196.375-.294.83-.294 1.366v3.695h-.95v-7.028h.91v1.927l-.147-.361c.223-.509.58-.906 1.07-1.191.491-.295 1.076-.442 1.754-.442zm8.725 0c.571 0 1.071.111 1.499.334.438.215.777.545 1.018.991.25.446.375 1.008.375 1.687v4.083h-.951v-3.99c0-.74-.187-1.298-.562-1.673-.366-.384-.884-.576-1.553-.576-.5 0-.937.103-1.312.308-.366.197-.651.487-.857.87-.196.375-.294.83-.294 1.366v3.695h-.95v-7.028h.91v1.927l-.147-.361c.223-.509.58-.906 1.07-1.191.491-.295 1.076-.442 1.754-.442zm8.123 7.162c-.732 0-1.375-.152-1.928-.456-.553-.312-.986-.736-1.298-1.271-.313-.545-.469-1.165-.469-1.861s.147-1.312.442-1.847c.303-.536.714-.955 1.231-1.259.527-.312 1.116-.468 1.767-.468.661 0 1.245.151 1.754.455.518.294.924.714 1.218 1.258.295.536.442 1.156.442 1.861a.88.88 0 0 1-.013.147v.147h-6.118v-.709h5.609l-.375.281c0-.509-.111-.959-.335-1.352-.214-.402-.508-.714-.883-.937s-.808-.335-1.299-.335c-.481 0-.914.112-1.298.335a2.32 2.32 0 0 0-.897.937c-.214.402-.321.861-.321 1.379v.147c0 .536.116 1.009.348 1.419.241.402.571.718.99.951.429.223.915.334 1.46.334.428 0 .825-.076 1.191-.227.375-.152.696-.384.964-.696l.535.615c-.312.375-.705.661-1.178.857-.464.196-.977.295-1.539.295zm4.772-.067v-7.028h.911v1.914l-.094-.335c.196-.535.526-.941.99-1.218.465-.285 1.04-.428 1.727-.428v.923h-.107a.43.43 0 0 0-.107-.013c-.741 0-1.321.228-1.74.683-.42.446-.629 1.084-.629 1.914v3.588h-.951z" class="D"/><g clip-path="url(#L)" class="C"><path d="M346.96 414.827c-.678 0-1.321-.107-1.928-.321-.598-.223-1.08-.518-1.445-.884l.468-.763c.304.312.71.571 1.218.777.518.205 1.08.307 1.687.307.776 0 1.37-.169 1.78-.508.42-.339.63-.795.63-1.366s-.206-1.026-.616-1.365c-.402-.339-1.04-.509-1.915-.509h-.669v-.709l2.892-3.628.133.375h-5.22v-.857h6.024v.683l-2.892 3.627-.468-.307H347c1.125 0 1.963.249 2.517.749.562.5.843 1.143.843 1.928a2.72 2.72 0 0 1-.375 1.419c-.25.419-.629.75-1.138.99-.499.241-1.128.362-1.887.362zm7.355-9.531c.83 0 1.531.187 2.102.562.571.366 1.004.897 1.298 1.593s.442 1.539.442 2.53c0 1.053-.183 1.941-.549 2.664-.357.723-.856 1.267-1.499 1.633s-1.388.549-2.236.549a5.81 5.81 0 0 1-1.204-.121 3.38 3.38 0 0 1-1.018-.388l.388-.776c.241.16.518.276.83.348.322.062.652.094.991.094 1.008 0 1.812-.322 2.41-.964.606-.643.91-1.602.91-2.878 0-.206-.013-.451-.04-.737-.018-.285-.067-.571-.148-.856l.335.254c-.089.464-.281.861-.575 1.191-.286.322-.643.567-1.071.737-.42.169-.888.254-1.406.254-.616 0-1.165-.116-1.647-.348-.472-.232-.843-.558-1.111-.977s-.401-.915-.401-1.486c0-.589.138-1.098.415-1.526s.656-.759 1.138-.991a3.68 3.68 0 0 1 1.646-.361zm.04.816c-.446 0-.843.085-1.191.255-.339.16-.607.392-.803.696s-.295.665-.295 1.084c0 .616.21 1.107.629 1.473.429.365 1.004.548 1.727.548.482 0 .902-.089 1.259-.267.366-.179.647-.424.843-.737a1.86 1.86 0 0 0 .308-1.044 1.83 1.83 0 0 0-.281-.977c-.188-.303-.464-.549-.83-.736-.366-.197-.821-.295-1.366-.295zm8.613 8.715c-.723 0-1.366-.188-1.928-.562-.562-.384-1.004-.928-1.325-1.633-.321-.714-.482-1.571-.482-2.571s.161-1.851.482-2.557c.321-.713.763-1.258 1.325-1.633.562-.383 1.205-.575 1.928-.575s1.365.192 1.928.575c.562.375 1.004.92 1.325 1.633.33.706.495 1.558.495 2.557s-.165 1.857-.495 2.571c-.321.705-.763 1.249-1.325 1.633-.563.374-1.205.562-1.928.562zm0-.884a2.42 2.42 0 0 0 1.446-.441c.41-.304.731-.741.963-1.312.232-.58.348-1.29.348-2.129s-.116-1.544-.348-2.115c-.232-.58-.553-1.017-.963-1.312a2.37 2.37 0 0 0-1.446-.455 2.38 2.38 0 0 0-1.432.455c-.42.295-.746.732-.978 1.312-.232.571-.348 1.276-.348 2.115s.116 1.549.348 2.129c.232.571.558 1.008.978 1.312a2.43 2.43 0 0 0 1.432.441zm11.537.871c-.696 0-1.321-.152-1.874-.456-.545-.312-.973-.736-1.285-1.271-.313-.545-.469-1.165-.469-1.861 0-.705.156-1.325.469-1.861a3.34 3.34 0 0 1 1.285-1.258c.553-.304 1.178-.455 1.874-.455a3.68 3.68 0 0 1 1.619.348 2.62 2.62 0 0 1 1.138 1.044l-.709.482c-.241-.357-.54-.62-.897-.79s-.745-.254-1.165-.254c-.499 0-.95.116-1.352.348-.401.223-.718.54-.95.95s-.348.893-.348 1.446.116 1.035.348 1.446a2.54 2.54 0 0 0 .95.964 2.74 2.74 0 0 0 1.352.334c.42 0 .808-.085 1.165-.254a2.27 2.27 0 0 0 .897-.777l.709.482c-.276.455-.656.804-1.138 1.044a3.68 3.68 0 0 1-1.619.349zm8.707-.067v-1.553l-.04-.255v-2.597c0-.597-.169-1.057-.509-1.378-.33-.322-.825-.482-1.485-.482-.456 0-.888.076-1.299.227a3.31 3.31 0 0 0-1.044.603l-.428-.71c.357-.303.785-.535 1.285-.696.499-.169 1.026-.254 1.579-.254.911 0 1.611.227 2.102.682.5.447.75 1.129.75 2.049v4.364h-.911zm-2.423.067c-.526 0-.986-.085-1.378-.255-.384-.178-.679-.419-.884-.723-.205-.312-.308-.669-.308-1.071a1.95 1.95 0 0 1 .254-.99c.179-.304.465-.545.857-.723.402-.187.937-.281 1.607-.281h2.423v.709h-2.397c-.678 0-1.151.121-1.419.362a1.18 1.18 0 0 0-.388.897c0 .401.156.722.469.963s.749.362 1.312.362c.535 0 .995-.121 1.378-.362.393-.249.679-.606.857-1.07l.214.655c-.178.465-.491.835-.937 1.112-.437.276-.99.415-1.66.415zm5.594-.067v-9.933h.95v9.933h-.95z"/></g></g><path d="M119.348 425.652h269.304" class="E F"/><g clip-path="url(#M)"><circle cx="122.498" cy="441.346" fill="#0880ae" r="3.15"/><path d="M136.057 445.426a6.08 6.08 0 0 1-2.008-.335c-.634-.232-1.125-.527-1.473-.884l.389-.763c.33.322.772.594 1.325.817.562.214 1.151.321 1.767.321.589 0 1.066-.071 1.432-.214.375-.152.647-.353.817-.602a1.4 1.4 0 0 0 .268-.83c0-.366-.108-.661-.322-.884-.205-.223-.477-.397-.816-.522-.339-.134-.714-.25-1.125-.348l-1.231-.308a5.62 5.62 0 0 1-1.138-.455 2.45 2.45 0 0 1-.83-.736c-.205-.313-.308-.719-.308-1.218 0-.464.12-.888.361-1.272.25-.393.63-.705 1.138-.937.509-.241 1.16-.362 1.955-.362.526 0 1.048.076 1.566.228.518.143.964.344 1.339.602l-.335.79a4.41 4.41 0 0 0-1.285-.589c-.446-.125-.879-.187-1.299-.187-.562 0-1.026.076-1.392.227s-.638.357-.816.616a1.49 1.49 0 0 0-.255.857c0 .366.103.66.308.883.214.223.491.397.83.522.348.125.727.237 1.138.335l1.218.321c.411.116.785.268 1.125.455.348.179.624.42.83.723.214.304.321.701.321 1.192a2.32 2.32 0 0 1-.375 1.271c-.25.384-.634.697-1.151.937-.509.233-1.165.349-1.968.349zm8.718-7.176c.571 0 1.071.112 1.499.335a2.27 2.27 0 0 1 1.017.991c.25.446.375 1.008.375 1.686v4.083h-.95v-3.989c0-.741-.188-1.298-.563-1.673-.365-.384-.883-.576-1.552-.576-.5 0-.937.103-1.312.308a2.06 2.06 0 0 0-.857.87c-.196.375-.294.83-.294 1.366v3.694h-.951v-7.028h.91v1.928l-.147-.361a2.52 2.52 0 0 1 1.071-1.192c.491-.294 1.075-.442 1.754-.442zm9.541 7.095v-1.553l-.04-.254v-2.597c0-.598-.169-1.057-.509-1.379-.33-.321-.825-.482-1.485-.482a3.71 3.71 0 0 0-1.299.228c-.41.152-.759.352-1.044.602l-.428-.709a3.68 3.68 0 0 1 1.285-.696c.499-.17 1.026-.255 1.579-.255.911 0 1.611.228 2.102.683.5.446.75 1.129.75 2.048v4.364h-.911zm-2.423.067c-.526 0-.986-.085-1.378-.254-.384-.179-.679-.42-.884-.723-.205-.312-.308-.669-.308-1.071 0-.366.085-.696.254-.991.179-.303.465-.544.857-.722.402-.188.937-.282 1.607-.282h2.423v.71h-2.397c-.678 0-1.151.12-1.419.361a1.18 1.18 0 0 0-.388.897c0 .402.156.723.469.964s.749.362 1.312.362c.535 0 .995-.121 1.378-.362.393-.25.679-.607.857-1.071l.214.656a2.22 2.22 0 0 1-.937 1.111c-.437.277-.99.415-1.66.415zm8.512 0c-.696 0-1.321-.152-1.874-.455a3.44 3.44 0 0 1-1.285-1.272c-.313-.544-.469-1.164-.469-1.86 0-.705.156-1.326.469-1.861a3.34 3.34 0 0 1 1.285-1.258c.553-.304 1.178-.456 1.874-.456.598 0 1.138.116 1.62.348a2.63 2.63 0 0 1 1.138 1.045l-.71.481c-.241-.356-.54-.62-.897-.789s-.745-.255-1.164-.255a2.65 2.65 0 0 0-1.352.348c-.402.224-.719.54-.951.951s-.348.892-.348 1.446.116 1.035.348 1.445.549.732.951.964c.401.223.852.335 1.352.335.419 0 .807-.085 1.164-.255s.656-.428.897-.776l.71.482a2.74 2.74 0 0 1-1.138 1.044c-.482.232-1.022.348-1.62.348zm4.949-1.887l.026-1.219 4.378-3.989h1.164l-3.092 2.959-.535.455-1.941 1.794zm-.75 1.82v-9.933h.95v9.933h-.95zm5.448 0l-2.931-3.654.615-.737 3.481 4.391h-1.165zm3.949.067c-.58 0-1.129-.08-1.647-.241-.517-.169-.924-.379-1.218-.629l.428-.75c.286.215.652.402 1.098.563.446.151.915.227 1.406.227.669 0 1.151-.102 1.445-.308.295-.214.442-.495.442-.843 0-.259-.085-.46-.254-.602-.161-.152-.375-.264-.643-.335a7.23 7.23 0 0 0-.897-.201l-.99-.187a3.84 3.84 0 0 1-.884-.308c-.268-.143-.486-.335-.656-.576-.16-.241-.241-.562-.241-.964 0-.383.107-.727.322-1.03s.526-.54.937-.71c.419-.178.928-.268 1.526-.268.455 0 .91.063 1.365.188.455.116.83.272 1.125.468l-.415.763c-.313-.214-.647-.366-1.004-.455a4.03 4.03 0 0 0-1.071-.147c-.634 0-1.102.112-1.406.335-.294.214-.442.49-.442.83 0 .267.081.477.241.629.17.151.389.272.656.361a7.83 7.83 0 0 0 .897.201l.977.201c.331.071.63.174.897.308.277.125.496.308.656.549.17.232.255.539.255.923 0 .411-.116.768-.349 1.071-.223.295-.553.527-.99.696-.428.161-.951.241-1.566.241z" class="D"/><g clip-path="url(#N)" class="C"><path d="M346.368 442.882v-.696l4.966-6.211h1.071l-4.926 6.211-.522-.161h7.536v.857h-8.125zm5.287 2.463v-2.463l.027-.857v-2.168h.937v5.488h-.964zm4.696 0v-8.969l.428.455h-2.637v-.856h3.172v9.37h-.963zm6.617.081c-.723 0-1.366-.188-1.928-.563-.562-.383-1.004-.928-1.325-1.633-.321-.714-.482-1.571-.482-2.57s.161-1.852.482-2.557c.321-.714.763-1.258 1.325-1.633.562-.384 1.205-.576 1.928-.576s1.365.192 1.928.576c.562.375 1.004.919 1.325 1.633.33.705.495 1.557.495 2.557s-.165 1.856-.495 2.57c-.321.705-.763 1.25-1.325 1.633-.563.375-1.205.563-1.928.563zm0-.884c.553 0 1.035-.147 1.446-.442.41-.303.731-.74.963-1.312.232-.58.348-1.289.348-2.128s-.116-1.544-.348-2.115c-.232-.58-.553-1.017-.963-1.312a2.37 2.37 0 0 0-1.446-.455 2.38 2.38 0 0 0-1.432.455c-.42.295-.746.732-.978 1.312-.232.571-.348 1.276-.348 2.115s.116 1.548.348 2.128c.232.572.558 1.009.978 1.312.419.295.896.442 1.432.442zm11.537.87c-.696 0-1.321-.152-1.874-.455-.545-.312-.973-.736-1.285-1.272-.313-.544-.469-1.164-.469-1.86 0-.705.156-1.326.469-1.861s.74-.955 1.285-1.258c.553-.304 1.178-.456 1.874-.456a3.68 3.68 0 0 1 1.619.348c.482.232.862.581 1.138 1.045l-.709.481c-.241-.356-.54-.62-.897-.789s-.745-.255-1.165-.255c-.499 0-.95.116-1.352.348a2.44 2.44 0 0 0-.95.951c-.232.41-.348.892-.348 1.446s.116 1.035.348 1.445.549.732.95.964a2.74 2.74 0 0 0 1.352.335c.42 0 .808-.085 1.165-.255s.656-.428.897-.776l.709.482c-.276.455-.656.803-1.138 1.044a3.68 3.68 0 0 1-1.619.348zm8.707-.067v-1.553l-.04-.254v-2.597c0-.598-.169-1.057-.509-1.379-.33-.321-.825-.482-1.485-.482a3.71 3.71 0 0 0-1.299.228 3.32 3.32 0 0 0-1.044.602l-.428-.709a3.69 3.69 0 0 1 1.285-.696c.499-.17 1.026-.255 1.579-.255.911 0 1.611.228 2.102.683.5.446.75 1.129.75 2.048v4.364h-.911zm-2.423.067c-.526 0-.986-.085-1.378-.254-.384-.179-.679-.42-.884-.723-.205-.312-.308-.669-.308-1.071 0-.366.085-.696.254-.991.179-.303.465-.544.857-.722.402-.188.937-.282 1.607-.282h2.423v.71h-2.397c-.678 0-1.151.12-1.419.361a1.18 1.18 0 0 0-.388.897c0 .402.156.723.469.964s.749.362 1.312.362c.535 0 .995-.121 1.378-.362.393-.25.679-.607.857-1.071l.214.656a2.22 2.22 0 0 1-.937 1.111c-.437.277-.99.415-1.66.415zm5.594-.067v-9.933h.95v9.933h-.95z"/></g></g><path d="M106.749 462.551h294.502" class="E F"/><g clip-path="url(#O)"><path d="M121.268 488.544v-9.371h3.815c.999 0 1.874.201 2.624.603.758.392 1.347.941 1.767 1.646s.629 1.517.629 2.437-.21 1.731-.629 2.436-1.009 1.258-1.767 1.66c-.75.393-1.625.589-2.624.589h-3.815zm.99-.857h2.771c.83 0 1.549-.16 2.156-.482.615-.33 1.093-.781 1.432-1.352.339-.58.509-1.245.509-1.994 0-.759-.17-1.424-.509-1.995s-.817-1.017-1.432-1.339c-.607-.33-1.326-.495-2.156-.495h-2.771v7.657zm13.951.857v-1.553l-.04-.254v-2.597c0-.598-.169-1.058-.508-1.379-.331-.321-.826-.482-1.486-.482a3.71 3.71 0 0 0-1.299.228 3.3 3.3 0 0 0-1.044.602l-.428-.709c.357-.304.785-.536 1.285-.697.499-.169 1.026-.254 1.579-.254.911 0 1.611.228 2.102.683.5.446.75 1.129.75 2.048v4.364h-.911zm-2.423.067c-.526 0-.986-.085-1.378-.254-.384-.179-.679-.42-.884-.723a1.91 1.91 0 0 1-.308-1.071c0-.366.085-.696.255-.991.178-.303.464-.544.856-.723.402-.187.937-.281 1.607-.281h2.423v.71h-2.397c-.678 0-1.151.12-1.419.361a1.18 1.18 0 0 0-.388.897c0 .402.156.723.469.964s.749.361 1.312.361c.535 0 .995-.12 1.378-.361.393-.25.679-.607.857-1.071l.214.656c-.178.464-.49.834-.937 1.111-.437.277-.99.415-1.66.415zm5.594-.067v-7.028h.95v7.028h-.95zm.482-8.581c-.197 0-.362-.067-.496-.201s-.2-.294-.2-.481.067-.344.2-.469c.134-.134.299-.201.496-.201a.7.7 0 0 1 .495.188c.134.125.201.281.201.468a.67.67 0 0 1-.201.495c-.125.134-.29.201-.495.201zm2.792 8.581v-9.933h.95v9.933h-.95zm3.327 2.664c-.33 0-.647-.054-.951-.161a2.07 2.07 0 0 1-.763-.482l.442-.709a2 2 0 0 0 .576.388 1.68 1.68 0 0 0 .709.147c.313 0 .58-.089.803-.267.232-.17.451-.473.656-.911l.456-1.03.107-.148 2.891-6.519h.937l-3.521 7.871c-.196.455-.414.817-.655 1.085-.232.267-.487.455-.763.562a2.37 2.37 0 0 1-.924.174zm1.874-2.463l-3.24-7.229h.991l2.865 6.452-.616.777zm12.459-.121c-.705 0-1.357-.116-1.955-.348-.597-.241-1.115-.575-1.552-1.004s-.781-.932-1.031-1.512a4.91 4.91 0 0 1-.362-1.901c0-.687.121-1.321.362-1.901.25-.58.593-1.085 1.031-1.513a4.68 4.68 0 0 1 1.566-.99c.598-.241 1.249-.362 1.954-.362.679 0 1.317.116 1.915.348.597.223 1.102.562 1.512 1.018l-.629.629c-.384-.393-.808-.674-1.272-.844-.464-.178-.963-.267-1.499-.267-.562 0-1.084.098-1.566.294-.482.188-.902.46-1.258.817-.357.348-.639.758-.844 1.231-.196.464-.294.977-.294 1.54s.098 1.08.294 1.553a4.03 4.03 0 0 0 .844 1.231c.356.348.776.62 1.258.817.482.187 1.004.281 1.566.281.536 0 1.035-.089 1.499-.268s.888-.464 1.272-.857l.629.629c-.41.456-.915.799-1.512 1.031s-1.241.348-1.928.348zm9.329-.08v-1.553l-.04-.254v-2.597c0-.598-.169-1.058-.508-1.379-.331-.321-.826-.482-1.486-.482-.455 0-.888.076-1.299.228a3.3 3.3 0 0 0-1.044.602l-.428-.709c.357-.304.785-.536 1.285-.697.5-.169 1.026-.254 1.579-.254.911 0 1.611.228 2.102.683.5.446.75 1.129.75 2.048v4.364h-.911zm-2.423.067c-.526 0-.986-.085-1.378-.254-.384-.179-.679-.42-.884-.723a1.91 1.91 0 0 1-.308-1.071c0-.366.085-.696.255-.991.178-.303.464-.544.856-.723.402-.187.937-.281 1.607-.281h2.423v.71h-2.396c-.679 0-1.152.12-1.419.361-.259.241-.389.54-.389.897 0 .402.157.723.469.964s.75.361 1.312.361c.535 0 .995-.12 1.379-.361.392-.25.678-.607.856-1.071l.214.656c-.178.464-.49.834-.937 1.111-.437.277-.99.415-1.66.415zm5.594-.067v-9.933h.95v9.933h-.95zm6.138.067c-.678 0-1.289-.152-1.834-.455-.535-.313-.959-.737-1.271-1.272-.313-.544-.469-1.165-.469-1.861 0-.705.156-1.325.469-1.86s.736-.955 1.271-1.259 1.147-.455 1.834-.455c.696 0 1.312.152 1.848.455.544.304.968.723 1.271 1.259.313.535.469 1.155.469 1.86 0 .696-.156 1.317-.469 1.861-.303.535-.727.959-1.271 1.272-.545.303-1.16.455-1.848.455zm0-.843c.509 0 .96-.112 1.352-.335.393-.232.701-.553.924-.964.232-.419.348-.901.348-1.446 0-.553-.116-1.035-.348-1.445-.223-.411-.531-.728-.924-.951-.392-.232-.838-.348-1.338-.348s-.946.116-1.339.348c-.393.223-.705.54-.937.951s-.348.892-.348 1.445c0 .545.116 1.027.348 1.446.232.411.544.732.937.964.393.223.835.335 1.325.335zm5.207.776v-7.028h.91v1.914l-.093-.334c.196-.536.526-.942.99-1.219.464-.285 1.04-.428 1.727-.428v.924h-.107c-.036-.009-.071-.014-.107-.014-.741 0-1.321.228-1.74.683-.42.446-.629 1.084-.629 1.914v3.588h-.951zm4.947 0v-7.028h.951v7.028h-.951zm.482-8.581c-.196 0-.361-.067-.495-.201s-.201-.294-.201-.481.067-.344.201-.469c.134-.134.299-.201.495-.201a.7.7 0 0 1 .495.188c.134.125.201.281.201.468a.67.67 0 0 1-.201.495c-.125.134-.29.201-.495.201zm5.777 8.648c-.732 0-1.374-.152-1.928-.455-.553-.313-.986-.737-1.298-1.272-.312-.544-.469-1.165-.469-1.861s.148-1.312.442-1.847c.304-.535.714-.955 1.232-1.258.526-.313 1.115-.469 1.767-.469.66 0 1.245.152 1.753.455.518.295.924.714 1.218 1.259.295.535.442 1.155.442 1.86a.9.9 0 0 1-.013.148v.147h-6.118v-.71h5.609l-.375.281c0-.508-.111-.959-.334-1.352-.215-.401-.509-.714-.884-.937s-.807-.334-1.298-.334c-.482 0-.915.111-1.299.334s-.683.536-.897.937a2.89 2.89 0 0 0-.321 1.379v.147c0 .536.116 1.009.348 1.419.241.402.571.719.991.951.428.223.914.335 1.459.335.428 0 .825-.076 1.191-.228.375-.152.696-.384.964-.696l.535.616c-.312.374-.705.66-1.178.856-.464.197-.977.295-1.539.295zm12.265.013c-.714 0-1.374-.116-1.981-.348-.598-.241-1.12-.575-1.566-1.004-.438-.428-.781-.932-1.031-1.512a4.91 4.91 0 0 1-.361-1.901c0-.687.12-1.321.361-1.901.25-.58.598-1.085 1.044-1.513a4.68 4.68 0 0 1 1.566-.99c.607-.241 1.268-.362 1.982-.362s1.365.112 1.954.335a3.89 3.89 0 0 1 1.526 1.017l-.616.629c-.392-.392-.825-.673-1.298-.843a4.48 4.48 0 0 0-1.526-.254c-.58 0-1.116.098-1.607.294-.482.188-.905.46-1.271.817a3.84 3.84 0 0 0-.844 1.231c-.196.464-.294.977-.294 1.54a3.98 3.98 0 0 0 .294 1.539c.206.473.487.888.844 1.245.366.348.789.62 1.271.817a4.44 4.44 0 0 0 1.593.281 4.69 4.69 0 0 0 1.513-.241c.482-.161.924-.433 1.325-.817l.562.75c-.446.393-.968.692-1.566.897-.598.196-1.222.294-1.874.294zm2.49-1.312v-3.453h.95v3.574l-.95-.121zm6.097 1.299c-.678 0-1.29-.152-1.834-.455a3.48 3.48 0 0 1-1.272-1.272c-.312-.544-.468-1.165-.468-1.861 0-.705.156-1.325.468-1.86a3.37 3.37 0 0 1 1.272-1.259c.535-.303 1.147-.455 1.834-.455.696 0 1.312.152 1.847.455a3.26 3.26 0 0 1 1.272 1.259c.312.535.468 1.155.468 1.86 0 .696-.156 1.317-.468 1.861-.304.535-.728.959-1.272 1.272-.544.303-1.16.455-1.847.455zm0-.843c.508 0 .959-.112 1.352-.335a2.46 2.46 0 0 0 .923-.964c.232-.419.349-.901.349-1.446 0-.553-.117-1.035-.349-1.445-.223-.411-.531-.728-.923-.951-.393-.232-.839-.348-1.339-.348s-.946.116-1.338.348c-.393.223-.706.54-.938.951s-.348.892-.348 1.445c0 .545.116 1.027.348 1.446.232.411.545.732.938.964.392.223.834.335 1.325.335zm9.571.776v-1.553l-.04-.254v-2.597c0-.598-.169-1.058-.508-1.379-.331-.321-.826-.482-1.486-.482-.455 0-.888.076-1.299.228a3.3 3.3 0 0 0-1.044.602l-.428-.709c.357-.304.785-.536 1.285-.697.5-.169 1.026-.254 1.579-.254.911 0 1.611.228 2.102.683.5.446.75 1.129.75 2.048v4.364h-.911zm-2.423.067c-.526 0-.986-.085-1.378-.254-.384-.179-.679-.42-.884-.723a1.91 1.91 0 0 1-.308-1.071c0-.366.085-.696.255-.991.178-.303.464-.544.856-.723.402-.187.937-.281 1.607-.281h2.423v.71h-2.397c-.678 0-1.151.12-1.418.361-.259.241-.389.54-.389.897 0 .402.156.723.469.964s.749.361 1.312.361c.535 0 .995-.12 1.379-.361.392-.25.678-.607.856-1.071l.214.656c-.178.464-.49.834-.937 1.111-.437.277-.99.415-1.66.415zm5.594-.067v-9.933h.95v9.933h-.95z" class="D"/><g clip-path="url(#P)" class="C"><path d="M355.985 488.544v-.683l3.896-3.815c.357-.348.624-.651.803-.91a2.6 2.6 0 0 0 .361-.75c.063-.232.094-.451.094-.656 0-.544-.188-.973-.562-1.285-.366-.312-.911-.468-1.634-.468-.553 0-1.044.084-1.472.254-.419.17-.781.433-1.084.79l-.683-.589c.366-.429.834-.759 1.406-.991s1.209-.348 1.914-.348c.633 0 1.182.103 1.646.308a2.31 2.31 0 0 1 1.071.87c.259.384.388.835.388 1.352a3.08 3.08 0 0 1-.133.897c-.081.295-.232.607-.456.937-.214.321-.531.687-.95 1.098l-3.574 3.507-.268-.375h5.81v.857h-6.573zm7.645 1.954l.589-2.476.108.575c-.206 0-.38-.066-.523-.2a.71.71 0 0 1-.2-.522c0-.215.067-.389.2-.522a.72.72 0 0 1 .509-.201c.205 0 .37.071.495.214a.72.72 0 0 1 .201.509 1.72 1.72 0 0 1-.013.214 1.49 1.49 0 0 1-.054.241l-.107.321-.562 1.847h-.643zm2.419-1.954v-.683l3.896-3.815c.357-.348.624-.651.803-.91a2.6 2.6 0 0 0 .361-.75c.063-.232.094-.451.094-.656 0-.544-.188-.973-.562-1.285-.366-.312-.911-.468-1.634-.468-.553 0-1.044.084-1.472.254-.419.17-.781.433-1.084.79l-.683-.589c.366-.429.834-.759 1.406-.991s1.209-.348 1.914-.348c.633 0 1.182.103 1.646.308a2.31 2.31 0 0 1 1.071.87c.259.384.388.835.388 1.352a3.08 3.08 0 0 1-.133.897c-.081.295-.232.607-.456.937-.214.321-.531.687-.95 1.098l-3.574 3.507-.268-.375h5.81v.857h-6.573zm7-2.463v-.696l4.966-6.212h1.071l-4.926 6.212-.522-.161h7.536v.857h-8.125zm5.288 2.463v-2.463l.026-.857v-2.169h.937v5.489h-.963zm4.381 0l4.043-8.942.294.428h-5.796l.495-.468v2.222h-.95v-2.611h6.881v.683l-3.923 8.688h-1.044z"/></g></g><path d="M119.348 499.45h269.304" class="E F"/><g filter="url(#B)"><path d="M91 47.623C91 34.577 101.576 24 114.623 24h278.754C406.424 24 417 34.577 417 47.623v52.759H91V47.623z" class="B"/><path d="M213.221 77.159v-7.898h-3.105v-1.473h7.951v1.473h-3.105v7.898h-1.741zm8.151.094c-.732 0-1.383-.156-1.954-.468a3.6 3.6 0 0 1-1.352-1.312c-.331-.553-.496-1.182-.496-1.888 0-.714.165-1.343.496-1.887a3.5 3.5 0 0 1 1.352-1.299c.571-.312 1.222-.469 1.954-.469.741 0 1.397.156 1.968.469a3.41 3.41 0 0 1 1.352 1.285c.33.544.495 1.178.495 1.901 0 .705-.165 1.334-.495 1.888-.321.553-.772.991-1.352 1.312-.571.312-1.227.468-1.968.468zm0-1.432a2.22 2.22 0 0 0 1.098-.268 1.85 1.85 0 0 0 .749-.776c.188-.339.282-.736.282-1.191 0-.464-.094-.861-.282-1.191a1.85 1.85 0 0 0-.749-.776c-.321-.178-.683-.268-1.084-.268a2.22 2.22 0 0 0-1.098.268c-.313.178-.562.437-.75.776-.187.33-.281.727-.281 1.191 0 .455.094.852.281 1.191s.437.598.75.776c.321.178.683.268 1.084.268zm8.119 1.432c-.687 0-1.307-.152-1.86-.455a3.41 3.41 0 0 1-1.285-1.285c-.313-.544-.469-1.187-.469-1.928s.156-1.383.469-1.928.74-.968 1.285-1.272c.553-.303 1.173-.455 1.86-.455.598 0 1.134.134 1.607.402.473.259.848.656 1.124 1.191s.415 1.223.415 2.061c0 .83-.134 1.517-.401 2.062-.268.535-.638.937-1.111 1.205s-1.018.402-1.634.402zm.201-1.432c.402 0 .759-.089 1.071-.268.321-.178.576-.437.763-.776.197-.339.295-.736.295-1.191 0-.464-.098-.861-.295-1.191-.187-.339-.442-.598-.763-.776-.312-.178-.669-.268-1.071-.268s-.763.089-1.084.268c-.312.178-.567.437-.763.776-.188.33-.281.727-.281 1.191 0 .455.093.852.281 1.191.196.339.451.598.763.776.321.178.683.268 1.084.268zm2.169 1.339v-1.687l.067-1.901-.134-1.901v-4.444h1.66v9.933h-1.593zm7.878 0v-1.446l-.094-.308v-2.53c0-.491-.147-.87-.441-1.138-.295-.277-.741-.415-1.339-.415a3.9 3.9 0 0 0-1.191.187c-.384.125-.71.299-.978.522l-.656-1.218c.384-.294.839-.513 1.366-.656.535-.152 1.089-.228 1.66-.228 1.035 0 1.834.25 2.396.75.571.491.857 1.254.857 2.289v4.19h-1.58zm-2.249.094c-.535 0-1.004-.089-1.405-.268-.402-.187-.714-.442-.937-.763a1.99 1.99 0 0 1-.322-1.111c0-.401.094-.763.281-1.084.197-.321.514-.576.951-.763s1.017-.281 1.74-.281h2.075v1.111h-1.954c-.572 0-.955.094-1.152.281-.196.178-.294.402-.294.669a.85.85 0 0 0 .361.723c.241.178.576.268 1.004.268.411 0 .777-.094 1.098-.281.33-.187.567-.464.709-.83l.282 1.004c-.161.419-.451.745-.871.977-.41.232-.932.348-1.566.348zm6.113 2.597a3.28 3.28 0 0 1-1.044-.174c-.348-.116-.638-.277-.87-.482l.669-1.231c.17.152.362.272.576.361a1.69 1.69 0 0 0 .656.134c.303 0 .549-.076.736-.228s.361-.406.522-.763l.415-.937.134-.201 2.704-6.318h1.606l-3.346 7.724c-.223.535-.473.959-.75 1.272-.268.312-.571.531-.91.656a3.08 3.08 0 0 1-1.098.187zm1.473-2.436l-3.226-7.403h1.74l2.624 6.171-1.138 1.231zm4.47 1.767l.776-2.958.228.991c-.313 0-.576-.094-.79-.281-.205-.196-.308-.46-.308-.79 0-.339.103-.607.308-.803a1.08 1.08 0 0 1 .776-.308c.313 0 .571.103.777.308s.308.473.308.803c0 .089-.009.187-.027.294a2.57 2.57 0 0 1-.094.348 3.85 3.85 0 0 1-.187.509l-.683 1.887h-1.084zm6.927-2.021v-9.371h4.097c1.017 0 1.909.196 2.677.589s1.365.937 1.794 1.633.642 1.517.642 2.463c0 .937-.214 1.758-.642 2.463-.429.696-1.027 1.24-1.794 1.633s-1.66.589-2.677.589h-4.097zm1.741-1.472h2.275c.705 0 1.312-.134 1.821-.402.517-.268.915-.643 1.191-1.124.286-.482.429-1.044.429-1.687 0-.651-.143-1.214-.429-1.687-.276-.482-.674-.857-1.191-1.124-.509-.268-1.116-.402-1.821-.402h-2.275v6.426zm13.241 1.472v-1.446l-.094-.308v-2.53c0-.491-.147-.87-.441-1.138-.295-.277-.741-.415-1.339-.415a3.9 3.9 0 0 0-1.191.187c-.384.125-.71.299-.978.522l-.656-1.218c.384-.294.839-.513 1.366-.656.535-.152 1.089-.228 1.66-.228 1.035 0 1.834.25 2.396.75.571.491.857 1.254.857 2.289v4.19h-1.58zm-2.249.094c-.535 0-1.004-.089-1.405-.268-.402-.187-.714-.442-.937-.763a1.99 1.99 0 0 1-.322-1.111c0-.401.094-.763.281-1.084.197-.321.514-.576.951-.763s1.017-.281 1.74-.281h2.075v1.111h-1.954c-.572 0-.955.094-1.152.281-.196.178-.294.402-.294.669a.85.85 0 0 0 .361.723c.241.178.576.268 1.004.268.411 0 .777-.094 1.098-.281.33-.187.567-.464.709-.83l.282 1.004c-.161.419-.451.745-.871.977-.41.232-.932.348-1.566.348zm6.113 2.597a3.28 3.28 0 0 1-1.044-.174c-.348-.116-.638-.277-.87-.482l.669-1.231c.17.152.362.272.576.361a1.69 1.69 0 0 0 .656.134c.303 0 .549-.076.736-.228s.361-.406.522-.763l.415-.937.134-.201 2.704-6.318h1.606l-3.346 7.724c-.223.535-.473.959-.75 1.272-.268.312-.571.531-.91.656a3.08 3.08 0 0 1-1.098.187zm1.473-2.436l-3.226-7.403h1.74l2.624 6.171-1.138 1.231zm9.725-.254v-8.701l.763.79h-2.744v-1.459h3.721v9.371h-1.74zm7.039.134c-.776 0-1.45-.116-2.021-.348s-1.013-.558-1.325-.977c-.313-.428-.469-.928-.469-1.499s.152-1.053.455-1.446.741-.692 1.312-.897 1.254-.308 2.048-.308 1.477.103 2.048.308c.58.205 1.022.509 1.326.91.312.393.468.87.468 1.432 0 .571-.16 1.071-.482 1.499-.312.419-.758.745-1.338.977-.572.232-1.245.348-2.022.348zm0-1.365c.643 0 1.152-.134 1.526-.402a1.29 1.29 0 0 0 .563-1.111c0-.464-.188-.83-.563-1.098s-.883-.402-1.526-.402-1.146.134-1.512.402-.549.634-.549 1.098c0 .473.183.843.549 1.111s.87.402 1.512.402zm0-3.199c-.723 0-1.343-.094-1.86-.281-.518-.196-.92-.477-1.205-.843-.277-.375-.415-.821-.415-1.339 0-.535.143-.995.428-1.379.295-.393.705-.696 1.232-.91s1.133-.321 1.82-.321c.696 0 1.308.107 1.834.321s.937.518 1.232.91c.294.384.442.843.442 1.379 0 .518-.143.964-.429 1.339-.276.366-.678.647-1.205.843-.526.188-1.151.281-1.874.281zm0-1.071c.554 0 .991-.116 1.312-.348.321-.241.482-.562.482-.964 0-.419-.165-.745-.495-.977s-.763-.348-1.299-.348-.964.116-1.285.348-.482.558-.482.977c0 .402.156.723.469.964.321.232.754.348 1.298.348z" class="C"/><path d="M238.173 92.159v-7.166h.84l3.214 5.415h-.45l3.173-5.415h.839l.011 7.166h-.983l-.01-5.62h.235l-2.825 4.75h-.471l-2.846-4.75h.256v5.62h-.983zm8.631 0l3.245-7.166h1.013l3.255 7.166h-1.074l-2.897-6.593h.409l-2.897 6.593h-1.054zm1.382-1.791l.276-.819h4.033l.297.819h-4.606zm7.139 1.791v-7.166h2.795c.627 0 1.163.099 1.607.297s.785.485 1.023.86.359.822.359 1.341-.12.966-.359 1.341c-.238.369-.58.652-1.023.85s-.98.297-1.607.297h-2.232l.461-.471v2.651h-1.024zm4.791 0l-1.822-2.6h1.095l1.843 2.6h-1.116zm-3.767-2.549l-.461-.502h2.201c.655 0 1.15-.14 1.484-.42.341-.287.512-.686.512-1.198s-.171-.908-.512-1.187c-.334-.28-.829-.42-1.484-.42h-2.201l.461-.512v4.238zm11.251 2.631c-.58 0-1.082-.085-1.505-.256s-.751-.413-.983-.727a1.87 1.87 0 0 1-.348-1.126c0-.423.11-.781.328-1.075.225-.3.549-.526.972-.676.424-.157.935-.235 1.536-.235s1.112.079 1.535.235c.43.15.758.375.983.676s.338.658.338 1.075a1.87 1.87 0 0 1-.348 1.126c-.232.314-.563.556-.993.727s-.935.256-1.515.256zm0-.829c.573 0 1.02-.116 1.341-.348a1.13 1.13 0 0 0 .491-.962c0-.396-.163-.706-.491-.931-.321-.232-.768-.348-1.341-.348-.566 0-1.01.116-1.331.348-.321.225-.481.536-.481.931 0 .403.16.723.481.962.321.232.765.348 1.331.348zm0-2.713c-.546 0-1.01-.072-1.392-.215-.382-.15-.676-.362-.881-.635a1.64 1.64 0 0 1-.307-.993c0-.403.106-.747.318-1.034.218-.293.522-.519.911-.676s.839-.235 1.351-.235c.519 0 .972.078 1.361.235s.693.382.912.676c.218.287.327.631.327 1.034 0 .382-.102.713-.307.993-.205.273-.502.485-.891.635-.389.143-.856.215-1.402.215zm0-.655c.498 0 .887-.102 1.167-.307.287-.205.43-.485.43-.839a.98.98 0 0 0-.44-.85c-.294-.205-.679-.307-1.157-.307s-.86.102-1.147.307c-.279.205-.419.488-.419.85a.99.99 0 0 0 .409.839c.28.205.666.307 1.157.307z" class="C"/><path fill-rule="evenodd" d="M109.111 74.396a.79.79 0 0 1 .788-.787h12.589a.79.79 0 0 1 .788.787.79.79 0 0 1-.788.788h-12.589a.79.79 0 0 1-.788-.788zm0 5.035a.79.79 0 0 1 .788-.787h12.589a.79.79 0 0 1 .788.787.79.79 0 0 1-.788.787h-12.589a.79.79 0 0 1-.788-.787zm.788 4.248a.79.79 0 0 0-.788.787.79.79 0 0 0 .788.787h12.589a.79.79 0 0 0 .788-.787.79.79 0 0 0-.788-.787h-12.589z" class="C"/><path d="M385.503 69.147a1.05 1.05 0 0 1 1.05 1.05v1.05h4.199v-1.05a1.05 1.05 0 0 1 2.1 0v1.05h3.15a2.1 2.1 0 0 1 2.1 2.1v13.649a2.1 2.1 0 0 1-2.1 2.1h-14.699a2.1 2.1 0 0 1-2.1-2.1V73.346a2.1 2.1 0 0 1 2.1-2.1h3.15v-1.05a1.05 1.05 0 0 1 1.05-1.05zm-1.05 4.2h-3.15v3.15h14.699v-3.15h-3.15v1.05a1.05 1.05 0 0 1-2.1 0v-1.05h-4.199v1.05a1.05 1.05 0 1 1-2.1 0v-1.05zm11.549 5.25h-14.699v8.399h14.699v-8.399z" fill="#b5babe"/><path fill="#ced1d4" d="M91 99.988h326v.394H91z"/></g></g></g><defs><filter id="A" x="298.097" y="123.216" width="108.667" height="34.647" filterUnits="userSpaceOnUse" class="G"><feFlood flood-opacity="0" result="A"/><feColorMatrix in="SourceAlpha" values="0 0 0 0 0 0 0 0 0 0 0 0 0 0 0 0 0 0 127 0"/><feOffset dy="2.36232"/><feGaussianBlur stdDeviation="3.15"/><feColorMatrix values="0 0 0 0 0 0 0 0 0 0 0 0 0 0 0 0 0 0 0.15 0"/><feBlend in2="A" result="C"/><feColorMatrix in="SourceAlpha" values="0 0 0 0 0 0 0 0 0 0 0 0 0 0 0 0 0 0 127 0"/><feOffset dy="0.78744"/><feGaussianBlur stdDeviation=".394"/><feColorMatrix values="0 0 0 0 0 0 0 0 0 0 0 0 0 0 0 0 0 0 0.06 0"/><feBlend in2="C"/><feBlend in="SourceGraphic"/></filter><filter id="B" x="67.377" y=".377" width="373.246" height="123.628" filterUnits="userSpaceOnUse" class="G"><feFlood flood-opacity="0"/><feGaussianBlur stdDeviation="11.812"/><feComposite in2="SourceAlpha" operator="in"/><feBlend in="SourceGraphic"/></filter><clipPath id="C"><rect width="508" height="504" rx="16" class="B"/></clipPath><clipPath id="D"><rect x="91" y="24" width="326" height="853.585" rx="23.623" class="B"/></clipPath><clipPath id="E"><path transform="translate(106.749 125.578)" d="M0 0h294.502v25.198H0z" class="B"/></clipPath><clipPath id="F"><rect x="106.749" y="125.578" width="295" height="25" rx="6.3" class="B"/></clipPath><clipPath id="G"><path transform="translate(106.749 334.249)" d="M0 0h294.502v30.599H0z" class="B"/></clipPath><clipPath id="H"><path transform="translate(248.488 334.249)" d="M0 0h140.164v30.599H0z" class="B"/></clipPath><clipPath id="I"><path transform="translate(106.749 364.848)" d="M0 0h294.502v30.599H0z" class="B"/></clipPath><clipPath id="J"><path transform="translate(248.488 364.848)" d="M0 0h140.164v30.599H0z" class="B"/></clipPath><clipPath id="K"><path transform="translate(106.749 395.447)" d="M0 0h294.502v30.599H0z" class="B"/></clipPath><clipPath id="L"><path transform="translate(248.488 395.447)" d="M0 0h140.164v30.599H0z" class="B"/></clipPath><clipPath id="M"><path transform="translate(106.749 426.046)" d="M0 0h294.502v36.899H0z" class="B"/></clipPath><clipPath id="N"><path transform="translate(248.488 426.046)" d="M0 0h140.164v30.599H0z" class="B"/></clipPath><clipPath id="O"><path transform="translate(107.143 475.544)" d="M0 0h293.715v24.299H0z" class="B"/></clipPath><clipPath id="P"><path transform="translate(248.094 475.544)" d="M0 0h140.164v24.299H0z" class="B"/></clipPath></defs></svg>