<svg width="15" height="14" viewBox="0 0 15 14" fill="none" xmlns="http://www.w3.org/2000/svg">
<path d="M14.4146 2.73844L12.5019 0.606592C12.4336 0.521318 12.314 0.487209 12.2115 0.504264C12.1091 0.521318 12.0066 0.606592 11.9725 0.708921C11.9554 0.743031 11.4772 1.93686 9.34243 2.602C8.9838 2.72138 8.60808 2.77255 8.1982 2.77255C7.44677 2.77255 6.69534 2.58495 5.97806 2.38029C5.29494 2.19269 4.64597 2.02214 4.01409 2.02214C3.70668 2.02214 3.43343 2.05625 3.16018 2.14152C1.2816 2.75549 0.547245 5.24549 0.513089 5.34782C0.478933 5.45015 0.513089 5.56953 0.598479 5.6548C0.683869 5.74008 0.803415 5.75713 0.905884 5.72302C0.905884 5.72302 1.23037 5.62069 1.62316 5.62069C2.27213 5.62069 2.682 5.87652 2.85278 6.42227C3.24557 7.65021 4.68013 8.91227 6.50748 9.13398L7.75418 10.0208L6.98566 11.5387C6.4904 11.8286 6.28547 12.1186 6.21715 12.4085C4.76552 12.6302 3.17726 12.8178 1.53777 12.869C1.36699 12.869 1.23037 13.0225 1.23037 13.193C1.23037 13.3636 1.38407 13.5 1.53777 13.5H1.55485C3.21142 13.4318 4.7826 13.2612 6.25131 13.0395C6.30254 13.1418 6.40501 13.193 6.52456 13.193C6.54164 13.193 6.55871 13.193 6.57579 13.193C6.71242 13.176 6.81488 13.0736 6.83196 12.9542C6.95151 12.9372 7.07105 12.9201 7.1906 12.886C7.20768 12.9031 7.24184 12.9372 7.25891 12.9542C7.32723 13.0054 7.39554 13.0395 7.46385 13.0395C7.54924 13.0395 7.63463 13.0054 7.68586 12.9372C7.7371 12.886 7.75418 12.8349 7.77125 12.7666C7.90788 12.7325 8.0445 12.7155 8.18113 12.6814C8.23236 12.7155 8.30067 12.7496 8.36899 12.7496C8.40314 12.7496 8.45438 12.7496 8.48853 12.7325C8.55684 12.6984 8.60808 12.6643 8.64223 12.5961C8.84717 12.562 9.03503 12.5108 9.22289 12.4767C9.25704 12.562 9.2912 12.6132 9.30828 12.6302C9.37659 12.7155 9.46198 12.7666 9.56445 12.7666C9.63276 12.7666 9.68399 12.7496 9.73523 12.7155C9.85477 12.6302 9.90601 12.4767 9.85477 12.3403C11.6992 11.8969 13.0996 11.4534 13.9193 11.1805C14.0901 11.1294 14.1755 10.9418 14.1072 10.7883C14.056 10.6177 13.8681 10.5325 13.7144 10.6007C12.8947 10.8736 11.4772 11.334 9.66692 11.7604C9.66692 11.7434 9.66692 11.7434 9.66692 11.7263L11.0502 9.98672C11.1356 9.86733 11.1356 9.71384 11.0502 9.59446L10.0256 8.3324C11.2723 7.63316 12.0749 6.60987 12.4506 5.2796C12.7239 4.29042 13.3899 3.54001 14.2609 3.26714L14.2951 3.25008C14.3975 3.21597 14.4829 3.1307 14.5 3.02837C14.5 2.92604 14.4829 2.82371 14.4146 2.73844ZM3.26265 4.34159C3.07479 4.34159 2.92109 4.17104 2.93817 3.98344C2.93817 3.79583 3.10895 3.64234 3.29681 3.6594C3.48467 3.6594 3.63837 3.82994 3.62129 4.01755C3.60421 4.20515 3.45051 4.35864 3.26265 4.34159ZM10.4013 9.78206L9.20581 11.2829C8.67639 11.3852 8.31775 11.7092 8.16405 11.9651C8.14697 11.9992 8.12989 12.0333 8.11281 12.0845C7.90788 12.1186 7.68586 12.1697 7.46385 12.2038C7.42969 12.1186 7.41262 12.0503 7.46385 11.9821C7.48093 11.9651 7.48093 11.9651 7.48093 11.948C7.48093 11.948 7.48093 11.931 7.49801 11.931L8.45438 10.072C8.52269 9.93555 8.48853 9.765 8.35191 9.67973L7.60047 9.15103C7.90788 9.11692 8.23236 9.0487 8.53977 8.94637C8.86425 8.84405 9.15458 8.74172 9.42782 8.60528L10.4013 9.78206ZM10.9307 5.29665C10.8282 6.08117 10.4183 6.78042 9.78646 7.25795C9.27412 7.65021 8.65931 7.82076 8.06158 7.82076C7.17352 7.82076 6.30254 7.41145 5.72189 6.64398C5.61942 6.50754 5.65358 6.30289 5.7902 6.20056C5.92683 6.09823 6.13176 6.13234 6.23423 6.26878C6.98566 7.27501 8.42022 7.49672 9.42782 6.74631C9.92309 6.3711 10.2476 5.82535 10.333 5.21138C10.35 5.04083 10.5037 4.92145 10.6745 4.9385C10.8282 4.97261 10.9478 5.12611 10.9307 5.29665Z" fill="#060125"/>
</svg>
