<svg width="1440" height="655" viewBox="0 0 1440 655" fill="none" xmlns="http://www.w3.org/2000/svg">
<mask id="mask0_544_4924" style="mask-type:alpha" maskUnits="userSpaceOnUse" x="0" y="0" width="1440" height="655">
<rect width="1440" height="655" fill="white"/>
</mask>
<g mask="url(#mask0_544_4924)">
<path d="M13.1646 199.417C81.9806 129.827 254.315 7.66007 366.1 72.2679C401.743 92.8678 432.236 118.351 460.889 142.296C471.308 151.004 481.483 159.507 491.575 167.499C542.23 207.614 590.76 234.822 657.286 210.062C773.492 166.806 779.879 161.194 866.722 161.991C953.567 162.799 1078.11 242.913 1181.22 235.697C1268.02 229.626 1346.01 152.69 1471.39 102.129" stroke="#FFD23E" stroke-width="100"/>
<path d="M20 217.715C101.881 141.075 260.295 64.1521 367.913 132.391C401.225 153.533 429.468 177.48 455.361 200.104C458.294 202.666 461.196 205.211 464.071 207.733C529.121 264.778 580.774 310.076 664.737 274.263C675.618 269.651 685.618 265.372 694.879 261.409C787.511 221.774 806.225 213.767 893.504 220.157C927.486 222.65 967.705 233.122 1010.36 244.23C1074.35 260.893 1143.83 278.984 1205.98 273.715C1260.66 269.077 1306.44 245.354 1362.95 216.07C1397.95 197.927 1437.08 177.65 1485 158.452" stroke="#FFD5A4" stroke-width="100"/>
<path d="M20 220.716C101.881 144.075 260.295 67.1505 367.913 135.392C401.225 156.535 429.468 180.481 455.361 203.104C458.293 205.666 461.195 208.211 464.071 210.733C529.121 267.778 580.774 313.076 664.737 277.262C675.619 272.65 685.62 268.371 694.882 264.408C787.511 224.774 806.226 216.767 893.504 223.158C927.486 225.65 967.706 236.123 1010.37 247.231C1074.35 263.893 1143.83 281.985 1205.98 276.715C1260.66 272.077 1306.44 248.355 1362.95 219.071C1397.95 200.928 1437.08 180.651 1485 161.453" stroke="#FFBB3E" stroke-width="100"/>
<path d="M7.08862 254.423C95.7362 183.329 242.837 138.888 346.51 210.092C364.653 222.566 381.157 235.541 396.462 248.473C413.575 262.932 429.189 277.337 443.922 290.928C510.394 352.25 558.907 397.005 646.035 355.396C656.833 350.238 666.824 345.415 676.138 340.92C771.904 294.694 796.147 282.993 891.851 295.497C914.087 298.403 939.312 302.935 966.326 307.789C1038.79 320.808 1124.14 336.141 1199.2 328.623C1261.97 322.342 1305.78 302.445 1369.38 273.559C1396.44 261.266 1427.09 247.346 1464.31 232.154" stroke="#FFCF96" stroke-width="100"/>
<path d="M7.08862 256.423C95.7362 185.329 242.837 140.888 346.51 212.092C364.653 224.566 381.157 237.541 396.462 250.473C413.575 264.932 429.19 279.337 443.922 292.928C510.394 354.249 558.908 399.004 646.035 357.396C656.833 352.238 666.823 347.416 676.136 342.921C771.904 296.694 796.146 284.993 891.851 297.497C914.087 300.403 939.312 304.935 966.326 309.789C1038.79 322.808 1124.14 338.14 1199.2 330.623C1261.97 324.342 1305.78 304.445 1369.38 275.558C1396.44 263.265 1427.09 249.345 1464.31 234.154" stroke="#F8A553" stroke-width="100"/>
<path d="M17.2152 276.241C110.231 215.711 249.067 195.728 349.993 269.409C354.291 272.551 358.493 275.706 362.604 278.869C396.948 305.292 424.936 332.229 449.894 356.249C517.94 421.738 563.452 465.54 653.795 418.113C665.007 412.228 675.409 406.7 685.14 401.53C783.633 349.194 813.331 333.413 917.892 352.454C997.06 366.872 1118.72 377.066 1221.76 365.222C1312.69 354.766 1348.78 340.458 1474.44 287.329" stroke="#F8B482" stroke-width="100"/>
<path d="M18.2278 279.241C111.239 218.712 250.079 198.728 351.005 272.407C355.305 275.55 359.507 278.706 363.619 281.869C397.961 308.291 425.949 335.227 450.905 359.245L450.907 359.247C518.953 424.735 564.465 468.537 654.808 421.111C666.021 415.224 676.425 409.696 686.157 404.526C784.646 352.194 814.345 336.413 918.904 355.454C998.073 369.872 1119.73 380.065 1222.77 368.222C1313.7 357.767 1349.79 343.459 1475.45 290.328" stroke="#F89953" stroke-width="100"/>
<path d="M3.03796 301.664C90.1841 257.781 207.552 253.058 302.241 309.911C311.449 315.44 320.442 321.55 329.172 328.264C371.42 360.79 404.02 393.461 432.179 421.681C501.543 491.196 543.957 533.703 637.254 480.513C648.857 473.897 659.652 467.657 669.785 461.799C771.091 403.238 806.171 382.96 919.612 409.035C996.175 426.637 1116.98 414.88 1220.02 401.499C1238.9 399.048 1254.77 397.494 1269.16 396.085C1325.19 390.597 1358.72 387.314 1460.26 341.831" stroke="#FCA67C" stroke-width="100"/>
<path d="M3.03796 305.664C90.1841 261.781 207.552 257.058 302.241 313.911C311.449 319.44 320.442 325.55 329.172 332.264C371.42 364.79 404.02 397.461 432.178 425.681C501.542 495.196 543.957 537.703 637.253 484.513C648.856 477.897 659.652 471.656 669.785 465.799C771.091 407.238 806.171 386.959 919.612 413.035C996.175 430.637 1116.98 418.88 1220.02 405.498C1238.9 403.048 1254.77 401.494 1269.16 400.085C1325.19 394.597 1358.72 391.314 1460.26 345.831" stroke="#F88953" stroke-width="100"/>
<path d="M-18.2278 347.504C55.4694 320.515 145.953 322.125 227.426 358.454C253.22 369.956 278.111 384.937 301.279 403.593C345.77 439.471 379.354 474.503 407.844 504.221C478.282 577.697 517.583 618.692 613.604 559.705C625.463 552.42 636.539 545.514 646.977 539.005C751.439 473.869 791.999 448.577 914.242 482.255C969.649 497.521 1050.57 482.745 1130.94 468.07C1158.08 463.113 1185.16 458.168 1211.18 454.396C1242.77 449.816 1264.1 450.725 1283.46 451.55C1321.72 453.18 1387.71 446.518 1474.43 404.5" stroke="#FA9276" stroke-width="100"/>
<path d="M-18.2278 352.503C55.4696 325.514 145.954 327.125 227.427 363.454C253.221 374.956 278.111 389.937 301.279 408.592C345.77 444.471 379.354 479.502 407.844 509.221C478.282 582.695 517.583 623.691 613.604 564.705C625.464 557.419 636.54 550.513 646.978 544.004C751.439 478.868 792 453.576 914.242 487.255C969.649 502.52 1050.57 487.745 1130.94 473.07C1158.08 468.113 1185.16 463.168 1211.18 459.396C1242.77 454.816 1264.1 455.725 1283.46 456.55C1321.72 458.18 1384.67 452.481 1471.4 410.463" stroke="#F5704C" stroke-width="91"/>
</g>
</svg>
