<svg width="28" height="28" viewBox="0 0 28 28" fill="none" xmlns="http://www.w3.org/2000/svg">
<path d="M2.3237 0.51062C1.8972 0.51062 1.4512 0.653963 1.1257 0.978963C0.474865 1.63063 0.474865 2.72394 1.1257 3.37561L11.5945 13.844L1.1257 24.3123C0.474865 24.964 0.474865 26.0573 1.1257 26.7089C1.7767 27.3589 2.8707 27.3589 3.5217 26.7089L13.9904 16.2406L24.459 26.7089C25.11 27.3589 26.204 27.3589 26.855 26.7089C27.5059 26.0573 27.5059 24.964 26.855 24.3123L16.3862 13.844L26.855 3.37561C27.5059 2.72394 27.5059 1.63063 26.855 0.978963C26.5295 0.653963 26.0834 0.51062 25.657 0.51062C25.2305 0.51062 24.7847 0.653963 24.459 0.978963L13.9904 11.4473L3.5217 0.978963C3.1962 0.653963 2.7502 0.51062 2.3237 0.51062Z" fill="white"/>
</svg>
