<svg width="56" height="56" viewBox="0 0 56 56" fill="none" xmlns="http://www.w3.org/2000/svg">
<g id="Group 35">
<path id="Rectangle" d="M48.9496 0H7.05036C3.15655 0 0 3.15655 0 7.05036V48.9496C0 52.8434 3.15655 56 7.05036 56H48.9496C52.8434 56 56 52.8434 56 48.9496V7.05036C56 3.15655 52.8434 0 48.9496 0Z" fill="#3433FA"/>
<g id="MVP">
<path id="Combined Shape" fill-rule="evenodd" clip-rule="evenodd" d="M26.1805 11.2C34.9172 11.2 42 18.4184 42 27.3225C42 36.2269 34.9172 43.4452 26.1805 43.4452H15.7935C15.5004 43.4452 15.2627 43.2029 15.2627 42.9043V38.6258H18.0103V40.6448H25.982C33.1555 40.6448 39.1414 34.8394 39.2509 27.5295C39.3621 20.0893 33.4559 14.0004 26.1805 14.0004H18.0103V17.967H20.2813C20.5747 17.967 20.8122 18.2093 20.8122 18.5079V20.2265C20.8122 20.5251 20.5747 20.7674 20.2813 20.7674H13.1308C12.8376 20.7674 12.6001 20.5251 12.6001 20.2265V18.5079C12.6001 18.2093 12.8376 17.967 13.1308 17.967H15.2627V11.7411C15.2627 11.4423 15.5004 11.2 15.7935 11.2H26.1805ZM17.9639 30.5135V33.3185H20.2154C20.5061 33.3185 20.7416 33.5553 20.7416 33.8474V35.5268C20.7416 35.8188 20.5061 36.0556 20.2154 36.0556H13.1262C12.8355 36.0556 12.6 35.8188 12.6 35.5268V33.8474C12.6 33.5553 12.8355 33.3185 13.1262 33.3185H15.2398V30.5135H17.9639ZM17.9639 22.6622V25.4649H20.2154C20.5061 25.4649 20.7416 25.7019 20.7416 25.9942V27.6752C20.7416 27.9673 20.5061 28.2043 20.2154 28.2043H13.1262C12.8355 28.2043 12.6 27.9673 12.6 27.6752V25.9942C12.6 25.7019 12.8355 25.4649 13.1262 25.4649H15.2398V22.6622H17.9639ZM33.328 21.7385C33.6212 21.7385 33.8587 21.9783 33.8587 22.274V23.9743C33.8587 24.2699 33.6212 24.5096 33.328 24.5096H24.4384C24.1455 24.5096 23.9078 24.2699 23.9078 23.9743V22.274C23.9078 21.9783 24.1455 21.7385 24.4384 21.7385H33.328Z" fill="white"/>
</g>
</g>
</svg>
