<svg width="536" height="242" viewBox="0 0 536 242" fill="none" xmlns="http://www.w3.org/2000/svg">
<path fill-rule="evenodd" clip-rule="evenodd" d="M883.61 363.475H0C0.496664 362.307 0.993329 361.139 1.49871 359.981C48.8212 250.505 142.874 165.75 206.682 165.741C247.487 165.741 305.022 186.296 345.766 181.025C395.066 174.638 398.525 121.878 421.459 76.359C442.903 33.7853 461.854 -1.47787 515.755 0.0469666C563.331 1.39755 633.665 39.1353 667.099 67.6369C707.058 101.706 746.182 136.429 784.425 172.241C824.986 210.232 857.53 245.73 883.61 277.961V363.475Z" fill="white" fill-opacity="0.101399"/>
<path fill-rule="evenodd" clip-rule="evenodd" d="M54.7899 364.085C104.16 279.678 175.993 217.168 227.76 216.384C272.712 215.713 333.915 234.456 374.668 229.184C423.96 222.806 427.332 179.256 450.257 133.746C471.709 91.1722 491.454 53.8875 545.364 55.4037C592.921 56.7543 657.653 91.8432 693.596 120.362C735.56 153.665 783.545 194.217 821.788 230.02C844.896 251.656 865.407 272.472 883.61 292.304V364.085H54.7899Z" fill="white" fill-opacity="0.15"/>
<path fill-rule="evenodd" clip-rule="evenodd" d="M883.609 363.214H115.461C158.81 305.618 209.609 266.39 248.846 265.275C297.963 263.898 362.817 280.872 403.552 275.601C452.853 269.214 456.129 234.9 479.054 189.381C500.507 146.816 521.053 107.501 574.954 109.026C622.52 110.377 681.606 142.826 720.093 171.345C764.026 203.889 820.916 250.253 859.151 286.065C867.646 294.021 875.799 301.86 883.609 309.583V363.214Z" fill="white" fill-opacity="0.2"/>
<path fill-rule="evenodd" clip-rule="evenodd" d="M178.834 361.506C207.884 332.987 237.292 315.246 262.038 314.262C314.328 312.171 381.525 327.123 421.494 321.947C469.871 315.682 472.99 291.075 495.479 246.437C516.531 204.664 537.478 164.121 590.36 165.62C637.037 166.935 689.44 196.204 729.722 224.156C770.004 252.109 825.953 295.998 864.161 330.094V361.506H178.834Z" fill="white" fill-opacity="0.25"/>
</svg>
