<svg width="56" height="56" viewBox="0 0 56 56" fill="none" xmlns="http://www.w3.org/2000/svg">
<g id="Group 44">
<path id="Rectangle" d="M48.9496 0H7.05036C3.15655 0 0 3.15655 0 7.05036V48.9496C0 52.8434 3.15655 56 7.05036 56H48.9496C52.8434 56 56 52.8434 56 48.9496V7.05036C56 3.15655 52.8434 0 48.9496 0Z" fill="#020719"/>
<g id="Mark">
<path id="Octothorpe" d="M21.3384 32.2218V30.841H24.065L24.9529 25.7255H22.2494V24.3133H25.1945L25.9171 19.8883H27.5875L26.8335 24.3133H31.069L31.7916 19.8883H33.4607L32.7382 24.3133H35.255V25.7255H32.4971L31.6091 30.841H34.344V32.2218H31.3985L30.6445 36.741H29.0066L29.7606 32.2218H25.5239L24.77 36.741H23.1334L23.8559 32.2218H21.3384ZM30.8295 25.7255H26.5613L25.7325 30.841H30.0008L30.8295 25.7255Z" fill="white"/>
<g id="Circle">
<path id="Base-plate" fill-rule="evenodd" clip-rule="evenodd" d="M28.292 44.0145C33.8981 44.0145 39.078 41.0209 41.8811 36.1609C44.6841 31.3009 44.6841 25.3136 41.8811 20.4537C39.078 15.5937 33.8981 12.6001 28.292 12.6001C22.6859 12.6001 17.5059 15.5937 14.7029 20.4537C11.8998 25.3136 11.8998 31.3009 14.7029 36.1609C17.5059 41.0209 22.6859 44.0145 28.292 44.0145V42.5076C23.2238 42.5076 18.5406 39.8008 16.0062 35.4074C13.4719 31.014 13.4719 25.6005 16.0062 21.2072C18.5406 16.8138 23.2238 14.107 28.292 14.107C33.3602 14.107 38.0433 16.8138 40.5777 21.2072C43.1121 25.6005 43.1121 31.014 40.5777 35.4074C38.0433 39.8008 33.3602 42.5076 28.292 42.5076V44.0145Z" fill="#455A64" fill-opacity="0.01"/>
<path id="Segment-1" fill-rule="evenodd" clip-rule="evenodd" d="M28.2919 44.0145C33.0671 44.0145 37.5829 41.8381 40.5603 38.1008L39.3831 37.1612C36.6912 40.5397 32.6091 42.5075 28.2919 42.5075V44.0145Z" fill="#CE001B"/>
<path id="Segment-2" fill-rule="evenodd" clip-rule="evenodd" d="M40.5603 38.1008C43.5376 34.3635 44.6528 29.4723 43.5903 24.8122L42.1225 25.1473C43.0831 29.3604 42.075 33.7828 39.3831 37.1613L40.5603 38.1008Z" fill="#780011"/>
<path id="Segment-3" fill-rule="evenodd" clip-rule="evenodd" d="M43.5902 24.8123C42.5277 20.1523 39.4021 16.2295 35.1 14.1557L34.4469 15.5131C38.3367 17.3881 41.1618 20.9341 42.1224 25.1473L43.5902 24.8123Z" fill="#6D7096"/>
<path id="Segment-4" fill-rule="evenodd" clip-rule="evenodd" d="M35.1001 14.1557C30.7979 12.0818 25.7859 12.0818 21.4837 14.1557L22.1369 15.5131C26.0268 13.6381 30.5571 13.6381 34.4469 15.5131L35.1001 14.1557Z" fill="#60BBD5"/>
<path id="Segment-5" fill-rule="evenodd" clip-rule="evenodd" d="M21.4837 14.1557C17.1816 16.2295 14.056 20.1523 12.9935 24.8123L14.4613 25.1473C15.422 20.9341 18.247 17.3881 22.1369 15.5131L21.4837 14.1557Z" fill="#0F99BE"/>
<path id="Segment-6" fill-rule="evenodd" clip-rule="evenodd" d="M12.9935 24.8122C11.931 29.4723 13.0462 34.3635 16.0235 38.1008L17.2007 37.1613C14.5088 33.7828 13.5007 29.3604 14.4613 25.1473L12.9935 24.8122Z" fill="#8C9D26"/>
<path id="Segment-7" fill-rule="evenodd" clip-rule="evenodd" d="M16.0235 38.1008C19.0008 41.8381 23.5166 44.0145 28.2918 44.0145V42.5075C23.9746 42.5075 19.8925 40.5397 17.2006 37.1612L16.0235 38.1008Z" fill="#FCD813"/>
</g>
</g>
</g>
</svg>
