<svg width="56" height="56" viewBox="0 0 56 56" fill="none" xmlns="http://www.w3.org/2000/svg">
<g id="Group 43">
<path id="Rectangle" d="M48.9496 0H7.05036C3.15655 0 0 3.15655 0 7.05036V48.9496C0 52.8434 3.15655 56 7.05036 56H48.9496C52.8434 56 56 52.8434 56 48.9496V7.05036C56 3.15655 52.8434 0 48.9496 0Z" fill="#5DB4BC"/>
<path id="leaf-top" fill-rule="evenodd" clip-rule="evenodd" d="M22.8497 19.7068L20.1076 16.9505L18.9831 15.8019C21.3125 13.8419 24.2833 12.6494 27.5254 12.6V24.1321C27.4631 24.1576 27.4049 24.1916 27.3524 24.2329L23.9108 20.7734C23.9607 20.6736 23.9896 20.5616 23.9896 20.4428C23.9896 20.1338 23.7987 19.8674 23.5296 19.7569C23.4176 19.6842 23.2851 19.6421 23.1434 19.6421C23.0389 19.6421 22.9396 19.6655 22.8497 19.7068L22.8497 19.7068ZM20.2329 27.9207L14.7119 22.3349C15.4959 19.9459 16.8912 17.8401 18.7099 16.2069L22.5951 20.1123C22.5452 20.212 22.5163 20.3241 22.5163 20.4428C22.5163 20.724 22.6744 20.97 22.9056 21.0952C23.0232 21.1763 23.1649 21.2238 23.317 21.2238C23.4287 21.2238 23.5344 21.1976 23.6294 21.1518L26.6068 24.1447L27.2521 24.7984C27.2486 24.8271 27.2463 24.856 27.2463 24.8856C27.2463 25.083 27.3243 25.2628 27.4509 25.3958C27.5199 25.4866 27.6091 25.561 27.7116 25.612V34.9543C27.6046 34.9972 27.5101 35.0649 27.4344 35.15L25.4541 33.162C25.4964 33.0683 25.5205 32.9646 25.5205 32.8553C25.5205 32.6938 25.4691 32.544 25.3821 32.4217C25.2597 32.1822 25.0112 32.0173 24.7262 32.0173C24.6068 32.0173 24.4942 32.0469 24.3942 32.0981L20.2329 27.9207ZM41.2414 22.334C41.2396 22.3286 41.2378 22.3233 41.2361 22.3179L35.8356 27.7395L34.6546 28.9204C34.5541 28.8686 34.4406 28.8387 34.3203 28.8387C34.0919 28.8387 33.8869 28.9443 33.7516 29.1091C33.6134 29.2439 33.5271 29.4324 33.5271 29.6401C33.5271 29.7584 33.5557 29.8702 33.6053 29.9696L28.554 35.0207C28.4664 34.9359 28.3579 34.8729 28.2373 34.8398V25.5794C28.316 25.5501 28.3885 25.5076 28.4521 25.4546C28.6492 25.3222 28.7797 25.0974 28.7797 24.8431C28.7797 24.789 28.7734 24.7363 28.7623 24.6855L37.2595 16.1778C39.0957 17.8034 40.5024 19.9037 41.2881 22.2872L41.2414 22.334ZM28.4941 24.275C28.419 24.2145 28.3318 24.1693 28.2373 24.1428V12.6C31.4808 12.6585 34.4515 13.8604 36.7797 15.8294L30.0783 22.6825L28.4941 24.275ZM27.5522 36.2407C27.6003 36.2827 27.6538 36.3186 27.7116 36.3471V44.7897C27.7287 44.7912 27.7457 44.7926 27.7627 44.7938V44.8C23.7012 44.4506 14 34.4288 14 26.8123C14 25.4385 14.1974 24.1111 14.5637 22.8563L14.9591 23.2539L24.0701 32.4239C24.019 32.5244 23.9896 32.6377 23.9896 32.7578C23.9896 32.9985 24.1054 33.2134 24.2838 33.3489C24.4154 33.4731 24.5922 33.5494 24.786 33.5494C24.9027 33.5494 25.013 33.5211 25.1112 33.4718L27.2473 35.6218C27.2471 35.6285 27.2463 35.635 27.2463 35.6417C27.2463 35.8875 27.3673 36.106 27.5522 36.2407ZM34.9788 29.3506L41.4437 22.8563C41.8054 24.1043 42 25.4236 42 26.7887C42 34.3806 32.034 44.3572 28.2373 44.8V36.3885C28.549 36.3025 28.7801 36.0156 28.7801 35.6764C28.7801 35.6452 28.7774 35.6145 28.7736 35.5842L33.99 30.3439C34.0905 30.3957 34.2038 30.4255 34.3239 30.4255C34.729 30.4255 35.0605 30.0929 35.0605 29.6864C35.0605 29.5656 35.0306 29.4516 34.9788 29.3506Z" fill="white"/>
</g>
</svg>
