<svg width="522" height="416" viewBox="0 0 522 416" fill="none" xmlns="http://www.w3.org/2000/svg">
<path d="M112.367 245.806L128.371 256.698L402.453 260.255L418.236 248.251L435.352 230.691L453.358 204.905L477.142 167.116L495.592 132.661L505.151 112.433L498.038 109.988L482.033 98.4288L463.583 83.98L426.461 61.7512L381.781 35.7434L345.77 18.8495L323.541 16.182L293.532 18.8495L268.636 27.0741L256.632 34.1874L243.072 24.8513L222.4 16.182L199.948 13.9591L166.827 21.2946L131.483 36.4103L95.0281 60.1952L46.3469 98.6511L21.8951 123.103L1 143.776L9.89155 161.114L29.2307 184.455L49.9035 205.794L85.692 234.247L112.367 245.806Z" fill="#FAC278"/>
<path d="M110.588 224.689L141.709 239.36L386.226 246.695L406.232 229.357L433.574 194.68L465.361 145.999L479.588 120.658L464.25 113.1L443.132 97.7619L414.679 78.8673L378.668 58.4168L339.768 43.0788L318.428 41.0782L293.754 44.4126L269.525 51.9704L258.41 61.5288L254.187 55.3047L238.849 47.9692L211.285 40.856H185.722L162.382 46.6355L135.04 60.1951L107.699 81.0902L73.6884 106.209L43.9017 127.326L30.1198 145.776L37.6776 160.447L56.5722 180.898L82.5799 205.35L110.588 224.689Z" fill="#FFE48B"/>
<path d="M120.147 198.459L161.27 219.354L358.885 226.245L371.111 222.466L390.672 208.239L404.676 192.457L431.573 148.444L440.465 127.771L420.236 113.544L389.561 93.5384L354.217 74.1993L332.432 67.9752L309.759 65.7523L291.309 70.1981L267.969 84.4246L255.521 88.8703L241.961 79.9788L223.733 70.1981L206.172 65.7523L188.834 69.0866L160.381 78.4228L126.815 96.4282L87.4703 124.659L59.9065 149.111L66.7975 154.89L120.147 198.459Z" fill="#FAC278"/>
<path d="M143.042 188.011L174.83 208.017L339.768 214.463L358.218 201.348L374.445 188.011L392.895 169.561L412.012 145.109L420.903 129.994L399.786 123.103L368.443 103.986L348.882 95.7613L322.652 90.6487L295.088 92.6493L273.304 99.9848L259.077 109.766L235.515 99.9848L209.062 95.7613L183.721 99.9848L154.379 112.655L120.147 132.439L89.9155 145.999V150.444L101.252 157.78L120.147 169.561L143.042 188.011Z" fill="#F58EA3"/>
<path d="M311.537 196.68L199.948 192.901L168.161 172.673L141.042 149.333L189.501 139.108L225.289 134.884L266.413 126.659L301.757 128.882L346.437 134.884L382.892 139.108L375.112 153.112L340.657 183.788L311.537 196.68Z" fill="#49465F"/>
<path d="M193.724 187.122L190.835 200.904L248.407 220.688L313.76 210.685V190.012L306.425 176.008L295.755 171.784H282.64L263.078 176.008L249.519 186.011L242.85 179.564L227.957 174.229L208.84 176.008L193.724 187.122Z" fill="#EF4266"/>
<path d="M175.274 207.35L190.612 200.015V216.464L70.3541 383.181L53.4601 386.96L42.1234 381.402L35.2325 372.289L30.3421 355.395L32.7873 337.167L42.1234 321.829L53.4601 310.492L73.2438 296.933L106.587 275.815L126.371 257.81L149.044 233.358L175.274 207.35Z" fill="#6FCEA5"/>
<path d="M213.508 193.568L216.842 200.459L207.951 209.795L196.614 231.58L189.501 254.698L180.387 278.038L159.492 310.714L143.487 325.163L125.926 342.279L120.147 365.398L122.814 386.07L108.81 396.073L85.0251 393.628L67.6866 381.18L63.2408 361.619L75.2444 339.39L92.1384 323.607L120.147 300.712L142.153 282.706L149.044 265.59L156.158 251.363L165.938 238.248L176.164 220.688L187.278 204.905L199.948 196.014L213.508 193.568Z" fill="#986EA8"/>
<path d="M236.848 194.68L240.627 200.459L238.627 219.576L243.517 242.694L245.518 270.036L233.292 293.598L211.73 331.832L196.614 363.397L191.057 387.626L174.607 397.852L151.045 404.076L136.374 400.075L123.481 387.626L119.924 367.176L123.481 348.948L136.374 331.832L154.379 316.049L172.385 293.598L184.166 270.036L192.391 248.474L196.169 232.469L203.505 217.576L215.731 200.459L225.512 194.68H236.848Z" fill="#6FCEA5"/>
<path d="M244.406 198.681L238.849 204.016L240.849 227.578L246.184 255.809L245.295 270.925L233.736 293.376L219.287 318.272L199.726 354.728L192.391 381.625L199.059 400.741L218.176 410.077H235.737L246.851 400.741L253.965 385.626L263.301 353.616L279.972 324.941L284.64 304.046L282.417 279.816L275.749 258.477L261.522 229.579L252.853 217.798L249.074 202.46L244.406 198.681Z" fill="#986EA8"/>
<path d="M253.298 200.682H248.185L253.298 218.909L261.522 230.468L269.525 245.362L279.083 264.701L283.751 285.151V311.381L277.527 331.165L266.413 346.725L258.41 368.51L252.853 391.85L258.41 404.076L272.414 412.3L288.197 413.856L302.201 409.411L307.758 394.295L316.428 372.511L325.319 352.727L331.099 327.608L329.098 301.823L322.874 282.484L306.647 256.698L285.085 232.247L265.524 209.573L253.298 200.682Z" fill="#6FCEA5"/>
<path d="M269.525 204.016V214.686L281.084 229.357L296.866 246.695L314.427 268.924L327.32 292.487L329.987 322.051L327.32 348.726L314.427 377.623V388.071L329.987 408.966L347.993 412.3L366.665 408.966L386.449 397.852L397.785 383.403V364.731L389.783 335.388L376.668 301.823L351.772 258.032L322.874 229.357L299.089 209.351L279.528 200.904L269.525 204.016Z" fill="#986EA8"/>
<path d="M302.646 197.125L299.089 208.906L318.651 225.8L333.544 239.36L348.215 255.142L361.997 274.481L376.223 301.823L393.784 345.614L399.119 375.623L393.34 388.738L418.68 398.963L441.576 401.853L457.581 396.74L478.254 383.625L490.702 367.843L494.259 349.393L486.923 335.611L472.697 321.829L435.13 299.6L418.458 276.037L401.564 258.921L369.332 235.136L341.102 213.797L316.65 198.014L302.646 197.125Z" fill="#6FCEA5"/>
<path d="M156.602 150.889L158.825 145.554L184.833 138.885L200.615 135.551L222.177 134.217L253.298 129.994L251.297 148.666L240.849 155.557L227.957 154.668L223.289 145.554L218.843 156.446L193.724 154.668L190.612 147.555L189.501 150.889L183.721 156.446H172.385L156.602 150.889Z" fill="white"/>
<path d="M263.523 146.221L261.745 128.66H293.976V135.106L291.087 150L282.862 153.112H267.524L263.523 146.221Z" fill="white"/>
<path d="M297.978 143.553L299.756 129.771L328.431 132.884L329.098 138.663L328.431 150H302.868L297.978 143.553Z" fill="white"/>
<path d="M336.878 141.108L338.434 135.106L362.886 137.552L361.33 147.332L357.329 150.667L342.658 147.332L336.878 141.108Z" fill="white"/>
<path d="M90.3601 150.667C86.538 143.023 105.02 139.061 112.664 135.238C165.889 108.626 196.902 78.5665 259.299 109.766" stroke="#373635" stroke-miterlimit="10" stroke-linecap="round" stroke-linejoin="round"/>
<path d="M90.5824 150.889C94.4706 153.76 111.038 163.36 119.973 170.061C138.038 183.609 155.292 197.823 175.43 207.892" stroke="#373635" stroke-miterlimit="10" stroke-linecap="round" stroke-linejoin="round"/>
<path d="M259.692 109.874C261.896 105.465 277.302 97.3035 282.046 96.1174C312.991 88.3817 339.15 87.3881 368.025 104.715C379.656 111.694 407.393 130.509 421.335 130.509" stroke="#373635" stroke-miterlimit="10" stroke-linecap="round" stroke-linejoin="round"/>
<path d="M422.193 130.939C414.746 142.904 404.838 152.785 396.403 164.042C380.963 184.626 363.144 201.091 340.084 212.621" stroke="#373635" stroke-miterlimit="10" stroke-linecap="round" stroke-linejoin="round"/>
<path d="M137.93 147.332C155.817 147.332 179.531 139.069 197.356 136.098C213.42 133.421 231.061 134.873 246.794 130.939C289.568 120.246 340.919 138.248 383.074 138.248" stroke="#373635" stroke-miterlimit="10" stroke-linecap="round" stroke-linejoin="round"/>
<path d="M137.93 147.332C154.129 162.97 171.62 176.959 191.946 187.122" stroke="#373635" stroke-miterlimit="10" stroke-linecap="round" stroke-linejoin="round"/>
<path d="M316.65 196.458C343.316 183.126 369.568 166.199 383.559 138.218" stroke="#373635" stroke-miterlimit="10" stroke-linecap="round" stroke-linejoin="round"/>
<path d="M225.299 134.809C225.299 151.646 223.141 158.971 242.925 155.014C249.906 153.618 252.813 145.54 252.813 139.108C252.813 136.828 252.813 129.834 252.813 130.509" stroke="#373635" stroke-miterlimit="10" stroke-linecap="round" stroke-linejoin="round"/>
<path d="M262.271 130.939C262.271 149.187 262.721 157.304 284.196 153.724C293.484 152.176 292.255 145.138 293.224 137.388C293.427 135.761 294.084 128.692 294.084 130.079" stroke="#373635" stroke-miterlimit="10" stroke-linecap="round" stroke-linejoin="round"/>
<path d="M298.813 130.08C300.312 134.578 295.21 142.383 299.672 146.846C302.397 149.571 326.288 153.358 328.907 148.995C331.419 144.809 327.084 138.02 328.907 134.379" stroke="#373635" stroke-miterlimit="10" stroke-linecap="round" stroke-linejoin="round"/>
<path d="M223.15 136.098C220.451 141.496 222.964 149.797 220.14 155.444C218.775 158.175 195.361 156.029 193.916 154.584C191.245 151.913 190.907 141.52 190.907 137.818" stroke="#373635" stroke-miterlimit="10" stroke-linecap="round" stroke-linejoin="round"/>
<path d="M189.617 140.827C188.799 140.009 189.666 154.737 185.748 156.304C180.924 158.233 143.733 153.237 160.814 144.696" stroke="#373635" stroke-miterlimit="10" stroke-linecap="round" stroke-linejoin="round"/>
<path d="M337.505 136.098C331.966 147.174 354.208 154.648 360.716 148.136C363.197 145.658 361.481 141.455 362.868 138.678" stroke="#373635" stroke-miterlimit="10" stroke-linecap="round" stroke-linejoin="round"/>
<path d="M190.612 197.125C190.612 181.998 214.938 171.988 226.589 173.93C234.853 175.307 239.923 176.516 245.935 182.528C246.25 182.844 249.204 186.567 249.374 186.397C265.135 170.635 313.093 158.209 313.093 196.014" stroke="#373635" stroke-miterlimit="10" stroke-linecap="round" stroke-linejoin="round"/>
<path d="M249.374 203.808C247.139 195.077 240.019 200.173 238.626 205.743C234.807 221.018 249.51 248.912 245.075 271.088C239.635 298.284 145.965 401.106 223.58 410.807C250.913 414.225 255.03 382.593 259.692 363.947C262.852 351.304 272.056 340.937 277.747 329.555C289.645 305.76 285.051 272.656 271.729 250.453C265.564 240.178 262.842 228.239 254.103 219.5C251.76 217.157 249.933 205.994 249.374 203.808Z" stroke="#373635" stroke-miterlimit="10" stroke-linecap="round" stroke-linejoin="round"/>
<path d="M255.521 382.291C240.687 411.956 299.498 427.407 306.122 400.919C311.386 379.863 325.226 360.002 329.334 339.443C338.572 293.254 311.173 258.512 282.046 229.387C276.421 223.762 255.91 196.455 249.374 199.724" stroke="#373635" stroke-miterlimit="10" stroke-linecap="round" stroke-linejoin="round"/>
<path d="M268.858 213.13C268.858 176.614 327.587 232.796 340.084 245.294C364.029 269.238 392.477 333.539 398.119 367.386C403.965 402.453 352.923 424.091 327.186 404.787C322.638 401.377 311.084 390.199 315.094 376.956" stroke="#373635" stroke-miterlimit="10" stroke-linecap="round" stroke-linejoin="round"/>
<path d="M299.24 210.902C299.24 176.358 338.697 212.441 352.123 222.509C370.342 236.174 389.547 249.269 407.148 263.35C419.516 273.246 424.749 290.416 436.81 299.462C453.558 312.02 474.27 318.884 487.11 336.003C508.583 364.632 474.061 393.756 448.849 400.061C429.568 404.88 409.802 397.087 394.251 389.311" stroke="#373635" stroke-miterlimit="10" stroke-linecap="round" stroke-linejoin="round"/>
<path d="M239.293 204.016C245.342 191.92 224.737 192.118 218.85 198.004C209.614 207.242 197.438 223.814 194.776 237.126C189.419 263.909 176.382 287.159 160.384 308.49C148.582 324.225 124.83 334.801 121.263 356.209C117.97 375.967 121.68 399.554 145.337 403.498C158.334 405.663 193.057 396.377 193.057 379.846" stroke="#373635" stroke-miterlimit="10" stroke-linecap="round" stroke-linejoin="round"/>
<path d="M215.841 198.864C215.841 186.461 196.566 196.984 191.767 200.584C175.429 212.837 170.877 233.037 158.664 248.303C149.833 259.342 148.389 275.345 138.029 285.705C114.183 309.551 85.0509 321.983 67.0949 351.91C46.4007 386.4 109.045 412.722 123.037 384.737" stroke="#373635" stroke-miterlimit="10" stroke-linecap="round" stroke-linejoin="round"/>
<path d="M69.2445 383.293C34.527 400.652 20.4201 348.132 38.7211 325.256C56.8323 302.617 86.0455 291.052 109.225 273.667C139.238 251.158 156.508 215.419 190.477 198.434" stroke="#373635" stroke-miterlimit="10" stroke-linecap="round" stroke-linejoin="round"/>
<path d="M358.569 225.948C392.704 225.948 427.652 155.397 440.687 129.327" stroke="#373635" stroke-miterlimit="10" stroke-linecap="round" stroke-linejoin="round"/>
<path d="M59.6842 149.555C79.9125 166.227 105.198 186.494 125.132 201.444C135.006 208.849 153.211 211.897 161.243 219.93" stroke="#373635" stroke-miterlimit="10" stroke-linecap="round" stroke-linejoin="round"/>
<path d="M59.3565 149.425C90.8188 117.963 169.605 58.3247 216.701 67.7439C231.046 70.6128 243.031 82.7364 255.298 88.8703" stroke="#373635" stroke-miterlimit="10" stroke-linecap="round" stroke-linejoin="round"/>
<path d="M255.392 88.8089C267.256 88.8089 282.469 71.5669 295.803 68.6033C334.815 59.9345 372.889 79.7142 401.991 102.996C407.73 107.589 443.51 123.565 440.683 129.22" stroke="#373635" stroke-miterlimit="10" stroke-linecap="round" stroke-linejoin="round"/>
<path d="M258.855 62.6403C250.707 46.3443 206.131 38.273 190.477 40.23C146.047 45.7837 119.82 71.7279 85.5804 97.4071C66.661 111.597 40.7546 124.951 29.8975 146.665" stroke="#373635" stroke-miterlimit="10" stroke-linecap="round" stroke-linejoin="round"/>
<path d="M30.1198 146.888C36.1009 160.23 48.7719 174.093 58.9267 184.248C82.2194 207.541 111.502 229.217 143.265 239.804" stroke="#373635" stroke-miterlimit="10" stroke-linecap="round" stroke-linejoin="round"/>
<path d="M258.832 62.5852C266.507 47.2344 300.463 43.5559 314.72 41.5198C351.74 36.2306 420.254 81.2281 449.281 102.996C455.909 107.969 473.297 120.192 481.953 120.192" stroke="#373635" stroke-miterlimit="10" stroke-linecap="round" stroke-linejoin="round"/>
<path d="M481.588 120.435C466.046 151.52 415.8 230.65 386.511 245.294" stroke="#373635" stroke-miterlimit="10" stroke-linecap="round" stroke-linejoin="round"/>
<path d="M256.682 35.0712C254.632 32.4091 253.351 31.3906 251.953 30.3422C235.974 18.3582 214.167 12.4027 193.917 15.2955C137.318 23.3811 107.254 52.8597 61.2402 85.0915C36.7345 105.735 1.44458 143.553 1.44458 143.553" stroke="#373635" stroke-miterlimit="10" stroke-linecap="round" stroke-linejoin="round"/>
<path d="M1.44458 143.553C4.71096 153.969 5.7609 156.374 9.4878 161.033C34.0316 191.714 62.203 221.998 98.4775 240.135C105.408 243.6 123.872 250.513 127.281 257.331" stroke="#373635" stroke-miterlimit="10" stroke-linecap="round" stroke-linejoin="round"/>
<path d="M256.632 35.0765C260.633 27.5187 277.168 23.7815 281.186 22.174C304.571 12.8196 328.565 12.4937 351.691 21.744C389.094 36.7045 424.429 60.9167 458.737 81.5006C470.26 88.4155 491.271 110.734 505.164 110.734" stroke="#373635" stroke-miterlimit="10" stroke-linecap="round" stroke-linejoin="round"/>
<path d="M505.164 113.314C501.799 114.996 485.06 156.457 479.374 164.042C462.969 185.911 450.508 211.125 434.232 232.827C425.918 243.91 413.274 250.343 403.707 259.91" stroke="#373635" stroke-miterlimit="10" stroke-linecap="round" stroke-linejoin="round"/>
<path d="M214.694 63.6802C219.435 65.2909 205.382 68.238 200.384 68.238L214.694 63.6802Z" fill="white"/>
<path d="M214.694 63.6802C219.435 65.2909 205.382 68.238 200.384 68.238" stroke="#373635" stroke-miterlimit="10" stroke-linecap="round" stroke-linejoin="round"/>
<path d="M198.212 36.9251C201.725 37.1967 204.825 49.2381 208.833 50.5994C211.047 51.3516 221.187 45.188 223.142 47.181C223.424 47.4673 215.193 61.0558 214.646 62.4505C214.065 63.9314 221.74 69.7033 220.683 72.934C219.849 75.4846 206.428 67.8828 204.361 69.2876C201.418 71.2873 198.81 80.046 195.417 80.9107C193.859 81.3072 196.46 63.3236 195.641 62.9062C192.916 61.5173 188.327 60.3343 185.132 59.0317C178.214 56.2113 197.782 52.6813 198.995 50.8274C201.203 47.4518 194.832 36.6641 198.212 36.9251Z" fill="white" stroke="#373635" stroke-miterlimit="10" stroke-linecap="round" stroke-linejoin="round"/>
<path d="M296.526 37.7061C293.843 40.8422 301.063 51.665 298.094 54.4067C293.644 58.5146 275.884 54.6205 289.893 61.0869C292.483 62.2828 295.577 63.2965 297.852 64.8725C299.445 65.9764 297.936 79.3204 300.747 78.4552C303.811 77.5118 305.602 65.763 309.43 65.763C312.72 65.763 320.745 72.3827 323.901 70.439C324.928 69.8064 317.046 58.6986 316.668 57.3013C315.779 54.0208 323.421 48.2533 323.421 45.0546C323.421 39.5636 310.759 50.7723 305.811 47.7265C302.237 45.5258 299.854 33.8156 296.526 37.7061Z" fill="white" stroke="#373635" stroke-miterlimit="10" stroke-linecap="round" stroke-linejoin="round"/>
<path d="M462.778 41.6042C460.906 43.6519 465.943 50.7185 463.872 52.5088C460.769 55.1914 448.369 52.6484 458.15 56.871C459.955 57.6516 462.116 58.3136 463.703 59.3424C464.819 60.0635 463.761 68.7768 465.726 68.2117C467.864 67.596 469.113 59.9243 471.785 59.9243C474.079 59.9243 479.681 64.2465 481.886 62.9777C482.606 62.5642 477.102 55.3114 476.836 54.3991C476.218 52.2571 481.548 48.4907 481.548 46.4021C481.548 42.817 472.714 50.1361 469.26 48.147C466.766 46.7097 465.103 39.0634 462.778 41.6042Z" fill="white" stroke="#373635" stroke-miterlimit="10" stroke-linecap="round" stroke-linejoin="round"/>
<path d="M58.9822 1.51312C57.1092 3.56084 62.1494 10.6274 60.0763 12.4177C56.9705 15.1003 44.5739 12.5573 54.3524 16.7795C56.1605 17.5606 58.3198 18.2226 59.9083 19.2513C61.0211 19.9724 59.9665 28.6852 61.9285 28.1206C64.0682 27.5045 65.3193 19.8328 67.9894 19.8328C70.2843 19.8328 75.8864 24.1554 78.0906 22.8862C78.8082 22.4732 73.3039 15.2203 73.0398 14.3081C72.42 12.1656 77.7541 8.39962 77.7541 6.311C77.7541 2.72548 68.9181 10.0446 65.4637 8.05597C62.9679 6.61865 61.3056 -1.02764 58.9822 1.51312Z" fill="white" stroke="#373635" stroke-miterlimit="10" stroke-linecap="round" stroke-linejoin="round"/>
<path d="M97.2683 41.5611C95.8697 43.4367 99.6344 49.9102 98.0859 51.5503C95.7661 54.0075 86.5064 51.6783 93.8104 55.5461C95.161 56.2615 96.7735 56.8679 97.9601 57.8104C98.7914 58.4706 98.0037 66.4525 99.469 65.935C101.068 65.3709 102.002 58.343 103.996 58.343C105.711 58.343 109.895 62.3028 111.541 61.1403C112.078 60.7615 107.966 54.1177 107.769 53.2819C107.306 51.3195 111.29 47.8696 111.29 45.9566C111.29 42.6721 104.69 49.3767 102.11 47.5549C100.246 46.238 99.004 39.2337 97.2683 41.5611Z" fill="white" stroke="#373635" stroke-miterlimit="10" stroke-linecap="round" stroke-linejoin="round"/>
<path d="M421.895 230.544C420.699 233.025 424.104 239.006 422.708 241.096C419.583 245.79 407.722 241.312 417.436 247.139C418.814 247.967 420.29 248.459 421.463 249.633C423.042 251.211 420.788 258.839 422.904 259.897C423.74 260.315 428.537 251.222 429.906 250.88C430.613 250.702 440.838 254.822 440.838 253.47C440.838 251.017 433.445 247.47 434.223 244.357C434.485 243.296 440.029 235.682 439.402 235.053C438.397 234.049 429.875 237.259 428.274 237.259C426.629 237.259 423.251 227.736 421.895 230.544Z" fill="white" stroke="#373635" stroke-miterlimit="10" stroke-linecap="round" stroke-linejoin="round"/>
<path d="M502.057 182.721C500.856 185.201 504.266 191.182 502.87 193.272C499.745 197.966 487.883 193.488 497.597 199.315C498.976 200.144 500.452 200.635 501.625 201.809C503.203 203.387 500.95 211.015 503.066 212.073C503.902 212.492 508.699 203.398 510.068 203.056C510.775 202.879 521 206.999 521 205.646C521 203.194 513.602 199.647 514.385 196.533C514.647 195.472 520.191 187.858 519.564 187.229C518.559 186.225 510.032 189.435 508.436 189.435C506.791 189.435 503.412 179.913 502.057 182.721Z" fill="white" stroke="#373635" stroke-miterlimit="10" stroke-linecap="round" stroke-linejoin="round"/>
<path d="M490.511 227.402C489.768 228.749 491.885 231.998 491.018 233.133C489.075 235.683 481.713 233.251 487.741 236.415C488.599 236.865 489.515 237.132 490.244 237.77C491.227 238.628 489.826 242.771 491.138 243.345C491.658 243.572 494.641 238.633 495.486 238.448C495.93 238.351 502.279 240.589 502.279 239.854C502.279 238.522 497.686 236.595 498.171 234.905C498.335 234.328 501.776 230.193 501.385 229.851C500.763 229.305 495.468 231.049 494.476 231.049C493.454 231.049 491.355 225.877 490.511 227.402Z" fill="white" stroke="#373635" stroke-miterlimit="10" stroke-linecap="round" stroke-linejoin="round"/>
<path d="M59.4148 220.911C59.5713 218.822 58.6012 227.748 60.588 227.085C61.5639 226.76 62.863 221.684 64.0571 221.983C65.3513 222.307 69.9077 224.783 71.1988 223.922C71.7398 223.561 66.9486 218.476 67.2198 217.391C67.6408 215.707 70.7907 213.61 70.7907 211.88C70.7907 211.674 64.6448 213.583 63.9553 213.41C63.5952 213.32 60.0332 207.661 59.8741 207.9C59.1036 209.056 60.9219 215.182 59.7722 215.758C59.2272 216.03 52.6301 217.904 52.6301 218.513C52.6301 218.526 59.329 222.063 59.4148 220.911Z" fill="white" stroke="#373635" stroke-miterlimit="10" stroke-linecap="round" stroke-linejoin="round"/>
<path d="M132.155 200.348C134.443 199.743 130.664 188.507 132.542 187.568C135.133 186.272 140.431 198.424 142.03 198.025C144.329 197.45 148.999 191.182 151.519 192.022C152.873 192.473 147.543 201.966 147.839 203.446C147.984 204.172 154.568 209.886 154.036 210.417C151.533 212.92 143.067 207.878 140.675 208.675C138.753 209.315 137.99 219.187 135.834 219.906C133.924 220.543 133.775 208.226 132.736 207.706C126.013 204.345 119.158 203.785 132.155 200.348Z" fill="white" stroke="#373635" stroke-miterlimit="10" stroke-linecap="round" stroke-linejoin="round"/>
</svg>
