<svg width="525" height="419" viewBox="0 0 525 419" fill="none" xmlns="http://www.w3.org/2000/svg">
<path d="M113.367 247.806L129.371 258.698L403.453 262.255L419.236 250.251L436.352 232.691L454.358 206.905L478.142 169.116L496.592 134.661L506.151 114.433L499.038 111.988L483.033 100.429L464.583 85.98L427.461 63.7512L382.781 37.7434L346.77 20.8495L324.541 18.182L294.532 20.8495L269.636 29.0741L257.632 36.1874L244.072 26.8513L223.4 18.182L200.948 15.9591L167.827 23.2946L132.483 38.4103L96.0281 62.1952L47.3469 100.651L22.8951 125.103L2 145.776L10.8915 163.114L30.2307 186.455L50.9035 207.794L86.692 236.247L113.367 247.806Z" fill="#FAC278"/>
<path d="M111.588 226.689L142.709 241.36L387.226 248.695L407.232 231.357L434.574 196.68L466.361 147.999L480.588 122.658L465.25 115.1L444.132 99.7619L415.679 80.8673L379.668 60.4168L340.768 45.0788L319.428 43.0782L294.754 46.4126L270.525 53.9704L259.41 63.5288L255.187 57.3047L239.849 49.9692L212.285 42.856H186.722L163.382 48.6355L136.04 62.1951L108.699 83.0902L74.6884 108.209L44.9017 129.326L31.1198 147.776L38.6776 162.447L57.5722 182.898L83.5799 207.35L111.588 226.689Z" fill="#FFE48B"/>
<path d="M121.147 200.459L162.27 221.354L359.885 228.245L372.111 224.466L391.672 210.239L405.676 194.457L432.573 150.444L441.465 129.771L421.236 115.544L390.561 95.5384L355.217 76.1993L333.432 69.9752L310.759 67.7523L292.309 72.1981L268.969 86.4246L256.521 90.8703L242.961 81.9788L224.733 72.1981L207.172 67.7523L189.834 71.0866L161.381 80.4228L127.815 98.4282L88.4703 126.659L60.9065 151.111L67.7975 156.89L121.147 200.459Z" fill="#FAC278"/>
<path d="M144.042 190.011L175.83 210.017L340.768 216.463L359.218 203.348L375.445 190.011L393.895 171.561L413.012 147.109L421.903 131.994L400.786 125.103L369.443 105.986L349.882 97.7613L323.652 92.6487L296.088 94.6493L274.304 101.985L260.077 111.766L236.515 101.985L210.062 97.7613L184.721 101.985L155.379 114.655L121.147 134.439L90.9155 147.999V152.444L102.252 159.78L121.147 171.561L144.042 190.011Z" fill="#F58EA3"/>
<path d="M312.537 198.68L200.948 194.901L169.161 174.673L142.042 151.333L190.501 141.108L226.289 136.884L267.413 128.659L302.757 130.882L347.437 136.884L383.892 141.108L376.112 155.112L341.657 185.788L312.537 198.68Z" fill="#49465F"/>
<path d="M194.724 189.122L191.835 202.904L249.407 222.688L314.76 212.685V192.012L307.425 178.008L296.755 173.784H283.64L264.078 178.008L250.519 188.011L243.85 181.564L228.957 176.229L209.84 178.008L194.724 189.122Z" fill="#EF4266"/>
<path d="M176.274 209.35L191.612 202.015V218.464L71.3541 385.181L54.4601 388.96L43.1234 383.402L36.2325 374.289L31.3421 357.395L33.7873 339.167L43.1234 323.829L54.4601 312.492L74.2438 298.933L107.587 277.815L127.371 259.81L150.044 235.358L176.274 209.35Z" fill="#6FCEA5"/>
<path d="M214.508 195.568L217.842 202.459L208.951 211.795L197.614 233.58L190.501 256.698L181.387 280.038L160.492 312.714L144.487 327.163L126.926 344.279L121.147 367.398L123.814 388.07L109.81 398.073L86.0251 395.628L68.6866 383.18L64.2408 363.619L76.2444 341.39L93.1384 325.607L121.147 302.712L143.153 284.706L150.044 267.59L157.158 253.363L166.938 240.248L177.164 222.688L188.278 206.905L200.948 198.014L214.508 195.568Z" fill="#986EA8"/>
<path d="M237.848 196.68L241.627 202.459L239.627 221.576L244.517 244.694L246.518 272.036L234.292 295.598L212.73 333.832L197.614 365.397L192.057 389.626L175.607 399.852L152.045 406.076L137.374 402.075L124.481 389.626L120.924 369.176L124.481 350.948L137.374 333.832L155.379 318.049L173.385 295.598L185.166 272.036L193.391 250.474L197.169 234.469L204.505 219.576L216.731 202.459L226.512 196.68H237.848Z" fill="#6FCEA5"/>
<path d="M245.406 200.681L239.849 206.016L241.849 229.578L247.184 257.809L246.295 272.925L234.736 295.376L220.287 320.272L200.726 356.728L193.391 383.625L200.059 402.741L219.176 412.077H236.737L247.851 402.741L254.965 387.626L264.301 355.616L280.972 326.941L285.64 306.046L283.417 281.816L276.749 260.477L262.522 231.579L253.853 219.798L250.074 204.46L245.406 200.681Z" fill="#986EA8"/>
<path d="M254.298 202.682H249.185L254.298 220.909L262.522 232.468L270.525 247.362L280.083 266.701L284.751 287.151V313.381L278.527 333.165L267.413 348.725L259.41 370.51L253.853 393.85L259.41 406.076L273.414 414.3L289.197 415.856L303.201 411.411L308.758 396.295L317.428 374.511L326.319 354.727L332.099 329.608L330.098 303.823L323.874 284.484L307.647 258.698L286.085 234.247L266.524 211.573L254.298 202.682Z" fill="#6FCEA5"/>
<path d="M270.525 206.016V216.686L282.084 231.357L297.866 248.695L315.427 270.924L328.32 294.487L330.987 324.051L328.32 350.726L315.427 379.623V390.071L330.987 410.966L348.993 414.3L367.665 410.966L387.449 399.852L398.785 385.403V366.731L390.783 337.388L377.668 303.823L352.772 260.032L323.874 231.357L300.089 211.351L280.528 202.904L270.525 206.016Z" fill="#986EA8"/>
<path d="M303.646 199.125L300.089 210.906L319.651 227.8L334.544 241.36L349.215 257.142L362.997 276.481L377.223 303.823L394.784 347.614L400.119 377.623L394.34 390.738L419.68 400.963L442.576 403.853L458.581 398.74L479.254 385.625L491.702 369.843L495.259 351.393L487.923 337.611L473.697 323.829L436.13 301.6L419.458 278.037L402.564 260.921L370.332 237.136L342.102 215.797L317.65 200.014L303.646 199.125Z" fill="#6FCEA5"/>
<path d="M157.602 152.889L159.825 147.554L185.833 140.885L201.615 137.551L223.177 136.217L254.298 131.994L252.297 150.666L241.849 157.557L228.957 156.668L224.289 147.554L219.843 158.446L194.724 156.668L191.612 149.555L190.501 152.889L184.721 158.446H173.385L157.602 152.889Z" fill="white"/>
<path d="M264.523 148.221L262.745 130.66H294.976V137.106L292.087 152L283.862 155.112H268.524L264.523 148.221Z" fill="white"/>
<path d="M298.978 145.553L300.756 131.771L329.431 134.884L330.098 140.663L329.431 152H303.868L298.978 145.553Z" fill="white"/>
<path d="M337.878 143.108L339.434 137.106L363.886 139.552L362.33 149.332L358.329 152.667L343.658 149.332L337.878 143.108Z" fill="white"/>
<path d="M91.3601 152.667C87.538 145.023 106.02 141.061 113.664 137.238C166.889 110.626 197.902 80.5665 260.299 111.766" stroke="#373635" stroke-width="4.44577" stroke-miterlimit="10" stroke-linecap="round" stroke-linejoin="round"/>
<path d="M91.5824 152.889C95.4706 155.76 112.038 165.36 120.973 172.061C139.038 185.609 156.292 199.823 176.43 209.892" stroke="#373635" stroke-width="4.44577" stroke-miterlimit="10" stroke-linecap="round" stroke-linejoin="round"/>
<path d="M260.692 111.874C262.896 107.465 278.302 99.3035 283.046 98.1174C313.991 90.3817 340.15 89.3881 369.025 106.715C380.656 113.694 408.393 132.509 422.335 132.509" stroke="#373635" stroke-width="4.44577" stroke-miterlimit="10" stroke-linecap="round" stroke-linejoin="round"/>
<path d="M423.193 132.939C415.746 144.904 405.838 154.785 397.403 166.042C381.963 186.626 364.144 203.091 341.084 214.621" stroke="#373635" stroke-width="4.44577" stroke-miterlimit="10" stroke-linecap="round" stroke-linejoin="round"/>
<path d="M138.93 149.332C156.817 149.332 180.531 141.069 198.356 138.098C214.42 135.421 232.061 136.873 247.794 132.939C290.568 122.246 341.919 140.248 384.074 140.248" stroke="#373635" stroke-width="4.44577" stroke-miterlimit="10" stroke-linecap="round" stroke-linejoin="round"/>
<path d="M138.93 149.332C155.129 164.97 172.62 178.959 192.946 189.122" stroke="#373635" stroke-width="4.44577" stroke-miterlimit="10" stroke-linecap="round" stroke-linejoin="round"/>
<path d="M317.65 198.458C344.316 185.126 370.568 168.199 384.559 140.218" stroke="#373635" stroke-width="4.44577" stroke-miterlimit="10" stroke-linecap="round" stroke-linejoin="round"/>
<path d="M226.299 136.809C226.299 153.646 224.141 160.971 243.925 157.014C250.906 155.618 253.813 147.54 253.813 141.108C253.813 138.828 253.813 131.834 253.813 132.509" stroke="#373635" stroke-width="4.44577" stroke-miterlimit="10" stroke-linecap="round" stroke-linejoin="round"/>
<path d="M263.271 132.939C263.271 151.187 263.721 159.304 285.196 155.724C294.484 154.176 293.255 147.138 294.224 139.388C294.427 137.761 295.084 130.692 295.084 132.079" stroke="#373635" stroke-width="4.44577" stroke-miterlimit="10" stroke-linecap="round" stroke-linejoin="round"/>
<path d="M299.813 132.08C301.312 136.578 296.21 144.383 300.672 148.846C303.397 151.571 327.288 155.358 329.907 150.995C332.419 146.809 328.084 140.02 329.907 136.379" stroke="#373635" stroke-width="4.44577" stroke-miterlimit="10" stroke-linecap="round" stroke-linejoin="round"/>
<path d="M224.15 138.098C221.451 143.496 223.964 151.797 221.14 157.444C219.775 160.175 196.361 158.029 194.916 156.584C192.245 153.913 191.907 143.52 191.907 139.818" stroke="#373635" stroke-width="4.44577" stroke-miterlimit="10" stroke-linecap="round" stroke-linejoin="round"/>
<path d="M190.617 142.827C189.799 142.009 190.666 156.737 186.748 158.304C181.924 160.233 144.733 155.237 161.814 146.696" stroke="#373635" stroke-width="4.44577" stroke-miterlimit="10" stroke-linecap="round" stroke-linejoin="round"/>
<path d="M338.505 138.098C332.966 149.174 355.208 156.648 361.716 150.136C364.197 147.658 362.481 143.455 363.868 140.678" stroke="#373635" stroke-width="4.44577" stroke-miterlimit="10" stroke-linecap="round" stroke-linejoin="round"/>
<path d="M191.612 199.125C191.612 183.998 215.938 173.988 227.589 175.93C235.853 177.307 240.923 178.516 246.935 184.528C247.25 184.844 250.204 188.567 250.374 188.397C266.135 172.635 314.093 160.209 314.093 198.014" stroke="#373635" stroke-width="4.44577" stroke-miterlimit="10" stroke-linecap="round" stroke-linejoin="round"/>
<path d="M250.374 205.808C248.139 197.077 241.019 202.173 239.626 207.743C235.807 223.018 250.51 250.912 246.075 273.088C240.635 300.284 146.965 403.106 224.58 412.807C251.913 416.225 256.03 384.593 260.692 365.947C263.852 353.304 273.056 342.937 278.747 331.555C290.645 307.76 286.051 274.656 272.729 252.453C266.564 242.178 263.842 230.239 255.103 221.5C252.76 219.157 250.933 207.994 250.374 205.808Z" stroke="#373635" stroke-width="4.44577" stroke-miterlimit="10" stroke-linecap="round" stroke-linejoin="round"/>
<path d="M256.521 384.291C241.687 413.956 300.498 429.407 307.122 402.919C312.386 381.863 326.226 362.002 330.334 341.443C339.572 295.254 312.173 260.512 283.046 231.387C277.421 225.762 256.91 198.455 250.374 201.724" stroke="#373635" stroke-width="4.44577" stroke-miterlimit="10" stroke-linecap="round" stroke-linejoin="round"/>
<path d="M269.858 215.13C269.858 178.614 328.587 234.796 341.084 247.294C365.029 271.238 393.477 335.539 399.119 369.386C404.965 404.453 353.923 426.091 328.186 406.787C323.638 403.377 312.084 392.199 316.094 378.956" stroke="#373635" stroke-width="4.44577" stroke-miterlimit="10" stroke-linecap="round" stroke-linejoin="round"/>
<path d="M300.24 212.902C300.24 178.358 339.697 214.441 353.123 224.509C371.342 238.174 390.547 251.269 408.148 265.35C420.516 275.246 425.749 292.416 437.81 301.462C454.558 314.02 475.27 320.884 488.11 338.003C509.583 366.632 475.061 395.756 449.849 402.061C430.568 406.88 410.802 399.087 395.251 391.311" stroke="#373635" stroke-width="4.44577" stroke-miterlimit="10" stroke-linecap="round" stroke-linejoin="round"/>
<path d="M240.293 206.016C246.342 193.92 225.737 194.118 219.85 200.004C210.614 209.242 198.438 225.814 195.776 239.126C190.419 265.909 177.382 289.159 161.384 310.49C149.582 326.225 125.83 336.801 122.263 358.209C118.97 377.967 122.68 401.554 146.337 405.498C159.334 407.663 194.057 398.377 194.057 381.846" stroke="#373635" stroke-width="4.44577" stroke-miterlimit="10" stroke-linecap="round" stroke-linejoin="round"/>
<path d="M216.841 200.864C216.841 188.461 197.566 198.984 192.767 202.584C176.429 214.837 171.877 235.037 159.664 250.303C150.833 261.342 149.389 277.345 139.029 287.705C115.183 311.551 86.0509 323.983 68.0949 353.91C47.4007 388.4 110.045 414.722 124.037 386.737" stroke="#373635" stroke-width="4.44577" stroke-miterlimit="10" stroke-linecap="round" stroke-linejoin="round"/>
<path d="M70.2445 385.293C35.527 402.652 21.4201 350.132 39.7211 327.256C57.8323 304.617 87.0455 293.052 110.225 275.667C140.238 253.158 157.508 217.419 191.477 200.434" stroke="#373635" stroke-width="4.44577" stroke-miterlimit="10" stroke-linecap="round" stroke-linejoin="round"/>
<path d="M359.569 227.948C393.704 227.948 428.652 157.397 441.687 131.327" stroke="#373635" stroke-width="4.44577" stroke-miterlimit="10" stroke-linecap="round" stroke-linejoin="round"/>
<path d="M60.6842 151.555C80.9125 168.227 106.198 188.494 126.132 203.444C136.006 210.849 154.211 213.897 162.243 221.93" stroke="#373635" stroke-width="4.44577" stroke-miterlimit="10" stroke-linecap="round" stroke-linejoin="round"/>
<path d="M60.3565 151.425C91.8188 119.963 170.605 60.3247 217.701 69.7439C232.046 72.6128 244.031 84.7364 256.298 90.8703" stroke="#373635" stroke-width="4.44577" stroke-miterlimit="10" stroke-linecap="round" stroke-linejoin="round"/>
<path d="M256.392 90.8089C268.256 90.8089 283.469 73.5669 296.803 70.6033C335.815 61.9345 373.889 81.7142 402.991 104.996C408.73 109.589 444.51 125.565 441.683 131.22" stroke="#373635" stroke-width="4.44577" stroke-miterlimit="10" stroke-linecap="round" stroke-linejoin="round"/>
<path d="M259.855 64.6403C251.707 48.3443 207.131 40.273 191.477 42.23C147.047 47.7837 120.82 73.7279 86.5804 99.4071C67.661 113.597 41.7546 126.951 30.8975 148.665" stroke="#373635" stroke-width="4.44577" stroke-miterlimit="10" stroke-linecap="round" stroke-linejoin="round"/>
<path d="M31.1198 148.888C37.1009 162.23 49.7719 176.093 59.9267 186.248C83.2194 209.541 112.502 231.217 144.265 241.804" stroke="#373635" stroke-width="4.44577" stroke-miterlimit="10" stroke-linecap="round" stroke-linejoin="round"/>
<path d="M259.832 64.5852C267.507 49.2344 301.463 45.5559 315.72 43.5198C352.74 38.2306 421.254 83.2281 450.281 104.996C456.909 109.969 474.297 122.192 482.953 122.192" stroke="#373635" stroke-width="4.44577" stroke-miterlimit="10" stroke-linecap="round" stroke-linejoin="round"/>
<path d="M482.588 122.435C467.046 153.52 416.8 232.65 387.511 247.294" stroke="#373635" stroke-width="4.44577" stroke-miterlimit="10" stroke-linecap="round" stroke-linejoin="round"/>
<path d="M257.682 37.0712C255.632 34.4091 254.351 33.3906 252.953 32.3422C236.974 20.3582 215.167 14.4027 194.917 17.2955C138.318 25.3811 108.254 54.8597 62.2402 87.0915C37.7345 107.735 2.44458 145.553 2.44458 145.553" stroke="#373635" stroke-width="4.44577" stroke-miterlimit="10" stroke-linecap="round" stroke-linejoin="round"/>
<path d="M2.44458 145.553C5.71096 155.969 6.7609 158.374 10.4878 163.033C35.0316 193.714 63.203 223.998 99.4775 242.135C106.408 245.6 124.872 252.513 128.281 259.331" stroke="#373635" stroke-width="4.44577" stroke-miterlimit="10" stroke-linecap="round" stroke-linejoin="round"/>
<path d="M257.632 37.0765C261.633 29.5187 278.168 25.7815 282.186 24.174C305.571 14.8196 329.565 14.4937 352.691 23.744C390.094 38.7045 425.429 62.9167 459.737 83.5006C471.26 90.4155 492.271 112.734 506.164 112.734" stroke="#373635" stroke-width="4.44577" stroke-miterlimit="10" stroke-linecap="round" stroke-linejoin="round"/>
<path d="M506.164 115.314C502.799 116.996 486.06 158.457 480.374 166.042C463.969 187.911 451.508 213.125 435.232 234.827C426.918 245.91 414.274 252.343 404.707 261.91" stroke="#373635" stroke-width="4.44577" stroke-miterlimit="10" stroke-linecap="round" stroke-linejoin="round"/>
<path d="M215.694 65.6802C220.435 67.2909 206.382 70.238 201.384 70.238L215.694 65.6802Z" fill="white"/>
<path d="M215.694 65.6802C220.435 67.2909 206.382 70.238 201.384 70.238" stroke="#373635" stroke-width="4.44577" stroke-miterlimit="10" stroke-linecap="round" stroke-linejoin="round"/>
<path d="M199.212 38.9251C202.725 39.1967 205.825 51.2381 209.833 52.5994C212.047 53.3516 222.187 47.188 224.142 49.181C224.424 49.4673 216.193 63.0558 215.646 64.4505C215.065 65.9314 222.74 71.7033 221.683 74.934C220.849 77.4846 207.428 69.8828 205.361 71.2876C202.418 73.2873 199.81 82.046 196.417 82.9107C194.859 83.3072 197.46 65.3236 196.641 64.9062C193.916 63.5173 189.327 62.3343 186.132 61.0317C179.214 58.2113 198.782 54.6813 199.995 52.8274C202.203 49.4518 195.832 38.6641 199.212 38.9251Z" fill="white" stroke="#373635" stroke-width="4.44577" stroke-miterlimit="10" stroke-linecap="round" stroke-linejoin="round"/>
<path d="M297.526 39.7061C294.843 42.8422 302.063 53.665 299.094 56.4067C294.644 60.5146 276.884 56.6205 290.893 63.0869C293.483 64.2828 296.577 65.2965 298.852 66.8725C300.445 67.9764 298.936 81.3204 301.747 80.4552C304.811 79.5118 306.602 67.763 310.43 67.763C313.72 67.763 321.745 74.3827 324.901 72.439C325.928 71.8064 318.046 60.6986 317.668 59.3013C316.779 56.0208 324.421 50.2533 324.421 47.0546C324.421 41.5636 311.759 52.7723 306.811 49.7265C303.237 47.5258 300.854 35.8156 297.526 39.7061Z" fill="white" stroke="#373635" stroke-width="4.44577" stroke-miterlimit="10" stroke-linecap="round" stroke-linejoin="round"/>
<path d="M463.778 43.6042C461.906 45.6519 466.943 52.7185 464.872 54.5088C461.769 57.1914 449.369 54.6484 459.15 58.871C460.955 59.6516 463.116 60.3136 464.703 61.3424C465.819 62.0635 464.761 70.7768 466.726 70.2117C468.864 69.596 470.113 61.9243 472.785 61.9243C475.079 61.9243 480.681 66.2465 482.886 64.9777C483.606 64.5642 478.102 57.3114 477.836 56.3991C477.218 54.2571 482.548 50.4907 482.548 48.4021C482.548 44.817 473.714 52.1361 470.26 50.147C467.766 48.7097 466.103 41.0634 463.778 43.6042Z" fill="white" stroke="#373635" stroke-width="4.44577" stroke-miterlimit="10" stroke-linecap="round" stroke-linejoin="round"/>
<path d="M59.9822 3.51312C58.1092 5.56084 63.1494 12.6274 61.0763 14.4177C57.9705 17.1003 45.5739 14.5573 55.3524 18.7795C57.1605 19.5606 59.3198 20.2226 60.9083 21.2513C62.0211 21.9724 60.9665 30.6852 62.9285 30.1206C65.0682 29.5045 66.3193 21.8328 68.9894 21.8328C71.2843 21.8328 76.8864 26.1554 79.0906 24.8862C79.8082 24.4732 74.3039 17.2203 74.0398 16.3081C73.42 14.1656 78.7541 10.3996 78.7541 8.311C78.7541 4.72548 69.9181 12.0446 66.4637 10.056C63.9679 8.61865 62.3056 0.972361 59.9822 3.51312Z" fill="white" stroke="#373635" stroke-width="4.44577" stroke-miterlimit="10" stroke-linecap="round" stroke-linejoin="round"/>
<path d="M98.2683 43.5611C96.8697 45.4367 100.634 51.9102 99.0859 53.5503C96.7661 56.0075 87.5064 53.6783 94.8104 57.5461C96.161 58.2615 97.7735 58.8679 98.9601 59.8104C99.7914 60.4706 99.0037 68.4525 100.469 67.935C102.068 67.3709 103.002 60.343 104.996 60.343C106.711 60.343 110.895 64.3028 112.541 63.1403C113.078 62.7615 108.966 56.1177 108.769 55.2819C108.306 53.3195 112.29 49.8696 112.29 47.9566C112.29 44.6721 105.69 51.3767 103.11 49.5549C101.246 48.238 100.004 41.2337 98.2683 43.5611Z" fill="white" stroke="#373635" stroke-width="4.44577" stroke-miterlimit="10" stroke-linecap="round" stroke-linejoin="round"/>
<path d="M422.895 232.544C421.699 235.025 425.104 241.006 423.708 243.096C420.583 247.79 408.722 243.312 418.436 249.139C419.814 249.967 421.29 250.459 422.463 251.633C424.042 253.211 421.788 260.839 423.904 261.897C424.74 262.315 429.537 253.222 430.906 252.88C431.613 252.702 441.838 256.822 441.838 255.47C441.838 253.017 434.445 249.47 435.223 246.357C435.485 245.296 441.029 237.682 440.402 237.053C439.397 236.049 430.875 239.259 429.274 239.259C427.629 239.259 424.251 229.736 422.895 232.544Z" fill="white" stroke="#373635" stroke-width="4.44577" stroke-miterlimit="10" stroke-linecap="round" stroke-linejoin="round"/>
<path d="M503.057 184.721C501.856 187.201 505.266 193.182 503.87 195.272C500.745 199.966 488.883 195.488 498.597 201.315C499.976 202.144 501.452 202.635 502.625 203.809C504.203 205.387 501.95 213.015 504.066 214.073C504.902 214.492 509.699 205.398 511.068 205.056C511.775 204.879 522 208.999 522 207.646C522 205.194 514.602 201.647 515.385 198.533C515.647 197.472 521.191 189.858 520.564 189.229C519.559 188.225 511.032 191.435 509.436 191.435C507.791 191.435 504.412 181.913 503.057 184.721Z" fill="white" stroke="#373635" stroke-width="4.44577" stroke-miterlimit="10" stroke-linecap="round" stroke-linejoin="round"/>
<path d="M491.511 229.402C490.768 230.749 492.885 233.998 492.018 235.133C490.075 237.683 482.713 235.251 488.741 238.415C489.599 238.865 490.515 239.132 491.244 239.77C492.227 240.628 490.826 244.771 492.138 245.345C492.658 245.572 495.641 240.633 496.486 240.448C496.93 240.351 503.279 242.589 503.279 241.854C503.279 240.522 498.686 238.595 499.171 236.905C499.335 236.328 502.776 232.193 502.385 231.851C501.763 231.305 496.468 233.049 495.476 233.049C494.454 233.049 492.355 227.877 491.511 229.402Z" fill="white" stroke="#373635" stroke-width="4.44577" stroke-miterlimit="10" stroke-linecap="round" stroke-linejoin="round"/>
<path d="M60.4148 222.911C60.5713 220.822 59.6012 229.748 61.588 229.085C62.5639 228.76 63.863 223.684 65.0571 223.983C66.3513 224.307 70.9077 226.783 72.1988 225.922C72.7398 225.561 67.9486 220.476 68.2198 219.391C68.6408 217.707 71.7907 215.61 71.7907 213.88C71.7907 213.674 65.6448 215.583 64.9553 215.41C64.5952 215.32 61.0332 209.661 60.8741 209.9C60.1036 211.056 61.9219 217.182 60.7722 217.758C60.2272 218.03 53.6301 219.904 53.6301 220.513C53.6301 220.526 60.329 224.063 60.4148 222.911Z" fill="white" stroke="#373635" stroke-width="4.44577" stroke-miterlimit="10" stroke-linecap="round" stroke-linejoin="round"/>
<path d="M133.155 202.348C135.443 201.743 131.664 190.507 133.542 189.568C136.133 188.272 141.431 200.424 143.03 200.025C145.329 199.45 149.999 193.182 152.519 194.022C153.873 194.473 148.543 203.966 148.839 205.446C148.984 206.172 155.568 211.886 155.036 212.417C152.533 214.92 144.067 209.878 141.675 210.675C139.753 211.315 138.99 221.187 136.834 221.906C134.924 222.543 134.775 210.226 133.736 209.706C127.013 206.345 120.158 205.785 133.155 202.348Z" fill="white" stroke="#373635" stroke-width="4.44577" stroke-miterlimit="10" stroke-linecap="round" stroke-linejoin="round"/>
</svg>
