<svg width="40" height="40" viewBox="0 0 40 40" fill="none" xmlns="http://www.w3.org/2000/svg">
<path d="M35.7895 0H4.21053C1.88512 0 0 1.93607 0 4.32432V35.6757C0 38.0639 1.88512 40 4.21053 40H35.7895C38.1149 40 40 38.0639 40 35.6757V4.32432C40 1.93607 38.1149 0 35.7895 0Z" fill="#B7E6D2"/>
<path d="M11.7643 11.3571C11.2053 11.3571 10.7242 11.7451 10.5978 12.2951L8.77035 20.2112C9.76671 19.9067 11.1179 19.6071 12.5954 19.6071C14.1652 19.6071 15.599 19.946 16.6197 20.2701C17.1349 20.4321 17.5577 20.5991 17.8542 20.7219C18.0049 20.7857 18.1215 20.8397 18.209 20.879C18.2527 20.8987 18.2868 20.9134 18.3111 20.9281L18.3402 20.9429L18.3499 20.9478H18.3548C18.3548 20.9478 18.3548 20.9478 18.0486 21.5714L18.3548 20.9478C18.6367 21.0902 18.8603 21.3062 19.0109 21.5714H20.9842C21.1349 21.3112 21.3584 21.0902 21.6403 20.9478L21.9465 21.5714C21.6403 20.9478 21.6403 20.9478 21.6403 20.9478H21.6452L21.6549 20.9429L21.6841 20.9281C21.7084 20.9183 21.7424 20.8987 21.7861 20.879C21.8736 20.8397 21.9903 20.7857 22.1409 20.7219C22.4374 20.5942 22.8603 20.4321 23.3755 20.2701C24.3961 19.946 25.825 19.6071 27.3998 19.6071C28.8773 19.6071 30.2284 19.9067 31.2248 20.2112L29.3973 12.2951C29.271 11.7451 28.7849 11.3571 28.2309 11.3571C28.0802 11.3571 27.9295 11.3866 27.7837 11.4455L26.2625 12.0594C25.6646 12.3 24.9842 12.0054 24.7461 11.4013C24.5079 10.7973 24.7995 10.1098 25.3973 9.8692L26.9186 9.25536C27.3366 9.08839 27.7789 9 28.2309 9C29.8736 9 31.2977 10.1442 31.6719 11.7598L33.8056 20.992C33.8882 21.3504 33.9465 21.7138 33.9757 22.0772C33.9903 22.1705 34 22.2638 34 22.3571V22.6862V24.7143V25.5C34 28.5397 31.565 31 28.5565 31H26.3985C23.5115 31 21.1252 28.7214 20.9648 25.8045L20.9016 24.7143H19.0936L19.0352 25.8045C18.8748 28.7214 16.4885 31 13.5966 31H11.4435C8.43499 31 6 28.5397 6 25.5V24.7143V22.6862V22.3571C6 22.2638 6.00972 22.1705 6.0243 22.0772C6.05346 21.7138 6.11179 21.3504 6.19441 20.992L8.32807 11.7598C8.69745 10.1442 10.1215 9 11.7643 9C12.2114 9 12.6586 9.08839 13.0765 9.25536L14.5978 9.8692C15.1956 10.1098 15.4872 10.7973 15.2491 11.4013C15.0109 12.0054 14.3305 12.3 13.7327 12.0594L12.2114 11.4455C12.0705 11.3866 11.9198 11.3571 11.7643 11.3571ZM9.11057 23.408V25.5C9.11057 26.8013 10.1555 27.8571 11.4435 27.8571H13.5966C14.836 27.8571 15.8566 26.8799 15.9247 25.6326L16.0462 23.3933C15.9344 23.354 15.808 23.3098 15.6817 23.2705C14.8457 23.0054 13.7424 22.7549 12.5905 22.7549C11.4386 22.7549 10.3451 23.0054 9.51883 23.2705C9.36817 23.3196 9.23208 23.3638 9.10571 23.4129L9.11057 23.408ZM30.8846 25.5V23.408C30.7582 23.3638 30.6173 23.3147 30.4714 23.2656C29.6452 23.0004 28.5516 22.75 27.3998 22.75C26.2479 22.75 25.1446 23.0004 24.3086 23.2656C24.1774 23.3049 24.0559 23.3491 23.9441 23.3884L24.0656 25.6277C24.1337 26.875 25.1592 27.8522 26.3937 27.8522H28.5516C29.8396 27.8522 30.8846 26.7964 30.8846 25.4951V25.5Z" fill="#0FAD69"/>
</svg>
