<svg width="40" height="40" viewBox="0 0 40 40" fill="none" xmlns="http://www.w3.org/2000/svg">
<path d="M35.7895 0H4.21053C1.88512 0 0 1.93607 0 4.32432V35.6757C0 38.0639 1.88512 40 4.21053 40H35.7895C38.1149 40 40 38.0639 40 35.6757V4.32432C40 1.93607 38.1149 0 35.7895 0Z" fill="#C4F0E6"/>
<path d="M7.75 7.5C8.71797 7.5 9.5 8.29799 9.5 9.28571V28.0357C9.5 28.5268 9.89375 28.9286 10.375 28.9286H32.25C33.218 28.9286 34 29.7266 34 30.7143C34 31.702 33.218 32.5 32.25 32.5H10.375C7.95781 32.5 6 30.5022 6 28.0357V9.28571C6 8.29799 6.78203 7.5 7.75 7.5ZM14.75 18.2143C15.718 18.2143 16.5 19.0123 16.5 20V23.5714C16.5 24.5592 15.718 25.3571 14.75 25.3571C13.782 25.3571 13 24.5592 13 23.5714V20C13 19.0123 13.782 18.2143 14.75 18.2143ZM21.75 14.6429V23.5714C21.75 24.5592 20.968 25.3571 20 25.3571C19.032 25.3571 18.25 24.5592 18.25 23.5714V14.6429C18.25 13.6551 19.032 12.8571 20 12.8571C20.968 12.8571 21.75 13.6551 21.75 14.6429ZM25.25 16.4286C26.218 16.4286 27 17.2266 27 18.2143V23.5714C27 24.5592 26.218 25.3571 25.25 25.3571C24.282 25.3571 23.5 24.5592 23.5 23.5714V18.2143C23.5 17.2266 24.282 16.4286 25.25 16.4286ZM32.25 11.0714V23.5714C32.25 24.5592 31.468 25.3571 30.5 25.3571C29.532 25.3571 28.75 24.5592 28.75 23.5714V11.0714C28.75 10.0837 29.532 9.28571 30.5 9.28571C31.468 9.28571 32.25 10.0837 32.25 11.0714Z" fill="#3BCEAC"/>
</svg>
