<svg width="40" height="40" viewBox="0 0 40 40" fill="none" xmlns="http://www.w3.org/2000/svg">
<path d="M35.7895 0H4.21053C1.88512 0 0 1.93607 0 4.32432V35.6757C0 38.0639 1.88512 40 4.21053 40H35.7895C38.1149 40 40 38.0639 40 35.6757V4.32432C40 1.93607 38.1149 0 35.7895 0Z" fill="#FAC6D1"/>
<path d="M29.6046 8.87997L30.6569 9.97817C31.781 11.1515 31.781 13.0522 30.6569 14.2255L28.1207 16.8724L22.9944 11.5269L25.5306 8.87997C26.6548 7.70668 28.476 7.70668 29.6001 8.87997H29.6046ZM10.5205 24.5504L21.9782 12.5876L27.1044 17.9378L15.6423 29.8959C15.341 30.2104 14.9633 30.4403 14.5541 30.5623L9.87748 31.9562C9.49975 32.0689 9.09505 31.9609 8.81625 31.6699C8.53745 31.379 8.43403 30.9566 8.54195 30.5623L9.87748 25.6815C9.99439 25.2497 10.2147 24.8602 10.516 24.5457L10.5205 24.5504ZM19.7163 12.8269L13.1511 19.6789L9.22096 15.5724C8.38007 14.6948 8.38007 13.2681 9.22096 12.3858L12.7329 8.72509C13.5738 7.84747 14.9408 7.84747 15.7862 8.72509L16.6765 9.65434C16.663 9.66842 16.6451 9.6825 16.6316 9.69658L13.7537 12.7002C13.4749 12.9912 13.4749 13.4699 13.7537 13.7608C14.0325 14.0518 14.4911 14.0518 14.7699 13.7608L17.6478 10.7572C17.6613 10.7431 17.6748 10.7244 17.6883 10.7103L19.7163 12.8269ZM26.8751 20.2984L28.9031 22.415C28.8896 22.4291 28.8717 22.4432 28.8582 22.4573L25.9803 25.4609C25.7015 25.7519 25.7015 26.2306 25.9803 26.5215C26.2591 26.8125 26.7177 26.8125 26.9965 26.5215L29.8744 23.5179C29.8879 23.5038 29.9014 23.4851 29.9149 23.471L30.8053 24.4049C31.6461 25.2825 31.6461 26.7093 30.8053 27.5916L27.2933 31.2522C26.4524 32.1299 25.0854 32.1299 24.24 31.2522L20.3099 27.1504L26.8751 20.2984Z" fill="#EF4266"/>
</svg>
