<svg width="40" height="40" viewBox="0 0 40 40" fill="none" xmlns="http://www.w3.org/2000/svg">
<path d="M35.7895 0H4.21053C1.88512 0 0 1.93607 0 4.32432V35.6757C0 38.0639 1.88512 40 4.21053 40H35.7895C38.1149 40 40 38.0639 40 35.6757V4.32432C40 1.93607 38.1149 0 35.7895 0Z" fill="#FFF2C5"/>
<path d="M6 10.625C6 8.90137 7.39514 7.5 9.11111 7.5H16.8889V13.75C16.8889 14.6143 17.584 15.3125 18.4444 15.3125H24.6667V17.1973C21.0743 18.2178 18.4444 21.5332 18.4444 25.4688C18.4444 28.3545 19.859 30.9033 22.0271 32.4658C21.8715 32.4902 21.716 32.5 21.5556 32.5H9.11111C7.39514 32.5 6 31.0986 6 29.375V10.625ZM24.6667 13.75H18.4444V7.5L24.6667 13.75ZM20 25.4688C20 23.6039 20.7375 21.8155 22.0503 20.4969C23.363 19.1783 25.1435 18.4375 27 18.4375C28.8565 18.4375 30.637 19.1783 31.9497 20.4969C33.2625 21.8155 34 23.6039 34 25.4688C34 27.3336 33.2625 29.122 31.9497 30.4406C30.637 31.7592 28.8565 32.5 27 32.5C25.1435 32.5 23.363 31.7592 22.0503 30.4406C20.7375 29.122 20 27.3336 20 25.4688ZM30.2715 23.3545C29.9701 23.0518 29.4743 23.0518 29.1729 23.3545L26.2222 26.3184L24.8271 24.917C24.5257 24.6143 24.0299 24.6143 23.7285 24.917C23.4271 25.2197 23.4271 25.7178 23.7285 26.0205L25.6729 27.9736C25.9743 28.2764 26.4701 28.2764 26.7715 27.9736L30.2715 24.458C30.5729 24.1553 30.5729 23.6572 30.2715 23.3545Z" fill="#FFD23E"/>
</svg>
