<svg width="396" height="128" viewBox="0 0 396 128" fill="none" xmlns="http://www.w3.org/2000/svg">
<path fill-rule="evenodd" clip-rule="evenodd" d="M-164.037 501.848C-164.037 501.848 -233.971 378.126 -253.786 341.942C-276.039 301.308 -296.978 234.306 -263.398 200.534C-241.218 178.224 -206.049 176.166 -179.01 162.318C-37.7546 89.9779 -88.5202 -33.7133 90.0045 15.8861C217.295 51.2487 313.253 155.703 395.439 261.405V512L-164.037 501.848Z" fill="#DC3ED9"/>
<g filter="url(#filter0_d_805_24556)">
<path fill-rule="evenodd" clip-rule="evenodd" d="M383.727 272.48C307.282 177.132 217.915 83.6492 101.467 51.6466C-60.0168 7.14627 -20.282 115.839 -147.312 180.103C-175.147 194.185 -207.665 200.726 -227.656 224.235C-255.864 257.406 -237.601 317.918 -216.055 356.073C-211.046 364.901 -203.069 378.759 -193.898 394.515C-167.689 439.817 -131.733 501.368 -129.432 503.119L383.727 510.733V272.482V272.48Z" fill="#C644E6"/>
</g>
<g filter="url(#filter1_d_805_24556)">
<path fill-rule="evenodd" clip-rule="evenodd" d="M-94.8286 504.386C-99.4311 500.888 -132.593 446.073 -157.148 405.489C-165.79 391.206 -173.411 378.58 -178.327 370.202C-199.237 334.57 -214.932 280.116 -191.916 247.933C-174.088 223.005 -144.251 212.198 -115.615 197.887C-2.88635 141.553 -31.5134 48.0048 112.927 87.4055C218.533 116.045 301.306 198.557 372.012 283.554L368.374 506.922L-94.8286 504.386Z" fill="#A14EE4"/>
</g>
<g filter="url(#filter2_d_805_24556)">
<path fill-rule="evenodd" clip-rule="evenodd" d="M360.297 294.626C295.33 219.979 219.151 148.44 124.388 123.164C-3.00952 88.8636 14.4372 167.129 -83.9185 215.671C-113.361 230.203 -140.565 245.046 -156.177 271.632C-174.271 302.445 -160.825 351.192 -140.599 384.329C-135.766 392.246 -128.537 403.662 -120.399 416.46C-97.5688 452.368 -67.1296 500.408 -60.225 505.654L356.458 508.192L360.297 294.626Z" fill="#844EDC"/>
</g>
<defs>
<filter id="filter0_d_805_24556" x="-243.524" y="41.2402" width="627.251" height="472.117" filterUnits="userSpaceOnUse" color-interpolation-filters="sRGB">
<feFlood flood-opacity="0" result="BackgroundImageFix"/>
<feColorMatrix in="SourceAlpha" type="matrix" values="0 0 0 0 0 0 0 0 0 0 0 0 0 0 0 0 0 0 127 0" result="hardAlpha"/>
<feOffset dx="-1.454" dy="2.624"/>
<feColorMatrix type="matrix" values="0 0 0 0 0.901961 0 0 0 0 0.301961 0 0 0 0 0.901961 0 0 0 1 0"/>
<feBlend mode="normal" in2="BackgroundImageFix" result="effect1_dropShadow_805_24556"/>
<feBlend mode="normal" in="SourceGraphic" in2="effect1_dropShadow_805_24556" result="shape"/>
</filter>
<filter id="filter1_d_805_24556" x="-204.747" y="77.9961" width="576.759" height="431.55" filterUnits="userSpaceOnUse" color-interpolation-filters="sRGB">
<feFlood flood-opacity="0" result="BackgroundImageFix"/>
<feColorMatrix in="SourceAlpha" type="matrix" values="0 0 0 0 0 0 0 0 0 0 0 0 0 0 0 0 0 0 127 0" result="hardAlpha"/>
<feOffset dx="-1.454" dy="2.624"/>
<feColorMatrix type="matrix" values="0 0 0 0 0.784314 0 0 0 0 0.368627 0 0 0 0 0.980392 0 0 0 1 0"/>
<feBlend mode="normal" in2="BackgroundImageFix" result="effect1_dropShadow_805_24556"/>
<feBlend mode="normal" in="SourceGraphic" in2="effect1_dropShadow_805_24556" result="shape"/>
</filter>
<filter id="filter2_d_805_24556" x="-164.885" y="114.731" width="525.182" height="396.454" filterUnits="userSpaceOnUse" color-interpolation-filters="sRGB">
<feFlood flood-opacity="0" result="BackgroundImageFix"/>
<feColorMatrix in="SourceAlpha" type="matrix" values="0 0 0 0 0 0 0 0 0 0 0 0 0 0 0 0 0 0 127 0" result="hardAlpha"/>
<feOffset dx="-0.209" dy="2.993"/>
<feColorMatrix type="matrix" values="0 0 0 0 0.596078 0 0 0 0 0.376471 0 0 0 0 0.964706 0 0 0 1 0"/>
<feBlend mode="normal" in2="BackgroundImageFix" result="effect1_dropShadow_805_24556"/>
<feBlend mode="normal" in="SourceGraphic" in2="effect1_dropShadow_805_24556" result="shape"/>
</filter>
</defs>
</svg>
