<svg width="396" height="128" viewBox="0 0 396 128" fill="none" xmlns="http://www.w3.org/2000/svg">
<g clip-path="url(#clip0_1061_28832)">
<path fill-rule="evenodd" clip-rule="evenodd" d="M-164.037 501.848C-164.037 501.848 -233.971 378.126 -253.786 341.942C-276.039 301.308 -296.978 234.306 -263.398 200.534C-241.218 178.224 -206.049 176.166 -179.01 162.318C-37.7544 89.9778 -88.52 -33.7134 90.0047 15.886C217.295 51.2486 313.253 155.703 395.439 261.405V512L-164.037 501.848Z" fill="#DC3ED9"/>
<path fill-rule="evenodd" clip-rule="evenodd" d="M383.727 276.48C307.282 181.132 217.915 87.6493 101.467 55.6467C-60.017 11.1463 -20.2822 119.839 -147.312 184.103C-175.147 198.185 -207.665 204.726 -227.656 228.235C-255.864 261.406 -237.601 321.918 -216.055 360.073C-211.046 368.901 -203.069 382.759 -193.898 398.515C-167.689 443.817 -131.733 505.368 -129.432 507.119L383.727 514.733V276.482V276.48Z" fill="#D854F8"/>
<path fill-rule="evenodd" clip-rule="evenodd" d="M383.727 277.48C307.282 182.132 217.915 88.6493 101.467 56.6467C-60.017 12.1463 -20.2822 120.839 -147.312 185.103C-175.147 199.185 -207.665 205.726 -227.656 229.235C-255.864 262.406 -237.601 322.918 -216.055 361.073C-211.046 369.901 -203.069 383.759 -193.898 399.515C-167.689 444.817 -131.733 506.368 -129.432 508.119L383.727 515.733V277.482V277.48Z" fill="#C644E6"/>
<path fill-rule="evenodd" clip-rule="evenodd" d="M-94.5359 503.39C-99.1384 499.892 -132.3 445.077 -156.855 404.493C-165.497 390.21 -173.118 377.584 -178.034 369.206C-198.944 333.574 -214.639 279.12 -191.623 246.937C-173.795 222.009 -143.958 211.202 -115.322 196.891C-2.59368 140.557 -31.2207 47.0086 113.22 86.4093C218.826 115.049 301.599 197.561 372.305 282.558L368.667 505.926L-94.5359 503.39Z" fill="#B866FB"/>
<path fill-rule="evenodd" clip-rule="evenodd" d="M-94.8284 504.386C-99.4309 500.888 -132.593 446.073 -157.148 405.489C-165.79 391.206 -173.411 378.58 -178.327 370.202C-199.237 334.57 -214.932 280.116 -191.916 247.933C-174.088 223.005 -144.251 212.198 -115.615 197.887C-2.88616 141.553 -31.5132 48.0047 112.927 87.4054C218.533 116.045 301.306 198.557 372.012 283.554L368.374 506.922L-94.8284 504.386Z" fill="#A14EE4"/>
<path fill-rule="evenodd" clip-rule="evenodd" d="M360.297 293.626C295.33 218.979 219.151 147.44 124.388 122.164C-3.00955 87.8635 14.4372 166.129 -83.9185 214.671C-113.361 229.203 -140.565 244.046 -156.177 270.632C-174.271 301.445 -160.825 350.192 -140.599 383.329C-135.766 391.246 -128.537 402.662 -120.399 415.46C-97.5688 451.368 -67.1296 499.408 -60.225 504.654L356.458 507.192L360.297 293.626Z" fill="#975BF7"/>
<path fill-rule="evenodd" clip-rule="evenodd" d="M360.297 294.626C295.33 219.979 219.151 148.44 124.388 123.164C-3.00955 88.8635 14.4372 167.129 -83.9185 215.671C-113.361 230.203 -140.565 245.046 -156.177 271.632C-174.271 302.445 -160.825 351.192 -140.599 384.329C-135.766 392.246 -128.537 403.662 -120.399 416.46C-97.5688 452.368 -67.1296 500.408 -60.225 505.654L356.458 508.192L360.297 294.626Z" fill="#844EDC"/>
</g>
<defs>
<clipPath id="clip0_1061_28832">
<rect width="396" height="128" fill="white"/>
</clipPath>
</defs>
</svg>
