<svg width="48" height="48" viewBox="0 0 48 48" fill="none" xmlns="http://www.w3.org/2000/svg">
<rect width="48" height="48" rx="24" fill="#540D6E"/>
<path d="M20.4261 16C20.5636 16 20.7182 16.0641 20.8213 16.1603L28.8282 23.6313C28.9313 23.7275 29 23.8717 29 24C29 24.1283 28.9313 24.2725 28.8282 24.3687L20.8213 31.8397C20.7182 31.9359 20.5636 32 20.4261 32C20.2887 32 20.134 31.9359 20.0309 31.8397L19.1718 31.0381C19.0687 30.9419 19 30.7976 19 30.6693C19 30.5411 19.0687 30.3968 19.1718 30.3006L25.9244 24L19.1718 17.6994C19.0687 17.6032 19 17.4589 19 17.3307C19 17.1864 19.0687 17.0581 19.1718 16.9619L20.0309 16.1603C20.134 16.0641 20.2887 16 20.4261 16Z" fill="#EF4266"/>
</svg>
