<svg width="97" height="52" viewBox="0 0 97 52" fill="none" xmlns="http://www.w3.org/2000/svg">
<rect width="97" height="52" rx="26" fill="#540D6E"/>
<path d="M31.172 27L19 27L19 25L31.172 25L25.808 19.636L27.222 18.222L35 26L27.222 33.778L25.808 32.364L31.172 27Z" fill="#EF4266"/>
<path d="M54.104 19.64C54.3493 19.64 54.472 19.7307 54.472 19.912V19.96C54.472 20.0667 54.3547 20.2373 54.12 20.472C53.896 20.696 53.784 20.9307 53.784 21.176V30.36C53.784 30.5627 53.7253 30.7227 53.608 30.84C53.5013 30.9467 53.352 31 53.16 31H52.408C52.1733 31 51.9387 30.8347 51.704 30.504L45.608 22.328V29.432C45.608 29.688 45.7253 29.9333 45.96 30.168C46.2053 30.4027 46.328 30.5733 46.328 30.68V30.728C46.328 30.9093 46.2053 31 45.96 31H44.104C43.8587 31 43.736 30.9093 43.736 30.728V30.68C43.736 30.5733 43.8427 30.4027 44.056 30.168C44.2693 29.9333 44.376 29.688 44.376 29.432V21.192C44.376 20.936 44.2693 20.696 44.056 20.472C43.8427 20.248 43.736 20.0827 43.736 19.976V19.912C43.736 19.7307 43.8587 19.64 44.104 19.64H46.104C46.4027 19.64 46.6533 19.7893 46.856 20.088L52.552 27.992V21.176C52.552 20.9307 52.4347 20.696 52.2 20.472C51.976 20.2373 51.864 20.0667 51.864 19.96V19.912C51.864 19.7307 51.9867 19.64 52.232 19.64H54.104ZM61.7889 28.568C61.8849 28.44 62.0022 28.3973 62.1409 28.44C62.2795 28.4827 62.3435 28.584 62.3329 28.744C62.2795 29.2987 61.9595 29.8427 61.3729 30.376C60.7862 30.8987 60.0235 31.16 59.0849 31.16C57.9542 31.16 57.0262 30.7867 56.3009 30.04C55.5755 29.2933 55.2129 28.312 55.2129 27.096C55.2129 25.9547 55.5915 25.016 56.3489 24.28C57.1062 23.5333 58.0182 23.16 59.0849 23.16C60.0555 23.16 60.8022 23.3893 61.3249 23.848C61.8475 24.3067 62.1089 24.8347 62.1089 25.432C62.1089 25.9227 61.8742 26.2747 61.4049 26.488L57.8529 28.104C58.2902 29.032 58.9942 29.496 59.9649 29.496C60.3702 29.496 60.7329 29.4107 61.0529 29.24C61.3835 29.0587 61.6289 28.8347 61.7889 28.568ZM58.7969 23.864C58.3809 23.864 58.0502 24.0667 57.8049 24.472C57.5595 24.8667 57.4369 25.3733 57.4369 25.992C57.4369 26.5147 57.4902 26.9733 57.5969 27.368L59.6609 26.328C59.9382 26.1893 60.0769 25.9387 60.0769 25.576C60.0769 25.2133 59.9595 24.84 59.7249 24.456C59.4902 24.0613 59.1809 23.864 58.7969 23.864ZM69.9571 29.432C70.0745 29.5707 70.2291 29.7253 70.4211 29.896C70.6131 30.0667 70.7625 30.2107 70.8691 30.328C70.9758 30.4347 71.0291 30.5467 71.0291 30.664V30.728C71.0291 30.9093 70.9171 31 70.6931 31H67.4611C67.2585 31 67.1571 30.904 67.1571 30.712V30.664C67.1571 30.5787 67.2265 30.4773 67.3651 30.36C67.5145 30.232 67.6051 30.1147 67.6371 30.008C67.6798 29.9013 67.5998 29.6933 67.3971 29.384L66.2611 27.992L64.9971 29.48C64.8478 29.6507 64.7678 29.8 64.7571 29.928C64.7465 30.056 64.7785 30.152 64.8531 30.216C64.9278 30.28 65.0025 30.3547 65.0771 30.44C65.1625 30.5147 65.2051 30.5893 65.2051 30.664V30.712C65.2051 30.904 65.0985 31 64.8851 31H62.7091C62.4958 31 62.3891 30.9093 62.3891 30.728V30.664C62.3891 30.5573 62.4478 30.456 62.5651 30.36C62.6825 30.2533 62.8531 30.1147 63.0771 29.944C63.3118 29.7733 63.5145 29.5973 63.6851 29.416L65.6691 27.256L63.7491 24.904C63.5998 24.7227 63.4451 24.5627 63.2851 24.424C63.1358 24.2853 63.0131 24.184 62.9171 24.12C62.8318 24.056 62.7571 23.9867 62.6931 23.912C62.6398 23.8373 62.6131 23.752 62.6131 23.656V23.576C62.6131 23.4053 62.7198 23.32 62.9331 23.32H66.1491C66.3625 23.32 66.4691 23.4107 66.4691 23.592V23.656C66.4691 23.752 66.4211 23.88 66.3251 24.04C66.2291 24.2 66.1651 24.3333 66.1331 24.44C66.1118 24.536 66.1705 24.7013 66.3091 24.936L67.4451 26.344L68.7091 24.936C68.8371 24.7973 68.9011 24.664 68.9011 24.536C68.9011 24.3973 68.8638 24.2907 68.7891 24.216C68.7145 24.1307 68.6345 24.0347 68.5491 23.928C68.4745 23.8213 68.4371 23.7307 68.4371 23.656V23.592C68.4371 23.4107 68.5385 23.32 68.7411 23.32H70.5811C70.7945 23.32 70.9011 23.4053 70.9011 23.576V23.656C70.9011 23.7733 70.8585 23.8853 70.7731 23.992C70.6985 24.088 70.5598 24.2267 70.3571 24.408C70.1651 24.5893 70.0051 24.7547 69.8771 24.904L68.0371 27.064L69.9571 29.432ZM74.6945 31.16C73.9478 31.16 73.3558 30.9253 72.9185 30.456C72.4918 29.976 72.2785 29.288 72.2785 28.392V24.248H71.5265C71.3132 24.248 71.2065 24.1413 71.2065 23.928V23.656C71.2065 23.432 71.3132 23.32 71.5265 23.32H71.9265C72.3638 23.32 72.7318 23.176 73.0305 22.888C73.3398 22.6 73.5372 22.216 73.6225 21.736C73.6758 21.48 73.7985 21.352 73.9905 21.352H74.3105C74.5452 21.352 74.6625 21.48 74.6625 21.736L74.6785 23.32H76.5185C76.6038 23.32 76.6785 23.352 76.7425 23.416C76.8065 23.48 76.8385 23.56 76.8385 23.656V23.928C76.8385 24.024 76.8065 24.104 76.7425 24.168C76.6785 24.2213 76.6038 24.248 76.5185 24.248H74.6785V28.424C74.6785 28.7333 74.7532 28.984 74.9025 29.176C75.0625 29.3573 75.2598 29.448 75.4945 29.448C76.0492 29.448 76.4118 29.208 76.5825 28.728C76.6785 28.5893 76.7958 28.536 76.9345 28.568C77.0838 28.5893 77.1585 28.6747 77.1585 28.824C77.1585 29.4427 76.9345 29.9867 76.4865 30.456C76.0492 30.9253 75.4518 31.16 74.6945 31.16Z" fill="#EF4266"/>
</svg>
