<svg width="1440" height="1104" viewBox="0 0 1440 1104" fill="none" xmlns="http://www.w3.org/2000/svg">
<path fill-rule="evenodd" clip-rule="evenodd" d="M0.995361 350.927L1440 350.858L1440 99.9553C1372.09 54.3054 1202.03 -25.8369 1091.72 16.5475C979.551 59.6406 919.063 135.315 804.371 106.938C689.696 78.5625 683.393 74.8813 597.695 75.4043C511.993 75.9344 389.092 128.489 287.346 123.754C201.683 119.773 124.727 69.302 0.998441 36.1354L0.998413 350.927L0.995361 350.927Z" fill="#3F57D8"/>
<path fill-rule="evenodd" clip-rule="evenodd" d="M1440 111.501C1359.57 61.374 1203.97 11.0611 1098.26 55.6948C978.022 106.509 925.021 182.089 806.707 148.485C689.112 115.296 676.3 108.5 581.994 113.097C498.547 117.173 376.808 153.87 275.073 148.127C188.076 143.213 124.037 105.563 0.995386 72.7401L0.995361 350.927L1440 350.858L1440 111.501Z" fill="#4E89F3"/>
<path fill-rule="evenodd" clip-rule="evenodd" d="M1440 113.159C1359.57 63.0329 1203.97 12.7205 1098.26 57.3537C978.022 108.168 925.021 183.748 806.707 150.144C689.112 116.955 676.3 110.159 581.994 114.756C498.547 118.832 376.808 155.529 275.073 149.785C188.076 144.872 124.037 107.222 0.995386 74.3991L0.995361 352.586L1440 352.517L1440 113.159Z" fill="#447DE5"/>
<path fill-rule="evenodd" clip-rule="evenodd" d="M0.995361 351.756L1440 351.687L1440 124.713C1352.46 78.1388 1207.2 49.0254 1104.82 95.6711C976.493 154.206 931.204 229.562 809.042 190.86C688.734 152.737 669.996 142.632 566.296 151.622C485.44 158.632 364.548 180.083 262.793 173.323C174.422 167.457 124.117 143.465 0.995382 110.126L0.995361 351.756Z" fill="#70A2FD"/>
<path fill-rule="evenodd" clip-rule="evenodd" d="M0.995361 352.586L1440 352.517L1440 125.542C1352.46 78.9684 1207.2 49.855 1104.82 96.5007C976.493 155.035 931.204 230.392 809.042 191.69C688.734 153.565 669.996 143.462 566.296 152.45C485.44 159.459 364.548 180.911 262.793 174.15C174.422 168.285 124.117 144.292 0.995382 110.953L0.995361 352.586Z" fill="#3C9AEA"/>
<path fill-rule="evenodd" clip-rule="evenodd" d="M1440 139.302C1348.15 99.5813 1211.05 86.468 1111.38 134.817C974.983 201.072 937.229 276.301 811.378 232.399C688.236 189.443 664.037 175.584 550.582 189.314C472.404 198.774 352.268 205.464 250.512 197.692C160.719 190.831 125.082 181.441 0.995379 146.577L0.995361 351.756L1440 351.687L1440 139.302Z" fill="#61BEFA"/>
<path fill-rule="evenodd" clip-rule="evenodd" d="M1440 140.546C1348.15 100.826 1211.05 87.7125 1111.38 136.061C974.983 202.316 937.229 277.546 811.378 233.643C688.236 190.688 664.037 176.828 550.582 190.558C472.404 200.019 352.268 206.708 250.512 198.937C160.719 192.075 125.082 182.686 0.995379 147.822L0.995361 353L1440 352.932L1440 140.546Z" fill="#4EA9E3"/>
<path fill-rule="evenodd" clip-rule="evenodd" d="M0.995361 351.756L1440 351.687L1440 156.498C1345.57 124.878 1215.22 124.218 1117.94 173.966C973.454 247.942 943.244 323.056 813.713 273.946C687.704 226.169 658.112 208.171 534.885 227.007C459.278 238.566 339.987 230.846 238.232 222.058C146.946 214.18 127.003 220.411 0.995376 182.875L0.995361 351.756Z" fill="#79D7F3"/>
<path fill-rule="evenodd" clip-rule="evenodd" d="M0.995361 1104L1440 1103.93L1440 157.098C1345.57 125.49 1215.22 124.832 1117.94 174.56C973.454 248.508 943.244 323.595 813.713 274.503C687.704 226.744 658.112 208.752 534.885 227.581C459.278 239.136 339.988 231.419 238.232 222.634C146.946 214.759 127.003 220.988 0.995442 183.466L0.995361 1104Z" fill="#50C1E2"/>
<path d="M1078.74 363.839C1063.74 352.248 1048.91 359.009 1043.37 363.839C1054.62 360.089 1064.53 363.413 1068.09 365.543C1070.07 368.1 1074.05 376.196 1074.05 388.128C1074.05 403.042 1071.68 402.165 1070.22 403.042C1068.09 404.32 1059.14 406.451 1053.6 407.303C1051.32 407.303 1047.55 407.814 1050.61 409.86C1054.45 412.417 1080.44 406.877 1086.41 407.303C1091.18 407.644 1095.78 411.706 1097.49 413.695C1097.63 414.831 1097.32 417.189 1094.93 417.53C1092.54 417.871 1093.94 422.501 1094.93 424.774H1100.04L1104.73 426.479C1106.58 426.905 1113.59 427.501 1126.89 426.479C1140.18 425.456 1146.92 428.325 1148.62 429.888C1153.03 433.581 1163.11 441.819 1168.22 445.228C1173.34 448.637 1208.42 446.648 1225.32 445.228C1236.69 444.234 1261.8 441.989 1271.34 440.967C1280.89 439.944 1308.84 433.154 1321.63 429.888C1327.02 427.331 1337.82 419.575 1337.82 409.008C1337.82 398.44 1341.8 392.389 1343.79 390.684C1347.19 388.98 1354.1 384.037 1354.44 377.901C1354.86 370.231 1349.32 368.952 1343.79 364.691C1338.25 360.43 1298.19 362.56 1295.63 361.708C1293.08 360.856 1288.39 358.726 1283.71 356.596L1283.7 356.595C1279.01 354.464 1261.54 358.725 1252.17 356.595C1242.79 354.464 1241.52 333.584 1237.26 333.158C1232.99 332.732 1197.63 332.306 1190.38 336.141C1184.59 339.209 1184.56 351.055 1185.27 356.595C1186.26 360.714 1185.78 369.805 1175.89 373.214C1166.01 376.622 1124.33 378.043 1104.73 378.327C1102.32 378.327 1093.74 375.429 1078.74 363.839Z" fill="#FFD23E"/>
<path d="M1089.11 423.496C1088.69 423.496 1087.41 421.109 1089.11 420.087C1089.11 420.087 1089.65 420.031 1090.39 419.98C1089.37 416.826 1089.54 414.121 1089.97 412.417C1090.39 411.21 1090.82 409.434 1092.52 411.138C1094.23 412.843 1092.95 417.69 1092.1 419.901C1092.99 419.885 1093.84 419.922 1094.23 420.087L1095.08 423.496L1092.1 423.496C1093.46 426.223 1093.23 430.882 1092.95 432.018C1092.66 432.87 1091.75 434.149 1090.39 432.444C1089.03 430.74 1089.82 425.2 1090.39 423.496L1089.11 423.496Z" fill="#FFD23E"/>
<path d="M1062.12 365.543C1059.89 364.987 1048.48 364.265 1043.37 366.396C1042.94 367.248 1042.81 367.865 1043.37 368.526C1046.39 372.122 1048.9 376.846 1048.06 379.605C1046.49 380.173 1042.26 380.884 1044.65 382.588C1047.03 384.293 1048.48 388.696 1048.06 390.685C1045.93 391.537 1042.26 391.792 1046.35 394.52C1050.44 397.247 1049.19 401.906 1048.06 403.894H1059.99C1063.11 403.894 1069.36 402.957 1069.36 399.207C1069.36 394.52 1068.51 379.179 1067.66 372.361C1066.81 365.543 1063.82 365.969 1062.12 365.543Z" fill="#FFD23E"/>
<path d="M1201.03 327.488C1194.22 328.17 1191.38 334.306 1190.81 337.289L1194.22 336.01V333.454L1197.2 333.028V336.01L1201.03 335.584V331.749L1204.87 330.471V335.584L1208.7 335.158L1209.13 330.471L1213.39 329.619V334.306H1217.23V330.045L1220.64 329.619V334.306H1223.62V329.192L1227.03 328.766V334.306H1230.86C1230.58 332.885 1230.44 329.874 1232.14 329.192C1233.85 328.511 1232.85 326.352 1232.14 325.357C1224.61 325.783 1207.85 326.806 1201.03 327.488Z" fill="#FFD23E"/>
<path d="M1201.89 328.062C1202.17 324.511 1201.46 316.812 1196.35 314.426C1195.36 313.967 1194.55 313.543 1193.89 313.148C1191.09 311.489 1190.81 310.345 1190.81 309.312C1190.81 307.011 1191.32 305.222 1195.07 304.199C1195.37 304.116 1195.66 304.066 1195.92 304.046C1196.85 303.974 1198.39 304.133 1198.9 304.625C1200.36 304.87 1202.03 305.995 1204.02 308.199C1205.12 306.439 1205.99 302.154 1200.61 299.086C1200.32 298.918 1198.75 297.972 1198.48 297.807C1195.65 296.118 1195.07 295.363 1193.89 293.787C1192.55 292.004 1192.09 290.17 1192.09 288.006C1192.09 283.745 1197.63 281.615 1199.76 281.615C1200.3 281.615 1201.03 281.532 1201.89 281.493C1203.24 281.431 1204.89 281.476 1206.57 282.121C1208.03 282.677 1209.51 283.681 1210.84 285.45C1210.27 282.183 1209.13 276.501 1210.84 273.945C1211.89 272.36 1215.65 270.72 1219.78 271.04C1220.88 271.125 1222.03 271.366 1223.19 271.814C1227.31 273.397 1226.35 278.579 1225.17 281.493C1225.08 281.716 1224.99 281.927 1224.9 282.121L1222.98 284.424L1221.06 286.728C1220.78 288.352 1220.38 291.82 1221.06 292.694C1220.77 292.694 1220.49 292.727 1220.21 292.789C1221.04 292.682 1222.07 292.606 1223.19 292.604C1226.89 292.596 1231.52 293.389 1232.57 296.529C1233.96 300.7 1233.93 305.437 1232.02 308.199C1231.59 308.823 1231.07 309.346 1230.44 309.739C1227.05 311.855 1227.03 322.522 1227.88 326.357L1215.52 326.784L1207.91 327.674L1201.89 328.062Z" fill="#FFD23E"/>
</svg>
