<svg width="1440" height="1100" viewBox="0 0 1440 1100" fill="none" xmlns="http://www.w3.org/2000/svg">
<path fill-rule="evenodd" clip-rule="evenodd" d="M0.995361 346.364L1440 346.295L1440 95.3925C1372.09 49.7426 1202.03 -30.3996 1091.72 11.9847C979.551 55.0779 919.063 130.752 804.371 102.376C689.696 73.9998 683.393 70.3186 597.695 70.8416C511.993 71.3717 389.092 123.926 287.346 119.192C201.683 115.21 124.727 64.7393 0.998441 31.5726L0.998413 346.364L0.995361 346.364Z" fill="#3F57D8"/>
<path fill-rule="evenodd" clip-rule="evenodd" d="M1440 106.938C1359.57 56.8113 1203.97 6.49836 1098.26 51.1321C978.022 101.946 925.021 177.526 806.707 143.922C689.112 110.733 676.3 103.937 581.994 108.535C498.547 112.61 376.808 149.308 275.073 143.564C188.076 138.651 124.037 101.001 0.995386 68.1774L0.995361 346.364L1440 346.295L1440 106.938Z" fill="#4E89F3"/>
<path fill-rule="evenodd" clip-rule="evenodd" d="M1440 108.596C1359.57 58.4702 1203.97 8.15772 1098.26 52.791C978.022 103.605 925.021 179.185 806.707 145.581C689.112 112.392 676.3 105.596 581.994 110.194C498.547 114.269 376.808 150.967 275.073 145.223C188.076 140.31 124.037 102.659 0.995386 69.8363L0.995361 348.023L1440 347.954L1440 108.596Z" fill="#447DE5"/>
<path fill-rule="evenodd" clip-rule="evenodd" d="M0.995361 347.193L1440 347.125L1440 120.15C1352.46 73.5761 1207.2 44.4626 1104.82 91.1084C976.493 149.643 931.204 225 809.042 186.298C688.734 148.175 669.996 138.069 566.296 147.059C485.44 154.069 364.548 175.521 262.793 168.76C174.422 162.894 124.117 138.902 0.995382 105.563L0.995361 347.193Z" fill="#70A2FD"/>
<path fill-rule="evenodd" clip-rule="evenodd" d="M0.995361 348.023L1440 347.954L1440 120.98C1352.46 74.4057 1207.2 45.2922 1104.82 91.938C976.493 150.472 931.204 225.829 809.042 187.128C688.734 149.002 669.996 138.899 566.296 147.887C485.44 154.897 364.548 176.349 262.793 169.588C174.422 163.722 124.117 139.73 0.995382 106.391L0.995361 348.023Z" fill="#3C9AEA"/>
<path fill-rule="evenodd" clip-rule="evenodd" d="M1440 134.739C1348.15 95.0186 1211.05 81.9053 1111.38 130.254C974.983 196.509 937.229 271.738 811.378 227.836C688.236 184.881 664.037 171.022 550.582 184.751C472.404 194.212 352.268 200.901 250.512 193.129C160.719 186.268 125.082 176.879 0.995379 142.015L0.995361 347.193L1440 347.125L1440 134.739Z" fill="#61BEFA"/>
<path fill-rule="evenodd" clip-rule="evenodd" d="M1440 135.984C1348.15 96.2635 1211.05 83.1498 1111.38 131.499C974.983 197.754 937.229 272.983 811.378 229.08C688.236 186.125 664.037 172.266 550.582 185.995C472.404 195.457 352.268 202.145 250.512 194.374C160.719 187.513 125.082 178.124 0.995379 143.259L0.995361 348.437L1440 348.369L1440 135.984Z" fill="#4EA9E3"/>
<path fill-rule="evenodd" clip-rule="evenodd" d="M0.995361 347.193L1440 347.125L1440 151.935C1345.57 120.315 1215.22 119.656 1117.94 169.403C973.454 243.379 943.244 318.493 813.713 269.384C687.704 221.606 658.112 203.608 534.885 222.444C459.278 234.004 339.987 226.283 238.232 217.495C146.946 209.617 127.003 215.848 0.995376 178.312L0.995361 347.193Z" fill="#79D7F3"/>
<path fill-rule="evenodd" clip-rule="evenodd" d="M0.995361 1099.44L1440 1099.37L1440 152.535C1345.57 120.928 1215.22 120.269 1117.94 169.997C973.454 243.945 943.244 319.032 813.713 269.94C687.704 222.181 658.112 204.19 534.885 223.018C459.278 234.574 339.988 226.856 238.232 218.072C146.946 210.197 127.003 216.425 0.995442 178.903L0.995361 1099.44Z" fill="#50C1E2"/>
</svg>
