<svg width="56" height="56" viewBox="0 0 56 56" fill="none" xmlns="http://www.w3.org/2000/svg">
<g id="Group 36">
<path id="Rectangle" d="M48.9496 0H7.05036C3.15655 0 0 3.15655 0 7.05036V48.9496C0 52.8434 3.15655 56 7.05036 56H48.9496C52.8434 56 56 52.8434 56 48.9496V7.05036C56 3.15655 52.8434 0 48.9496 0Z" fill="#0070BA"/>
<g id="Group 37">
<path id="Vector" opacity="0.6" fill-rule="evenodd" clip-rule="evenodd" d="M26.2141 17.2975H36.8758C42.6001 17.2975 44.755 20.1954 44.422 24.4529C43.8716 31.4818 39.6223 35.3705 33.9861 35.3705H31.1404C30.3671 35.3705 29.8469 35.8824 29.6377 37.2694L28.4296 45.3331C28.3498 45.856 28.0746 46.1587 27.6617 46.2H20.9631C20.3329 46.2 20.11 45.7184 20.2751 44.6753L24.3592 18.8249C24.5189 17.7901 25.0858 17.2975 26.2141 17.2975Z" fill="white"/>
<path id="Subtract" fill-rule="evenodd" clip-rule="evenodd" d="M19.5458 8.40002H30.2184C33.2237 8.40002 36.7904 8.49635 39.1737 10.6017C40.7672 12.008 41.6038 14.2455 41.4112 16.6563C40.7562 24.8053 35.8823 29.371 29.3433 29.371H24.0813C23.1841 29.371 22.5924 29.9654 22.3392 31.5726L20.8696 40.9298C20.7733 41.5352 20.5118 41.893 20.044 41.937H13.4582C12.7289 41.937 12.4702 41.3866 12.6601 40.1702L17.3937 10.1779C17.5836 8.97246 18.2468 8.40002 19.5458 8.40002ZM22.4933 30.6231L24.3565 18.8249C24.5188 17.7901 25.0858 17.2947 26.2141 17.2947H36.8757C38.6398 17.2947 40.0682 17.5699 41.1855 18.0791C40.115 25.3336 35.4226 29.3626 29.28 29.3626H24.0262C23.3217 29.3654 22.8043 29.7177 22.4933 30.6231Z" fill="white"/>
<path id="Vector_2" fill-rule="evenodd" clip-rule="evenodd" d="M22.5076 30.5351L24.3708 18.7369C24.5332 17.7021 25.1001 17.2067 26.2284 17.2067H36.8901C38.6541 17.2067 40.0825 17.4819 41.1998 17.991C40.1293 25.2456 35.4369 29.2746 29.2943 29.2746H24.0405C23.336 29.2774 22.8186 29.6297 22.5076 30.5351Z" fill="white" fill-opacity="0.6"/>
</g>
</g>
</svg>
