<svg width="16" height="16" viewBox="0 0 16 16" fill="none" xmlns="http://www.w3.org/2000/svg">
<path fill-rule="evenodd" clip-rule="evenodd" d="M8 0C12.4183 0 16 3.58172 16 8C16 12.4183 12.4183 16 8 16C3.58172 16 0 12.4183 0 8C0 3.58172 3.58172 0 8 0ZM7.27278 1.49452C4.00002 1.85623 1.45446 4.63087 1.45446 8.00004C1.45446 9.54552 1.99008 10.9659 2.88583 12.0857L7.27278 7.69871V1.49452ZM8.72733 1.49455C12 1.8564 14.5454 4.63096 14.5454 8.00004C14.5454 9.54545 14.0098 10.9658 13.1141 12.0855L8.72733 7.69871V1.49455ZM12.0856 13.1141L8.72733 9.75575V14.5055C9.98977 14.366 11.144 13.8673 12.0856 13.1141ZM7.27278 14.5056V9.75575L3.91435 13.1142C4.85603 13.8674 6.0103 14.366 7.27278 14.5056Z" fill="white"/>
</svg>
