<svg width="48" height="48" viewBox="0 0 48 48" fill="none" xmlns="http://www.w3.org/2000/svg">
<rect width="48" height="48" rx="24" fill="#540D6E"/>
<path d="M27.5739 32C27.4364 32 27.2818 31.9359 27.1787 31.8397L19.1718 24.3687C19.0687 24.2725 19 24.1283 19 24C19 23.8717 19.0687 23.7275 19.1718 23.6313L27.1787 16.1603C27.2818 16.0641 27.4364 16 27.5739 16C27.7113 16 27.866 16.0641 27.9691 16.1603L28.8282 16.9619C28.9313 17.0581 29 17.2024 29 17.3307C29 17.4589 28.9313 17.6032 28.8282 17.6994L22.0756 24L28.8282 30.3006C28.9313 30.3968 29 30.5411 29 30.6693C29 30.8136 28.9313 30.9419 28.8282 31.0381L27.9691 31.8397C27.866 31.9359 27.7113 32 27.5739 32Z" fill="#EF4266"/>
</svg>
