<svg width="56" height="56" viewBox="0 0 56 56" fill="none" xmlns="http://www.w3.org/2000/svg">
<g id="Group 34">
<path id="Rectangle" d="M48.9496 0H7.05036C3.15655 0 0 3.15655 0 7.05036V48.9496C0 52.8434 3.15655 56 7.05036 56H48.9496C52.8434 56 56 52.8434 56 48.9496V7.05036C56 3.15655 52.8434 0 48.9496 0Z" fill="#4554D7"/>
<path id="Logo" d="M24.205 28.5746L11.9223 21.2361C11.7125 21.1107 11.5369 20.9354 11.4112 20.7257C10.9902 20.0235 11.2182 19.113 11.9204 18.692L26.2843 10.0813C26.9094 9.70651 27.6901 9.70621 28.3155 10.0805L42.6786 18.676C42.8882 18.8014 43.0636 18.9767 43.1891 19.1863C43.6098 19.8887 43.3814 20.7991 42.679 21.2198L30.3989 28.5741L42.6786 35.9228C42.8882 36.0483 43.0636 36.2236 43.1891 36.4332C43.6098 37.1356 43.3814 38.046 42.679 38.4666L28.3195 47.0662C27.6949 47.4403 26.9152 47.4407 26.2902 47.0673L11.9223 38.4829C11.7125 38.3575 11.5369 38.1822 11.4112 37.9725C10.9902 37.2703 11.2182 36.3598 11.9204 35.9389L24.205 28.5746ZM16.1959 37.0777C16.1749 37.0902 16.1573 37.1078 16.1447 37.1289C16.1027 37.1991 16.1256 37.2902 16.1959 37.3322L27.1784 43.8993C27.2565 43.9459 27.3539 43.9459 27.432 43.8992L38.4127 37.3322C38.4338 37.3196 38.4513 37.302 38.4639 37.281C38.5059 37.2107 38.483 37.1197 38.4127 37.0777L27.3052 30.4435L16.1959 37.0777ZM16.1959 19.8308C16.1749 19.8434 16.1573 19.861 16.1447 19.882C16.1027 19.9523 16.1256 20.0433 16.1959 20.0853L27.3052 26.7282L38.4127 20.0853C38.4338 20.0727 38.4513 20.0551 38.4639 20.0341C38.5059 19.9638 38.483 19.8728 38.4127 19.8308L27.4319 13.2723C27.3539 13.2257 27.2565 13.2257 27.1785 13.2723L16.1959 19.8308Z" fill="white"/>
</g>
</svg>
