<svg width="56" height="56" viewBox="0 0 56 56" fill="none" xmlns="http://www.w3.org/2000/svg">
<g id="Group 33">
<path id="Rectangle" d="M48.9496 0H7.05036C3.15655 0 0 3.15655 0 7.05036V48.9496C0 52.8434 3.15655 56 7.05036 56H48.9496C52.8434 56 56 52.8434 56 48.9496V7.05036C56 3.15655 52.8434 0 48.9496 0Z" fill="#00B398"/>
<g id="Group 35">
<path id="Type something Copy 18" fill-rule="evenodd" clip-rule="evenodd" d="M21.5023 27.4273V33.2283C21.5023 33.5367 21.5466 33.8129 21.6351 34.057C21.7237 34.3011 21.8735 34.4938 22.0847 34.6352C22.2958 34.7765 22.6057 34.8472 23.0144 34.8472C23.3278 34.8472 23.6002 34.8022 23.8318 34.7123C24.0634 34.6223 24.2882 34.5324 24.5061 34.4425C24.7513 34.3397 24.9625 34.2979 25.1396 34.3172C25.3167 34.3365 25.4189 34.4553 25.4461 34.6737C25.487 34.8793 25.4291 35.072 25.2724 35.2519C25.1158 35.4318 24.9046 35.5859 24.639 35.7144C24.3733 35.8429 24.0668 35.9457 23.7194 36.0228C23.372 36.0999 23.0281 36.1384 22.6875 36.1384C22.2788 36.1384 21.9076 36.0967 21.5738 36.0131C21.2401 35.9296 20.9506 35.7851 20.7054 35.5795C20.4601 35.3739 20.2694 35.1041 20.1332 34.7701C19.997 34.436 19.9289 34.0249 19.9289 33.5367V27.4273H19.0093C18.696 27.4273 18.4984 27.3663 18.4167 27.2443C18.335 27.1222 18.2941 26.9455 18.2941 26.7143C18.2941 26.4188 18.3656 26.2293 18.5087 26.1457C18.6517 26.0622 18.8458 26.0205 19.091 26.0205H19.9289V24.9027C19.9289 24.5172 19.9663 24.2153 20.0412 23.9969C20.1162 23.7785 20.3512 23.6693 20.7462 23.6693C21.0868 23.6693 21.2979 23.7303 21.3797 23.8523C21.4614 23.9744 21.5023 24.1703 21.5023 24.4401V26.0205H24.0361C24.4721 26.0205 24.7888 26.059 24.9863 26.1361C25.1839 26.2132 25.2895 26.3995 25.3031 26.695C25.3031 26.9905 25.1975 27.1864 24.9863 27.2828C24.7752 27.3792 24.4448 27.4273 23.9953 27.4273H21.5023Z" fill="white"/>
<path id="Shape Copy" d="M21.2095 16.6335C21.8399 16.2877 22.9358 16.2873 23.5669 16.6335L33.8963 22.2989C34.5266 22.6446 35.0749 23.546 35.0749 24.2383V35.5691C35.0749 36.2606 34.5274 37.1624 33.8963 37.5086L23.5669 43.174C22.9365 43.5197 21.8406 43.5201 21.2095 43.174L10.8802 37.5086C10.2498 37.1628 9.70147 36.2614 9.70147 35.5691V24.2383C9.70147 23.5468 10.249 22.645 10.8802 22.2989L21.2095 16.6335ZM20.5588 15.5627L10.2294 21.2281C9.19547 21.7952 8.39999 23.1053 8.39999 24.2383L8.39999 35.5691C8.39999 36.7033 9.19651 38.0128 10.2294 38.5793L20.5588 44.2447C21.5927 44.8118 23.1847 44.8113 24.2176 44.2447L34.547 38.5793C35.5809 38.0122 36.3764 36.7022 36.3764 35.5691V24.2383C36.3764 23.1041 35.5799 21.7947 34.547 21.2281L24.2176 15.5627C23.1837 14.9956 21.5917 14.9962 20.5588 15.5627Z" fill="white"/>
<path id="Shape Copy 12" d="M39.0121 12.1972C39.4272 11.9667 40.1489 11.9665 40.5645 12.1972L47.3667 15.9742C47.7819 16.2047 48.143 16.8056 48.143 17.2671V24.821C48.143 25.282 47.7824 25.8832 47.3667 26.114L40.5645 29.8909C40.1493 30.1214 39.4277 30.1217 39.0121 29.8909L32.2098 26.114C31.7947 25.8835 31.4336 25.2826 31.4336 24.821V17.2671C31.4336 16.8061 31.7942 16.205 32.2098 15.9742L39.0121 12.1972ZM38.5835 11.4834L31.7813 15.2604C31.1004 15.6384 30.5765 16.5118 30.5765 17.2671V24.821C30.5765 25.5772 31.1011 26.4501 31.7813 26.8278L38.5835 30.6048C39.2644 30.9828 40.3128 30.9824 40.993 30.6048L47.7953 26.8278C48.4762 26.4498 49 25.5764 49 24.821V17.2671C49 16.511 48.4755 15.638 47.7953 15.2604L40.993 11.4834C40.3121 11.1054 39.2637 11.1057 38.5835 11.4834Z" fill="white" stroke="white" stroke-width="0.159136"/>
</g>
</g>
</svg>
