<svg width="40" height="40" viewBox="0 0 40 40" fill="none" xmlns="http://www.w3.org/2000/svg">
<mask id="mask0_578_2196" style="mask-type:alpha" maskUnits="userSpaceOnUse" x="0" y="0" width="40" height="40">
<path d="M34.964 0H5.03597C2.25468 0 0 2.25468 0 5.03597V34.964C0 37.7453 2.25468 40 5.03597 40H34.964C37.7453 40 40 37.7453 40 34.964V5.03597C40 2.25468 37.7453 0 34.964 0Z" fill="white"/>
</mask>
<g mask="url(#mask0_578_2196)">
<path d="M34.964 0H5.03597C2.25468 0 0 2.25468 0 5.03597V34.964C0 37.7453 2.25468 40 5.03597 40H34.964C37.7453 40 40 37.7453 40 34.964V5.03597C40 2.25468 37.7453 0 34.964 0Z" fill="#3BCEAC"/>
<path d="M20 -1.43884H0V41.4389H20V-1.43884Z" fill="#FFD23E"/>
<path fill-rule="evenodd" clip-rule="evenodd" d="M14.2698 29.2897L19.8828 31.8351C20.0568 32.4878 20.1439 33.9889 20.1439 36.3385C18.1423 35.7294 16.8587 35.2943 16.2931 35.0332C15.7274 34.7721 15.053 34.3153 14.2698 33.6626V29.2897Z" fill="#EF4266"/>
<path d="M14.2164 30.1294C15.3875 30.3047 16.9334 30.914 19.2114 32.3145C19.3853 32.4213 19.4912 32.6108 19.4912 32.8149C19.4912 34.1513 19.4912 35.2606 19.4912 36.1427" stroke="#0FAD69" stroke-width="0.884536"/>
<path fill-rule="evenodd" clip-rule="evenodd" d="M26.4095 29.2897L20.7965 31.8351C20.6225 32.4878 20.5354 33.9889 20.5354 36.3385C22.537 35.7294 23.8206 35.2943 24.3862 35.0332C24.9519 34.7721 25.6263 34.3153 26.4095 33.6626V29.2897Z" fill="#EF4266"/>
<path d="M26.0832 30.1294C24.9121 30.3047 23.3662 30.914 21.0882 32.3145C20.9143 32.4213 20.8084 32.6108 20.8084 32.8149C20.8084 34.1513 20.8084 35.2606 20.8084 36.1427" stroke="#0FAD69" stroke-width="0.884536"/>
<path d="M26.4748 23.9393C26.4748 26.0999 26.4748 29.3407 26.4748 33.6619C26.4748 33.866 26.3689 34.0554 26.195 34.1623C23.4103 35.8743 21.3932 36.7303 20.1438 36.7303C18.8945 36.7303 16.8774 35.8743 14.0927 34.1623C13.9188 34.0554 13.8129 33.866 13.8129 33.6619V24.3947" stroke="black" stroke-width="1.05"/>
<path d="M13.8129 29.2897C15.0623 29.2897 17.0793 30.1456 19.864 31.8576C20.0379 31.9645 20.1438 32.1539 20.1438 32.358C20.1438 34.1222 20.1438 35.4454 20.1438 36.3275" stroke="black" stroke-width="1.05"/>
<path d="M26.4747 29.2897C25.2254 29.2897 23.2083 30.1456 20.4236 31.8576C20.2497 31.9645 20.1438 32.1539 20.1438 32.358C20.1438 34.1222 20.1438 35.4454 20.1438 36.3275" stroke="black" stroke-width="1.05"/>
<path d="M28.3453 14.8746C31.223 5.80982 26.9065 6.24148 26.6187 5.80982C26.4268 5.52205 26.235 5.28224 26.0431 5.0904C20.5755 0.629965 12.518 5.37817 13.3813 4.94651C13.9568 4.65874 14.3405 4.7067 14.5324 5.0904C11.175 7.00886 10.2158 10.2703 11.6547 14.8746C10.9832 14.5868 10.6475 15.3062 10.6475 17.0328C10.6475 18.7595 11.3669 19.8626 12.8057 20.3422V22.0989C12.8057 22.3732 12.866 22.6441 12.9824 22.8925C14.2267 25.5487 16.0383 27.2885 18.4172 28.112H20.2877" stroke="black" stroke-width="1.05" stroke-linecap="round" stroke-linejoin="round"/>
<path d="M28.3453 14.936C29.0168 14.6496 29.3525 15.3657 29.3525 17.0843C29.3525 18.8029 28.6331 19.9009 27.1942 20.3783V22.1232C27.1942 22.3988 27.1334 22.6709 27.0159 22.9202C25.7716 25.5621 23.9606 27.2928 21.5827 28.112H19.7122" stroke="black" stroke-width="1.05" stroke-linecap="round" stroke-linejoin="round"/>
<path d="M23.5971 18.9211C24.9083 18.9211 25.9712 17.8581 25.9712 16.547C25.9712 15.2358 24.9083 14.1729 23.5971 14.1729C22.2859 14.1729 21.223 15.2358 21.223 16.547C21.223 17.8581 22.2859 18.9211 23.5971 18.9211Z" stroke="black" stroke-width="1.05"/>
<path d="M21.2333 15.7532C20.8973 15.6156 20.5294 15.5398 20.1439 15.5398C19.777 15.5398 19.4262 15.6084 19.1036 15.7336" stroke="black" stroke-width="1.05"/>
<path d="M16.6906 18.9211C18.0018 18.9211 19.0647 17.8581 19.0647 16.547C19.0647 15.2358 18.0018 14.1729 16.6906 14.1729C15.3794 14.1729 14.3165 15.2358 14.3165 16.547C14.3165 17.8581 15.3794 18.9211 16.6906 18.9211Z" stroke="black" stroke-width="1.05"/>
<path d="M11.6546 14.8202C12.3261 11.271 14.1966 9.16072 17.2662 8.48926C21.8705 7.48206 23.4532 11.5108 26.4748 6.04321" stroke="black" stroke-width="1.05"/>
<path d="M24.4604 8.63306C24.2685 9.78414 24.7481 10.6954 25.8992 11.3669C27.0503 12.0383 27.8657 13.1894 28.3453 14.8201" stroke="black" stroke-width="1.05"/>
</g>
</svg>
