<svg width="39" height="33" viewBox="0 0 39 33" fill="none" xmlns="http://www.w3.org/2000/svg">
<path fill-rule="evenodd" clip-rule="evenodd" d="M12.4783 16.5147V22.0609C12.4783 22.3557 12.5204 22.6198 12.6048 22.8532C12.6891 23.0866 12.8318 23.2709 13.0329 23.406C13.234 23.5411 13.5292 23.6087 13.9184 23.6087C14.2168 23.6087 14.4763 23.5657 14.6969 23.4797C14.9174 23.3937 15.1315 23.3077 15.3391 23.2217C15.5726 23.1234 15.7737 23.0835 15.9424 23.102C16.111 23.1204 16.2083 23.234 16.2343 23.4428C16.2732 23.6394 16.2181 23.8236 16.0689 23.9956C15.9197 24.1676 15.7186 24.315 15.4656 24.4378C15.2126 24.5607 14.9207 24.6589 14.5898 24.7326C14.259 24.8064 13.9314 24.8432 13.607 24.8432C13.2178 24.8432 12.8643 24.8033 12.5464 24.7234C12.2285 24.6436 11.9528 24.5054 11.7193 24.3089C11.4857 24.1123 11.3041 23.8543 11.1744 23.535C11.0446 23.2156 10.9798 22.8225 10.9798 22.3557V16.5147H10.104C9.80559 16.5147 9.61746 16.4563 9.53962 16.3396C9.46177 16.2229 9.42285 16.054 9.42285 15.8329C9.42285 15.5504 9.49097 15.3692 9.62719 15.2894C9.76342 15.2095 9.9483 15.1696 10.1818 15.1696H10.9798V14.1009C10.9798 13.7324 11.0154 13.4437 11.0868 13.2349C11.1581 13.026 11.3819 12.9216 11.7582 12.9216C12.0826 12.9216 12.2837 12.98 12.3615 13.0967C12.4393 13.2134 12.4783 13.4007 12.4783 13.6587V15.1696H14.8915C15.3066 15.1696 15.6083 15.2064 15.7964 15.2801C15.9845 15.3539 16.0851 15.532 16.0981 15.8145C16.0981 16.097 15.9975 16.2844 15.7964 16.3765C15.5953 16.4686 15.2807 16.5147 14.8525 16.5147H12.4783Z" fill="#00B398"/>
<path d="M12.1996 6.19481C12.7999 5.86424 13.8436 5.86386 14.4447 6.19481L24.2822 11.6114C24.8825 11.942 25.4047 12.8038 25.4047 13.4657V24.2989C25.4047 24.9601 24.8832 25.8222 24.2822 26.1532L14.4447 31.5698C13.8443 31.9004 12.8006 31.9007 12.1996 31.5698L2.36206 26.1532C1.76169 25.8226 1.2395 24.9608 1.2395 24.2989V13.4657C1.2395 12.8046 1.761 11.9424 2.36206 11.6114L12.1996 6.19481ZM11.5798 5.17109L1.74231 10.5877C0.757597 11.1299 0 12.3824 0 13.4657L0 24.2989C0 25.3833 0.758586 26.6353 1.74231 27.1769L11.5798 32.5935C12.5645 33.1357 14.0807 33.1352 15.0644 32.5935L24.9019 27.1769C25.8866 26.6347 26.6442 25.3822 26.6442 24.2989V13.4657C26.6442 12.3813 25.8856 11.1293 24.9019 10.5877L15.0644 5.17109C14.0797 4.6289 12.5635 4.62944 11.5798 5.17109Z" fill="#00B398"/>
<path d="M29.1542 1.95344C29.5496 1.73306 30.2369 1.73281 30.6327 1.95344L37.1111 5.56452C37.5064 5.7849 37.8503 6.35944 37.8503 6.80069V14.0228C37.8503 14.4636 37.5069 15.0384 37.1111 15.259L30.6327 18.8701C30.2373 19.0905 29.55 19.0907 29.1542 18.8701L22.6759 15.259C22.2805 15.0386 21.9366 14.4641 21.9366 14.0228V6.80069C21.9366 6.35994 22.28 5.78515 22.6759 5.56452L29.1542 1.95344ZM28.7461 1.27096L22.2677 4.88204C21.6193 5.2435 21.1204 6.0785 21.1204 6.80069V14.0228C21.1204 14.7458 21.6199 15.5804 22.2677 15.9415L28.7461 19.5526C29.3946 19.914 30.393 19.9137 31.0408 19.5526L37.5192 15.9415C38.1676 15.58 38.6666 14.745 38.6666 14.0228V6.80069C38.6666 6.07778 38.167 5.24313 37.5192 4.88204L31.0408 1.27096C30.3924 0.909499 29.3939 0.909862 28.7461 1.27096Z" fill="#00B398" stroke="#00B398" stroke-width="0.159136"/>
</svg>
