<svg width="35" height="32" viewBox="0 0 35 32" fill="none" xmlns="http://www.w3.org/2000/svg">
<g clip-path="url(#clip0_1008_28002)">
<path d="M26.2594 13.4061C25.71 14.647 24.917 15.7652 23.9276 16.6944C24.1875 16.6606 24.4493 16.6436 24.7114 16.6435C26.1575 16.645 27.5541 17.1704 28.6423 18.1222C29.7306 19.0741 30.4367 20.3879 30.63 21.8203C30.8232 23.2527 30.4904 24.7065 29.6933 25.9124C28.8961 27.1183 27.6886 27.9946 26.2945 28.3789C24.9004 28.7631 23.4142 28.6294 22.1113 28.0023C20.8083 27.3753 19.7769 26.2975 19.2082 24.9686C18.6395 23.6397 18.572 22.1499 19.0182 20.7751C19.4643 19.4003 20.394 18.2337 21.6349 17.4915L21.776 17.4092C23.4015 16.4493 24.6991 15.0213 25.4991 13.3121C25.6069 13.083 25.6951 12.8499 25.795 12.611C26.3323 11.1656 26.5037 9.60989 26.294 8.08228C26.0844 6.55467 25.5001 5.10257 24.5932 3.85519C23.6863 2.60781 22.4849 1.60386 21.0959 0.932667C19.707 0.261478 18.1736 -0.0561244 16.6322 0.00812466C15.0907 0.0723737 13.5891 0.516481 12.2609 1.30092C10.9327 2.08537 9.81913 3.18581 9.0193 4.50433C8.21947 5.82285 7.75818 7.31853 7.67649 8.85829C7.5948 10.398 7.89524 11.9341 8.55107 13.3298C8.29764 13.352 8.04681 13.3833 7.79861 13.4238C6.30866 13.6755 4.90186 14.2841 3.69848 15.1976C2.49509 16.111 1.5309 17.302 0.888325 18.6689C0.245749 20.0358 -0.0561006 21.5379 0.00857777 23.0468C0.0732561 24.5557 0.502539 26.0264 1.25973 27.3334C2.01692 28.6404 3.07951 29.7447 4.35665 30.5519C5.63379 31.3591 7.08751 31.8452 8.59354 31.9687C10.0996 32.0922 11.6131 31.8493 13.0048 31.261C14.3965 30.6726 15.625 29.7562 16.5852 28.59C15.782 27.5019 15.2068 26.2629 14.8941 24.9473C14.4779 25.9491 13.7974 26.8192 12.9251 27.4648C12.0528 28.1103 11.0215 28.507 9.94129 28.6125C8.86107 28.718 7.77245 28.5285 6.7916 28.064C5.81075 27.5996 4.97447 26.8777 4.37203 25.9754C3.76958 25.073 3.42356 24.0242 3.3709 22.9407C3.31825 21.8572 3.56092 20.7797 4.07304 19.8233C4.58515 18.8669 5.34748 18.0674 6.27868 17.5101C7.20987 16.9528 8.27499 16.6587 9.36036 16.6591C9.62239 16.6594 9.88416 16.6757 10.1442 16.7081C11.1845 16.8444 12.1708 17.2514 13.0043 17.8882C13.8379 18.5251 14.4896 19.3695 14.8941 20.3371C15.1985 21.0669 15.3556 21.8496 15.3566 22.6402C15.3582 24.4239 15.8701 26.1698 16.8319 27.6723C17.7936 29.1747 19.1651 30.371 20.7847 31.1201C22.4043 31.8692 24.2044 32.1399 25.9728 31.9002C27.7413 31.6606 29.4043 30.9206 30.7658 29.7675C32.1273 28.6143 33.1305 27.0962 33.6572 25.392C34.1839 23.6879 34.2121 21.8687 33.7385 20.1491C33.2648 18.4294 32.3091 16.8809 30.984 15.6862C29.6589 14.4915 28.0196 13.7004 26.2594 13.4061ZM17.8119 15.2882C17.552 15.3226 17.2902 15.3403 17.028 15.3411C15.5777 15.3426 14.176 14.8186 13.0827 13.8661C11.9895 12.9136 11.2788 11.5972 11.0825 10.161C10.8862 8.72485 11.2176 7.26623 12.0152 6.05557C12.8128 4.84491 14.0225 3.96432 15.4201 3.57705C16.8177 3.18978 18.3084 3.32209 19.6159 3.94946C20.9234 4.57682 21.9589 5.65669 22.5306 6.98888C23.1022 8.32107 23.1712 9.81522 22.7247 11.1944C22.2783 12.5735 21.3467 13.7441 20.1026 14.4892L19.9615 14.5714C19.2956 14.946 18.5638 15.1887 17.806 15.2862L17.8119 15.2882ZM19.2325 8.96045L16.013 13.7058C15.9963 13.732 15.9706 13.7513 15.9408 13.7602C15.9109 13.7691 15.8789 13.7669 15.8505 13.754C15.8221 13.7411 15.7994 13.7185 15.7864 13.6902C15.7734 13.6619 15.7711 13.6299 15.7798 13.6L16.738 9.91813H14.9431C14.9205 9.9176 14.8984 9.91114 14.879 9.89939C14.8597 9.88765 14.8437 9.87103 14.8328 9.8512C14.8219 9.83138 14.8164 9.80904 14.8168 9.78641C14.8173 9.76379 14.8236 9.74168 14.8353 9.72229L18.0607 4.97304C18.0775 4.9468 18.1031 4.92748 18.133 4.91862C18.1628 4.90976 18.1949 4.91197 18.2232 4.92483C18.2516 4.93769 18.2743 4.96034 18.2873 4.98863C18.3003 5.01691 18.3026 5.04893 18.2939 5.0788L17.3357 8.75873H19.1306C19.153 8.75982 19.1748 8.76663 19.1938 8.7785C19.2128 8.79038 19.2285 8.80692 19.2393 8.82655C19.2501 8.84619 19.2557 8.86827 19.2555 8.89068C19.2554 8.91309 19.2495 8.93509 19.2384 8.95458" fill="#F15A29"/>
</g>
<defs>
<clipPath id="clip0_1008_28002">
<rect width="34.0741" height="32" fill="white"/>
</clipPath>
</defs>
</svg>
