<svg width="21" height="24" viewBox="0 0 21 24" fill="none" xmlns="http://www.w3.org/2000/svg">
<path d="M8.17862 12.0007L0.454248 7.30991C0.322277 7.22977 0.211853 7.1177 0.13281 6.98369C-0.131919 6.53484 0.0114634 5.95286 0.453065 5.68378L9.48623 0.179793C9.87937 -0.0597536 10.3703 -0.0599435 10.7636 0.179299L19.7963 5.6735C19.9282 5.75369 20.0385 5.86576 20.1174 5.99974C20.3819 6.4487 20.2383 7.03062 19.7966 7.2995L12.0738 12.0004L19.7963 16.6976C19.9282 16.7778 20.0385 16.8899 20.1174 17.0239C20.3819 17.4728 20.2383 18.0548 19.7966 18.3236L10.7662 23.8205C10.3734 24.0596 9.88304 24.0599 9.48999 23.8212L0.454248 18.3341C0.322277 18.2539 0.211853 18.1418 0.13281 18.0078C-0.131919 17.559 0.0114634 16.977 0.453065 16.7079L8.17862 12.0007ZM3.14186 17.4358C3.12863 17.4439 3.11756 17.4551 3.10965 17.4686C3.08322 17.5135 3.09762 17.5716 3.14181 17.5985L10.0485 21.7962C10.0976 21.826 10.1589 21.826 10.208 21.7962L17.1136 17.5985C17.1268 17.5905 17.1379 17.5792 17.1458 17.5658C17.1722 17.5208 17.1578 17.4627 17.1136 17.4358L10.1283 13.1953L3.14186 17.4358ZM3.14186 6.41169C3.12863 6.41972 3.11756 6.43096 3.10965 6.44441C3.08322 6.48932 3.09762 6.54751 3.14181 6.57436L10.1283 10.8205L17.1136 6.57436C17.1268 6.56632 17.1379 6.55507 17.1458 6.54163C17.1722 6.4967 17.1578 6.43852 17.1136 6.41169L10.2079 2.21948C10.1589 2.1897 10.0977 2.18969 10.0486 2.21948L3.14186 6.41169Z" fill="#4554D7"/>
</svg>
