<svg width="51" height="24" viewBox="0 0 51 24" fill="none" xmlns="http://www.w3.org/2000/svg">
<path fill-rule="evenodd" clip-rule="evenodd" d="M6.6373 5.29702L4.58071 3.24264L3.73729 2.3865C5.48439 0.925678 7.71251 0.0368477 10.1441 0V8.59536C10.0973 8.61436 10.0537 8.63973 10.0143 8.67047L7.43308 6.09197C7.47056 6.01763 7.4922 5.9341 7.4922 5.84561C7.4922 5.61525 7.34903 5.41669 7.14719 5.33432C7.06322 5.28018 6.9638 5.24876 6.85752 5.24876C6.77914 5.24876 6.70472 5.26626 6.6373 5.29702L6.6373 5.29702ZM4.67465 11.4192L0.533898 7.25585C1.1219 5.47523 2.1684 3.90566 3.53244 2.68841L6.44634 5.59923C6.4089 5.67359 6.38726 5.75709 6.38726 5.84561C6.38726 6.0552 6.5058 6.2385 6.67921 6.33188C6.76739 6.3923 6.87368 6.42769 6.98778 6.42769C7.07151 6.42769 7.15079 6.40814 7.22202 6.37405L9.45513 8.60479L9.93907 9.09201C9.93647 9.11338 9.93474 9.13494 9.93474 9.15699C9.93474 9.30414 9.99325 9.43816 10.0882 9.53724C10.1399 9.60494 10.2068 9.6604 10.2837 9.69841V16.6616C10.2034 16.6936 10.1326 16.744 10.0758 16.8075L8.59055 15.3257C8.62233 15.2559 8.64041 15.1786 8.64041 15.0971C8.64041 14.9768 8.60186 14.8651 8.53657 14.774C8.44481 14.5954 8.25841 14.4726 8.04469 14.4726C7.95513 14.4726 7.87067 14.4946 7.79568 14.5328L4.67465 11.4192ZM20.431 7.25516C20.4297 7.25116 20.4284 7.24716 20.4271 7.24317L16.3767 11.2841L15.491 12.1643C15.4156 12.1257 15.3305 12.1034 15.2403 12.1034C15.0689 12.1034 14.9152 12.1821 14.8137 12.3049C14.71 12.4054 14.6454 12.5459 14.6454 12.7007C14.6454 12.7889 14.6668 12.8722 14.704 12.9463L10.9155 16.7111C10.8498 16.6479 10.7684 16.601 10.678 16.5762V9.67412C10.737 9.65223 10.7914 9.62056 10.8391 9.58109C10.9869 9.48241 11.0848 9.31482 11.0848 9.12532C11.0848 9.08499 11.0801 9.04574 11.0717 9.00782L17.4447 2.66667C18.8218 3.87836 19.8768 5.4438 20.4661 7.2203L20.431 7.25516ZM10.8705 8.70188C10.8142 8.65679 10.7489 8.62312 10.678 8.60333V0C13.1106 0.0436415 15.3386 0.939436 17.0847 2.407L12.0587 7.51495L10.8705 8.70188V8.70188ZM10.1642 17.6204C10.2002 17.6518 10.2404 17.6785 10.2837 17.6997V23.9924C10.2965 23.9935 10.3093 23.9945 10.322 23.9954V24C7.27592 23.7396 0 16.2699 0 10.593C0 9.56906 0.148035 8.57971 0.422747 7.64444L0.719291 7.94083L7.55255 14.7756C7.51427 14.8505 7.4922 14.935 7.4922 15.0245C7.4922 15.2039 7.57905 15.364 7.71284 15.465C7.81154 15.5576 7.94417 15.6145 8.08947 15.6145C8.17701 15.6145 8.25973 15.5934 8.33341 15.5567L9.9355 17.1591C9.93535 17.1641 9.93474 17.1689 9.93474 17.1739C9.93474 17.3572 10.0254 17.52 10.1642 17.6204ZM15.7341 12.485L20.5828 7.64444C20.854 8.57465 21 9.55797 21 10.5754C21 16.234 13.5255 23.67 10.678 24V17.7306C10.9117 17.6664 11.0851 17.4526 11.0851 17.1998C11.0851 17.1765 11.0831 17.1537 11.0802 17.1311L14.9925 13.2253C15.0679 13.2639 15.1529 13.2861 15.2429 13.2861C15.5468 13.2861 15.7953 13.0382 15.7953 12.7353C15.7953 12.6452 15.773 12.5602 15.7341 12.485Z" fill="#5DB4BC"/>
<path d="M33.6826 14.9906V13.9357H35.7677L36.4467 10.0276H34.3793V8.94867H36.6315L37.184 5.56805H38.4614L37.8849 8.94867H41.1239L41.6764 5.56805H42.9528L42.4003 8.94867H44.325V10.0276H42.2159L41.5369 13.9357H43.6283V14.9906H41.3758L40.7992 18.4432H39.5467L40.1233 14.9906H36.8834L36.3068 18.4432H35.0553L35.6078 14.9906H33.6826ZM40.9407 10.0276H37.6767L37.0429 13.9357H40.3069L40.9407 10.0276Z" fill="black"/>
<path fill-rule="evenodd" clip-rule="evenodd" d="M39.0001 23.9999C43.2872 23.9999 47.2485 21.7129 49.3921 17.9999C51.5356 14.287 51.5356 9.71285 49.3921 5.99994C47.2485 2.28702 43.2872 -6.01262e-05 39.0001 -6.01262e-05C34.713 -6.01262e-05 30.7517 2.28702 28.6082 5.99994C26.4646 9.71285 26.4646 14.287 28.6082 17.9999C30.7517 21.7129 34.713 23.9999 39.0001 23.9999V22.8486C35.1243 22.8486 31.543 20.7808 29.6049 17.4243C27.6668 14.0678 27.6668 9.93204 29.6049 6.57559C31.543 3.21913 35.1243 1.15123 39.0001 1.15123C42.8759 1.15123 46.4572 3.21913 48.3953 6.57559C50.3334 9.93204 50.3334 14.0678 48.3953 17.4243C46.4572 20.7808 42.8759 22.8486 39.0001 22.8486V23.9999Z" fill="#455A64" fill-opacity="0.01"/>
<path fill-rule="evenodd" clip-rule="evenodd" d="M39 23.9999C42.6517 23.9999 46.1051 22.3371 48.3819 19.4819L47.4817 18.7642C45.4232 21.3453 42.3015 22.8486 39 22.8486V23.9999Z" fill="#CE001B"/>
<path fill-rule="evenodd" clip-rule="evenodd" d="M48.3821 19.482C50.659 16.6268 51.5118 12.89 50.6993 9.32982L49.5768 9.58576C50.3114 12.8045 49.5405 16.1831 47.4819 18.7642L48.3821 19.482Z" fill="#780011"/>
<path fill-rule="evenodd" clip-rule="evenodd" d="M50.6992 9.32987C49.8867 5.76973 47.4965 2.77282 44.2065 1.18847L43.707 2.22552C46.6817 3.65799 48.8421 6.36707 49.5767 9.58582L50.6992 9.32987Z" fill="#6D7096"/>
<path fill-rule="evenodd" clip-rule="evenodd" d="M44.2062 1.18842C40.9162 -0.395939 37.0834 -0.395939 33.7935 1.18842L34.2929 2.22546C37.2676 0.792991 40.732 0.792991 43.7067 2.22546L44.2062 1.18842Z" fill="#60BBD5"/>
<path fill-rule="evenodd" clip-rule="evenodd" d="M33.7937 1.18847C30.5038 2.77282 28.1136 5.76973 27.301 9.32987L28.4235 9.58582C29.1581 6.36707 31.3185 3.65799 34.2932 2.22552L33.7937 1.18847Z" fill="#0F99BE"/>
<path fill-rule="evenodd" clip-rule="evenodd" d="M27.3009 9.32982C26.4884 12.89 27.3412 16.6268 29.6181 19.482L30.5183 18.7642C28.4597 16.1831 27.6888 12.8045 28.4234 9.58576L27.3009 9.32982Z" fill="#8C9D26"/>
<path fill-rule="evenodd" clip-rule="evenodd" d="M29.6182 19.4819C31.895 22.3371 35.3484 23.9999 39.0001 23.9999V22.8486C35.6986 22.8486 32.5769 21.3453 30.5184 18.7642L29.6182 19.4819Z" fill="#FCD813"/>
</svg>
