<svg width="20" height="24" viewBox="0 0 20 24" fill="none" xmlns="http://www.w3.org/2000/svg">
<path d="M17.0401 1.81744C15.9392 0.548556 13.9808 0 11.4357 0H4.09281C3.5787 0 3.13907 0.373091 3.06459 0.895789L0.00535836 20.5792C-0.0436911 20.9781 0.250606 21.3254 0.617568 21.3254H5.14465L6.27097 13.9854L6.24736 14.2089C6.32002 13.6862 6.76147 13.3131 7.27558 13.3131H9.43012C13.6647 13.3131 16.9692 11.5714 17.9229 6.51988C17.9466 6.37027 17.972 6.22067 17.9956 6.07106C18.3371 4.23146 18.0447 2.96257 17.0401 1.81744Z" fill="#003087"/>
<path d="M17.0401 1.81744C15.9392 0.548556 13.9808 0 11.4357 0H4.09281C3.5787 0 3.13907 0.373091 3.06459 0.895789L0.00535836 20.5792C-0.0436911 20.9781 0.250606 21.3254 0.617568 21.3254H5.14465L6.27097 13.9854L6.24736 14.2089C6.32002 13.6862 6.76147 13.3131 7.27558 13.3131H9.43012C13.6647 13.3131 16.9692 11.5714 17.9229 6.51988C17.9466 6.37027 17.972 6.22067 17.9956 6.07106C18.3371 4.23146 18.0447 2.96257 17.0401 1.81744Z" fill="#003087"/>
<path d="M7.55172 6.12341C7.60077 5.80018 7.79697 5.55084 8.06584 5.42709C8.18755 5.37722 8.31108 5.32735 8.45823 5.32735H14.1861C14.871 5.32735 15.5086 5.37722 16.07 5.47696C16.2407 5.50097 16.3879 5.52683 16.5587 5.5767C16.7058 5.60071 16.8766 5.65058 17.0237 5.70045C17.0964 5.72446 17.1709 5.75031 17.2435 5.77433C17.5378 5.87406 17.8067 5.9738 18.0265 6.12341C18.3208 4.25795 18.0265 2.98722 17.0237 1.84393C15.9228 0.575045 13.9645 0.0264893 11.4194 0.0264893H4.07648C3.56237 0.0264893 3.12274 0.39958 3.04826 0.922278L0.0380732 20.5798C-0.0109763 20.9788 0.283321 21.326 0.650283 21.326H5.17737L6.30369 13.986L7.55172 6.12341Z" fill="#003087"/>
<path d="M18.0491 6.10815C18.0255 6.25776 18 6.40737 17.9764 6.55697C17.0227 11.6085 13.6928 13.3502 9.48359 13.3502H7.32905C6.81494 13.3502 6.37531 13.7233 6.30083 14.246L5.17451 21.3384L4.85659 23.3535C4.80754 23.7026 5.05279 24 5.39432 24H9.21291C9.65436 24 10.0449 23.6767 10.1176 23.2039L10.1667 23.0044L10.8788 18.3759L10.9278 18.1265C11.0005 17.6777 11.3929 17.3305 11.8325 17.3305H12.3957C16.0907 17.3305 18.9792 15.8122 19.8367 11.3832C20.18 9.54171 20.0074 7.99947 19.0773 6.90421C18.8084 6.58098 18.4415 6.33164 18.0491 6.10815Z" fill="#009CDE"/>
<path d="M17.0336 5.68852C16.8864 5.63865 16.7393 5.61464 16.5685 5.56477C16.4213 5.54076 16.2506 5.49089 16.0798 5.46504C15.493 5.3653 14.8554 5.31543 14.1959 5.31543H8.44263C8.29548 5.31543 8.17377 5.33944 8.05023 5.41517C7.78137 5.53892 7.58517 5.78826 7.53612 6.11148L6.3117 13.9741L6.28809 14.1976C6.36075 13.6749 6.8022 13.3018 7.31631 13.3018H9.47085C13.7055 13.3018 17.0099 11.5601 17.9637 6.50859C17.9873 6.35898 18.0127 6.20937 18.0363 6.05977C17.7911 5.93602 17.5222 5.81042 17.2534 5.71069C17.1807 5.73839 17.108 5.71438 17.0336 5.68852Z" fill="#012169"/>
</svg>
