<svg width="383" height="190" viewBox="0 0 383 190" fill="none" xmlns="http://www.w3.org/2000/svg">
<mask id="mask0_803_23158" style="mask-type:alpha" maskUnits="userSpaceOnUse" x="0" y="0" width="584" height="384">
<rect width="584" height="384" fill="white"/>
</mask>
<g mask="url(#mask0_803_23158)">
<path fill-rule="evenodd" clip-rule="evenodd" d="M582.006 57.241C490.157 -3.28845 353.053 -23.2717 253.388 50.407C116.988 151.373 79.2346 266.014 -46.6167 199.111C-169.758 133.652 -193.958 112.532 -307.412 133.454C-385.591 147.872 -505.727 158.065 -607.483 146.222C-697.276 135.767 -732.913 121.459 -857 68.3284V381L582.006 380.895V57.241Z" fill="#F89953"/>
<path fill-rule="evenodd" clip-rule="evenodd" d="M-857 379L582.006 378.896V81.664C487.581 33.5137 357.225 32.51 259.948 108.264C115.459 220.914 85.2484 335.296 -44.282 260.513C-170.291 187.759 -199.883 160.351 -323.111 189.035C-398.717 206.637 -518.007 194.88 -619.763 181.499C-711.049 169.502 -730.992 178.99 -857 121.831V379Z" fill="#FCA67C"/>
<path fill-rule="evenodd" clip-rule="evenodd" d="M-857 381L582.006 380.895V83.6639C487.581 35.5137 357.225 34.51 259.948 110.264C115.46 222.913 85.2494 337.296 -44.2811 262.513C-170.291 189.758 -199.883 162.351 -323.111 191.035C-398.717 208.637 -518.007 196.88 -619.763 183.498C-711.049 171.502 -730.992 180.99 -857 123.831V381Z" fill="#F88953"/>
<path fill-rule="evenodd" clip-rule="evenodd" d="M582.006 111.503C486.19 75.9699 361.639 90.0108 266.492 167.593C113.934 292.177 91.2443 406.55 -41.9285 323.705C-170.841 243.511 -206.032 209.212 -338.808 246.254C-412.003 266.677 -530.288 233.336 -632.033 218.396C-724.862 204.767 -728.017 239.746 -857 176.463V379L582.006 378.896V111.503Z" fill="#FA9276"/>
<path fill-rule="evenodd" clip-rule="evenodd" d="M582.006 113.503C486.19 77.97 361.639 92.0108 266.492 169.592C113.934 294.176 91.2443 408.549 -41.9285 325.704C-170.841 245.511 -206.032 211.211 -338.808 248.255C-412.003 268.677 -530.288 235.335 -632.033 220.396C-724.862 206.767 -728.017 241.746 -857 178.463V381L582.006 380.895V113.503Z" fill="#F5704C"/>
<path fill-rule="evenodd" clip-rule="evenodd" d="M-857 379L-51.8204 378.899C-174.119 296.883 -217.04 259.123 -354.502 303.63C-425.507 326.619 -542.568 271.895 -644.314 255.382C-738.685 240.084 -723.947 302.361 -857 230.778V379ZM582.006 378.896V145.176C485.621 121.904 366.174 148.04 273.052 227.082C202.344 287.184 159.82 342.997 122.705 378.899L582.006 378.896Z" fill="#FC7C6F"/>
<path fill-rule="evenodd" clip-rule="evenodd" d="M-857 381L-51.8204 380.898C-174.119 298.882 -217.04 261.122 -354.502 305.629C-425.507 328.615 -542.568 273.895 -644.314 257.383C-738.685 242.084 -723.947 304.361 -857 232.777V381ZM582.006 380.895V147.176C485.621 123.904 366.174 150.041 273.052 229.081C202.344 289.183 159.82 344.997 122.705 380.898L582.006 380.895Z" fill="#F95C4C"/>
<path fill-rule="evenodd" clip-rule="evenodd" d="M582.006 183.172C485.674 171.459 370.793 207.252 279.613 287.105C242.034 320.051 212.46 351.297 187.609 378.899L582.006 378.896V183.172ZM-140.132 378.899C-209.843 335.308 -264.768 322.623 -370.206 361.231C-439.211 386.5 -554.828 310.835 -656.594 292.828C-752.488 275.858 -718.762 366.922 -857 285.02V379L-140.132 378.899Z" fill="#F8666D"/>
<path opacity="0.49807" fill-rule="evenodd" clip-rule="evenodd" d="M582.006 185.172C485.674 173.459 370.793 209.252 279.613 289.104C242.034 322.05 212.46 353.295 187.609 380.898L582.006 380.895V185.172ZM-140.132 380.898C-209.843 337.308 -264.768 324.623 -370.206 363.231C-439.211 388.499 -554.828 312.836 -656.594 294.829C-752.488 277.859 -718.762 368.923 -857 287.02V381L-140.132 380.898Z" fill="#EF4266"/>
</g>
</svg>
