<svg width="56" height="56" viewBox="0 0 56 56" fill="none" xmlns="http://www.w3.org/2000/svg">
<rect width="56" height="56" rx="5" fill="#F15A29"/>
<g clip-path="url(#clip0_544_5198)">
<path d="M39.3528 24.8574C38.6871 26.3608 37.7264 27.7155 36.5276 28.8413C36.8425 28.8004 37.1597 28.7798 37.4773 28.7796C39.2293 28.7814 40.9213 29.4179 42.2397 30.5712C43.5582 31.7244 44.4137 33.3161 44.6478 35.0515C44.8819 36.7869 44.4787 38.5482 43.513 40.0093C42.5472 41.4703 41.0843 42.5319 39.3953 42.9975C37.7063 43.463 35.9057 43.301 34.3271 42.5413C32.7485 41.7816 31.499 40.4758 30.8099 38.8658C30.1209 37.2558 30.0391 35.4508 30.5797 33.7852C31.1203 32.1195 32.2466 30.7062 33.75 29.807L33.9209 29.7073C35.8902 28.5443 37.4624 26.8143 38.4316 24.7435C38.5622 24.4659 38.669 24.1836 38.7901 23.8941C39.441 22.143 39.6487 20.2581 39.3947 18.4074C39.1407 16.5566 38.4328 14.7973 37.334 13.2861C36.2353 11.7749 34.7798 10.5585 33.097 9.74535C31.4143 8.93218 29.5565 8.54739 27.689 8.62523C25.8214 8.70307 24.0022 9.24112 22.393 10.1915C20.7838 11.1419 19.4347 12.4751 18.4657 14.0726C17.4967 15.67 16.9378 17.4821 16.8388 19.3475C16.7398 21.213 17.1038 23.074 17.8984 24.7649C17.5914 24.7918 17.2875 24.8298 16.9868 24.8788C15.1816 25.1838 13.4772 25.9212 12.0193 27.0278C10.5614 28.1344 9.3932 29.5775 8.61469 31.2335C7.83619 32.8896 7.47048 34.7094 7.54884 36.5375C7.6272 38.3655 8.1473 40.1474 9.06466 41.7309C9.98203 43.3143 11.2694 44.6522 12.8167 45.6301C14.364 46.6081 16.1252 47.1971 17.9499 47.3467C19.7745 47.4963 21.6082 47.2021 23.2943 46.4893C24.9804 45.7764 26.4687 44.6661 27.632 43.2533C26.6589 41.935 25.962 40.4339 25.5832 38.84C25.079 40.0538 24.2545 41.1079 23.1977 41.89C22.1409 42.6721 20.8914 43.1527 19.5827 43.2805C18.274 43.4084 16.9551 43.1787 15.7667 42.616C14.5784 42.0533 13.5652 41.1787 12.8353 40.0855C12.1054 38.9923 11.6862 37.7216 11.6224 36.4089C11.5586 35.0962 11.8526 33.7908 12.4731 32.6321C13.0935 31.4734 14.0171 30.5047 15.1453 29.8296C16.2735 29.1544 17.5639 28.7981 18.8789 28.7986C19.1963 28.7988 19.5135 28.8186 19.8285 28.8579C21.0889 29.023 22.2838 29.5161 23.2937 30.2877C24.3036 31.0592 25.0931 32.0823 25.5832 33.2546C25.952 34.1387 26.1424 35.087 26.1435 36.0449C26.1455 38.2058 26.7657 40.3211 27.9309 42.1414C29.0961 43.9617 30.7577 45.411 32.7199 46.3186C34.6821 47.2262 36.863 47.5541 39.0055 47.2638C41.1481 46.9734 43.1628 46.0769 44.8124 44.6798C46.4619 43.2828 47.6773 41.4435 48.3154 39.3788C48.9536 37.3142 48.9877 35.1102 48.4139 33.0268C47.84 30.9433 46.6822 29.0673 45.0767 27.6199C43.4713 26.1725 41.4853 25.214 39.3528 24.8574ZM29.1182 27.1376C28.8034 27.1793 28.4862 27.2007 28.1686 27.2017C26.4114 27.2036 24.7132 26.5687 23.3887 25.4147C22.0641 24.2607 21.2032 22.6659 20.9653 20.9259C20.7275 19.1859 21.129 17.4187 22.0953 15.9519C23.0616 14.4852 24.5272 13.4183 26.2205 12.9491C27.9138 12.4799 29.7198 12.6402 31.3039 13.4003C32.8879 14.1604 34.1425 15.4687 34.8351 17.0827C35.5277 18.6967 35.6112 20.5069 35.0703 22.1778C34.5294 23.8487 33.4007 25.2669 31.8935 26.1696L31.7225 26.2692C30.9159 26.723 30.0292 27.0171 29.1111 27.1353L29.1182 27.1376ZM30.8394 19.4713L26.9388 25.2205C26.9185 25.2523 26.8875 25.2757 26.8513 25.2864C26.8151 25.2971 26.7763 25.2945 26.7419 25.2789C26.7076 25.2633 26.68 25.2359 26.6643 25.2016C26.6486 25.1673 26.6457 25.1285 26.6563 25.0923L27.8172 20.6316H25.6426C25.6152 20.6309 25.5884 20.6231 25.5649 20.6089C25.5415 20.5946 25.5222 20.5745 25.509 20.5505C25.4958 20.5265 25.4891 20.4994 25.4896 20.472C25.4901 20.4446 25.4979 20.4178 25.512 20.3943L29.4197 14.6404C29.44 14.6086 29.4711 14.5852 29.5072 14.5745C29.5434 14.5638 29.5822 14.5664 29.6166 14.582C29.6509 14.5976 29.6785 14.625 29.6942 14.6593C29.71 14.6936 29.7128 14.7324 29.7022 14.7685L28.5413 19.2269H30.7159C30.7431 19.2282 30.7694 19.2365 30.7925 19.2509C30.8155 19.2653 30.8345 19.2853 30.8476 19.3091C30.8607 19.3329 30.8674 19.3596 30.8672 19.3868C30.8671 19.4139 30.8599 19.4406 30.8465 19.4642" fill="white"/>
</g>
<defs>
<clipPath id="clip0_544_5198">
<rect width="41.282" height="38.7692" fill="white" transform="translate(7.53845 8.61539)"/>
</clipPath>
</defs>
</svg>
