<svg width="688" height="360" viewBox="0 0 688 360" fill="none" xmlns="http://www.w3.org/2000/svg">
<rect width="688" height="360" rx="16" fill="#F7991E"/>
<mask id="mask0_778_20902" style="mask-type:alpha" maskUnits="userSpaceOnUse" x="0" y="0" width="688" height="360">
<rect width="688" height="360" rx="16" fill="#FAC278"/>
</mask>
<g mask="url(#mask0_778_20902)">
<path d="M150.5 346L157 356L172 358L184.5 360.5H525.5L532.5 341.5L542.5 315.5L551 290.5L574.5 232.5L585.5 200L579.5 171L574.5 165.5H480L328 150.5L296.5 143.5L286.5 140V145L281 158L253.5 197L178 295.5L159 313.5L148 332.5L150.5 346Z" fill="#F4F4F4"/>
<path d="M310.152 202.361C309.991 202.703 309.982 203.023 310.124 203.322C310.285 203.622 310.312 203.848 310.205 204.001L310.157 204.07C310.007 204.284 309.727 204.377 309.318 204.348L305.1 204.053C304.69 204.025 304.561 203.903 304.71 203.689L304.759 203.62C304.844 203.498 305.16 203.312 305.707 203.061C306.283 202.797 306.647 202.485 306.8 202.127L311.805 191.674L298.463 202.988C298.038 203.343 297.64 203.507 297.267 203.481C296.858 203.453 296.683 203.256 296.743 202.891L299.74 190.494L290.209 200.967C289.888 201.313 289.812 201.645 289.981 201.961C290.18 202.264 290.236 202.476 290.15 202.599L290.102 202.668C289.952 202.882 289.682 202.975 289.291 202.948L286.442 202.748C286.051 202.721 285.93 202.6 286.08 202.386L286.128 202.318C286.224 202.18 286.537 201.985 287.064 201.733C287.603 201.466 288.027 201.167 288.337 200.836L299.524 188.626C299.815 188.294 299.88 187.977 299.719 187.677C299.558 187.378 299.526 187.159 299.622 187.021L299.67 186.952C299.831 186.723 300.088 186.621 300.442 186.645L302.9 186.817C303.514 186.86 303.769 187.111 303.663 187.568L300.344 199.799L313.691 188.27C314.206 187.84 314.743 187.645 315.302 187.684L317.899 187.866C318.235 187.89 318.327 188.008 318.177 188.222L318.129 188.291C318.033 188.429 317.829 188.567 317.517 188.705C317.216 188.829 316.912 188.984 316.605 189.171C316.317 189.359 316.093 189.608 315.935 189.918L310.152 202.361ZM318.284 205.216C315.993 205.055 314.561 204.354 313.986 203.111C313.411 201.867 313.685 200.443 314.809 198.838C315.934 197.232 317.541 195.941 319.631 194.964C321.721 193.988 323.735 193.567 325.671 193.703C327.831 193.854 329.204 194.543 329.79 195.771C330.386 196.984 330.117 198.4 328.982 200.021C327.858 201.627 326.292 202.929 324.284 203.927C322.276 204.925 320.276 205.355 318.284 205.216ZM319.313 204.373C320.207 204.436 321.169 204.15 322.198 203.517C323.239 202.868 324.182 201.939 325.028 200.731C326.163 199.11 326.703 197.696 326.65 196.49C326.615 195.284 325.964 194.637 324.698 194.549C323.692 194.478 322.656 194.759 321.589 195.39C320.551 196.007 319.599 196.935 318.732 198.174C317.683 199.672 317.173 201.056 317.202 202.325C317.25 203.596 317.954 204.278 319.313 204.373ZM341.599 204.609C341.364 204.945 341.327 205.263 341.488 205.563C341.649 205.863 341.687 206.074 341.601 206.197L341.553 206.265C341.403 206.479 341.17 206.575 340.853 206.553L337.948 206.35C337.613 206.327 337.528 206.168 337.695 205.875L338.173 205.067C336.557 205.98 334.911 206.378 333.235 206.261C331.447 206.136 330.28 205.501 329.734 204.356C329.207 203.213 329.548 201.777 330.758 200.049C331.925 198.382 333.507 197.057 335.504 196.074C337.519 195.092 339.458 194.667 341.321 194.797C342.773 194.898 343.72 195.374 344.161 196.223L347.18 191.911C347.383 191.62 347.437 191.375 347.343 191.176C347.266 190.978 347.154 190.818 347.005 190.695C346.886 190.559 346.875 190.422 346.971 190.284L347.003 190.238C347.142 190.039 347.417 189.898 347.827 189.814L351.334 189.242C352.114 189.104 352.344 189.264 352.022 189.723L341.599 204.609ZM334.599 205.442C335.363 205.496 336.224 205.283 337.184 204.805C338.163 204.328 338.978 203.623 339.632 202.691L342.201 199.021C342.737 198.256 342.875 197.528 342.617 196.836C342.37 196.129 341.772 195.743 340.822 195.676C339.779 195.603 338.695 195.896 337.569 196.556C336.454 197.199 335.465 198.125 334.6 199.331C333.439 200.934 332.834 202.328 332.787 203.511C332.758 204.696 333.362 205.34 334.599 205.442ZM356.71 204.125C356.977 203.968 357.206 203.919 357.397 203.981C357.607 204.044 357.623 204.189 357.444 204.417C356.727 205.217 355.615 205.941 354.106 206.59C352.597 207.238 351.033 207.506 349.413 207.392C347.513 207.26 346.305 206.614 345.788 205.455C345.29 204.297 345.651 202.847 346.872 201.104C348.007 199.483 349.592 198.182 351.626 197.202C353.679 196.222 355.636 195.798 357.498 195.928C359.174 196.045 360.218 196.479 360.63 197.23C361.072 197.966 360.982 198.778 360.361 199.665C359.804 200.46 358.955 200.962 357.812 201.171L349.623 202.74C349.42 203.559 349.517 204.216 349.915 204.709C350.312 205.202 350.994 205.482 351.963 205.55C352.801 205.608 353.634 205.506 354.463 205.243C355.321 204.967 356.07 204.594 356.71 204.125ZM356.33 196.761C355.454 196.699 354.515 196.995 353.512 197.646C352.509 198.298 351.616 199.182 350.835 200.298C350.471 200.818 350.184 201.311 349.975 201.778L355.768 200.451C356.38 200.301 356.847 199.997 357.168 199.538C357.554 198.988 357.689 198.404 357.575 197.786C357.489 197.155 357.074 196.813 356.33 196.761ZM372.447 196.973C373.247 197.029 373.743 197.257 373.933 197.655C374.141 198.054 374.053 198.529 373.667 199.08C372.993 200.043 372.171 200.491 371.203 200.423C370.793 200.395 370.541 200.281 370.446 200.082C370.351 199.882 370.356 199.666 370.461 199.433C370.565 199.2 370.58 198.984 370.503 198.786C370.427 198.589 370.212 198.477 369.858 198.453C369.244 198.41 368.576 198.652 367.855 199.179C367.135 199.706 366.496 200.367 365.939 201.162L362.502 206.07C362.267 206.407 362.272 206.72 362.519 207.01C362.765 207.3 362.84 207.513 362.743 207.651L362.679 207.743C362.529 207.957 362.259 208.05 361.868 208.023L357.538 207.72C357.147 207.693 357.027 207.572 357.177 207.358L357.241 207.266C357.337 207.129 357.653 206.942 358.189 206.707C358.725 206.472 359.111 206.186 359.346 205.85L363.666 199.68C363.913 199.328 363.917 199.015 363.678 198.742C363.469 198.455 363.413 198.242 363.509 198.105L363.557 198.036C363.675 197.868 363.955 197.719 364.397 197.589L367.857 196.749C368.547 196.572 368.726 196.721 368.394 197.195L367.142 198.984C368.835 197.515 370.603 196.845 372.447 196.973ZM381.48 207.229C381.282 207.568 381.197 207.843 381.226 208.053C381.283 208.25 381.38 208.377 381.515 208.434C381.669 208.493 381.785 208.565 381.862 208.651C381.957 208.738 381.962 208.842 381.876 208.965C381.609 209.347 380.721 209.485 379.212 209.38C378.468 209.328 377.982 209.198 377.757 208.989C377.561 208.767 377.623 208.387 377.941 207.848C376.511 208.774 374.875 209.173 373.031 209.044C371.467 208.935 370.409 208.548 369.859 207.884C369.337 207.206 369.462 206.316 370.233 205.215C370.974 204.128 372.038 203.321 373.424 202.792C374.821 202.248 376.254 202.028 377.726 202.13C379.066 202.224 379.964 202.56 380.42 203.137L380.685 202.674C381.502 201.256 381.922 200.21 381.943 199.538C381.965 198.866 381.51 198.497 380.579 198.432C380.001 198.392 379.416 198.503 378.821 198.767C378.245 199.031 377.76 199.334 377.364 199.675C376.999 200.002 376.584 200.302 376.119 200.575C375.655 200.847 375.228 200.969 374.837 200.942C374.427 200.913 374.156 200.798 374.024 200.596C373.921 200.381 373.982 200.112 374.207 199.791C374.721 199.057 375.633 198.479 376.944 198.058C378.274 197.638 379.683 197.479 381.173 197.584C382.923 197.706 384.039 198.233 384.519 199.165C385.01 200.081 384.839 201.289 384.005 202.786L381.48 207.229ZM374.563 208.237C375.327 208.29 376.102 208.104 376.888 207.678C377.694 207.253 378.297 206.726 378.699 206.096L379.113 205.379C379.518 204.718 379.612 204.179 379.395 203.763C379.179 203.347 378.698 203.113 377.953 203.061C377.171 203.006 376.393 203.168 375.62 203.547C374.858 203.911 374.236 204.437 373.754 205.125C373.186 205.935 372.965 206.641 373.09 207.244C373.234 207.847 373.725 208.178 374.563 208.237ZM387.544 210.059C386.333 209.974 385.594 209.594 385.325 208.917C385.086 208.227 385.389 207.278 386.235 206.07L390.716 199.67L389.124 199.559C388.807 199.537 388.74 199.396 388.922 199.136L389.147 198.815C389.34 198.54 389.594 198.413 389.911 198.435L390.777 198.496C391.484 198.545 392.191 198.386 392.898 198.019C393.623 197.652 394.283 197.129 394.876 196.449C395.168 196.116 395.472 195.961 395.788 195.983L396.207 196.012C396.561 196.037 396.62 196.218 396.385 196.554L394.855 198.781L398.374 199.027C398.523 199.037 398.617 199.084 398.657 199.167C398.696 199.25 398.673 199.353 398.588 199.475L398.363 199.796C398.181 200.056 397.922 200.174 397.587 200.151L394.068 199.905L389.571 206.327C389.196 206.862 389.051 207.293 389.134 207.62C389.229 207.931 389.509 208.103 389.975 208.136C391.092 208.214 392.031 207.862 392.793 207.082C392.953 206.964 393.118 206.896 393.289 206.876C393.459 206.856 393.579 206.88 393.648 206.949C393.735 207.019 393.731 207.123 393.634 207.261C393.056 208.086 392.19 208.78 391.035 209.341C389.899 209.903 388.736 210.142 387.544 210.059ZM404.653 197.469C403.964 197.421 403.518 197.221 403.314 196.87C403.111 196.519 403.186 196.091 403.539 195.587C403.892 195.082 404.396 194.684 405.049 194.393C405.702 194.102 406.373 193.981 407.062 194.029C407.732 194.076 408.16 194.274 408.345 194.624C408.548 194.975 408.473 195.403 408.12 195.907C407.767 196.412 407.263 196.81 406.61 197.101C405.976 197.393 405.323 197.516 404.653 197.469ZM393.544 210.238C393.153 210.21 393.038 210.082 393.198 209.853L393.263 209.761C393.359 209.623 393.666 209.436 394.183 209.2C394.719 208.965 395.105 208.679 395.34 208.342L399.548 202.333C399.794 201.981 399.847 201.64 399.708 201.31C399.587 200.98 399.558 200.77 399.623 200.678L399.671 200.609C399.756 200.487 400.02 200.361 400.463 200.232L404.059 199.28C404.45 199.195 404.698 199.205 404.801 199.308C404.934 199.398 404.93 199.542 404.791 199.74L398.608 208.571C398.373 208.907 398.35 209.219 398.54 209.504C398.749 209.792 398.806 210.004 398.709 210.142L398.645 210.234C398.485 210.463 398.199 210.563 397.79 210.535L393.544 210.238ZM407.507 211.455C405.217 211.295 403.784 210.593 403.209 209.35C402.634 208.107 402.909 206.682 404.033 205.077C405.157 203.471 406.764 202.18 408.855 201.203C410.945 200.227 412.958 199.806 414.895 199.942C417.055 200.093 418.428 200.782 419.013 202.01C419.61 203.223 419.341 204.639 418.206 206.26C417.081 207.866 415.515 209.168 413.508 210.166C411.5 211.165 409.5 211.594 407.507 211.455ZM408.536 210.612C409.43 210.675 410.392 210.389 411.422 209.756C412.462 209.107 413.405 208.178 414.251 206.97C415.386 205.349 415.927 203.936 415.873 202.729C415.838 201.523 415.188 200.876 413.921 200.788C412.916 200.718 411.88 200.998 410.813 201.629C409.775 202.246 408.823 203.174 407.955 204.413C406.906 205.911 406.396 207.295 406.425 208.564C406.473 209.835 407.177 210.517 408.536 210.612ZM431.481 210.87C431.265 211.207 431.218 211.525 431.342 211.822C431.495 212.106 431.523 212.316 431.427 212.454L431.363 212.545C431.202 212.775 430.917 212.875 430.507 212.847L426.429 212.561C426.02 212.533 425.895 212.404 426.056 212.174L426.12 212.083C426.216 211.945 426.523 211.758 427.04 211.521C427.587 211.271 427.969 210.977 428.185 210.639L431.006 206.193C432.642 203.661 432.548 202.331 430.723 202.203C429.848 202.142 428.953 202.36 428.038 202.858C427.134 203.34 426.387 204.001 425.799 204.842L422.024 210.232C421.789 210.569 421.766 210.88 421.957 211.166C422.166 211.453 422.222 211.666 422.126 211.803L422.061 211.895C421.901 212.124 421.616 212.225 421.206 212.196L416.877 211.893C416.486 211.866 416.37 211.738 416.531 211.508L416.595 211.417C416.692 211.279 417.017 211.093 417.571 210.859C418.126 210.625 418.521 210.34 418.756 210.004L423.061 203.857C423.264 203.566 423.318 203.322 423.223 203.122C423.147 202.925 423.044 202.765 422.914 202.644C422.795 202.507 422.783 202.37 422.88 202.232L422.928 202.164C423.035 202.011 423.299 201.885 423.72 201.786L427.184 200.897C427.557 200.811 427.776 200.818 427.842 200.919C427.938 201.006 427.911 201.157 427.761 201.371L426.717 202.862C427.547 202.262 428.457 201.812 429.448 201.513C430.44 201.213 431.41 201.097 432.36 201.163C433.793 201.263 434.72 201.753 435.14 202.633C435.559 203.512 435.24 204.805 434.182 206.511L431.481 210.87ZM448.288 214.306C445.588 214.118 443.847 213.13 443.067 211.343C442.305 209.557 442.712 207.541 444.285 205.293C446.041 202.785 448.354 200.822 451.223 199.402C454.11 197.984 456.886 197.368 459.549 197.555C461.783 197.711 463.339 198.293 464.215 199.3C465.103 200.293 465.188 201.301 464.47 202.326C464.203 202.708 463.843 203.012 463.393 203.237C462.953 203.447 462.5 203.535 462.035 203.503C461.569 203.47 461.233 203.294 461.027 202.975C460.85 202.642 460.744 202.25 460.709 201.798C460.673 201.346 460.604 200.901 460.503 200.46C460.411 200.005 460.141 199.609 459.693 199.273C459.274 198.923 458.655 198.719 457.836 198.662C456.365 198.559 454.766 199.001 453.041 199.987C451.326 200.957 449.917 202.23 448.814 203.805C447.197 206.114 446.558 208.115 446.897 209.806C447.247 211.483 448.409 212.39 450.382 212.528C451.779 212.626 453.079 212.484 454.284 212.103L456.918 208.342C457.068 208.128 457.103 207.938 457.024 207.772C456.955 207.59 456.836 207.454 456.666 207.362C456.496 207.27 456.35 207.171 456.228 207.066C456.117 206.946 456.099 206.833 456.174 206.726L456.238 206.634C456.409 206.389 456.709 206.282 457.138 206.312L462.373 206.702C462.764 206.73 462.879 206.858 462.718 207.087L462.654 207.179C462.568 207.301 462.352 207.415 462.006 207.519C461.678 207.624 461.32 207.759 460.931 207.925C460.552 208.075 460.261 208.295 460.058 208.585L457.777 211.842C457.445 212.316 456.852 212.732 455.996 213.089C454.909 213.526 453.675 213.865 452.296 214.106C450.927 214.331 449.591 214.398 448.288 214.306ZM473.384 213.559C473.106 213.957 472.972 214.26 472.981 214.469C472.991 214.679 473.069 214.804 473.215 214.847C473.391 214.875 473.526 214.932 473.622 215.019C473.728 215.091 473.722 215.211 473.604 215.379C473.337 215.761 472.505 215.904 471.108 215.806C470.326 215.751 469.84 215.581 469.649 215.295C469.459 215.009 469.587 214.561 470.034 213.95C468.379 215.086 466.565 215.585 464.591 215.446C463.027 215.337 462.07 214.821 461.72 213.898C461.37 212.976 461.762 211.704 462.897 210.083L465.676 206.115C465.922 205.763 465.965 205.438 465.803 205.138C465.653 204.822 465.615 204.611 465.69 204.504L465.738 204.435C465.899 204.206 466.163 204.08 466.53 204.058L469.736 203.873C470.423 203.841 470.659 203.977 470.445 204.283L465.989 210.564C464.286 212.995 464.366 214.276 466.228 214.406C467.085 214.466 467.991 214.233 468.945 213.706C469.929 213.165 470.743 212.436 471.385 211.519L474.726 206.748C474.972 206.396 475.005 206.07 474.825 205.769C474.675 205.453 474.637 205.242 474.712 205.135L474.76 205.066C474.921 204.837 475.176 204.71 475.524 204.687L478.786 204.506C479.436 204.471 479.653 204.606 479.439 204.912L473.384 213.559ZM486.648 203.203C485.959 203.155 485.513 202.955 485.309 202.604C485.106 202.253 485.181 201.825 485.534 201.321C485.888 200.816 486.391 200.418 487.044 200.127C487.697 199.836 488.368 199.714 489.057 199.762C489.727 199.809 490.155 200.008 490.34 200.357C490.543 200.708 490.468 201.136 490.115 201.641C489.762 202.145 489.258 202.543 488.605 202.834C487.971 203.127 487.318 203.25 486.648 203.203ZM475.539 215.971C475.148 215.944 475.033 215.816 475.194 215.586L475.258 215.495C475.354 215.357 475.661 215.17 476.178 214.933C476.714 214.698 477.1 214.412 477.335 214.076L481.543 208.067C481.789 207.715 481.842 207.374 481.703 207.043C481.582 206.714 481.553 206.504 481.618 206.412L481.666 206.343C481.751 206.221 482.015 206.095 482.458 205.965L486.054 205.014C486.445 204.929 486.693 204.938 486.796 205.042C486.929 205.131 486.926 205.275 486.786 205.474L480.603 214.305C480.368 214.641 480.345 214.952 480.535 215.238C480.745 215.525 480.801 215.738 480.705 215.876L480.64 215.967C480.48 216.197 480.195 216.297 479.785 216.268L475.539 215.971ZM496.834 215.464C496.598 215.8 496.561 216.118 496.722 216.418C496.883 216.718 496.921 216.929 496.835 217.052L496.787 217.12C496.637 217.334 496.404 217.43 496.087 217.408L493.182 217.205C492.847 217.182 492.763 217.023 492.929 216.73L493.407 215.922C491.791 216.835 490.145 217.233 488.469 217.116C486.681 216.991 485.514 216.356 484.968 215.211C484.441 214.068 484.782 212.632 485.992 210.904C487.159 209.237 488.741 207.912 490.738 206.929C492.754 205.948 494.693 205.522 496.555 205.652C498.007 205.754 498.954 206.229 499.395 207.078L502.414 202.766C502.617 202.475 502.672 202.23 502.577 202.031C502.5 201.833 502.388 201.673 502.239 201.55C502.12 201.414 502.109 201.277 502.205 201.139L502.237 201.093C502.377 200.894 502.651 200.753 503.061 200.67L506.568 200.097C507.348 199.959 507.578 200.119 507.257 200.578L496.834 215.464ZM489.833 216.297C490.597 216.351 491.458 216.138 492.418 215.66C493.397 215.183 494.213 214.478 494.866 213.546L497.435 209.876C497.971 209.111 498.109 208.383 497.852 207.691C497.604 206.984 497.006 206.598 496.056 206.531C495.013 206.458 493.929 206.752 492.804 207.411C491.689 208.054 490.699 208.98 489.834 210.186C488.673 211.789 488.069 213.183 488.021 214.366C487.992 215.551 488.596 216.195 489.833 216.297ZM511.945 214.98C512.211 214.823 512.44 214.775 512.632 214.836C512.842 214.899 512.857 215.044 512.678 215.272C511.961 216.072 510.849 216.796 509.34 217.445C507.831 218.093 506.267 218.361 504.647 218.247C502.747 218.115 501.539 217.469 501.023 216.31C500.524 215.152 500.886 213.702 502.106 211.959C503.241 210.338 504.826 209.037 506.86 208.057C508.913 207.077 510.871 206.653 512.733 206.783C514.409 206.9 515.453 207.334 515.865 208.085C516.306 208.821 516.216 209.633 515.595 210.52C515.038 211.315 514.189 211.817 513.046 212.026L504.858 213.595C504.655 214.415 504.752 215.071 505.149 215.564C505.546 216.057 506.229 216.337 507.197 216.405C508.035 216.463 508.868 216.361 509.697 216.098C510.555 215.822 511.304 215.449 511.945 214.98ZM511.564 207.616C510.689 207.555 509.749 207.85 508.746 208.501C507.743 209.153 506.851 210.037 506.069 211.153C505.705 211.673 505.418 212.166 505.209 212.633L511.002 211.306C511.614 211.156 512.081 210.852 512.403 210.393C512.788 209.843 512.923 209.259 512.809 208.641C512.724 208.01 512.309 207.668 511.564 207.616Z" fill="black"/>
<path d="M108.5 163.5L97.5 139.5L96 129.5L102 117L114.5 106.5L130 102.5L151.5 99L186.5 95.5L213.5 97.5L236.5 106.5L244.5 119.5L243 136L236.5 163.5L232 176.5L236.5 192.5V204L228.5 215L218.5 220H205.5L197.5 225.5L160.5 222.5L150.5 218.5L137.5 206.5L123 187L108.5 163.5Z" fill="#986EA8"/>
<path d="M245 138.5C242 144.5 212.765 165 173 165C133.235 165 101 153.136 101 138.5C101 123.864 133.235 112 173 112C212.765 112 245 123.864 245 138.5Z" fill="#7C4D0F"/>
<path d="M191.5 132L196.5 144C179.7 151.2 168.833 148 165.5 145.5L162 142.5L156 127.5V116L159 95V83L156 75L146 61.5L133 44L123.5 26.5L120.5 15V8.5L123.5 0H182L177.5 10.5V22L182 36.5L188.5 53.5L196.5 74L198 90.5L194 105.5L191.5 117.5V132Z" fill="#FFE48B"/>
<path d="M212 125L215 135.5C210.2 145.5 200.667 145.333 196.5 144L191.5 128.5L192 114L197 95.5V77.5L193.5 66.5L180 32L177.5 15.5L179 6.5L181.5 0H247L242 19.5L245.5 37.5L248.5 62.5L244.5 76.5L232.5 91.5L223 103.5L216.5 112L212 125Z" fill="#6FCEA5"/>
<path d="M158.5 98.4254C141.094 100.352 125.828 103.38 118.252 105.273C108.459 107.721 98.2178 118.107 96.2938 127.73C94.0178 139.11 105.717 147.764 105.526 147.692C104.506 147.309 112.415 154.255 115.257 155.677C124.369 160.232 136.113 162.979 146.198 164.659C170.638 168.733 251.609 160.843 245.009 121.243C243.364 111.372 235.774 105.127 225 101.396" stroke="#373635" stroke-width="4" stroke-miterlimit="10" stroke-linecap="round" stroke-linejoin="round"/>
<path d="M203.838 179.132C199.842 176.534 217.562 184.974 217.562 197.097C217.562 210.002 190.898 217.522 203.089 219.554C209.001 220.54 218.574 221.294 224.049 218.556C245.269 207.946 238.252 174.533 218.56 166.656C210.654 163.494 182.956 174.039 195.604 181.627C199.672 184.068 209.985 183.128 203.838 179.132Z" stroke="#373635" stroke-width="4" stroke-miterlimit="10" stroke-linecap="round" stroke-linejoin="round"/>
<path d="M244.51 133.719C244.51 132.455 242.096 142.212 241.516 145.696C239.953 155.073 236.284 167.638 232.034 176.137" stroke="#373635" stroke-width="4" stroke-miterlimit="10" stroke-linecap="round" stroke-linejoin="round"/>
<path d="M96.7928 135.216C96.7928 149.954 142 220.5 157.676 221.051" stroke="#373635" stroke-width="4" stroke-miterlimit="10" stroke-linecap="round" stroke-linejoin="round"/>
<path d="M154 220C161.222 223.611 200.182 229.361 204.586 220.552" stroke="#373635" stroke-width="4" stroke-miterlimit="10" stroke-linecap="round" stroke-linejoin="round"/>
<path d="M214.567 135.715C203.33 113.241 235.726 93.3984 245.009 74.8318C259.583 45.6847 220.459 9.00624 263.474 -12.501" stroke="#373635" stroke-width="4" stroke-miterlimit="10" stroke-linecap="round" stroke-linejoin="round"/>
<path d="M200.594 -13C154.012 2.52734 191.837 52.5071 196.602 76.3289C201.88 102.722 182.345 115.685 196.602 144.199" stroke="#373635" stroke-width="4" stroke-miterlimit="10" stroke-linecap="round" stroke-linejoin="round"/>
<path d="M163.665 143.7C144.282 124.317 162.72 103.043 158.674 82.8166C155.098 64.9354 91.7088 11.2501 136.217 -11.0038" stroke="#373635" stroke-width="4" stroke-miterlimit="10" stroke-linecap="round" stroke-linejoin="round"/>
<path d="M147.819 333.06C147.819 321.522 170.997 304.651 177.746 295.652C204.688 259.73 233.269 229.216 256.553 190.41C261.659 181.9 292.046 149.172 286.978 139.036" stroke="#373635" stroke-width="4" stroke-miterlimit="10" stroke-linecap="round" stroke-linejoin="round"/>
<path d="M147.819 335.056C150.336 340.09 151.202 346.808 153.805 352.014" stroke="#373635" stroke-width="4" stroke-miterlimit="10" stroke-linecap="round" stroke-linejoin="round"/>
<path d="M148.318 335.056C192.427 335.056 244.281 351.355 287.477 359.994" stroke="#373635" stroke-width="4" stroke-miterlimit="10" stroke-linecap="round" stroke-linejoin="round"/>
<path d="M150.812 343.036C176.914 334.335 236.536 348.999 262.039 357.501" stroke="#373635" stroke-width="4" stroke-miterlimit="10" stroke-linecap="round" stroke-linejoin="round"/>
<path d="M155.301 350.019C171.985 344.458 214.109 354.991 230.616 360.493" stroke="#373635" stroke-width="4" stroke-miterlimit="10" stroke-linecap="round" stroke-linejoin="round"/>
<path d="M156.797 354.009C169.949 358.393 197.927 359.994 212.66 359.994" stroke="#373635" stroke-width="4" stroke-miterlimit="10" stroke-linecap="round" stroke-linejoin="round"/>
<path d="M577.462 168.561C582.554 176.57 584.507 189.007 585.496 198.592" stroke="#373635" stroke-width="4" stroke-miterlimit="10" stroke-linecap="round" stroke-linejoin="round"/>
<path d="M576.788 168.014C576.574 167.678 576.964 173.539 576.628 175.436C575.272 183.078 572.921 190.306 571.23 197.903" stroke="#373635" stroke-width="4" stroke-miterlimit="10" stroke-linecap="round" stroke-linejoin="round"/>
<path d="M585.253 199.234C576.888 236.822 555.892 270.405 545.452 307.023C542.067 318.894 535.051 329.628 532.364 341.7C531.1 347.379 523.308 362.816 526.978 358.302" stroke="#373635" stroke-width="4" stroke-miterlimit="10" stroke-linecap="round" stroke-linejoin="round"/>
<path d="M289.009 139.366C301.22 149.295 344.157 151.963 360.462 152.982C432.655 157.492 503.826 173.069 576.231 165.603" stroke="#373635" stroke-width="4" stroke-miterlimit="10" stroke-linecap="round" stroke-linejoin="round"/>
<path d="M416.5 321.5L401.5 332L404 323L413 311L422 297.5L438.5 283.5L456.5 267L481 248L498.5 231L511.5 217.5L526 206.5H531V215L523.5 223.5L507 240L467 283.5L426.5 318.5L416.5 321.5Z" fill="#F58EA3"/>
<path d="M413.085 312.315C414.128 310.23 400.44 326.225 400.44 330.797" stroke="#373635" stroke-width="4" stroke-miterlimit="10" stroke-linecap="round" stroke-linejoin="round"/>
<path d="M400.44 332.257C408.166 328.394 414.535 322.048 422.326 318.152" stroke="#373635" stroke-width="4" stroke-miterlimit="10" stroke-linecap="round" stroke-linejoin="round"/>
<path d="M413.572 310.37C415.215 310.37 421.394 315.011 423.786 316.206" stroke="#373635" stroke-width="4" stroke-miterlimit="10" stroke-linecap="round" stroke-linejoin="round"/>
<path d="M412.599 312.315C420.595 288.329 484.182 250.918 501.604 227.688C504.194 224.234 527.699 199.627 531.759 207.747C535.756 215.742 512.978 233.337 507.441 238.874C481.91 264.405 450.563 306.465 418.436 322.529" stroke="#373635" stroke-width="4" stroke-miterlimit="10" stroke-linecap="round" stroke-linejoin="round"/>
<path d="M470.477 256.87C465.888 256.87 482.149 259.577 482.149 264.165" stroke="#373635" stroke-width="4" stroke-miterlimit="10" stroke-linecap="round" stroke-linejoin="round"/>
<path d="M473.395 254.924C478.654 252.295 491.372 255.915 484.581 262.706" stroke="#373635" stroke-width="4" stroke-miterlimit="10" stroke-linecap="round" stroke-linejoin="round"/>
<path d="M574.775 205.583C574.775 228.558 527.581 328.68 514.835 354.174" stroke="#373635" stroke-width="4" stroke-miterlimit="10" stroke-linecap="round" stroke-linejoin="round"/>
<path d="M565.204 212.635C565.204 233.013 518.542 341.813 503.25 364.751" stroke="#373635" stroke-width="4" stroke-miterlimit="10" stroke-linecap="round" stroke-linejoin="round"/>
</g>
</svg>
