<svg width="688" height="360" viewBox="0 0 688 360" fill="none" xmlns="http://www.w3.org/2000/svg">
<rect width="688" height="360" rx="16" fill="#FFE48B"/>
<mask id="mask0_793_22697" style="mask-type:alpha" maskUnits="userSpaceOnUse" x="0" y="0" width="688" height="360">
<path d="M0 16C0 7.16344 7.16344 0 16 0H672C680.837 0 688 7.16344 688 16V344C688 352.837 680.837 360 672 360H16C7.16345 360 0 352.837 0 344V16Z" fill="#FFE48B"/>
</mask>
<g mask="url(#mask0_793_22697)">
<path d="M681 147.5L690 143V162.5L681 167.5L662 175.5H647.5L634 152L653 155.5L669.5 152L681 147.5Z" fill="#89E2CD"/>
<path d="M568 346L573 361L658 365L692.5 358.5V195.5L667 207.5L679.5 232L575 338H570L568 346Z" fill="#6FCEA5"/>
<path d="M672 188L656.5 191L646.5 173.5H664L684 165L690.5 163V181L672 188Z" fill="#6FCEA5"/>
<path d="M638 346.5L651.5 359V362.5H615L604.5 349.5L602 339.5L604.5 329.5L615 318L633.5 303L651.5 292L667.5 279.5L682 260.5L692 250L690.5 283.5L665.5 312L650 321L639 331.5L635.5 339.5L638 346.5Z" fill="#986EA8"/>
<path d="M682 202L667.5 207.5L656.5 190.5L678 186.5L690.5 180L689 198L682 202Z" fill="#986EA8"/>
<path d="M684 75L688 67.5L689.5 107.5L680 118.5L667 129L643.5 138H625.5L615 115.5H635.5L659.5 108L667 96.5V82L670 77.5L684 75Z" fill="#89E2CD"/>
<path d="M662 13.5L654 -2L687 -3.5L689 12.5L690 46.5L662 13.5Z" fill="#89E2CD"/>
<path d="M555.5 100.5L514.5 97V82.5L525 73.5L524 66.5L516.5 56L518 45L522.5 35L534 22L544.5 7L546 -1.5H569.5L566.5 12.5L557.5 24L546 35L539 49L541.5 59.5L552.5 67.5L550 72.5L546 80.5L547 91.5L555.5 100.5Z" fill="#89E2CD"/>
<path d="M503.5 18.5L529.5 -0.5L508 -1.5L498 7.5L485 18.5L465.5 31.5L449.5 49.5L447.5 69.5L453 90L481.5 92L492.5 74L487.5 54L489 38.5L503.5 18.5Z" fill="#89E2CD"/>
<rect x="196" y="230" width="69" height="130" fill="#FAC278"/>
<path d="M574.324 66C564.397 70.9631 563.2 82.2825 574.324 89.6981C578.648 92.5813 589.871 88.5022 589.871 88.5022C589.871 88.5022 588.95 90.5899 588.675 91.6913C586.624 99.8946 594.272 102.697 601.033 104.049C606.153 105.073 612.915 104.018 616.181 99.6642C617.625 97.7389 618.68 90.7869 616.978 92.4886C611.079 98.3878 631.909 103.705 635.316 102.853C646.255 100.118 637.484 90.9417 639.302 87.3063C641.329 83.2528 660.563 92.3562 649.667 70.5634" fill="#986EA8"/>
<path d="M574.324 66C564.397 70.9631 563.2 82.2825 574.324 89.6981C578.648 92.5813 589.871 88.5022 589.871 88.5022C589.871 88.5022 588.95 90.5899 588.675 91.6913C586.624 99.8946 594.272 102.697 601.033 104.049C606.153 105.073 612.915 104.018 616.181 99.6642C617.625 97.7389 618.68 90.7869 616.978 92.4886C611.079 98.3878 631.909 103.705 635.316 102.853C646.255 100.118 637.484 90.9417 639.302 87.3063C641.329 83.2528 660.563 92.3562 649.667 70.5634" stroke="#373635" stroke-width="4" stroke-miterlimit="10" stroke-linecap="round" stroke-linejoin="round"/>
<path d="M613 0L613.5 33L636 17L635 0H613Z" fill="#F58EA3"/>
<path d="M603 54.5L591 64V76.5L599.5 82.5L612.5 85L627.5 81L633 69.5L618.5 47.5L612.5 35L603 54.5Z" fill="#6FCEA5"/>
<path d="M350.5 9.5L363 -2H403.5L392.5 12.5L382 20.5L350.5 51L340.5 69L336.5 90L345 108L357.5 120.5L376.5 125L397.5 120.5L412.5 108L415 92L414 69L418.5 51L432.5 34L445 20.5L470 4L477 -2H508L493 12.5L477 23.5L457.5 39.5L448.5 53L447 69L454 90L438.5 88L387.5 151.5L384.5 144.5L372.5 138L355.5 140L345 146.5L336.5 132.5L318 122.5L313.5 119.5L318 117L319 73.5L338 42.5L350.5 9.5Z" fill="#FAC278"/>
<path d="M373 170L388.5 151.5L374 137.5L356.5 138.5L345 147L338.5 134.5L324.5 124L307.5 119.5L244 127.5L225.5 147H246L263 154L275.5 165L280.5 177.5L293 168L307.5 161.5L324.5 165L336.5 172L342.5 182L347.5 175L354.5 170L365 168L373 170Z" fill="#89E2CD"/>
<path d="M339 216L364.5 225L351 197L372.5 169.5L359.5 167.5L349 172L342 181.5L337 172L330 167.5L315.5 162.5L299.5 163.5L287 169.5L281 178L278 167.5L267.5 156L252 149L235.5 146L224 149L183 191H209L219 197L229 209L231 204L242.5 197L255 194L274 197L287 211.5L293.5 228.5L304.5 218L320.5 213.5L339 216Z" fill="#986EA8"/>
<path d="M378.5 342L371.5 360L548 361.5L542 348L532 333.5L412.5 318L407 312L378.5 342Z" fill="#89E2CD"/>
<path d="M407 353.5L408 360.5H509.5V351.5L503 347V342L500 329L432.5 320L421.5 331L418.5 344L407 353.5Z" fill="#FAC278"/>
<path d="M282 278.5L289.5 289L301.5 289.5L302.5 284.5L311 275L326 271H341L353.5 277.5L357.5 289L369.5 284.5L372.5 273V265.5L368.5 260L359.5 259L348 263L346.5 254L345.5 250L340.5 249L334 252L328 256L327.5 250L321 246L312.5 247L305.5 252L302.5 261.5L303.5 269L298 263L289 265L282 270.5V278.5Z" fill="#FAC278"/>
<path d="M265.5 314.5L264.5 360.5L307.5 362.5L304.5 350L291.5 328.5L275 320.5L265.5 314.5Z" fill="#986EA8"/>
<path d="M274.5 338.5V361H291V352.5L283 338.5H274.5Z" fill="#F58EA3"/>
<path d="M302 344L307 361H354L359.5 336.5L371 326.5L387 317.5L390 309L387 297.5L380 287.5L371 285L332.5 293L289 289.5H281.5L269 296.5L266.5 312.5L273.5 320L290 326.5L302 344Z" fill="#6FCEA5"/>
<path d="M313 295L302 290.5V285L313 273L329 270.5L343.5 272L354.5 279.5L357 290.5L337 311L331 330.5L324.5 311L313 295Z" fill="#89E2CD"/>
<path d="M10 266.5L-1.5 263.5V366L196 362.5L194.5 241.5H180.5L166.5 251.5L162 260.5L147 247.5L129.5 245.5L107 251.5L93 263.5L95 253L90 238.5L78.5 231.5L61.5 229.5L44.5 231.5L25 241.5L17.5 260.5L20.5 277.5L10 266.5Z" fill="#89E2CD"/>
<rect x="25" y="302" width="60" height="61" fill="#FAC278"/>
<rect x="110" y="281" width="65" height="79" fill="#FAC278"/>
<path d="M52 75.5L2.5 59.5L-0.5 67L28.5 91L52 75.5Z" fill="#F58EA3"/>
<path d="M122.5 121.5L85.5 87L131 99.5L139 103.5L122.5 121.5Z" fill="#F58EA3"/>
<path d="M13.5 101L-0.5 88.5L-2 110.5L13.5 101Z" fill="#F58EA3"/>
<path d="M125 -1.5L1 32L-2 24L62.5 -1.5H125Z" fill="#F58EA3"/>
<path d="M165.5 73L158 20L2 42V51.5L165.5 73Z" fill="#F58EA3"/>
<path d="M62.5 68.3852L-2 111.276V224L56.5 185L141.886 235L244.5 125H265L317.5 115.5V-2L188.5 -6L155 -2L166 74.5L123 122L62.5 68.3852Z" fill="#6FCEA5"/>
<path d="M60 94L-1.5 134V202L58.5 164L136.5 213L244.5 94L246.5 108L298 100.5L296.5 -2.5L175.5 8L181.5 64L200.5 61.5L124.5 143.5L60 94Z" fill="#986EA8"/>
<path d="M438.5 88.5L350.5 198L411.5 317.5L574.5 338L680 232.5L610 106.5L438.5 88.5Z" fill="#F58EA3"/>
<path d="M509 214L454 119L391.5 206.5L436 289.5L561 306.5L636.5 226.5L580.5 134L509 214Z" fill="white"/>
<path d="M438 89L350.59 197.702" stroke="#373635" stroke-width="4" stroke-miterlimit="10" stroke-linecap="round" stroke-linejoin="round"/>
<path d="M350.986 198.495L411.676 317.891" stroke="#373635" stroke-width="4" stroke-miterlimit="10" stroke-linecap="round" stroke-linejoin="round"/>
<path d="M412.866 317.892L574.5 338.501" stroke="#373635" stroke-width="4" stroke-miterlimit="10" stroke-linecap="round" stroke-linejoin="round"/>
<path d="M575.101 338.12C610.35 302.872 645.254 267.174 680.217 232.211" stroke="#373635" stroke-width="4" stroke-miterlimit="10" stroke-linecap="round" stroke-linejoin="round"/>
<path d="M610.404 106.072C627.91 149.837 658.843 190.187 680 232.5" stroke="#373635" stroke-width="4" stroke-miterlimit="10" stroke-linecap="round" stroke-linejoin="round"/>
<path d="M438.649 88.6191L610.008 106.469" stroke="#373635" stroke-width="4" stroke-miterlimit="10" stroke-linecap="round" stroke-linejoin="round"/>
<path d="M454 117.5L509 214.5" stroke="#373635" stroke-width="4" stroke-miterlimit="10" stroke-linecap="round" stroke-linejoin="round"/>
<path d="M509.255 215.155L580.654 133.045" stroke="#373635" stroke-width="4" stroke-miterlimit="10" stroke-linecap="round" stroke-linejoin="round"/>
<path d="M454.119 117.576L392 206" stroke="#373635" stroke-width="4" stroke-miterlimit="10" stroke-linecap="round" stroke-linejoin="round"/>
<path d="M392.239 206.825L435.5 289.5" stroke="#373635" stroke-width="4" stroke-miterlimit="10" stroke-linecap="round" stroke-linejoin="round"/>
<path d="M581 133L636.187 225.071" stroke="#373635" stroke-width="4" stroke-miterlimit="10" stroke-linecap="round" stroke-linejoin="round"/>
<path d="M636.584 226.658L560 306.5" stroke="#373635" stroke-width="4" stroke-miterlimit="10" stroke-linecap="round" stroke-linejoin="round"/>
<path d="M435.5 289.5L559.802 306.358" stroke="#373635" stroke-width="4" stroke-miterlimit="10" stroke-linecap="round" stroke-linejoin="round"/>
<path d="M613.5 32C617.881 45.141 621.531 57.6334 632.924 66.1781C647.036 76.7619 666.083 66.0664 661.626 48.2393C659.904 41.3497 653.275 39.0913 648.869 34.6855C638.401 24.2175 634.518 15.9146 634.518 0.402344" fill="#F58EA3"/>
<path d="M613.5 32C617.881 45.141 621.531 57.6334 632.924 66.1781C647.036 76.7619 666.083 66.0664 661.626 48.2393C659.904 41.3497 653.275 39.0913 648.869 34.6855C638.401 24.2175 634.518 15.9146 634.518 0.402344" stroke="#373635" stroke-width="4" stroke-miterlimit="10" stroke-linecap="round" stroke-linejoin="round"/>
<path d="M613.39 -1C613.025 -1.73092 613.39 9.80647 613.39 11.9631C613.39 18.2744 614.055 24.7204 612.992 31.0978C610.162 48.0762 595.663 69.8083 575.52 65.7796C546.995 60.0746 580.417 31.4401 583.094 20.7332C584.87 13.6264 587.08 7.62554 587.08 0.00387812" fill="#F58EA3"/>
<path d="M613.39 -1C613.025 -1.73092 613.39 9.80647 613.39 11.9631C613.39 18.2744 614.055 24.7204 612.992 31.0978C610.162 48.0762 595.663 69.8083 575.52 65.7796C546.995 60.0746 580.417 31.4401 583.094 20.7332C584.87 13.6264 587.08 7.62554 587.08 0.00387812" stroke="#373635" stroke-width="4" stroke-miterlimit="10" stroke-linecap="round" stroke-linejoin="round"/>
<path d="M591 64.5C581.277 83.9468 633 95.5787 633 67" stroke="#373635" stroke-width="4" stroke-miterlimit="10" stroke-linecap="round" stroke-linejoin="round"/>
<path d="M308.038 370.341C306.475 367.216 307.536 361.453 306.842 357.984C304.909 348.319 298.583 338.866 292.89 331.276C286.202 322.359 269.289 322.578 266.181 310.148C260.471 287.309 298.874 284.538 311.227 293.803C332.09 309.45 333.153 346.979 333.153 370.341" stroke="#373635" stroke-width="4" stroke-miterlimit="10" stroke-linecap="round" stroke-linejoin="round"/>
<path d="M353.477 370.74C353.477 357.204 355.548 342.731 363.841 331.673C370.956 322.186 392.902 321.508 389.753 305.762C380.364 258.817 331 302.341 331 333.5" stroke="#373635" stroke-width="4" stroke-miterlimit="10" stroke-linecap="round" stroke-linejoin="round"/>
<path d="M302 289.5C297.5 268.5 356.666 260.039 356.666 288.221" stroke="#373635" stroke-width="4" stroke-miterlimit="10" stroke-linecap="round" stroke-linejoin="round"/>
<path d="M289.694 287.424C282.705 283.93 277.676 273.599 285.309 267.492C288.479 264.956 296.467 262.008 300.059 264.702C300.276 264.865 305.236 269.485 304.045 269.485C303.386 269.485 302.909 265.521 302.849 265.1C301.413 255.048 305.897 249.09 315.207 246.763C322.664 244.899 328.362 250.333 328.362 257.526C328.362 257.797 328.045 261.114 327.565 261.114C327.362 261.114 330.464 254.422 330.754 253.938C332.687 250.716 339.363 248.217 343.112 249.155C350.012 250.88 345.333 262.224 347.896 263.506C348.949 264.032 358.447 257.962 362.247 258.722C377.891 261.851 372.908 276.466 368.625 285.032" stroke="#373635" stroke-width="4" stroke-miterlimit="10" stroke-linecap="round" stroke-linejoin="round"/>
<path d="M194.817 229.621L196.013 370.739" stroke="#373635" stroke-width="4" stroke-miterlimit="10" stroke-linecap="round" stroke-linejoin="round"/>
<path d="M194.5 230C204.309 228.827 265 228.5 265 228.5V361" stroke="#373635" stroke-width="4" stroke-miterlimit="10" stroke-linecap="round" stroke-linejoin="round"/>
<path d="M110.704 371.139L108.711 278.654L173.689 279.85L174.885 369.544" stroke="#373635" stroke-width="4" stroke-miterlimit="10" stroke-linecap="round" stroke-linejoin="round"/>
<path d="M23.4023 369.943L24.5983 301.775L84.7934 302.174L86.7864 373.531" stroke="#373635" stroke-width="4" stroke-miterlimit="10" stroke-linecap="round" stroke-linejoin="round"/>
<path d="M-16.4619 193.744C-16.4619 193.744 35.6025 163.346 60.0771 145.508L128.643 189.358C128.643 189.358 224.065 87.5798 251.424 61.3947L254.215 84.5159L279.728 80.1309L273.748 20.7334C267.276 21.2413 200 26.3143 200 26.3143C200.984 31.234 202.79 48.6382 202.79 48.6382L238.269 47.4423C200.952 86.1756 126.251 164.244 126.251 164.244C122.009 161.139 61.6711 117.204 61.6711 117.204L-14.0699 164.643L-16.4619 193.744Z" fill="#6FCEA5" stroke="#373635" stroke-width="4" stroke-miterlimit="10" stroke-linecap="round" stroke-linejoin="round"/>
<path d="M-51.5427 297.789C-62.014 276.846 -5.076 250.176 12.639 267.891C13.872 269.124 19.526 279.053 20.611 279.053C23.739 279.053 19.377 272.918 18.618 269.884C17.139 263.968 17.558 255.992 19.814 250.351C24.187 239.419 39.632 231.429 50.908 230.02C61.622 228.681 78.922 226.94 87.583 235.601C94.459 242.477 96.254 257.325 91.968 265.898C91.171 267.492 89.576 270.681 89.576 270.681C89.576 270.681 93.122 261.626 96.752 258.722C105.51 251.716 112.707 248.654 123.461 245.965C131.876 243.862 146.018 245.196 152.96 250.749C157.256 254.186 162.926 263.904 162.926 263.904C162.926 263.904 164.609 253.29 167.71 249.155C172.746 242.44 186.496 236.748 194 240.5" stroke="#373635" stroke-width="4" stroke-miterlimit="10" stroke-linecap="round" stroke-linejoin="round"/>
<path d="M274.147 371.537C276.345 370.439 273.228 339.378 275.343 338.849C289.59 335.287 293.282 362.038 293.282 370.74" stroke="#373635" stroke-width="4" stroke-miterlimit="10" stroke-linecap="round" stroke-linejoin="round"/>
<path d="M616.978 116.806C632.611 116.806 663.297 114.906 668.403 94.4819C669.571 89.8089 666.789 82.1816 668.004 78.5363C669.372 74.432 676.891 78.0792 680.761 76.1444C689.214 71.9178 690.323 58.9761 688.734 51.0301C684.839 31.5553 663.568 18.239 655.248 1.59863" stroke="#373635" stroke-width="4" stroke-miterlimit="10" stroke-linecap="round" stroke-linejoin="round"/>
<path d="M568.743 0.00390625C566.552 4.38436 567.585 11.3811 563.56 16.7468C554.111 29.3456 536.039 36.6033 540.04 56.6109C541.353 63.1748 551.337 63.7916 552.797 68.1715C552.969 68.6868 549.325 73.0661 548.811 73.7525C540.896 84.3052 547.721 96.3291 557.581 101.259" stroke="#373635" stroke-width="4" stroke-miterlimit="10" stroke-linecap="round" stroke-linejoin="round"/>
<path d="M546.02 -2.78613C546.02 18.8154 524.765 23.9052 518.514 42.6589C511.958 62.3255 524.892 60.581 524.892 71.7597C524.892 79.0986 506.148 78.2961 515 96" stroke="#373635" stroke-width="4" stroke-miterlimit="10" stroke-linecap="round" stroke-linejoin="round"/>
<path d="M531.27 -1.98926C515.543 5.87419 490.037 27.5268 487.42 45.8476C485.864 56.7423 493.537 65.8882 491.406 76.543C490.114 83.0047 481.5 86.0899 481.5 92.5" stroke="#373635" stroke-width="4" stroke-miterlimit="10" stroke-linecap="round" stroke-linejoin="round"/>
<path d="M511.5 -2C505.617 -2 493.757 12.1235 488.616 15.5507C457.687 36.17 434.403 49.8387 454.333 89.6979" stroke="#373635" stroke-width="4" stroke-miterlimit="10" stroke-linecap="round" stroke-linejoin="round"/>
<path d="M245.445 93.5005C245.445 94.7615 245.445 107.238 245.445 107.238C248.009 108.521 298.065 100.861 298.065 100.861C298.065 100.861 296.471 21.8426 296.471 0.801758" stroke="#373635" stroke-width="4" stroke-miterlimit="10" stroke-linecap="round" stroke-linejoin="round"/>
<path d="M175.284 8.77441C177.314 14.8658 181.662 63.7869 181.662 63.7869L201.5 61.0005" stroke="#373635" stroke-width="4" stroke-miterlimit="10" stroke-linecap="round" stroke-linejoin="round"/>
<path d="M174.885 8.37537L292.5 -3" stroke="#373635" stroke-width="4" stroke-miterlimit="10" stroke-linecap="round" stroke-linejoin="round"/>
<path d="M201.196 60.9961C179.351 82.1906 124.258 144.312 124.258 144.312" stroke="#373635" stroke-width="4" stroke-miterlimit="10" stroke-linecap="round" stroke-linejoin="round"/>
<path d="M245.081 93.915C245.081 93.915 160.292 185.674 136 213.5" stroke="#373635" stroke-width="4" stroke-miterlimit="10" stroke-linecap="round" stroke-linejoin="round"/>
<path d="M135.829 213.155L57.6001 163.123" stroke="#373635" stroke-width="4" stroke-miterlimit="10" stroke-linecap="round" stroke-linejoin="round"/>
<path d="M57.5 163.5L-19 212.5" stroke="#373635" stroke-width="4" stroke-miterlimit="10" stroke-linecap="round" stroke-linejoin="round"/>
<path d="M-75.7505 183.4L59.5002 94" stroke="#373635" stroke-width="4" stroke-miterlimit="10" stroke-linecap="round" stroke-linejoin="round"/>
<path d="M60 94L124 144" stroke="#373635" stroke-width="4" stroke-miterlimit="10" stroke-linecap="round" stroke-linejoin="round"/>
<path d="M155.472 1.5127L165.844 74.7231" stroke="#373635" stroke-width="4" stroke-miterlimit="10" stroke-linecap="round" stroke-linejoin="round"/>
<path d="M165.5 75L122.881 121.123" stroke="#373635" stroke-width="4" stroke-miterlimit="10" stroke-linecap="round" stroke-linejoin="round"/>
<path d="M122.5 121L61.5 69.5" stroke="#373635" stroke-width="4" stroke-miterlimit="10" stroke-linecap="round" stroke-linejoin="round"/>
<path d="M61.5 69.5L-10.5 118" stroke="#373635" stroke-width="4" stroke-miterlimit="10" stroke-linecap="round" stroke-linejoin="round"/>
<path d="M55.9998 184.5L-47.9302 255.047" stroke="#373635" stroke-width="4" stroke-miterlimit="10" stroke-linecap="round" stroke-linejoin="round"/>
<path d="M56.5 184.5C56.5 184.5 114.095 218.338 141.439 236.621" stroke="#373635" stroke-width="4" stroke-miterlimit="10" stroke-linecap="round" stroke-linejoin="round"/>
<path d="M243.5 127L141.5 236.5" stroke="#373635" stroke-width="4" stroke-miterlimit="10" stroke-linecap="round" stroke-linejoin="round"/>
<path d="M243.5 127C265.589 126.965 318 117 318 117" stroke="#373635" stroke-width="4" stroke-miterlimit="10" stroke-linecap="round" stroke-linejoin="round"/>
<path d="M317 -1.5L318.5 117" stroke="#373635" stroke-width="4" stroke-miterlimit="10" stroke-linecap="round" stroke-linejoin="round"/>
<path d="M451 -1C451 4.19471 414.977 31.8561 410.652 37.6227C401.399 49.9601 399.608 86.1058 383.491 88.792C369.679 91.094 363.809 78.1119 365.788 66.2387C368.162 51.9919 382.22 39.6585 392.949 31.075C404.719 21.6591 417.631 8.36847 428 -2" fill="#FAC278"/>
<path d="M451 -1C451 4.19471 414.977 31.8561 410.652 37.6227C401.399 49.9601 399.608 86.1058 383.491 88.792C369.679 91.094 363.809 78.1119 365.788 66.2387C368.162 51.9919 382.22 39.6585 392.949 31.075C404.719 21.6591 417.631 8.36847 428 -2" stroke="#373635" stroke-width="4" stroke-miterlimit="10" stroke-linecap="round" stroke-linejoin="round"/>
<path d="M480.5 -2.63379C458.918 8.15697 422.161 35.5373 415.26 59.6909C410.184 77.4544 423.275 102.467 405.074 115.468C373.889 137.743 333.36 117.107 338.142 78.8491C341.447 52.4056 369.1 31.0161 389.069 16.0394C395.806 10.9862 399.404 3.03662 405.074 -2.63379" stroke="#373635" stroke-width="4" stroke-miterlimit="10" stroke-linecap="round" stroke-linejoin="round"/>
<path d="M318 75.5C318.5 70 330 56.5 339 39.5C343.379 27.122 346.743 11.1399 355.006 4.1323C359.19 0.583318 365.655 -1.27105 369 -6" stroke="#373635" stroke-width="4" stroke-miterlimit="10" stroke-linecap="round" stroke-linejoin="round"/>
<path d="M624.5 135.5C641.789 144.144 671.9 128.286 682.667 115.366C686.924 110.258 689.716 102.577 694.147 98.1455" stroke="#373635" stroke-width="4" stroke-miterlimit="10" stroke-linecap="round" stroke-linejoin="round"/>
<path d="M634 152.5C650.778 160.889 677.696 150.831 691.719 140.314C695.499 137.479 697.496 130.251 701.212 128.393" stroke="#373635" stroke-width="4" stroke-miterlimit="10" stroke-linecap="round" stroke-linejoin="round"/>
<path d="M646.5 173C662.804 181.152 688.226 164.117 698.563 153.78" stroke="#373635" stroke-width="4" stroke-miterlimit="10" stroke-linecap="round" stroke-linejoin="round"/>
<path d="M656.5 190C667.317 190 679.449 187.047 688.186 180.494C690.805 178.53 693.485 174.312 696.134 172.987" stroke="#373635" stroke-width="4" stroke-miterlimit="10" stroke-linecap="round" stroke-linejoin="round"/>
<path d="M666.109 206.103C672.314 212.308 687.994 196.485 692.602 194.181" stroke="#373635" stroke-width="4" stroke-miterlimit="10" stroke-linecap="round" stroke-linejoin="round"/>
<path d="M-20.227 3.91619C-2.06795 2.45532 2.80704 47.4365 0.445038 59.2466C-1.05096 66.7296 -9.31395 74.7691 -15.667 78.3994C-43.9589 94.5661 -72.7154 85.8021 -94.7107 63.8068C-116.081 42.4361 -87.3759 5.36008 -67.0455 -2.7721C-57.6756 -6.52006 -42.7885 -6.88435 -33.908 -1.55604C-30.1868 0.676724 -23.058 4.1439 -20.227 3.91619Z" stroke="#373635" stroke-width="4" stroke-miterlimit="10" stroke-linecap="round" stroke-linejoin="round"/>
<path d="M-12 76L14.5 101" stroke="#373635" stroke-width="4" stroke-miterlimit="10" stroke-linecap="round" stroke-linejoin="round"/>
<path d="M-3 66L28.5 91" stroke="#373635" stroke-width="4" stroke-miterlimit="10" stroke-linecap="round" stroke-linejoin="round"/>
<path d="M2.11328 59.625L52.5 75.0005" stroke="#373635" stroke-width="4" stroke-miterlimit="10" stroke-linecap="round" stroke-linejoin="round"/>
<path d="M78.3623 83.4648C99.4005 91.1414 118.622 95.851 140 102.5" stroke="#373635" stroke-width="4" stroke-miterlimit="10" stroke-linecap="round" stroke-linejoin="round"/>
<path d="M1.18994 51.5967C55.7879 57.7553 110.322 65.7356 164.704 71.8699" stroke="#373635" stroke-width="4" stroke-miterlimit="10" stroke-linecap="round" stroke-linejoin="round"/>
<path d="M1.82031 41.8323C27.9143 40.1833 130.593 22.6687 157 21" stroke="#373635" stroke-width="4" stroke-miterlimit="10" stroke-linecap="round" stroke-linejoin="round"/>
<path d="M1.05127 31.7537L148.5 -7.5" stroke="#373635" stroke-width="4" stroke-miterlimit="10" stroke-linecap="round" stroke-linejoin="round"/>
<path d="M-1.66357 24.1653L92.5002 -12" stroke="#373635" stroke-width="4" stroke-miterlimit="10" stroke-linecap="round" stroke-linejoin="round"/>
<path d="M-5.28271 12.6892C5.78028 6.25518 15.0103 -9.44768 28.1313 -12.1758" stroke="#373635" stroke-width="4" stroke-miterlimit="10" stroke-linecap="round" stroke-linejoin="round"/>
<path d="M462.993 348.819C465.609 343.588 468.832 331.511 477.613 334.02C478.493 334.271 479.951 335.422 480.14 336.366C481.595 343.643 471.476 347.733 471.476 352.61C471.476 353.561 473.062 351.556 473.823 350.985C475.213 349.943 476.948 349.318 478.335 348.278C481.428 345.958 492.273 345.412 493.315 350.624C494.974 358.919 480.966 358.205 476.169 358.205C475.146 358.205 473.101 358.205 473.101 358.205C473.101 358.205 475.024 358.385 475.988 358.385C480.538 358.385 492.684 363.258 487.54 370.117C484.735 373.856 477.308 369.784 474.364 368.312C473.275 367.767 473.24 364.382 472.379 365.244C472.349 365.274 475.223 372.861 474.906 374.448C472.327 387.341 464.391 376.295 462.452 370.478" fill="#FFE48B"/>
<path d="M462.993 348.819C465.609 343.588 468.832 331.511 477.613 334.02C478.493 334.271 479.951 335.422 480.14 336.366C481.595 343.643 471.476 347.733 471.476 352.61C471.476 353.561 473.062 351.556 473.823 350.985C475.213 349.943 476.948 349.318 478.335 348.278C481.428 345.958 492.273 345.412 493.315 350.624C494.974 358.919 480.966 358.205 476.169 358.205C475.146 358.205 473.101 358.205 473.101 358.205C473.101 358.205 475.024 358.385 475.988 358.385C480.538 358.385 492.684 363.258 487.54 370.117C484.735 373.856 477.308 369.784 474.364 368.312C473.275 367.767 473.24 364.382 472.379 365.244C472.349 365.274 475.223 372.861 474.906 374.448C472.327 387.341 464.391 376.295 462.452 370.478" stroke="#373635" stroke-width="4" stroke-miterlimit="10" stroke-linecap="round" stroke-linejoin="round"/>
<path d="M461.73 349C459.421 344.382 464.726 327.464 451.803 330.049C441.474 332.115 448.879 345.928 449.818 350.624C450.002 351.542 451.803 352.61 451.803 352.61C451.803 352.61 446.836 347.666 444.042 345.571C439.407 342.094 430.12 342.416 426.535 347.195C422.342 352.787 438.176 359.648 441.335 360.912C442.501 361.378 449.299 361.295 449.277 361.273C448.817 360.813 444.79 361.273 444.223 361.273C428.989 361.273 422.936 377.336 438.447 377.336C440.721 377.336 443.153 376.431 445.306 375.892C449.437 374.859 450.842 370.417 453.969 368.853" fill="#FFE48B"/>
<path d="M461.73 349C459.421 344.382 464.726 327.464 451.803 330.049C441.474 332.115 448.879 345.928 449.818 350.624C450.002 351.542 451.803 352.61 451.803 352.61C451.803 352.61 446.836 347.666 444.042 345.571C439.407 342.094 430.12 342.416 426.535 347.195C422.342 352.787 438.176 359.648 441.335 360.912C442.501 361.378 449.299 361.295 449.277 361.273C448.817 360.813 444.79 361.273 444.223 361.273C428.989 361.273 422.936 377.336 438.447 377.336C440.721 377.336 443.153 376.431 445.306 375.892C449.437 374.859 450.842 370.417 453.969 368.853" stroke="#373635" stroke-width="4" stroke-miterlimit="10" stroke-linecap="round" stroke-linejoin="round"/>
<path d="M451.262 359.017C451.425 359.597 451.979 356.412 452.345 355.497C453.684 352.149 456.242 349.707 459.925 349.18C467.061 348.161 474.025 353.922 472.74 361.634C471.595 368.503 462.124 372.585 455.955 370.117C452.32 368.663 450.72 366.002 450.72 361.995C450.72 361.249 450.904 357.743 451.262 359.017Z" fill="#986EA8" stroke="#373635" stroke-width="4" stroke-miterlimit="10" stroke-linecap="round" stroke-linejoin="round"/>
<path d="M500.5 330C502.448 335.843 502.7 335.206 502.7 342.5C502.7 343.885 501.523 345.841 502.881 346.113C506.294 346.796 509.747 349.4 510.461 352.972C512.858 364.957 501.683 362.225 499.813 365.967C499.781 366.03 502.489 368.031 502.7 368.313C504.077 370.148 503.422 372.242 503.422 374.269" stroke="#373635" stroke-width="4" stroke-miterlimit="10" stroke-linecap="round" stroke-linejoin="round"/>
<path d="M434 321C421 323.5 419.135 339.698 419.135 344.307C419.135 344.414 414.042 345.811 413.54 346.112C410.352 348.025 407.614 351.92 406.862 355.678C405.674 361.618 413.179 362.478 413.179 366.146" stroke="#373635" stroke-width="4" stroke-miterlimit="10" stroke-linecap="round" stroke-linejoin="round"/>
<path d="M408 311.5C390.998 324.254 378.55 337.916 371.604 358.759C371.303 359.662 370.644 364.834 371.243 364.534" stroke="#373635" stroke-width="4" stroke-miterlimit="10" stroke-linecap="round" stroke-linejoin="round"/>
<path d="M551.239 367.469C545.985 354.382 539.825 343.127 530.919 333.5" stroke="#373635" stroke-width="4" stroke-miterlimit="10" stroke-linecap="round" stroke-linejoin="round"/>
<path d="M648.918 371.765C666.5 358.158 629.763 353.958 635.656 336.42C639.053 326.31 650.513 321.621 658.721 316.297C672.978 307.047 689.572 289.11 694.086 272.713" stroke="#373635" stroke-width="4" stroke-miterlimit="10" stroke-linecap="round" stroke-linejoin="round"/>
<path d="M612.236 372.728C628.511 369.514 596.115 347.649 602.291 334.816C616.266 305.774 650.782 299.169 669.746 276.701C677.703 267.275 685.027 256.622 691.89 246.381" stroke="#373635" stroke-width="4" stroke-miterlimit="10" stroke-linecap="round" stroke-linejoin="round"/>
<path d="M565.624 373.194C584.517 369.463 561.085 346.061 571.5 338" stroke="#373635" stroke-width="4" stroke-miterlimit="10" stroke-linecap="round" stroke-linejoin="round"/>
<path d="M174 200.939C179.867 188.982 203.595 187.387 213.498 193.442C221.258 198.185 224.305 201.654 228.214 209.618C228.927 211.074 229.375 214.354 229.375 214.354C229.375 214.354 229.375 212.249 229.375 211.197C229.375 205.651 232.559 200.302 237.507 197.782C248.753 192.052 269.813 191.637 279.328 201.333C286.273 208.409 295.701 223.996 290.558 234.476C290.284 235.035 288.483 240 288.235 240C286.668 240 293.637 227.926 294.043 227.374C299.577 219.858 307.733 215.746 316.503 213.958C335.914 210.003 363.73 225.928 364 225.928" stroke="#373635" stroke-width="4" stroke-miterlimit="10" stroke-linecap="round" stroke-linejoin="round"/>
<path d="M216.5 156C233.436 138.68 250.607 146.135 269.303 157.06C275.032 160.409 280.375 173.385 280.375 180.096C280.375 180.554 280.169 184 279.611 184C276.898 184 285.029 172.011 285.719 171.506C293.534 165.798 300.855 162.136 310.535 162.136C318.751 162.136 332.426 166.349 337.64 173.459C338.483 174.608 341.873 182.189 342.603 182.438C342.81 182.509 348.932 172.606 349.857 171.896C354.631 168.235 366.537 166.76 372 169.554" stroke="#373635" stroke-width="4" stroke-miterlimit="10" stroke-linecap="round" stroke-linejoin="round"/>
<path d="M302.5 120C317 120 330.927 125.555 339.007 135.683C350.754 150.41 338.237 151.188 352.3 141.109C357.166 137.625 366.872 136.467 372.396 137.622C377.671 138.724 386.5 143.5 387.5 152" stroke="#373635" stroke-width="4" stroke-miterlimit="10" stroke-linecap="round" stroke-linejoin="round"/>
</g>
</svg>
