<svg width="688" height="360" viewBox="0 0 688 360" fill="none" xmlns="http://www.w3.org/2000/svg">
<rect width="688" height="360" rx="16" fill="#FAC278"/>
<mask id="mask0_792_22244" style="mask-type:alpha" maskUnits="userSpaceOnUse" x="0" y="0" width="688" height="360">
<path d="M0 16C0 7.16344 7.16344 0 16 0H672C680.837 0 688 7.16344 688 16V344C688 352.837 680.837 360 672 360H16C7.16345 360 0 352.837 0 344V16Z" fill="#FFE48B"/>
</mask>
<g mask="url(#mask0_792_22244)">
<path d="M692 -5V360.5L625 378L638.5 262L629 231L608 219L580.5 186.5L576.5 156L584 134.5L551 116L410.5 143L440 -5H692Z" fill="#6FCEA5"/>
<path d="M674 225.5L690 230V17L686.5 -2.5H603L608 12.5L618 25.5L640.5 42.5L656 49.5L637 54L625.5 59.5L619.5 74.5L623 87.5L638 111.5L651.5 118.5L668.5 129L672.5 136L638 134.5L623 142.5L619.5 157L625.5 176L644 204.5L674 225.5Z" fill="#3BCEAC"/>
<path d="M641 16L636.5 -0.5H689.5V45L659 34L641 16Z" fill="#FAC278"/>
<path d="M670.5 111.5L690 125V78L674 71.5H660L649.5 81.5L652.5 93.5L670.5 111.5Z" fill="#F58EA3"/>
<path d="M689 152V209.5L668.5 193.5L655 173.5L656.5 158.5L666.5 152H689Z" fill="#F58EA3"/>
<path d="M652 303.5L639 313.5L637 339L647.5 332.5L657.5 326L652 303.5Z" fill="#FFE48B"/>
<path d="M667 347.5L665 360.5H689V343.5L667 347.5Z" fill="#FFE48B"/>
<path d="M447 92V78.5L470.5 63L474 78.5L485.5 100L502 110.5L453.5 105L447 92Z" fill="#986EA8"/>
<path d="M502 34.5L485.5 37.5L467.5 18L477 15L482.5 7.5V-2H509L516.5 7.5V18L511.5 26L502 34.5Z" fill="#986EA8"/>
<path d="M546.5 7.5L544.5 0.5L546.5 -2L570 0.5L574 12L591 26L610 41L594 37.5L578.5 43L568 50.5V65L534 87.5L516.5 84.5L502 74.5L499 63L506.5 57L523.5 54L534 50.5L541.5 41L546.5 18V7.5Z" fill="#986EA8"/>
<path d="M577.5 150.5V172L543 160H515L495.5 168L489 175.5L478.5 165L517 139.5L531.5 138L562 145L577.5 150.5Z" fill="#FFE48B"/>
<path d="M562 127.5L545.5 121L550 116L558 114.5L571.5 104.5L580 92.5L592 104.5L616.5 116L620 121L594 125.5L581.5 136L562 127.5Z" fill="#FFE48B"/>
<path d="M636 261L590 236.5L586.5 228L571.5 218L555 214L529.5 208.5L517 199.5L515 188.5L525 180L539.5 178L564 182L584 188.5L590 202L618.5 225.5L657 238L636 261Z" fill="#FFE48B"/>
<path d="M500.5 348.5L459.5 360L462.5 363H570L572 360L567.5 329L557.5 327.5L547.5 332.5L533 339.5L524 331L517 343L500.5 348.5Z" fill="#F58EA3"/>
<path d="M513 362L501 348L516 344L525.5 331L537.5 342.5L551.5 339.5L544.5 354.5L549.5 362H513Z" fill="#FFE48B"/>
<path d="M521.5 324.5V331L512.5 334.5L473 341L476.5 331L487 321.5L512.5 311L545.5 298.5L559.5 288.5H563L564.5 309.5L553.5 315.5L536.5 320L521.5 324.5Z" fill="#89E2CD"/>
<path d="M364 185L339.5 215.5L397 357.5L473 342L476 333L486.5 321.5L515 310.5L542.5 301L559 288L587.5 277L601.5 265.5L571 241.5L555.5 229L537.5 226.5L531 229H518.5L452 219.5L386.5 213L364 185Z" fill="#6FCEA5"/>
<path d="M435 266L455 271L454 253.5L458.5 244.5H469.5L476 253L478 263L491 254.5L505 250.5L512.5 254.5L515 264.5L505 276.5L487.5 288L485 304.5L512.5 286.5H522.5L535.5 280L543.5 264.5V252.5L531.5 241L517 236.5L501.5 239L487.5 244.5L483 233L475 228H460L448 233L437.5 241L431 254.5L435 266Z" fill="#F58EA3"/>
<path d="M358.5 220.5L375.5 202L384.5 210.5L389.5 215.5L377.5 227L358.5 220.5Z" fill="#F58EA3"/>
<path d="M395 240.5L415 216.5L434.5 219.5L419.5 233.5L414 252L395 240.5Z" fill="#F58EA3"/>
<path d="M313 66L261.5 -2H359.5L381.5 20L313 66Z" fill="#986EA8"/>
<path d="M308.5 36.5L280 -0.5H342L354 18L334 36.5L316.5 41.5L308.5 36.5Z" fill="#FFE48B"/>
<path d="M311.5 106L303 94H320.5L317 101.5L311.5 106Z" fill="#FFE48B"/>
<path d="M378 96.5L323 144L317 122.5L326 117.5L340 104.5L343 94L378 96.5Z" fill="#FFE48B"/>
<path d="M327.5 167.5L340 156L353 170.5L323 205.5L326 197L327.5 167.5Z" fill="#FFE48B"/>
<path d="M160.5 354.5V361.5H281L258.5 346.5L241 338L222 336L205.5 334.5L198 330.5L185 332.5L169 344.5L160.5 354.5Z" fill="#F58EA3"/>
<path d="M201.5 349L226 337.5H241.5L250 343L230.5 354L226 361.5H189.5L201.5 349Z" fill="#89E2CD"/>
<path d="M161 352.5L158 342.5L170.5 332.5L176 318.5L176.5 309.5L186.5 307L190.5 320L197 329L182 334L161 352.5Z" fill="#89E2CD"/>
<path d="M197.5 162V172L210.5 181.5L221 196L225 214.5L221 231.5L210.5 247L190.5 262.5L166.5 268.5H149L161 282L180.5 279L197.5 272L221 253L239.5 228L248 202.5L245.5 178L235.5 159L221 152H206.5L197.5 162Z" fill="#986EA8"/>
<path d="M167.5 111.5L149.5 104L160.5 -5L262 -0.5L313 66L276.5 90L240.5 110L216 113L204.5 127V139.5L214.5 150.5L197.5 158.5V169.5L201 174.5L178 168L184 152.5L181 132L167.5 111.5Z" fill="#F58EA3"/>
<path d="M257 -1H262.5L313 64.5L293.5 78L288 71L273 64.5L257 66.5L255 53.5L247 47L260 33L263.5 18.5L257 -1Z" fill="#FFE48B"/>
<path d="M284.5 68L295 78L307.5 97L317.5 122L325.5 152.5L327.5 184.5L323 203L314 215.5L289 219L295.5 206.5L297.5 191L295 170.5L287.5 144.5L268 117.5L247.5 109.5L239 104L234.5 94.5L238 82.5L247.5 72L263 65.5L284.5 68Z" fill="#6FCEA5"/>
<path d="M160.5 -1.5H224L229 17L220.5 27.5L208.5 32.5L226 50L231 64.5V76L226 82.5L202 93L185.5 95L193 118L190 127L180.5 130.5L164.5 109L145 103.5L160.5 -1.5Z" fill="#89E2CD"/>
<path d="M94.5 357.5L75 348.5L69.5 360.5H161L157.5 343L116.5 357.5H94.5Z" fill="#986EA8"/>
<path d="M16 252.5L-1 277L-5 322.5L1.5 361.5H69L72 354V346.5L64 333.5L59 317.5L62 292H48L26.5 282L18 273L16 252.5Z" fill="#89E2CD"/>
<path d="M23.5 280L1 292.5L3.5 303L60.5 300.5L62 292.5L42.5 290.5L23.5 280Z" fill="#FFE48B"/>
<path d="M62 331.5L3.5 313L1 319.5L48.5 362.5H68L72.5 348.5L70.5 344L62 331.5Z" fill="#FFE48B"/>
<path d="M24.5 361.5L-0.5 333L-2.5 342L2.5 360L24.5 361.5Z" fill="#FFE48B"/>
<path d="M19.5 246L-1 241V278L10 261.5L19.5 246Z" fill="#FFE48B"/>
<path d="M16.5 220.5L-0.5 217.5L-3.5 240.5L19.5 247L26 223.5L16.5 220.5Z" fill="#F58EA3"/>
<path d="M24.5 133.5L-1 153L-3 39.5L9.5 29.5L44.5 -1.5L73 -4H161L171 6L180 22.5V39.5L168 70L148.5 104.5H121L88.5 111.5L57.5 120.5L24.5 133.5Z" fill="#6FCEA5"/>
<path d="M8 69L-0.5 92V151L8 144L16 122L24 98.5L38.5 61L53.5 41L65.5 32L80.5 25.5L95 22.5L112 25.5L123 34L131.5 48V63.5L126 79L114 97L106.5 107L129 104L139.5 88.5L148 68L151 51.5V37.5L147 21L134.5 5.5L124.5 -1H74.5L50 13.5L28 36L8 69Z" fill="#FFE48B"/>
<path d="M628.5 231L619 234.5L630.5 244.5L643 258.5L676.5 250L683.5 237L675.5 233L628.5 231Z" fill="#986EA8"/>
<path d="M417.5 100.5L550.5 115L479 165.5L532.5 229.5L387 213L340.5 154L417.5 100.5Z" fill="#89E2CD"/>
<path d="M412 -1L276 92L413 100.5L419 99L493.5 47L450 -1H412Z" fill="#89E2CD"/>
<path d="M93.5 279.5L134.5 260.5L160.5 312.5L155 325L141 335L120.5 341.5L95.5 338.5L82.5 329L79 307.5L82.5 291.5L93.5 279.5Z" fill="#6FCEA5"/>
<path d="M106.601 198.556L135.627 260.343" stroke="#373635" stroke-width="4" stroke-miterlimit="10" stroke-linecap="round" stroke-linejoin="round"/>
<path d="M105.5 106.5C110.99 103.207 120.38 86.8318 122.731 83.6237C142.407 56.7744 126.746 18.5956 91.7949 23.0668C30.6982 30.8828 28.701 99.6461 6.79297 144.488" stroke="#373635" stroke-width="4" stroke-miterlimit="10" stroke-linecap="round" stroke-linejoin="round"/>
<path d="M454.791 268.83C453.192 261.486 451.222 243.824 463.938 243.815C479.483 243.805 476.35 262.218 478.775 262.837C479.366 262.988 500.032 245.129 511.109 252.333C526.035 262.039 498.104 285.173 487.235 287.656" fill="#FAC278"/>
<path d="M454.791 268.83C453.192 261.486 451.222 243.824 463.938 243.815C479.483 243.805 476.35 262.218 478.775 262.837C479.366 262.988 500.032 245.129 511.109 252.333C526.035 262.039 498.104 285.173 487.235 287.656" stroke="#373635" stroke-width="4" stroke-miterlimit="10" stroke-linecap="round" stroke-linejoin="round"/>
<path d="M188.259 301.138C184.522 306.237 186.5 317 190.581 322.13C195 326.5 200.384 332.955 206.062 334.408C218.586 337.613 231.865 333.644 244.375 338.765C262.532 346.198 275.755 362.704 296.233 365.698C327.401 370.254 362.213 373.918 391.436 358.964C407.42 350.785 419.294 333.518 437.49 328.863C460.866 322.882 480.388 328.372 486.251 298.366C492.151 268.176 450.014 273.287 434.007 265.096C420.067 257.963 407.344 247.304 394.919 237.767C367.203 216.492 314.67 208.594 283.075 221.528C268.059 227.675 247.275 241.401 238.957 255.59C235.127 262.123 232.488 268.548 226.959 274.205C221.074 280.229 214.641 284.156 207.996 289.256C206.271 290.58 203.304 292.251 201.418 293.217C197.084 295.433 193.072 294.572 188.259 301.138Z" fill="#FFE48B" stroke="#373635" stroke-width="4" stroke-miterlimit="10" stroke-linecap="round" stroke-linejoin="round"/>
<path d="M438 285.5C442.087 289.684 453.797 289.468 459.162 290.84C473.439 294.493 456.119 309.712 451.808 313.02C448.099 315.868 434.703 315.123 431 315.5" fill="#F58EA3"/>
<path d="M438 285.5C442.087 289.684 453.797 289.468 459.162 290.84C473.439 294.493 456.119 309.712 451.808 313.02C448.099 315.868 434.703 315.123 431 315.5" stroke="#373635" stroke-width="4" stroke-miterlimit="10" stroke-linecap="round" stroke-linejoin="round"/>
<path d="M74 132C57.3246 137.107 17 149.5 16 177C17.5 229.5 74 213.5 106 196.5" fill="#F58EA3"/>
<path d="M74 132C57.3246 137.107 17 149.5 16 177C17.5 229.5 74 213.5 106 196.5" stroke="#373635" stroke-width="4" stroke-miterlimit="10" stroke-linecap="round" stroke-linejoin="round"/>
<path d="M222.5 295.5C213.368 300.173 196.988 300.025 200.256 313.416C203.294 325.851 220.942 325.635 230.056 322.526" fill="#F58EA3"/>
<path d="M222.5 295.5C213.368 300.173 196.988 300.025 200.256 313.416C203.294 325.851 220.942 325.635 230.056 322.526" stroke="#373635" stroke-width="4" stroke-miterlimit="10" stroke-linecap="round" stroke-linejoin="round"/>
<path d="M105 197.5C91.5 205.5 60.5 211.5 50.3837 222.833C34.3346 244.221 41.3653 275.533 71.1532 280.496C93.6338 284.24 116.181 269.154 134.5 260" fill="#986EA8"/>
<path d="M105 197.5C91.5 205.5 60.5 211.5 50.3837 222.833C34.3346 244.221 41.3653 275.533 71.1532 280.496C93.6338 284.24 116.181 269.154 134.5 260" stroke="#373635" stroke-width="4" stroke-miterlimit="10" stroke-linecap="round" stroke-linejoin="round"/>
<path d="M90 109.5C99.9655 96.7519 123.235 56.3451 105.911 43.0475C94.1183 33.9953 77.7137 45.4249 68.9676 52.8842C54.3197 65.3763 46.5 80.5 37.5 99.5C32.976 111.074 28 122 25.5 133" fill="#FFE48B"/>
<path d="M90 109.5C99.9655 96.7519 123.235 56.3451 105.911 43.0475C94.1183 33.9953 77.7137 45.4249 68.9676 52.8842C54.3197 65.3763 46.5 80.5 37.5 99.5C32.976 111.074 28 122 25.5 133" stroke="#373635" stroke-width="4" stroke-miterlimit="10" stroke-linecap="round" stroke-linejoin="round"/>
<path d="M221.154 314.208C218.024 309.935 217.464 300.559 221.928 295.989C226.374 291.44 233.483 288.011 238.569 284.107C253.324 272.782 264.004 255.447 280.753 246.876C309.745 232.041 358.699 222.482 384.857 249.253C391.216 255.76 398.532 262.818 406.142 268.66C413.558 274.352 436.349 277.851 438.651 287.276C444.803 312.462 423.204 322.671 404.208 330.447C393.572 334.801 384.796 342.614 374.021 346.29C346.241 355.767 316.845 352.578 289.267 347.874C272.617 345.034 262.16 333.014 247.858 325.694C243.037 323.228 237.572 323.808 232.377 322.922C224.857 321.638 225.157 319.67 221.154 314.208Z" fill="white" stroke="#373635" stroke-width="4" stroke-miterlimit="10" stroke-linecap="round" stroke-linejoin="round"/>
<path d="M74 132L106 198" stroke="#373635" stroke-width="4" stroke-miterlimit="10" stroke-linecap="round" stroke-linejoin="round"/>
<path d="M74 132C73.9873 132 97.4103 121.867 101.571 119.738C117.76 111.453 152.171 112.41 161.555 131.62C176.232 161.66 161.108 176.529 133.691 185.882C130.23 187.062 106.601 196.179 106.601 196.179" stroke="#373635" stroke-width="4" stroke-miterlimit="10" stroke-linecap="round" stroke-linejoin="round"/>
<path d="M124.499 216.399C128.659 190.861 155.741 171.916 180.228 181.941C222.773 199.358 203 254.818 164.748 254.818C141 254.818 121.26 236.298 124.499 216.399Z" fill="#89E2CD" stroke="#373635" stroke-width="4" stroke-miterlimit="10" stroke-linecap="round" stroke-linejoin="round"/>
<path d="M134.853 258.363L160.395 311.832" stroke="#373635" stroke-width="4" stroke-miterlimit="10" stroke-linecap="round" stroke-linejoin="round"/>
<path d="M160.5 312C160.5 340.091 92.5 354 82.2201 325.694C75.1928 296.925 81.4999 288 96.9999 278" stroke="#373635" stroke-width="4" stroke-miterlimit="10" stroke-linecap="round" stroke-linejoin="round"/>
<path d="M26.2983 226.479C28.1606 217.175 1.80596 224.314 -1.7596 215.191C-9.02743 196.596 -17.1281 174.243 -3.30763 155.384C17.5895 126.869 99.756 104.291 128.66 104.291C144.006 104.291 161.353 102.154 171.5 116C189.662 140.784 184 158 177.036 168.455C187.5 167.5 201.535 174.84 205 177.5C243.907 207.365 219.991 255.59 178.197 266.284C167 269.149 151.121 265.862 149.945 268.264C148.879 270.447 161.322 282.863 163.104 285.295C175.155 301.74 184.586 321.978 164.265 337.577C143.299 353.669 105.06 367.524 79.5116 351.835C63.7538 342.159 59.3871 326.067 59.3871 308.663C59.3871 306.514 61.0286 290.84 64.4182 290.84C66.0949 290.84 61.4185 292.484 59.774 292.821C49.5562 294.909 32.8603 286.718 25.3309 280.939C7.17752 267.005 22.9053 243.431 26.2983 226.479Z" stroke="#373635" stroke-width="4" stroke-miterlimit="10" stroke-linecap="round" stroke-linejoin="round"/>
<path d="M277.076 286.682C276.565 287.929 277.57 282.548 278.044 281.335C279.97 276.406 281.42 272.334 285.01 268.66C294.583 258.863 307.366 252.361 320.614 249.649C352.457 243.131 388.712 268.359 382.922 303.911C377.632 336.392 316.151 348.211 293.524 330.843C286.228 325.243 276.496 314.678 276.496 304.703C276.496 300.348 277.407 285.876 277.076 286.682Z" fill="#986EA8" stroke="#373635" stroke-width="4" stroke-miterlimit="10" stroke-linecap="round" stroke-linejoin="round"/>
<path d="M317.905 274.997C322.173 270.629 332.687 268.525 336.481 274.997C343.429 286.848 328.59 294.921 319.066 290.048C316.795 288.886 312.334 280.698 317.905 274.997Z" fill="white" stroke="#373635" stroke-width="4" stroke-miterlimit="10" stroke-linecap="round" stroke-linejoin="round"/>
<path d="M288.881 308.069C292.554 305.3 302.975 301.93 307.456 301.93C308.339 301.93 312.768 310.931 314.035 312.228C317.635 315.912 329.961 315.939 334.547 315.001C352.098 311.408 345.686 297.491 359 294.5C362 293.826 369.836 290.345 370.537 293.217C378.856 327.266 326.46 333.23 306.296 328.071C300.314 326.54 282.412 312.945 288.881 308.069Z" fill="#89E2CD" stroke="#373635" stroke-width="4" stroke-miterlimit="10" stroke-linecap="round" stroke-linejoin="round"/>
<path d="M161.5 282C214.753 282 271.75 208.318 237.021 160.929C224.686 144.097 187.311 150.097 198.5 173" stroke="#373635" stroke-width="4" stroke-miterlimit="10" stroke-linecap="round" stroke-linejoin="round"/>
<path d="M218 151C188.5 135.5 204.899 103.042 252.5 110C284.485 114.675 317.807 203.718 283.576 221.236" stroke="#373635" stroke-width="4" stroke-miterlimit="10" stroke-linecap="round" stroke-linejoin="round"/>
<path d="M186.5 304.5C184 307.5 178.701 308.527 176 310" stroke="#373635" stroke-width="4" stroke-miterlimit="10" stroke-linecap="round" stroke-linejoin="round"/>
<path d="M275.335 91.2208L412.334 -1.45959" stroke="#373635" stroke-width="4" stroke-miterlimit="10" stroke-linecap="round" stroke-linejoin="round"/>
<path d="M274.174 92.4091C321.877 92.4091 369.495 95.923 416.978 100.33" stroke="#373635" stroke-width="4" stroke-miterlimit="10" stroke-linecap="round" stroke-linejoin="round"/>
<path d="M417.752 100.33L494.379 47.257C478.805 30.6822 449.714 -0.271423 449.714 -0.271423" stroke="#373635" stroke-width="4" stroke-miterlimit="10" stroke-linecap="round" stroke-linejoin="round"/>
<path d="M418.5 100L339.191 154.592" stroke="#373635" stroke-width="4" stroke-miterlimit="10" stroke-linecap="round" stroke-linejoin="round"/>
<path d="M416.978 101.519C416.978 101.519 508.958 111.517 552.042 115.777L477.738 165.286" stroke="#373635" stroke-width="4" stroke-miterlimit="10" stroke-linecap="round" stroke-linejoin="round"/>
<path d="M340.352 154.592L387.179 213.607" stroke="#373635" stroke-width="4" stroke-miterlimit="10" stroke-linecap="round" stroke-linejoin="round"/>
<path d="M478.512 165.682C497.763 185.384 512.434 208.32 531.532 227.865" stroke="#373635" stroke-width="4" stroke-miterlimit="10" stroke-linecap="round" stroke-linejoin="round"/>
<path d="M387.566 213.21L533.466 229.845" stroke="#373635" stroke-width="4" stroke-miterlimit="10" stroke-linecap="round" stroke-linejoin="round"/>
<path d="M562.5 291.5L573.328 372.035L593.452 370.846L600 267.5" fill="#986EA8"/>
<path d="M562.5 291.5L573.328 372.035L593.452 370.846L600 267.5" stroke="#373635" stroke-width="4" stroke-miterlimit="10" stroke-linecap="round" stroke-linejoin="round"/>
<path d="M562.5 291.5L541.34 241.314L600 267.5" fill="#986EA8"/>
<path d="M562.5 291.5L541.34 241.314L600 267.5" stroke="#373635" stroke-width="4" stroke-miterlimit="10" stroke-linecap="round" stroke-linejoin="round"/>
<path d="M573.604 243.138L606.142 268.284C608.897 286.526 615.396 362.458 615.396 362.458C615.396 362.458 632.811 359.448 635.432 358.509C636.467 358.139 636.613 355.919 636.613 355.919L642.57 255.771C642.57 255.771 610.186 242.255 594.7 232.995C594.7 232.995 572.791 244.336 573.604 243.138Z" fill="#986EA8" stroke="#373635" stroke-width="4" stroke-miterlimit="10" stroke-linecap="round" stroke-linejoin="round"/>
<path d="M616.541 233.422L643 255.5Z" fill="#986EA8"/>
<path d="M616.541 233.422L643 255.5" stroke="#373635" stroke-width="4" stroke-miterlimit="10" stroke-linecap="round" stroke-linejoin="round"/>
<path d="M617 233.5L644.692 225.406L684.125 235.131" fill="#986EA8"/>
<path d="M617 233.5L644.692 225.406L684.125 235.131" stroke="#373635" stroke-width="4" stroke-miterlimit="10" stroke-linecap="round" stroke-linejoin="round"/>
<path d="M684 235.5L685.564 343.469L662.343 347.923C655.894 318.177 647.662 286.148 643 256" fill="#986EA8"/>
<path d="M684 235.5L685.564 343.469L662.343 347.923C655.894 318.177 647.662 286.148 643 256" stroke="#373635" stroke-width="4" stroke-miterlimit="10" stroke-linecap="round" stroke-linejoin="round"/>
<path d="M667 367C663.25 360.812 664.045 350.146 669 347" stroke="#373635" stroke-width="4" stroke-miterlimit="10" stroke-linecap="round" stroke-linejoin="round"/>
<path d="M637.5 343C641 330.5 654.031 332.767 656.993 325" stroke="#373635" stroke-width="4" stroke-miterlimit="10" stroke-linecap="round" stroke-linejoin="round"/>
<path d="M652 303C648.446 305.543 640.559 310.393 639 315" stroke="#373635" stroke-width="4" stroke-miterlimit="10" stroke-linecap="round" stroke-linejoin="round"/>
<path d="M741.547 231.095C734.96 227.724 727.027 227.364 720.199 224.569C700.566 216.532 680.148 204.862 665.301 189.667C658.14 182.338 648.562 165.936 657.814 156.467C665.022 149.09 698.23 151.839 707.444 154.197C712.391 155.462 722.398 156.655 720.753 148.238C719.34 141.004 708.214 137.653 703.286 134.05C689.493 123.967 672.573 115.388 660.587 103.12C656.086 98.5132 646.063 87.3155 650.605 79.5679C660.246 63.1239 678.684 75.0251 692 79.5679C697.033 81.2846 692.661 79.0871 694 69.5C699.103 32.94 673.588 46.2298 653.656 29.91C645.569 23.2895 628.918 4.14992 639.515 -6.69495" stroke="#373635" stroke-width="4" stroke-miterlimit="10" stroke-linecap="round" stroke-linejoin="round"/>
<path d="M740.438 250.675C726.135 250.675 707.358 239.139 694.968 232.798C686.093 228.257 675.776 226.383 666.686 221.731C645.533 210.907 615.495 177.404 619.829 150.792C622.545 134.114 642.086 132.034 655.874 134.05C657.508 134.289 672.538 137.053 673.064 134.901C674.587 128.662 652.507 119.764 647.555 117.592C631.894 110.723 616.647 85.5032 620.938 67.9338C624.668 52.6647 645.93 49.1764 658.646 52.8946C662.619 54.0563 666.649 55.2463 670.568 56.5834C672.621 57.2836 678.832 58.8535 676.668 58.8535C669.955 58.8535 659.776 51.7062 653.655 48.9219C629.938 38.1341 603.47 20.4919 603.47 -9.24878" stroke="#373635" stroke-width="4" stroke-miterlimit="10" stroke-linecap="round" stroke-linejoin="round"/>
<path d="M627.592 229.96C594.979 213.272 570.62 186.66 578.517 146.251C580.338 136.93 589.16 124.873 599.312 123.834C602.184 123.54 621.788 120.46 621.77 120.429C618.819 115.396 603.078 110.463 597.648 107.376C581.233 98.0432 564.358 76.8422 567.703 56.2997C570.309 40.3009 583.465 40.5583 595.985 38.4228C597.368 38.1867 610.957 40.622 610.957 38.9903C610.957 38.0862 599.256 33.0518 598.203 32.4639C589.758 27.7494 562.916 9.06343 569.367 -4.14111" stroke="#373635" stroke-width="4" stroke-miterlimit="10" stroke-linecap="round" stroke-linejoin="round"/>
<path d="M567.149 65.0962C551.73 72.9869 543.538 90.3907 521.677 86.6619C514.404 85.4212 493.119 71.6224 500.883 61.6911C508.109 52.4469 517.523 54.4261 527.777 52.327C549.947 47.7893 557.602 -7.5 530.5 -7.5" stroke="#373635" stroke-width="4" stroke-miterlimit="10" stroke-linecap="round" stroke-linejoin="round"/>
<path d="M485.91 36.7203C506.026 36.7203 532.5 17 507.537 -2.72229" stroke="#373635" stroke-width="4" stroke-miterlimit="10" stroke-linecap="round" stroke-linejoin="round"/>
<path d="M467.5 18C481.29 18 482.306 6.50744 482.306 -4.70862" stroke="#373635" stroke-width="4" stroke-miterlimit="10" stroke-linecap="round" stroke-linejoin="round"/>
<path d="M471 64.5C470.283 84.7829 487.824 105.948 506 111" stroke="#373635" stroke-width="4" stroke-miterlimit="10" stroke-linecap="round" stroke-linejoin="round"/>
<path d="M447.097 80C443.948 88.3162 445.472 102.763 462 106.234" stroke="#373635" stroke-width="4" stroke-miterlimit="10" stroke-linecap="round" stroke-linejoin="round"/>
<path d="M590.162 234.501C590.162 235.548 589.304 232.056 588.775 231.379C587.319 229.515 585.971 227.941 584.339 226.272C580.659 222.505 572.77 217.92 567.703 216.624C552.152 212.645 527.72 213.897 517.241 199.598C509.42 188.925 521.403 180.181 530.273 178.884C543.481 176.953 573.975 181.047 583.784 191.085" stroke="#373635" stroke-width="4" stroke-miterlimit="10" stroke-linecap="round" stroke-linejoin="round"/>
<path d="M530.827 226.555C542.342 226.555 554.08 226.241 563.822 234.217C567.025 236.84 571.442 240.68 575 242.5" stroke="#373635" stroke-width="4" stroke-miterlimit="10" stroke-linecap="round" stroke-linejoin="round"/>
<path d="M490 178C490 178 484 166.015 516.688 160.439C538.409 156.734 557.859 161.705 577 171.5" stroke="#373635" stroke-width="4" stroke-miterlimit="10" stroke-linecap="round" stroke-linejoin="round"/>
<path d="M515 140.5C515.296 141.106 525.5 136.839 537.481 138.59C545.87 139.816 572.662 144.621 577 153.5" stroke="#373635" stroke-width="4" stroke-miterlimit="10" stroke-linecap="round" stroke-linejoin="round"/>
<path d="M545 121C547.841 126.814 575.373 125.984 581 137.5" stroke="#373635" stroke-width="4" stroke-miterlimit="10" stroke-linecap="round" stroke-linejoin="round"/>
<path d="M549 115.5C562.996 115.5 572.458 105.391 579 92" stroke="#373635" stroke-width="4" stroke-miterlimit="10" stroke-linecap="round" stroke-linejoin="round"/>
<path d="M261.355 -1.47205C261.355 -1.47205 269.921 9.4961 275.381 16.5467C289.807 35.1774 312 64.5 312 64.5" stroke="#373635" stroke-width="4" stroke-miterlimit="10" stroke-linecap="round" stroke-linejoin="round"/>
<path d="M359.831 -2.08282C359.831 1.3084 375.121 14.4808 378.333 17.7684" stroke="#373635" stroke-width="4" stroke-miterlimit="10" stroke-linecap="round" stroke-linejoin="round"/>
<path d="M341.33 -2.08282C345.5 4.5 349 8.5 354.46 17.1576C356 23 324.5 44.5 314.772 40.979C306.833 39.3542 282.393 5.24419 278.365 -2.99902" stroke="#373635" stroke-width="4" stroke-miterlimit="10" stroke-linecap="round" stroke-linejoin="round"/>
<path d="M325.365 25.7089C324.08 22.1772 329.671 13.46 333.869 19.9062C341.21 31.1754 326.574 29.0315 325.365 25.7089Z" stroke="#373635" stroke-width="4" stroke-miterlimit="10" stroke-linecap="round" stroke-linejoin="round"/>
<path d="M437.5 266.5C419.235 250.499 449.159 226.284 465.724 227.08C473.359 227.447 480.083 227.477 484.5 235C486.5 240 484.809 244.058 488.5 245C490.239 245.443 515.5 220.5 543.5 253" stroke="#373635" stroke-width="4" stroke-miterlimit="10" stroke-linecap="round" stroke-linejoin="round"/>
<path d="M482.5 310C488 296.5 508 286.5 518.5 285.5C532.517 285.5 546 274.5 544 254.5" stroke="#373635" stroke-width="4" stroke-miterlimit="10" stroke-linecap="round" stroke-linejoin="round"/>
<path d="M525 330L516.5 343.5" stroke="#373635" stroke-width="4" stroke-miterlimit="10" stroke-linecap="round" stroke-linejoin="round"/>
<path d="M524.636 330.016C524.636 330.016 526.416 332.169 527.604 333.508C531.085 337.43 537.132 342.971 537.132 342.971" stroke="#373635" stroke-width="4" stroke-miterlimit="10" stroke-linecap="round" stroke-linejoin="round"/>
<path d="M537.5 343C537.5 343 548.457 340.387 552.493 339.467" stroke="#373635" stroke-width="4" stroke-miterlimit="10" stroke-linecap="round" stroke-linejoin="round"/>
<path d="M515.931 343.813C515.931 343.813 504.404 346.443 500.571 347.318" stroke="#373635" stroke-width="4" stroke-miterlimit="10" stroke-linecap="round" stroke-linejoin="round"/>
<path d="M501.47 348.329L514.236 361.743" stroke="#373635" stroke-width="4" stroke-miterlimit="10" stroke-linecap="round" stroke-linejoin="round"/>
<path d="M552 340C548.839 344.032 546.596 349.538 544 354" stroke="#373635" stroke-width="4" stroke-miterlimit="10" stroke-linecap="round" stroke-linejoin="round"/>
<path d="M544 354C543.813 353.952 553.187 367.524 555.477 369.53" stroke="#373635" stroke-width="4" stroke-miterlimit="10" stroke-linecap="round" stroke-linejoin="round"/>
<path d="M501.398 348.099C468.162 358.39 433.745 365.04 400.312 375.392" stroke="#373635" stroke-width="4" stroke-miterlimit="10" stroke-linecap="round" stroke-linejoin="round"/>
<path d="M525 330C483.119 342.968 436.593 344.833 395.077 357.687" stroke="#373635" stroke-width="4" stroke-miterlimit="10" stroke-linecap="round" stroke-linejoin="round"/>
<path d="M566.5 329C564.031 328.078 557.741 327.589 555.21 328.373C548.138 330.562 539.854 337.187 534 339" stroke="#373635" stroke-width="4" stroke-miterlimit="10" stroke-linecap="round" stroke-linejoin="round"/>
<path d="M565.068 309.53C565.244 308.48 560.833 310.845 560.069 311.313C556.741 313.349 553.628 315.09 550.222 316.955C543.687 320.532 517.054 316.929 521.374 331.543" stroke="#373635" stroke-width="4" stroke-miterlimit="10" stroke-linecap="round" stroke-linejoin="round"/>
<path d="M559 287.5C541.5 313.5 478.69 306.928 473.09 340.366" stroke="#373635" stroke-width="4" stroke-miterlimit="10" stroke-linecap="round" stroke-linejoin="round"/>
<path d="M453.5 326C449.5 328 446.14 331.619 444.552 333.413C441.371 337.001 437.942 341.731 439.5 347" stroke="#373635" stroke-width="4" stroke-miterlimit="10" stroke-linecap="round" stroke-linejoin="round"/>
<path d="M442 219.5C428.495 219.113 411.701 238.459 416 253" stroke="#373635" stroke-width="4" stroke-miterlimit="10" stroke-linecap="round" stroke-linejoin="round"/>
<path d="M416.226 216.566C410 219.5 401.568 232.556 395.691 238.244" stroke="#373635" stroke-width="4" stroke-miterlimit="10" stroke-linecap="round" stroke-linejoin="round"/>
<path d="M392.11 213.664L379.537 227.22" stroke="#373635" stroke-width="4" stroke-miterlimit="10" stroke-linecap="round" stroke-linejoin="round"/>
<path d="M376 201L358 220" stroke="#373635" stroke-width="4" stroke-miterlimit="10" stroke-linecap="round" stroke-linejoin="round"/>
<path d="M364 185C362.194 184.684 338.745 214.01 338.427 215.91" stroke="#373635" stroke-width="4" stroke-miterlimit="10" stroke-linecap="round" stroke-linejoin="round"/>
<path d="M354 172.5L316.5 214.5" stroke="#373635" stroke-width="4" stroke-miterlimit="10" stroke-linecap="round" stroke-linejoin="round"/>
<path d="M313.5 215C339.295 193.504 323.112 140.71 315.657 115.978C313.94 110.282 306.77 95.2353 301 93" stroke="#373635" stroke-width="4" stroke-miterlimit="10" stroke-linecap="round" stroke-linejoin="round"/>
<path d="M328 168L341 157" stroke="#373635" stroke-width="4" stroke-miterlimit="10" stroke-linecap="round" stroke-linejoin="round"/>
<path d="M323.396 143.736L378.5 97.5" stroke="#373635" stroke-width="4" stroke-miterlimit="10" stroke-linecap="round" stroke-linejoin="round"/>
<path d="M318 122.5C334.213 117.172 343.599 99.0945 343 94.5" stroke="#373635" stroke-width="4" stroke-miterlimit="10" stroke-linecap="round" stroke-linejoin="round"/>
<path d="M313 105.5C315.217 105.268 320.5 98 319.946 94.9515" stroke="#373635" stroke-width="4" stroke-miterlimit="10" stroke-linecap="round" stroke-linejoin="round"/>
<path d="M293 77C284.766 60.5326 257.95 62.3973 245.98 71.5607C241.261 75.1741 235.5 87.5 235.755 97.0816C236 101.5 239.225 108.088 248.5 109.5" stroke="#373635" stroke-width="4" stroke-miterlimit="10" stroke-linecap="round" stroke-linejoin="round"/>
<path d="M128.5 104C134.5 96 137.246 91.1347 140.753 84.8533C157.817 54.2906 158.164 8.15552 117.926 -2.13961C67.6319 -15.0076 28.0522 28.1213 7.69403 69.7909C2.98701 79.4256 0.840592 91.2152 -4.62066 100.53C-15.5963 119.252 -22.758 152.551 -12.7304 173.076" stroke="#373635" stroke-width="4" stroke-miterlimit="10" stroke-linecap="round" stroke-linejoin="round"/>
<path d="M149.163 103.604C163.436 74.3889 207.012 22.6981 154.87 -3.98401" stroke="#373635" stroke-width="4" stroke-miterlimit="10" stroke-linecap="round" stroke-linejoin="round"/>
<path d="M18.5 245.5C14.9769 244.899 9.34668 243.865 5.89182 242.855C-1.95134 240.561 -10.843 233.948 -17.2358 228.714C-41.0718 209.199 -49.0739 185.268 -49.0739 153.71C-49.0739 113.552 -36.9877 67.4755 -5.82215 40.8958C5.00509 31.6617 45.2043 4.42216 48.8431 -6.75055" stroke="#373635" stroke-width="4" stroke-miterlimit="10" stroke-linecap="round" stroke-linejoin="round"/>
<path d="M0.0348349 317.552C0.409263 316.019 -1.76891 323.855 -4.92106 327.081C-10.5963 332.889 -22.352 337.458 -29.8508 339.377C-49.5719 344.423 -61.2876 318.981 -58.9856 302.489C-55.5086 277.58 -22.5585 275.121 -5.52179 285.583C0.378869 289.206 3.62297 301.974 2.58792 308.33C2.11793 311.216 2.67752 313.065 1.38647 315.707C0.804406 316.899 -0.115348 320.728 -0.115348 319.396C-0.115348 317.947 -0.2155 318.576 0.0348349 317.552Z" stroke="#373635" stroke-width="4" stroke-miterlimit="10" stroke-linecap="round" stroke-linejoin="round"/>
<path d="M-4.92102 327.388C-4.12497 325.759 32.4122 371.653 33.225 371.653" stroke="#373635" stroke-width="4" stroke-miterlimit="10" stroke-linecap="round" stroke-linejoin="round"/>
<path d="M0.5 320C23.6135 339.756 44.5 359 63.5603 372.575" stroke="#373635" stroke-width="4" stroke-miterlimit="10" stroke-linecap="round" stroke-linejoin="round"/>
<path d="M-5.22144 284.353C-3.70829 283.579 19.5 247.955 19.5 247" stroke="#373635" stroke-width="4" stroke-miterlimit="10" stroke-linecap="round" stroke-linejoin="round"/>
<path d="M-0.415771 292.345C7.179 288.459 14.7657 284.884 22.4115 280.972" stroke="#373635" stroke-width="4" stroke-miterlimit="10" stroke-linecap="round" stroke-linejoin="round"/>
<path d="M4.0896 303.104C22.2379 303.104 58.4548 299.723 58.4548 299.723" stroke="#373635" stroke-width="4" stroke-miterlimit="10" stroke-linecap="round" stroke-linejoin="round"/>
<path d="M3.5 313C27 317.5 62 332 62 332" stroke="#373635" stroke-width="4" stroke-miterlimit="10" stroke-linecap="round" stroke-linejoin="round"/>
<path d="M73.219 348C73.219 357.996 65.1374 365.661 57 369.825" stroke="#373635" stroke-width="4" stroke-miterlimit="10" stroke-linecap="round" stroke-linejoin="round"/>
<path d="M157.874 344.295C162.29 357.857 161.463 366.151 155.17 379.031" stroke="#373635" stroke-width="4" stroke-miterlimit="10" stroke-linecap="round" stroke-linejoin="round"/>
<path d="M199.924 331.077C188.204 325.08 165.216 345.559 160.576 355.054" stroke="#373635" stroke-width="4" stroke-miterlimit="10" stroke-linecap="round" stroke-linejoin="round"/>
<path d="M236.5 336.5C220.5 334 183.705 356.876 183.705 373.498" stroke="#373635" stroke-width="4" stroke-miterlimit="10" stroke-linecap="round" stroke-linejoin="round"/>
<path d="M256 345C242.454 338.068 219.747 361.856 219.747 374.112" stroke="#373635" stroke-width="4" stroke-miterlimit="10" stroke-linecap="round" stroke-linejoin="round"/>
<path d="M223.197 0.497375C223.197 7.29649 232.635 17.2016 225.594 24.4082C220.491 29.6299 212.983 31.2811 206.124 32.685C205.048 32.9054 201.731 32.685 202.829 32.685C217.375 32.685 239.419 64.9108 228.889 79.2804C222.162 88.4602 210.792 91.7275 200.733 94.3013C180.094 99.5824 185.637 89.5625 184.559 90.3161C180 93.5 208.213 130 180 130" stroke="#373635" stroke-width="4" stroke-miterlimit="10" stroke-linecap="round" stroke-linejoin="round"/>
<path d="M257.044 0.190796C261.877 10.0822 266.073 21.4753 260.04 31.7654C256.513 37.7826 248.608 47.9542 240.57 46.4797C259.842 46.3719 258.352 64.9012 255 67" stroke="#373635" stroke-width="4" stroke-miterlimit="10" stroke-linecap="round" stroke-linejoin="round"/>
<path d="M285.949 50.7714C282.888 56.3135 276.213 52.5111 279.21 47.3993C282.178 42.3352 289.184 44.9146 285.949 50.7714Z" fill="#89E2CD" stroke="#373635" stroke-width="4" stroke-miterlimit="10" stroke-linecap="round" stroke-linejoin="round"/>
<path d="M271.422 50.9246C271 53 260.832 56 263.634 47.3993C266.818 37.6244 273.5 47.3993 271.422 50.9246Z" fill="#89E2CD" stroke="#373635" stroke-width="4" stroke-miterlimit="10" stroke-linecap="round" stroke-linejoin="round"/>
</g>
</svg>
