<svg width="688" height="360" viewBox="0 0 688 360" fill="none" xmlns="http://www.w3.org/2000/svg">
<rect width="688" height="360" rx="16" fill="#FFE48B"/>
<mask id="mask0_787_21844" style="mask-type:alpha" maskUnits="userSpaceOnUse" x="0" y="0" width="688" height="360">
<path d="M0 16C0 7.16344 7.16344 0 16 0H672C680.837 0 688 7.16344 688 16V344C688 352.837 680.837 360 672 360H16C7.16345 360 0 352.837 0 344V16Z" fill="#FFE48B"/>
</mask>
<g mask="url(#mask0_787_21844)">
<path d="M252 345L274.5 360.5L406.5 363.5L398.5 345L396.5 334.5L385.5 325.5H369.5H360.5L357.5 320L354.5 317.5H344.5L342 310.5L337.5 304.5L322 297.5L311 299.5L295 307.5H278.5L266.5 302.5L242.5 315L224 320L235 337.5L252 345Z" fill="#6FCEA5"/>
<path d="M269.5 335L248 320.5L259.5 322L277 328L284 326.5L297.5 318.5L310 313.5L326 317L331 325.5L335 336.5L342.5 332L347 335L352.5 342.5L365 338L374.5 341L381.5 349L385 361.5H319L269.5 335Z" fill="#FFE48B"/>
<path d="M487 361.5L428 335L432.5 354.5L437 361.5H487Z" fill="#6FCEA5"/>
<path d="M63.5 325L44.5 326L46.5 330.5L44.5 346.5L40.5 356L32.5 360.5H49.5L63.5 325Z" fill="#89E2CD"/>
<path d="M50 361.531C53.2692 336.877 69.5 315.5 84.8269 308.699C135.133 281.144 237 280.447 237 363" fill="#F58EA3"/>
<path d="M74 361.904C76.5 343.5 94.8352 325.567 100.632 322.466C139.102 301.896 217 301.376 217 363" fill="#986EA8"/>
<path d="M27 153.5L15 147.5L31.5 137L46.5 130.5L31 160L27 153.5Z" fill="#6FCEA5"/>
<path d="M71.5 255.5V241.5L77.5 245.5H94.5L97 259.5L90.5 266.5L99 274L106.5 283.5V298L88.5 304L85 289.5L70 274L57 269L71.5 255.5Z" fill="#6FCEA5"/>
<path d="M17.5 191L-1 186.5V166.5H13L30 179.5L32.5 199L17.5 191Z" fill="#FAC278"/>
<path d="M60.5 8L55.5 -0.5L54 -3.5H368L356 14L368 20L306.5 89L252.5 66.5L142.5 32L116 27.5L60.5 8Z" fill="#F58EA3"/>
<path d="M307 8.5L288.5 0L329 -1L342 7.5L363.5 19L326 23.5L307 8.5Z" fill="#FFE48B"/>
<path d="M243.5 25.5L239.5 39.5L252.5 45.5L263.5 48.5L297 34.5L258 18.5L243.5 25.5Z" fill="#FFE48B"/>
<path d="M219 5L224 -1L193.5 -0.5L219 5Z" fill="#6FCEA5"/>
<path d="M204 19L158.5 -0.5L188 -2L195 1L201 10L204 19Z" fill="#986EA8"/>
<path d="M205.5 18.5L196.5 2L219.5 4.5L223.5 -1H239L240 9.5L259.5 18.5L244.5 25L235 48L216 34.5L191.5 38.5L205.5 18.5Z" fill="#FAC278"/>
<path d="M190.5 38L119 -1H156.5L205.5 21L190.5 38Z" fill="#6FCEA5"/>
<path d="M127.5 67L74.5 103L62 9.5L119 26.5L127.5 67Z" fill="#FAC278" stroke="black"/>
<path d="M301 224.5L111 194L105.5 159L184 111.5H251L275 120L348.5 155L301 224.5Z" fill="#F58EA3"/>
<path d="M374.5 113.5L344.5 154.5L329.5 146H314.5L302.5 151.5V148L300.5 137.5L287.5 127L265 117.5H243L226 127L220.5 140L203.5 122.5L190.5 119L207 110.5L211.5 103L203.5 88L223.5 76H246L268 80.5L284 91.5L291 106L306 91.5L322.5 90L350.5 96L365.5 103L374.5 113.5Z" fill="#986EA8"/>
<path d="M529.5 360.5L521.5 345.5L511 356L508 361.5L529.5 360.5Z" fill="#F58EA3"/>
<path d="M566.5 309.5L577 280L575 281.5L547 314L542.5 330L548 340L556.5 353.5L561.5 361H592.5L591 353.5L580.5 343.5L568.5 328L566.5 309.5Z" fill="#FAC278"/>
<path d="M689 199.5V227.5L680.5 223L655.5 221.5L638 225.5L619.5 234.5L608.5 240L641 202L655.5 194.5H675L689 199.5Z" fill="#FAC278"/>
<path d="M669.5 345.5L680 360.5H689.5V292L669.5 312L666 326.5L669.5 345.5Z" fill="#FAC278"/>
<path d="M351 72L348.5 97L329.5 91.5L308.5 90.5L358.5 19.5L357 14.5L367.5 -3.5H415.5L393 13L376.5 29L362 54.5L351 72Z" fill="#6FCEA5"/>
<path d="M374.5 112L383.5 100.5L372.5 102.5L371 106.5L374.5 112Z" fill="#6FCEA5"/>
<path d="M295.5 246C296.845 293.981 253.467 322.5 201 322.5C138.5 316.5 97 288 109.5 226.5C109.5 180.384 147.033 158 199.5 158C251.967 158 294 192.5 295.5 246Z" fill="#FAC278"/>
<path d="M280.5 245.5C280.5 281.399 248.407 306 204.5 306C160.593 306 124 279.899 124 244C124 196 163.093 174.5 207 174.5C250.907 174.5 280.5 209.601 280.5 245.5Z" fill="#986EA8"/>
<path d="M150.908 274.917C125.222 249.23 153.25 200.898 183.257 194.896C214.159 188.716 257.42 203.269 262.426 238.312C270.114 292.126 182.425 306.434 150.908 274.917Z" fill="#FAC278" stroke="#373635" stroke-width="4" stroke-miterlimit="10" stroke-linecap="round" stroke-linejoin="round"/>
<path d="M224 252.5L212.5 258L222 271L234.5 265L244.5 249L243.5 233L234.5 217.5L214.5 207H196.5L178 214.5L161 229.5L156.5 247.5L163 265L181.5 278.5H199V272.5H182.5L176.5 259.5L182.5 261L192 265L199 262.5V258H191L180 252.5L174.5 244L176.5 236L174.5 233L176.5 228H183.5L186.5 232L196.5 227L211.5 229.5L220.5 223.5L225 227L224 233L228.5 236L230 244L224 252.5Z" fill="#986EA8"/>
<path d="M431 83.5C428.487 78.4729 445.125 64.3355 448.856 62.0967C468.292 50.435 504.554 54.7414 510.148 26.7686C511.115 21.9372 511.512 16.2146 507.594 12.2969C497.176 1.87792 477.835 3.28166 464.605 5.48656C430.295 11.2049 395.958 32.5986 382.456 66.3531C377.573 78.5613 375.576 95.347 370 106.5" fill="#6FCEA5"/>
<path d="M431 83.5C428.487 78.4729 445.125 64.3355 448.856 62.0967C468.292 50.435 504.554 54.7414 510.148 26.7686C511.115 21.9372 511.512 16.2146 507.594 12.2969C497.176 1.87792 477.835 3.28166 464.605 5.48656C430.295 11.2049 395.958 32.5986 382.456 66.3531C377.573 78.5613 375.576 95.347 370 106.5" stroke="#373635" stroke-width="4" stroke-miterlimit="10" stroke-linecap="round" stroke-linejoin="round"/>
<path d="M405 73L265.5 259.5L503 367L657 181.5L405 73Z" fill="#89E2CD"/>
<path d="M437 174.5L397 227.5L475 264L515 208.5L437 174.5Z" fill="#FAC278"/>
<path d="M484.5 249L409.5 211.5L425 190L498 229.5L484.5 249Z" fill="#F58EA3"/>
<path d="M656.5 182.5L526.5 124L491.5 82.5L522 53.5L545 14L567 4.5L690 -4.5L692.5 200.5L667 194.5L643.5 200.5L656.5 182.5Z" fill="#F58EA3"/>
<path d="M609 16L612.5 -1H689L688.5 28.5L672 8L661 1.5L650 0.5L640 5.5L619 17.5L609 16Z" fill="#89E2CD"/>
<path d="M548.5 11.5L544 -1H612.5L609.5 16.5L597 8.5L578.5 3.5L561 6.5L548.5 11.5Z" fill="#986EA8"/>
<path d="M485.5 98.5L480 105.5L456.5 94.5L454 90.5L478 74L493.5 71.5L501 74L491 81.5L504 96.5L485.5 98.5Z" fill="#6FCEA5"/>
<path d="M674 136L668 138.5V126H671.5L689 121.5L687.5 144L674 136Z" fill="#6FCEA5"/>
<path d="M615 161.5L610 142L587 150.5L607.5 161.5H615Z" fill="#6FCEA5"/>
<path d="M656 182L643.771 197.653L653.5 195H674L689 201V161.5L675 164.5L659.5 171L651 178L656 182Z" fill="#6FCEA5"/>
<path d="M532 73.5L509 85L520 94L530.5 101.5L540 117L549 123.5L570.5 130.5L596 123.5L611 119V110.5L605.5 98L596 86L601 81.5L613.5 80.5L622 86L624 80.5L630 78L650.5 85L663.5 109L676.5 110.5L690 109L689 50L673.5 31.5L657 18.5L641 22.5L622 34.5H611L585 26.5L566.5 34.5L548 54L532 73.5Z" fill="#FAC278"/>
<path d="M533.5 88.5L521.5 82.5L546 74.5L624 62.5L691 56.5L689.5 72L672.5 87L656.5 94.5L651 85.5L638 78.5H626L621.5 85.5L614.5 81.5H603.5L596 85.5L605.5 96L600 102.5L571 107L548.5 102.5L533.5 88.5Z" fill="#986EA8"/>
<path d="M681 67.5L688.5 61.5V56L677 51L661 45L651.5 47L633 55L619.5 58L593.5 52.5L578 52L563.5 61.5L546.5 75L559.5 78.5L569 75H584.5L595.5 69L604 71L618.5 69L635.5 71L646 65.5L660.5 67.5L671.5 64.5L681 67.5Z" fill="white"/>
<path d="M405.015 72.7378L264.5 259" stroke="#373635" stroke-width="4" stroke-miterlimit="10" stroke-linecap="round" stroke-linejoin="round"/>
<path d="M405 72.5L657.42 181.701" stroke="#373635" stroke-width="4" stroke-miterlimit="10" stroke-linecap="round" stroke-linejoin="round"/>
<path d="M503.338 365.578L656.143 182.553" stroke="#373635" stroke-width="4" stroke-miterlimit="10" stroke-linecap="round" stroke-linejoin="round"/>
<path d="M264.554 259.168L496.102 365.578" stroke="#373635" stroke-width="4" stroke-miterlimit="10" stroke-linecap="round" stroke-linejoin="round"/>
<path d="M396.928 83.3787C390.5 93 390.184 127.127 390.969 131.05C396.32 157.807 417 164 435.236 174.04" stroke="#373635" stroke-width="4" stroke-miterlimit="10" stroke-linecap="round" stroke-linejoin="round"/>
<path d="M430.979 171.912L601 247.5" stroke="#373635" stroke-width="4" stroke-miterlimit="10" stroke-linecap="round" stroke-linejoin="round"/>
<path d="M475 264C496.592 280.286 536.077 313.294 520.789 343.87" stroke="#373635" stroke-width="4" stroke-miterlimit="10" stroke-linecap="round" stroke-linejoin="round"/>
<path d="M476.948 265.127C425.41 239.357 367.9 214.298 313 196" stroke="#373635" stroke-width="4" stroke-miterlimit="10" stroke-linecap="round" stroke-linejoin="round"/>
<path d="M437.79 174.891C435.619 173.808 398.54 224.825 396.5 227.5" stroke="#373635" stroke-width="4" stroke-miterlimit="10" stroke-linecap="round" stroke-linejoin="round"/>
<path d="M514.5 209.5C508.896 212.302 479.621 257.257 476 264.5" stroke="#373635" stroke-width="4" stroke-miterlimit="10" stroke-linecap="round" stroke-linejoin="round"/>
<path d="M408.846 211.071L483.333 248.527" stroke="#373635" stroke-width="4" stroke-miterlimit="10" stroke-linecap="round" stroke-linejoin="round"/>
<path d="M426 190.5C451.192 201.521 474.107 216.46 498 230" stroke="#373635" stroke-width="4" stroke-miterlimit="10" stroke-linecap="round" stroke-linejoin="round"/>
<path d="M595.702 86.3582C595.079 86.0465 600.97 90.2608 602.512 92.3171C606.493 97.625 609.506 103.635 610.599 110.194C612.957 124.343 605.292 158.146 620 165.5" stroke="#373635" stroke-width="4" stroke-miterlimit="10" stroke-linecap="round" stroke-linejoin="round"/>
<path d="M597.5 88C586.859 82.6794 626.774 68.5543 626.774 101.681" stroke="#373635" stroke-width="4" stroke-miterlimit="10" stroke-linecap="round" stroke-linejoin="round"/>
<path d="M622.517 85.9328C622.517 71.2215 645.19 80.9391 650.184 85.9328C672.694 108.443 677.452 172.5 637 172.5" stroke="#373635" stroke-width="4" stroke-miterlimit="10" stroke-linecap="round" stroke-linejoin="round"/>
<path d="M626.774 362.173C626.774 342.78 585.466 333.797 589.317 306.84C593.069 280.581 614.422 256.677 639.968 249.378C649.603 246.625 663.307 243.04 670.614 252.783C689.174 277.529 647.713 287.696 643.799 307.265C639.617 328.175 670.051 341.592 659.548 362.598" fill="#FAC278"/>
<path d="M626.774 362.173C626.774 342.78 585.466 333.797 589.317 306.84C593.069 280.581 614.422 256.677 639.968 249.378C649.603 246.625 663.307 243.04 670.614 252.783C689.174 277.529 647.713 287.696 643.799 307.265C639.617 328.175 670.051 341.592 659.548 362.598" stroke="#373635" stroke-width="4" stroke-miterlimit="10" stroke-linecap="round" stroke-linejoin="round"/>
<path d="M684.661 362.598C668.997 354.767 661.969 328.386 669.338 313.65C674.677 302.971 686.003 297.246 693.173 287.686C702.864 274.764 703.813 245.404 694.025 232.353C680.269 214.012 646.5 224 646.5 224C610.79 229.952 574.019 272.666 567.184 306.84C560.616 339.68 592.722 342.071 592.722 362.173" stroke="#373635" stroke-width="4" stroke-miterlimit="10" stroke-linecap="round" stroke-linejoin="round"/>
<path d="M547 313.5C535.369 336.763 553.826 343.969 563.353 363.024" stroke="#373635" stroke-width="4" stroke-miterlimit="10" stroke-linecap="round" stroke-linejoin="round"/>
<path d="M523.5 340.5C518.228 351.5 528.491 359.002 532 361" stroke="#373635" stroke-width="4" stroke-miterlimit="10" stroke-linecap="round" stroke-linejoin="round"/>
<path d="M635.5 207.5C656.5 185 692.766 194.042 702.825 214.16" stroke="#373635" stroke-width="4" stroke-miterlimit="10" stroke-linecap="round" stroke-linejoin="round"/>
<path d="M651.5 179C657.816 166.368 693.023 153.733 701.26 170.209" stroke="#373635" stroke-width="4" stroke-miterlimit="10" stroke-linecap="round" stroke-linejoin="round"/>
<path d="M667.5 140C672.699 129.449 689.135 142.641 693.5 151.5" stroke="#373635" stroke-width="4" stroke-miterlimit="10" stroke-linecap="round" stroke-linejoin="round"/>
<path d="M509 85C510.924 81.1519 529.134 76.3111 533.558 71.8868C549.651 55.7939 559.173 32.0317 583.358 27.1947C596.231 24.6201 606.265 37.0851 619.538 34.4305C631.214 32.0952 644.724 16.3131 656.568 18.6819C674.677 22.3037 678.78 53.5843 701.26 53.5843" stroke="#373635" stroke-width="4" stroke-miterlimit="10" stroke-linecap="round" stroke-linejoin="round"/>
<path d="M509 85C517.223 80.8885 533.013 80.1918 542.071 76.5686C555.832 71.0644 566.386 54.2136 580.379 51.8815C596.487 49.1968 609.698 60.7448 626.348 57.4148C636.893 55.3058 644.9 47.5751 655.291 45.4969C671.259 42.3034 681.963 61.5301 697.855 53.584" stroke="#373635" stroke-width="4" stroke-miterlimit="10" stroke-linecap="round" stroke-linejoin="round"/>
<path d="M547.5 74.0147C550.738 80.4917 562.66 80.2413 568.035 74.866C572.048 70.853 568.035 57.8404 568.035 57.8404C568.035 57.8404 565.069 70.1971 568.887 74.0147C573.329 78.4575 590.674 73.9349 594.851 69.7583C597.495 67.1136 591.227 54.0824 593.999 53.1584C595.142 52.7773 595.197 56.4338 595.276 56.9891C596.102 62.7681 594.343 69.3191 602.086 70.6096C627.399 74.8284 613.891 62.1537 620.815 58.6917C621.053 58.5726 621.022 69.4672 621.24 69.7583C623.455 72.7111 633.772 71.253 636.989 70.6096C650.983 67.8108 640.802 54.8786 646.353 49.3276C646.645 49.0355 647.204 56.1315 647.204 56.5635C647.204 61.9013 645.646 66.8738 652.738 68.0558C658.154 68.9585 666.7 67.2884 670.614 63.3737C673.75 60.2379 672.317 50.1789 672.317 50.1789C672.317 50.1789 669.551 61.8847 673.168 65.5019C680.222 72.5552 688.863 62.2053 691.471 56.9891" stroke="#373635" stroke-width="4" stroke-miterlimit="10" stroke-linecap="round" stroke-linejoin="round"/>
<path d="M520.364 80.8252C522.357 84.8119 529.412 84.7382 532.707 87.2098C538.2 91.3296 540.83 97.5583 546.328 101.681C556.405 109.239 598.636 109.727 605 97" stroke="#373635" stroke-width="4" stroke-miterlimit="10" stroke-linecap="round" stroke-linejoin="round"/>
<path d="M657.845 94.0202C684.078 80.9034 685.577 80.27 698.707 54.0098" stroke="#373635" stroke-width="4" stroke-miterlimit="10" stroke-linecap="round" stroke-linejoin="round"/>
<path d="M508.871 85.0815C512.829 92.9982 523.868 94.1192 529.728 99.9792C535.059 105.31 536.407 114.991 542.497 119.558C565.416 136.747 586.947 129.256 609.748 117.856" stroke="#373635" stroke-width="4" stroke-miterlimit="10" stroke-linecap="round" stroke-linejoin="round"/>
<path d="M664.655 108.917C673.315 111.804 683.42 112.286 690.194 105.512C692.245 103.461 692.732 98.7103 695.302 97.4253" stroke="#373635" stroke-width="4" stroke-miterlimit="10" stroke-linecap="round" stroke-linejoin="round"/>
<path d="M491 81.5C505.951 74.0247 521.554 53.1323 531.43 39.9639C538.627 30.3686 537.927 18.7 549.307 11.8716C562.633 3.87598 578.653 0.795861 593.574 6.76398C602.014 10.14 609.788 19.4556 619.538 17.8306C633.847 15.4457 640.732 -3.12848 658.271 0.379351C675.781 3.88138 681.614 28.4491 699.558 34.4305" stroke="#373635" stroke-width="4" stroke-miterlimit="10" stroke-linecap="round" stroke-linejoin="round"/>
<path d="M490.569 81.6763C492.603 85.7441 497.974 88.1446 500.784 91.8917C509.858 103.991 518.6 116.399 529 126" stroke="#373635" stroke-width="4" stroke-miterlimit="10" stroke-linecap="round" stroke-linejoin="round"/>
<path d="M580 148C589 151.5 603.534 143.947 609.748 140.84" stroke="#373635" stroke-width="4" stroke-miterlimit="10" stroke-linecap="round" stroke-linejoin="round"/>
<path d="M668 126.5C678.955 126.5 691.559 121.936 696.578 111.897" stroke="#373635" stroke-width="4" stroke-miterlimit="10" stroke-linecap="round" stroke-linejoin="round"/>
<path d="M609.322 -7.70801C613.479 0.604496 613.02 6.60388 608.897 14.8509" stroke="#373635" stroke-width="4" stroke-miterlimit="10" stroke-linecap="round" stroke-linejoin="round"/>
<path d="M534.835 -7.70782C538.51 -15.0561 548.03 6.71336 548.03 10.5947" stroke="#373635" stroke-width="4" stroke-miterlimit="10" stroke-linecap="round" stroke-linejoin="round"/>
<path d="M454.619 93.9998C451.125 92.0239 463.501 82.5701 464.956 81.3356C472.56 74.8866 491.883 68.6273 500.5 73.5" stroke="#373635" stroke-width="4" stroke-miterlimit="10" stroke-linecap="round" stroke-linejoin="round"/>
<path d="M479.5 104.5C485.218 93.062 497.731 95.1151 506.5 99.5001" stroke="#373635" stroke-width="4" stroke-miterlimit="10" stroke-linecap="round" stroke-linejoin="round"/>
<path d="M305.628 7.82768C310.366 7.79588 322.383 24.2148 327.123 24.2148C332.486 24.2148 364.938 17.3379 367.985 20.384C368.454 20.8534 350.533 41.7758 350.533 46.3481C350.533 50.3275 366.072 67.8401 363.728 70.1839C362.877 71.0354 335.299 65.4841 330.954 66.3531C327.191 67.1056 308.651 89.5649 307.969 89.3377C305.956 88.6666 301.456 60.6907 298.18 57.4147C294.629 53.8639 262.426 51.0567 262.426 49.7532C262.426 46.3559 296.926 38.2141 299.031 34.0045C301.416 29.2353 300.615 7.86128 305.628 7.82768Z" fill="#FAC278" stroke="#373635" stroke-width="4" stroke-miterlimit="10" stroke-linecap="round" stroke-linejoin="round"/>
<path d="M377.349 -7.70801C369.071 -7.70801 358.88 7.24 355.5 14" stroke="#373635" stroke-width="4" stroke-miterlimit="10" stroke-linecap="round" stroke-linejoin="round"/>
<path d="M433.533 -8.98486C396.85 3.24284 376.088 24.8224 359 59" stroke="#373635" stroke-width="4" stroke-miterlimit="10" stroke-linecap="round" stroke-linejoin="round"/>
<path d="M353 70C349.514 73.8008 346.373 90.0247 348.655 95" stroke="#373635" stroke-width="4" stroke-miterlimit="10" stroke-linecap="round" stroke-linejoin="round"/>
<path d="M202.836 90.6146C214.972 66.3434 258.424 75.1039 276.472 85.9325C281.533 88.9693 285.8 94.101 288.816 99.127C289.3 99.934 290.626 105.512 291.369 105.512C291.427 105.512 303.669 92.4111 308.395 91.4659C324.449 88.2551 364.805 95.109 373.5 112.5" stroke="#373635" stroke-width="4" stroke-miterlimit="10" stroke-linecap="round" stroke-linejoin="round"/>
<path d="M185.385 121.686C204.51 115.311 211.658 131.785 221.99 142.117C222.163 142.29 222.389 136.372 222.416 136.158C222.967 131.745 225.712 127.477 229.226 124.666C237.725 117.867 251.612 114.416 262.426 116.579C276.388 119.371 291.228 125.47 299.882 137.009C303.676 142.068 302.372 151.61 299.882 156.589C299.731 156.89 297.745 159.985 297.328 159.568C296.175 158.415 308.205 148.565 309.672 148.076C322.187 143.904 329.99 146.955 340.744 152.332" stroke="#373635" stroke-width="4" stroke-miterlimit="10" stroke-linecap="round" stroke-linejoin="round"/>
<path d="M212.413 104.022C212.413 104.022 208.57 109.393 205.816 111.045C177.51 128.029 132.778 139.982 119.837 172.337C115.633 182.845 124.036 199.961 132.606 206.389C134.648 207.92 145.35 214.951 143.673 218.306C140.813 224.025 129.873 226.102 124.944 229.799C86.7408 258.451 70.4828 245.568 41.9448 217.03C25.5 204 27.8838 160.444 36.8368 145.522C58.7963 108.924 119.979 62.7485 163.678 54.01C180.01 50.7434 212.413 104.022 212.413 104.022Z" fill="#89E2CD" stroke="#373635" stroke-width="4" stroke-miterlimit="10" stroke-linecap="round" stroke-linejoin="round"/>
<path d="M43.2218 -13.8796C32.4878 -0.391805 5.54877 8.68038 -10.4092 13.9998C-12.3622 14.651 -29.1372 20.4854 -29.1372 22.087C-29.1372 23.271 -18.2432 28.2987 -16.7942 29.7485C-10.3262 36.2163 -0.645231 56.189 -5.30123 65.5022C-17.4262 89.7506 -45.7642 106.714 -70.4244 116.579C-78.1046 119.651 -84.0933 125.877 -91.7064 128.922C-94.1021 129.88 -102.561 130.946 -103.624 133.604C-106.696 141.284 -68.4892 174.273 -62.7629 179.999C-59.3259 183.436 -24.8052 168.802 -19.3472 165.527C13.4908 145.824 74.7418 124.931 81.1028 80.3996C84.9178 53.6959 73.9528 35.0271 62.3748 11.8716C59.0408 5.20268 54.3898 -2.31103 48.3288 -6.85653C46.7088 -8.07182 45.0638 -10.8329 44.0728 -12.8155C43.5338 -13.8923 40.6678 -16.2206 41.5188 -15.3693C42.3028 -14.5858 43.2658 -13.9351 43.2218 -13.8796Z" fill="#89E2CD" stroke="#373635" stroke-width="4" stroke-miterlimit="10" stroke-linecap="round" stroke-linejoin="round"/>
<path d="M187.088 232.353C193.011 226.429 205.292 226.344 212.2 229.799" stroke="#373635" stroke-width="4" stroke-miterlimit="10" stroke-linecap="round" stroke-linejoin="round"/>
<path d="M212.984 231.177C206.858 228.046 231.667 215.744 223.231 233" stroke="#373635" stroke-width="4" stroke-miterlimit="10" stroke-linecap="round" stroke-linejoin="round"/>
<path d="M186.662 232.353C186.662 221.974 165.342 230.418 178.575 237.035" stroke="#373635" stroke-width="4" stroke-miterlimit="10" stroke-linecap="round" stroke-linejoin="round"/>
<path d="M178.149 237.46C165.062 244.004 187.651 262.078 198.58 256.614" stroke="#373635" stroke-width="4" stroke-miterlimit="10" stroke-linecap="round" stroke-linejoin="round"/>
<path d="M198.58 256.614V262.147" stroke="#373635" stroke-width="4" stroke-miterlimit="10" stroke-linecap="round" stroke-linejoin="round"/>
<path d="M175.5 260C181 264 179.028 271.906 184.5 273C189.764 274.053 203.402 268.696 199 277.5" stroke="#373635" stroke-width="4" stroke-miterlimit="10" stroke-linecap="round" stroke-linejoin="round"/>
<path d="M175.595 259.594C187.73 259.594 185.101 269.2 198.5 262.5" stroke="#373635" stroke-width="4" stroke-miterlimit="10" stroke-linecap="round" stroke-linejoin="round"/>
<path d="M223.693 233.204C240.123 238.681 223.773 257.465 212.626 257.465" stroke="#373635" stroke-width="4" stroke-miterlimit="10" stroke-linecap="round" stroke-linejoin="round"/>
<path d="M213 257.5C211.706 258.147 220.911 269.353 221.99 271.511" stroke="#373635" stroke-width="4" stroke-miterlimit="10" stroke-linecap="round" stroke-linejoin="round"/>
<path d="M199 277.5C178.823 287.588 152.939 261.361 156.867 241.717C159.649 227.809 173.439 216.618 185.385 210.645C227.152 189.762 273.716 245.643 222 271.5" stroke="#373635" stroke-width="4" stroke-miterlimit="10" stroke-linecap="round" stroke-linejoin="round"/>
<path d="M134.308 206.814C165.5 150.5 282.177 172.337 278.5 239.5" stroke="#373635" stroke-width="4" stroke-miterlimit="10" stroke-linecap="round" stroke-linejoin="round"/>
<path d="M125.796 229.799C115.772 249.846 130.403 271.862 143.673 285.132C173.591 315.05 261.1 314.648 277.323 265.978" stroke="#373635" stroke-width="4" stroke-miterlimit="10" stroke-linecap="round" stroke-linejoin="round"/>
<path d="M122 192C122 177.664 159.524 163.208 171.339 160.845C212.001 152.713 290.5 169.56 290.5 224.5" stroke="#373635" stroke-width="4" stroke-miterlimit="10" stroke-linecap="round" stroke-linejoin="round"/>
<path d="M107.919 242.142C109.99 246.284 107.919 255.587 107.919 260.445C107.919 270.598 113.875 282.575 121.114 289.814C166.711 335.411 262.729 333.474 293.072 272.788" stroke="#373635" stroke-width="4" stroke-miterlimit="10" stroke-linecap="round" stroke-linejoin="round"/>
<path d="M96.0007 364.727C91.5377 355.8 105.089 341.482 111.75 337.486C130.436 326.273 161.574 320.911 178.149 337.486C183.71 343.047 192.655 355.296 188.365 363.875" fill="#F58EA3"/>
<path d="M96.0007 364.727C91.5377 355.8 105.089 341.482 111.75 337.486C130.436 326.273 161.574 320.911 178.149 337.486C183.71 343.047 192.655 355.296 188.365 363.875" stroke="#373635" stroke-width="4" stroke-miterlimit="10" stroke-linecap="round" stroke-linejoin="round"/>
<path d="M117.708 362.598C114.014 360.751 126.366 348.48 128.775 347.275C144.761 339.283 176.447 339.081 176.447 363.024" fill="#986EA8"/>
<path d="M117.708 362.598C114.014 360.751 126.366 348.48 128.775 347.275C144.761 339.283 176.447 339.081 176.447 363.024" stroke="#373635" stroke-width="4" stroke-miterlimit="10" stroke-linecap="round" stroke-linejoin="round"/>
<path d="M74.2927 364.727C74.2927 327.585 117.433 309.819 148.355 309.819" stroke="#373635" stroke-width="4" stroke-miterlimit="10" stroke-linecap="round" stroke-linejoin="round"/>
<path d="M191.5 321C206.649 321 221.022 349.638 213.903 363.875" stroke="#373635" stroke-width="4" stroke-miterlimit="10" stroke-linecap="round" stroke-linejoin="round"/>
<path d="M50.0318 363.875C47.4618 362.59 57.6828 336.659 59.3958 332.378C66.5428 314.51 108.595 289.698 127.5 296" stroke="#373635" stroke-width="4" stroke-miterlimit="10" stroke-linecap="round" stroke-linejoin="round"/>
<path d="M221.565 320.886C237.106 328.656 236.462 349.336 236.462 363.45" stroke="#373635" stroke-width="4" stroke-miterlimit="10" stroke-linecap="round" stroke-linejoin="round"/>
<path d="M9.59577 220.435C12.1748 220.576 7.32077 226.544 6.19077 228.522C4.48577 231.506 -3.15123 244.547 -6.15323 245.547C-6.45423 245.648 -6.72022 245.264 -7.00422 245.122C-14.7452 241.251 -27.3582 234.558 -33.3942 228.522C-33.6182 228.298 -33.7572 227.982 -33.8192 227.671C-34.7116 223.21 -31.7002 217.036 -28.2862 214.476C-11.8012 202.112 -3.15823 219.737 9.59577 220.435Z" stroke="#373635" stroke-width="4" stroke-miterlimit="10" stroke-linecap="round" stroke-linejoin="round"/>
<path d="M-9.98325 285.132C1.55375 308.206 49.0138 255.061 50.8828 243.845C51.9538 237.42 41.0328 230.893 35.5598 229.799C20.9109 226.87 -16.1281 272.843 -9.98325 285.132Z" fill="#F58EA3" stroke="#373635" stroke-width="4" stroke-miterlimit="10" stroke-linecap="round" stroke-linejoin="round"/>
<path d="M36.5 282C41 277.5 62.5168 288.963 63.6518 295.773C67.7998 320.659 27.989 314.477 20.5 299.5" fill="#F58EA3"/>
<path d="M36.5 282C41 277.5 62.5168 288.963 63.6518 295.773C67.7998 320.659 27.989 314.477 20.5 299.5" stroke="#373635" stroke-width="4" stroke-miterlimit="10" stroke-linecap="round" stroke-linejoin="round"/>
<path d="M-25.0942 294.922C-20.8252 295.325 -32.3732 293.049 -35.9476 296.624C-41.3767 302.053 -45.1455 308.449 -41.0553 316.629C-36.8896 324.961 15.8868 352.476 23.2158 345.147C44.1778 324.186 16.4368 313.668 -0.619186 303.434C-6.89519 299.669 -28.5162 294.598 -25.0942 294.922Z" fill="#89E2CD" stroke="#373635" stroke-width="4" stroke-miterlimit="10" stroke-linecap="round" stroke-linejoin="round"/>
<path d="M36.4107 282.152C33.7957 284.768 16.4557 303.385 21.0877 298.752" stroke="#373635" stroke-width="4" stroke-miterlimit="10" stroke-linecap="round" stroke-linejoin="round"/>
<path d="M-38.5016 197.876C-19.5633 183.672 2.00973 183.655 22.7907 194.045C27.2137 196.257 31 199.314 34 205.5" stroke="#373635" stroke-width="4" stroke-miterlimit="10" stroke-linecap="round" stroke-linejoin="round"/>
<path d="M70.0367 241.291C73.8847 248.988 70.1107 256.539 64.5037 262.147C54.4516 272.194 50.5786 266.302 63.6517 270.66C72.1097 273.48 94.15 293.698 88.5 305" stroke="#373635" stroke-width="4" stroke-miterlimit="10" stroke-linecap="round" stroke-linejoin="round"/>
<path d="M64.5 324C60.733 325.884 45.9797 324.937 44.9237 325.993C34.1319 336.785 51.5594 314.95 45.3497 345.998C41.6307 364.591 15.5227 363.45 2.35974 363.45" stroke="#373635" stroke-width="4" stroke-miterlimit="10" stroke-linecap="round" stroke-linejoin="round"/>
<path d="M29.5 180C12.743 164.393 17 165 -6 167" stroke="#373635" stroke-width="4" stroke-miterlimit="10" stroke-linecap="round" stroke-linejoin="round"/>
<path d="M31 161.5C29 154.5 22.992 147.03 12 149" stroke="#373635" stroke-width="4" stroke-miterlimit="10" stroke-linecap="round" stroke-linejoin="round"/>
<path d="M93.4998 245.5C103.5 258 89.5806 267.11 89.5806 267.11C101.5 275.5 111.09 278.005 105.5 297" stroke="#373635" stroke-width="4" stroke-miterlimit="10" stroke-linecap="round" stroke-linejoin="round"/>
<path d="M134.964 38.887C140.54 38.0521 150.283 41.5284 146.312 48.3262C144.348 51.6879 139.887 55.1907 135.966 54.9933C135.528 54.9712 131.507 53.5342 131.97 52.9781C133.199 51.5004 133.639 56.9422 133.134 57.8737C130.946 61.9137 127.548 67.2019 122.663 68.3636C118.223 69.4196 113.289 68.2802 111.277 63.6922C110.926 62.8924 110.802 61.1155 110.802 61.1155C110.802 61.1155 110.532 62.3046 110.245 62.8341C105.728 71.1725 96.0227 64.895 92.0727 59.5004C89.6467 56.1867 95.3747 52.4445 97.4767 50.905C98.4057 50.2249 101.583 50.3927 100.698 49.6564C96.4827 46.1506 88.1487 49.0644 93.9437 38.3661C95.3287 35.8086 98.4277 34.9483 101.071 35.5677C102.532 35.91 106.607 37.5539 105.453 36.5945C100.602 32.5594 101.349 25.7086 109.05 23.8773C111.892 23.2015 119.036 24.9177 120.608 27.8184C121.229 28.965 118.711 31.8039 120.01 31.6847C122.935 31.4161 137.117 15.6438 138.522 30.9376C138.825 34.2379 133.471 39.1106 134.964 38.887Z" fill="#986EA8" stroke="#373635" stroke-width="4" stroke-miterlimit="10" stroke-linecap="round" stroke-linejoin="round"/>
<path d="M115.047 52.8646C106.434 48.7165 116.532 33.5919 122.292 38.3831C128.62 43.647 123.526 56.9491 115.047 52.8646Z" fill="#6FCEA5" stroke="#373635" stroke-width="4" stroke-miterlimit="10" stroke-linecap="round" stroke-linejoin="round"/>
<path d="M235 48L216.5 35" stroke="#373635" stroke-width="4" stroke-miterlimit="10" stroke-linecap="round" stroke-linejoin="round"/>
<path d="M235.464 47.8173C238.209 42.1878 243.552 25.6294 243.552 25.6294" stroke="#373635" stroke-width="4" stroke-miterlimit="10" stroke-linecap="round" stroke-linejoin="round"/>
<path d="M259 18L243.5 25.5" stroke="#373635" stroke-width="4" stroke-miterlimit="10" stroke-linecap="round" stroke-linejoin="round"/>
<path d="M258.786 17.8578L239.5 9.5" stroke="#373635" stroke-width="4" stroke-miterlimit="10" stroke-linecap="round" stroke-linejoin="round"/>
<path d="M239.525 9.5V-6.73779" stroke="#373635" stroke-width="4" stroke-miterlimit="10" stroke-linecap="round" stroke-linejoin="round"/>
<path d="M220.138 4.64528C223.362 -0.110944 227.337 -4.51107 229.883 -9.73193" stroke="#373635" stroke-width="4" stroke-miterlimit="10" stroke-linecap="round" stroke-linejoin="round"/>
<path d="M220 5.00001L195.595 1.38611" stroke="#373635" stroke-width="4" stroke-miterlimit="10" stroke-linecap="round" stroke-linejoin="round"/>
<path d="M206 19L195 2" stroke="#373635" stroke-width="4" stroke-miterlimit="10" stroke-linecap="round" stroke-linejoin="round"/>
<path d="M206 19L192.919 36.2908" stroke="#373635" stroke-width="4" stroke-miterlimit="10" stroke-linecap="round" stroke-linejoin="round"/>
<path d="M216.594 35.0269L192 39" stroke="#373635" stroke-width="4" stroke-miterlimit="10" stroke-linecap="round" stroke-linejoin="round"/>
<path d="M191.846 38.842C166.408 25.2125 141.264 8.81093 114.478 -1.79468" stroke="#373635" stroke-width="4" stroke-miterlimit="10" stroke-linecap="round" stroke-linejoin="round"/>
<path d="M205 20C180.661 11.7662 158.18 -2.13807 133.562 -9.05518" stroke="#373635" stroke-width="4" stroke-miterlimit="10" stroke-linecap="round" stroke-linejoin="round"/>
<path d="M196 1.99202C196.045 2.20245 188.661 -1.80963 186.698 -2.66135C179.33 -5.85606 172.431 -9.77749 165 -13" stroke="#373635" stroke-width="4" stroke-miterlimit="10" stroke-linecap="round" stroke-linejoin="round"/>
<path d="M263 50L240 39" stroke="#373635" stroke-width="4" stroke-miterlimit="10" stroke-linecap="round" stroke-linejoin="round"/>
<path d="M297.404 34.9838L258.5 18" stroke="#373635" stroke-width="4" stroke-miterlimit="10" stroke-linecap="round" stroke-linejoin="round"/>
<path d="M306 8L254.55 -14.7817" stroke="#373635" stroke-width="4" stroke-miterlimit="10" stroke-linecap="round" stroke-linejoin="round"/>
<path d="M306.865 89.1305C253.091 62.905 195.362 48.1982 138.5 30.5" stroke="#373635" stroke-width="4" stroke-miterlimit="10" stroke-linecap="round" stroke-linejoin="round"/>
<path d="M111.5 23.5C111.5 23.5 81.182 17.8429 61 8" stroke="#373635" stroke-width="4" stroke-miterlimit="10" stroke-linecap="round" stroke-linejoin="round"/>
<path d="M368.182 20.1409C368.807 20.4457 362.539 18.0722 360.737 17.1935C356.086 14.9252 351.543 12.7094 346.939 10.4639C333.255 3.78977 321.333 -5.78193 307.853 -12.3564" stroke="#373635" stroke-width="4" stroke-miterlimit="10" stroke-linecap="round" stroke-linejoin="round"/>
<path d="M246.401 320.525C252.219 320.963 263.934 331.499 269.342 334.732C288.915 346.434 310.617 356.053 330.56 367.145C333.741 368.914 342.082 372.979 343.453 376.33" stroke="#373635" stroke-width="4" stroke-miterlimit="10" stroke-linecap="round" stroke-linejoin="round"/>
<path d="M246.5 320C254.103 316.888 271.691 328.869 280.143 327.647C290.657 326.128 297.943 314.402 309.792 313.61C316.178 313.183 326.826 316.792 330.464 322.276C333.191 326.384 331.151 335.596 336.068 335.967C337.282 336.058 339.669 333.019 341.209 332.721C347.512 331.502 349.674 339.079 352.991 341.98C353.866 342.746 362.668 337.779 365.126 338.155C383.01 340.894 381.06 351.979 386.202 364.543" stroke="#373635" stroke-width="4" stroke-miterlimit="10" stroke-linecap="round" stroke-linejoin="round"/>
<path d="M267.5 303.5C275.5 306 284.03 309.658 293.002 307.923C304.165 305.763 311.316 295.225 324.193 298.582C331.039 300.367 338.165 304.619 342.273 310.212C343.764 312.242 342.574 316.819 345.015 317.843C348.452 319.283 352.529 316.132 355.936 317.56C359.377 319.002 358.623 326.761 362.354 326.731C372.368 326.651 380.538 321.696 390.301 328.994C402.958 338.455 395.881 346.281 401.433 355.265C404.956 360.964 411.16 365.447 416.135 369.799" stroke="#373635" stroke-width="4" stroke-miterlimit="10" stroke-linecap="round" stroke-linejoin="round"/>
<path d="M428.5 335.5C427.015 331.873 430.148 349.174 431.632 352.8C434.164 358.987 442.165 367.179 449.15 367.705" stroke="#373635" stroke-width="4" stroke-miterlimit="10" stroke-linecap="round" stroke-linejoin="round"/>
<path d="M235.157 337.686C251.674 344.61 274.065 357.49 287.143 368.93" stroke="#373635" stroke-width="4" stroke-miterlimit="10" stroke-linecap="round" stroke-linejoin="round"/>
</g>
</svg>
