<svg width="688" height="360" viewBox="0 0 688 360" fill="none" xmlns="http://www.w3.org/2000/svg">
<rect width="688" height="360" rx="16" fill="#FFE48B"/>
<mask id="mask0_786_20993" style="mask-type:alpha" maskUnits="userSpaceOnUse" x="0" y="0" width="688" height="360">
<path d="M0 16C0 7.16344 7.16344 0 16 0H672C680.837 0 688 7.16344 688 16V344C688 352.837 680.837 360 672 360H16C7.16345 360 0 352.837 0 344V16Z" fill="#FFE48B"/>
</mask>
<g mask="url(#mask0_786_20993)">
<path d="M690 47.5V30L664.5 26.5L641 32L626 37L643.5 57.5L690 47.5Z" fill="#F58EA3"/>
<path d="M654.5 71.5L635.5 90L624 68L650 52.5L666.5 46H689V64H679.5L654.5 71.5Z" fill="#FAC278"/>
<path d="M690 113V83L671 86L653.5 99.5L645 124L617.5 157.5L588 186L585 198L595.5 207.5L597 217L595.5 234L602 241.5L623 232.5L629.5 234L625.5 223.5V212L623 199.5L613.5 192.5L620 178L637.5 160L650.5 140.5L671 120.5L690 113Z" fill="#FAC278"/>
<path d="M514 311L496 301.5L565 267L583 276.5L514 311Z" fill="#6FCEA5"/>
<path d="M536 322L513 309L583 277L603 288.5L536 322Z" fill="#986EA8"/>
<path d="M548.5 345L545 330L622 300.5L625 326L548.5 345Z" fill="#986EA8"/>
<path d="M548.5 361V357.5L641.5 346L638 361H548.5Z" fill="#986EA8"/>
<path d="M547.5 328L537 321L605 289L621 299.5L547.5 328Z" fill="#6FCEA5"/>
<path d="M548 358.5V345L624 326.5V349L548 358.5Z" fill="#6FCEA5"/>
<path d="M522.5 181L532 162H557.5L545.5 178.5L543.5 190L522.5 181Z" fill="#986EA8"/>
<path d="M641.5 350L638 360H688.5V339.5L676 336.5L641.5 350Z" fill="#6FCEA5"/>
<path d="M131 89L-0.5 132V268.5L9.5 285.5L13.5 301.5L56 366.5L78.5 362.5L177.5 321.5L240.5 301.5L255 294.5L240.5 278.5L220.5 236.5L162 132L131 89Z" fill="white"/>
<path d="M165 108L155.5 123L189.5 181.5L195.5 193L219 232.5L239.5 227L254.5 215.5L264.5 200L259.5 103L258 97L242 93L227.5 94.5L210.5 105.5L207.5 118L200.5 111L182.5 105.5L165 108Z" fill="#F58EA3"/>
<path d="M202 173.5L194.5 176L169.5 145.5L173 136L179.5 131.5L190.5 129.5L202 136L206 140L218 126L233.5 122L239.5 126L231 141.5L221 150.5L209 152.5L214.5 171L211 178.5L202 173.5Z" fill="#FFE48B"/>
<path d="M215 171.5L209 153.5L227 147.5L237.5 128.5L250.5 112.5L280.5 86L326 74.5L357 79L391.5 98.5L405 100L430 95.5L441 88.5L455.5 58L476 39L504 28L530 21.5L561 22.5L608.5 42L632.5 39.5L642 42L649.5 54.5L636.5 62L631 70L636.5 96.5L658.5 104.5L669 115.5V125L661.5 127.5L634 120L618 139L582 157.5L537.5 162L503.5 155L473 139L452.5 110.5L442.5 109L424 120L415.5 143L408.5 189.5L391.5 209L368 218.5L323.5 221L290 210.5L271.5 232L258.5 229L251.5 222.5L264.5 199L241 171.5L227 168.5L215 171.5Z" fill="#6FCEA5"/>
<path d="M512.5 158L506 175L543.5 191L545 180L556.5 161.5L595 153L561.5 186L559 196L570 206L574 215L570 231L571.5 246L580.5 251.5L559 262L565 267L495.5 301L485.5 295.5L458 307L433.5 251.5L401.5 198.5L412.5 172L416 138L470.5 136.5L483 145.5L512.5 158Z" fill="#F58EA3"/>
<path d="M402.5 198L388 212L398.5 216L407 221.5V230L405.5 237H413.5L424.5 240.5L434.5 253.5L436 266.5L427.5 276L419.5 281L429 288.5L433 303.5L431 319L467 303.5L469 285.5L460.5 270L451.5 265.5L459 264L469 253.5V240.5L460.5 230L445 227L436 231.5L434.5 212L423 202L402.5 198Z" fill="#FAC278"/>
<path d="M428.5 116.5L419.5 129V142.5L428.5 161.5L447.5 171L464.5 169.5L473.5 158.5L471.5 140L457.5 117.5L449 108L428.5 116.5Z" fill="#986EA8"/>
<path d="M550 -2.5H522.5L518.5 11L520 23L546.5 21L544 11L550 -2.5Z" fill="#89E2CD"/>
<path d="M657 18.5L655.5 -1.5H670.5L673.5 16.5L669.5 26L653 28L657 18.5Z" fill="#89E2CD"/>
<path d="M562 10L564.5 -1H585.5L576 10L578.5 21L589 28H605.5L621.5 21L623.5 10L619.5 -1.5H641.5L642.5 15.5L638.5 28L629.5 38L611 43L567.5 25L562 10Z" fill="#89E2CD"/>
<path d="M503 131.5L480 106L543 85.5L610.5 110.5L597 129.5L566 143.5H532L503 131.5Z" fill="#FFE48B"/>
<path d="M612.5 91.5L584 76.5L606 70L612.5 83V91.5Z" fill="#FFE48B"/>
<path d="M581.5 50.5L474 84.5L482 68.5L497 54.5L525.5 42.5L554.5 41.5L581.5 50.5Z" fill="#FFE48B"/>
<path d="M270.5 169L265 156L292.5 148.5L278.5 178L270.5 169Z" fill="#FFE48B"/>
<path d="M303 188L326.5 139L388.5 122.5L396.5 143.5L393.5 167.5L377 188L345.5 196L311.5 191.5L303 188Z" fill="#FFE48B"/>
<path d="M278.5 132.5L265 135L281 114.5L303 99.5L322.5 96.5L353.5 99.5L368.5 106.5L333 118L278.5 132.5Z" fill="#FFE48B"/>
<path d="M205 173L195.5 175.5L191.5 180.5L194 193L216 231.5L223.5 232.5L240 226L254.5 215L263.5 200L243.5 174.5L233 168L216 170.5L210.5 177.5L205 173Z" fill="#FAC278"/>
<path d="M549.5 259L485 288.5L486.5 224.5L422.5 196L491 167L552.5 196L549.5 259Z" fill="#89E2CD"/>
<path d="M547 328V360H476L415 327L485 296L547 328Z" fill="#89E2CD"/>
<path d="M689 330L625.5 356.5L623 299.5L559.5 262.5L624.5 232.5L692 267L689 330Z" fill="#89E2CD"/>
<path d="M122.5 344L120 361H265L235 327.5L226 307.5L200 313.5L122.5 344Z" fill="#FAC278"/>
<path d="M277 46.5L285.5 84.5L305.5 78.5L332.5 74.5L362.5 80L387.5 96.5L405.5 100.5L436 93.5L443 84.5L450.5 66L462 50L483.5 35L504 26.5L502.5 17.5L492.5 3.5L488.5 -1.5L300.5 0L283 24.5L277 46.5Z" fill="#986EA8"/>
<path d="M471 -0.5H451L462 13L475.5 39.5L489.5 32L471 -0.5Z" fill="#F58EA3"/>
<path d="M346.5 56L356 78.5L381 92.5L375 78.5L369 52L370.5 44L375 36L385.5 28.5L396 26L414 24.5L430 36L441.5 52L447 76.5L451 65.5L459.5 52L457 40L444.5 22L426.5 9.5L406.5 6L384.5 8L364.5 20L351 34.5L346.5 56Z" fill="#F58EA3"/>
<path d="M305.5 51L310.5 76.5L331 74.5L323.5 45.5L326.5 30.5L335.5 13.5L350 -2H322L310.5 20L305.5 51Z" fill="#F58EA3"/>
<path d="M139.5 346L138.5 359.5V360.5H268.5L268 349L256.5 340L239 337.5L224 343.5L217.5 349L211.5 336.5L199.5 331.5L180.5 336L172 347.5L162 338.5L152 337.5L139.5 346Z" fill="#89E2CD"/>
<path d="M207 320L194.5 316.5L226 307.5L230.5 322.5L222.5 329.5L217 325.5L207 320Z" fill="#89E2CD"/>
<path d="M23 85.5L0 82.5V131.5L78 107L75.5 99L66.5 85.5L54 79L23 85.5Z" fill="#89E2CD"/>
<path d="M6.5 128.5L-0.5 132.5V124L14 122.5L20 128.5L18 137L13 138.5L9.5 131.5L6.5 128.5Z" fill="#FAC278"/>
<path d="M31 119L24 123V114.5L38.5 113L44.5 119L42.5 127.5L37.5 129L34 122L31 119Z" fill="#FAC278"/>
<path d="M59 113L52 117L48.5 110.5L64 104L72.5 113L70.5 121.5L65.5 123L62 116L59 113Z" fill="#FAC278"/>
<path d="M83.5 104L76.5 108L73 101.5L88.5 95L97 104L95 112.5L90 114L86.5 107L83.5 104Z" fill="#FAC278"/>
<path d="M108.5 95L101.5 99L98 92.5L113.5 86L122 95L121.5 104.5L111.5 103L112 98L108.5 95Z" fill="#FAC278"/>
<path d="M7.5 281L-2.5 270.5L-10.5 287V363L32 375L12 359.5L4 350V337.5V324L9 307L12 293.5L7.5 281Z" fill="#6FCEA5"/>
<path d="M34 355L42 361L20.5 363.5L9 357L3 347.5V334.5L9 308L13 303L24.5 316L26 343L34 355Z" fill="#F58EA3"/>
<path d="M39 339.5L52.5 361L42.5 362L32.5 353.5L25.5 344L23.5 328L25.5 317L39 339.5Z" fill="#FFE48B"/>
<path d="M136.5 293.5L132.5 269L173 148L183 143.5L195.5 148L200 156.5L158.5 272.5L148 286L136.5 293.5Z" fill="#986EA8"/>
<path d="M204.5 206.5L208.5 213H217.5L220 217.5L225.5 222H232.5L236 210L246.5 209L251 204L246.5 196L241 191.5L239.5 184L230 183L222.5 189.5L218.5 184L208.5 188L212 198L210.5 201L204.5 206.5Z" fill="#F58EA3"/>
<path d="M227.5 207L222 200L231.5 198L233.5 200.5L234 205L227.5 207Z" fill="#FFE48B"/>
<path d="M190 184.5L198 173L209 176.5" stroke="black"/>
<path d="M0 83V51H20.5L42.5 59.5L55.5 73.5L53 79.5L20.5 85.5L0 83Z" fill="#986EA8"/>
<path d="M0 33.5V51H22.5L45.5 59.5L55.5 74.5L61.5 74L85 57.5L86.5 46L76 34L59 28L29.5 32.5L0 33.5Z" fill="#FFE48B"/>
<path d="M57.5 80.5L55.5 75.5L71.5 69L84 55L100 50.5L117.5 52.5L136 60.5L145.5 73.5V88.5L137.5 95L131.5 90L122.5 92L110.5 87L100 90V98.5L93.5 101L86.5 95L74 98.5L67.5 88L57.5 80.5Z" fill="#F58EA3"/>
<path d="M103 49.5L88.5 53.5L87.5 53L84.5 44.5L75.5 33.5L93 27.5L105 16.5H127.5L147 25L159 38L155 55L140.5 64.5L131.5 58.5L103 49.5Z" fill="#986EA8"/>
<path d="M104 16.5L97.5 0H127.5L123 16.5H104Z" fill="#F58EA3"/>
<path d="M123 17L127.5 0H155L148.5 26L123 17Z" fill="#FAC278"/>
<path d="M164.5 81L179.5 -0.5H154.5L149 26L154.5 32.5L158.5 43L153.5 55L141.5 64.5L146.5 81L145 90L164.5 81Z" fill="#89E2CD"/>
<path d="M284.5 23.5L301.5 0.5V-0.5H179L164.5 80.5L185.5 81.5L199 87L210 73L222 69.5L241 68L260.5 73L276 89.5L285.5 84L278 51.5L279 37L284.5 23.5Z" fill="#6FCEA5"/>
<path d="M198 87.5L180 80L194.5 -0.5H217L198 87.5Z" fill="#89E2CD"/>
<path d="M241 67L222.5 68L232 -0.5H255L241 67Z" fill="#89E2CD"/>
<path d="M276.5 88.5L259.5 71.5L280 -0.5H299L284.5 22L277.5 44L284.5 83.5L276.5 88.5Z" fill="#89E2CD"/>
<path d="M36 31.5L0 34V0H96.5L100 4L103.5 18.5L92 28L75.5 32.5L66 29.5L36 31.5Z" fill="#6FCEA5"/>
<path d="M676 242L688 159.5L705 244.5L688 263L676 255.5V242Z" fill="#FAC278"/>
<path d="M378.136 361.052C340.651 330.965 341.1 262.446 314.707 242.643C293.184 226.494 275.265 256.999 277.985 276.041C283.895 317.433 333.643 337.49 359.927 363.784" fill="#986EA8"/>
<path d="M378.136 361.052C340.651 330.965 341.1 262.446 314.707 242.643C293.184 226.494 275.265 256.999 277.985 276.041C283.895 317.433 333.643 337.49 359.927 363.784" stroke="#373635" stroke-width="4" stroke-miterlimit="10" stroke-linecap="round" stroke-linejoin="round"/>
<path d="M419 346L442.5 360.5H408L390 342.5L376 319L364.5 287L344 246L324.5 229.5L306.5 226.5L286 230.5L272.5 241.5L262 258L259 277.5L266 300L289 328.5L320.5 355L329 362.5H311.5L257 315L247.5 300L253.5 294L242 283.5L233.5 264L237.5 251L257 229.5L273.5 230.5L280.5 224L289 212L319.5 220H354L376 234L384 255V271L386.5 299L399 323.5L419 346Z" fill="#986EA8"/>
<path d="M-84.7818 355.39C-85.741 357.309 -94.4742 345.005 -95.8408 343.182C-103.683 332.721 -111.868 312.336 -109.188 298.929C-103.128 268.617 -76.9182 258.442 -50.4611 253.149C-23.6421 247.783 17.2472 271.932 10.9352 303.506C8.26803 316.846 -5.84813 351.823 13.499 361.5" stroke="#373635" stroke-width="4" stroke-miterlimit="10" stroke-linecap="round" stroke-linejoin="round"/>
<path d="M12 298.5L54 364" stroke="#373635" stroke-width="4" stroke-miterlimit="10" stroke-linecap="round" stroke-linejoin="round"/>
<path d="M24.0007 318.5C24.0007 336.779 21.9187 351.474 40.0007 361" stroke="#373635" stroke-width="4" stroke-miterlimit="10" stroke-linecap="round" stroke-linejoin="round"/>
<path d="M9.41034 129.545C10.5693 131.852 9.54806 135.404 11.3171 137.174C18.1373 143.998 23.4852 131.417 17.0375 124.966C9.39677 117.323 -8.11247 125.004 -4.3183 132.596C-3.56859 134.094 7.29503 125.333 9.41034 129.545Z" stroke="#373635" stroke-width="4" stroke-miterlimit="10" stroke-linecap="round" stroke-linejoin="round"/>
<path d="M22.3766 123.058C21.9896 126.245 31.5992 118.205 33.055 120.388C33.9618 121.751 40.9382 138.18 43.3512 126.111C46.5237 110.239 24.4337 106.151 22.3766 123.058Z" stroke="#373635" stroke-width="4" stroke-miterlimit="10" stroke-linecap="round" stroke-linejoin="round"/>
<path d="M48.6891 115.811C43.1753 107.887 62.2626 100.396 67.3748 105.51C74.8865 113.024 75.0524 130.535 63.5612 121.914C59.7176 119.03 62.7 114.185 60.511 111.995C57.4588 108.942 50.5551 118.491 48.6891 115.811Z" stroke="#373635" stroke-width="4" stroke-miterlimit="10" stroke-linecap="round" stroke-linejoin="round"/>
<path d="M73.6676 105.701C68.5767 99.1335 85.7 91.7966 90.6376 96.7357C94.0021 100.102 103.864 116.829 90.6376 113.522C86.6466 112.523 85.3566 104.365 83.0105 104.365C79.1494 104.365 76.2388 109.019 73.6676 105.701Z" stroke="#373635" stroke-width="4" stroke-miterlimit="10" stroke-linecap="round" stroke-linejoin="round"/>
<path d="M98.4541 96.1634C97.8818 82.7517 120.408 84.283 123.05 97.4986C124.674 105.619 114.647 107.653 110.466 102.076C108.848 99.9185 113.517 95.9727 111.61 94.0652C110.534 92.9888 98.6209 100.074 98.4541 96.1634Z" stroke="#373635" stroke-width="4" stroke-miterlimit="10" stroke-linecap="round" stroke-linejoin="round"/>
<path d="M122.424 91.2108C125.622 91.2108 127.833 88.9202 131.2 88.9202" stroke="#373635" stroke-width="4" stroke-miterlimit="10" stroke-linecap="round" stroke-linejoin="round"/>
<path d="M131.499 89L171.499 150" stroke="#373635" stroke-width="4" stroke-miterlimit="10" stroke-linecap="round" stroke-linejoin="round"/>
<path d="M192.26 188.563C191.041 187.954 197.088 196.785 199.511 200.016C205.294 207.731 207.385 217.774 213.249 225.596C225.131 241.445 237.044 285.026 254.846 293.934" stroke="#373635" stroke-width="4" stroke-miterlimit="10" stroke-linecap="round" stroke-linejoin="round"/>
<path d="M254.5 294C243.212 305.293 217.904 307.779 203.328 312.641C163.399 325.956 118.556 343.216 81 362" stroke="#373635" stroke-width="4" stroke-miterlimit="10" stroke-linecap="round" stroke-linejoin="round"/>
<path d="M172.798 146C164.185 180.459 152.396 217.831 139.215 250.793C137.161 255.932 133 267.5 133 267.5L156.5 275.5C156.5 275.5 163.486 259.96 167.455 250.029C179.797 219.165 188.5 185.5 201.038 154.585" stroke="#373635" stroke-width="4" stroke-miterlimit="10" stroke-linecap="round" stroke-linejoin="round"/>
<path d="M173 146C182.225 141.26 196.207 144.153 201 154" stroke="#373635" stroke-width="4" stroke-miterlimit="10" stroke-linecap="round" stroke-linejoin="round"/>
<path d="M133 267C133 269.978 135.161 292.903 137.207 293.927" stroke="#373635" stroke-width="4" stroke-miterlimit="10" stroke-linecap="round" stroke-linejoin="round"/>
<path d="M137.529 293.282C141.081 291.506 154.001 278.5 156.546 275.226" stroke="#373635" stroke-width="4" stroke-miterlimit="10" stroke-linecap="round" stroke-linejoin="round"/>
<path d="M134.951 283.609C134.951 282.5 141.852 282.261 143.976 286.511" stroke="#373635" stroke-width="4" stroke-miterlimit="10" stroke-linecap="round" stroke-linejoin="round"/>
<path d="M181 144.5C181 144.5 179.038 150.527 177.5 158.5" stroke="#373635" stroke-width="4" stroke-miterlimit="10" stroke-linecap="round" stroke-linejoin="round"/>
<path d="M195.5 150C191.395 158.213 188.5 164 188.5 164C188.5 164 178.577 161.155 177.5 159" stroke="#373635" stroke-width="4" stroke-miterlimit="10" stroke-linecap="round" stroke-linejoin="round"/>
<path d="M221.971 201.066C222.152 200.683 235.701 193.008 233.574 203.646C231.429 214.377 221.638 201.774 221.971 201.066Z" stroke="#373635" stroke-width="4" stroke-miterlimit="10" stroke-linecap="round" stroke-linejoin="round"/>
<path d="M212.785 199.293C210.315 195.176 203.85 190.077 209.401 185.913C211.674 184.207 218.434 183.018 220.682 185.267C222.149 186.735 222.938 191.071 222.938 191.071C222.938 191.071 224.596 186.361 226.483 184.945C229.629 182.585 237.923 181.288 240.664 184.945C245.086 190.842 236.597 192.728 237.442 195.263C237.687 195.999 238.485 195.385 238.731 195.263C244.833 192.211 252.264 198.822 250.656 205.258C248.807 212.657 239.94 206.951 237.12 209.772C234.692 212.2 234 227.5 222 220C219.393 218.371 222.051 212.351 219.393 212.351C215.642 212.351 203.569 216.225 206.499 204.5C207.737 199.546 214.01 201.335 212.785 199.293Z" stroke="#373635" stroke-width="4" stroke-miterlimit="10" stroke-linecap="round" stroke-linejoin="round"/>
<path d="M192.5 189C187.857 181.863 194.774 174.057 201.023 173.015C206.72 172.065 208.241 177.528 211.014 177.528C211.522 177.528 213.956 172.742 214.882 172.047C221.572 167.028 234.212 166.88 240.344 173.015C243.111 175.783 263.914 198.08 263.228 199.455C261.311 203.288 255.501 216 250 218.5" stroke="#373635" stroke-width="4" stroke-miterlimit="10" stroke-linecap="round" stroke-linejoin="round"/>
<path d="M252.5 217C247.673 226.656 263.504 232.918 272.251 230.73C278.212 229.239 285.389 217.225 288 212" stroke="#373635" stroke-width="4" stroke-miterlimit="10" stroke-linecap="round" stroke-linejoin="round"/>
<path d="M208.436 153.669L214.881 171.725" stroke="#373635" stroke-width="4" stroke-miterlimit="10" stroke-linecap="round" stroke-linejoin="round"/>
<path d="M208.113 152.701C236.791 152.701 231.252 131.488 244.855 117.879C259.331 103.398 272.708 86.2466 294.49 80.799C313.13 76.1372 331.099 72.1406 350.248 76.9299C385.312 85.6995 382.5 112 431.791 94.9861C445.53 92.2371 448.537 66.9531 456.286 56.6167C475.562 30.9038 536 12 569.5 25" stroke="#373635" stroke-width="4" stroke-miterlimit="10" stroke-linecap="round" stroke-linejoin="round"/>
<path d="M300.649 101.863C285.036 108.11 273.899 121.828 265.471 135.882C258.063 146.917 269.29 171.69 275.243 176.156C306.352 199.498 387.578 210.399 396.41 157.388C404.971 106.002 339.339 86.3803 300.649 101.863Z" stroke="#373635" stroke-width="4" stroke-miterlimit="10" stroke-linecap="round" stroke-linejoin="round"/>
<path d="M-72.7283 0.768982C-62.1126 51.9222 -28.5772 50.9736 14.3292 50.66C26.1879 50.5732 56.4123 61.3742 55.8003 76.5637C55.615 81.161 45.5816 82.4033 42.2908 83.0868C29.2644 85.7924 11.4448 86.2025 -1.24318 81.7735C-29.8977 71.7712 -65.4451 58.8167 -77.4747 27.7755C-81.0348 18.5891 -80.2812 10.4154 -82.0996 1.65328" stroke="#373635" stroke-width="4" stroke-miterlimit="10" stroke-linecap="round" stroke-linejoin="round"/>
<path d="M53.8359 79.8922C63.2816 77.9303 72.2646 91.9583 73.7515 99.1219" stroke="#373635" stroke-width="4" stroke-miterlimit="10" stroke-linecap="round" stroke-linejoin="round"/>
<path d="M56.8091 75.0268C60.5005 73 66.891 71.2089 68.3448 70.5067C81.5517 64.1298 94.8391 49.437 79.3607 36.6221C60.2134 20.769 36.1022 33.7262 14.5631 33.8837C-1.52333 34.0014 -17.6307 33.1504 -33.6038 33.2672C-46.1001 33.3585 -67.2741 15.1324 -63.7505 1.82507" stroke="#373635" stroke-width="4" stroke-miterlimit="10" stroke-linecap="round" stroke-linejoin="round"/>
<path d="M91.5004 -2.49999C98.5533 -3.96469 103.313 10.4444 103.109 15.4931C102.697 25.725 73.9854 33.7408 73.7246 32.4825" stroke="#373635" stroke-width="4" stroke-miterlimit="10" stroke-linecap="round" stroke-linejoin="round"/>
<path d="M103.5 17.5C117.5 9.99999 145.409 22.3725 154.657 32.4006C165.03 43.6492 153.478 60.7902 141.173 63.346" stroke="#373635" stroke-width="4" stroke-miterlimit="10" stroke-linecap="round" stroke-linejoin="round"/>
<path d="M86.5 53.5C89.2981 54.2413 98.4406 50.2812 102.598 50.1166C111.551 49.7621 129.601 57.289 136.934 62.1023C148.414 69.6376 152.484 90.2036 136.552 93.5127" stroke="#373635" stroke-width="4" stroke-miterlimit="10" stroke-linecap="round" stroke-linejoin="round"/>
<path d="M169.999 146.5C168.112 137.254 180.273 128.879 187.768 129.205C192.047 129.392 199.108 132.178 201.733 135.525C202.324 136.28 205.294 143.113 205.442 143.13C205.815 143.176 206.671 139.92 206.827 139.341C208.863 131.75 231.643 116.255 238.499 125" stroke="#373635" stroke-width="4" stroke-miterlimit="10" stroke-linecap="round" stroke-linejoin="round"/>
<path d="M258.795 99.3198C249.033 86.8677 220.521 94.1204 211.97 103.76C209.634 106.392 208.591 117.867 206.952 118.813C206.703 118.956 202.12 112.116 196.653 109.316C182.952 102.296 159.452 105.906 155 122.5" stroke="#373635" stroke-width="4" stroke-miterlimit="10" stroke-linecap="round" stroke-linejoin="round"/>
<path d="M138 99C133.529 93.2958 164.906 79.8956 170.42 79.8734C191 79.7905 194.636 90.6186 198.432 87.6402C203.473 83.6857 205.733 75.4741 213.034 71.9782C225.445 66.0359 254.674 65.1391 264.303 77.4224" stroke="#373635" stroke-width="4" stroke-miterlimit="10" stroke-linecap="round" stroke-linejoin="round"/>
<path d="M153.74 132.919L-35.0293 197.646" stroke="#373635" stroke-width="4" stroke-miterlimit="10" stroke-linecap="round" stroke-linejoin="round"/>
<path d="M159.368 153.891L-25.207 218.031" stroke="#373635" stroke-width="4" stroke-miterlimit="10" stroke-linecap="round" stroke-linejoin="round"/>
<path d="M158.901 179.346L-11.9219 235.551" stroke="#373635" stroke-width="4" stroke-miterlimit="10" stroke-linecap="round" stroke-linejoin="round"/>
<path d="M153.209 206.946L2.71484 254.414" stroke="#373635" stroke-width="4" stroke-miterlimit="10" stroke-linecap="round" stroke-linejoin="round"/>
<path d="M145.17 230.98L12.168 272.985" stroke="#373635" stroke-width="4" stroke-miterlimit="10" stroke-linecap="round" stroke-linejoin="round"/>
<path d="M137.85 253.247L22.123 287.408" stroke="#373635" stroke-width="4" stroke-miterlimit="10" stroke-linecap="round" stroke-linejoin="round"/>
<path d="M132.5 272.5L31.5703 304.632" stroke="#373635" stroke-width="4" stroke-miterlimit="10" stroke-linecap="round" stroke-linejoin="round"/>
<path d="M134.501 292.5L43.1387 320.344" stroke="#373635" stroke-width="4" stroke-miterlimit="10" stroke-linecap="round" stroke-linejoin="round"/>
<path d="M233.822 280.854C174.356 301.444 118.5 324.5 59 342.5" stroke="#373635" stroke-width="4" stroke-miterlimit="10" stroke-linecap="round" stroke-linejoin="round"/>
<path d="M137.5 292.5C164.218 286.89 195.829 271.619 222.726 266.126" stroke="#373635" stroke-width="4" stroke-miterlimit="10" stroke-linecap="round" stroke-linejoin="round"/>
<path d="M161.124 265.99C157.994 266.494 215 248 215 248" stroke="#373635" stroke-width="4" stroke-miterlimit="10" stroke-linecap="round" stroke-linejoin="round"/>
<path d="M169 246.5C181.493 243.948 195.288 236.39 207.519 233.891" stroke="#373635" stroke-width="4" stroke-miterlimit="10" stroke-linecap="round" stroke-linejoin="round"/>
<path d="M177 225.5L199.369 217.75" stroke="#373635" stroke-width="4" stroke-miterlimit="10" stroke-linecap="round" stroke-linejoin="round"/>
<path d="M184 204.5L191.221 201.61" stroke="#373635" stroke-width="4" stroke-miterlimit="10" stroke-linecap="round" stroke-linejoin="round"/>
<path d="M123 344C121.09 349.057 118.688 355.253 120.859 361" stroke="#373635" stroke-width="4" stroke-miterlimit="10" stroke-linecap="round" stroke-linejoin="round"/>
<path d="M138.999 360.544C128.467 339.469 172.85 321.476 172.85 359.542C172.85 361.481 173.114 355.67 173.114 353.73C173.114 349.314 173.317 346.49 174.963 342.372C177.867 335.108 193.096 330.648 200.047 331.807C208.018 333.136 215.584 338.96 216.945 347.127C217.346 349.539 217.737 352.002 217.737 354.523C217.737 356.03 217.209 360.52 217.209 359.014C217.209 330.742 269.224 330.192 269.224 359.014" stroke="#373635" stroke-width="4" stroke-miterlimit="10" stroke-linecap="round" stroke-linejoin="round"/>
<path d="M608.088 41.6241C620.145 46.391 633.781 32.7327 643.258 43.3101C644.469 44.6622 649.704 53.4398 648.475 54.9059C643.235 61.1534 633.686 60.2156 631.317 70.1425" stroke="#373635" stroke-width="4" stroke-miterlimit="10" stroke-linecap="round" stroke-linejoin="round"/>
<path d="M609 42C584.166 28.7176 558.035 18.3849 531 21.587" stroke="#373635" stroke-width="4" stroke-miterlimit="10" stroke-linecap="round" stroke-linejoin="round"/>
<path d="M631.291 69.8643C630.205 69.9594 634.003 82.7707 634.576 84.9929C637.034 94.5249 638.231 107.339 634.545 116.668C624.494 142.113 597.107 153.344 572.416 159.107C540.195 166.626 511.67 159.184 483.234 145.332C471.59 139.66 462.929 127.775 456.392 117.13C455.709 116.019 455.5 116 453.5 111.5" stroke="#373635" stroke-width="4" stroke-miterlimit="10" stroke-linecap="round" stroke-linejoin="round"/>
<path d="M475.211 81.563C477.59 75.8398 480.253 71.4795 483.599 66.3654C491.61 54.1166 514.006 45.7708 527.766 42.7199C566.31 34.1736 618.597 58.1119 613.677 100.414C609.297 138.059 548.36 152.846 517.897 138.748C504.23 132.424 491.027 120.903 482.07 109.172C476.438 101.792 471.684 90.0482 475.211 81.563Z" stroke="#373635" stroke-width="4" stroke-miterlimit="10" stroke-linecap="round" stroke-linejoin="round"/>
<path d="M582.5 50.5L475.099 84.3796" stroke="#373635" stroke-width="4" stroke-miterlimit="10" stroke-linecap="round" stroke-linejoin="round"/>
<path d="M604.5 69.5C604.5 69.5 529.641 87.8054 509.96 95.3422C501.61 98.5397 488.711 103.93 479.959 104.696" stroke="#373635" stroke-width="4" stroke-miterlimit="10" stroke-linecap="round" stroke-linejoin="round"/>
<path d="M613.5 92.5C602.34 87.8858 592.066 80.5758 581 76" stroke="#373635" stroke-width="4" stroke-miterlimit="10" stroke-linecap="round" stroke-linejoin="round"/>
<path d="M610 110L544 86" stroke="#373635" stroke-width="4" stroke-miterlimit="10" stroke-linecap="round" stroke-linejoin="round"/>
<path d="M636.661 96.022C645.911 99.6788 666.345 105.275 669.52 116.13C675.519 136.636 641.519 122.245 633.93 119.245" stroke="#373635" stroke-width="4" stroke-miterlimit="10" stroke-linecap="round" stroke-linejoin="round"/>
<path d="M633.5 33.5C651.757 28.1553 669.112 22.7837 687.776 30.1628" stroke="#373635" stroke-width="4" stroke-miterlimit="10" stroke-linecap="round" stroke-linejoin="round"/>
<path d="M648.908 53.4664C660.481 46.3534 678.587 43.7163 691.075 48.6536" stroke="#373635" stroke-width="4" stroke-miterlimit="10" stroke-linecap="round" stroke-linejoin="round"/>
<path d="M693.525 63.8551C679.138 65.1147 663.121 63.896 651.567 74.2555C647.019 78.3345 641.857 85.3538 636.838 88.4386" stroke="#373635" stroke-width="4" stroke-miterlimit="10" stroke-linecap="round" stroke-linejoin="round"/>
<path d="M689.269 82.447C680.736 83.1941 669.257 85.5431 662.605 91.5084C660.016 93.8299 657.22 95.1649 655.028 97.778C654.622 98.2622 651.465 101.58 652.769 100.778" stroke="#373635" stroke-width="4" stroke-miterlimit="10" stroke-linecap="round" stroke-linejoin="round"/>
<path d="M691.97 135.747C692.582 135.371 685.282 135.491 683.557 135.642C678.034 136.126 672.364 139.454 668.242 143.149C660.528 150.068 661.286 160.352 655.248 167.551C650.503 173.208 637.987 179.114 636.761 186.828C635.28 196.147 644.293 189.075 647.174 193.765C649.937 198.263 642.578 209.836 644.345 215.875C650.213 235.937 686.497 228.085 675.342 256.327" fill="#FAC278" stroke="#373635" stroke-width="4" stroke-miterlimit="10" stroke-linecap="round" stroke-linejoin="round"/>
<path d="M694.037 265.06C696.437 266.009 689.113 263.461 686.794 262.331C666.312 252.355 624 231.5 624 231.5" stroke="#373635" stroke-width="4" stroke-miterlimit="10" stroke-linecap="round" stroke-linejoin="round"/>
<path d="M624.429 231.634L558.17 262.1" stroke="#373635" stroke-width="4" stroke-miterlimit="10" stroke-linecap="round" stroke-linejoin="round"/>
<path d="M558.245 262.935C552.597 260.718 622.485 299.074 622.485 299.074" stroke="#373635" stroke-width="4" stroke-miterlimit="10" stroke-linecap="round" stroke-linejoin="round"/>
<path d="M689.999 330.968C669.825 338.415 626.105 356.498 626.105 356.498" stroke="#373635" stroke-width="4" stroke-miterlimit="10" stroke-linecap="round" stroke-linejoin="round"/>
<path d="M622.508 299.353C624.193 318.613 623.798 337.052 625.5 356.5" stroke="#373635" stroke-width="4" stroke-miterlimit="10" stroke-linecap="round" stroke-linejoin="round"/>
<path d="M657.339 361.969C648.383 344.104 687.564 339.644 680.032 363Z" fill="#986EA8"/>
<path d="M657.339 361.969C648.383 344.104 687.564 339.644 680.032 363" stroke="#373635" stroke-width="4" stroke-miterlimit="10" stroke-linecap="round" stroke-linejoin="round"/>
<path d="M676 336.5C685.908 335.633 695.519 342.411 696.464 353.228" stroke="#373635" stroke-width="4" stroke-miterlimit="10" stroke-linecap="round" stroke-linejoin="round"/>
<path d="M641.575 351.045C641.575 351.045 637.063 360.159 638.353 362.258" stroke="#373635" stroke-width="4" stroke-miterlimit="10" stroke-linecap="round" stroke-linejoin="round"/>
<path d="M484.5 296L413.5 325.5" stroke="#373635" stroke-width="4" stroke-miterlimit="10" stroke-linecap="round" stroke-linejoin="round"/>
<path d="M484.9 295.703L547.011 326.704" stroke="#373635" stroke-width="4" stroke-miterlimit="10" stroke-linecap="round" stroke-linejoin="round"/>
<path d="M413.262 325.52L476 362" stroke="#373635" stroke-width="4" stroke-miterlimit="10" stroke-linecap="round" stroke-linejoin="round"/>
<path d="M547.762 328.88C548.574 339.296 548.193 349.653 547.127 360.048" stroke="#373635" stroke-width="4" stroke-miterlimit="10" stroke-linecap="round" stroke-linejoin="round"/>
<path d="M487 225C486.5 246.5 484 266.973 484 289" stroke="#373635" stroke-width="4" stroke-miterlimit="10" stroke-linecap="round" stroke-linejoin="round"/>
<path d="M484.064 289.33C505.203 277.548 529.132 271.595 549.767 258.912" stroke="#373635" stroke-width="4" stroke-miterlimit="10" stroke-linecap="round" stroke-linejoin="round"/>
<path d="M552.5 196.5C551.805 214.986 551.5 241 550 258.5" stroke="#373635" stroke-width="4" stroke-miterlimit="10" stroke-linecap="round" stroke-linejoin="round"/>
<path d="M551.822 195.946C548.791 191.012 517.484 179.699 510.017 176.061C505.78 173.998 501.306 171.678 496.872 169.924C495.334 169.316 490.705 167.218 491.043 167.352" stroke="#373635" stroke-width="4" stroke-miterlimit="10" stroke-linecap="round" stroke-linejoin="round"/>
<path d="M486.53 224.647L421.834 196.115" stroke="#373635" stroke-width="4" stroke-miterlimit="10" stroke-linecap="round" stroke-linejoin="round"/>
<path d="M490.354 167.336L422.59 196.218" stroke="#373635" stroke-width="4" stroke-miterlimit="10" stroke-linecap="round" stroke-linejoin="round"/>
<path d="M262.5 197.5C281.5 210.5 323.5 233 382.615 214.494C431.887 182.715 399.473 156.845 423.96 120.522C426.701 116.456 450 102.5 453.668 112.213" stroke="#373635" stroke-width="4" stroke-miterlimit="10" stroke-linecap="round" stroke-linejoin="round"/>
<path d="M444.365 124.133C450.574 124.165 461.559 147.569 458.026 152.811C450.186 164.442 422.189 124.015 444.365 124.133Z" fill="#F58EA3" stroke="#373635" stroke-width="4" stroke-miterlimit="10" stroke-linecap="round" stroke-linejoin="round"/>
<path d="M402.384 43.3446C410.602 45.6334 420.434 68.6719 418.939 76.5146C414.678 98.876 382.012 37.6714 402.384 43.3446Z" fill="#F58EA3" stroke="#373635" stroke-width="4" stroke-miterlimit="10" stroke-linecap="round" stroke-linejoin="round"/>
<path d="M382.861 93.6448C378.018 87.3484 373.976 79.1354 372.473 71.4051C370.984 63.7457 367.746 54.3912 369.198 46.7702C372.781 27.9707 402.48 19.6721 417.162 25.8106C433.698 32.7243 450.222 63.531 445.5 80.5" stroke="#373635" stroke-width="4" stroke-miterlimit="10" stroke-linecap="round" stroke-linejoin="round"/>
<path d="M357.5 79C308.647 15.4766 442.359 -34.2876 459.141 52.0112" stroke="#373635" stroke-width="4" stroke-miterlimit="10" stroke-linecap="round" stroke-linejoin="round"/>
<path d="M330.444 73.5192C328.783 64.9798 323.427 57.476 323.477 48.0865C323.595 25.6613 341.72 -3.48095 365.596 -8.1275" stroke="#373635" stroke-width="4" stroke-miterlimit="10" stroke-linecap="round" stroke-linejoin="round"/>
<path d="M443.301 -6.06456C441.73 -8.10699 446.671 -3.88968 447.371 -3.31866C450.751 -0.562133 453.695 3.08445 456.365 6.55624C463.56 15.9124 473.5 30.5 475 40" stroke="#373635" stroke-width="4" stroke-miterlimit="10" stroke-linecap="round" stroke-linejoin="round"/>
<path d="M471.388 -1.92737C469.365 5.35801 487.277 22.6434 489 31.5" stroke="#373635" stroke-width="4" stroke-miterlimit="10" stroke-linecap="round" stroke-linejoin="round"/>
<path d="M488.024 -2C495.5 -0.5 503.084 21.3418 504 26" stroke="#373635" stroke-width="4" stroke-miterlimit="10" stroke-linecap="round" stroke-linejoin="round"/>
<path d="M310.5 76.5C301 58 304.536 0.991065 328.921 -3.75476" stroke="#373635" stroke-width="4" stroke-miterlimit="10" stroke-linecap="round" stroke-linejoin="round"/>
<path d="M284.682 82.425C277.881 47.4448 270.033 43.2898 292.357 10.1693C294.969 6.29536 299.988 -1.42463 305.068 -2.41315" stroke="#373635" stroke-width="4" stroke-miterlimit="10" stroke-linecap="round" stroke-linejoin="round"/>
<path d="M259 72C263.874 75.6743 271.45 87.0837 276 88.5" stroke="#373635" stroke-width="4" stroke-miterlimit="10" stroke-linecap="round" stroke-linejoin="round"/>
<path d="M259 72C263.239 52.9264 276.03 10.9476 280 -1.5" stroke="#373635" stroke-width="4" stroke-miterlimit="10" stroke-linecap="round" stroke-linejoin="round"/>
<path d="M241.5 67.5C240.32 65.9657 253.25 6.87304 255.163 0" stroke="#373635" stroke-width="4" stroke-miterlimit="10" stroke-linecap="round" stroke-linejoin="round"/>
<path d="M222 68.5C222.982 48.6514 231.64 15 231.64 -3.28595" stroke="#373635" stroke-width="4" stroke-miterlimit="10" stroke-linecap="round" stroke-linejoin="round"/>
<path d="M198 87C203.5 59.5 211.18 24.4827 217.5 -2" stroke="#373635" stroke-width="4" stroke-miterlimit="10" stroke-linecap="round" stroke-linejoin="round"/>
<path d="M194.277 -0.563477C190.001 23 183.501 58 180.18 79" stroke="#373635" stroke-width="4" stroke-miterlimit="10" stroke-linecap="round" stroke-linejoin="round"/>
<path d="M164.574 80.5282C167.435 58.5661 171.861 36.4875 175.521 14.7117C176.651 7.99228 180.821 -2.2045 179.536 -8.81445" stroke="#373635" stroke-width="4" stroke-miterlimit="10" stroke-linecap="round" stroke-linejoin="round"/>
<path d="M149.49 26.3484C148.02 18.7878 153.325 5.12428 155.478 -2.61633" stroke="#373635" stroke-width="4" stroke-miterlimit="10" stroke-linecap="round" stroke-linejoin="round"/>
<path d="M123.188 15.7986C125.514 7.4389 127.604 -0.90077 129.934 -9.27002" stroke="#373635" stroke-width="4" stroke-miterlimit="10" stroke-linecap="round" stroke-linejoin="round"/>
<path d="M523.717 -2C515.972 6.64862 519.33 15.4878 520.5 21.5" stroke="#373635" stroke-width="4" stroke-miterlimit="10" stroke-linecap="round" stroke-linejoin="round"/>
<path d="M547.5 21C545 19 543.928 14.9119 544.015 13.2632C544.293 8.00645 549.161 -2.9017 554.805 -4" stroke="#373635" stroke-width="4" stroke-miterlimit="10" stroke-linecap="round" stroke-linejoin="round"/>
<path d="M598.349 19.612C595.858 19.3053 590.82 17.7939 591.621 13.5925C592.682 8.01989 598.743 7.10083 603.033 7.32786C614.771 7.94902 610.434 21.1 598.349 19.612Z" fill="#89E2CD" stroke="#373635" stroke-width="4" stroke-miterlimit="10" stroke-linecap="round" stroke-linejoin="round"/>
<path d="M576.543 13.9996C577.294 -0.200992 598.202 -10.1401 611.471 -6.4448C615.367 -5.35981 620.634 0.511114 622.115 4.1199C626.808 15.5579 622.154 21.3439 611.109 25.4686C601.23 29.1577 575.754 28.9369 576.543 13.9996Z" stroke="#373635" stroke-width="4" stroke-miterlimit="10" stroke-linecap="round" stroke-linejoin="round"/>
<path d="M567.599 -4C558.542 2.67427 561.807 16.2912 568 24" stroke="#373635" stroke-width="4" stroke-miterlimit="10" stroke-linecap="round" stroke-linejoin="round"/>
<path d="M611 42.5C647.5 37.5 642.86 9.47112 640.816 -1.03607" stroke="#373635" stroke-width="4" stroke-miterlimit="10" stroke-linecap="round" stroke-linejoin="round"/>
<path d="M653 28C659.472 20.6293 656.44 8.42618 655.201 -1" stroke="#373635" stroke-width="4" stroke-miterlimit="10" stroke-linecap="round" stroke-linejoin="round"/>
<path d="M670 25.4875C676.523 15.8093 673.003 9.75375 671.107 0" stroke="#373635" stroke-width="4" stroke-miterlimit="10" stroke-linecap="round" stroke-linejoin="round"/>
<path d="M630.499 234C621.426 222.202 624.748 216.3 625.444 203.122C625.836 195.708 612.677 196.258 612.962 190.893C613.489 180.911 633.614 164.049 640.18 156.786C647.222 148.995 654.732 128.596 665.5 126.5" stroke="#373635" stroke-width="4" stroke-miterlimit="10" stroke-linecap="round" stroke-linejoin="round"/>
<path d="M671 121C678.815 115.971 685.083 112.978 694 111" stroke="#373635" stroke-width="4" stroke-miterlimit="10" stroke-linecap="round" stroke-linejoin="round"/>
<path d="M645 124C623.5 160.5 585.409 177.873 585.309 196.781C585.268 204.456 596.744 204.77 596.696 213.771C596.649 222.959 592.227 233.908 602 240.5" stroke="#373635" stroke-width="4" stroke-miterlimit="10" stroke-linecap="round" stroke-linejoin="round"/>
<path d="M580 251C561.803 245.932 573.881 224.268 573.938 213.652C573.982 205.166 556.648 199.67 558.682 192.359C562.597 178.29 588.724 163.78 597 151.5" stroke="#373635" stroke-width="4" stroke-miterlimit="10" stroke-linecap="round" stroke-linejoin="round"/>
<path d="M563 161C551.717 162.734 542.259 181.828 544.272 190" stroke="#373635" stroke-width="4" stroke-miterlimit="10" stroke-linecap="round" stroke-linejoin="round"/>
<path d="M420 127.5C408.568 174.86 492 193.5 469.208 134.967" stroke="#373635" stroke-width="4" stroke-miterlimit="10" stroke-linecap="round" stroke-linejoin="round"/>
<path d="M506.941 173.113C508.271 168.333 510.863 163.985 512.268 158.935" stroke="#373635" stroke-width="4" stroke-miterlimit="10" stroke-linecap="round" stroke-linejoin="round"/>
<path d="M522.5 181L531.998 161.665" stroke="#373635" stroke-width="4" stroke-miterlimit="10" stroke-linecap="round" stroke-linejoin="round"/>
<path d="M368.425 106.624L272.522 134.253L266.148 136.075" stroke="#373635" stroke-width="4" stroke-miterlimit="10" stroke-linecap="round" stroke-linejoin="round"/>
<path d="M388.455 122.716L265 155" stroke="#373635" stroke-width="4" stroke-miterlimit="10" stroke-linecap="round" stroke-linejoin="round"/>
<path d="M293.499 147.5L279.805 177.366" stroke="#373635" stroke-width="4" stroke-miterlimit="10" stroke-linecap="round" stroke-linejoin="round"/>
<path d="M326.5 139.5L302.264 187.689" stroke="#373635" stroke-width="4" stroke-miterlimit="10" stroke-linecap="round" stroke-linejoin="round"/>
<path d="M250.999 218C234.658 226.174 241.603 232.017 218.803 232.017" stroke="#373635" stroke-width="4" stroke-miterlimit="10" stroke-linecap="round" stroke-linejoin="round"/>
<path d="M412.5 362C366.5 341.5 367.102 251.09 325.935 230.498C295.111 215.08 261.131 240.475 259 275C256.5 315.5 325.935 354.5 334 367" stroke="#373635" stroke-width="4" stroke-miterlimit="10" stroke-linecap="round" stroke-linejoin="round"/>
<path d="M442.477 360.141C405.323 341.557 380.75 310.682 384.51 267.539C388 227.5 350.5 221 350.5 221" stroke="#373635" stroke-width="4" stroke-miterlimit="10" stroke-linecap="round" stroke-linejoin="round"/>
<path d="M257.5 230C253.653 233.471 250 237 246.308 240.804C241.354 244.769 230.279 259.556 233.5 266" stroke="#373635" stroke-width="4" stroke-miterlimit="10" stroke-linecap="round" stroke-linejoin="round"/>
<path d="M247.5 299.5C260.662 328.457 289.481 340.674 310.762 361.963C314.347 365.55 321.865 365.178 325.633 368.946" stroke="#373635" stroke-width="4" stroke-miterlimit="10" stroke-linecap="round" stroke-linejoin="round"/>
<path d="M227 306.5C223.318 313.868 239.693 334.46 245.512 337.371" stroke="#373635" stroke-width="4" stroke-miterlimit="10" stroke-linecap="round" stroke-linejoin="round"/>
<path d="M229.729 322.797C227 326 222.13 330.679 219.411 327.958C211.187 319.732 202.018 317 190 317" stroke="#373635" stroke-width="4" stroke-miterlimit="10" stroke-linecap="round" stroke-linejoin="round"/>
<path d="M382.5 214.5C391.377 212.28 406.137 216.016 407.879 224.73C408.712 228.896 406.201 232.939 403.933 235.964C403.672 236.312 399.684 239.913 399.684 239.304C399.684 236.851 411.527 236.311 413.342 236.57C422.719 237.911 433.918 248.047 435.497 257.52C436.908 265.994 433.602 273.702 425.481 276.951C421.139 278.689 416.29 280.479 411.521 279.684C410.601 279.53 408.79 279.077 408.79 279.077C408.79 279.077 410.807 279.515 411.824 279.684C417.274 280.592 421.47 282.518 425.785 285.756C435.114 292.756 434.488 309.521 430 318.5" stroke="#373635" stroke-width="4" stroke-miterlimit="10" stroke-linecap="round" stroke-linejoin="round"/>
<path d="M466 303C470.299 294.398 468.698 276.623 460.383 269.968C458.805 268.706 451.489 267.05 450.974 266.021C449.457 262.987 458.288 265.384 460.687 262.985C466.423 257.247 471.971 252.94 470.095 243.554C467.815 232.153 454.669 225.025 443.691 226.855C439.54 227.547 435.437 235.6 432.461 232.624C430.854 231.016 435.658 229.086 436.103 226.855C436.801 223.37 436.332 218.055 435.497 214.71C432.022 200.807 414.063 198.784 402.5 198.63" stroke="#373635" stroke-width="4" stroke-miterlimit="10" stroke-linecap="round" stroke-linejoin="round"/>
<path d="M564.5 268L494.5 300M581.5 277L514.5 309M604 289L536 321M621.5 300L547.5 328M623 326L549 345M623 349.5L547.5 358.5" stroke="#373635" stroke-width="4" stroke-miterlimit="10" stroke-linecap="round" stroke-linejoin="round"/>
</g>
</svg>
