<svg width="56" height="56" viewBox="0 0 56 56" fill="none" xmlns="http://www.w3.org/2000/svg">
<g id="Group 32">
<path id="Rectangle" d="M48.9496 0H7.05036C3.15655 0 0 3.15655 0 7.05036V48.9496C0 52.8434 3.15655 56 7.05036 56H48.9496C52.8434 56 56 52.8434 56 48.9496V7.05036C56 3.15655 52.8434 0 48.9496 0Z" fill="#3396CD"/>
<path id="Vector" d="M40.4254 14C41.5123 15.764 42 17.5829 42 19.88C42 27.2059 35.6478 36.7199 30.4921 43.4H18.7199L14 15.605L24.3113 14.641L26.8181 34.4181C29.1486 30.6761 32.0305 24.7961 32.0305 20.79C32.0305 18.5951 31.6486 17.1029 31.0513 15.8739L40.4254 14Z" fill="white"/>
</g>
</svg>
