<svg width="312" height="177" viewBox="0 0 312 177" fill="none" xmlns="http://www.w3.org/2000/svg">
<path d="M35.7381 92.8389C20.7387 81.2484 5.90966 88.0095 0.370087 92.8389C11.6197 89.089 21.5341 92.4127 25.0851 94.5433C27.0737 97.1 31.0508 105.196 31.0508 117.128C31.0508 132.042 28.6773 131.165 27.2157 132.042C25.0851 133.32 16.1366 135.451 10.597 136.303C8.32434 136.303 4.54607 136.814 7.61414 138.86C11.4492 141.417 37.4426 135.877 43.4083 136.303C48.1808 136.644 52.7829 140.706 54.4874 142.695C54.6295 143.831 54.317 146.189 51.9307 146.53C49.5444 146.871 50.9364 151.501 51.9307 153.774H57.0441L61.7315 155.479C63.578 155.905 70.5948 156.501 83.8898 155.479C97.1847 154.456 103.917 157.325 105.622 158.888C110.025 162.581 120.11 170.819 125.223 174.228C130.337 177.637 165.421 175.648 182.324 174.228C193.687 173.234 218.8 170.989 228.345 169.967C237.89 168.944 265.843 162.154 278.627 158.888C284.024 156.331 294.82 148.575 294.82 138.008C294.82 127.44 298.797 121.389 300.785 119.684C304.194 117.98 311.097 113.037 311.438 106.901C311.864 99.2306 306.325 97.9523 300.785 93.6911C295.246 89.4298 255.19 91.5605 252.634 90.7082C250.077 89.8561 245.391 87.7262 240.705 85.5961L240.702 85.5948C236.015 83.4643 218.544 87.7254 209.169 85.5948C199.795 83.4643 198.516 62.5843 194.255 62.1582C189.994 61.7321 154.626 61.3059 147.382 65.141C141.587 68.2091 141.558 80.0552 142.268 85.5948C143.263 89.714 142.78 98.8046 132.894 102.214C123.008 105.622 81.333 107.043 61.7315 107.327C59.3168 107.327 50.7376 104.429 35.7381 92.8389Z" fill="#FFD23E"/>
<path d="M46.1128 152.496C45.6867 152.496 44.4083 150.109 46.1128 149.087C46.1128 149.087 46.6539 149.031 47.3912 148.98C46.3685 145.826 46.5389 143.121 46.965 141.417C47.3912 140.21 47.8173 138.434 49.5218 140.138C51.2262 141.843 49.9479 146.69 49.0956 148.901C49.9937 148.885 50.8426 148.922 51.2262 149.087L52.0785 152.496L49.0956 152.496C50.4592 155.223 50.2319 159.882 49.9479 161.018C49.6638 161.87 48.7547 163.149 47.3912 161.444C46.0276 159.74 46.823 154.2 47.3912 152.496L46.1128 152.496Z" fill="#FFD23E"/>
<path d="M19.1194 94.5433C16.8932 93.9867 5.48354 93.2649 0.370097 95.3956C-0.0560021 96.2478 -0.186199 96.8649 0.370073 97.5261C3.39495 101.122 5.89726 105.846 5.05742 108.605C3.49498 109.173 -0.737822 109.884 1.64845 111.588C4.03473 113.293 5.48354 117.696 5.05742 119.685C2.92681 120.537 -0.737823 120.792 3.35294 123.52C7.4437 126.247 6.19374 130.906 5.05742 132.894H16.9888C20.1137 132.894 26.3635 131.957 26.3635 128.207C26.3635 123.52 25.5112 108.179 24.659 101.361C23.8067 94.5434 20.8239 94.9694 19.1194 94.5433Z" fill="#FFD23E"/>
<path d="M158.035 56.488C151.217 57.1698 148.376 63.3059 147.808 66.2887L151.217 65.0104V62.4537L154.2 62.0275V65.0104L158.035 64.5843V60.7492L161.87 59.4708V64.5843L165.705 64.1581L166.131 59.4708L170.392 58.6186V63.3059H174.227V59.0447L177.636 58.6186V63.3059H180.619V58.1924L184.028 57.7663V63.3059H187.863C187.579 61.8855 187.437 58.8742 189.142 58.1924C190.846 57.5107 189.852 55.3516 189.142 54.3574C181.613 54.7835 164.853 55.8062 158.035 56.488Z" fill="#FFD23E"/>
<path d="M158.887 57.0618C159.171 53.5108 158.461 45.8122 153.347 43.4259C152.364 42.9669 151.554 42.5426 150.887 42.1476C148.086 40.4886 147.808 39.345 147.808 38.3125C147.808 36.0108 148.319 34.2217 152.069 33.199C152.373 33.1161 152.657 33.0662 152.921 33.0457C153.849 32.9739 155.394 33.1331 155.904 33.6252C157.358 33.8701 159.031 34.9952 161.018 37.1986C162.122 35.4393 162.986 31.1537 157.609 28.0856C157.315 27.9182 155.753 26.9716 155.478 26.8073C152.652 25.1181 152.068 24.3627 150.887 22.7867C149.55 21.0036 149.086 19.1698 149.086 17.0064C149.086 12.7452 154.626 10.6146 156.756 10.6146C157.297 10.6146 158.031 10.5322 158.887 10.4929C160.236 10.431 161.89 10.4764 163.574 11.1207C165.03 11.6774 166.509 12.6814 167.836 14.4497C167.267 11.1828 166.131 5.50122 167.836 2.94453C168.892 1.36045 172.654 -0.27952 176.784 0.0402387C177.883 0.125337 179.029 0.366084 180.193 0.813923C184.309 2.39698 183.352 7.57917 182.171 10.4929C182.081 10.7164 181.989 10.9265 181.898 11.1207L179.98 13.4244L178.062 15.728C177.778 17.3523 177.381 20.8195 178.062 21.6938C177.773 21.6938 177.489 21.7269 177.21 21.7886C178.036 21.6822 179.072 21.6063 180.193 21.6039C183.894 21.5961 188.521 22.3893 189.568 25.5289C190.958 29.6996 190.931 34.4374 189.024 37.1986C188.593 37.8227 188.066 38.3458 187.437 38.7386C184.051 40.8551 184.028 51.5223 184.88 55.3574L172.523 55.7835L164.909 56.674L158.887 57.0618Z" fill="#FFD23E"/>
</svg>
