<svg width="508" height="504" viewBox="0 0 508 504" fill="none" xmlns="http://www.w3.org/2000/svg">
<g clip-path="url(#clip0_865_919015)">
<rect width="508" height="504" rx="16" fill="white"/>
<path d="M23.3167 36V23.7735H26.9761L29.8318 31.383L32.6533 23.7735H36.2443V36H33.4912V27.4158L30.1054 36H29.1991L25.7962 27.4158V36H23.3167ZM41.5834 36.1881C39.8392 36.1881 38.5396 35.1621 38.5396 32.8194V27.0567H41.002V32.4774C41.002 33.6915 41.4979 34.2729 42.5581 34.2729C43.6012 34.2729 44.422 33.6231 44.422 32.3064V27.0567H46.8844V36H44.422V34.5978C43.9603 35.5041 43.054 36.1881 41.5834 36.1881ZM49.1468 36V23.004H51.6092V36H49.1468ZM57.1372 36.171C55.2562 36.171 54.2473 35.2134 54.2473 33.3495V28.818H53.1016V27.0567H54.2473V25.1244H56.7097V27.0567H58.5907V28.818H56.7097V33.1272C56.7097 33.8454 57.0688 34.1874 57.7015 34.1874C58.0777 34.1874 58.3513 34.1361 58.642 34.0164V35.9316C58.3 36.0513 57.8041 36.171 57.1372 36.171ZM61.5995 25.8426C60.8129 25.8426 60.1973 25.2612 60.1973 24.4917C60.1973 23.7222 60.8129 23.1408 61.5995 23.1408C62.4032 23.1408 63.0188 23.7222 63.0188 24.4917C63.0188 25.2612 62.4032 25.8426 61.5995 25.8426ZM60.3854 36V27.0567H62.8478V36H60.3854ZM74.6456 36.1881C70.6442 36.1881 68.5067 33.7257 68.5067 29.9637V29.8269C68.5067 26.1162 71.1059 23.5854 74.5772 23.5854C77.5184 23.5854 79.7072 25.0218 79.9979 28.0314H77.1593C76.9541 26.5608 76.1333 25.7742 74.5943 25.7742C72.662 25.7742 71.4308 27.279 71.4308 29.8098V29.9466C71.4308 32.4774 72.5936 33.948 74.6114 33.948C76.1333 33.948 77.1935 33.1785 77.4158 31.6053H80.1347C79.8269 34.632 77.6552 36.1881 74.6456 36.1881ZM85.8974 36.1881C83.2298 36.1881 81.1949 34.4097 81.1949 31.6224V31.4856C81.1949 28.6812 83.2298 26.8515 85.9145 26.8515C88.5992 26.8515 90.617 28.647 90.617 31.4343V31.5711C90.617 34.3926 88.5821 36.1881 85.8974 36.1881ZM85.9145 34.3071C87.2996 34.3071 88.1033 33.2811 88.1033 31.5882V31.4685C88.1033 29.7585 87.2996 28.7325 85.9145 28.7325C84.5465 28.7325 83.7257 29.7243 83.7257 31.4343V31.5711C83.7257 33.2811 84.5123 34.3071 85.9145 34.3071ZM92.3477 36V23.004H94.8101V36H92.3477ZM101.227 36.1881C98.5596 36.1881 96.5247 34.4097 96.5247 31.6224V31.4856C96.5247 28.6812 98.5596 26.8515 101.244 26.8515C103.929 26.8515 105.947 28.647 105.947 31.4343V31.5711C105.947 34.3926 103.912 36.1881 101.227 36.1881ZM101.244 34.3071C102.629 34.3071 103.433 33.2811 103.433 31.5882V31.4685C103.433 29.7585 102.629 28.7325 101.244 28.7325C99.8763 28.7325 99.0555 29.7243 99.0555 31.4343V31.5711C99.0555 33.2811 99.8421 34.3071 101.244 34.3071ZM107.609 36V27.0567H110.089V28.7667C110.653 27.5697 111.525 26.937 112.979 26.9199V29.2284C111.149 29.2113 110.089 29.8098 110.089 31.5198V36H107.609ZM118.619 36V23.7735H122.621C126.913 23.7735 129.033 26.0991 129.033 29.7585V29.8953C129.033 33.5547 126.896 36 122.603 36H118.619ZM121.389 33.8454H122.518C124.98 33.8454 126.143 32.4603 126.143 29.9295V29.7927C126.143 27.279 125.066 25.9281 122.484 25.9281H121.389V33.8454ZM133.182 36.1881C131.558 36.1881 130.19 35.4015 130.19 33.5205C130.19 31.4343 132.105 30.6477 134.841 30.6477H135.85V30.2886C135.85 29.2284 135.525 28.647 134.396 28.647C133.421 28.647 132.977 29.1429 132.874 29.9124H130.532C130.685 27.792 132.361 26.8515 134.55 26.8515C136.739 26.8515 138.295 27.7407 138.295 30.1689V36H135.884V34.9227C135.371 35.6409 134.584 36.1881 133.182 36.1881ZM133.917 34.461C135.012 34.461 135.85 33.8625 135.85 32.8707V32.1183H134.892C133.456 32.1183 132.618 32.4261 132.618 33.3837C132.618 34.0335 133.011 34.461 133.917 34.461ZM143.656 36.171C141.775 36.171 140.766 35.2134 140.766 33.3495V28.818H139.62V27.0567H140.766V25.1244H143.228V27.0567H145.109V28.818H143.228V33.1272C143.228 33.8454 143.587 34.1874 144.22 34.1874C144.596 34.1874 144.87 34.1361 145.161 34.0164V35.9316C144.819 36.0513 144.323 36.171 143.656 36.171ZM149.297 36.1881C147.672 36.1881 146.304 35.4015 146.304 33.5205C146.304 31.4343 148.22 30.6477 150.956 30.6477H151.964V30.2886C151.964 29.2284 151.64 28.647 150.511 28.647C149.536 28.647 149.092 29.1429 148.989 29.9124H146.646C146.8 27.792 148.476 26.8515 150.665 26.8515C152.854 26.8515 154.41 27.7407 154.41 30.1689V36H151.999V34.9227C151.486 35.6409 150.699 36.1881 149.297 36.1881ZM150.032 34.461C151.127 34.461 151.964 33.8625 151.964 32.8707V32.1183H151.007C149.57 32.1183 148.733 32.4261 148.733 33.3837C148.733 34.0335 149.126 34.461 150.032 34.461Z" fill="black"/>
<path d="M30.9282 71.6547C29.1762 71.6547 28.0322 70.3987 28.0322 68.7507V68.6867C28.0322 67.0147 29.2322 65.7747 30.9282 65.7747C32.6322 65.7747 33.8082 66.9827 33.8082 68.6627V68.7267C33.8082 70.3987 32.6642 71.6547 30.9282 71.6547ZM30.9442 70.7987C32.0242 70.7987 32.7042 69.9747 32.7042 68.7347V68.6707C32.7042 67.4947 32.0482 66.6227 30.9282 66.6227C29.8082 66.6227 29.1442 67.4467 29.1442 68.6787V68.7427C29.1442 69.9907 29.9042 70.7987 30.9442 70.7987ZM34.7558 71.5747V67.3907H35.7238V68.0547C35.9238 67.6467 36.3878 67.3027 37.0758 67.3027C37.9158 67.3027 38.5078 67.7907 38.5078 68.9427V71.5747H37.5398V69.0307C37.5398 68.3987 37.2838 68.1107 36.7078 68.1107C36.1638 68.1107 35.7238 68.4467 35.7238 69.1107V71.5747H34.7558ZM41.463 71.6547C40.231 71.6547 39.343 70.8467 39.343 69.5267V69.4627C39.343 68.1667 40.231 67.3027 41.423 67.3027C42.463 67.3027 43.399 67.9187 43.399 69.4147V69.6947H40.335C40.367 70.4867 40.767 70.9347 41.487 70.9347C42.071 70.9347 42.375 70.7027 42.447 70.2947H43.383C43.247 71.1747 42.535 71.6547 41.463 71.6547ZM40.351 69.0467H42.439C42.391 68.3267 42.023 68.0067 41.423 68.0067C40.839 68.0067 40.447 68.3987 40.351 69.0467ZM46.2499 71.5747V65.8547H47.9859C49.9779 65.8547 50.9459 66.9907 50.9459 68.6547V68.7267C50.9459 70.3907 49.9779 71.5747 47.9699 71.5747H46.2499ZM47.3139 70.7347H47.9379C49.2179 70.7347 49.8339 69.9987 49.8339 68.7347V68.6707C49.8339 67.4387 49.2739 66.6947 47.9299 66.6947H47.3139V70.7347ZM52.969 71.6547C52.201 71.6547 51.569 71.2867 51.569 70.4147C51.569 69.4387 52.513 69.0867 53.713 69.0867H54.233V68.8707C54.233 68.3107 54.041 68.0307 53.473 68.0307C52.969 68.0307 52.721 68.2707 52.673 68.6867H51.737C51.817 67.7107 52.593 67.3027 53.529 67.3027C54.465 67.3027 55.201 67.6867 55.201 68.8307V71.5747H54.249V71.0627C53.977 71.4227 53.609 71.6547 52.969 71.6547ZM53.201 70.9587C53.793 70.9587 54.233 70.6467 54.233 70.1107V69.6947H53.737C53.001 69.6947 52.529 69.8627 52.529 70.3747C52.529 70.7267 52.721 70.9587 53.201 70.9587ZM57.7267 71.6467C56.8947 71.6467 56.4627 71.1987 56.4627 70.4067V68.1187H55.9027V67.3907H56.4627V66.4707H57.4307V67.3907H58.3507V68.1187H57.4307V70.3187C57.4307 70.6867 57.6067 70.8547 57.9107 70.8547C58.1027 70.8547 58.2467 70.8307 58.3827 70.7747V71.5427C58.2307 71.5987 58.0227 71.6467 57.7267 71.6467ZM60.3831 71.6547C59.6151 71.6547 58.9831 71.2867 58.9831 70.4147C58.9831 69.4387 59.9271 69.0867 61.1271 69.0867H61.6471V68.8707C61.6471 68.3107 61.4551 68.0307 60.8871 68.0307C60.3831 68.0307 60.1351 68.2707 60.0871 68.6867H59.1511C59.2311 67.7107 60.0071 67.3027 60.9431 67.3027C61.8791 67.3027 62.6151 67.6867 62.6151 68.8307V71.5747H61.6631V71.0627C61.3911 71.4227 61.0231 71.6547 60.3831 71.6547ZM60.6151 70.9587C61.2071 70.9587 61.6471 70.6467 61.6471 70.1107V69.6947H61.1511C60.4151 69.6947 59.9431 69.8627 59.9431 70.3747C59.9431 70.7267 60.1351 70.9587 60.6151 70.9587ZM65.7108 71.5747V65.8547H67.5508C68.8308 65.8547 69.6708 66.4227 69.6708 67.6227V67.6547C69.6708 68.8627 68.7988 69.3987 67.5748 69.3987H66.7748V71.5747H65.7108ZM66.7748 68.6307H67.5508C68.2548 68.6307 68.6308 68.2867 68.6308 67.6547V67.6227C68.6308 66.9427 68.2308 66.6787 67.5508 66.6787H66.7748V68.6307ZM72.2448 71.6547C71.0128 71.6547 70.1008 70.7987 70.1008 69.5267V69.4627C70.1008 68.1667 71.0208 67.3027 72.2528 67.3027C73.4768 67.3027 74.3968 68.1587 74.3968 69.4387V69.5027C74.3968 70.8067 73.4768 71.6547 72.2448 71.6547ZM72.2528 70.9027C72.9728 70.9027 73.4048 70.3667 73.4048 69.5107V69.4547C73.4048 68.5907 72.9728 68.0627 72.2528 68.0627C71.5328 68.0627 71.0928 68.5827 71.0928 69.4467V69.5107C71.0928 70.3667 71.5168 70.9027 72.2528 70.9027ZM75.7674 66.7027C75.4474 66.7027 75.1914 66.4627 75.1914 66.1507C75.1914 65.8307 75.4474 65.5907 75.7674 65.5907C76.0874 65.5907 76.3434 65.8307 76.3434 66.1507C76.3434 66.4627 76.0874 66.7027 75.7674 66.7027ZM75.2954 71.5747V67.3907H76.2634V71.5747H75.2954ZM77.4433 71.5747V67.3907H78.4113V68.0547C78.6113 67.6467 79.0753 67.3027 79.7633 67.3027C80.6033 67.3027 81.1953 67.7907 81.1953 68.9427V71.5747H80.2273V69.0307C80.2273 68.3987 79.9713 68.1107 79.3953 68.1107C78.8513 68.1107 78.4113 68.4467 78.4113 69.1107V71.5747H77.4433ZM83.7345 71.6467C82.9025 71.6467 82.4705 71.1987 82.4705 70.4067V68.1187H81.9105V67.3907H82.4705V66.4707H83.4385V67.3907H84.3585V68.1187H83.4385V70.3187C83.4385 70.6867 83.6145 70.8547 83.9185 70.8547C84.1105 70.8547 84.2545 70.8307 84.3905 70.7747V71.5427C84.2385 71.5987 84.0305 71.6467 83.7345 71.6467Z" fill="black"/>
<path d="M26.0365 106.896V102.016H24.4445V101.176H28.7005V102.016H27.1085V106.896H26.0365ZM29.989 106.896L28.709 102.712H29.741L30.573 105.736L31.461 102.712H32.269L33.085 105.736L33.957 102.712H34.901L33.589 106.896H32.605L31.829 104.08L30.981 106.896H29.989ZM37.3874 106.976C36.1554 106.976 35.2434 106.12 35.2434 104.848V104.784C35.2434 103.488 36.1634 102.624 37.3954 102.624C38.6194 102.624 39.5394 103.48 39.5394 104.76V104.824C39.5394 106.128 38.6194 106.976 37.3874 106.976ZM37.3954 106.224C38.1154 106.224 38.5474 105.688 38.5474 104.832V104.776C38.5474 103.912 38.1154 103.384 37.3954 103.384C36.6754 103.384 36.2354 103.904 36.2354 104.768V104.832C36.2354 105.688 36.6594 106.224 37.3954 106.224ZM42.4003 106.896V101.176H44.1363C46.1283 101.176 47.0963 102.312 47.0963 103.976V104.048C47.0963 105.712 46.1283 106.896 44.1203 106.896H42.4003ZM43.4643 106.056H44.0883C45.3683 106.056 45.9843 105.32 45.9843 104.056V103.992C45.9843 102.76 45.4243 102.016 44.0803 102.016H43.4643V106.056ZM49.1194 106.976C48.3514 106.976 47.7194 106.608 47.7194 105.736C47.7194 104.76 48.6634 104.408 49.8634 104.408H50.3834V104.192C50.3834 103.632 50.1914 103.352 49.6234 103.352C49.1194 103.352 48.8714 103.592 48.8234 104.008H47.8874C47.9674 103.032 48.7434 102.624 49.6794 102.624C50.6154 102.624 51.3514 103.008 51.3514 104.152V106.896H50.3994V106.384C50.1274 106.744 49.7594 106.976 49.1194 106.976ZM49.3514 106.28C49.9434 106.28 50.3834 105.968 50.3834 105.432V105.016H49.8874C49.1514 105.016 48.6794 105.184 48.6794 105.696C48.6794 106.048 48.8714 106.28 49.3514 106.28ZM53.8771 106.968C53.0451 106.968 52.6131 106.52 52.6131 105.728V103.44H52.0531V102.712H52.6131V101.792H53.5811V102.712H54.5011V103.44H53.5811V105.64C53.5811 106.008 53.7571 106.176 54.0611 106.176C54.2531 106.176 54.3971 106.152 54.5331 106.096V106.864C54.3811 106.92 54.1731 106.968 53.8771 106.968ZM56.5335 106.976C55.7655 106.976 55.1335 106.608 55.1335 105.736C55.1335 104.76 56.0775 104.408 57.2775 104.408H57.7975V104.192C57.7975 103.632 57.6055 103.352 57.0375 103.352C56.5335 103.352 56.2855 103.592 56.2375 104.008H55.3015C55.3815 103.032 56.1575 102.624 57.0935 102.624C58.0295 102.624 58.7655 103.008 58.7655 104.152V106.896H57.8135V106.384C57.5415 106.744 57.1735 106.976 56.5335 106.976ZM56.7655 106.28C57.3575 106.28 57.7975 105.968 57.7975 105.432V105.016H57.3015C56.5655 105.016 56.0935 105.184 56.0935 105.696C56.0935 106.048 56.2855 106.28 56.7655 106.28ZM61.8612 106.896V101.176H63.7012C64.9812 101.176 65.8212 101.744 65.8212 102.944V102.976C65.8212 104.184 64.9492 104.72 63.7252 104.72H62.9252V106.896H61.8612ZM62.9252 103.952H63.7012C64.4052 103.952 64.7812 103.608 64.7812 102.976V102.944C64.7812 102.264 64.3812 102 63.7012 102H62.9252V103.952ZM68.3952 106.976C67.1632 106.976 66.2512 106.12 66.2512 104.848V104.784C66.2512 103.488 67.1712 102.624 68.4032 102.624C69.6272 102.624 70.5472 103.48 70.5472 104.76V104.824C70.5472 106.128 69.6272 106.976 68.3952 106.976ZM68.4032 106.224C69.1232 106.224 69.5552 105.688 69.5552 104.832V104.776C69.5552 103.912 69.1232 103.384 68.4032 103.384C67.6832 103.384 67.2432 103.904 67.2432 104.768V104.832C67.2432 105.688 67.6672 106.224 68.4032 106.224ZM71.9178 102.024C71.5978 102.024 71.3418 101.784 71.3418 101.472C71.3418 101.152 71.5978 100.912 71.9178 100.912C72.2378 100.912 72.4938 101.152 72.4938 101.472C72.4938 101.784 72.2378 102.024 71.9178 102.024ZM71.4458 106.896V102.712H72.4138V106.896H71.4458ZM73.5937 106.896V102.712H74.5617V103.376C74.7617 102.968 75.2257 102.624 75.9137 102.624C76.7537 102.624 77.3457 103.112 77.3457 104.264V106.896H76.3777V104.352C76.3777 103.72 76.1217 103.432 75.5457 103.432C75.0017 103.432 74.5617 103.768 74.5617 104.432V106.896H73.5937ZM79.8849 106.968C79.0529 106.968 78.6209 106.52 78.6209 105.728V103.44H78.0609V102.712H78.6209V101.792H79.5889V102.712H80.5089V103.44H79.5889V105.64C79.5889 106.008 79.7649 106.176 80.0689 106.176C80.2609 106.176 80.4049 106.152 80.5409 106.096V106.864C80.3889 106.92 80.1809 106.968 79.8849 106.968ZM82.8695 106.976C81.7895 106.976 81.1575 106.48 81.1175 105.592H82.0295C82.0775 106.016 82.2935 106.264 82.8615 106.264C83.3815 106.264 83.6135 106.08 83.6135 105.728C83.6135 105.384 83.3335 105.256 82.7175 105.152C81.6135 104.976 81.2055 104.664 81.2055 103.88C81.2055 103.04 81.9895 102.624 82.7735 102.624C83.6295 102.624 84.3095 102.944 84.4135 103.888H83.5175C83.4375 103.504 83.2215 103.328 82.7735 103.328C82.3575 103.328 82.1095 103.528 82.1095 103.824C82.1095 104.128 82.3095 104.248 82.9735 104.36C83.9575 104.512 84.5415 104.752 84.5415 105.64C84.5415 106.488 83.9415 106.976 82.8695 106.976Z" fill="black"/>
<path d="M19.5206 142.219V137.339H17.9286V136.499H22.1846V137.339H20.5926V142.219H19.5206ZM22.9606 142.219V136.099H23.9286V138.699C24.1286 138.291 24.5926 137.947 25.2806 137.947C26.1206 137.947 26.7126 138.435 26.7126 139.587V142.219H25.7446V139.675C25.7446 139.043 25.4886 138.755 24.9126 138.755C24.3686 138.755 23.9286 139.091 23.9286 139.755V142.219H22.9606ZM27.8278 142.219V138.035H28.7958V138.819C29.0598 138.291 29.4518 137.979 30.1558 137.971V138.875C29.3078 138.883 28.7958 139.155 28.7958 140.043V142.219H27.8278ZM32.7616 142.299C31.5296 142.299 30.6416 141.491 30.6416 140.171V140.107C30.6416 138.811 31.5296 137.947 32.7216 137.947C33.7616 137.947 34.6976 138.563 34.6976 140.059V140.339H31.6336C31.6656 141.131 32.0656 141.579 32.7856 141.579C33.3696 141.579 33.6736 141.347 33.7456 140.939H34.6816C34.5456 141.819 33.8336 142.299 32.7616 142.299ZM31.6496 139.691H33.7376C33.6896 138.971 33.3216 138.651 32.7216 138.651C32.1376 138.651 31.7456 139.043 31.6496 139.691ZM37.4022 142.299C36.1702 142.299 35.2822 141.491 35.2822 140.171V140.107C35.2822 138.811 36.1702 137.947 37.3622 137.947C38.4022 137.947 39.3382 138.563 39.3382 140.059V140.339H36.2742C36.3062 141.131 36.7062 141.579 37.4262 141.579C38.0102 141.579 38.3142 141.347 38.3862 140.939H39.3222C39.1862 141.819 38.4742 142.299 37.4022 142.299ZM36.2902 139.691H38.3782C38.3302 138.971 37.9622 138.651 37.3622 138.651C36.7782 138.651 36.3862 139.043 36.2902 139.691ZM42.1891 142.219V136.499H43.9251C45.9171 136.499 46.8851 137.635 46.8851 139.299V139.371C46.8851 141.035 45.9171 142.219 43.9091 142.219H42.1891ZM43.2531 141.379H43.8771C45.1571 141.379 45.7731 140.643 45.7731 139.379V139.315C45.7731 138.083 45.2131 137.339 43.8691 137.339H43.2531V141.379ZM48.9082 142.299C48.1402 142.299 47.5082 141.931 47.5082 141.059C47.5082 140.083 48.4522 139.731 49.6522 139.731H50.1722V139.515C50.1722 138.955 49.9802 138.675 49.4122 138.675C48.9082 138.675 48.6602 138.915 48.6122 139.331H47.6762C47.7562 138.355 48.5322 137.947 49.4682 137.947C50.4042 137.947 51.1402 138.331 51.1402 139.475V142.219H50.1882V141.707C49.9162 142.067 49.5482 142.299 48.9082 142.299ZM49.1402 141.603C49.7322 141.603 50.1722 141.291 50.1722 140.755V140.339H49.6762C48.9402 140.339 48.4682 140.507 48.4682 141.019C48.4682 141.371 48.6602 141.603 49.1402 141.603ZM53.6659 142.291C52.8339 142.291 52.4019 141.843 52.4019 141.051V138.763H51.8419V138.035H52.4019V137.115H53.3699V138.035H54.2899V138.763H53.3699V140.963C53.3699 141.331 53.5459 141.499 53.8499 141.499C54.0419 141.499 54.1859 141.475 54.3219 141.419V142.187C54.1699 142.243 53.9619 142.291 53.6659 142.291ZM56.3223 142.299C55.5543 142.299 54.9223 141.931 54.9223 141.059C54.9223 140.083 55.8663 139.731 57.0663 139.731H57.5863V139.515C57.5863 138.955 57.3943 138.675 56.8263 138.675C56.3223 138.675 56.0743 138.915 56.0263 139.331H55.0903C55.1703 138.355 55.9463 137.947 56.8823 137.947C57.8183 137.947 58.5543 138.331 58.5543 139.475V142.219H57.6023V141.707C57.3303 142.067 56.9623 142.299 56.3223 142.299ZM56.5543 141.603C57.1463 141.603 57.5863 141.291 57.5863 140.755V140.339H57.0903C56.3543 140.339 55.8823 140.507 55.8823 141.019C55.8823 141.371 56.0743 141.603 56.5543 141.603ZM61.65 142.219V136.499H63.49C64.77 136.499 65.61 137.067 65.61 138.267V138.299C65.61 139.507 64.738 140.043 63.514 140.043H62.714V142.219H61.65ZM62.714 139.275H63.49C64.194 139.275 64.57 138.931 64.57 138.299V138.267C64.57 137.587 64.17 137.323 63.49 137.323H62.714V139.275ZM68.184 142.299C66.952 142.299 66.04 141.443 66.04 140.171V140.107C66.04 138.811 66.96 137.947 68.192 137.947C69.416 137.947 70.336 138.803 70.336 140.083V140.147C70.336 141.451 69.416 142.299 68.184 142.299ZM68.192 141.547C68.912 141.547 69.344 141.011 69.344 140.155V140.099C69.344 139.235 68.912 138.707 68.192 138.707C67.472 138.707 67.032 139.227 67.032 140.091V140.155C67.032 141.011 67.456 141.547 68.192 141.547ZM71.7066 137.347C71.3866 137.347 71.1306 137.107 71.1306 136.795C71.1306 136.475 71.3866 136.235 71.7066 136.235C72.0266 136.235 72.2826 136.475 72.2826 136.795C72.2826 137.107 72.0266 137.347 71.7066 137.347ZM71.2346 142.219V138.035H72.2026V142.219H71.2346ZM73.3825 142.219V138.035H74.3505V138.699C74.5505 138.291 75.0145 137.947 75.7025 137.947C76.5425 137.947 77.1345 138.435 77.1345 139.587V142.219H76.1665V139.675C76.1665 139.043 75.9105 138.755 75.3345 138.755C74.7905 138.755 74.3505 139.091 74.3505 139.755V142.219H73.3825ZM79.6737 142.291C78.8417 142.291 78.4097 141.843 78.4097 141.051V138.763H77.8497V138.035H78.4097V137.115H79.3777V138.035H80.2977V138.763H79.3777V140.963C79.3777 141.331 79.5537 141.499 79.8577 141.499C80.0497 141.499 80.1937 141.475 80.3297 141.419V142.187C80.1777 142.243 79.9697 142.291 79.6737 142.291ZM82.6583 142.299C81.5783 142.299 80.9463 141.803 80.9063 140.915H81.8183C81.8663 141.339 82.0823 141.587 82.6503 141.587C83.1703 141.587 83.4023 141.403 83.4023 141.051C83.4023 140.707 83.1223 140.579 82.5063 140.475C81.4023 140.299 80.9943 139.987 80.9943 139.203C80.9943 138.363 81.7783 137.947 82.5623 137.947C83.4183 137.947 84.0983 138.267 84.2023 139.211H83.3063C83.2263 138.827 83.0103 138.651 82.5623 138.651C82.1463 138.651 81.8983 138.851 81.8983 139.147C81.8983 139.451 82.0983 139.571 82.7623 139.683C83.7463 139.835 84.3303 140.075 84.3303 140.963C84.3303 141.811 83.7303 142.299 82.6583 142.299Z" fill="black"/>
<path d="M23.5272 177.541V171.821H27.0712V172.669H24.5912V174.373H26.5432V175.197H24.5912V177.541H23.5272ZM29.5612 177.621C28.3292 177.621 27.4172 176.765 27.4172 175.493V175.429C27.4172 174.133 28.3372 173.269 29.5692 173.269C30.7932 173.269 31.7132 174.125 31.7132 175.405V175.469C31.7132 176.773 30.7932 177.621 29.5612 177.621ZM29.5692 176.869C30.2892 176.869 30.7212 176.333 30.7212 175.477V175.421C30.7212 174.557 30.2892 174.029 29.5692 174.029C28.8492 174.029 28.4092 174.549 28.4092 175.413V175.477C28.4092 176.333 28.8332 176.869 29.5692 176.869ZM33.9878 177.621C33.1638 177.621 32.5478 177.149 32.5478 176.037V173.357H33.5158V175.925C33.5158 176.557 33.7798 176.845 34.3398 176.845C34.8598 176.845 35.3158 176.509 35.3158 175.845V173.357H36.2838V177.541H35.3158V176.885C35.1078 177.293 34.6678 177.621 33.9878 177.621ZM37.4316 177.541V173.357H38.3996V174.141C38.6636 173.613 39.0556 173.301 39.7596 173.293V174.197C38.9116 174.205 38.3996 174.477 38.3996 175.365V177.541H37.4316ZM42.5975 177.541V171.821H44.3335C46.3255 171.821 47.2935 172.957 47.2935 174.621V174.693C47.2935 176.357 46.3255 177.541 44.3175 177.541H42.5975ZM43.6615 176.701H44.2855C45.5655 176.701 46.1815 175.965 46.1815 174.701V174.637C46.1815 173.405 45.6215 172.661 44.2775 172.661H43.6615V176.701ZM49.3167 177.621C48.5487 177.621 47.9167 177.253 47.9167 176.381C47.9167 175.405 48.8607 175.053 50.0607 175.053H50.5807V174.837C50.5807 174.277 50.3887 173.997 49.8207 173.997C49.3167 173.997 49.0687 174.237 49.0207 174.653H48.0847C48.1647 173.677 48.9407 173.269 49.8767 173.269C50.8127 173.269 51.5487 173.653 51.5487 174.797V177.541H50.5967V177.029C50.3247 177.389 49.9567 177.621 49.3167 177.621ZM49.5487 176.925C50.1407 176.925 50.5807 176.613 50.5807 176.077V175.661H50.0847C49.3487 175.661 48.8767 175.829 48.8767 176.341C48.8767 176.693 49.0687 176.925 49.5487 176.925ZM54.0743 177.613C53.2423 177.613 52.8103 177.165 52.8103 176.373V174.085H52.2503V173.357H52.8103V172.437H53.7783V173.357H54.6983V174.085H53.7783V176.285C53.7783 176.653 53.9543 176.821 54.2583 176.821C54.4503 176.821 54.5943 176.797 54.7303 176.741V177.509C54.5783 177.565 54.3703 177.613 54.0743 177.613ZM56.7307 177.621C55.9627 177.621 55.3307 177.253 55.3307 176.381C55.3307 175.405 56.2747 175.053 57.4747 175.053H57.9947V174.837C57.9947 174.277 57.8027 173.997 57.2347 173.997C56.7307 173.997 56.4827 174.237 56.4347 174.653H55.4987C55.5787 173.677 56.3547 173.269 57.2907 173.269C58.2267 173.269 58.9627 173.653 58.9627 174.797V177.541H58.0107V177.029C57.7387 177.389 57.3707 177.621 56.7307 177.621ZM56.9627 176.925C57.5547 176.925 57.9947 176.613 57.9947 176.077V175.661H57.4987C56.7627 175.661 56.2907 175.829 56.2907 176.341C56.2907 176.693 56.4827 176.925 56.9627 176.925ZM62.0585 177.541V171.821H63.8985C65.1785 171.821 66.0185 172.389 66.0185 173.589V173.621C66.0185 174.829 65.1465 175.365 63.9225 175.365H63.1225V177.541H62.0585ZM63.1225 174.597H63.8985C64.6025 174.597 64.9785 174.253 64.9785 173.621V173.589C64.9785 172.909 64.5785 172.645 63.8985 172.645H63.1225V174.597ZM68.5925 177.621C67.3605 177.621 66.4485 176.765 66.4485 175.493V175.429C66.4485 174.133 67.3685 173.269 68.6005 173.269C69.8245 173.269 70.7445 174.125 70.7445 175.405V175.469C70.7445 176.773 69.8245 177.621 68.5925 177.621ZM68.6005 176.869C69.3205 176.869 69.7525 176.333 69.7525 175.477V175.421C69.7525 174.557 69.3205 174.029 68.6005 174.029C67.8805 174.029 67.4405 174.549 67.4405 175.413V175.477C67.4405 176.333 67.8645 176.869 68.6005 176.869ZM72.1151 172.669C71.7951 172.669 71.5391 172.429 71.5391 172.117C71.5391 171.797 71.7951 171.557 72.1151 171.557C72.4351 171.557 72.6911 171.797 72.6911 172.117C72.6911 172.429 72.4351 172.669 72.1151 172.669ZM71.6431 177.541V173.357H72.6111V177.541H71.6431ZM73.791 177.541V173.357H74.759V174.021C74.959 173.613 75.423 173.269 76.111 173.269C76.951 173.269 77.543 173.757 77.543 174.909V177.541H76.575V174.997C76.575 174.365 76.319 174.077 75.743 174.077C75.199 174.077 74.759 174.413 74.759 175.077V177.541H73.791ZM80.0822 177.613C79.2502 177.613 78.8182 177.165 78.8182 176.373V174.085H78.2582V173.357H78.8182V172.437H79.7862V173.357H80.7062V174.085H79.7862V176.285C79.7862 176.653 79.9622 176.821 80.2662 176.821C80.4582 176.821 80.6022 176.797 80.7382 176.741V177.509C80.5862 177.565 80.3782 177.613 80.0822 177.613ZM83.0667 177.621C81.9867 177.621 81.3547 177.125 81.3147 176.237H82.2267C82.2747 176.661 82.4907 176.909 83.0587 176.909C83.5787 176.909 83.8107 176.725 83.8107 176.373C83.8107 176.029 83.5307 175.901 82.9147 175.797C81.8107 175.621 81.4027 175.309 81.4027 174.525C81.4027 173.685 82.1867 173.269 82.9707 173.269C83.8267 173.269 84.5067 173.589 84.6107 174.533H83.7147C83.6347 174.149 83.4187 173.973 82.9707 173.973C82.5547 173.973 82.3067 174.173 82.3067 174.469C82.3067 174.773 82.5067 174.893 83.1707 175.005C84.1547 175.157 84.7387 175.397 84.7387 176.285C84.7387 177.133 84.1387 177.621 83.0667 177.621Z" fill="black"/>
<path d="M25.2616 212.863V207.143H28.8056V207.991H26.3256V209.695H28.2776V210.519H26.3256V212.863H25.2616ZM30.0682 207.991C29.7482 207.991 29.4922 207.751 29.4922 207.439C29.4922 207.119 29.7482 206.879 30.0682 206.879C30.3882 206.879 30.6442 207.119 30.6442 207.439C30.6442 207.751 30.3882 207.991 30.0682 207.991ZM29.5962 212.863V208.679H30.5642V212.863H29.5962ZM32.8401 212.863L31.3121 208.679H32.3521L33.4481 211.871L34.5281 208.679H35.4801L33.9681 212.863H32.8401ZM37.881 212.943C36.649 212.943 35.761 212.135 35.761 210.815V210.751C35.761 209.455 36.649 208.591 37.841 208.591C38.881 208.591 39.817 209.207 39.817 210.703V210.983H36.753C36.785 211.775 37.185 212.223 37.905 212.223C38.489 212.223 38.793 211.991 38.865 211.583H39.801C39.665 212.463 38.953 212.943 37.881 212.943ZM36.769 210.335H38.857C38.809 209.615 38.441 209.295 37.841 209.295C37.257 209.295 36.865 209.687 36.769 210.335ZM42.6678 212.863V207.143H44.4038C46.3958 207.143 47.3638 208.279 47.3638 209.943V210.015C47.3638 211.679 46.3958 212.863 44.3878 212.863H42.6678ZM43.7318 212.023H44.3558C45.6358 212.023 46.2518 211.287 46.2518 210.023V209.959C46.2518 208.727 45.6918 207.983 44.3478 207.983H43.7318V212.023ZM49.387 212.943C48.619 212.943 47.987 212.575 47.987 211.703C47.987 210.727 48.931 210.375 50.131 210.375H50.651V210.159C50.651 209.599 50.459 209.319 49.891 209.319C49.387 209.319 49.139 209.559 49.091 209.975H48.155C48.235 208.999 49.011 208.591 49.947 208.591C50.883 208.591 51.619 208.975 51.619 210.119V212.863H50.667V212.351C50.395 212.711 50.027 212.943 49.387 212.943ZM49.619 212.247C50.211 212.247 50.651 211.935 50.651 211.399V210.983H50.155C49.419 210.983 48.947 211.151 48.947 211.663C48.947 212.015 49.139 212.247 49.619 212.247ZM54.1447 212.935C53.3127 212.935 52.8807 212.487 52.8807 211.695V209.407H52.3207V208.679H52.8807V207.759H53.8487V208.679H54.7687V209.407H53.8487V211.607C53.8487 211.975 54.0247 212.143 54.3287 212.143C54.5207 212.143 54.6647 212.119 54.8007 212.063V212.831C54.6487 212.887 54.4407 212.935 54.1447 212.935ZM56.801 212.943C56.033 212.943 55.401 212.575 55.401 211.703C55.401 210.727 56.345 210.375 57.545 210.375H58.065V210.159C58.065 209.599 57.873 209.319 57.305 209.319C56.801 209.319 56.553 209.559 56.505 209.975H55.569C55.649 208.999 56.425 208.591 57.361 208.591C58.297 208.591 59.033 208.975 59.033 210.119V212.863H58.081V212.351C57.809 212.711 57.441 212.943 56.801 212.943ZM57.033 212.247C57.625 212.247 58.065 211.935 58.065 211.399V210.983H57.569C56.833 210.983 56.361 211.151 56.361 211.663C56.361 212.015 56.553 212.247 57.033 212.247ZM62.1288 212.863V207.143H63.9688C65.2488 207.143 66.0888 207.711 66.0888 208.911V208.943C66.0888 210.151 65.2168 210.687 63.9928 210.687H63.1928V212.863H62.1288ZM63.1928 209.919H63.9688C64.6728 209.919 65.0488 209.575 65.0488 208.943V208.911C65.0488 208.231 64.6488 207.967 63.9688 207.967H63.1928V209.919ZM68.6628 212.943C67.4308 212.943 66.5188 212.087 66.5188 210.815V210.751C66.5188 209.455 67.4388 208.591 68.6708 208.591C69.8948 208.591 70.8148 209.447 70.8148 210.727V210.791C70.8148 212.095 69.8948 212.943 68.6628 212.943ZM68.6708 212.191C69.3908 212.191 69.8228 211.655 69.8228 210.799V210.743C69.8228 209.879 69.3908 209.351 68.6708 209.351C67.9508 209.351 67.5108 209.871 67.5108 210.735V210.799C67.5108 211.655 67.9348 212.191 68.6708 212.191ZM72.1854 207.991C71.8654 207.991 71.6094 207.751 71.6094 207.439C71.6094 207.119 71.8654 206.879 72.1854 206.879C72.5054 206.879 72.7614 207.119 72.7614 207.439C72.7614 207.751 72.5054 207.991 72.1854 207.991ZM71.7134 212.863V208.679H72.6814V212.863H71.7134ZM73.8613 212.863V208.679H74.8293V209.343C75.0293 208.935 75.4933 208.591 76.1813 208.591C77.0213 208.591 77.6133 209.079 77.6133 210.231V212.863H76.6453V210.319C76.6453 209.687 76.3893 209.399 75.8133 209.399C75.2693 209.399 74.8293 209.735 74.8293 210.399V212.863H73.8613ZM80.1525 212.935C79.3205 212.935 78.8885 212.487 78.8885 211.695V209.407H78.3285V208.679H78.8885V207.759H79.8565V208.679H80.7765V209.407H79.8565V211.607C79.8565 211.975 80.0325 212.143 80.3365 212.143C80.5285 212.143 80.6725 212.119 80.8085 212.063V212.831C80.6565 212.887 80.4485 212.935 80.1525 212.935ZM83.137 212.943C82.057 212.943 81.425 212.447 81.385 211.559H82.297C82.345 211.983 82.561 212.231 83.129 212.231C83.649 212.231 83.881 212.047 83.881 211.695C83.881 211.351 83.601 211.223 82.985 211.119C81.881 210.943 81.473 210.631 81.473 209.847C81.473 209.007 82.257 208.591 83.041 208.591C83.897 208.591 84.577 208.911 84.681 209.855H83.785C83.705 209.471 83.489 209.295 83.041 209.295C82.625 209.295 82.377 209.495 82.377 209.791C82.377 210.095 82.577 210.215 83.241 210.327C84.225 210.479 84.809 210.719 84.809 211.607C84.809 212.455 84.209 212.943 83.137 212.943Z" fill="black"/>
<path d="M30.8836 248.265C29.3236 248.265 28.6676 247.489 28.5876 246.409H29.6116C29.6836 246.985 29.9156 247.465 30.8836 247.465C31.5156 247.465 31.9636 247.113 31.9636 246.585C31.9636 246.057 31.6996 245.857 30.7716 245.705C29.4036 245.521 28.7556 245.105 28.7556 244.033C28.7556 243.097 29.5556 242.393 30.7476 242.393C31.9796 242.393 32.7156 242.953 32.8276 244.049H31.8516C31.7476 243.449 31.4036 243.193 30.7476 243.193C30.0996 243.193 29.7636 243.505 29.7636 243.945C29.7636 244.409 29.9556 244.641 30.9476 244.785C32.2916 244.969 32.9876 245.353 32.9876 246.497C32.9876 247.489 32.1476 248.265 30.8836 248.265ZM34.4337 243.313C34.1137 243.313 33.8577 243.073 33.8577 242.761C33.8577 242.441 34.1137 242.201 34.4337 242.201C34.7537 242.201 35.0097 242.441 35.0097 242.761C35.0097 243.073 34.7537 243.313 34.4337 243.313ZM33.9617 248.185V244.001H34.9297V248.185H33.9617ZM35.7016 248.185L37.1576 246.041L35.7976 244.001H36.9176L37.7896 245.353L38.6536 244.001H39.6696L38.3176 245.969L39.8136 248.185H38.6856L37.7096 246.673L36.7096 248.185H35.7016ZM42.5411 248.185V242.465H44.2771C46.2691 242.465 47.2371 243.601 47.2371 245.265V245.337C47.2371 247.001 46.2691 248.185 44.2611 248.185H42.5411ZM43.6051 247.345H44.2291C45.5091 247.345 46.1251 246.609 46.1251 245.345V245.281C46.1251 244.049 45.5651 243.305 44.2211 243.305H43.6051V247.345ZM49.2603 248.265C48.4923 248.265 47.8603 247.897 47.8603 247.025C47.8603 246.049 48.8043 245.697 50.0043 245.697H50.5243V245.481C50.5243 244.921 50.3323 244.641 49.7643 244.641C49.2603 244.641 49.0123 244.881 48.9643 245.297H48.0283C48.1083 244.321 48.8843 243.913 49.8203 243.913C50.7563 243.913 51.4923 244.297 51.4923 245.441V248.185H50.5403V247.673C50.2683 248.033 49.9003 248.265 49.2603 248.265ZM49.4923 247.569C50.0843 247.569 50.5243 247.257 50.5243 246.721V246.305H50.0283C49.2923 246.305 48.8203 246.473 48.8203 246.985C48.8203 247.337 49.0123 247.569 49.4923 247.569ZM54.0179 248.257C53.1859 248.257 52.7539 247.809 52.7539 247.017V244.729H52.1939V244.001H52.7539V243.081H53.7219V244.001H54.6419V244.729H53.7219V246.929C53.7219 247.297 53.8979 247.465 54.2019 247.465C54.3939 247.465 54.5379 247.441 54.6739 247.385V248.153C54.5219 248.209 54.3139 248.257 54.0179 248.257ZM56.6743 248.265C55.9063 248.265 55.2743 247.897 55.2743 247.025C55.2743 246.049 56.2183 245.697 57.4183 245.697H57.9383V245.481C57.9383 244.921 57.7463 244.641 57.1783 244.641C56.6743 244.641 56.4263 244.881 56.3783 245.297H55.4423C55.5223 244.321 56.2983 243.913 57.2343 243.913C58.1703 243.913 58.9063 244.297 58.9063 245.441V248.185H57.9543V247.673C57.6823 248.033 57.3143 248.265 56.6743 248.265ZM56.9063 247.569C57.4983 247.569 57.9383 247.257 57.9383 246.721V246.305H57.4423C56.7063 246.305 56.2343 246.473 56.2343 246.985C56.2343 247.337 56.4263 247.569 56.9063 247.569ZM62.0021 248.185V242.465H63.8421C65.1221 242.465 65.9621 243.033 65.9621 244.233V244.265C65.9621 245.473 65.0901 246.009 63.8661 246.009H63.0661V248.185H62.0021ZM63.0661 245.241H63.8421C64.5461 245.241 64.9221 244.897 64.9221 244.265V244.233C64.9221 243.553 64.5221 243.289 63.8421 243.289H63.0661V245.241ZM68.5361 248.265C67.3041 248.265 66.3921 247.409 66.3921 246.137V246.073C66.3921 244.777 67.3121 243.913 68.5441 243.913C69.7681 243.913 70.6881 244.769 70.6881 246.049V246.113C70.6881 247.417 69.7681 248.265 68.5361 248.265ZM68.5441 247.513C69.2641 247.513 69.6961 246.977 69.6961 246.121V246.065C69.6961 245.201 69.2641 244.673 68.5441 244.673C67.8241 244.673 67.3841 245.193 67.3841 246.057V246.121C67.3841 246.977 67.8081 247.513 68.5441 247.513ZM72.0587 243.313C71.7387 243.313 71.4827 243.073 71.4827 242.761C71.4827 242.441 71.7387 242.201 72.0587 242.201C72.3787 242.201 72.6347 242.441 72.6347 242.761C72.6347 243.073 72.3787 243.313 72.0587 243.313ZM71.5867 248.185V244.001H72.5547V248.185H71.5867ZM73.7346 248.185V244.001H74.7026V244.665C74.9026 244.257 75.3666 243.913 76.0546 243.913C76.8946 243.913 77.4866 244.401 77.4866 245.553V248.185H76.5186V245.641C76.5186 245.009 76.2626 244.721 75.6866 244.721C75.1426 244.721 74.7026 245.057 74.7026 245.721V248.185H73.7346ZM80.0258 248.257C79.1938 248.257 78.7618 247.809 78.7618 247.017V244.729H78.2018V244.001H78.7618V243.081H79.7298V244.001H80.6498V244.729H79.7298V246.929C79.7298 247.297 79.9058 247.465 80.2098 247.465C80.4018 247.465 80.5458 247.441 80.6818 247.385V248.153C80.5298 248.209 80.3218 248.257 80.0258 248.257ZM83.0103 248.265C81.9303 248.265 81.2983 247.769 81.2583 246.881H82.1703C82.2183 247.305 82.4343 247.553 83.0023 247.553C83.5223 247.553 83.7543 247.369 83.7543 247.017C83.7543 246.673 83.4743 246.545 82.8583 246.441C81.7543 246.265 81.3463 245.953 81.3463 245.169C81.3463 244.329 82.1303 243.913 82.9143 243.913C83.7703 243.913 84.4503 244.233 84.5543 245.177H83.6583C83.5783 244.793 83.3623 244.617 82.9143 244.617C82.4983 244.617 82.2503 244.817 82.2503 245.113C82.2503 245.417 82.4503 245.537 83.1143 245.649C84.0983 245.801 84.6823 246.041 84.6823 246.929C84.6823 247.777 84.0823 248.265 83.0103 248.265Z" fill="black"/>
<path d="M19.7737 283.587C18.2137 283.587 17.5577 282.811 17.4777 281.731H18.5017C18.5737 282.307 18.8057 282.787 19.7737 282.787C20.4057 282.787 20.8537 282.435 20.8537 281.907C20.8537 281.379 20.5897 281.179 19.6617 281.027C18.2937 280.843 17.6457 280.427 17.6457 279.355C17.6457 278.419 18.4457 277.715 19.6377 277.715C20.8697 277.715 21.6057 278.275 21.7177 279.371H20.7417C20.6377 278.771 20.2937 278.515 19.6377 278.515C18.9897 278.515 18.6537 278.827 18.6537 279.267C18.6537 279.731 18.8457 279.963 19.8377 280.107C21.1817 280.291 21.8777 280.675 21.8777 281.819C21.8777 282.811 21.0377 283.587 19.7737 283.587ZM24.6756 283.587C23.4436 283.587 22.5556 282.779 22.5556 281.459V281.395C22.5556 280.099 23.4436 279.235 24.6356 279.235C25.6756 279.235 26.6116 279.851 26.6116 281.347V281.627H23.5476C23.5796 282.419 23.9796 282.867 24.6996 282.867C25.2836 282.867 25.5876 282.635 25.6596 282.227H26.5956C26.4596 283.107 25.7476 283.587 24.6756 283.587ZM23.5636 280.979H25.6516C25.6036 280.259 25.2356 279.939 24.6356 279.939C24.0516 279.939 23.6596 280.331 23.5636 280.979ZM28.4941 283.507L26.9661 279.323H28.0061L29.1021 282.515L30.1821 279.323H31.1341L29.6221 283.507H28.4941ZM33.535 283.587C32.303 283.587 31.415 282.779 31.415 281.459V281.395C31.415 280.099 32.303 279.235 33.495 279.235C34.535 279.235 35.471 279.851 35.471 281.347V281.627H32.407C32.439 282.419 32.839 282.867 33.559 282.867C34.143 282.867 34.447 282.635 34.519 282.227H35.455C35.319 283.107 34.607 283.587 33.535 283.587ZM32.423 280.979H34.511C34.463 280.259 34.095 279.939 33.495 279.939C32.911 279.939 32.519 280.331 32.423 280.979ZM36.3356 283.507V279.323H37.3036V279.987C37.5036 279.579 37.9676 279.235 38.6556 279.235C39.4956 279.235 40.0876 279.723 40.0876 280.875V283.507H39.1196V280.963C39.1196 280.331 38.8636 280.043 38.2876 280.043C37.7436 280.043 37.3036 280.379 37.3036 281.043V283.507H36.3356ZM43.1891 283.507V277.787H44.9251C46.9171 277.787 47.8851 278.923 47.8851 280.587V280.659C47.8851 282.323 46.9171 283.507 44.9091 283.507H43.1891ZM44.2531 282.667H44.8771C46.1571 282.667 46.7731 281.931 46.7731 280.667V280.603C46.7731 279.371 46.2131 278.627 44.8691 278.627H44.2531V282.667ZM49.9082 283.587C49.1402 283.587 48.5082 283.219 48.5082 282.347C48.5082 281.371 49.4522 281.019 50.6522 281.019H51.1722V280.803C51.1722 280.243 50.9802 279.963 50.4122 279.963C49.9082 279.963 49.6602 280.203 49.6122 280.619H48.6762C48.7562 279.643 49.5322 279.235 50.4682 279.235C51.4042 279.235 52.1402 279.619 52.1402 280.763V283.507H51.1882V282.995C50.9162 283.355 50.5482 283.587 49.9082 283.587ZM50.1402 282.891C50.7322 282.891 51.1722 282.579 51.1722 282.043V281.627H50.6762C49.9402 281.627 49.4682 281.795 49.4682 282.307C49.4682 282.659 49.6602 282.891 50.1402 282.891ZM54.6659 283.579C53.8339 283.579 53.4019 283.131 53.4019 282.339V280.051H52.8419V279.323H53.4019V278.403H54.3699V279.323H55.2899V280.051H54.3699V282.251C54.3699 282.619 54.5459 282.787 54.8499 282.787C55.0419 282.787 55.1859 282.763 55.3219 282.707V283.475C55.1699 283.531 54.9619 283.579 54.6659 283.579ZM57.3223 283.587C56.5543 283.587 55.9223 283.219 55.9223 282.347C55.9223 281.371 56.8663 281.019 58.0663 281.019H58.5863V280.803C58.5863 280.243 58.3943 279.963 57.8263 279.963C57.3223 279.963 57.0743 280.203 57.0263 280.619H56.0903C56.1703 279.643 56.9463 279.235 57.8823 279.235C58.8183 279.235 59.5543 279.619 59.5543 280.763V283.507H58.6023V282.995C58.3303 283.355 57.9623 283.587 57.3223 283.587ZM57.5543 282.891C58.1463 282.891 58.5863 282.579 58.5863 282.043V281.627H58.0903C57.3543 281.627 56.8823 281.795 56.8823 282.307C56.8823 282.659 57.0743 282.891 57.5543 282.891ZM62.65 283.507V277.787H64.49C65.77 277.787 66.61 278.355 66.61 279.555V279.587C66.61 280.795 65.738 281.331 64.514 281.331H63.714V283.507H62.65ZM63.714 280.563H64.49C65.194 280.563 65.57 280.219 65.57 279.587V279.555C65.57 278.875 65.17 278.611 64.49 278.611H63.714V280.563ZM69.184 283.587C67.952 283.587 67.04 282.731 67.04 281.459V281.395C67.04 280.099 67.96 279.235 69.192 279.235C70.416 279.235 71.336 280.091 71.336 281.371V281.435C71.336 282.739 70.416 283.587 69.184 283.587ZM69.192 282.835C69.912 282.835 70.344 282.299 70.344 281.443V281.387C70.344 280.523 69.912 279.995 69.192 279.995C68.472 279.995 68.032 280.515 68.032 281.379V281.443C68.032 282.299 68.456 282.835 69.192 282.835ZM72.7066 278.635C72.3866 278.635 72.1306 278.395 72.1306 278.083C72.1306 277.763 72.3866 277.523 72.7066 277.523C73.0266 277.523 73.2826 277.763 73.2826 278.083C73.2826 278.395 73.0266 278.635 72.7066 278.635ZM72.2346 283.507V279.323H73.2026V283.507H72.2346ZM74.3825 283.507V279.323H75.3505V279.987C75.5505 279.579 76.0145 279.235 76.7025 279.235C77.5425 279.235 78.1345 279.723 78.1345 280.875V283.507H77.1665V280.963C77.1665 280.331 76.9105 280.043 76.3345 280.043C75.7905 280.043 75.3505 280.379 75.3505 281.043V283.507H74.3825ZM80.6737 283.579C79.8417 283.579 79.4097 283.131 79.4097 282.339V280.051H78.8497V279.323H79.4097V278.403H80.3777V279.323H81.2977V280.051H80.3777V282.251C80.3777 282.619 80.5537 282.787 80.8577 282.787C81.0497 282.787 81.1937 282.763 81.3297 282.707V283.475C81.1777 283.531 80.9697 283.579 80.6737 283.579ZM83.6583 283.587C82.5783 283.587 81.9463 283.091 81.9063 282.203H82.8183C82.8663 282.627 83.0823 282.875 83.6503 282.875C84.1703 282.875 84.4023 282.691 84.4023 282.339C84.4023 281.995 84.1223 281.867 83.5063 281.763C82.4023 281.587 81.9943 281.275 81.9943 280.491C81.9943 279.651 82.7783 279.235 83.5623 279.235C84.4183 279.235 85.0983 279.555 85.2023 280.499H84.3063C84.2263 280.115 84.0103 279.939 83.5623 279.939C83.1463 279.939 82.8983 280.139 82.8983 280.435C82.8983 280.739 83.0983 280.859 83.7623 280.971C84.7463 281.123 85.3303 281.363 85.3303 282.251C85.3303 283.099 84.7303 283.587 83.6583 283.587Z" fill="black"/>
<path d="M21.4296 318.829V313.109H25.0056V313.949H22.4936V315.517H24.5096V316.317H22.4936V317.989H25.1416V318.829H21.4296ZM26.5174 313.957C26.1974 313.957 25.9414 313.717 25.9414 313.405C25.9414 313.085 26.1974 312.845 26.5174 312.845C26.8374 312.845 27.0934 313.085 27.0934 313.405C27.0934 313.717 26.8374 313.957 26.5174 313.957ZM26.0454 318.829V314.645H27.0134V318.829H26.0454ZM29.9773 320.365C28.6653 320.365 28.0733 319.773 27.9613 318.973H28.9373C29.0173 319.389 29.3373 319.629 29.9693 319.629C30.7213 319.629 31.1373 319.253 31.1373 318.501V317.885C30.9053 318.285 30.3853 318.661 29.7693 318.661C28.7213 318.661 27.9133 317.877 27.9133 316.669V316.613C27.9133 315.437 28.7133 314.557 29.7933 314.557C30.4813 314.557 30.8973 314.869 31.1373 315.285V314.645H32.1053V318.517C32.0973 319.749 31.2733 320.365 29.9773 320.365ZM30.0093 317.917C30.6813 317.917 31.1693 317.437 31.1693 316.637V316.581C31.1693 315.789 30.7373 315.317 30.0413 315.317C29.3213 315.317 28.9053 315.837 28.9053 316.597V316.661C28.9053 317.437 29.3853 317.917 30.0093 317.917ZM33.2558 318.829V312.709H34.2238V315.309C34.4238 314.901 34.8878 314.557 35.5758 314.557C36.4158 314.557 37.0078 315.045 37.0078 316.197V318.829H36.0398V316.285C36.0398 315.653 35.7838 315.365 35.2078 315.365C34.6638 315.365 34.2238 315.701 34.2238 316.365V318.829H33.2558ZM39.547 318.901C38.715 318.901 38.283 318.453 38.283 317.661V315.373H37.723V314.645H38.283V313.725H39.251V314.645H40.171V315.373H39.251V317.573C39.251 317.941 39.427 318.109 39.731 318.109C39.923 318.109 40.067 318.085 40.203 318.029V318.797C40.051 318.853 39.843 318.901 39.547 318.901ZM43.0624 318.829V313.109H44.7984C46.7904 313.109 47.7584 314.245 47.7584 315.909V315.981C47.7584 317.645 46.7904 318.829 44.7824 318.829H43.0624ZM44.1264 317.989H44.7504C46.0304 317.989 46.6464 317.253 46.6464 315.989V315.925C46.6464 314.693 46.0864 313.949 44.7424 313.949H44.1264V317.989ZM49.7815 318.909C49.0135 318.909 48.3815 318.541 48.3815 317.669C48.3815 316.693 49.3255 316.341 50.5255 316.341H51.0455V316.125C51.0455 315.565 50.8535 315.285 50.2855 315.285C49.7815 315.285 49.5335 315.525 49.4855 315.941H48.5495C48.6295 314.965 49.4055 314.557 50.3415 314.557C51.2775 314.557 52.0135 314.941 52.0135 316.085V318.829H51.0615V318.317C50.7895 318.677 50.4215 318.909 49.7815 318.909ZM50.0135 318.213C50.6055 318.213 51.0455 317.901 51.0455 317.365V316.949H50.5495C49.8135 316.949 49.3415 317.117 49.3415 317.629C49.3415 317.981 49.5335 318.213 50.0135 318.213ZM54.5392 318.901C53.7072 318.901 53.2752 318.453 53.2752 317.661V315.373H52.7152V314.645H53.2752V313.725H54.2432V314.645H55.1632V315.373H54.2432V317.573C54.2432 317.941 54.4192 318.109 54.7232 318.109C54.9152 318.109 55.0592 318.085 55.1952 318.029V318.797C55.0432 318.853 54.8352 318.901 54.5392 318.901ZM57.1956 318.909C56.4276 318.909 55.7956 318.541 55.7956 317.669C55.7956 316.693 56.7396 316.341 57.9396 316.341H58.4596V316.125C58.4596 315.565 58.2676 315.285 57.6996 315.285C57.1956 315.285 56.9476 315.525 56.8996 315.941H55.9636C56.0436 314.965 56.8196 314.557 57.7556 314.557C58.6916 314.557 59.4276 314.941 59.4276 316.085V318.829H58.4756V318.317C58.2036 318.677 57.8356 318.909 57.1956 318.909ZM57.4276 318.213C58.0196 318.213 58.4596 317.901 58.4596 317.365V316.949H57.9636C57.2276 316.949 56.7556 317.117 56.7556 317.629C56.7556 317.981 56.9476 318.213 57.4276 318.213ZM62.5233 318.829V313.109H64.3633C65.6433 313.109 66.4833 313.677 66.4833 314.877V314.909C66.4833 316.117 65.6113 316.653 64.3873 316.653H63.5873V318.829H62.5233ZM63.5873 315.885H64.3633C65.0673 315.885 65.4433 315.541 65.4433 314.909V314.877C65.4433 314.197 65.0433 313.933 64.3633 313.933H63.5873V315.885ZM69.0573 318.909C67.8253 318.909 66.9133 318.053 66.9133 316.781V316.717C66.9133 315.421 67.8333 314.557 69.0653 314.557C70.2893 314.557 71.2093 315.413 71.2093 316.693V316.757C71.2093 318.061 70.2893 318.909 69.0573 318.909ZM69.0653 318.157C69.7853 318.157 70.2173 317.621 70.2173 316.765V316.709C70.2173 315.845 69.7853 315.317 69.0653 315.317C68.3453 315.317 67.9053 315.837 67.9053 316.701V316.765C67.9053 317.621 68.3293 318.157 69.0653 318.157ZM72.5799 313.957C72.2599 313.957 72.0039 313.717 72.0039 313.405C72.0039 313.085 72.2599 312.845 72.5799 312.845C72.8999 312.845 73.1559 313.085 73.1559 313.405C73.1559 313.717 72.8999 313.957 72.5799 313.957ZM72.1079 318.829V314.645H73.0759V318.829H72.1079ZM74.2558 318.829V314.645H75.2238V315.309C75.4238 314.901 75.8878 314.557 76.5758 314.557C77.4158 314.557 78.0078 315.045 78.0078 316.197V318.829H77.0398V316.285C77.0398 315.653 76.7838 315.365 76.2078 315.365C75.6638 315.365 75.2238 315.701 75.2238 316.365V318.829H74.2558ZM80.547 318.901C79.715 318.901 79.283 318.453 79.283 317.661V315.373H78.723V314.645H79.283V313.725H80.251V314.645H81.171V315.373H80.251V317.573C80.251 317.941 80.427 318.109 80.731 318.109C80.923 318.109 81.067 318.085 81.203 318.029V318.797C81.051 318.853 80.843 318.901 80.547 318.901ZM83.5316 318.909C82.4516 318.909 81.8196 318.413 81.7796 317.525H82.6916C82.7396 317.949 82.9556 318.197 83.5236 318.197C84.0436 318.197 84.2756 318.013 84.2756 317.661C84.2756 317.317 83.9956 317.189 83.3796 317.085C82.2756 316.909 81.8676 316.597 81.8676 315.813C81.8676 314.973 82.6516 314.557 83.4356 314.557C84.2916 314.557 84.9716 314.877 85.0756 315.821H84.1796C84.0996 315.437 83.8836 315.261 83.4356 315.261C83.0196 315.261 82.7716 315.461 82.7716 315.757C82.7716 316.061 82.9716 316.181 83.6356 316.293C84.6196 316.445 85.2036 316.685 85.2036 317.573C85.2036 318.421 84.6036 318.909 83.5316 318.909Z" fill="black"/>
<path d="M23.5859 354.151V348.431H24.8579L27.2659 352.567V348.431H28.2339V354.151H27.1299L24.5539 349.767V354.151H23.5859ZM29.9629 349.279C29.6429 349.279 29.3869 349.039 29.3869 348.727C29.3869 348.407 29.6429 348.167 29.9629 348.167C30.2829 348.167 30.5389 348.407 30.5389 348.727C30.5389 349.039 30.2829 349.279 29.9629 349.279ZM29.4909 354.151V349.967H30.4589V354.151H29.4909ZM31.6387 354.151V349.967H32.6067V350.631C32.8067 350.223 33.2707 349.879 33.9587 349.879C34.7987 349.879 35.3907 350.367 35.3907 351.519V354.151H34.4227V351.607C34.4227 350.975 34.1667 350.687 33.5907 350.687C33.0467 350.687 32.6067 351.023 32.6067 351.687V354.151H31.6387ZM38.3459 354.231C37.1139 354.231 36.2259 353.423 36.2259 352.103V352.039C36.2259 350.743 37.1139 349.879 38.3059 349.879C39.3459 349.879 40.2819 350.495 40.2819 351.991V352.271H37.2179C37.2499 353.063 37.6499 353.511 38.3699 353.511C38.9539 353.511 39.2579 353.279 39.3299 352.871H40.2659C40.1299 353.751 39.4179 354.231 38.3459 354.231ZM37.2339 351.623H39.3219C39.2739 350.903 38.9059 350.583 38.3059 350.583C37.7219 350.583 37.3299 350.975 37.2339 351.623ZM43.1328 354.151V348.431H44.8688C46.8608 348.431 47.8288 349.567 47.8288 351.231V351.303C47.8288 352.967 46.8608 354.151 44.8528 354.151H43.1328ZM44.1968 353.311H44.8208C46.1008 353.311 46.7168 352.575 46.7168 351.311V351.247C46.7168 350.015 46.1568 349.271 44.8128 349.271H44.1968V353.311ZM49.8519 354.231C49.0839 354.231 48.4519 353.863 48.4519 352.991C48.4519 352.015 49.3959 351.663 50.5959 351.663H51.1159V351.447C51.1159 350.887 50.9239 350.607 50.3559 350.607C49.8519 350.607 49.6039 350.847 49.5559 351.263H48.6199C48.6999 350.287 49.4759 349.879 50.4119 349.879C51.3479 349.879 52.0839 350.263 52.0839 351.407V354.151H51.1319V353.639C50.8599 353.999 50.4919 354.231 49.8519 354.231ZM50.0839 353.535C50.6759 353.535 51.1159 353.223 51.1159 352.687V352.271H50.6199C49.8839 352.271 49.4119 352.439 49.4119 352.951C49.4119 353.303 49.6039 353.535 50.0839 353.535ZM54.6096 354.223C53.7776 354.223 53.3456 353.775 53.3456 352.983V350.695H52.7856V349.967H53.3456V349.047H54.3136V349.967H55.2336V350.695H54.3136V352.895C54.3136 353.263 54.4896 353.431 54.7936 353.431C54.9856 353.431 55.1296 353.407 55.2656 353.351V354.119C55.1136 354.175 54.9056 354.223 54.6096 354.223ZM57.266 354.231C56.498 354.231 55.866 353.863 55.866 352.991C55.866 352.015 56.81 351.663 58.01 351.663H58.53V351.447C58.53 350.887 58.338 350.607 57.77 350.607C57.266 350.607 57.018 350.847 56.97 351.263H56.034C56.114 350.287 56.89 349.879 57.826 349.879C58.762 349.879 59.498 350.263 59.498 351.407V354.151H58.546V353.639C58.274 353.999 57.906 354.231 57.266 354.231ZM57.498 353.535C58.09 353.535 58.53 353.223 58.53 352.687V352.271H58.034C57.298 352.271 56.826 352.439 56.826 352.951C56.826 353.303 57.018 353.535 57.498 353.535ZM62.5937 354.151V348.431H64.4337C65.7137 348.431 66.5537 348.999 66.5537 350.199V350.231C66.5537 351.439 65.6817 351.975 64.4577 351.975H63.6577V354.151H62.5937ZM63.6577 351.207H64.4337C65.1377 351.207 65.5137 350.863 65.5137 350.231V350.199C65.5137 349.519 65.1137 349.255 64.4337 349.255H63.6577V351.207ZM69.1277 354.231C67.8957 354.231 66.9837 353.375 66.9837 352.103V352.039C66.9837 350.743 67.9037 349.879 69.1357 349.879C70.3597 349.879 71.2797 350.735 71.2797 352.015V352.079C71.2797 353.383 70.3597 354.231 69.1277 354.231ZM69.1357 353.479C69.8557 353.479 70.2877 352.943 70.2877 352.087V352.031C70.2877 351.167 69.8557 350.639 69.1357 350.639C68.4157 350.639 67.9757 351.159 67.9757 352.023V352.087C67.9757 352.943 68.3997 353.479 69.1357 353.479ZM72.6504 349.279C72.3304 349.279 72.0744 349.039 72.0744 348.727C72.0744 348.407 72.3304 348.167 72.6504 348.167C72.9704 348.167 73.2264 348.407 73.2264 348.727C73.2264 349.039 72.9704 349.279 72.6504 349.279ZM72.1784 354.151V349.967H73.1464V354.151H72.1784ZM74.3262 354.151V349.967H75.2942V350.631C75.4942 350.223 75.9582 349.879 76.6462 349.879C77.4862 349.879 78.0782 350.367 78.0782 351.519V354.151H77.1102V351.607C77.1102 350.975 76.8542 350.687 76.2782 350.687C75.7342 350.687 75.2942 351.023 75.2942 351.687V354.151H74.3262ZM80.6174 354.223C79.7854 354.223 79.3534 353.775 79.3534 352.983V350.695H78.7934V349.967H79.3534V349.047H80.3214V349.967H81.2414V350.695H80.3214V352.895C80.3214 353.263 80.4974 353.431 80.8014 353.431C80.9934 353.431 81.1374 353.407 81.2734 353.351V354.119C81.1214 354.175 80.9134 354.223 80.6174 354.223ZM83.602 354.231C82.522 354.231 81.89 353.735 81.85 352.847H82.762C82.81 353.271 83.026 353.519 83.594 353.519C84.114 353.519 84.346 353.335 84.346 352.983C84.346 352.639 84.066 352.511 83.45 352.407C82.346 352.231 81.938 351.919 81.938 351.135C81.938 350.295 82.722 349.879 83.506 349.879C84.362 349.879 85.042 350.199 85.146 351.143H84.25C84.17 350.759 83.954 350.583 83.506 350.583C83.09 350.583 82.842 350.783 82.842 351.079C82.842 351.383 83.042 351.503 83.706 351.615C84.69 351.767 85.274 352.007 85.274 352.895C85.274 353.743 84.674 354.231 83.602 354.231Z" fill="black"/>
<path d="M28.9407 389.473V384.593H27.3487V383.753H31.6047V384.593H30.0127V389.473H28.9407ZM33.6192 389.553C32.3872 389.553 31.4992 388.745 31.4992 387.425V387.361C31.4992 386.065 32.3872 385.201 33.5792 385.201C34.6192 385.201 35.5552 385.817 35.5552 387.313V387.593H32.4912C32.5232 388.385 32.9232 388.833 33.6432 388.833C34.2272 388.833 34.5312 388.601 34.6032 388.193H35.5392C35.4032 389.073 34.6912 389.553 33.6192 389.553ZM32.5072 386.945H34.5952C34.5472 386.225 34.1792 385.905 33.5792 385.905C32.9952 385.905 32.6032 386.297 32.5072 386.945ZM36.4199 389.473V385.289H37.3879V385.953C37.5879 385.545 38.0519 385.201 38.7399 385.201C39.5799 385.201 40.1719 385.689 40.1719 386.841V389.473H39.2039V386.929C39.2039 386.297 38.9479 386.009 38.3719 386.009C37.8279 386.009 37.3879 386.345 37.3879 387.009V389.473H36.4199ZM43.2733 389.473V383.753H45.0093C47.0013 383.753 47.9693 384.889 47.9693 386.553V386.625C47.9693 388.289 47.0013 389.473 44.9933 389.473H43.2733ZM44.3373 388.633H44.9613C46.2413 388.633 46.8573 387.897 46.8573 386.633V386.569C46.8573 385.337 46.2973 384.593 44.9533 384.593H44.3373V388.633ZM49.9924 389.553C49.2244 389.553 48.5924 389.185 48.5924 388.313C48.5924 387.337 49.5364 386.985 50.7364 386.985H51.2564V386.769C51.2564 386.209 51.0644 385.929 50.4964 385.929C49.9924 385.929 49.7444 386.169 49.6964 386.585H48.7604C48.8404 385.609 49.6164 385.201 50.5524 385.201C51.4884 385.201 52.2244 385.585 52.2244 386.729V389.473H51.2724V388.961C51.0004 389.321 50.6324 389.553 49.9924 389.553ZM50.2244 388.857C50.8164 388.857 51.2564 388.545 51.2564 388.009V387.593H50.7604C50.0244 387.593 49.5524 387.761 49.5524 388.273C49.5524 388.625 49.7444 388.857 50.2244 388.857ZM54.7501 389.545C53.9181 389.545 53.4861 389.097 53.4861 388.305V386.017H52.9261V385.289H53.4861V384.369H54.4541V385.289H55.3741V386.017H54.4541V388.217C54.4541 388.585 54.6301 388.753 54.9341 388.753C55.1261 388.753 55.2701 388.729 55.4061 388.673V389.441C55.2541 389.497 55.0461 389.545 54.7501 389.545ZM57.4065 389.553C56.6385 389.553 56.0065 389.185 56.0065 388.313C56.0065 387.337 56.9505 386.985 58.1505 386.985H58.6705V386.769C58.6705 386.209 58.4785 385.929 57.9105 385.929C57.4065 385.929 57.1585 386.169 57.1105 386.585H56.1745C56.2545 385.609 57.0305 385.201 57.9665 385.201C58.9025 385.201 59.6385 385.585 59.6385 386.729V389.473H58.6865V388.961C58.4145 389.321 58.0465 389.553 57.4065 389.553ZM57.6385 388.857C58.2305 388.857 58.6705 388.545 58.6705 388.009V387.593H58.1745C57.4385 387.593 56.9665 387.761 56.9665 388.273C56.9665 388.625 57.1585 388.857 57.6385 388.857ZM62.7342 389.473V383.753H64.5742C65.8542 383.753 66.6942 384.321 66.6942 385.521V385.553C66.6942 386.761 65.8222 387.297 64.5982 387.297H63.7982V389.473H62.7342ZM63.7982 386.529H64.5742C65.2782 386.529 65.6542 386.185 65.6542 385.553V385.521C65.6542 384.841 65.2542 384.577 64.5742 384.577H63.7982V386.529ZM69.2682 389.553C68.0362 389.553 67.1242 388.697 67.1242 387.425V387.361C67.1242 386.065 68.0442 385.201 69.2762 385.201C70.5002 385.201 71.4202 386.057 71.4202 387.337V387.401C71.4202 388.705 70.5002 389.553 69.2682 389.553ZM69.2762 388.801C69.9962 388.801 70.4282 388.265 70.4282 387.409V387.353C70.4282 386.489 69.9962 385.961 69.2762 385.961C68.5562 385.961 68.1162 386.481 68.1162 387.345V387.409C68.1162 388.265 68.5402 388.801 69.2762 388.801ZM72.7909 384.601C72.4709 384.601 72.2149 384.361 72.2149 384.049C72.2149 383.729 72.4709 383.489 72.7909 383.489C73.1109 383.489 73.3669 383.729 73.3669 384.049C73.3669 384.361 73.1109 384.601 72.7909 384.601ZM72.3189 389.473V385.289H73.2869V389.473H72.3189ZM74.4667 389.473V385.289H75.4347V385.953C75.6347 385.545 76.0987 385.201 76.7867 385.201C77.6267 385.201 78.2187 385.689 78.2187 386.841V389.473H77.2507V386.929C77.2507 386.297 76.9947 386.009 76.4187 386.009C75.8747 386.009 75.4347 386.345 75.4347 387.009V389.473H74.4667ZM80.7579 389.545C79.9259 389.545 79.4939 389.097 79.4939 388.305V386.017H78.9339V385.289H79.4939V384.369H80.4619V385.289H81.3819V386.017H80.4619V388.217C80.4619 388.585 80.6379 388.753 80.9419 388.753C81.1339 388.753 81.2779 388.729 81.4139 388.673V389.441C81.2619 389.497 81.0539 389.545 80.7579 389.545ZM83.7425 389.553C82.6625 389.553 82.0305 389.057 81.9905 388.169H82.9025C82.9505 388.593 83.1665 388.841 83.7345 388.841C84.2545 388.841 84.4865 388.657 84.4865 388.305C84.4865 387.961 84.2065 387.833 83.5905 387.729C82.4865 387.553 82.0785 387.241 82.0785 386.457C82.0785 385.617 82.8625 385.201 83.6465 385.201C84.5025 385.201 85.1825 385.521 85.2865 386.465H84.3905C84.3105 386.081 84.0945 385.905 83.6465 385.905C83.2305 385.905 82.9825 386.105 82.9825 386.401C82.9825 386.705 83.1825 386.825 83.8465 386.937C84.8305 387.089 85.4145 387.329 85.4145 388.217C85.4145 389.065 84.8145 389.553 83.7425 389.553Z" fill="black"/>
<path d="M16.0016 424.795V419.075H19.5776V419.915H17.0656V421.483H19.0816V422.283H17.0656V423.955H19.7136V424.795H16.0016ZM20.6175 424.795V418.675H21.5855V424.795H20.6175ZM24.6053 424.875C23.3733 424.875 22.4853 424.067 22.4853 422.747V422.683C22.4853 421.387 23.3733 420.523 24.5653 420.523C25.6053 420.523 26.5413 421.139 26.5413 422.635V422.915H23.4773C23.5093 423.707 23.9093 424.155 24.6293 424.155C25.2133 424.155 25.5173 423.923 25.5893 423.515H26.5253C26.3893 424.395 25.6773 424.875 24.6053 424.875ZM23.4933 422.267H25.5813C25.5333 421.547 25.1653 421.227 24.5653 421.227C23.9813 421.227 23.5893 421.619 23.4933 422.267ZM28.4238 424.795L26.8958 420.611H27.9358L29.0318 423.803L30.1118 420.611H31.0638L29.5518 424.795H28.4238ZM33.4647 424.875C32.2327 424.875 31.3447 424.067 31.3447 422.747V422.683C31.3447 421.387 32.2327 420.523 33.4247 420.523C34.4647 420.523 35.4007 421.139 35.4007 422.635V422.915H32.3367C32.3687 423.707 32.7687 424.155 33.4887 424.155C34.0727 424.155 34.3767 423.923 34.4487 423.515H35.3847C35.2487 424.395 34.5367 424.875 33.4647 424.875ZM32.3527 422.267H34.4407C34.3927 421.547 34.0247 421.227 33.4247 421.227C32.8407 421.227 32.4487 421.619 32.3527 422.267ZM36.2653 424.795V420.611H37.2333V421.275C37.4333 420.867 37.8973 420.523 38.5853 420.523C39.4253 420.523 40.0173 421.011 40.0173 422.163V424.795H39.0493V422.251C39.0493 421.619 38.7933 421.331 38.2173 421.331C37.6733 421.331 37.2333 421.667 37.2333 422.331V424.795H36.2653ZM43.1188 424.795V419.075H44.8548C46.8468 419.075 47.8148 420.211 47.8148 421.875V421.947C47.8148 423.611 46.8468 424.795 44.8388 424.795H43.1188ZM44.1828 423.955H44.8068C46.0868 423.955 46.7028 423.219 46.7028 421.955V421.891C46.7028 420.659 46.1428 419.915 44.7988 419.915H44.1828V423.955ZM49.8379 424.875C49.0699 424.875 48.4379 424.507 48.4379 423.635C48.4379 422.659 49.3819 422.307 50.5819 422.307H51.1019V422.091C51.1019 421.531 50.9099 421.251 50.3419 421.251C49.8379 421.251 49.5899 421.491 49.5419 421.907H48.6059C48.6859 420.931 49.4619 420.523 50.3979 420.523C51.3339 420.523 52.0699 420.907 52.0699 422.051V424.795H51.1179V424.283C50.8459 424.643 50.4779 424.875 49.8379 424.875ZM50.0699 424.179C50.6619 424.179 51.1019 423.867 51.1019 423.331V422.915H50.6059C49.8699 422.915 49.3979 423.083 49.3979 423.595C49.3979 423.947 49.5899 424.179 50.0699 424.179ZM54.5956 424.867C53.7636 424.867 53.3316 424.419 53.3316 423.627V421.339H52.7716V420.611H53.3316V419.691H54.2996V420.611H55.2196V421.339H54.2996V423.539C54.2996 423.907 54.4756 424.075 54.7796 424.075C54.9716 424.075 55.1156 424.051 55.2516 423.995V424.763C55.0996 424.819 54.8916 424.867 54.5956 424.867ZM57.252 424.875C56.484 424.875 55.852 424.507 55.852 423.635C55.852 422.659 56.796 422.307 57.996 422.307H58.516V422.091C58.516 421.531 58.324 421.251 57.756 421.251C57.252 421.251 57.004 421.491 56.956 421.907H56.02C56.1 420.931 56.876 420.523 57.812 420.523C58.748 420.523 59.484 420.907 59.484 422.051V424.795H58.532V424.283C58.26 424.643 57.892 424.875 57.252 424.875ZM57.484 424.179C58.076 424.179 58.516 423.867 58.516 423.331V422.915H58.02C57.284 422.915 56.812 423.083 56.812 423.595C56.812 423.947 57.004 424.179 57.484 424.179ZM62.5797 424.795V419.075H64.4197C65.6997 419.075 66.5397 419.643 66.5397 420.843V420.875C66.5397 422.083 65.6677 422.619 64.4437 422.619H63.6437V424.795H62.5797ZM63.6437 421.851H64.4197C65.1237 421.851 65.4997 421.507 65.4997 420.875V420.843C65.4997 420.163 65.0997 419.899 64.4197 419.899H63.6437V421.851ZM69.1137 424.875C67.8817 424.875 66.9697 424.019 66.9697 422.747V422.683C66.9697 421.387 67.8897 420.523 69.1217 420.523C70.3457 420.523 71.2657 421.379 71.2657 422.659V422.723C71.2657 424.027 70.3457 424.875 69.1137 424.875ZM69.1217 424.123C69.8417 424.123 70.2737 423.587 70.2737 422.731V422.675C70.2737 421.811 69.8417 421.283 69.1217 421.283C68.4017 421.283 67.9617 421.803 67.9617 422.667V422.731C67.9617 423.587 68.3857 424.123 69.1217 424.123ZM72.6363 419.923C72.3163 419.923 72.0603 419.683 72.0603 419.371C72.0603 419.051 72.3163 418.811 72.6363 418.811C72.9563 418.811 73.2123 419.051 73.2123 419.371C73.2123 419.683 72.9563 419.923 72.6363 419.923ZM72.1643 424.795V420.611H73.1323V424.795H72.1643ZM74.3122 424.795V420.611H75.2802V421.275C75.4802 420.867 75.9442 420.523 76.6322 420.523C77.4722 420.523 78.0642 421.011 78.0642 422.163V424.795H77.0962V422.251C77.0962 421.619 76.8402 421.331 76.2642 421.331C75.7202 421.331 75.2802 421.667 75.2802 422.331V424.795H74.3122ZM80.6034 424.867C79.7714 424.867 79.3394 424.419 79.3394 423.627V421.339H78.7794V420.611H79.3394V419.691H80.3074V420.611H81.2274V421.339H80.3074V423.539C80.3074 423.907 80.4834 424.075 80.7874 424.075C80.9794 424.075 81.1234 424.051 81.2594 423.995V424.763C81.1074 424.819 80.8994 424.867 80.6034 424.867ZM83.588 424.875C82.508 424.875 81.876 424.379 81.836 423.491H82.748C82.796 423.915 83.012 424.163 83.58 424.163C84.1 424.163 84.332 423.979 84.332 423.627C84.332 423.283 84.052 423.155 83.436 423.051C82.332 422.875 81.924 422.563 81.924 421.779C81.924 420.939 82.708 420.523 83.492 420.523C84.348 420.523 85.028 420.843 85.132 421.787H84.236C84.156 421.403 83.94 421.227 83.492 421.227C83.076 421.227 82.828 421.427 82.828 421.723C82.828 422.027 83.028 422.147 83.692 422.259C84.676 422.411 85.26 422.651 85.26 423.539C85.26 424.387 84.66 424.875 83.588 424.875Z" fill="black"/>
<path d="M16.3604 460.117V455.237H14.7684V454.397H19.0244V455.237H17.4324V460.117H16.3604ZM20.3129 460.117L19.0329 455.933H20.0649L20.8969 458.957L21.7849 455.933H22.5929L23.4089 458.957L24.2809 455.933H25.2249L23.9129 460.117H22.9289L22.1529 457.301L21.3049 460.117H20.3129ZM27.6874 460.197C26.4554 460.197 25.5674 459.389 25.5674 458.069V458.005C25.5674 456.709 26.4554 455.845 27.6474 455.845C28.6874 455.845 29.6234 456.461 29.6234 457.957V458.237H26.5594C26.5914 459.029 26.9914 459.477 27.7114 459.477C28.2954 459.477 28.5994 459.245 28.6714 458.837H29.6074C29.4714 459.717 28.7594 460.197 27.6874 460.197ZM26.5754 457.589H28.6634C28.6154 456.869 28.2474 456.549 27.6474 456.549C27.0634 456.549 26.6714 456.941 26.5754 457.589ZM30.512 460.117V453.997H31.48V460.117H30.512ZM33.7559 460.117L32.2279 455.933H33.2679L34.3639 459.125L35.4439 455.933H36.3959L34.8839 460.117H33.7559ZM38.7967 460.197C37.5647 460.197 36.6767 459.389 36.6767 458.069V458.005C36.6767 456.709 37.5647 455.845 38.7567 455.845C39.7967 455.845 40.7327 456.461 40.7327 457.957V458.237H37.6687C37.7007 459.029 38.1007 459.477 38.8207 459.477C39.4047 459.477 39.7087 459.245 39.7807 458.837H40.7167C40.5807 459.717 39.8687 460.197 38.7967 460.197ZM37.6847 457.589H39.7727C39.7247 456.869 39.3567 456.549 38.7567 456.549C38.1727 456.549 37.7807 456.941 37.6847 457.589ZM43.5836 460.117V454.397H45.3196C47.3116 454.397 48.2796 455.533 48.2796 457.197V457.269C48.2796 458.933 47.3116 460.117 45.3036 460.117H43.5836ZM44.6476 459.277H45.2716C46.5516 459.277 47.1676 458.541 47.1676 457.277V457.213C47.1676 455.981 46.6076 455.237 45.2636 455.237H44.6476V459.277ZM50.3027 460.197C49.5347 460.197 48.9027 459.829 48.9027 458.957C48.9027 457.981 49.8467 457.629 51.0467 457.629H51.5667V457.413C51.5667 456.853 51.3747 456.573 50.8067 456.573C50.3027 456.573 50.0547 456.813 50.0067 457.229H49.0707C49.1507 456.253 49.9267 455.845 50.8627 455.845C51.7987 455.845 52.5347 456.229 52.5347 457.373V460.117H51.5827V459.605C51.3107 459.965 50.9427 460.197 50.3027 460.197ZM50.5347 459.501C51.1267 459.501 51.5667 459.189 51.5667 458.653V458.237H51.0707C50.3347 458.237 49.8627 458.405 49.8627 458.917C49.8627 459.269 50.0547 459.501 50.5347 459.501ZM55.0604 460.189C54.2284 460.189 53.7964 459.741 53.7964 458.949V456.661H53.2364V455.933H53.7964V455.013H54.7644V455.933H55.6844V456.661H54.7644V458.861C54.7644 459.229 54.9404 459.397 55.2444 459.397C55.4364 459.397 55.5804 459.373 55.7164 459.317V460.085C55.5644 460.141 55.3564 460.189 55.0604 460.189ZM57.7168 460.197C56.9488 460.197 56.3168 459.829 56.3168 458.957C56.3168 457.981 57.2608 457.629 58.4608 457.629H58.9808V457.413C58.9808 456.853 58.7888 456.573 58.2208 456.573C57.7168 456.573 57.4688 456.813 57.4208 457.229H56.4848C56.5648 456.253 57.3408 455.845 58.2768 455.845C59.2128 455.845 59.9488 456.229 59.9488 457.373V460.117H58.9968V459.605C58.7248 459.965 58.3568 460.197 57.7168 460.197ZM57.9488 459.501C58.5408 459.501 58.9808 459.189 58.9808 458.653V458.237H58.4848C57.7488 458.237 57.2768 458.405 57.2768 458.917C57.2768 459.269 57.4688 459.501 57.9488 459.501ZM63.0445 460.117V454.397H64.8845C66.1646 454.397 67.0045 454.965 67.0045 456.165V456.197C67.0045 457.405 66.1326 457.941 64.9086 457.941H64.1085V460.117H63.0445ZM64.1085 457.173H64.8845C65.5885 457.173 65.9646 456.829 65.9646 456.197V456.165C65.9646 455.485 65.5645 455.221 64.8845 455.221H64.1085V457.173ZM69.5785 460.197C68.3465 460.197 67.4345 459.341 67.4345 458.069V458.005C67.4345 456.709 68.3545 455.845 69.5865 455.845C70.8105 455.845 71.7305 456.701 71.7305 457.981V458.045C71.7305 459.349 70.8105 460.197 69.5785 460.197ZM69.5865 459.445C70.3066 459.445 70.7385 458.909 70.7385 458.053V457.997C70.7385 457.133 70.3066 456.605 69.5865 456.605C68.8665 456.605 68.4265 457.125 68.4265 457.989V458.053C68.4265 458.909 68.8505 459.445 69.5865 459.445ZM73.1012 455.245C72.7812 455.245 72.5252 455.005 72.5252 454.693C72.5252 454.373 72.7812 454.133 73.1012 454.133C73.4212 454.133 73.6772 454.373 73.6772 454.693C73.6772 455.005 73.4212 455.245 73.1012 455.245ZM72.6292 460.117V455.933H73.5972V460.117H72.6292ZM74.777 460.117V455.933H75.745V456.597C75.945 456.189 76.409 455.845 77.097 455.845C77.937 455.845 78.529 456.333 78.529 457.485V460.117H77.561V457.573C77.561 456.941 77.305 456.653 76.729 456.653C76.185 456.653 75.745 456.989 75.745 457.653V460.117H74.777ZM81.0682 460.189C80.2362 460.189 79.8042 459.741 79.8042 458.949V456.661H79.2442V455.933H79.8042V455.013H80.7722V455.933H81.6922V456.661H80.7722V458.861C80.7722 459.229 80.9482 459.397 81.2522 459.397C81.4442 459.397 81.5882 459.373 81.7242 459.317V460.085C81.5722 460.141 81.3642 460.189 81.0682 460.189ZM84.0528 460.197C82.9728 460.197 82.3408 459.701 82.3008 458.813H83.2128C83.2608 459.237 83.4768 459.485 84.0448 459.485C84.5648 459.485 84.7968 459.301 84.7968 458.949C84.7968 458.605 84.5168 458.477 83.9008 458.373C82.7968 458.197 82.3888 457.885 82.3888 457.101C82.3888 456.261 83.1728 455.845 83.9568 455.845C84.8128 455.845 85.4928 456.165 85.5968 457.109H84.7008C84.6208 456.725 84.4048 456.549 83.9568 456.549C83.5408 456.549 83.2928 456.749 83.2928 457.045C83.2928 457.349 83.4928 457.469 84.1568 457.581C85.1408 457.733 85.7248 457.973 85.7248 458.861C85.7248 459.709 85.1248 460.197 84.0528 460.197Z" fill="black"/>
<rect x="90.8829" y="54.8711" width="26.7591" height="26.7591" rx="2.14073" fill="#54C5F8"/>
<rect x="90.8829" y="90.1929" width="26.7591" height="26.7591" rx="2.14073" fill="#54C5F8"/>
<rect x="90.8829" y="125.515" width="26.7591" height="26.7591" rx="2.14073" fill="#54C5F8"/>
<rect x="90.8829" y="160.837" width="26.7591" height="26.7591" rx="2.14073" fill="#54C5F8"/>
<rect x="90.8829" y="196.159" width="26.7591" height="26.7591" rx="2.14073" fill="#54C5F8"/>
<rect x="90.8829" y="231.481" width="26.7591" height="26.7591" rx="2.14073" fill="#54C5F8"/>
<rect x="90.8829" y="266.804" width="26.7591" height="26.7591" rx="2.14073" fill="#54C5F8"/>
<rect x="90.8829" y="302.125" width="26.7591" height="26.7591" rx="2.14073" fill="#54C5F8"/>
<rect x="90.8829" y="337.448" width="26.7591" height="26.7591" rx="2.14073" fill="#54C5F8"/>
<rect x="90.8829" y="372.77" width="26.7591" height="26.7591" rx="2.14073" fill="#54C5F8"/>
<rect x="90.8829" y="408.092" width="26.7591" height="26.7591" rx="2.14073" fill="#54C5F8"/>
<rect x="90.8829" y="443.414" width="26.7591" height="26.7591" rx="2.14073" fill="#54C5F8"/>
<rect x="126.205" y="90.1929" width="26.7591" height="26.7591" rx="2.14073" fill="#FF6666"/>
<rect x="126.205" y="125.515" width="26.7591" height="26.7591" rx="2.14073" fill="#FCC151"/>
<rect x="126.205" y="160.837" width="26.7591" height="26.7591" rx="2.14073" fill="#FCC151"/>
<rect x="161.527" y="196.159" width="26.7591" height="26.7591" rx="2.14073" fill="#FCC151"/>
<rect x="161.527" y="231.481" width="26.7591" height="26.7591" rx="2.14073" fill="#FCC151"/>
<rect x="161.527" y="266.804" width="26.7591" height="26.7591" rx="2.14073" fill="#FEEF91"/>
<rect x="161.527" y="302.125" width="26.7591" height="26.7591" rx="2.14073" fill="#FEEF91"/>
<rect x="196.849" y="337.448" width="26.7591" height="26.7591" rx="2.14073" fill="#FEEF91"/>
<rect x="196.849" y="372.77" width="26.7591" height="26.7591" rx="2.14073" fill="#FEEF91"/>
<rect x="196.849" y="408.092" width="26.7591" height="26.7591" rx="2.14073" fill="#FFF9D0"/>
<rect x="196.849" y="443.414" width="26.7591" height="26.7591" rx="2.14073" fill="#FFF9D0"/>
<rect x="232.171" y="408.092" width="26.7591" height="26.7591" rx="2.14073" fill="#FEEF91"/>
<rect x="232.171" y="443.414" width="26.7591" height="26.7591" rx="2.14073" fill="#FEEF91"/>
<rect x="196.849" y="266.804" width="26.7591" height="26.7591" rx="2.14073" fill="#FCC151"/>
<rect x="196.849" y="302.125" width="26.7591" height="26.7591" rx="2.14073" fill="#FCC151"/>
<rect x="232.171" y="337.448" width="26.7591" height="26.7591" rx="2.14073" fill="#FCC151"/>
<rect x="232.171" y="372.77" width="26.7591" height="26.7591" rx="2.14073" fill="#FCC151"/>
<rect x="267.493" y="408.092" width="26.7591" height="26.7591" rx="2.14073" fill="#FCC151"/>
<rect x="267.493" y="443.414" width="26.7591" height="26.7591" rx="2.14073" fill="#FCC151"/>
<rect x="126.205" y="196.159" width="26.7591" height="26.7591" rx="2.14073" fill="#1F45BD"/>
<rect x="126.205" y="231.481" width="26.7591" height="26.7591" rx="2.14073" fill="#1F45BD"/>
<rect x="126.205" y="266.804" width="26.7591" height="26.7591" rx="2.14073" fill="#1F45BD"/>
<rect x="126.205" y="302.125" width="26.7591" height="26.7591" rx="2.14073" fill="#1F45BD"/>
<rect x="126.205" y="337.448" width="26.7591" height="26.7591" rx="2.14073" fill="#347BDA"/>
<rect x="126.205" y="372.77" width="26.7591" height="26.7591" rx="2.14073" fill="#347BDA"/>
<rect x="126.205" y="408.092" width="26.7591" height="26.7591" rx="2.14073" fill="#347BDA"/>
<rect x="126.205" y="443.414" width="26.7591" height="26.7591" rx="2.14073" fill="#347BDA"/>
<rect x="161.527" y="337.448" width="26.7591" height="26.7591" rx="2.14073" fill="#1F45BD"/>
<rect x="161.527" y="372.77" width="26.7591" height="26.7591" rx="2.14073" fill="#1F45BD"/>
<rect x="161.527" y="408.092" width="26.7591" height="26.7591" rx="2.14073" fill="#1F45BD"/>
<rect x="161.527" y="443.414" width="26.7591" height="26.7591" rx="2.14073" fill="#1F45BD"/>
<rect x="161.527" y="125.515" width="26.7591" height="26.7591" rx="2.14073" fill="#FF6666"/>
<rect x="161.527" y="160.837" width="26.7591" height="26.7591" rx="2.14073" fill="#8CDEB9"/>
<rect x="196.849" y="196.159" width="26.7591" height="26.7591" rx="2.14073" fill="#8CDEB9"/>
<rect x="196.849" y="231.481" width="26.7591" height="26.7591" rx="2.14073" fill="#8CDEB9"/>
<rect x="232.171" y="266.804" width="26.7591" height="26.7591" rx="2.14073" fill="#8CDEB9"/>
<rect x="232.171" y="302.125" width="26.7591" height="26.7591" rx="2.14073" fill="#C9E8D0"/>
<rect x="267.493" y="337.448" width="26.7591" height="26.7591" rx="2.14073" fill="#C9E8D0"/>
<rect x="267.493" y="372.77" width="26.7591" height="26.7591" rx="2.14073" fill="#C9E8D0"/>
<rect x="302.815" y="408.092" width="26.7591" height="26.7591" rx="2.14073" fill="#C9E8D0"/>
<rect x="338.137" y="443.414" width="26.7591" height="26.7591" rx="2.14073" fill="#C9E8D0"/>
<rect x="302.815" y="443.414" width="26.7591" height="26.7591" rx="2.14073" fill="#EEF9DD"/>
<rect x="267.493" y="302.125" width="26.7591" height="26.7591" rx="2.14073" fill="#8CDEB9"/>
<rect x="302.815" y="337.448" width="26.7591" height="26.7591" rx="2.14073" fill="#8CDEB9"/>
<rect x="302.815" y="372.77" width="26.7591" height="26.7591" rx="2.14073" fill="#8CDEB9"/>
<rect x="338.137" y="408.092" width="26.7591" height="26.7591" rx="2.14073" fill="#8CDEB9"/>
<rect x="373.459" y="443.414" width="26.7591" height="26.7591" rx="2.14073" fill="#8CDEB9"/>
<rect x="196.849" y="160.837" width="26.7591" height="26.7591" rx="2.14073" fill="#FF6666"/>
<rect x="232.171" y="196.159" width="26.7591" height="26.7591" rx="2.14073" fill="#FF6666"/>
<rect x="232.171" y="231.481" width="26.7591" height="26.7591" rx="2.14073" fill="#FF6666"/>
<rect x="267.493" y="266.804" width="26.7591" height="26.7591" rx="2.14073" fill="#FF6666"/>
<rect x="302.815" y="302.125" width="26.7591" height="26.7591" rx="2.14073" fill="#FF6666"/>
<rect x="338.137" y="337.448" width="26.7591" height="26.7591" rx="2.14073" fill="#FF6666"/>
<rect x="338.137" y="372.77" width="26.7591" height="26.7591" rx="2.14073" fill="#FF6666"/>
<rect x="373.459" y="408.092" width="26.7591" height="26.7591" rx="2.14073" fill="#FF6666"/>
<rect x="408.781" y="443.414" width="26.7591" height="26.7591" rx="2.14073" fill="#FF6666"/>
<rect x="267.493" y="231.481" width="26.7591" height="26.7591" rx="2.14073" fill="#6C245C"/>
<rect x="302.815" y="266.804" width="26.7591" height="26.7591" rx="2.14073" fill="#6C245C"/>
<rect x="338.137" y="302.125" width="26.7591" height="26.7591" rx="2.14073" fill="#6C245C"/>
<rect x="373.459" y="337.448" width="26.7591" height="26.7591" rx="2.14073" fill="#6C245C"/>
<rect x="373.459" y="372.77" width="26.7591" height="26.7591" rx="2.14073" fill="#A03D63"/>
<rect x="408.781" y="408.092" width="26.7591" height="26.7591" rx="2.14073" fill="#A03D63"/>
<rect x="444.103" y="443.414" width="26.7591" height="26.7591" rx="2.14073" fill="#A03D63"/>
<rect x="408.781" y="372.77" width="26.7591" height="26.7591" rx="2.14073" fill="#6C245C"/>
<rect x="444.103" y="408.092" width="26.7591" height="26.7591" rx="2.14073" fill="#6C245C"/>
<rect x="479.425" y="443.414" width="26.7591" height="26.7591" rx="2.14073" fill="#6C245C"/>
</g>
<defs>
<clipPath id="clip0_865_919015">
<rect width="508" height="504" rx="16" fill="white"/>
</clipPath>
</defs>
</svg>
